<svg width="18" height="18" viewBox="0 0 18 18" fill="none" xmlns="http://www.w3.org/2000/svg">
<g clip-path="url(#clip0_12817_104092)">
<path d="M17.4419 7.58814V1.59492C17.4419 1.07627 17.0385 0.672881 16.5198 0.672881H10.2961C9.77747 0.672881 9.31645 1.07627 9.31645 1.59492V7.58814C9.31645 8.10678 9.77747 8.51017 10.2961 8.51017H16.5198C17.0385 8.51017 17.4419 8.10678 17.4419 7.58814ZM1.47916 9.4322C0.960519 9.4322 0.557129 9.89322 0.557129 10.3542V16.4051C0.557129 16.8661 0.960519 17.3271 1.47916 17.3271H7.76052C8.22154 17.3271 8.68255 16.8661 8.68255 16.4051V10.3542C8.68255 9.89322 8.22154 9.4322 7.76052 9.4322H1.47916ZM4.93679 5.3983H4.01476C4.01476 3.78475 5.39781 2.45932 6.95374 2.45932H7.2995C7.58764 2.45932 7.76052 2.28644 7.76052 1.99831V0.90339C7.76052 0.672881 7.58764 0.5 7.2995 0.5H6.95374C4.24526 0.5 2.05543 2.68983 2.05543 5.3983H0.960519C0.787637 5.3983 0.73001 5.57119 0.73001 5.74407C0.73001 5.80169 0.73001 5.80169 0.787637 5.91695L2.68933 7.99153C2.86221 8.16441 3.09272 8.16441 3.2656 7.99153L5.10967 5.91695C5.22493 5.80169 5.22493 5.62881 5.10967 5.57119C5.05204 5.45593 5.05204 5.3983 4.93679 5.3983ZM13.0622 12.4864H13.9842C13.9842 14.1 12.6588 15.4254 11.0453 15.4254H10.6995C10.4114 15.4254 10.2961 15.5983 10.2961 15.8864V17.039C10.2961 17.3271 10.4114 17.5 10.6995 17.5H11.0453C13.7537 17.5 15.9436 15.2525 15.9436 12.6017H17.0385C17.2114 12.6017 17.269 12.4864 17.269 12.3136C17.269 12.2559 17.269 12.2559 17.2114 12.1407L15.3097 10.0661C15.1944 9.89322 14.9063 9.89322 14.7334 10.0661L12.8893 12.1407C12.8317 12.2559 12.8317 12.4288 12.8893 12.4864C12.8893 12.4288 12.947 12.4864 13.0622 12.4864Z" fill="#3C4155"/>
</g>
<defs>
<clipPath id="clip0_12817_104092">
<rect width="18" height="18" fill="white"/>
</clipPath>
</defs>
</svg>
