<svg xmlns="http://www.w3.org/2000/svg" width="18" height="18" viewBox="0 0 18 18" fill="none">
<g clip-path="url(#clip0_15383_11824)">
<path d="M17.4419 7.58814V1.59492C17.4419 1.07627 17.0385 0.672881 16.5199 0.672881H10.2961C9.7775 0.672881 9.31648 1.07627 9.31648 1.59492V7.58814C9.31648 8.10678 9.7775 8.51017 10.2961 8.51017H16.5199C17.0385 8.51017 17.4419 8.10678 17.4419 7.58814ZM1.47919 9.4322C0.960549 9.4322 0.557159 9.89322 0.557159 10.3542V16.4051C0.557159 16.8661 0.960549 17.3271 1.47919 17.3271H7.76055C8.22157 17.3271 8.68258 16.8661 8.68258 16.4051V10.3542C8.68258 9.89322 8.22157 9.4322 7.76055 9.4322H1.47919ZM4.93682 5.3983H4.01479C4.01479 3.78475 5.39784 2.45932 6.95377 2.45932H7.29953C7.58767 2.45932 7.76055 2.28644 7.76055 1.99831V0.90339C7.76055 0.672881 7.58767 0.5 7.29953 0.5H6.95377C4.2453 0.5 2.05546 2.68983 2.05546 5.3983H0.960549C0.787668 5.3983 0.730041 5.57119 0.730041 5.74407C0.730041 5.80169 0.730041 5.80169 0.787668 5.91695L2.68936 7.99153C2.86224 8.16441 3.09275 8.16441 3.26563 7.99153L5.1097 5.91695C5.22496 5.80169 5.22496 5.62881 5.1097 5.57119C5.05207 5.45593 5.05207 5.3983 4.93682 5.3983ZM13.0622 12.4864H13.9843C13.9843 14.1 12.6589 15.4254 11.0453 15.4254H10.6995C10.4114 15.4254 10.2961 15.5983 10.2961 15.8864V17.039C10.2961 17.3271 10.4114 17.5 10.6995 17.5H11.0453C13.7538 17.5 15.9436 15.2525 15.9436 12.6017H17.0385C17.2114 12.6017 17.269 12.4864 17.269 12.3136C17.269 12.2559 17.269 12.2559 17.2114 12.1407L15.3097 10.0661C15.1944 9.89322 14.9063 9.89322 14.7334 10.0661L12.8894 12.1407C12.8317 12.2559 12.8317 12.4288 12.8894 12.4864C12.8894 12.4288 12.947 12.4864 13.0622 12.4864Z" fill="#929AA5"/>
</g>
<defs>
<clipPath id="clip0_15383_11824">
<rect width="18" height="18" fill="white"/>
</clipPath>
</defs>
</svg>