<svg width="18" height="18" viewBox="0 0 18 18" fill="none" xmlns="http://www.w3.org/2000/svg">
<path d="M8.64627 2.19073C9.28584 1.84165 9.87899 1.5134 10.4257 1.20599C10.8494 0.967884 11.2148 0.779699 11.5218 0.641434C11.6891 0.566016 11.898 0.507298 12.0851 0.501372C12.3373 0.493471 12.5953 0.519688 12.8589 0.580022C13.0523 0.624555 13.2314 0.707873 13.3963 0.829978C13.5106 0.914732 13.6186 1.00452 13.7201 1.09933C13.8112 1.18372 13.8831 1.27817 13.9357 1.38268C14.2822 2.07006 14.6164 2.73086 14.9382 3.36508C14.9476 3.38304 14.9424 3.39202 14.9227 3.39202H6.47029L6.46786 3.39164L6.46639 3.38959L6.46675 3.38707L6.46873 3.38555C7.23754 2.96178 7.96338 2.5635 8.64627 2.19073Z" fill="#3C4155"/>
<path d="M11.7 9.6813C11.5846 9.91115 11.5368 10.1767 11.5566 10.478C11.581 10.8519 11.6787 11.2484 11.8902 11.5414C12.07 11.7903 12.275 11.9645 12.505 12.064C12.7576 12.1733 13.1183 12.1986 13.4046 12.1986C14.7534 12.2001 16.1081 12.2001 17.4687 12.1986C17.4877 12.1986 17.4972 12.2087 17.4972 12.2288C17.4969 13.3683 17.4965 14.5057 17.4962 15.6409C17.4962 15.8171 17.4744 16.032 17.4281 16.2028C17.2538 16.8413 16.8781 17.2469 16.3009 17.4197C16.1187 17.4746 15.8138 17.5014 15.3862 17.4999C11.1666 17.4874 6.94322 17.4863 2.71599 17.4967C2.2791 17.4978 1.95949 17.4689 1.75715 17.41C1.2669 17.267 0.90121 16.9442 0.66007 16.4414C0.554398 16.2216 0.501736 15.9375 0.502082 15.5892C0.503814 12.5861 0.503121 9.52095 0.500003 6.39364C0.499657 6.01763 0.527547 5.73104 0.583675 5.53388C0.733347 5.00452 1.07132 4.62869 1.5976 4.40638C1.81276 4.31535 2.083 4.28033 2.31791 4.28087C6.77345 4.28123 11.2189 4.28123 15.6544 4.28087C16.2292 4.28087 16.686 4.46169 17.0248 4.82334C17.2098 5.0205 17.3438 5.27153 17.4266 5.57643C17.4778 5.76462 17.5023 6.03397 17.4998 6.38448C17.4946 7.21371 17.4941 7.97399 17.4983 8.66532C17.4983 8.67032 17.4964 8.67512 17.4929 8.67865C17.4895 8.68219 17.4849 8.68417 17.4801 8.68417C16.1143 8.68489 14.7297 8.684 13.3261 8.68148C12.5767 8.68005 12.0347 9.01332 11.7 9.6813Z" fill="#3C4155"/>
<path d="M13.2466 11.3152C13.7136 11.3152 14.0922 10.9228 14.0922 10.4387C14.0922 9.95465 13.7136 9.56225 13.2466 9.56225C12.7796 9.56225 12.4011 9.95465 12.4011 10.4387C12.4011 10.9228 12.7796 11.3152 13.2466 11.3152Z" fill="#3C4155"/>
</svg>
