<svg xmlns="http://www.w3.org/2000/svg" width="18" height="18" viewBox="0 0 18 18" fill="none">
<path d="M8.64627 1.79864C9.28585 1.44956 9.87899 1.12131 10.4257 0.813898C10.8494 0.575794 11.2148 0.387609 11.5218 0.249344C11.6891 0.173926 11.898 0.115208 12.0851 0.109282C12.3373 0.101382 12.5953 0.127598 12.8589 0.187932C13.0523 0.232465 13.2314 0.315783 13.3963 0.437888C13.5106 0.522643 13.6186 0.612425 13.7201 0.707236C13.8112 0.791632 13.8831 0.886083 13.9358 0.99059C14.2822 1.67797 14.6164 2.33877 14.9383 2.97299C14.9476 2.99095 14.9424 2.99993 14.9227 2.99993H6.4703L6.46786 2.99955L6.4664 2.9975L6.46676 2.99498L6.46874 2.99346C7.23754 2.56969 7.96339 2.17141 8.64627 1.79864Z" fill="#929AA5"/>
<path d="M11.7 9.68122C11.5846 9.91106 11.5368 10.1766 11.5566 10.478C11.581 10.8518 11.6787 11.2483 11.8902 11.5413C12.07 11.7902 12.275 11.9644 12.505 12.0639C12.7576 12.1732 13.1183 12.1985 13.4046 12.1985C14.7534 12.2 16.1081 12.2 17.4687 12.1985C17.4877 12.1985 17.4972 12.2086 17.4972 12.2287C17.4969 13.3682 17.4965 14.5056 17.4962 15.6408C17.4962 15.817 17.4744 16.0319 17.4281 16.2027C17.2538 16.8412 16.8781 17.2469 16.3009 17.4196C16.1187 17.4745 15.8138 17.5013 15.3862 17.4999C11.1666 17.4873 6.94322 17.4862 2.716 17.4966C2.27911 17.4977 1.95949 17.4688 1.75716 17.4099C1.26691 17.267 0.901213 16.9441 0.660074 16.4413C0.554402 16.2215 0.501739 15.9375 0.502086 15.5891C0.503818 12.5861 0.503125 9.52087 0.500007 6.39355C0.49966 6.01754 0.500016 4.2808 0.500016 4.2808C0.500016 4.2808 1.40242 4.82325 2.00002 4.82325C2.40242 4.82325 2.31791 4.82325 2.31791 4.82325C2.31791 4.82325 11.2189 4.82361 15.6544 4.82325C16.2292 4.82325 16.686 4.46161 17.0248 4.82325C17.2098 5.02042 17.3438 5.27145 17.4266 5.57635C17.4778 5.76454 17.5023 6.03389 17.4998 6.3844C17.4946 7.21363 17.4941 7.97391 17.4983 8.66524C17.4983 8.67024 17.4964 8.67503 17.493 8.67857C17.4895 8.68211 17.4849 8.68409 17.4801 8.68409C16.1143 8.68481 14.7297 8.68391 13.3261 8.6814C12.5767 8.67996 12.0347 9.01324 11.7 9.68122Z" fill="#929AA5"/>
<path d="M13.2466 11.3151C13.7136 11.3151 14.0922 10.9227 14.0922 10.4386C14.0922 9.95457 13.7136 9.56217 13.2466 9.56217C12.7796 9.56217 12.4011 9.95457 12.4011 10.4386C12.4011 10.9227 12.7796 11.3151 13.2466 11.3151Z" fill="#929AA5"/>
<path d="M1 4.5C1 3.39543 1.89543 2.5 3 2.5H14.5C15.6046 2.5 16.5 3.39543 16.5 4.5C16.5 5.60457 15.6046 6.5 14.5 6.5H3C1.89543 6.5 1 5.60457 1 4.5Z" stroke="#929AA5"/>
</svg>