<svg xmlns="http://www.w3.org/2000/svg" width="18" height="18" viewBox="0 0 18 18" fill="none">
<path d="M4.74248 4.64741C4.74248 3.82713 4.98525 3.02527 5.44008 2.34323C5.89491 1.6612 6.54138 1.12961 7.29773 0.815704C8.05409 0.501797 8.88636 0.419665 9.6893 0.579693C10.4922 0.739722 11.2298 1.13472 11.8087 1.71475C12.3876 2.29477 12.7818 3.03377 12.9415 3.83829C13.1012 4.64281 13.0193 5.47671 12.706 6.23455C12.3927 6.99239 11.8621 7.64013 11.1814 8.09585C10.5007 8.55157 9.70044 8.79481 8.88177 8.79481C7.78396 8.79481 6.73112 8.35786 5.95485 7.58007C5.17858 6.80228 4.74248 5.74737 4.74248 4.64741Z" fill="#929AA5"/>
<path d="M16.2628 13.6582L16.1495 13.3788C15.7688 12.4204 15.1142 11.596 14.2677 11.0089C13.4213 10.4217 12.4208 10.098 11.3915 10.0783H6.38077C5.35149 10.098 4.35092 10.4217 3.5045 11.0089C3.07985 11.3034 2.70349 11.6577 2.38577 12.0587C2.84255 11.8357 3.35922 11.71 3.90635 11.71C5.76651 11.71 7.27446 13.1628 7.27446 14.9549C7.27446 15.9865 6.77479 16.9056 5.99591 17.5H14.0406C14.4426 17.498 14.8375 17.3935 15.1881 17.1965C15.5387 16.9994 15.8336 16.7163 16.0449 16.3737C16.2998 15.9733 16.4529 15.5164 16.4909 15.0431C16.5289 14.5697 16.4505 14.0942 16.2628 13.6582Z" fill="#929AA5"/>
<path fill-rule="evenodd" clip-rule="evenodd" d="M6.31159 14.9549C6.31159 16.235 5.23448 17.2727 3.9058 17.2727C2.57712 17.2727 1.50001 16.235 1.50001 14.9549C1.50001 13.6749 2.57712 12.6371 3.9058 12.6371C5.23448 12.6371 6.31159 13.6749 6.31159 14.9549ZM3.5159 13.9539C3.5159 13.7388 3.69029 13.5644 3.90541 13.5644C4.12053 13.5644 4.29492 13.7388 4.29492 13.9539V14.5798H4.97362C5.18087 14.5798 5.34888 14.7478 5.34888 14.9551C5.34888 15.1623 5.18087 15.3303 4.97362 15.3303H4.29492V15.9562C4.29492 16.1714 4.12053 16.3458 3.90541 16.3458C3.69029 16.3458 3.5159 16.1714 3.5159 15.9562V15.3303H2.8372C2.62995 15.3303 2.46194 15.1623 2.46194 14.9551C2.46194 14.7478 2.62995 14.5798 2.8372 14.5798H3.5159V13.9539Z" fill="#929AA5"/>
</svg>