<svg xmlns="http://www.w3.org/2000/svg" width="18" height="18" viewBox="0 0 18 18" fill="none">
<path fill-rule="evenodd" clip-rule="evenodd" d="M15.7502 0C14.5151 0 13.5 1.01507 13.5 2.25021C13.5 2.63598 13.599 3.00029 13.7728 3.31891L13.1154 3.97628C11.9931 3.05468 10.5585 2.50057 8.99805 2.50057C7.4389 2.50057 6.00534 3.05377 4.88353 3.97401L4.2316 3.32208C4.58985 2.65533 4.60785 1.82207 4.20467 1.12373C3.77956 0.387414 2.99134 -0.0180284 2.1918 0.00113824C1.82837 0.00984975 1.46166 0.105506 1.12697 0.298738C0.0559689 0.917081 -0.315109 2.30544 0.303234 3.37644C0.910891 4.42894 2.26096 4.8067 3.32388 4.23261L3.97412 4.88285C3.0523 6.00513 2.49805 7.43994 2.49805 9.00056C2.49805 10.5614 3.05255 11.9961 3.97463 13.1183L3.31901 13.7739C3.00037 13.6001 2.63602 13.501 2.25021 13.501C1.01507 13.501 0 14.5161 0 15.7512C0 16.9864 1.01507 18.0014 2.25021 18.0014C3.48534 18.0014 4.50041 16.9864 4.50041 15.7512C4.50041 15.3657 4.40153 15.0017 4.22795 14.6832L4.88416 14.027L4.89041 14.0321C4.97652 14.1539 5.09824 14.2461 5.23882 14.2959C6.30139 15.0529 7.5984 15.5006 8.99805 15.5006C10.45 15.5006 11.792 15.0204 12.8758 14.2113L12.8783 14.2097L12.883 14.207C12.9377 14.1747 12.988 14.1353 13.0325 14.0899C13.0599 14.0681 13.0871 14.0461 13.1142 14.0239L13.7728 14.6826C13.599 15.0012 13.5 15.3655 13.5 15.7512C13.5 16.9864 14.5151 18.0014 15.7502 18.0014C16.9853 18.0014 18.0004 16.9864 18.0004 15.7512C18.0004 14.5161 16.9853 13.501 15.7502 13.501C15.3647 13.501 15.0006 13.5999 14.6821 13.7736L14.0233 13.1147C14.944 11.9931 15.498 10.5599 15.498 9.00049C15.498 7.44116 14.9447 6.00746 14.0243 4.88561L14.6821 4.2279C15.0006 4.40151 15.3647 4.50041 15.7502 4.50041C16.9853 4.50041 18.0004 3.48534 18.0004 2.25021C18.0004 1.01507 16.9853 0 15.7502 0ZM12.8577 12.2153C12.8727 12.2153 12.8877 12.2159 12.9026 12.2169C13.6219 11.344 14.0536 10.225 14.0536 9.00056C14.0536 6.19991 11.7987 3.94501 8.99805 3.94501C6.19738 3.94501 3.94249 6.19991 3.94249 9.00056C3.94249 10.2252 4.37448 11.3443 5.09395 12.2173C5.11048 12.216 5.12711 12.2153 5.14381 12.2153C5.1838 12.2153 5.2234 12.2191 5.26216 12.2263C5.70362 11.4755 6.36333 10.8691 7.15442 10.4958C6.51725 9.96444 6.10916 9.16635 6.10916 8.27834C6.10916 6.69141 7.41112 5.38945 8.99805 5.38945C10.585 5.38945 11.8869 6.69141 11.8869 8.27834C11.8869 9.16635 11.4789 9.96444 10.8417 10.4958C11.6333 10.8691 12.2946 11.4757 12.7364 12.2269C12.7761 12.2193 12.8167 12.2153 12.8577 12.2153Z" fill="#929AA5"/>
</svg>