<svg width="24" height="24" viewBox="0 0 24 24" fill="none" xmlns="http://www.w3.org/2000/svg">
<path fill-rule="evenodd" clip-rule="evenodd" d="M4.20306 12.5284L4.20272 12.5261C3.91865 10.6236 3.97467 8.74081 4.0385 6.59544C4.04591 6.3464 4.05343 6.09362 4.06053 5.83707C6.99345 5.33946 9.56644 4.13794 11.8901 2.57471C14.2301 4.13826 16.8254 5.36546 19.8065 5.86276C19.8999 6.90007 19.9717 7.93005 19.9847 8.90971C20.0032 10.2938 19.8988 11.3848 19.672 12.1463C18.8571 14.8822 17.7381 16.8301 16.3973 18.2982C15.1862 19.6243 13.705 20.6565 11.8894 21.5132C7.58138 19.4945 4.83556 16.7889 4.20306 12.5284ZM14.1539 10.4872C14.1539 11.2191 13.7889 11.8658 13.2309 12.255V15.1026C13.2309 15.7823 12.6798 16.3333 12.0001 16.3333C11.3204 16.3333 10.7693 15.7823 10.7693 15.1026V12.255C10.2113 11.8658 9.84625 11.2191 9.84625 10.4872C9.84625 9.29764 10.8106 8.33333 12.0001 8.33333C13.1896 8.33333 14.1539 9.29764 14.1539 10.4872Z" fill="white"/>
<path fill-rule="evenodd" clip-rule="evenodd" d="M3.16001 12.71L3.16018 12.7111C3.89135 17.6363 7.21306 20.5887 11.8878 22.6602C11.8886 22.6604 11.8894 22.6605 11.8904 22.6608C11.9007 22.663 11.9141 22.665 11.9282 22.666C14.0534 21.7356 15.8214 20.5724 17.2608 18.9964C18.7147 17.4045 19.886 15.3335 20.7222 12.5263C20.9985 11.5983 21.0986 10.3854 21.0801 8.99664C21.0624 7.66711 20.9385 6.26219 20.8039 4.91462C20.7968 4.9051 20.7887 4.89472 20.7795 4.8838C17.451 4.54426 14.618 3.17993 12.0394 1.35205C12.0246 1.34859 12.0057 1.3449 11.983 1.34171C11.9542 1.33766 11.9231 1.33491 11.8915 1.33384C11.8617 1.33283 11.8343 1.3334 11.8106 1.33502C9.22144 3.19355 6.36717 4.54268 3.03445 4.87257C3.02373 5.47311 3.00613 6.0617 2.98882 6.64061C2.92558 8.75603 2.8662 10.7422 3.16001 12.71ZM2.6186 3.57107C2.2804 3.59834 1.71038 4.122 1.70765 4.42201C1.69964 5.11558 1.67869 5.81193 1.65772 6.5089C1.5931 8.65683 1.5283 10.8106 1.8413 12.9069C2.66769 18.4735 6.46693 21.719 11.3598 23.8846C11.6544 24.0155 12.099 24.0455 12.3881 23.92C16.9592 21.9372 20.2322 18.842 22 12.9069C22.6667 10.6686 22.3967 7.42509 22.1166 4.64293C22.0757 4.24473 21.5139 3.60925 21.1484 3.57925C17.9928 3.30924 15.2873 2.0301 12.7508 0.221845C12.3744 -0.0454376 11.4935 -0.0836209 11.1389 0.17548C8.57519 2.03555 5.82054 3.31742 2.6186 3.57107Z" fill="white"/>
</svg>
