<svg xmlns="http://www.w3.org/2000/svg" width="18" height="18" viewBox="0 0 18 18" fill="none">
<path fill-rule="evenodd" clip-rule="evenodd" d="M3.15228 9.39691L3.15202 9.3952C2.93897 7.96835 2.98099 6.55622 3.02886 4.94719C3.03442 4.76041 3.04006 4.57083 3.04538 4.37841C5.24507 4.00521 7.17481 3.10407 8.91756 1.93164C10.6725 3.10431 12.619 4.02471 14.8549 4.39768C14.9249 5.17566 14.9787 5.94815 14.9885 6.68289C15.0024 7.72092 14.9241 8.53923 14.754 9.11036C14.1428 11.1623 13.3036 12.6232 12.2979 13.7243C11.3896 14.7188 10.2787 15.493 8.91706 16.1355C5.68602 14.6215 3.62665 12.5923 3.15228 9.39691ZM10.4805 7.86587C10.4805 8.41481 10.2067 8.8998 9.78819 9.19171V11.3274C9.78819 11.8372 9.37491 12.2505 8.86511 12.2505C8.35531 12.2505 7.94204 11.8372 7.94204 11.3274V9.19171C7.52354 8.8998 7.24973 8.41481 7.24973 7.86587C7.24973 6.97372 7.97296 6.25049 8.86511 6.25049C9.75726 6.25049 10.4805 6.97372 10.4805 7.86587Z" fill="#929AA5"/>
<path fill-rule="evenodd" clip-rule="evenodd" d="M2.36999 9.53249L2.37012 9.53331C2.9185 13.2272 5.40978 15.4415 8.91585 16.9951C8.91643 16.9953 8.91707 16.9954 8.91779 16.9956C8.92551 16.9973 8.93556 16.9988 8.94611 16.9995C10.5401 16.3017 11.8661 15.4293 12.9455 14.2473C14.036 13.0534 14.9145 11.5001 15.5416 9.3947C15.7489 8.69876 15.824 7.78901 15.8101 6.74748C15.7968 5.75033 15.7038 4.69665 15.6029 3.68596C15.5976 3.67883 15.5915 3.67104 15.5846 3.66285C13.0882 3.40819 10.9635 2.38494 9.02956 1.01403C9.01847 1.01144 9.00424 1.00868 8.98721 1.00628C8.96564 1.00324 8.94233 1.00118 8.9186 1.00038C8.89626 0.999619 8.87571 1.00005 8.85794 1.00127C6.91606 2.39516 4.77536 3.40701 2.27583 3.65443C2.26778 4.10483 2.25458 4.54627 2.2416 4.98046C2.19417 6.56702 2.14963 8.05665 2.36999 9.53249ZM1.96393 2.6783C1.71029 2.69876 1.28277 3.0915 1.28073 3.31651C1.27471 3.83668 1.259 4.35895 1.24327 4.88167C1.19481 6.49262 1.14621 8.10796 1.38096 9.68016C2.00075 13.8551 4.85018 16.2893 8.51987 17.9134C8.74079 18.0116 9.07421 18.0341 9.29103 17.94C12.7193 16.4529 15.1742 14.1315 16.5 9.68016C17 8.00146 16.7975 5.56882 16.5875 3.48219C16.5568 3.18355 16.1354 2.70694 15.8613 2.68444C13.4946 2.48193 11.4654 1.52257 9.56309 0.166384C9.28081 -0.0340782 8.6201 -0.0627156 8.35418 0.13161C6.43138 1.52666 4.36539 2.48807 1.96393 2.6783Z" fill="#929AA5"/>
</svg>