<svg width="18" height="18" viewBox="0 0 18 18" fill="none" xmlns="http://www.w3.org/2000/svg">
<path d="M6.1231 2.5655H10.2316C10.7482 2.5214 11.1361 2.0624 11.1064 1.5269C11.1183 1.26701 11.0293 1.01258 10.858 0.8168C10.7735 0.722478 10.6712 0.645895 10.5568 0.591508C10.4425 0.537121 10.3185 0.506015 10.192 0.5H6.1114C5.5858 0.5324 5.1871 0.9914 5.2078 1.5368C5.1871 2.0732 5.5948 2.543 6.1222 2.5646L6.1231 2.5655Z" fill="#3C4155"/>
<path fill-rule="evenodd" clip-rule="evenodd" d="M12.8308 1.68059C12.9068 1.90623 12.9302 2.14629 12.899 2.38236C12.8678 2.61874 12.7828 2.84482 12.6505 3.04319C12.3832 3.44009 11.9494 3.67679 11.4859 3.67679H4.83041C4.36781 3.67679 3.93221 3.44009 3.66581 3.04319C3.53366 2.84493 3.44873 2.61901 3.41752 2.3828C3.38632 2.14658 3.40968 1.90636 3.48581 1.68059H2.50131C1.45101 1.68059 0.599609 2.57429 0.599609 3.67679V15.6486C0.599609 16.7511 1.45101 17.6448 2.50221 17.6448H11.1311C10.8975 17.5605 10.6984 17.4668 10.5274 17.3702C9.93374 17.0347 9.69336 16.3319 9.69336 15.65V11.2782C9.69336 10.7706 9.82561 10.2479 10.2304 9.94156C11.5835 8.91751 14.2135 8.81523 15.6934 9.00021L15.7149 9.01097V3.67679C15.7149 2.57429 14.8635 1.68059 13.8132 1.68059H12.8308ZM7.69336 11.5086H3.20051C2.86481 11.5086 2.54711 11.703 2.37881 12.009C2.29961 12.1575 2.25551 12.333 2.25551 12.5094C2.25551 13.0665 2.67941 13.5111 3.20951 13.5111H7.71046C8.04616 13.5111 8.36386 13.3167 8.53216 13.0107C8.69956 12.6957 8.69956 12.315 8.51416 12.009C8.43437 11.8599 8.31622 11.7349 8.17193 11.6467C8.02763 11.5586 7.86242 11.5115 7.69336 11.5086ZM10.1934 7.50179H3.17621C2.85041 7.50179 2.54081 7.69619 2.37791 8.00219C2.21501 8.31719 2.21501 8.69789 2.37791 9.00389C2.54081 9.30989 2.84141 9.50519 3.17621 9.50519H10.1934C10.5192 9.50519 10.8288 9.30989 10.9917 9.00389C11.1546 8.68889 11.1546 8.30819 10.9917 8.00219C10.9169 7.85393 10.8029 7.72894 10.6622 7.64075C10.5215 7.55255 10.3594 7.5045 10.1934 7.50179Z" fill="#3C4155"/>
<path d="M17.6934 11.3C17.6934 12.1284 16.1264 12.8 14.1934 12.8C12.2604 12.8 10.6934 12.1284 10.6934 11.3C10.6934 10.4716 12.2604 9.8 14.1934 9.8C16.1264 9.8 17.6934 10.4716 17.6934 11.3Z" fill="#3C4155"/>
<path d="M17.4942 12.5C17.0137 13.0826 15.7173 13.5 14.1934 13.5C12.6694 13.5 11.373 13.0826 10.8925 12.5C10.7635 12.6564 10.6934 12.8247 10.6934 13C10.6934 13.8284 12.2604 14.5 14.1934 14.5C16.1264 14.5 17.6934 13.8284 17.6934 13C17.6934 12.8247 17.6232 12.6564 17.4942 12.5Z" fill="#3C4155"/>
<path d="M17.4942 14C17.0137 14.5826 15.7173 15 14.1934 15C12.6694 15 11.373 14.5826 10.8925 14C10.7635 14.1564 10.6934 14.3247 10.6934 14.5C10.6934 15.3284 12.2604 16 14.1934 16C16.1264 16 17.6934 15.3284 17.6934 14.5C17.6934 14.3247 17.6232 14.1564 17.4942 14Z" fill="#3C4155"/>
<path d="M17.4942 15.5C17.0137 16.0826 15.7173 16.5 14.1934 16.5C12.6694 16.5 11.373 16.0826 10.8925 15.5C10.7635 15.6564 10.6934 15.8247 10.6934 16C10.6934 16.8284 12.2604 17.5 14.1934 17.5C16.1264 17.5 17.6934 16.8284 17.6934 16C17.6934 15.8247 17.6232 15.6564 17.4942 15.5Z" fill="#3C4155"/>
</svg>
