<svg xmlns="http://www.w3.org/2000/svg" width="18" height="18" viewBox="0 0 18 18" fill="none">
<path fill-rule="evenodd" clip-rule="evenodd" d="M2.25058 1.25875C1.14601 1.25875 0.250581 2.15418 0.250581 3.25875L0.25 15C0.25 16.1046 1.14543 17 2.25 17H15.7506C16.8552 17 17.7506 16.1046 17.7506 15L17.7512 3.25875C17.7512 2.15418 16.8557 1.25875 15.7512 1.25875H2.25058ZM13.2506 6.27277C13.2506 7.52798 12.2432 8.54549 11.0006 8.54549C9.75795 8.54549 8.75058 7.52798 8.75058 6.27277C8.75058 5.01755 9.75795 4.00004 11.0006 4.00004C12.2432 4.00004 13.2506 5.01755 13.2506 6.27277ZM6.50058 13.0909C6.50058 11.0826 8.11236 9.45459 10.1006 9.45459H11.9006C13.8888 9.45459 15.5006 11.0826 15.5006 13.0909C15.5006 13.593 15.0976 14 14.6006 14H7.40058C6.90352 14 6.50058 13.593 6.50058 13.0909ZM2.25058 10C2.25058 9.44775 2.6983 9.00004 3.25058 9.00004H4.75058C5.30287 9.00004 5.75058 9.44775 5.75058 10C5.75058 10.5523 5.30287 11 4.75058 11H3.25058C2.6983 11 2.25058 10.5523 2.25058 10ZM3.25058 5.00004C2.6983 5.00004 2.25058 5.44775 2.25058 6.00004C2.25058 6.55232 2.6983 7.00004 3.25058 7.00004H6.25058C6.80287 7.00004 7.25058 6.55232 7.25058 6.00004C7.25058 5.44775 6.80287 5.00004 6.25058 5.00004H3.25058Z" fill="#929AA5"/>
</svg>