<svg xmlns="http://www.w3.org/2000/svg" width="18" height="18" viewBox="0 0 18 18" fill="none">
<g clip-path="url(#clip0_15383_11867)">
<path fill-rule="evenodd" clip-rule="evenodd" d="M9.48837 -0.0292969C9.54476 0.00229897 9.60104 0.0341393 9.65728 0.0659602L9.6573 0.0659718C9.75737 0.122594 9.85734 0.179154 9.95769 0.234166C10.9587 0.783756 11.2608 2.14168 10.5158 3.00667C10.2048 3.36728 9.84498 3.68514 9.46842 4.01776C9.29377 4.17204 9.11552 4.32949 8.93689 4.49585C8.7967 4.34824 8.64702 4.19985 8.49416 4.04832C8.14144 3.69865 7.77179 3.3322 7.46281 2.91979C6.78574 2.01514 7.19652 0.665717 8.22771 0.188839C8.34043 0.136619 8.4553 0.0886925 8.57028 0.0407168L8.5703 0.0407099C8.62581 0.0175489 8.68135 -0.00562375 8.73669 -0.0292969H9.48837ZM0 7.8595V7.29575C0.622302 6.09836 1.49107 5.96993 2.44388 6.93313C2.7222 7.21396 3.0001 7.49521 3.27814 7.7766L3.69793 8.20134C4.28812 8.7972 4.52326 8.7972 5.13989 8.21173C6.07133 7.32734 7.00375 6.44492 7.93822 5.56056L9.01818 4.53835C9.43391 4.93244 9.84734 5.32413 10.2591 5.71425C11.1409 6.54968 12.0151 7.3779 12.888 8.20701C13.5112 8.79909 13.7435 8.80098 14.3309 8.20701C14.4848 8.05167 14.6374 7.89515 14.7899 7.73867L14.7899 7.73863L14.79 7.7386L14.79 7.73857C15.129 7.3909 15.4678 7.04338 15.8201 6.70933C16.2988 6.25417 16.8465 6.18712 17.3687 6.47136C17.8683 6.74332 18.0826 7.26647 17.9712 7.91616C17.885 8.41988 17.801 8.92408 17.717 9.42839L17.7168 9.42936C17.6342 9.92499 17.5516 10.4207 17.4669 10.9162C17.34 11.6623 17.2155 12.6347 17.0888 13.6239L17.0888 13.6239V13.6239C16.9413 14.7758 16.7908 15.9504 16.6303 16.8166C16.4943 17.5512 16.041 17.9271 15.3347 17.928C14.9426 17.9287 14.5506 17.9294 14.1585 17.9299C12.6524 17.6573 10.8872 17.5005 9 17.5005C7.11291 17.5005 5.3479 17.6573 3.84187 17.9299C3.46369 17.9293 3.08551 17.9287 2.70734 17.928C1.98589 17.9271 1.53262 17.5446 1.40419 16.8279C1.24028 15.9109 1.08326 14.7166 0.926977 13.5278L0.926976 13.5278L0.926974 13.5278L0.926973 13.5277C0.77713 12.388 0.627963 11.2533 0.474045 10.3733C0.372551 9.79488 0.261196 9.21784 0.149862 8.64091C0.0996008 8.38045 0.0493436 8.12002 0 7.8595ZM9.00071 15.5149C8.81817 15.5149 8.6431 15.4424 8.51402 15.3134L5.33729 12.1366C5.06852 11.8679 5.06852 11.4321 5.33729 11.1633C5.60607 10.8945 6.04183 10.8945 6.31061 11.1633L9.00064 13.8533L11.6902 11.1634C11.9589 10.8946 12.3947 10.8945 12.6635 11.1633C12.9323 11.432 12.9323 11.8678 12.6636 12.1366L9.48738 15.3133C9.35831 15.4424 9.18325 15.5149 9.00071 15.5149Z" fill="#929AA5"/>
</g>
<defs>
<clipPath id="clip0_15383_11867">
<rect width="18" height="18" fill="white"/>
</clipPath>
</defs>
</svg>