<svg width="18" height="16" viewBox="0 0 18 16" fill="none" xmlns="http://www.w3.org/2000/svg">
<path fill-rule="evenodd" clip-rule="evenodd" d="M9.48085 0.744811C9.64802 0.663332 9.81718 0.580888 9.98912 0.497579C9.91599 0.452633 9.84646 0.409451 9.77928 0.367724C9.62945 0.274665 9.49126 0.188837 9.35068 0.1068C9.1408 -0.0153711 8.9213 -0.0337801 8.69051 0.0570111C8.15326 0.267881 7.61559 0.477077 7.07499 0.679161C6.9366 0.730623 6.93702 0.818486 6.9759 0.925595C7.07374 1.19546 7.28446 1.3511 7.54117 1.4444C7.54557 1.44598 7.55003 1.44759 7.55454 1.44922C7.6657 1.48931 7.80815 1.54067 7.89655 1.50047C8.42199 1.26088 8.94109 1.00788 9.48085 0.744811ZM8.77323 1.79558L8.30964 2.01774L8.31006 2.01816C8.31652 2.04417 8.32225 2.06801 8.32762 2.09035L8.32762 2.09036C8.33891 2.13737 8.34861 2.17775 8.36023 2.21773C8.5722 2.95159 8.65122 3.70177 8.50196 4.4507C8.10937 6.423 7.03361 7.81709 5.05268 8.41078C4.96184 8.438 4.86474 8.45535 4.76807 8.47262C4.58533 8.50527 4.40412 8.53764 4.26958 8.63588C4.11883 8.74597 4.0173 8.92376 3.91579 9.10154C3.87147 9.17916 3.82715 9.25677 3.77874 9.32874L3.77135 9.33972C3.57944 9.62487 3.56969 9.63935 3.80048 9.91658C4.57647 10.8483 5.50756 11.5897 6.585 12.1466C6.73384 12.2236 6.81788 12.2056 6.91027 12.0445C7.36725 11.2479 8.02324 10.7149 8.93553 10.4923C9.39752 10.3797 9.87415 10.2425 10.2822 10.0078C11.437 9.34338 12.5077 8.55387 13.4794 7.63592C14.0363 7.10958 14.3181 6.46024 14.3168 5.69876C14.3156 4.65738 14.0777 3.66746 13.5818 2.74993C13.1713 1.99055 12.5859 1.39308 11.8154 0.994352C11.3989 0.77888 10.9704 0.730346 10.536 0.966738C10.4379 1.01994 10.3344 1.06345 10.231 1.10698C10.1611 1.13636 10.0912 1.16574 10.023 1.19811C9.60655 1.39609 9.19077 1.59541 8.77323 1.79558ZM11.2054 12.8978C11.003 12.948 10.9206 13.0099 10.9232 13.3271V13.3266C10.9347 13.3531 10.9474 13.387 10.9617 13.4255L10.9618 13.4256C11.0004 13.529 11.0516 13.6664 11.1293 13.7865C11.395 14.198 11.6682 14.6046 11.9414 15.0111L11.9415 15.0113C12.0835 15.2225 12.2255 15.4338 12.3664 15.6458L12.3714 15.6533C12.6327 16.0467 12.6345 16.0492 13.1052 15.9337C15.2375 15.4107 16.7673 14.0735 17.9806 12.312C18.0065 12.2748 18.0065 12.1865 17.9802 12.1505C17.8662 11.9955 17.7528 11.8401 17.6394 11.6847L17.6394 11.6846C17.2363 11.1322 16.8332 10.5796 16.4061 10.0464C16.1364 9.70964 15.7384 9.59793 15.3098 9.71968C15.2128 9.7473 15.1212 9.83893 15.056 9.92344C15.0004 9.99543 14.9523 10.0735 14.9042 10.1515L14.9042 10.1515L14.9042 10.1515L14.9042 10.1515L14.9042 10.1515C14.8461 10.2458 14.7881 10.3399 14.7169 10.423C13.9435 11.3259 13.0249 12.0543 11.9868 12.6263C11.7481 12.7576 11.4725 12.8317 11.2054 12.8978ZM0 12.231C0.170909 12.0085 0.337867 11.7886 0.502922 11.5712L0.502952 11.5711C0.890652 11.0604 1.26785 10.5635 1.66109 10.0796C1.9617 9.70935 2.38064 9.59388 2.8489 9.72692C2.90953 9.74408 2.98478 9.78759 3.00987 9.83989C3.32219 10.4859 3.84063 10.952 4.37203 11.403C4.9883 11.9256 5.62339 12.426 6.37387 12.7481C6.54403 12.8214 6.72925 12.8778 6.91196 12.8971C7.10219 12.9168 7.19417 13.0214 7.17368 13.1766C7.14818 13.3707 7.09968 13.5803 6.99683 13.7431C6.71977 14.1816 6.42992 14.6119 6.14001 15.0424L6.13996 15.0424L6.13995 15.0424L6.13994 15.0425L6.13993 15.0425C6.01381 15.2297 5.88769 15.417 5.76261 15.6049C5.56611 15.9003 5.29295 16.0056 4.94314 15.9208C3.49904 15.5706 2.30162 14.7974 1.28481 13.7381C0.984493 13.4253 0.7087 13.0892 0.420295 12.7377C0.284299 12.5719 0.145498 12.4028 0 12.231ZM7.49476 2.10555C6.89604 1.91643 6.44492 1.57126 6.31113 0.899321V0.899739C5.65054 0.90476 4.98785 1.27253 4.77045 1.82313C4.21271 3.23521 3.7783 4.68619 3.37233 6.14555C3.24231 6.61331 3.31965 7.09405 3.58598 7.51244C3.74486 7.7618 3.95976 8.00154 4.298 7.91493C4.36499 7.89777 4.43237 7.88094 4.4999 7.86407C4.90481 7.76293 5.3152 7.66041 5.68106 7.47646C7.47218 6.57566 8.34725 4.34311 7.736 2.34738C7.69419 2.21056 7.6298 2.14822 7.49476 2.10555ZM13.6395 8.36679C13.7026 8.45845 13.7655 8.54947 13.8281 8.64009L13.8281 8.64016C14.0381 8.94409 14.2449 9.24339 14.4452 9.54665C14.4715 9.5864 14.4573 9.6864 14.4239 9.7274C14.3728 9.7899 14.3223 9.85308 14.2717 9.9163L14.2717 9.91634C14.0918 10.1413 13.9116 10.3667 13.7043 10.5633C13.0671 11.1688 12.3831 11.7181 11.5892 12.1114C11.1999 12.3043 11.1974 12.3005 10.9691 11.9294C10.7358 11.5499 10.503 11.17 10.2705 10.7901C10.2685 10.787 10.2692 10.7818 10.2702 10.7754C10.2706 10.7725 10.2711 10.7693 10.2713 10.7659C11.4667 10.0826 12.5859 9.28767 13.6391 8.36679H13.6395Z" fill="white"/>
</svg>
