<svg width="18" height="18" viewBox="0 0 18 18" fill="none" xmlns="http://www.w3.org/2000/svg">
<path fill-rule="evenodd" clip-rule="evenodd" d="M3.27273 0.857143C3.27273 0.383756 3.63904 0 4.09091 0H13.9091C14.361 0 14.7273 0.383756 14.7273 0.857143V3H17.1818C17.6337 3 18 3.38376 18 3.85714C18 6.89197 16.3157 8.75019 14.3236 8.97659C13.581 10.9824 11.8832 12.4798 9.81609 12.7954C9.81747 12.8158 9.81818 12.8364 9.81818 12.8571V13.7143H11.0628C11.3378 13.7143 11.5944 13.859 11.7458 14.0995L13.3648 16.6709C13.5306 16.9342 13.5449 17.2715 13.4022 17.5492C13.2595 17.8268 12.9828 18 12.6818 18H5.31818C5.02181 18 4.74861 17.8321 4.604 17.5611C4.4594 17.2901 4.46599 16.9583 4.62125 16.6938L6.1308 14.1224C6.27968 13.8688 6.54352 13.7143 6.82773 13.7143H8.18182V12.8571C8.18182 12.8364 8.18252 12.8158 8.18391 12.7954C6.11683 12.4798 4.419 10.9824 3.67635 8.97659C1.6843 8.75019 0 6.89197 0 3.85714C0 3.38376 0.366312 3 0.818182 3H3.27273V0.857143ZM14.7273 4.71429H16.3035C16.1052 6.04705 15.4444 6.79889 14.7273 7.11163V4.71429ZM3.27273 4.71429H1.69655C1.89477 6.04705 2.55564 6.79889 3.27273 7.11163V4.71429Z" fill="white"/>
</svg>
