<svg width="18" height="18" viewBox="0 0 18 18" fill="none" xmlns="http://www.w3.org/2000/svg">
<path d="M4.74247 4.64741C4.74247 3.82713 4.98524 3.02527 5.44007 2.34323C5.8949 1.6612 6.54137 1.12961 7.29772 0.815704C8.05408 0.501797 8.88635 0.419665 9.68929 0.579693C10.4922 0.739722 11.2298 1.13472 11.8087 1.71475C12.3876 2.29477 12.7818 3.03377 12.9415 3.83829C13.1012 4.64281 13.0193 5.47671 12.706 6.23455C12.3927 6.99239 11.8621 7.64013 11.1814 8.09585C10.5007 8.55157 9.70043 8.79481 8.88176 8.79481C7.78395 8.79481 6.73111 8.35786 5.95484 7.58007C5.17858 6.80228 4.74247 5.74737 4.74247 4.64741Z" fill="white"/>
<path d="M16.2628 13.6582L16.1495 13.3788C15.7688 12.4204 15.1142 11.596 14.2677 11.0089C13.4213 10.4217 12.4208 10.098 11.3915 10.0783H6.38076C5.35148 10.098 4.35091 10.4217 3.50449 11.0089C3.07985 11.3034 2.70348 11.6577 2.38576 12.0587C2.84254 11.8357 3.35921 11.71 3.90634 11.71C5.7665 11.71 7.27445 13.1628 7.27445 14.9549C7.27445 15.9865 6.77479 16.9056 5.9959 17.5H14.0406C14.4426 17.498 14.8375 17.3935 15.1881 17.1965C15.5387 16.9994 15.8336 16.7163 16.0449 16.3737C16.2998 15.9733 16.4529 15.5164 16.4909 15.0431C16.5288 14.5697 16.4505 14.0942 16.2628 13.6582Z" fill="white"/>
<path fill-rule="evenodd" clip-rule="evenodd" d="M6.31158 14.9549C6.31158 16.235 5.23447 17.2727 3.90579 17.2727C2.57711 17.2727 1.5 16.235 1.5 14.9549C1.5 13.6749 2.57711 12.6371 3.90579 12.6371C5.23447 12.6371 6.31158 13.6749 6.31158 14.9549ZM3.51589 13.9539C3.51589 13.7388 3.69028 13.5644 3.9054 13.5644C4.12052 13.5644 4.29491 13.7388 4.29491 13.9539V14.5798H4.97361C5.18087 14.5798 5.34888 14.7478 5.34888 14.9551C5.34888 15.1623 5.18087 15.3303 4.97361 15.3303H4.29491V15.9562C4.29491 16.1714 4.12052 16.3458 3.9054 16.3458C3.69028 16.3458 3.51589 16.1714 3.51589 15.9562V15.3303H2.83719C2.62994 15.3303 2.46193 15.1623 2.46193 14.9551C2.46193 14.7478 2.62994 14.5798 2.83719 14.5798H3.51589V13.9539Z" fill="white"/>
</svg>
