<svg width="18" height="18" viewBox="0 0 18 18" fill="none" xmlns="http://www.w3.org/2000/svg">
<g clip-path="url(#clip0_8391_73045)">
<path fill-rule="evenodd" clip-rule="evenodd" d="M8.9181 16.1348C5.68568 14.6211 3.62709 12.5918 3.15248 9.39453C3.03139 8.57764 2.99232 7.76562 2.99037 6.91895C2.98842 6.28662 3.00795 5.63477 3.02943 4.94678L3.04506 4.37793C5.24623 4.00488 7.17592 3.10352 8.9181 1.93115C10.672 3.104 12.6193 4.02441 14.8556 4.39697C14.9259 5.17529 14.9787 5.94775 14.9884 6.68262C15.0021 7.72021 14.924 8.53857 14.754 9.10986C14.1427 11.1616 13.3048 12.6226 12.299 13.7236C11.3908 14.7183 10.2794 15.4927 8.9181 16.1348ZM10.6154 7.86523C10.6154 8.41455 10.3419 8.89941 9.92396 9.19141V11.3271C9.92396 11.8369 9.5099 12.25 9.00013 12.25C8.49037 12.25 8.07631 11.8369 8.07631 11.3271V9.19141C7.65834 8.89941 7.3849 8.41455 7.3849 7.86523C7.3849 6.97314 8.10756 6.25 9.00013 6.25C9.89271 6.25 10.6154 6.97314 10.6154 7.86523Z" fill="#67707B"/>
<path d="M9.56309 0.164919L9.27284 0.572052C11.2139 1.95587 13.3182 2.96049 15.7885 3.17853C15.7934 3.18131 15.7999 3.18527 15.8081 3.19075C15.8457 3.21584 15.8943 3.25753 15.9441 3.31288C15.9935 3.36772 16.0344 3.42528 16.062 3.47512C16.0842 3.51534 16.0899 3.53632 16.0907 3.53814C16.1954 4.57872 16.296 5.68677 16.31 6.73935C16.3242 7.79953 16.2494 8.76832 16.0208 9.53597C15.3758 11.7015 14.464 13.3247 13.3147 14.583C12.165 15.8419 10.7579 16.7572 9.09206 17.4799L9.09199 17.4799C9.07436 17.4875 9.01828 17.5018 8.92918 17.4979C8.84302 17.494 8.76742 17.4748 8.72294 17.4551L8.72223 17.4548C5.13205 15.8658 2.45985 13.5412 1.87554 9.60527L1.87547 9.60486C1.64794 8.08096 1.69448 6.52875 1.74244 4.92932C1.75774 4.41916 1.77318 3.9042 1.77992 3.38382C1.7981 3.358 1.82785 3.32309 1.86813 3.2857C1.91348 3.24361 1.96016 3.20954 1.99814 3.18789C2.01056 3.18081 2.02002 3.17621 2.02633 3.17344C4.5343 2.9697 6.67886 1.96297 8.64561 0.53644C8.64577 0.536712 8.666 0.525584 8.71707 0.514995C8.77572 0.502834 8.85164 0.496353 8.93555 0.499199C9.01908 0.502032 9.09913 0.513726 9.16527 0.531128C9.23541 0.549585 9.26807 0.568666 9.27359 0.572583L9.56309 0.164919ZM9.56309 0.164919C11.4654 1.52111 13.4946 2.48046 15.8613 2.68297C16.1354 2.70547 16.5568 3.18208 16.5875 3.48073C16.7975 5.56735 17 8 16.5 9.6787C15.1742 14.1301 12.7193 16.4515 9.29103 17.9386L9.56309 0.164919ZM15.7772 3.17281C15.7772 3.17279 15.7775 3.17292 15.7782 3.17322L15.7772 3.17281Z" stroke="#67707B"/>
</g>
<defs>
<clipPath id="clip0_8391_73045">
<rect width="18" height="18" fill="white"/>
</clipPath>
</defs>
</svg>
