<svg width="18" height="18" viewBox="0 0 18 18" fill="none" xmlns="http://www.w3.org/2000/svg">
<g clip-path="url(#clip0_8391_73115)">
<path fill-rule="evenodd" clip-rule="evenodd" d="M9.48837 -0.0297852C9.54476 0.00181011 9.60103 0.0336498 9.65727 0.0654702L9.65729 0.0654803C9.75737 0.122103 9.85733 0.178665 9.95769 0.233678C10.9587 0.783268 11.2608 2.14119 10.5158 3.00618C10.2048 3.36679 9.84498 3.68465 9.46842 4.01727C9.29377 4.17155 9.11552 4.329 8.93689 4.49536C8.79676 4.34781 8.64714 4.19948 8.49434 4.04801L8.49423 4.0479L8.49416 4.04783C8.14144 3.69816 7.77179 3.33171 7.46281 2.9193C6.78574 2.01465 7.19652 0.665229 8.22771 0.188351C8.34043 0.13613 8.4553 0.0882044 8.57028 0.0402288L8.5703 0.0402217C8.62581 0.0170606 8.68135 -0.00611202 8.73669 -0.0297852H9.48837ZM0 7.85901V7.29526C0.622302 6.09787 1.49107 5.96944 2.44388 6.93264C2.72213 7.2134 2.99996 7.49458 3.27793 7.77591L3.69793 8.20085C4.28812 8.79671 4.52326 8.79671 5.13989 8.21124C6.07131 7.32687 7.0037 6.44448 7.93815 5.56014L9.01818 4.53786C9.42989 4.92813 9.83934 5.31606 10.2472 5.70243L10.2487 5.70385L10.2594 5.71406L10.2598 5.71437L10.2616 5.7161L10.2618 5.71626C11.1426 6.55084 12.016 7.37824 12.888 8.20652C13.5112 8.7986 13.7435 8.80049 14.3309 8.20652C14.4846 8.05137 14.637 7.89505 14.7894 7.73876L14.7899 7.73817L14.79 7.73805L14.7901 7.73801C15.129 7.39036 15.4678 7.04286 15.8201 6.70884C16.2988 6.25368 16.8465 6.18663 17.3687 6.47087C17.8683 6.74283 18.0826 7.26598 17.9712 7.91567C17.885 8.41935 17.801 8.92352 17.717 9.4278L17.7168 9.42887C17.6342 9.9245 17.5516 10.4202 17.4669 10.9158C17.34 11.6617 17.2155 12.6341 17.0888 13.6232L17.0888 13.6233L17.0888 13.6234C16.9412 14.7753 16.7908 15.9499 16.6303 16.8161C16.4943 17.5507 16.041 17.9266 15.3347 17.9275C14.9426 17.9282 14.5505 17.9289 14.1585 17.9294C12.6524 17.6568 10.8872 17.5 9 17.5C7.11291 17.5 5.34791 17.6568 3.84188 17.9294C3.46369 17.9288 3.08551 17.9282 2.70734 17.9275C1.98589 17.9266 1.53262 17.5441 1.40419 16.8274C1.24028 15.9105 1.08326 14.7161 0.926975 13.5273C0.777132 12.3875 0.627964 11.2528 0.474045 10.3728C0.372551 9.79439 0.261196 9.21735 0.149862 8.64042C0.0996008 8.37996 0.0493436 8.11953 0 7.85901ZM9.00071 15.5144C8.81817 15.5145 8.6431 15.4419 8.51402 15.3129L5.33729 12.1361C5.06852 11.8674 5.06852 11.4316 5.33729 11.1628C5.60607 10.8941 6.04183 10.8941 6.31061 11.1628L9.00064 13.8529L11.6902 11.1629C11.9589 10.8941 12.3947 10.894 12.6635 11.1628C12.9323 11.4315 12.9323 11.8673 12.6636 12.1361L9.48738 15.3128C9.35831 15.4419 9.18325 15.5144 9.00071 15.5144Z" fill="white"/>
</g>
<defs>
<clipPath id="clip0_8391_73115">
<rect width="18" height="18" fill="white"/>
</clipPath>
</defs>
</svg>
