<svg xmlns="http://www.w3.org/2000/svg" width="15" height="16" viewBox="0 0 15 16" fill="none">
  <rect x="0.9" y="1.4" width="13.2" height="13.2" rx="3" stroke="#67707B" stroke-width="1.2"/>
  <path d="M6.69995 7.19995H3.50195C3.39676 7.19979 3.29256 7.22036 3.19531 7.26049C3.09807 7.30061 3.00968 7.3595 2.93521 7.43379C2.86073 7.50809 2.80162 7.59632 2.76125 7.69347C2.72089 7.79061 2.70006 7.89475 2.69995 7.99995C2.69995 8.44475 3.05915 8.79995 3.50195 8.79995H6.69995V11.998C6.69995 12.4412 7.05795 12.8 7.49995 12.8C7.94475 12.8 8.29995 12.4408 8.29995 11.998V8.79995H11.498C11.6031 8.80011 11.7073 8.77954 11.8046 8.73942C11.9018 8.69929 11.9902 8.6404 12.0647 8.56611C12.1392 8.49182 12.1983 8.40358 12.2387 8.30644C12.279 8.20929 12.2998 8.10515 12.3 7.99995C12.3 7.55515 11.9408 7.19995 11.498 7.19995H8.29995V4.00195C8.30011 3.89676 8.27954 3.79256 8.23942 3.69531C8.19929 3.59807 8.1404 3.50968 8.06611 3.43521C7.99182 3.36073 7.90358 3.30162 7.80644 3.26125C7.70929 3.22089 7.60515 3.20006 7.49995 3.19995C7.05515 3.19995 6.69995 3.55915 6.69995 4.00195V7.19995Z" fill="#67707B"/>
</svg>