<svg width="8" height="12" viewBox="0 0 8 12" fill="none" xmlns="http://www.w3.org/2000/svg">
<path fill-rule="evenodd" clip-rule="evenodd" d="M0.292893 6.70711C-0.0976308 6.31658 -0.0976308 5.68342 0.292894 5.29289L5.29289 0.292894C5.68342 -0.0976303 6.31658 -0.0976302 6.70711 0.292894C7.09763 0.683418 7.09763 1.31658 6.70711 1.70711L2.41421 6L6.70711 10.2929C7.09763 10.6834 7.09763 11.3166 6.70711 11.7071C6.31658 12.0976 5.68342 12.0976 5.29289 11.7071L0.292893 6.70711Z" fill="currentColor"/>
</svg>
<svg xmlns="http://www.w3.org/2000/svg" width="8" height="14" viewBox="0 0 8 14"  fill="none">
<path fill-rule="evenodd" clip-rule="evenodd" d="M7.76569 6.45008C8.0781 6.75382 8.0781 7.24628 7.76569 7.55003L2.16569 12.9945C1.85327 13.2982 1.34673 13.2982 1.03432 12.9945C0.721896 12.6907 0.721896 12.1983 1.03432 11.8945L6.06863 7.00005L1.03432 2.10558C0.721897 1.80184 0.721897 1.30938 1.03432 1.00564C1.34674 0.701896 1.85327 0.701896 2.16569 1.00564L7.76569 6.45008Z" fill="currentColor"/>
</svg>