<svg width="36" height="37" viewBox="0 0 36 37" fill="none" xmlns="http://www.w3.org/2000/svg">
<g clip-path="url(#clip0_12821_29359)">
<path d="M18 0.5C27.9422 0.5 36 8.55781 36 18.5C36 28.4422 27.9422 36.5 18 36.5C8.05781 36.5 0 28.4422 0 18.5C0 8.55781 8.05781 0.5 18 0.5Z" fill="#3E5BF2"/>
<path d="M20.1696 16.3984C20.4684 16.3984 20.761 16.3598 21.0473 16.2825C21.3337 16.1897 21.5889 16.0506 21.813 15.8651C22.0495 15.6796 22.2363 15.4399 22.3732 15.1462C22.5102 14.837 22.5787 14.4737 22.5787 14.0563C22.5787 13.6235 22.5102 13.2602 22.3732 12.9664C22.2487 12.6572 22.0744 12.4099 21.8504 12.2244C21.6263 12.0234 21.371 11.8843 21.0847 11.807C20.7984 11.7142 20.4996 11.6678 20.1883 11.6678H12.1956V16.3984H20.1696ZM20.1883 12.9664C20.3253 12.9664 20.4747 12.9819 20.6365 13.0128C20.7984 13.0437 20.9477 13.1056 21.0847 13.1983C21.2216 13.2756 21.3337 13.3838 21.4208 13.523C21.508 13.6621 21.5516 13.8399 21.5516 14.0563C21.5516 14.2727 21.5018 14.4505 21.4022 14.5897C21.315 14.7133 21.1967 14.8216 21.0473 14.9143C20.9104 14.9916 20.761 15.0457 20.5992 15.0766C20.4373 15.1076 20.2941 15.123 20.1696 15.123H13.2414V12.9664H20.1883ZM21.1781 22.5203C21.4769 22.5203 21.7757 22.4817 22.0744 22.4044C22.3732 22.3116 22.6347 22.1725 22.8588 21.987C23.0953 21.786 23.2821 21.5386 23.419 21.2449C23.5684 20.9357 23.6431 20.5647 23.6431 20.1318C23.6431 19.7454 23.5809 19.4053 23.4564 19.1115C23.3319 18.8178 23.1638 18.5782 22.9522 18.3927C22.7405 18.1917 22.4977 18.0448 22.2238 17.9521C21.9624 17.8439 21.6885 17.7898 21.4022 17.7898H12.1956V22.5203H21.1781ZM21.4022 19.0652C21.5267 19.0652 21.6574 19.0883 21.7943 19.1347C21.9437 19.1656 22.0744 19.2275 22.1865 19.3202C22.311 19.3975 22.4106 19.5057 22.4853 19.6449C22.56 19.784 22.5973 19.9463 22.5973 20.1318C22.5973 20.3637 22.5475 20.5492 22.4479 20.6884C22.3608 20.8275 22.2425 20.9357 22.0931 21.013C21.9562 21.0903 21.8006 21.1444 21.6263 21.1754C21.4644 21.2063 21.315 21.2217 21.1781 21.2217H13.2414V19.0652H21.4022ZM20.1883 10.2533C20.6988 10.2533 21.1718 10.3229 21.6076 10.462C22.0433 10.6011 22.4168 10.8253 22.7281 11.1345C23.0517 11.4437 23.3007 11.8379 23.475 12.3171C23.6618 12.7964 23.7614 13.3761 23.7738 14.0563C23.7738 14.4273 23.7054 14.7829 23.5684 15.123C23.4439 15.4477 23.2883 15.7337 23.1015 15.981C22.9148 16.2284 22.7156 16.4293 22.504 16.5839C22.2923 16.7231 22.1118 16.8004 21.9624 16.8158C22.2985 16.8467 22.6347 16.9549 22.9708 17.1405C23.307 17.3105 23.6058 17.5424 23.8672 17.8361C24.1411 18.1299 24.3652 18.47 24.5395 18.8564C24.7138 19.2429 24.8009 19.6681 24.8009 20.1318C24.8009 20.8275 24.7076 21.4227 24.5208 21.9174C24.3341 22.3966 24.0726 22.7909 23.7365 23.1C23.4128 23.3938 23.0268 23.6102 22.5787 23.7493C22.1429 23.873 21.6761 23.9349 21.1781 23.9349H11.0751V10.2533H20.1883ZM21.1781 25.2334C21.8504 25.2334 22.4728 25.1407 23.0455 24.9552C23.6182 24.7542 24.11 24.4527 24.5208 24.0508C24.9317 23.6334 25.2553 23.1078 25.4919 22.4739C25.7284 21.8246 25.8467 21.0439 25.8467 20.1318C25.8467 19.3589 25.6724 18.6709 25.3238 18.068C24.9877 17.4651 24.4772 16.9859 23.7925 16.6303C23.9419 16.4757 24.0788 16.2979 24.2033 16.097C24.3278 15.8805 24.4337 15.6564 24.5208 15.4245C24.608 15.1926 24.6764 14.9607 24.7262 14.7288C24.776 14.4814 24.8009 14.2573 24.8009 14.0563C24.8009 13.1751 24.6889 12.4176 24.4648 11.7838C24.2407 11.1345 23.9232 10.6011 23.5124 10.1837C23.114 9.76634 22.6285 9.45716 22.0558 9.25618C21.4955 9.05521 20.8731 8.95473 20.1883 8.95473H10.0294V25.2334H21.1781ZM9.5625 8.375H20.1883C21.3088 8.375 22.3234 8.60689 23.2323 9.07067C24.1411 9.53445 24.9877 10.3461 25.772 11.5055C26.0335 11.892 26.27 12.3712 26.4816 12.9432C26.6933 13.4998 26.8427 14.0872 26.9298 14.7056C27.017 15.3085 27.017 15.9037 26.9298 16.4912C26.8551 17.0786 26.6559 17.5811 26.3322 17.9985C26.6559 18.153 26.9298 18.4159 27.1539 18.7869C27.378 19.1424 27.5585 19.5367 27.6955 19.9695C27.8449 20.4024 27.9507 20.843 28.013 21.2913C28.0877 21.7396 28.125 22.1261 28.125 22.4508C28.125 23.4556 27.9943 24.3136 27.7328 25.0247C27.4838 25.7204 27.1353 26.2924 26.6871 26.7407C26.2389 27.2045 25.7035 27.5369 25.081 27.7379C24.4586 27.9543 23.7801 28.0625 23.0455 28.0625H11.486L9.5625 25.8132V8.375Z" fill="white"/>
</g>
<defs>
<clipPath id="clip0_12821_29359">
<rect width="36" height="36" fill="white" transform="translate(0 0.5)"/>
</clipPath>
</defs>
</svg>
