
<svg width="20" height="20" viewBox="0 0 20 20" fill="none" xmlns="http://www.w3.org/2000/svg">
<rect x="0.555556" y="0.555556" width="18.8889" height="18.8889" rx="2.77778" stroke="#FF284B" stroke-width="1.11111"/>
<path d="M8.9435 15.3156C7.29401 13.6137 5.64809 11.9155 4 10.2151C4.42584 9.8684 4.84767 9.52493 5.27098 9.18024C6.22483 9.93874 7.1765 10.6956 8.13105 11.4547C10.2647 8.9341 12.7009 6.7628 15.5021 5C15.5377 5.08193 15.5729 5.16098 15.6065 5.24073C15.6583 5.3635 15.7094 5.4866 15.7598 5.60998C15.7889 5.68119 15.7751 5.73735 15.7205 5.79142C15.4217 6.08779 15.1189 6.38032 14.8256 6.682C14.3631 7.15755 13.9236 7.65408 13.4979 8.1628C12.7637 9.04032 12.0717 9.94989 11.4278 10.8956C10.7548 11.8839 10.1304 12.9017 9.57803 13.9627C9.36254 14.3767 9.16509 14.7992 8.9897 15.2319C8.98212 15.2506 8.97349 15.2691 8.96425 15.287C8.95971 15.2958 8.95265 15.3033 8.94359 15.3157L8.9435 15.3156Z" fill="#FF284B"/>
</svg>
