<svg xmlns="http://www.w3.org/2000/svg" width="30" height="30" viewBox="0 0 30 30" fill="none">
<mask id="mask0_8575_99064" style="mask-type:alpha" maskUnits="userSpaceOnUse" x="0" y="0" width="30" height="30">
<rect width="30" height="30" fill="#D9D9D9"/>
</mask>
<g mask="url(#mask0_8575_99064)">
<path fill-rule="evenodd" clip-rule="evenodd" d="M6.70485 7.04515C6.07722 7.67278 6.07722 8.69037 6.70485 9.31799L12.387 15.0001L6.70496 20.6821C6.07733 21.3097 6.07733 22.3273 6.70496 22.955C7.33259 23.5826 8.35017 23.5826 8.9778 22.955L14.6598 17.2729L20.3419 22.9551C20.9695 23.5827 21.9871 23.5827 22.6148 22.9551C23.2424 22.3274 23.2424 21.3098 22.6148 20.6822L16.9326 15.0001L22.6149 9.3179C23.2425 8.69027 23.2425 7.67268 22.6149 7.04505C21.9872 6.41742 20.9696 6.41743 20.342 7.04505L14.6598 12.7273L8.97769 7.04515C8.35006 6.41752 7.33248 6.41752 6.70485 7.04515Z" fill="#67707B"/>
</g>
</svg>