<svg xmlns="http://www.w3.org/2000/svg" width="20" height="20" viewBox="0 0 20 20" fill="none">
<circle cx="10.0008" cy="9.99983" r="9.70588" fill="url(#paint0_linear_10042_11387)"/>
<path d="M15.5916 7.9446L12.2033 7.52511C12.1558 7.51905 12.114 7.48753 12.0931 7.44146L10.6652 4.20435C10.5434 3.93157 10.2882 3.76062 10.0005 3.76062C9.71286 3.76062 9.45769 3.93156 9.33588 4.20435L7.90795 7.44146C7.88707 7.48753 7.84531 7.51905 7.79775 7.52511L4.40952 7.9446C4.12184 7.97855 3.88985 8.18101 3.79821 8.46956C3.70889 8.7581 3.78661 9.06241 3.99773 9.26729L6.50443 11.6884C6.54039 11.7223 6.55547 11.772 6.54619 11.8217L5.88151 15.3196C5.82468 15.6178 5.93487 15.9088 6.16919 16.0894C6.29679 16.1888 6.44874 16.2385 6.59953 16.2385C6.72133 16.2385 6.84545 16.2046 6.95911 16.1391L9.93459 14.3945C9.97634 14.3703 10.0297 14.3703 10.0715 14.3945L13.0469 16.1391C13.2998 16.2883 13.6026 16.2701 13.8334 16.0894C14.0677 15.9124 14.1779 15.6178 14.1211 15.3196L13.4564 11.8217C13.4471 11.772 13.4622 11.7223 13.4981 11.6884L16.0048 9.26729C16.216 9.0624 16.2925 8.75568 16.2044 8.46956C16.115 8.18101 15.8807 7.98219 15.5931 7.9446H15.5916Z" fill="#67707B"/>
<defs>
<linearGradient id="paint0_linear_10042_11387" x1="10.0008" y1="0.293945" x2="10.0008" y2="19.7057" gradientUnits="userSpaceOnUse">
<stop stop-color="#F4F5F5"/>
<stop offset="1" stop-color="#C8CACD"/>
</linearGradient>
</defs>
</svg>