<svg xmlns="http://www.w3.org/2000/svg" width="20" height="20" viewBox="0 0 20 20" fill="none">
<circle cx="10.0008" cy="9.99983" r="9.70588" fill="url(#paint0_linear_10036_3388)"/>
<path d="M15.5916 7.94472L12.2033 7.52523C12.1558 7.51917 12.114 7.48765 12.0931 7.44158L10.6652 4.20447C10.5434 3.93169 10.2882 3.76074 10.0005 3.76074C9.71286 3.76074 9.45769 3.93169 9.33588 4.20447L7.90795 7.44158C7.88707 7.48765 7.84531 7.51917 7.79775 7.52523L4.40952 7.94472C4.12184 7.97867 3.88985 8.18114 3.79821 8.46968C3.70889 8.75822 3.78661 9.06254 3.99773 9.26741L6.50443 11.6885C6.54039 11.7225 6.55547 11.7722 6.54619 11.8219L5.88151 15.3197C5.82468 15.6179 5.93487 15.9089 6.16919 16.0895C6.29679 16.189 6.44874 16.2387 6.59953 16.2387C6.72133 16.2387 6.84545 16.2047 6.95911 16.1393L9.93458 14.3947C9.97634 14.3704 10.0297 14.3704 10.0715 14.3947L13.0469 16.1393C13.2998 16.2884 13.6026 16.2702 13.8334 16.0895C14.0677 15.9125 14.1779 15.6179 14.1211 15.3197L13.4564 11.8219C13.4471 11.7722 13.4622 11.7225 13.4981 11.6885L16.0048 9.26741C16.216 9.06252 16.2925 8.7558 16.2044 8.46968C16.115 8.18113 15.8807 7.98231 15.5931 7.94472H15.5916Z" fill="#FF284B"/>
<defs>
<linearGradient id="paint0_linear_10036_3388" x1="10.0008" y1="0.293945" x2="10.0008" y2="19.7057" gradientUnits="userSpaceOnUse">
<stop stop-color="#F4F5F5"/>
<stop offset="1" stop-color="#C8CACD"/>
</linearGradient>
</defs>
</svg>