<svg width="18" height="18" viewBox="0 0 18 18" fill="none" xmlns="http://www.w3.org/2000/svg">
<g id="Subtract">
<path d="M6.34058 0C5.89912 0 5.51618 0.304906 5.41728 0.73514L5.14296 1.92857H0.947369C0.424151 1.92857 0 2.3603 0 2.89286C0 3.42542 0.424151 3.85714 0.947369 3.85714H17.0526C17.5758 3.85714 18 3.42542 18 2.89286C18 2.3603 17.5758 1.92857 17.0526 1.92857H12.8573L12.5836 0.735546C12.4848 0.305117 12.1018 0 11.6602 0H6.34058Z" fill="#67707B"/>
<path fill-rule="evenodd" clip-rule="evenodd" d="M2.57143 15.3604L1.88509 6.15773C1.84592 5.60932 2.28026 5.14286 2.83006 5.14286H15.1699C15.7197 5.14286 16.1541 5.60933 16.1149 6.15773L15.4286 15.3604C15.3223 16.8477 14.0848 18 12.5937 18H5.40631C3.91523 18 2.67766 16.8477 2.57143 15.3604ZM5.09693 9.32143C5.09693 8.78887 5.52865 8.35715 6.06121 8.35715H11.9363C12.4689 8.35715 12.9006 8.78887 12.9006 9.32143C12.9006 9.854 12.4689 10.2857 11.9363 10.2857H6.06121C5.52865 10.2857 5.09693 9.854 5.09693 9.32143ZM5.73978 13.8214C5.73978 13.2889 6.17151 12.8571 6.70407 12.8571H11.2935C11.826 12.8571 12.2578 13.2889 12.2578 13.8214C12.2578 14.354 11.826 14.7857 11.2935 14.7857H6.70407C6.17151 14.7857 5.73978 14.354 5.73978 13.8214Z" fill="#67707B"/>
</g>
</svg>
