<svg width="24" height="24" viewBox="0 0 24 24" fill="none" xmlns="http://www.w3.org/2000/svg">
<path d="M14.2474 18.001C13.8322 18.001 13.4976 17.6664 13.4976 17.2511V8.9985C13.4976 8.58325 13.8322 8.24863 14.2474 8.24863C14.6627 8.24863 14.9973 8.58325 14.9973 8.9985V17.2471C14.9973 17.6624 14.6627 18.001 14.2474 18.001Z" fill="#FF284B"/>
<path d="M9.74841 18.001C9.33316 18.001 8.99854 17.6664 8.99854 17.2511V8.99849C8.99854 8.58323 9.33316 8.24861 9.74841 8.24861C10.1637 8.24861 10.4983 8.58323 10.4983 8.99849V17.2471C10.4983 17.6624 10.1637 18.001 9.74841 18.001Z" fill="#FF284B"/>
<path d="M21.7501 5.24912H18.0008V3.74937C18.0008 2.50764 17.0009 1.49975 15.7673 1.49975H8.24838C7.00665 1.49975 5.99876 2.50764 5.99876 3.74937V5.24912H2.24939C1.83413 5.24912 1.49951 5.58374 1.49951 5.99899C1.49951 6.41424 1.83413 6.74887 2.24939 6.74887H21.7501C22.1654 6.74887 22.5 6.41424 22.5 5.99899C22.5 5.58374 22.1654 5.24912 21.7501 5.24912ZM7.4985 3.74937C7.4985 3.33815 7.83716 2.9995 8.24838 2.9995H15.7673C16.1785 2.9995 16.501 3.33009 16.501 3.74937V5.24912H7.4985V3.74937Z" fill="#FF284B"/>
<path d="M17.2513 22.5003H6.75304C5.51131 22.5003 4.50342 21.4924 4.50342 20.2506V8.99043C4.50342 8.57518 4.83804 8.24055 5.25329 8.24055C5.66854 8.24055 6.00317 8.57518 6.00317 8.99043V20.2506C6.00317 20.6659 6.34182 21.0005 6.75304 21.0005H17.2553C17.6706 21.0005 18.0052 20.6659 18.0052 20.2506V9.01865C18.0052 8.6034 18.3398 8.26878 18.7551 8.26878C19.1703 8.26878 19.5049 8.6034 19.5049 9.01865V20.2506C19.5009 21.4883 18.493 22.5003 17.2513 22.5003Z" fill="#FF284B"/>
</svg>
