<svg xmlns="http://www.w3.org/2000/svg" width="18" height="21" viewBox="0 0 18 21" fill="none">
<path d="M12.2387 20.6201C12.9032 18.9344 13.0015 17.3942 12.2993 15.8552C11.6056 14.3343 10.4268 13.2804 8.97993 12.3114C8.56638 14.1233 7.2772 15.3652 6.40522 16.8557C5.68483 18.0867 5.8146 19.3116 6.44524 20.5292C6.518 20.6699 6.59684 20.8069 6.68537 20.9682C1.58809 19.6681 -1.10791 14.8498 1.52502 8.97025C1.83064 9.46869 2.10352 9.915 2.43339 10.4523C2.64441 8.2826 3.64131 6.56168 4.86378 4.94627C5.93102 3.5346 6.53741 1.97983 6.29486 0.164307C9.27827 0.934417 12.628 3.26537 13.3301 7.93333C13.7025 7.51249 14.0299 7.05407 14.4459 6.69751C14.8437 6.35672 15.3312 6.12144 15.9182 5.75276C15.8563 7.48581 16.2384 8.94235 16.7793 10.3698C16.9988 10.9495 17.1916 11.5474 17.3105 12.1538C17.7192 14.2422 17.5081 16.2469 16.2711 18.0357C15.3324 19.394 13.9644 20.1447 12.2387 20.6213V20.6201Z" fill="url(#paint0_linear_8779_141553)"/>
<defs>
<linearGradient id="paint0_linear_8779_141553" x1="9" y1="20.9682" x2="9" y2="0.164307" gradientUnits="userSpaceOnUse">
<stop stop-color="#D40505"/>
<stop offset="1" stop-color="#FF8E26"/>
</linearGradient>
</defs>
</svg>