<svg xmlns="http://www.w3.org/2000/svg" width="16" height="16" viewBox="0 0 16 16" fill="none">
<path d="M8.75 3.5C8.75 3.08579 8.41421 2.75 8 2.75C7.58579 2.75 7.25 3.08579 7.25 3.5V7.58579C7.25 8.04992 7.43437 8.49504 7.76256 8.82322L9.96967 11.0303C10.2626 11.3232 10.7374 11.3232 11.0303 11.0303C11.3232 10.7374 11.3232 10.2626 11.0303 9.96967L8.82322 7.76256C8.77634 7.71568 8.75 7.65209 8.75 7.58579V3.5Z" fill="white"/>
<path fill-rule="evenodd" clip-rule="evenodd" d="M16 8C16 12.4183 12.4183 16 8 16C3.58172 16 0 12.4183 0 8C0 3.58172 3.58172 0 8 0C12.4183 0 16 3.58172 16 8ZM14.56 8C14.56 11.623 11.623 14.56 8 14.56C4.37701 14.56 1.44 11.623 1.44 8C1.44 4.37701 4.37701 1.44 8 1.44C11.623 1.44 14.56 4.37701 14.56 8Z" fill="white"/>
</svg>