<svg xmlns="http://www.w3.org/2000/svg" width="18" height="18" viewBox="0 0 18 18" fill="none">
<path d="M10 5C10 4.44772 9.55229 4 9 4C8.44771 4 8 4.44772 8 5V9.08579C8 9.61622 8.21071 10.1249 8.58579 10.5L10.7929 12.7071C11.1834 13.0976 11.8166 13.0976 12.2071 12.7071C12.5976 12.3166 12.5976 11.6834 12.2071 11.2929L10 9.08579V5Z" fill="#67707B"/>
<path fill-rule="evenodd" clip-rule="evenodd" d="M18 9C18 13.9706 13.9706 18 9 18C4.02944 18 0 13.9706 0 9C0 4.02944 4.02944 0 9 0C13.9706 0 18 4.02944 18 9ZM16 9C16 12.866 12.866 16 9 16C5.13401 16 2 12.866 2 9C2 5.13401 5.13401 2 9 2C12.866 2 16 5.13401 16 9Z" fill="#67707B"/>
</svg>