<svg width="60" height="60" viewBox="0 0 60 60" fill="none" xmlns="http://www.w3.org/2000/svg">
<mask id="mask0_10328_3837" style="mask-type:alpha" maskUnits="userSpaceOnUse" x="0" y="0" width="60" height="60">
<rect width="60" height="60" fill="#D9D9D9"/>
</mask>
<g mask="url(#mask0_10328_3837)">
<path d="M0 31.7909L-1.03863e-06 55.5521C-1.1352e-06 57.7612 1.79086 59.5521 4 59.5521L4 31.7909L0 31.7909Z" fill="#CC3737"/>
<path d="M0 31.7909L-1.03863e-06 55.5521C-1.1352e-06 57.7612 1.79086 59.5521 4 59.5521L4 31.7909L0 31.7909Z" fill="url(#paint0_linear_10328_3837)"/>
<path d="M32.2402 0H56.0014C58.2106 0 60.0014 1.79086 60.0014 4H32.2402V0Z" fill="#CC3737"/>
<path d="M32.2402 0H56.0014C58.2106 0 60.0014 1.79086 60.0014 4H32.2402V0Z" fill="url(#paint1_linear_10328_3837)"/>
<g filter="url(#filter0_d_10328_3837)">
<path d="M0.000581979 20.5973L20.7358 0.000301495L56.5768 0.000287418L0.000581979 56.4383V20.5973Z" fill="url(#paint2_linear_10328_3837)"/>
<path d="M0.000581979 20.5973L20.7358 0.000301495L56.5768 0.000287418L0.000581979 56.4383V20.5973Z" fill="url(#paint3_linear_10328_3837)"/>
</g>
<path d="M-0.138672 20.7856L20.4583 0.188632L20.7176 0.447932L0.120627 21.0449L-0.138672 20.7856Z" fill="url(#paint4_linear_10328_3837)"/>
<path d="M4.92578 51.0446L51.4934 4.47783L51.7527 4.73713L5.18508 51.3039L4.92578 51.0446Z" fill="url(#paint5_linear_10328_3837)"/>
<path d="M6.73133 26.5587L7.82027 25.4697L16.6902 27.113L16.7298 27.0734L11.4732 21.8168L12.5522 20.7378L19.6205 27.806L18.5711 28.8553L9.60218 27.1922L9.56258 27.2318L14.8786 32.5478L13.7996 33.6269L6.73133 26.5587ZM13.9433 19.3467L19.0217 14.2683L19.9424 15.1889L15.943 19.1883L18.0021 21.2474L21.7639 17.4856L22.6845 18.4063L18.9227 22.1681L21.1699 24.4153L25.3376 20.2476L26.2582 21.1682L21.0115 26.415L13.9433 19.3467ZM19.6417 13.6483L20.8593 12.4307L27.7394 16.5588L27.779 16.5192L23.7203 9.56973L24.8488 8.44119L31.7982 12.5L31.8378 12.4604L27.7097 5.58023L28.9274 4.36259L33.9563 13.4701L32.808 14.6185L25.9179 10.5993L25.8783 10.6389L29.8975 17.5289L28.7393 18.6872L19.6417 13.6483Z" fill="white"/>
</g>
<defs>
<filter id="filter0_d_10328_3837" x="-4" y="0.000244141" width="64.5762" height="64.4381" filterUnits="userSpaceOnUse" color-interpolation-filters="sRGB">
<feFlood flood-opacity="0" result="BackgroundImageFix"/>
<feColorMatrix in="SourceAlpha" type="matrix" values="0 0 0 0 0 0 0 0 0 0 0 0 0 0 0 0 0 0 127 0" result="hardAlpha"/>
<feOffset dy="4"/>
<feGaussianBlur stdDeviation="2"/>
<feComposite in2="hardAlpha" operator="out"/>
<feColorMatrix type="matrix" values="0 0 0 0 0 0 0 0 0 0 0 0 0 0 0 0 0 0 0.25 0"/>
<feBlend mode="normal" in2="BackgroundImageFix" result="effect1_dropShadow_10328_3837"/>
<feBlend mode="normal" in="SourceGraphic" in2="effect1_dropShadow_10328_3837" result="shape"/>
</filter>
<linearGradient id="paint0_linear_10328_3837" x1="-3.13433" y1="49.2536" x2="1.79104" y2="59.5521" gradientUnits="userSpaceOnUse">
<stop offset="0.575055" stop-color="#1B4366"/>
<stop offset="1" stop-color="#183AE0"/>
</linearGradient>
<linearGradient id="paint1_linear_10328_3837" x1="49.7029" y1="-3.13433" x2="60.0014" y2="1.79104" gradientUnits="userSpaceOnUse">
<stop offset="0.575055" stop-color="#1B4366"/>
<stop offset="1" stop-color="#183AE0"/>
</linearGradient>
<linearGradient id="paint2_linear_10328_3837" x1="-4.92435" y1="31.3431" x2="14.3294" y2="31.3431" gradientUnits="userSpaceOnUse">
<stop stop-color="#189986"/>
<stop offset="0.095" stop-color="#FFE2E7"/>
<stop offset="0.412194" stop-color="#287EFF"/>
</linearGradient>
<linearGradient id="paint3_linear_10328_3837" x1="28.6577" y1="-0.447891" x2="28.6577" y2="8.9551" gradientUnits="userSpaceOnUse">
<stop stop-color="#287EFF"/>
<stop offset="0.13" stop-color="#79ADFA"/>
<stop offset="0.440942" stop-color="#2897FF" stop-opacity="0"/>
</linearGradient>
<linearGradient id="paint4_linear_10328_3837" x1="-0.000495564" y1="20.9068" x2="20.4588" y2="0.447492" gradientUnits="userSpaceOnUse">
<stop stop-color="white" stop-opacity="0"/>
<stop offset="0.465" stop-color="white"/>
<stop offset="1" stop-color="white" stop-opacity="0"/>
</linearGradient>
<linearGradient id="paint5_linear_10328_3837" x1="5.37354" y1="51.0446" x2="51.0452" y2="4.47739" gradientUnits="userSpaceOnUse">
<stop stop-color="white" stop-opacity="0"/>
<stop offset="0.465" stop-color="white" stop-opacity="0.9"/>
<stop offset="1" stop-color="white" stop-opacity="0"/>
</linearGradient>
</defs>
</svg>
