<svg xmlns="http://www.w3.org/2000/svg" width="20" height="20" viewBox="0 0 20 20" fill="none">
<path d="M10.0013 16.3439C8.31382 16.3439 6.69546 15.6735 5.50224 14.4803C4.30902 13.2871 3.63867 11.6687 3.63867 9.98127C3.63867 8.2938 4.30902 6.67544 5.50224 5.48222C6.69546 4.289 8.31382 3.61865 10.0013 3.61865C11.6888 3.61865 13.3071 4.289 14.5003 5.48222C15.6936 6.67544 16.3639 8.2938 16.3639 9.98127C16.3639 11.6687 15.6936 13.2871 14.5003 14.4803C13.3071 15.6735 11.6888 16.3439 10.0013 16.3439ZM10.0013 13.6171C12.0101 13.6171 13.6371 12.0973 13.6371 11.3447C13.6371 10.5921 12.0101 11.7992 10.0013 11.7992C7.99252 11.7992 6.36551 10.5921 6.36551 11.3447C6.36551 12.0973 7.99252 13.6171 10.0013 13.6171Z" fill="url(#paint0_linear_14104_15351)"/>
<path d="M14.4432 18.2239C14.3242 18.5139 14.109 18.7541 13.8336 18.9039C13.5583 19.0538 13.2397 19.1042 12.9316 19.0467C12.6234 18.9891 12.3445 18.8271 12.1418 18.588C11.9391 18.3489 11.825 18.0472 11.8187 17.7338C11.8124 17.4204 11.9143 17.1144 12.1072 16.8673C12.3001 16.6202 12.5723 16.4472 12.8779 16.3773C13.1835 16.3074 13.5038 16.345 13.785 16.4836C14.0661 16.6223 14.2909 16.8536 14.4214 17.1386C16.4574 15.6334 17.7263 13.1538 17.7263 10.4306C17.7263 5.91134 14.2614 2.25465 10.0003 2.25465C5.73916 2.25465 2.27426 5.91043 2.27426 10.4315C2.27405 11.3678 2.42569 12.2979 2.72328 13.1856C2.74434 13.2426 2.75376 13.3033 2.75098 13.3639C2.74821 13.4246 2.73329 13.4842 2.70711 13.539C2.68093 13.5938 2.64402 13.6428 2.59857 13.6832C2.55311 13.7235 2.50004 13.7543 2.44248 13.7737C2.38491 13.7932 2.32404 13.8009 2.26345 13.7964C2.20285 13.7919 2.14378 13.7753 2.08971 13.7476C2.03563 13.7199 1.98767 13.6816 1.94865 13.6351C1.90962 13.5885 1.88033 13.5346 1.86251 13.4765C1.77588 13.2205 1.70037 12.9609 1.63618 12.6984C1.20337 12.655 0.80049 12.4577 0.500694 12.1425C0.200898 11.8273 0.0240584 11.4151 0.00228102 10.9807C-0.0194964 10.5462 0.115232 10.1184 0.382006 9.77477C0.64878 9.43118 1.02991 9.19464 1.45621 9.1081C2.0652 4.72153 5.65372 1.3457 10.0003 1.3457C14.3469 1.3457 17.9354 4.72153 18.5444 9.1081C18.9707 9.1948 19.3518 9.43151 19.6185 9.77525C19.8851 10.119 20.0197 10.547 19.9977 10.9815C19.9757 11.4159 19.7986 11.8281 19.4986 12.1432C19.1985 12.4582 18.7955 12.6552 18.3626 12.6984C17.8009 15.0017 16.3947 16.9905 14.4432 18.2239Z" fill="url(#paint1_linear_14104_15351)"/>
<defs>
<linearGradient id="paint0_linear_14104_15351" x1="10.0013" y1="3.61865" x2="10.0013" y2="16.3439" gradientUnits="userSpaceOnUse">
<stop stop-color="#1C60DF"/>
<stop offset="1" stop-color="#00B0F0"/>
</linearGradient>
<linearGradient id="paint1_linear_14104_15351" x1="10" y1="1.3457" x2="10" y2="19.0698" gradientUnits="userSpaceOnUse">
<stop stop-color="#1C60DF"/>
<stop offset="1" stop-color="#00B0F0"/>
</linearGradient>
</defs>
</svg>