<svg xmlns="http://www.w3.org/2000/svg" width="20" height="20" viewBox="0 0 20 20" fill="none">
<path d="M9.99301 1.66748C5.39103 1.66748 1.66016 5.39848 1.66016 10.0011C1.66016 14.6032 5.39103 18.3341 9.99301 18.3341C14.5948 18.3341 18.3268 14.6031 18.3268 10.0011C18.3268 5.39848 14.5948 1.66748 9.99301 1.66748ZM9.9952 17.5599C5.82185 17.5599 2.43868 14.1767 2.43868 10.0032C2.43868 5.82982 5.82185 2.44647 9.9952 2.44647C14.1687 2.44647 17.5518 5.8298 17.5518 10.0032C17.5518 14.1766 14.1687 17.5599 9.9952 17.5599Z" fill="#67707B"/>
<path d="M10.7312 6.18533C10.6474 5.54562 10.0081 5.58803 10.0081 5.58803C10.0081 5.58803 9.30557 5.53142 9.25571 6.18899C9.25571 6.18899 9.10441 9.55804 9.5505 11.645C9.5505 11.645 9.62352 11.937 10.0081 11.947V11.9419C10.367 11.9183 10.4364 11.6413 10.4364 11.6413C10.8825 9.55445 10.7312 6.18533 10.7312 6.18533Z" fill="#67707B"/>
<path d="M9.9935 12.6889C10.4702 12.6889 10.8565 13.0753 10.8565 13.5518C10.8565 14.0285 10.4702 14.4148 9.9935 14.4148C9.51681 14.4148 9.13052 14.0285 9.13052 13.5518C9.13052 13.0753 9.51681 12.6889 9.9935 12.6889Z" fill="#67707B"/>
</svg>