<svg width="32" height="32" viewBox="0 0 32 32" fill="none" xmlns="http://www.w3.org/2000/svg">
<rect width="32" height="32" rx="16" fill="#1A1C20"/>
<path d="M13.6662 23.5436C13.8618 24.6769 14.8431 25.4994 15.9996 25.4994C17.1564 25.4994 18.138 24.6769 18.3336 23.5436L18.3455 23.4746H13.6543L13.6662 23.5436Z" fill="#67707B"/>
<path d="M23.9826 20.3039C23.7912 20.1136 23.5962 19.9527 23.4075 19.797C22.614 19.142 21.9286 18.5765 21.9286 16.2282V14.3656C21.9286 11.6266 19.9922 9.22326 17.313 8.62068C17.4204 8.41139 17.4748 8.1914 17.4748 7.96552C17.4748 7.1575 16.8132 6.5 15.9998 6.5C15.1867 6.5 14.5252 7.1575 14.5252 7.96552C14.5252 8.19155 14.5796 8.4115 14.6871 8.62068C12.0077 9.22326 10.0715 11.6266 10.0715 14.3656V16.2282C10.0715 18.5765 9.38606 19.1421 8.59251 19.797C8.40387 19.9527 8.2088 20.1136 8.0174 20.3039L8 20.3212V22.1692H24V20.3212L23.9826 20.3039Z" fill="#67707B"/>
</svg>
