<svg width="32" height="32" viewBox="0 0 32 32" fill="none" xmlns="http://www.w3.org/2000/svg">
<rect width="32" height="32" rx="16" fill="#2E3035"/>
<path fill-rule="evenodd" clip-rule="evenodd" d="M25 16C25 20.4183 21.4183 24 17 24H10.7778C9.7959 24 9 23.2041 9 22.2222V16C9 11.5817 12.5817 8 17 8C21.4183 8 25 11.5817 25 16ZM18.7779 14.2222C18.7779 13.7313 19.1759 13.3333 19.6668 13.3333C20.1577 13.3333 20.5557 13.7313 20.5557 14.2222V16C20.5557 16.4909 20.1577 16.8889 19.6668 16.8889C19.1759 16.8889 18.7779 16.4909 18.7779 16V14.2222ZM13.4444 14.2224C13.4444 13.7315 13.8424 13.3335 14.3333 13.3335C14.8243 13.3335 15.2222 13.7315 15.2222 14.2224V16.0002C15.2222 16.4911 14.8243 16.8891 14.3333 16.8891C13.8424 16.8891 13.4444 16.4911 13.4444 16.0002V14.2224Z" fill="white"/>
</svg>
