<svg width="142" height="121" viewBox="0 0 142 121" fill="none" xmlns="http://www.w3.org/2000/svg">
<path d="M16.995 52.9573C16.7149 50.0216 19.0234 47.4824 21.9724 47.4824H115.484C118.433 47.4824 120.742 50.0216 120.462 52.9573L115.006 110.14C114.418 116.298 109.246 121 103.06 121H34.3964C28.2105 121 23.0382 116.298 22.4507 110.14L16.995 52.9573Z" fill="url(#paint0_linear_9216_201510)"/>
<rect x="30.5039" y="13.1738" width="81.3645" height="66.5159" rx="5" fill="url(#paint1_linear_9216_201510)"/>
<path d="M10.9302 68.3463C10.1807 65.2039 12.5633 62.1862 15.7938 62.1862H61.7166H73.8416C75.6146 62.1862 77.3654 61.7934 78.9684 61.0359L88.9172 56.3349C90.5202 55.5774 92.2711 55.1846 94.044 55.1846H121.823C125.004 55.1846 127.376 58.1158 126.713 61.2269L114.816 117.043C114.324 119.351 112.285 121 109.926 121H27.437C25.1224 121 23.1104 119.412 22.5734 117.16L10.9302 68.3463Z" fill="url(#paint2_linear_9216_201510)"/>
<rect x="29.8008" y="104.196" width="27.3553" height="4.20101" rx="2.1005" fill="#656E78"/>
<rect x="43.1289" y="25.0771" width="56.1135" height="7.70184" rx="3.85092" fill="#656E78"/>
<rect x="43.1289" y="42.5811" width="56.1135" height="7.70184" rx="3.85092" fill="#656E78"/>
<g opacity="0.3">
<path d="M13.6164 38.871C13.6164 38.871 13.607 44.4016 10.3993 49.0044C8.62123 51.5556 6.26743 53.707 2 55.5391C2 55.5391 2.93978 53.2322 4.55012 47.7337C5.00023 46.1968 5.6456 44.6956 6.74961 43.534C9.84879 40.273 13.6164 38.871 13.6164 38.871Z" fill="#D9D9D9"/>
<path d="M13.6164 38.871L14.1164 38.8718L14.1176 38.1509L13.442 38.4024L13.6164 38.871ZM10.3993 49.0044L9.98904 48.7185L10.3993 49.0044ZM2 55.5391L1.53695 55.3505L1.07701 56.4795L2.19725 55.9986L2 55.5391ZM4.55012 47.7337L4.07028 47.5932L4.55012 47.7337ZM6.74961 43.534L7.11204 43.8784L6.74961 43.534ZM18.1103 33.7813C18.3633 33.6707 18.4787 33.3758 18.368 33.1229C18.2574 32.8699 17.9625 32.7545 17.7096 32.8652L18.1103 33.7813ZM13.6164 38.871C13.1164 38.8701 13.1164 38.87 13.1164 38.8699C13.1164 38.8699 13.1164 38.8698 13.1164 38.8698C13.1164 38.8698 13.1164 38.8698 13.1164 38.87C13.1164 38.8703 13.1164 38.8709 13.1164 38.8719C13.1164 38.8738 13.1163 38.877 13.1163 38.8815C13.1162 38.8906 13.116 38.9048 13.1156 38.924C13.1148 38.9624 13.1132 39.0207 13.1101 39.0973C13.1039 39.2505 13.0914 39.4769 13.0667 39.764C13.017 40.3385 12.9181 41.154 12.721 42.1108C12.326 44.0285 11.5414 46.4911 9.98904 48.7185L10.8095 49.2903C12.4649 46.9149 13.2888 44.3108 13.7005 42.3125C13.9067 41.3113 14.0106 40.4565 14.0629 39.8501C14.0891 39.5467 14.1025 39.3051 14.1093 39.1379C14.1127 39.0543 14.1145 38.9893 14.1154 38.9444C14.1158 38.922 14.1161 38.9046 14.1162 38.8924C14.1163 38.8863 14.1163 38.8816 14.1164 38.8781C14.1164 38.8764 14.1164 38.875 14.1164 38.874C14.1164 38.8734 14.1164 38.873 14.1164 38.8726C14.1164 38.8725 14.1164 38.8722 14.1164 38.8722C14.1164 38.872 14.1164 38.8718 13.6164 38.871ZM9.98904 48.7185C8.26613 51.1907 5.98718 53.2832 1.80275 55.0797L2.19725 55.9986C6.54767 54.1308 8.97634 51.9206 10.8095 49.2903L9.98904 48.7185ZM2 55.5391C2.46305 55.7278 2.46308 55.7277 2.4631 55.7276C2.46312 55.7276 2.46315 55.7275 2.46318 55.7274C2.46324 55.7273 2.46331 55.7271 2.46339 55.7269C2.46357 55.7265 2.4638 55.7259 2.46408 55.7252C2.46465 55.7238 2.46545 55.7218 2.46648 55.7193C2.46853 55.7142 2.47149 55.7068 2.47535 55.6972C2.48307 55.6778 2.49439 55.6492 2.50924 55.6112C2.53894 55.5352 2.58276 55.4215 2.64019 55.2683C2.75505 54.9618 2.92433 54.4975 3.14383 53.8615C3.58282 52.5895 4.22273 50.6306 5.02997 47.8743L4.07028 47.5932C3.26717 50.3354 2.63202 52.2792 2.19854 53.5353C1.9818 54.1633 1.81548 54.6193 1.70381 54.9173C1.64797 55.0662 1.6058 55.1757 1.57781 55.2473C1.56382 55.2831 1.55337 55.3095 1.54654 55.3266C1.54312 55.3352 1.54061 55.3414 1.53901 55.3454C1.53821 55.3474 1.53764 55.3488 1.53729 55.3496C1.53712 55.3501 1.53701 55.3504 1.53695 55.3505C1.53692 55.3506 1.53691 55.3506 1.53691 55.3506L1.53692 55.3506C1.53693 55.3505 1.53695 55.3505 2 55.5391ZM7.11204 43.8784C8.61834 42.2935 10.2919 41.156 11.5929 40.414C12.2424 40.0435 12.7963 39.7732 13.186 39.5962C13.3808 39.5078 13.5344 39.4427 13.6381 39.4002C13.6899 39.379 13.7293 39.3634 13.7551 39.3533C13.768 39.3483 13.7775 39.3446 13.7835 39.3423C13.7865 39.3412 13.7886 39.3404 13.7898 39.3399C13.7904 39.3397 13.7908 39.3395 13.791 39.3395C13.7911 39.3395 13.7911 39.3395 13.791 39.3395C13.791 39.3395 13.791 39.3395 13.791 39.3395C13.7909 39.3395 13.7908 39.3396 13.6164 38.871C13.442 38.4024 13.4419 38.4024 13.4417 38.4025C13.4417 38.4025 13.4415 38.4025 13.4414 38.4026C13.4411 38.4027 13.4408 38.4028 13.4404 38.403C13.4396 38.4032 13.4387 38.4036 13.4374 38.4041C13.435 38.405 13.4317 38.4062 13.4274 38.4079C13.419 38.4111 13.407 38.4157 13.3915 38.4217C13.3606 38.4338 13.316 38.4515 13.2588 38.4749C13.1444 38.5218 12.9794 38.5918 12.7725 38.6857C12.359 38.8735 11.7773 39.1576 11.0975 39.5453C9.73993 40.3195 7.98006 41.5135 6.38718 43.1895L7.11204 43.8784ZM5.02997 47.8743C5.47061 46.3697 6.08751 44.9565 7.11204 43.8784L6.38718 43.1895C5.2037 44.4348 4.52985 46.024 4.07028 47.5932L5.02997 47.8743ZM12.9605 40.8699C13.4349 39.8481 14.2722 38.2568 15.2344 36.8181C15.7155 36.0989 16.2214 35.4274 16.7224 34.8869C17.2301 34.3393 17.7022 33.9598 18.1103 33.7813L17.7096 32.8652C17.1153 33.1251 16.5316 33.6219 15.9891 34.2071C15.44 34.7993 14.9015 35.5171 14.4032 36.2622C13.4065 37.7524 12.5447 39.3906 12.0534 40.4488L12.9605 40.8699Z" fill="#D9D9D9"/>
</g>
<g opacity="0.3">
<path d="M40.1968 26.3475C40.1968 26.3475 40.1904 30.1334 38.0014 33.2843C36.788 35.0307 35.1817 36.5034 32.2695 37.7576C32.2695 37.7576 32.8272 36.3843 33.7937 33.1466C34.2517 31.6123 34.881 30.0936 36.0522 29.0032C38.0399 27.1526 40.1968 26.3475 40.1968 26.3475Z" fill="#D9D9D9"/>
<path d="M40.1968 26.3475L40.6968 26.3483L40.698 25.6267L40.022 25.879L40.1968 26.3475ZM38.0014 33.2843L37.5908 32.999L38.0014 33.2843ZM32.2695 37.7576L31.8063 37.5695L31.3475 38.6991L32.4673 38.2168L32.2695 37.7576ZM33.7937 33.1466L33.3146 33.0036L33.7937 33.1466ZM36.0522 29.0032L36.3929 29.3692L36.0522 29.0032ZM43.3278 23.0077C43.5807 22.8967 43.6957 22.6018 43.5847 22.3489C43.4738 22.096 43.1788 21.981 42.926 22.0919L43.3278 23.0077ZM40.1968 26.3475C39.6968 26.3466 39.6968 26.3465 39.6968 26.3464C39.6968 26.3464 39.6968 26.3463 39.6968 26.3462C39.6968 26.3462 39.6968 26.3461 39.6968 26.3462C39.6968 26.3463 39.6968 26.3466 39.6968 26.3471C39.6968 26.3482 39.6968 26.3501 39.6968 26.353C39.6967 26.3587 39.6966 26.3679 39.6963 26.3806C39.6958 26.4058 39.6948 26.4447 39.6927 26.496C39.6885 26.5988 39.6802 26.7514 39.6635 26.9454C39.63 27.3336 39.5633 27.8857 39.4302 28.5337C39.1632 29.8339 38.6339 31.4975 37.5908 32.999L38.412 33.5695C39.5579 31.9202 40.1263 30.1154 40.4098 28.7349C40.5519 28.0426 40.6236 27.4513 40.6598 27.0312C40.6779 26.821 40.6871 26.6532 40.6919 26.5366C40.6942 26.4783 40.6955 26.4327 40.6961 26.401C40.6964 26.3851 40.6966 26.3727 40.6967 26.3639C40.6968 26.3595 40.6968 26.3559 40.6968 26.3533C40.6968 26.352 40.6968 26.351 40.6968 26.3501C40.6968 26.3497 40.6968 26.3494 40.6968 26.3491C40.6968 26.3489 40.6968 26.3487 40.6968 26.3486C40.6968 26.3485 40.6968 26.3483 40.1968 26.3475ZM37.5908 32.999C36.4323 34.6664 34.9008 36.08 32.0718 37.2984L32.4673 38.2168C35.4626 36.9268 37.1437 35.3951 38.412 33.5695L37.5908 32.999ZM32.2695 37.7576C32.7328 37.9457 32.7328 37.9457 32.7328 37.9456C32.7328 37.9456 32.7329 37.9455 32.7329 37.9455C32.7329 37.9454 32.733 37.9452 32.733 37.9451C32.7332 37.9448 32.7333 37.9444 32.7335 37.9439C32.7339 37.943 32.7344 37.9417 32.7351 37.9401C32.7363 37.9369 32.7382 37.9323 32.7405 37.9264C32.7453 37.9145 32.7521 37.8971 32.7611 37.8742C32.7791 37.8283 32.8054 37.76 32.8398 37.6683C32.9087 37.485 33.01 37.2083 33.1414 36.8305C33.4043 36.075 33.7876 34.9152 34.2728 33.2896L33.3146 33.0036C32.8333 34.6158 32.4546 35.7614 32.197 36.502C32.0681 36.8722 31.9696 37.1412 31.9037 37.3166C31.8708 37.4042 31.846 37.4685 31.8297 37.5103C31.8215 37.5313 31.8154 37.5466 31.8115 37.5564C31.8096 37.5613 31.8081 37.5648 31.8073 37.567C31.8068 37.5681 31.8065 37.5688 31.8064 37.5692C31.8063 37.5694 31.8062 37.5696 31.8062 37.5696C31.8062 37.5696 31.8062 37.5696 31.8062 37.5696C31.8062 37.5696 31.8062 37.5695 31.8062 37.5695C31.8063 37.5695 31.8063 37.5695 32.2695 37.7576ZM36.3929 29.3692C37.3486 28.4794 38.3482 27.8384 39.1106 27.4196C39.4911 27.2107 39.8105 27.0582 40.033 26.9586C40.1442 26.9088 40.2311 26.8723 40.2891 26.8487C40.318 26.8369 40.3398 26.8283 40.3538 26.8228C40.3607 26.8201 40.3658 26.8182 40.3688 26.817C40.3703 26.8164 40.3713 26.8161 40.3718 26.8159C40.372 26.8158 40.3721 26.8157 40.3721 26.8157C40.3721 26.8157 40.3721 26.8158 40.372 26.8158C40.372 26.8158 40.3719 26.8158 40.3719 26.8158C40.3718 26.8159 40.3717 26.8159 40.1968 26.3475C40.022 25.879 40.0219 25.8791 40.0217 25.8791C40.0217 25.8792 40.0216 25.8792 40.0215 25.8792C40.0212 25.8793 40.021 25.8794 40.0207 25.8795C40.0202 25.8797 40.0195 25.88 40.0187 25.8803C40.0171 25.8809 40.015 25.8817 40.0124 25.8827C40.0071 25.8847 39.9998 25.8875 39.9905 25.8911C39.9719 25.8984 39.9454 25.9089 39.9115 25.9227C39.8438 25.9503 39.7466 25.9912 39.6245 26.0458C39.3805 26.155 39.0364 26.3195 38.6292 26.5431C37.8162 26.9896 36.7435 27.6765 35.7115 28.6373L36.3929 29.3692ZM34.2728 33.2896C34.7244 31.7765 35.3227 30.3655 36.3929 29.3692L35.7115 28.6373C34.4393 29.8217 33.7789 31.4481 33.3146 33.0036L34.2728 33.2896ZM39.8935 27.7817C40.2146 27.0879 40.7822 26.006 41.4334 25.0293C41.759 24.541 42.0991 24.0887 42.4335 23.7269C42.7744 23.3579 43.079 23.1168 43.3278 23.0077L42.926 22.0919C42.4907 22.2829 42.0747 22.6417 41.6991 23.0482C41.3168 23.4618 40.9442 23.9604 40.6014 24.4746C39.9158 25.5028 39.3239 26.6316 38.986 27.3617L39.8935 27.7817Z" fill="#D9D9D9"/>
</g>
<g opacity="0.3">
<path d="M116.31 75.2824C116.31 75.2824 115.672 71.2286 117.566 67.635C119.459 64.0414 121.967 61.6389 123.167 62.2688C124.367 62.8988 123.805 66.3227 121.911 69.9163C120.018 73.5099 116.31 75.2824 116.31 75.2824Z" fill="#D9D9D9"/>
<path d="M116.31 75.2824L115.817 75.3602L115.921 76.0229L116.526 75.7335L116.31 75.2824ZM125.237 59.1748C125.237 58.8987 125.013 58.6748 124.737 58.6748C124.461 58.6748 124.237 58.8987 124.237 59.1748L125.237 59.1748ZM116.31 75.2824C116.804 75.2047 116.804 75.2048 116.804 75.2049C116.804 75.2049 116.804 75.205 116.804 75.2051C116.804 75.2051 116.804 75.2052 116.804 75.2051C116.804 75.205 116.804 75.2046 116.804 75.204C116.804 75.2029 116.804 75.2007 116.803 75.1976C116.802 75.1914 116.801 75.1814 116.799 75.1678C116.795 75.1405 116.79 75.0986 116.783 75.0433C116.77 74.9325 116.754 74.768 116.739 74.5583C116.71 74.1386 116.69 73.5402 116.727 72.8326C116.802 71.4127 117.107 69.579 118.008 67.868L117.123 67.4019C116.132 69.2845 115.808 71.2746 115.729 72.78C115.689 73.535 115.71 74.1747 115.742 74.6274C115.757 74.854 115.776 75.0342 115.79 75.1591C115.797 75.2216 115.804 75.2704 115.808 75.3042C115.811 75.3212 115.813 75.3344 115.814 75.3438C115.815 75.3484 115.815 75.3522 115.816 75.3549C115.816 75.3563 115.816 75.3574 115.816 75.3583C115.816 75.3587 115.816 75.3591 115.816 75.3594C115.816 75.3596 115.816 75.3597 115.816 75.3598C115.817 75.36 115.817 75.3602 116.31 75.2824ZM118.008 67.868C118.937 66.1056 120.007 64.6539 120.972 63.7291C121.457 63.2648 121.894 62.9534 122.255 62.793C122.622 62.6297 122.828 62.6556 122.934 62.7115L123.399 61.8261C122.906 61.5671 122.348 61.6571 121.848 61.8793C121.342 62.1045 120.809 62.5002 120.28 63.007C119.218 64.0244 118.088 65.5707 117.123 67.4019L118.008 67.868ZM122.934 62.7115C123.041 62.7673 123.178 62.9213 123.251 63.3154C123.323 63.7026 123.314 64.2386 123.206 64.9002C122.989 66.218 122.398 67.9208 121.469 69.6832L122.354 70.1493C123.318 68.3182 123.954 66.5122 124.192 65.0622C124.311 64.3399 124.336 63.6771 124.235 63.1329C124.135 62.5955 123.893 62.0853 123.399 61.8261L122.934 62.7115ZM121.469 69.6832C120.568 71.3943 119.226 72.6838 118.097 73.5502C117.534 73.9819 117.028 74.3046 116.665 74.5186C116.484 74.6255 116.339 74.7049 116.24 74.7571C116.191 74.7832 116.153 74.8024 116.128 74.8148C116.116 74.8209 116.107 74.8254 116.101 74.8282C116.098 74.8296 116.096 74.8305 116.095 74.831C116.095 74.8313 116.095 74.8315 116.094 74.8315C116.094 74.8315 116.094 74.8315 116.094 74.8315C116.094 74.8315 116.095 74.8314 116.095 74.8314C116.095 74.8314 116.095 74.8313 116.31 75.2824C116.526 75.7335 116.526 75.7335 116.526 75.7334C116.526 75.7333 116.527 75.7333 116.527 75.7332C116.527 75.7331 116.527 75.7329 116.528 75.7327C116.529 75.7323 116.53 75.7318 116.531 75.7312C116.533 75.73 116.537 75.7284 116.541 75.7263C116.55 75.7221 116.562 75.7162 116.577 75.7085C116.607 75.6932 116.651 75.6708 116.707 75.6414C116.818 75.5826 116.977 75.4955 117.173 75.3801C117.565 75.1493 118.105 74.8043 118.705 74.3437C119.903 73.4255 121.362 72.0319 122.354 70.1493L121.469 69.6832ZM120.114 66.9251C120.292 66.4939 120.657 66.0541 121.167 65.5516C121.418 65.3041 121.693 65.0527 121.984 64.7852C122.273 64.5199 122.576 64.2403 122.874 63.946C124.061 62.7729 125.237 61.2895 125.237 59.1748L124.237 59.1748C124.237 60.8751 123.308 62.1117 122.171 63.2347C121.888 63.5145 121.597 63.7824 121.308 64.0487C121.02 64.3126 120.732 64.5768 120.465 64.8392C119.94 65.3567 119.45 65.9147 119.19 66.5431L120.114 66.9251Z" fill="#D9D9D9"/>
</g>
<g opacity="0.3">
<path d="M74.5904 16.8633C74.5904 16.8633 72.5109 12.5644 74.1475 9.49148C75.7842 6.41855 78.636 4.7368 80.5173 5.73519C82.3985 6.73358 82.5968 10.034 80.9602 13.107C79.3235 16.1799 74.5904 16.8633 74.5904 16.8633Z" fill="#D9D9D9"/>
<path d="M74.5904 16.8633L74.1403 17.081L74.2997 17.4104L74.6619 17.3581L74.5904 16.8633ZM84.0097 1.4558C84.2614 1.34227 84.3734 1.04618 84.2599 0.79445C84.1464 0.542721 83.8503 0.430683 83.5986 0.544205L84.0097 1.4558ZM74.5904 16.8633C75.0405 16.6455 75.0406 16.6456 75.0406 16.6457C75.0406 16.6457 75.0407 16.6458 75.0407 16.6458C75.0407 16.6459 75.0407 16.6459 75.0407 16.6458C75.0406 16.6456 75.0404 16.6452 75.04 16.6445C75.0394 16.6431 75.0383 16.6407 75.0367 16.6374C75.0335 16.6306 75.0284 16.6198 75.0217 16.6052C75.0083 16.5761 74.9882 16.5317 74.9629 16.4733C74.9122 16.3566 74.8406 16.1845 74.7592 15.9678C74.596 15.5334 74.3952 14.9239 74.244 14.2241C73.9373 12.8055 73.8539 11.1064 74.5888 9.72652L73.7062 9.25644C72.8045 10.9495 72.9425 12.9363 73.2665 14.4353C73.4306 15.1943 73.6474 15.8517 73.823 16.3193C73.911 16.5536 73.989 16.7414 74.0457 16.8717C74.074 16.937 74.097 16.9879 74.1133 17.0232C74.1214 17.0409 74.1278 17.0546 74.1324 17.0643C74.1347 17.0692 74.1365 17.073 74.1378 17.0758C74.1385 17.0772 74.139 17.0783 74.1395 17.0792C74.1397 17.0796 74.1398 17.08 74.14 17.0803C74.1401 17.0804 74.1401 17.0806 74.1402 17.0807C74.1403 17.0808 74.1403 17.081 74.5904 16.8633ZM74.5888 9.72652C75.3711 8.25782 76.4334 7.14312 77.4946 6.51728C78.5646 5.88632 79.5539 5.79 80.2829 6.17684L80.7516 5.29353C79.5993 4.68198 78.2221 4.92734 76.9867 5.6559C75.7426 6.38957 74.5606 7.65221 73.7062 9.25644L74.5888 9.72652ZM80.2829 6.17684C81.0115 6.56352 81.4845 7.43544 81.5588 8.67311C81.6326 9.90091 81.3011 11.4032 80.5189 12.8719L81.4015 13.342C82.2559 11.7378 82.6436 10.0534 82.557 8.61314C82.4711 7.18275 81.9043 5.90525 80.7516 5.29353L80.2829 6.17684ZM80.5189 12.8719C79.7839 14.2519 78.3258 15.1334 76.9759 15.6732C76.31 15.9395 75.6915 16.1142 75.2394 16.2221C75.0138 16.276 74.8308 16.313 74.7055 16.3363C74.6429 16.348 74.5947 16.3562 74.563 16.3614C74.5471 16.364 74.5354 16.3659 74.528 16.367C74.5243 16.3676 74.5216 16.368 74.5201 16.3682C74.5194 16.3683 74.5189 16.3684 74.5187 16.3684C74.5186 16.3684 74.5186 16.3684 74.5186 16.3684C74.5187 16.3684 74.5187 16.3684 74.5188 16.3684C74.5189 16.3684 74.519 16.3684 74.5904 16.8633C74.6619 17.3581 74.662 17.3581 74.6622 17.3581C74.6623 17.3581 74.6625 17.358 74.6627 17.358C74.663 17.358 74.6634 17.3579 74.6639 17.3578C74.6648 17.3577 74.6661 17.3575 74.6676 17.3573C74.6707 17.3568 74.6749 17.3562 74.6802 17.3554C74.6908 17.3537 74.7058 17.3514 74.725 17.3482C74.7634 17.3419 74.8185 17.3325 74.8885 17.3194C75.0284 17.2934 75.228 17.253 75.4717 17.1948C75.9582 17.0786 76.6253 16.8904 77.3472 16.6017C78.773 16.0316 80.4998 15.0349 81.4015 13.342L80.5189 12.8719ZM80.0102 7.53031C80.2113 6.72687 80.6623 5.44 81.3525 4.22876C82.0495 3.00548 82.9477 1.93473 84.0097 1.4558L83.5986 0.544205C82.2484 1.15307 81.2178 2.44524 80.4836 3.7337C79.7426 5.0342 79.2603 6.40788 79.0401 7.2875L80.0102 7.53031Z" fill="#D9D9D9"/>
</g>
<g opacity="0.3">
<path d="M119.28 47.4676C119.28 47.4676 121.912 46.9617 122.938 45.3121C123.965 43.6624 123.992 41.9528 122.998 41.4936C122.004 41.0345 120.366 41.9995 119.34 43.6492C118.313 45.2989 119.28 47.4676 119.28 47.4676Z" fill="#D9D9D9"/>
<path d="M119.28 47.4676L118.823 47.6712L118.985 48.0335L119.374 47.9586L119.28 47.4676ZM125.211 39.0825C125.212 38.8064 124.989 38.5814 124.713 38.5801C124.437 38.5787 124.212 38.8015 124.211 39.0776L125.211 39.0825ZM119.28 47.4676C119.374 47.9586 119.374 47.9586 119.375 47.9586C119.375 47.9586 119.375 47.9585 119.375 47.9585C119.375 47.9585 119.375 47.9584 119.376 47.9583C119.376 47.9582 119.377 47.9581 119.378 47.9579C119.38 47.9575 119.383 47.957 119.386 47.9563C119.392 47.955 119.401 47.9532 119.413 47.9508C119.435 47.9461 119.467 47.9392 119.507 47.9299C119.588 47.9113 119.702 47.8833 119.841 47.8445C120.119 47.767 120.501 47.6456 120.919 47.4689C121.737 47.123 122.767 46.5331 123.363 45.5763L122.514 45.0479C122.083 45.7407 121.284 46.2286 120.529 46.548C120.16 46.7041 119.82 46.8122 119.573 46.8811C119.45 46.9155 119.35 46.9399 119.283 46.9554C119.249 46.9632 119.223 46.9688 119.207 46.9723C119.198 46.974 119.192 46.9752 119.189 46.9759C119.187 46.9763 119.186 46.9765 119.185 46.9766C119.185 46.9767 119.185 46.9767 119.185 46.9767C119.185 46.9767 119.185 46.9767 119.185 46.9767C119.185 46.9767 119.185 46.9767 119.185 46.9767C119.185 46.9766 119.185 46.9766 119.28 47.4676ZM123.363 45.5763C123.912 44.694 124.213 43.7665 124.226 42.9642C124.238 42.1708 123.957 41.386 123.208 41.0397L122.788 41.9475C123.033 42.0604 123.235 42.36 123.226 42.9486C123.217 43.5283 122.991 44.2805 122.514 45.0479L123.363 45.5763ZM123.208 41.0397C122.492 40.7089 121.647 40.9254 120.927 41.3498C120.187 41.7859 119.465 42.5007 118.915 43.385L119.764 43.9134C120.24 43.148 120.851 42.5554 121.435 42.2114C122.039 41.8556 122.51 41.8192 122.788 41.9475L123.208 41.0397ZM118.915 43.385C118.312 44.3541 118.309 45.4484 118.43 46.252C118.492 46.6594 118.588 47.0093 118.669 47.2578C118.71 47.3825 118.747 47.4827 118.775 47.5532C118.788 47.5885 118.8 47.6164 118.808 47.6363C118.812 47.6462 118.816 47.6542 118.818 47.66C118.82 47.6629 118.821 47.6653 118.821 47.6672C118.822 47.6682 118.822 47.669 118.822 47.6696C118.823 47.67 118.823 47.6703 118.823 47.6705C118.823 47.6707 118.823 47.6709 118.823 47.6709C118.823 47.6711 118.823 47.6712 119.28 47.4676C119.737 47.264 119.737 47.2641 119.737 47.2643C119.737 47.2643 119.737 47.2644 119.737 47.2645C119.737 47.2646 119.737 47.2647 119.737 47.2648C119.737 47.265 119.737 47.265 119.737 47.2649C119.737 47.2646 119.736 47.2639 119.736 47.2627C119.735 47.2602 119.733 47.2558 119.73 47.2494C119.725 47.2367 119.717 47.2164 119.706 47.1892C119.685 47.1346 119.654 47.0526 119.62 46.9481C119.552 46.7384 119.471 46.443 119.419 46.1021C119.314 45.4089 119.34 44.594 119.764 43.9134L118.915 43.385ZM122.764 43.1101C123.167 42.7639 123.762 42.1633 124.262 41.4648C124.75 40.7829 125.207 39.9255 125.211 39.0825L124.211 39.0776C124.208 39.5991 123.906 40.2428 123.448 40.8831C123.002 41.5068 122.464 42.0494 122.113 42.3516L122.764 43.1101Z" fill="#D9D9D9"/>
</g>
<defs>
<linearGradient id="paint0_linear_9216_201510" x1="69.329" y1="56.6721" x2="69.329" y2="113.342" gradientUnits="userSpaceOnUse">
<stop stop-color="#303439"/>
<stop offset="1" stop-color="#3B4147"/>
</linearGradient>
<linearGradient id="paint1_linear_9216_201510" x1="71.6538" y1="21.4883" x2="71.6538" y2="72.761" gradientUnits="userSpaceOnUse">
<stop stop-color="#303439"/>
<stop offset="1" stop-color="#3B4147"/>
</linearGradient>
<linearGradient id="paint2_linear_9216_201510" x1="69.4121" y1="63.4115" x2="69.4121" y2="114.145" gradientUnits="userSpaceOnUse">
<stop stop-color="#303439"/>
<stop offset="1" stop-color="#3B4147"/>
</linearGradient>
</defs>
</svg>
