<svg width="36" height="37" viewBox="0 0 36 37" fill="none" xmlns="http://www.w3.org/2000/svg">
<g clip-path="url(#clip0_12821_29385)">
<path d="M18 0.5C27.9422 0.5 36 8.55781 36 18.5C36 28.4422 27.9422 36.5 18 36.5C8.05781 36.5 0 28.4422 0 18.5C0 8.55781 8.05781 0.5 18 0.5Z" fill="#FFCE2E"/>
<path d="M10.1758 22.3493H13.9938C13.9938 23.1263 14.2223 23.7732 14.6828 24.2864C15.3719 25.0458 16.4863 25.4255 18.0262 25.4255C19.1582 25.4255 20.0582 25.2673 20.7332 24.9474C21.5805 24.5396 22.0059 23.8786 22.0059 22.9611C22.0059 22.272 21.6859 21.7517 21.0496 21.4001C20.6242 21.1716 19.7945 20.9044 18.557 20.6056L16.5145 20.1275C14.4824 19.6493 13.0937 19.1572 12.352 18.6439C11.0969 17.779 10.4676 16.4115 10.4676 14.5411C10.4676 13.0751 10.9105 11.8411 11.793 10.8322C13.048 9.40129 15.0449 8.68762 17.7871 8.68762C20.3852 8.68762 22.3504 9.41887 23.6758 10.8779C24.7023 12.0064 25.2156 13.3177 25.2156 14.8118H21.3977C21.3098 14.0595 21.0883 13.4794 20.7332 13.0786C20.0969 12.3439 19.0176 11.9747 17.4988 11.9747C16.5988 11.9747 15.8535 12.1329 15.2699 12.4529C14.5457 12.8607 14.1836 13.4583 14.1836 14.2529C14.1836 14.9068 14.4121 15.4025 14.8727 15.7365C15.1363 15.9298 15.5793 16.0986 16.198 16.2392L20.8387 17.3782C22.4137 17.7685 23.5703 18.2712 24.3121 18.8864C25.3211 19.7161 25.8238 20.915 25.8238 22.4865C25.8238 24.4095 25.1875 25.9036 23.9148 26.9618C22.5191 28.1255 20.6523 28.7091 18.318 28.7091C15.2242 28.7091 12.9953 27.9497 11.6348 26.4275C10.6645 25.3552 10.1758 23.9947 10.1758 22.3493Z" fill="black"/>
<path d="M16.2271 25.6301H19.7427V30.0809H16.2271V25.6301ZM16.2271 6.91992H19.7427V11.3707H16.2271V6.91992Z" fill="black"/>
</g>
<defs>
<clipPath id="clip0_12821_29385">
<rect width="36" height="36" fill="white" transform="translate(0 0.5)"/>
</clipPath>
</defs>
</svg>
