<svg width="20" height="20" viewBox="0 0 20 20" fill="none" xmlns="http://www.w3.org/2000/svg">
<path d="M9.60675 1.99846C10.3174 1.61059 10.9764 1.24588 11.5839 0.904304C12.0547 0.639744 12.4607 0.43065 12.8017 0.277022C12.9877 0.193224 13.2198 0.127982 13.4277 0.121398C13.7079 0.112619 13.9945 0.141749 14.2875 0.208787C14.5023 0.258267 14.7013 0.350843 14.8846 0.486515C15.0116 0.580687 15.1315 0.680446 15.2443 0.785791C15.3456 0.879564 15.4254 0.98451 15.484 1.10063C15.8689 1.86438 16.2402 2.5986 16.5978 3.3033C16.6082 3.32325 16.6025 3.33323 16.5805 3.33323H7.189L7.1863 3.33281L7.18467 3.33053L7.18507 3.32773L7.18727 3.32604C8.0415 2.85518 8.84799 2.41265 9.60675 1.99846Z" fill="#67707B"/>
<path d="M12.9998 10.7569C12.8716 11.0123 12.8185 11.3074 12.8404 11.6421C12.8676 12.0575 12.9761 12.4981 13.2111 12.8237C13.4109 13.1002 13.6386 13.2937 13.8943 13.4043C14.1749 13.5258 14.5756 13.5539 14.8938 13.5539C16.3925 13.5555 17.8977 13.5555 19.4094 13.5539C19.4306 13.5539 19.4412 13.5651 19.4412 13.5874C19.4408 14.8536 19.4404 16.1173 19.44 17.3787C19.44 17.5744 19.4158 17.8132 19.3644 18.003C19.1707 18.7124 18.7532 19.1631 18.1119 19.3551C17.9094 19.4161 17.5706 19.4459 17.0956 19.4443C12.4071 19.4303 7.71447 19.4291 3.01756 19.4407C2.53212 19.4419 2.17699 19.4097 1.95218 19.3443C1.40746 19.1855 1.00113 18.8268 0.733197 18.2681C0.615783 18.0239 0.557269 17.7083 0.557654 17.3212C0.559579 13.9845 0.558809 10.5787 0.555344 7.10392C0.554959 6.68613 0.555354 4.75642 0.555354 4.75642C0.555354 4.75642 1.55803 5.35914 2.22202 5.35914C2.66914 5.35914 2.57524 5.35914 2.57524 5.35914C2.57524 5.35914 12.4653 5.35954 17.3936 5.35914C18.0322 5.35914 18.5398 4.95732 18.9163 5.35914C19.1218 5.57821 19.2706 5.85714 19.3626 6.19592C19.4196 6.40501 19.4467 6.70429 19.444 7.09375C19.4383 8.01512 19.4377 8.85987 19.4423 9.62801C19.4423 9.63357 19.4402 9.6389 19.4364 9.64283C19.4326 9.64676 19.4275 9.64896 19.4221 9.64896C17.9046 9.64976 16.3661 9.64876 14.8066 9.64597C13.9739 9.64438 13.3717 10.0147 12.9998 10.7569Z" fill="#67707B"/>
<path d="M14.7183 12.5723C15.2371 12.5723 15.6578 12.1363 15.6578 11.5984C15.6578 11.0606 15.2371 10.6246 14.7183 10.6246C14.1994 10.6246 13.7788 11.0606 13.7788 11.5984C13.7788 12.1363 14.1994 12.5723 14.7183 12.5723Z" fill="#67707B"/>
<path d="M3.33344 2.77772H16.1112C17.3385 2.77772 18.3334 3.77265 18.3334 4.99995C18.3334 6.22725 17.3385 7.22217 16.1112 7.22217H3.33345C2.10615 7.22217 1.11122 6.22724 1.11122 4.99995C1.11122 3.77265 2.10614 2.77772 3.33344 2.77772Z" stroke="#67707B" stroke-width="1.11111"/>
</svg>
