<svg width="18" height="18" viewBox="0 0 18 18" fill="none" xmlns="http://www.w3.org/2000/svg">
<path d="M9.78156 0.250774C10.1502 0.52607 10.3351 0.901143 10.3363 1.37599C10.3377 1.96856 10.3382 2.56992 10.338 3.18007C10.338 3.18108 10.3379 3.18208 10.3378 3.18307C10.3376 3.18426 10.3374 3.18544 10.337 3.18659C10.3367 3.18767 10.3362 3.18874 10.3357 3.18977C10.3343 3.19279 10.3321 3.19545 10.3295 3.19754C10.3269 3.19963 10.3238 3.2011 10.3205 3.20186C10.3173 3.20261 10.3139 3.20262 10.3106 3.20188C9.44084 3.00584 8.5663 3.00526 7.68695 3.20012C7.68362 3.20086 7.68016 3.20084 7.67685 3.20007C7.67353 3.1993 7.67043 3.19779 7.66776 3.19567C7.6668 3.19491 7.66591 3.19407 7.6651 3.19317C7.66364 3.19156 7.66242 3.18975 7.66146 3.18779C7.65997 3.18473 7.65918 3.18137 7.65916 3.17796L7.65937 2.52217C7.65945 2.15653 7.6595 1.79217 7.6595 1.42911C7.6595 0.929163 7.83597 0.544009 8.18888 0.273638C8.64719 -0.0770468 9.31586 -0.0970984 9.78156 0.250774Z" fill="white"/>
<path d="M4.07916 2.33976C4.24987 2.40636 4.4166 2.52103 4.57933 2.68377C5.0108 3.11571 5.43055 3.53533 5.83856 3.94265C5.84027 3.94434 5.84158 3.94639 5.84239 3.94865C5.84321 3.95092 5.8435 3.95333 5.84326 3.95572C5.84304 3.95811 5.84227 3.96042 5.84103 3.96248C5.84041 3.96351 5.83969 3.96446 5.83887 3.96532C5.83838 3.96582 5.83787 3.96629 5.83734 3.96672C5.83694 3.96704 5.83653 3.96734 5.8361 3.96762C5.07376 4.4488 4.45095 5.0708 3.96765 5.8336C3.96612 5.83605 3.96406 5.83812 3.9616 5.83965C3.95916 5.8412 3.95642 5.84217 3.95355 5.84251C3.95068 5.84284 3.94778 5.84254 3.94505 5.8416C3.94393 5.84122 3.94285 5.84074 3.94182 5.84016C3.94118 5.8398 3.94056 5.83941 3.93998 5.83898C3.93919 5.83842 3.93845 5.8378 3.93776 5.83713C3.50254 5.40307 3.07294 4.97325 2.64898 4.54764C2.40944 4.3067 2.25502 3.98732 2.24237 3.63909C2.20683 2.65879 3.16216 1.98239 4.07916 2.33976Z" fill="white"/>
<path d="M15.2705 4.62256C15.4154 4.47659 15.5772 4.28665 15.649 4.09566C15.8101 3.66512 15.7823 3.26719 15.5656 2.90185C15.1551 2.20927 14.242 2.02847 13.6015 2.51704C13.5236 2.57637 13.4549 2.63605 13.3954 2.69608L12.1579 3.93737C12.1571 3.93824 12.1563 3.93917 12.1556 3.94016L12.155 3.94119C12.1542 3.94249 12.1535 3.94388 12.153 3.94534C12.152 3.94833 12.1517 3.95152 12.152 3.95466C12.1524 3.9578 12.1535 3.96081 12.1552 3.96348C12.1569 3.96615 12.1591 3.96841 12.1618 3.97008C12.9209 4.45314 13.5411 5.07338 14.0225 5.83079C14.0243 5.83352 14.0266 5.83583 14.0294 5.83755C14.0321 5.83926 14.0352 5.84035 14.0384 5.84072C14.0391 5.8408 14.0398 5.84085 14.0405 5.84086L14.0416 5.84085C14.0437 5.84078 14.0459 5.8404 14.0479 5.83969C14.0509 5.83864 14.0537 5.83692 14.0559 5.83466C14.4604 5.43462 14.8653 5.03058 15.2705 4.62256Z" fill="white"/>
<path d="M8.99543 13.7903C11.6424 13.7903 13.7883 11.6445 13.7883 8.99752C13.7883 6.35052 11.6424 4.2047 8.99543 4.2047C6.34844 4.2047 4.20262 6.35052 4.20262 8.99752C4.20262 11.6445 6.34844 13.7903 8.99543 13.7903Z" fill="white"/>
<path d="M0.943724 7.71859C0.377074 7.88953 0 8.39851 0 8.99787C0 9.71331 0.54063 10.2768 1.25747 10.326C1.33557 10.3314 1.41459 10.3341 1.49456 10.3341C1.78471 10.3343 2.07416 10.3343 2.3629 10.3343L3.18326 10.3341C3.18638 10.3341 3.18947 10.3334 3.19227 10.332C3.1942 10.3311 3.19595 10.3298 3.19748 10.3283C3.19818 10.3277 3.19883 10.3269 3.19943 10.3262C3.20134 10.3237 3.20265 10.3208 3.20325 10.3177C3.20337 10.3171 3.20347 10.3165 3.20354 10.3158C3.20364 10.3148 3.20368 10.3138 3.20362 10.3127C3.20356 10.3113 3.20333 10.3099 3.20296 10.3085C3.17599 10.2093 3.15452 10.1123 3.13858 10.0176C3.00493 9.22685 3.02532 8.44669 3.1998 7.67708C3.20026 7.67485 3.20022 7.67254 3.19969 7.67032C3.19914 7.6681 3.19811 7.66604 3.19665 7.66428C3.19621 7.66372 3.19571 7.66321 3.19517 7.66273C3.19461 7.66221 3.19399 7.66173 3.19335 7.66131C3.1927 7.66088 3.19201 7.66049 3.19129 7.66016C3.18922 7.65921 3.18695 7.65874 3.18466 7.65879C2.65868 7.65997 2.11209 7.65879 1.54484 7.65528C1.28925 7.65363 1.08887 7.67474 0.943724 7.71859Z" fill="white"/>
<path d="M18 8.99294V9.00702C17.995 9.0414 17.991 9.07648 17.9869 9.11165C17.9762 9.20385 17.9654 9.29667 17.9384 9.37916C17.7827 9.85541 17.4564 10.1617 16.9595 10.2979C16.8803 10.3197 16.72 10.3309 16.4787 10.3313C15.9187 10.333 15.36 10.334 14.8023 10.3345C14.8013 10.3345 14.8003 10.3344 14.7993 10.3341C14.7983 10.3339 14.7974 10.3336 14.7965 10.3331C14.7956 10.3327 14.7948 10.3322 14.7941 10.3317C14.7932 10.331 14.7925 10.3302 14.7918 10.3294C14.7905 10.3278 14.7897 10.3259 14.7892 10.324C14.7888 10.322 14.7888 10.3199 14.7893 10.318C14.9893 9.45267 14.9898 8.5725 14.7907 7.67744C14.7904 7.67608 14.7903 7.67468 14.7903 7.6733C14.7904 7.67232 14.7905 7.67134 14.7907 7.67038C14.7912 7.66806 14.7923 7.66589 14.7938 7.66403C14.7945 7.66314 14.7953 7.66233 14.7962 7.66161C14.7971 7.66084 14.7982 7.66018 14.7993 7.65964C14.8015 7.65861 14.8038 7.65808 14.8062 7.65809C15.3638 7.65856 15.9602 7.65856 16.5955 7.65809C16.9606 7.65785 17.2675 7.76127 17.5164 7.96832C17.7728 8.18183 17.9356 8.47131 17.9757 8.8023L17.98 8.83725L17.9849 8.87686C17.9898 8.91564 17.9948 8.95434 18 8.99294Z" fill="white"/>
<path d="M2.48611 13.6465C2.02955 14.287 2.22617 15.2075 2.94197 15.5934C3.37285 15.8252 3.9265 15.8076 4.32712 15.5209C4.44602 15.4358 4.5676 15.3304 4.69188 15.2047C5.07903 14.8133 5.45927 14.4313 5.83258 14.0587C5.83492 14.0564 5.83668 14.0536 5.83777 14.0505C5.83814 14.0495 5.83844 14.0484 5.83864 14.0473C5.83881 14.0464 5.83892 14.0455 5.83897 14.0446C5.839 14.0439 5.83902 14.0432 5.83899 14.0426C5.83897 14.042 5.83893 14.0414 5.83887 14.0409C5.83849 14.0376 5.83739 14.0344 5.83562 14.0316C5.83514 14.0308 5.83461 14.0301 5.83402 14.0294C5.83339 14.0286 5.83268 14.0278 5.83193 14.0271C5.83093 14.0262 5.82987 14.0253 5.82871 14.0246C5.06637 13.5406 4.44602 12.9198 3.96765 12.1621C3.96612 12.1597 3.96406 12.1577 3.96164 12.1562C3.95922 12.1547 3.95647 12.1537 3.95363 12.1534C3.95216 12.1533 3.95066 12.1533 3.94919 12.1535C3.94785 12.1536 3.94652 12.154 3.94524 12.1544C3.94254 12.1554 3.9401 12.1569 3.93811 12.159C3.54345 12.5534 3.15396 12.9418 2.76962 13.3243C2.64721 13.446 2.55272 13.5534 2.48611 13.6465Z" fill="white"/>
<path d="M15.7436 14.281C15.8569 15.3858 14.6303 16.1512 13.6936 15.541C13.5867 15.4715 13.4866 15.3897 13.3933 15.2954C12.974 14.8729 12.5614 14.4598 12.1555 14.0563C12.1535 14.0544 12.1521 14.0521 12.1512 14.0495C12.1503 14.047 12.15 14.0443 12.1503 14.0416C12.1504 14.0403 12.1507 14.0391 12.1511 14.0379C12.1515 14.0365 12.1522 14.0352 12.1529 14.0339C12.1535 14.0331 12.1541 14.0323 12.1547 14.0315C12.1559 14.0302 12.1572 14.0291 12.1586 14.0281C12.9273 13.5366 13.5484 12.916 14.0218 12.1664C14.0235 12.1636 14.0259 12.1612 14.0286 12.1595C14.0314 12.1577 14.0345 12.1566 14.0378 12.1562C14.0411 12.1559 14.0444 12.1562 14.0476 12.1573C14.0507 12.1584 14.0536 12.1602 14.0559 12.1625C14.5041 12.6073 14.9313 13.0343 15.3377 13.4435C15.5757 13.6829 15.711 13.9621 15.7436 14.281Z" fill="white"/>
<path d="M9.30391 17.9606C9.69457 17.8682 9.98898 17.64 10.1871 17.2761C10.3155 17.0401 10.3394 16.7731 10.3391 16.5075C10.3381 15.9319 10.3378 15.372 10.338 14.828C10.338 14.8012 10.325 14.7908 10.299 14.7967C9.43487 14.9908 8.56409 14.9904 7.6866 14.7953C7.6849 14.7949 7.68319 14.7947 7.68147 14.7947C7.67982 14.7947 7.67817 14.7949 7.67656 14.7953C7.67326 14.7961 7.67017 14.7976 7.66754 14.7997C7.6649 14.8018 7.66277 14.8045 7.66132 14.8076C7.65988 14.8107 7.65914 14.814 7.65916 14.8174C7.65894 15.4069 7.6594 16.0048 7.66057 16.6109C7.66198 17.2339 8.02287 17.7664 8.62294 17.9419C8.84946 18.0081 9.07644 18.0143 9.30391 17.9606Z" fill="white"/>
</svg>
