<svg width="18" height="18" viewBox="0 0 18 18" fill="none" xmlns="http://www.w3.org/2000/svg">
<path d="M2.86083 17.4988C1.91154 17.1386 1.20484 16.5283 0.740729 15.668C0.414605 15.0632 0.253592 14.3758 0.16284 13.6533C0.0568642 12.8037 0.0129516 11.8745 0.00768209 10.9922C-0.00519893 8.84377 -0.0018812 7.316 0.0176355 6.40887C0.0328585 5.68441 0.082431 4.98513 0.166353 4.31102C0.19875 4.05028 0.248713 3.77568 0.316241 3.48722C0.673397 1.96453 1.57702 0.95005 3.02711 0.443787C3.33274 0.337226 3.74942 0.247644 4.27715 0.175042C5.13491 0.0573566 6.08049 0.0175426 7.00324 0.00993106C9.03103 -0.00646296 10.568 -0.0025598 11.6141 0.0216409C12.3401 0.0380349 13.0161 0.0850703 13.6422 0.162747C14.2295 0.235349 14.8531 0.367672 15.3976 0.612997C16.4413 1.08296 17.1552 1.87456 17.5393 2.98779C17.667 3.35821 17.7626 3.78641 17.8262 4.27238C17.9492 5.21855 17.9872 6.19223 17.9931 7.19227C18.0064 9.23567 18.0005 10.7599 17.9755 11.765C17.9595 12.4212 17.9094 13.0779 17.8251 13.7352C17.7669 14.1915 17.6742 14.6108 17.5469 14.9929C17.2612 15.8518 16.7278 16.5802 15.9784 17.0744C15.6966 17.2602 15.3593 17.4225 14.9666 17.5615C14.7012 17.6552 14.3076 17.7408 13.7857 17.8185C12.932 17.9462 11.9308 17.9871 10.994 17.9936C8.89363 18.0084 7.30322 18.0033 6.22277 17.9784C5.60409 17.9643 4.98561 17.9184 4.36732 17.8408C3.84154 17.7752 3.31927 17.6727 2.86083 17.4988ZM9.87454 10.3528C9.8722 10.0846 10.0584 9.77257 10.2176 9.56179C10.4573 9.24523 10.6972 8.93062 10.9372 8.61796C11.3728 8.05061 11.6398 7.52191 11.631 6.77071C11.6105 5.12545 10.0871 3.88009 8.45587 4.23432C8.07022 4.31785 7.74293 4.45876 7.47399 4.65705C7.15782 4.89008 6.91347 5.15453 6.74094 5.4504C6.49581 5.87001 6.37149 6.32553 6.36798 6.81696C6.36563 7.13704 6.49679 7.38997 6.76143 7.57577C6.84731 7.63627 6.93845 7.67492 7.03486 7.6917C7.46111 7.76625 7.78489 7.62788 8.00621 7.27658C8.15551 7.03945 8.07296 6.73206 8.19474 6.468C8.27905 6.28416 8.44709 6.08275 8.64382 6.00663C8.99746 5.86962 9.30934 5.91744 9.57945 6.15008C9.90264 6.42819 9.96471 6.91943 9.7229 7.27951C9.41902 7.73093 9.05835 8.14019 8.75448 8.56878C8.41313 9.05006 8.15258 9.6139 8.12155 10.2351C8.10516 10.5665 8.23904 10.8384 8.5232 11.0507C8.80015 11.2574 9.23049 11.2404 9.49806 11.0355C9.70416 10.8786 9.87688 10.6186 9.87454 10.3528ZM9.87688 12.9542C9.87688 12.7216 9.78448 12.4985 9.61999 12.334C9.45551 12.1695 9.23242 12.0771 8.9998 12.0771C8.76719 12.0771 8.5441 12.1695 8.37961 12.334C8.21513 12.4985 8.12272 12.7216 8.12272 12.9542C8.12272 13.1868 8.21513 13.4099 8.37961 13.5744C8.5441 13.7389 8.76719 13.8313 8.9998 13.8313C9.23242 13.8313 9.45551 13.7389 9.61999 13.5744C9.78448 13.4099 9.87688 13.1868 9.87688 12.9542Z" fill="white"/>
</svg>
