<svg width="16" height="16" viewBox="0 0 16 16" fill="none" xmlns="http://www.w3.org/2000/svg">
<path d="M13.4346 6.7029C14.1459 6.8717 14.8571 7.03162 15.5684 7.19154C15.9951 7.28927 16.0396 7.61799 15.9773 7.89341C15.9018 8.27986 15.8217 8.6641 15.7417 9.04833C15.6617 9.4326 15.5817 9.81686 15.5061 10.2033C15.4617 10.4343 15.3461 10.5854 15.106 10.6653C12.4123 11.5626 9.7183 12.46 7.03343 13.3662C6.90007 13.4106 6.75782 13.4994 6.65113 13.5972C6.50655 13.725 6.36892 13.8632 6.2339 13.9988C6.15306 14.08 6.07314 14.1603 5.99323 14.2368L1.76133 10.0079C1.76133 10.0079 1.76133 9.999 1.77022 9.999C2.50421 9.48125 2.76013 8.68692 3.01862 7.88464C3.02626 7.86091 3.03391 7.83718 3.04157 7.81345C3.4441 6.57277 3.85722 5.33209 4.27081 4.08997C4.61541 3.05505 4.96034 2.01913 5.29977 0.981381C5.42424 0.608238 5.69095 0.51051 6.0199 0.44832C6.83783 0.306171 7.65577 0.164019 8.4737 0.0129867C8.90044 -0.0580881 9.15827 0.164021 9.21161 0.643776C9.23181 0.84894 9.25582 1.05283 9.2798 1.25641C9.31917 1.5906 9.35843 1.92395 9.38053 2.26073C9.38942 2.40288 9.33608 2.57168 9.25606 2.68718C7.63798 4.85496 6.01101 7.02274 4.35737 9.1994C4.2509 9.33418 4.15009 9.46895 4.0459 9.60824C4.01959 9.64342 3.99307 9.67887 3.96619 9.7147C4.08176 9.82575 4.19511 9.93902 4.30958 10.0534C4.42404 10.1678 4.53962 10.2833 4.65965 10.3988C5.04197 9.89235 5.42428 9.3837 5.8066 8.87504C6.18887 8.36644 6.57114 7.85784 6.95341 7.35146C7.44684 6.69401 7.94028 6.03434 8.43371 5.37466C8.92713 4.71501 9.42055 4.05536 9.91397 3.39792C10.0218 3.25419 10.1588 3.27904 10.2919 3.3032C10.3233 3.3089 10.3546 3.31457 10.3852 3.31796C10.6025 3.33771 10.8198 3.36447 11.0371 3.39123C11.3088 3.42469 11.5804 3.45814 11.8521 3.47788C12.2611 3.51342 12.4833 3.73553 12.5189 4.14421C12.5456 4.43206 12.5818 4.71992 12.6181 5.00777C12.6423 5.19967 12.6665 5.39157 12.6878 5.58347C12.7145 5.74339 12.7056 5.86777 12.5367 5.99215C11.1259 7.06256 9.71989 8.14256 8.31517 9.22159C7.8078 9.61132 7.30059 10.0009 6.79338 10.3899C6.4022 10.692 6.01101 10.994 5.60205 11.3139C5.71878 11.426 5.83325 11.5382 5.94888 11.6515C6.06223 11.7626 6.17669 11.8747 6.29551 11.9891C6.59779 11.767 6.90007 11.536 7.21124 11.2961C7.89133 10.772 8.57365 10.2478 9.25597 9.72365C9.93835 9.19945 10.6207 8.67525 11.3009 8.15105C11.4703 8.02161 11.6404 7.89286 11.8106 7.76403C12.2478 7.43306 12.6858 7.10154 13.1146 6.75621C13.239 6.65848 13.319 6.67625 13.4346 6.7029Z" fill="currentColor"/>
<path d="M2.63263 15.9694C1.35239 15.8006 0.507792 15.0365 0.125498 13.8105C-0.221234 12.6822 0.169951 11.4561 1.05901 10.7365L5.28202 14.9566C4.57966 15.7562 3.67283 16.1115 2.63263 15.9694Z" fill="currentColor"/>
</svg>
