<svg width="16" height="16" viewBox="0 0 16 16" fill="none" xmlns="http://www.w3.org/2000/svg">
<path d="M8.8858 0.123004C8.66792 0.0756947 8.45951 0.0378474 8.24163 0H7.43642C7.408 0.0189237 7.37011 0.0378474 7.34169 0.0378474C5.60812 0.189237 4.08296 0.82318 2.78516 1.97752C2.3494 2.36546 1.95153 2.8007 1.6105 3.33057C2.13151 3.82258 2.65253 4.3146 3.1925 4.81608C4.45241 2.44115 6.34702 0.898875 8.8858 0.123004Z" fill="currentColor"/>
<path d="M7.62581 8.61973C8.05209 8.79004 8.13735 9.03605 8.14682 9.44291C8.16577 10.5878 8.08051 11.7327 7.89105 12.9059C7.78022 12.9059 7.67046 12.9081 7.56104 12.9102C7.34316 12.9144 7.12654 12.9185 6.90585 12.9059C5.46595 12.8302 4.10183 12.4518 2.86086 11.6948C1.76199 11.0325 0.862048 10.1525 0.189461 9.05498C0.128795 8.95197 0.0953249 8.83343 0.0616818 8.71429C0.0427908 8.64739 0.0238453 8.5803 0 8.51565V7.52216C0.0141993 7.42855 0.0275472 7.3358 0.0408095 7.24364C0.0717868 7.02838 0.102297 6.81637 0.142096 6.60436C0.303138 5.6771 0.644167 4.82553 1.14624 4.02128C1.15571 4.01182 1.17466 3.99289 1.20308 3.97397C1.35937 4.13008 1.5132 4.28783 1.66674 4.44529C2.03432 4.82225 2.40033 5.1976 2.79455 5.54463C3.21406 5.92174 3.68559 6.25432 4.1499 6.58181C4.20982 6.62408 4.26963 6.66626 4.32918 6.70844C5.37122 7.45592 6.44168 8.13718 7.62581 8.61973Z" fill="currentColor"/>
<path d="M12.2298 5.71496C12.353 5.65819 12.3909 5.68657 12.4572 5.78119C13.1487 6.79361 13.6034 7.89118 13.7739 9.11176C14.0392 10.8338 13.8118 12.4896 13.0066 14.0508C12.9119 14.2401 12.7224 14.4199 12.5425 14.5523C11.5099 15.2998 10.3542 15.7445 9.09426 15.9054C8.98065 15.9195 8.8694 15.9361 8.75815 15.9526C8.64691 15.9692 8.53529 15.9858 8.42167 16H7.99539C8.05138 15.7998 8.11012 15.6006 8.16876 15.4017C8.2986 14.9613 8.428 14.5224 8.52588 14.0792C8.63008 13.5967 8.66797 13.0952 8.69639 12.6032C8.7627 11.4015 8.81007 10.1999 8.83849 8.99822C8.84586 8.67441 8.81311 8.35061 8.78036 8.02681C8.77101 7.93429 8.76165 7.84177 8.75323 7.74926C8.73429 7.56002 8.7627 7.44648 8.95217 7.33293C10.0037 6.69899 11.1025 6.18805 12.2298 5.71496Z" fill="currentColor"/>
<path d="M0.587413 10.9379C0.604518 10.9849 0.615832 11.0203 0.624841 11.0485C0.635788 11.0827 0.643331 11.1063 0.653724 11.1271C1.68629 13.4453 3.42933 14.9781 5.85443 15.7066C6.14165 15.7895 6.43318 15.8466 6.72611 15.904C6.86789 15.9318 7.01013 15.9596 7.15224 15.9905H7.24697C7.30463 15.7541 7.36228 15.5167 7.42025 15.278C7.54322 14.7717 7.66766 14.2594 7.79641 13.7386C5.00186 13.8237 2.61465 12.9059 0.587413 10.9379Z" fill="currentColor"/>
<path d="M15.3274 4.86343C15.6211 5.49737 15.82 6.15024 15.9147 6.84095C15.9231 6.89681 15.9323 6.95349 15.9417 7.01075C15.9639 7.14749 15.9866 7.28754 16 7.42759V8.37377C15.9716 8.61032 15.9432 8.84686 15.9053 9.08341C15.7158 10.4175 15.2043 11.6097 14.3517 12.6694C14.9959 10.058 14.5696 7.63575 13.1202 5.33652C13.1857 5.31622 13.2506 5.29592 13.3152 5.27575C13.5213 5.21131 13.7234 5.14816 13.9254 5.09051C14.0405 5.05604 14.1555 5.02243 14.2703 4.9889C14.5335 4.91203 14.7955 4.83553 15.0527 4.74989C15.1948 4.70258 15.2611 4.73096 15.3274 4.86343Z" fill="currentColor"/>
<path d="M3.85553 5.31752C4.22498 4.52272 4.71758 3.80362 5.32386 3.16968C6.55535 1.87341 8.04262 1.05023 9.76672 0.681217C9.87566 0.657562 9.98933 0.641004 10.103 0.624446C10.2167 0.607888 10.3304 0.59133 10.4393 0.567675C10.7338 0.505288 10.9778 0.619195 11.2268 0.735431C11.2422 0.742596 11.2575 0.74977 11.2729 0.756912C12.7507 1.4287 13.9349 2.43166 14.7495 3.84147C14.7606 3.85801 14.7684 3.87775 14.7768 3.89884C14.7827 3.91395 14.789 3.92975 14.7969 3.94555C12.0497 4.66465 9.58673 5.97039 7.23741 7.55051C6.42273 7.16258 4.28182 5.75276 3.85553 5.31752Z" fill="currentColor"/>
</svg>
