<svg width="18" height="18" viewBox="0 0 18 18" fill="none" xmlns="http://www.w3.org/2000/svg">
<path fill-rule="evenodd" clip-rule="evenodd" d="M4.02926 0V7.09613C4.02926 9.92816 6.25814 12.2322 8.99787 12.2322C11.7376 12.2322 13.9665 9.92819 13.9665 7.09613V0H4.02926ZM11.7133 5.52283L10.8613 6.38135C10.7531 6.49031 10.7038 6.64734 10.7293 6.80121L10.9305 8.01343C10.9948 8.40093 10.6013 8.69646 10.2647 8.51349L9.21147 7.94113C9.0778 7.86846 8.91809 7.86846 8.78438 7.94113L7.73119 8.51349C7.39453 8.69642 7.00104 8.40093 7.06537 8.01343L7.26652 6.80121C7.29204 6.64734 7.24269 6.49031 7.13457 6.38135L6.28253 5.52283C6.01017 5.24837 6.16046 4.77022 6.53687 4.71372L7.71435 4.53685C7.86384 4.5144 7.99301 4.41735 8.05986 4.27733L8.58642 3.17436C8.75475 2.82178 9.24114 2.82178 9.40947 3.17436L9.93603 4.27733C10.0028 4.41735 10.1321 4.51436 10.2815 4.53685L11.459 4.71372C11.8354 4.7703 11.9857 5.24844 11.7133 5.52283Z" fill="#67707B"/>
<path d="M2.39428 6.65486L3.17778 7.16429C3.18429 7.7676 3.27673 8.34995 3.44365 8.89858L1.71356 7.77378C0.82943 7.19899 0.223361 6.25872 0.0507458 5.1939C-0.283167 3.13436 1.06612 1.17792 3.05852 0.832829L3.07012 0.830794C3.10604 0.824545 3.14169 0.822292 3.17694 0.822292V2.15503C1.93109 2.42346 1.09972 3.66718 1.31181 4.97543C1.42422 5.66856 1.81879 6.2807 2.39428 6.65486Z" fill="#67707B"/>
<path d="M14.9299 0.830758L14.9419 0.832865C16.9339 1.17799 18.2831 3.13436 17.9493 5.19394C17.7766 6.25872 17.1705 7.19906 16.2865 7.77382L14.5564 8.89862C14.7233 8.34999 14.8158 7.76764 14.8222 7.16433L15.6057 6.65493C16.1813 6.2807 16.5758 5.6686 16.6882 4.97543C16.9003 3.66704 16.0687 2.42313 14.823 2.15503V0.822292C14.8583 0.822292 14.8939 0.824545 14.9299 0.830758Z" fill="#67707B"/>
<path d="M10.5321 14.961C10.6221 14.961 10.711 14.966 10.7986 14.9753C12.0858 15.1131 13.0897 16.2378 13.0897 17.6049V18H4.89657V17.6049C4.89657 16.2378 5.90045 15.1131 7.18774 14.9753C7.27533 14.966 7.36425 14.961 7.45427 14.961H8.04023V13.1126H9.9461V14.961H10.5321Z" fill="#67707B"/>
</svg>
