<svg width="18" height="18" viewBox="0 0 18 18" fill="none" xmlns="http://www.w3.org/2000/svg">
<path d="M3.20189 17.025C2.30534 16.6847 1.6379 16.1084 1.19958 15.296C0.891572 14.7248 0.739504 14.0757 0.653793 13.3934C0.553705 12.5911 0.512232 11.7137 0.507255 10.8804C0.49509 8.85158 0.498223 7.40884 0.516656 6.55219C0.531033 5.86805 0.577851 5.20768 0.657111 4.57109C0.687709 4.32486 0.734896 4.06555 0.798672 3.79314C1.13599 2.35519 1.98941 1.39718 3.35894 0.919088C3.64759 0.818458 4.04112 0.733862 4.53953 0.6653C5.34964 0.554164 6.24269 0.516566 7.11418 0.509378C9.02931 0.493897 10.4809 0.497583 11.4688 0.520436C12.1545 0.535918 12.793 0.580336 13.3843 0.653689C13.939 0.722251 14.5279 0.84721 15.0421 1.07888C16.0279 1.52269 16.7022 2.27023 17.0649 3.32151C17.1855 3.67132 17.2758 4.07568 17.3359 4.5346C17.452 5.42811 17.4879 6.34761 17.4935 7.29199C17.506 9.22167 17.5005 10.6611 17.4769 11.6103C17.4618 12.2299 17.4144 12.8501 17.3348 13.4708C17.2798 13.9017 17.1923 14.2976 17.0721 14.6585C16.8023 15.4696 16.2985 16.1574 15.5907 16.6241C15.3245 16.7996 15.006 16.9529 14.6352 17.0841C14.3845 17.1726 14.0127 17.2535 13.5198 17.3269C12.7136 17.4474 11.768 17.4861 10.8832 17.4922C8.89954 17.5062 7.39748 17.5014 6.37706 17.4778C5.79276 17.4645 5.20863 17.4212 4.62469 17.3479C4.12812 17.2859 3.63487 17.1892 3.20189 17.025ZM9.82596 10.2766C9.82374 10.0234 9.99959 9.72869 10.15 9.52964C10.3763 9.2307 10.6029 8.9336 10.8296 8.63834C11.241 8.10256 11.4932 7.60328 11.4849 6.89389C11.4655 5.3402 10.0267 4.16415 8.4861 4.49866C8.12188 4.57755 7.81277 4.71061 7.55877 4.89787C7.26016 5.11793 7.02939 5.36766 6.86644 5.64707C6.63493 6.04332 6.51752 6.47349 6.5142 6.93757C6.51199 7.23983 6.63585 7.47869 6.8858 7.65415C6.9669 7.71128 7.05298 7.74778 7.14404 7.76363C7.5466 7.83403 7.8524 7.70336 8.06142 7.37161C8.20243 7.14768 8.12446 6.8574 8.23948 6.60803C8.3191 6.43442 8.47781 6.24422 8.66361 6.17234C8.9976 6.04296 9.29215 6.08811 9.54726 6.3078C9.8525 6.57044 9.91111 7.03433 9.68274 7.37437C9.39574 7.80067 9.05511 8.18716 8.76812 8.59189C8.44574 9.04639 8.19966 9.57885 8.17035 10.1655C8.15487 10.4784 8.28132 10.7352 8.54969 10.9357C8.81125 11.1309 9.21769 11.1148 9.47039 10.9213C9.66504 10.7731 9.82817 10.5277 9.82596 10.2766ZM9.82817 12.7332C9.82817 12.5136 9.7409 12.3029 9.58555 12.1476C9.4302 11.9922 9.21951 11.905 8.99981 11.905C8.78012 11.905 8.56943 11.9922 8.41408 12.1476C8.25873 12.3029 8.17146 12.5136 8.17146 12.7332C8.17146 12.9529 8.25873 13.1636 8.41408 13.3189C8.56943 13.4742 8.78012 13.5615 8.99981 13.5615C9.21951 13.5615 9.4302 13.4742 9.58555 13.3189C9.7409 13.1636 9.82817 12.9529 9.82817 12.7332Z" fill="#67707B"/>
</svg>
