<svg width="18" height="18" viewBox="0 0 18 18" fill="none" xmlns="http://www.w3.org/2000/svg">
<path d="M9.03336 2.77499C9.29968 2.47258 9.55256 2.23387 9.79199 2.05887C10.0519 1.86846 10.3929 1.67736 10.815 1.48555C11.6921 1.08514 12.6876 0.951436 13.58 1.01514C14.4667 1.07884 15.3777 1.47085 16.0953 2.08617C17.1175 2.96213 17.7319 4.11062 17.9384 5.53166C18.0097 6.02074 18.0191 6.47412 17.9666 6.8918C17.9034 7.39535 17.7999 7.84733 17.6561 8.24774C17.4457 8.83202 17.2492 9.27467 17.0665 9.57568C16.8219 9.97819 16.5838 10.3688 16.3155 10.7545C15.5665 11.8316 14.5988 12.9411 13.4123 14.0831C12.6411 14.8251 11.739 15.6133 10.7062 16.4478C10.1001 16.9369 9.53954 17.3559 9.0244 17.705C9.00605 17.7176 8.98812 17.7174 8.97062 17.7043C8.6932 17.5041 8.41899 17.3088 8.14797 17.1184C7.66314 16.7777 6.87378 16.1311 5.7799 15.1786C4.79486 14.3209 3.83287 13.3637 2.89392 12.3072C2.16922 11.4909 1.51388 10.5783 0.927887 9.56938C0.797715 9.34491 0.652391 9.0404 0.491917 8.65585C0.171821 7.8891 0.00793141 7.10578 0.000249101 6.30589C-0.00401885 5.84387 0.0465565 5.39259 0.151975 4.95205C0.435367 3.76995 1.03331 2.80112 1.94579 2.04557C2.80322 1.33481 3.78378 0.986437 4.88748 1.00044C6.0953 1.01584 7.19323 1.36561 8.18126 2.04977C8.38997 2.19444 8.64412 2.43618 8.94373 2.77499C8.97361 2.80905 9.00348 2.80905 9.03336 2.77499Z" fill="#67707B"/>
</svg>
