<svg width="18" height="18" viewBox="0 0 18 18" fill="none" xmlns="http://www.w3.org/2000/svg">
<g id="cp_mr_icon">
<g id="Vector">
<path d="M7.69949 14.4753C7.10677 14.4753 6.58296 14.3733 6.12809 14.1693C5.67596 13.9653 5.32171 13.6841 5.06533 13.3257C4.80894 12.9673 4.68212 12.5593 4.68488 12.1017C4.68212 11.7433 4.75518 11.4138 4.90405 11.1133C5.05568 10.8101 5.26106 10.5578 5.5202 10.3566C5.77935 10.1526 6.06881 10.023 6.38861 9.96786V9.91824C5.96681 9.81623 5.6291 9.59017 5.37547 9.24005C5.12184 8.88994 4.9964 8.48744 4.99916 8.03256C4.9964 7.59973 5.11081 7.21378 5.34239 6.87469C5.57672 6.53284 5.89789 6.26405 6.3059 6.06831C6.71391 5.87257 7.17844 5.77471 7.69949 5.77471C8.21501 5.77471 8.67541 5.87395 9.08066 6.07245C9.48867 6.26818 9.80985 6.53697 10.0442 6.87882C10.2785 7.21791 10.3971 7.60249 10.3998 8.03256C10.3971 8.48744 10.2675 8.88994 10.0111 9.24005C9.75471 9.59017 9.42113 9.81623 9.01036 9.91824V9.96786C9.3274 10.023 9.61273 10.1526 9.86636 10.3566C10.1227 10.5578 10.3268 10.8101 10.4784 11.1133C10.6328 11.4138 10.7113 11.7433 10.7141 12.1017C10.7113 12.5593 10.5818 12.9673 10.3254 13.3257C10.069 13.6841 9.71336 13.9653 9.25848 14.1693C8.80636 14.3733 8.28669 14.4753 7.69949 14.4753ZM7.69949 13.4291C8.0496 13.4291 8.35286 13.3712 8.60924 13.2554C8.86563 13.1368 9.06412 12.9728 9.20472 12.7633C9.34532 12.551 9.417 12.3029 9.41975 12.0189C9.417 11.724 9.3398 11.4634 9.18818 11.2374C9.03931 11.0113 8.83668 10.8335 8.5803 10.7039C8.32391 10.5744 8.03031 10.5096 7.69949 10.5096C7.36591 10.5096 7.06955 10.5744 6.8104 10.7039C6.55126 10.8335 6.34726 11.0113 6.19839 11.2374C6.04952 11.4634 5.97646 11.724 5.97922 12.0189C5.97646 12.3029 6.044 12.551 6.18185 12.7633C6.32244 12.9728 6.52232 13.1368 6.78146 13.2554C7.0406 13.3712 7.34661 13.4291 7.69949 13.4291ZM7.69949 9.48817C7.98068 9.48817 8.23018 9.43165 8.44797 9.31862C8.66576 9.20559 8.83668 9.04845 8.96074 8.84721C9.08755 8.64596 9.15234 8.41025 9.1551 8.14008C9.15234 7.87542 9.08893 7.64384 8.96487 7.44535C8.84357 7.24686 8.67403 7.09386 8.45624 6.98634C8.23845 6.87606 7.9862 6.82093 7.69949 6.82093C7.40726 6.82093 7.15087 6.87606 6.93033 6.98634C6.71254 7.09386 6.54299 7.24686 6.42169 7.44535C6.30039 7.64384 6.24112 7.87542 6.24387 8.14008C6.24112 8.41025 6.30177 8.64596 6.42583 8.84721C6.54988 9.04845 6.72081 9.20559 6.9386 9.31862C7.15914 9.43165 7.41277 9.48817 7.69949 9.48817Z" fill="#67707B"/>
<path fill-rule="evenodd" clip-rule="evenodd" d="M9 18C13.9706 18 18 13.9706 18 9C18 4.02944 13.9706 0 9 0C4.02944 0 0 4.02944 0 9C0 13.9706 4.02944 18 9 18ZM15.6049 5.30694C15.2364 5.80719 13.9914 5.51569 12.8242 4.65586C11.6569 3.79603 11.0094 2.69347 11.3779 2.19322C11.7464 1.69298 12.9914 1.98447 14.1586 2.8443C15.3259 3.70413 15.9734 4.80669 15.6049 5.30694ZM14.0744 10.125C14.0744 13.6458 11.2203 16.5 7.69945 16.5C4.17863 16.5 1.32445 13.6458 1.32445 10.125C1.32445 6.60421 4.17863 3.75003 7.69945 3.75003C11.2203 3.75003 14.0744 6.60421 14.0744 10.125Z" fill="#67707B"/>
</g>
</g>
</svg>
