<svg width="18" height="18" viewBox="0 0 18 18" fill="none" xmlns="http://www.w3.org/2000/svg">
<g id="ty_mr_icon">
<g id="ty_mr_icon_2">
<path d="M10.3285 1.4648C10.4058 1.00933 10.5818 0.560353 10.8851 0.206255C10.8861 0.20515 10.8867 0.203818 10.887 0.202397C10.8873 0.200975 10.8872 0.199514 10.8867 0.198163C10.8866 0.197752 10.8864 0.197355 10.8862 0.196976L10.8859 0.196524C10.8857 0.196213 10.8855 0.195916 10.8853 0.195636C10.885 0.195303 10.8847 0.194994 10.8844 0.194711C10.8833 0.193801 10.882 0.193205 10.8806 0.192983C9.61081 -0.0684958 8.34214 -0.0642603 7.07459 0.20569C7.07339 0.205951 7.07227 0.206499 7.07132 0.207288C7.07073 0.207775 7.07023 0.208345 7.06982 0.208978C7.06956 0.20937 7.06934 0.209787 7.06916 0.210222C7.06869 0.21136 7.0685 0.212595 7.06861 0.213823C7.06872 0.215049 7.06913 0.216232 7.0698 0.217267C7.69464 1.17621 8.2591 2.16951 8.76318 3.19717C8.76522 3.20125 8.76851 3.20457 8.77257 3.20666C8.77453 3.20766 8.77662 3.20835 8.77876 3.20871C8.77966 3.20887 8.78057 3.20896 8.78148 3.209C8.7829 3.20906 8.78434 3.20897 8.78576 3.20875C9.30206 3.12497 9.82129 3.0685 10.3434 3.03932C10.3488 3.03902 10.3539 3.03741 10.3585 3.03462C10.3631 3.03184 10.3669 3.02797 10.3696 3.02336C10.3723 3.01875 10.3738 3.01354 10.374 3.0082C10.3742 3.00285 10.3731 2.99754 10.3708 2.99273C10.3559 2.96186 10.3456 2.92778 10.3398 2.89051C10.2661 2.41019 10.2407 1.98098 10.3285 1.4648Z" fill="#67707B"/>
<path d="M2.82138 2.51693C3.52362 2.33508 4.36495 2.29526 5.04546 2.58385C5.62243 2.82867 6.04564 3.2672 6.33313 3.81811C6.33765 3.82658 6.34442 3.82931 6.35345 3.8263C6.95807 3.62468 7.55564 3.44905 8.18311 3.31802C8.21696 3.31087 8.22496 3.29252 8.20709 3.26296C8.19867 3.2491 8.1889 3.23502 8.17894 3.22067C8.16355 3.19848 8.1477 3.17565 8.13571 3.15199C7.64743 2.19267 7.11127 1.26714 6.52725 0.375397C6.51427 0.355443 6.4964 0.348854 6.47364 0.355631C5.18033 0.748508 4.03551 1.38752 3.03919 2.27267C2.95454 2.34797 2.87499 2.41546 2.8005 2.47514C2.74276 2.52163 2.74971 2.53556 2.82138 2.51693Z" fill="#67707B"/>
<path d="M11.5575 0.36495C13.4537 0.928005 15.1062 2.10042 16.2756 3.69556C16.317 3.75185 16.3053 3.7671 16.2404 3.74131C16.1689 3.71307 16.0914 3.687 16.0079 3.66309C14.8071 3.32028 13.5711 3.12008 12.3254 3.03932C11.8774 3.01024 11.4235 3.0108 10.9692 3.01786C10.9519 3.01818 10.9351 3.01215 10.9219 3.00092C10.9087 2.98969 10.9 2.97403 10.8975 2.95687C10.8911 2.91301 10.8842 2.86864 10.8772 2.82401C10.8547 2.68044 10.8319 2.53432 10.8248 2.39494C10.8059 2.0256 10.8217 1.69606 10.9119 1.33745C10.9983 0.996057 11.1932 0.571083 11.4652 0.369185C11.4853 0.354125 11.5161 0.352713 11.5575 0.36495Z" fill="#67707B"/>
<path d="M1.97102 3.39088C1.36198 4.16421 0.893161 4.99703 0.564564 5.88933C0.301989 6.60242 0.13487 7.33754 0.0632058 8.09468C0.0323608 8.42167 0.011297 8.75318 7.36155e-06 9.0892C-6.84076e-05 9.09166 0.000441312 9.0941 0.00150897 9.09631C0.00256974 9.09852 0.004154 9.10045 0.006124 9.10192C0.00808711 9.10339 0.0103809 9.10436 0.0128055 9.10475C0.0152301 9.10514 0.0177098 9.10494 0.020038 9.10417C0.0458064 9.09532 0.065837 9.07603 0.0801367 9.04628C0.357473 8.47588 0.753594 7.93344 1.15564 7.4455C1.34439 7.21678 1.53652 6.98579 1.7391 6.77768C2.7089 5.78146 3.82099 4.97839 5.07537 4.36846C5.31519 4.25193 5.55961 4.14039 5.80865 4.03385C5.82802 4.02556 5.83225 4.01239 5.82134 3.99431C5.52566 3.49846 5.12362 3.12319 4.56047 2.98934C3.75497 2.79789 2.97006 3.01984 2.18544 3.24263C2.07569 3.27398 2.03788 3.30588 1.97102 3.39088Z" fill="#67707B"/>
<path d="M17.3921 11.1929C17.0037 10.3452 16.5019 9.5714 15.8869 8.87149C15.3399 8.24924 14.7067 7.7007 14.0735 7.15216C12.8841 6.12179 11.6947 5.09141 11.077 3.57244C11.0759 3.56984 11.0755 3.56702 11.0758 3.56422C11.0759 3.563 11.0762 3.5618 11.0766 3.56065C11.077 3.55915 11.0777 3.55772 11.0786 3.55639C11.0802 3.55406 11.0823 3.55213 11.0848 3.5508C11.0872 3.54946 11.09 3.54875 11.0928 3.54872C12.7475 3.53376 14.3842 3.75203 15.9718 4.21569C16.247 4.29627 16.4897 4.37467 16.7 4.45091C16.7523 4.46993 16.7934 4.50551 16.8233 4.55765C17.4158 5.59528 17.7852 6.70831 17.9315 7.89673C18.0635 8.96863 18.0047 10.0294 17.7549 11.0791C17.7105 11.2651 17.6701 11.4354 17.6336 11.5899C17.6117 11.682 17.5854 11.6832 17.5546 11.5936C17.5126 11.4714 17.4585 11.3378 17.3921 11.1929Z" fill="#67707B"/>
<path d="M11.9257 17.5212C14.3622 16.6583 16.2618 14.8844 17.2956 12.5141C17.2993 12.5051 17.3029 12.4954 17.3063 12.485C17.3089 12.4769 17.3085 12.469 17.3052 12.4613C17.3018 12.4532 17.2986 12.445 17.2956 12.4367C17.2927 12.4288 17.29 12.4208 17.2874 12.4128C16.9562 11.3785 16.4518 10.4378 15.7743 9.5907C15.5958 9.36743 15.4812 9.22832 15.4306 9.17335C14.806 8.49311 14.2096 7.97439 13.4689 7.3365C12.2961 6.32645 11.1326 5.22773 10.5689 3.72916C10.5534 3.68812 10.5415 3.65029 10.533 3.61565C10.53 3.60376 10.5232 3.59322 10.5136 3.58574C10.5039 3.57826 10.4921 3.57427 10.48 3.57442C10.2742 3.57769 10.0744 3.59664 9.87264 3.61576L9.87233 3.61579C9.81301 3.62141 9.75352 3.62705 9.69367 3.63231C9.59643 3.64076 9.49179 3.65412 9.38514 3.66773C9.27455 3.68185 9.16181 3.69624 9.05294 3.70573C9.04743 3.70625 9.04214 3.70811 9.03751 3.71113C9.03529 3.71259 9.03325 3.71429 9.03144 3.7162C9.02947 3.71827 9.02776 3.72059 9.02636 3.7231C9.02541 3.72481 9.02462 3.72659 9.02397 3.72842C9.0228 3.73177 9.02215 3.7353 9.02206 3.73888C9.02199 3.74148 9.02222 3.74407 9.02274 3.7466C9.02333 3.74945 9.02428 3.75223 9.02557 3.75486C9.04382 3.79138 9.06074 3.82658 9.07636 3.86047C10.409 6.73052 11.2729 9.73716 11.6681 12.8804C11.7552 13.572 11.8099 14.1084 11.8323 14.4896C11.8384 14.594 11.8449 14.6985 11.8515 14.8031C11.8742 15.1627 11.8968 15.5233 11.9005 15.8803C11.9058 16.4213 11.9055 16.9621 11.8997 17.5026C11.8997 17.5057 11.9004 17.5088 11.9018 17.5116C11.9024 17.5128 11.9031 17.514 11.904 17.515C11.9042 17.5153 11.9045 17.5156 11.9047 17.5159C11.9056 17.5169 11.9067 17.5178 11.9078 17.5187C11.9084 17.5191 11.9091 17.5195 11.9097 17.5199C11.9104 17.5202 11.911 17.5205 11.9117 17.5208C11.9132 17.5214 11.9148 17.5219 11.9164 17.5221C11.9195 17.5226 11.9227 17.5222 11.9257 17.5212Z" fill="#67707B"/>
<path d="M5.47855 12.4706C5.68272 11.6873 5.96988 10.936 6.25783 10.1826L6.2583 10.1813C6.31635 10.0294 6.37444 9.87745 6.43188 9.72511C6.64029 9.17222 6.80158 8.63552 6.91575 8.11501C7.19874 6.82399 7.04497 5.5358 6.57916 4.34192C6.57887 4.34117 6.57865 4.34041 6.5785 4.33963C6.57829 4.33857 6.5782 4.33748 6.57823 4.3364C6.5783 4.33451 6.57874 4.33266 6.57953 4.33095C6.58002 4.32987 6.58066 4.32885 6.58141 4.32793C6.58184 4.3274 6.58232 4.3269 6.58283 4.32644C6.58422 4.32517 6.58585 4.32419 6.58762 4.32356C7.08945 4.14529 7.60143 4.0009 8.12358 3.8904C8.22741 3.86837 8.32568 3.84418 8.41841 3.81783C8.4305 3.81443 8.44339 3.81543 8.45481 3.82065C8.46622 3.82587 8.47543 3.83498 8.48076 3.84635C10.1429 7.38187 11.0905 11.0968 11.3236 14.9911C11.3418 15.2979 11.3496 15.6202 11.3573 15.9413L11.3573 15.9426C11.3604 16.0682 11.3634 16.1937 11.367 16.318C11.3766 16.6407 11.3702 17.0915 11.3478 17.6706C11.3475 17.6798 11.3429 17.6861 11.3343 17.6895C11.2895 17.7068 11.2442 17.7212 11.1983 17.7327C9.34608 18.1935 7.37507 18.0566 5.60748 17.3368C5.60426 17.3355 5.60141 17.3338 5.59892 17.3318C5.5943 17.3281 5.59094 17.3232 5.58886 17.317C5.57306 17.2719 5.55491 17.2047 5.53441 17.1154C5.43322 16.6777 5.35995 16.2684 5.31462 15.8874C5.25791 15.4124 5.22518 14.9135 5.24127 14.2699C5.2565 13.6662 5.33465 13.0238 5.47855 12.4706Z" fill="#67707B"/>
<path d="M5.65925 10.2342C5.89962 9.60988 6.13989 8.9858 6.31254 8.33526C6.60258 7.24134 6.58349 6.15363 6.25527 5.07214C6.19997 4.88954 6.14081 4.71202 6.07781 4.53958C6.07668 4.53652 6.07495 4.53373 6.07273 4.53135C6.07172 4.53028 6.07062 4.5293 6.06944 4.52843C6.06802 4.52738 6.06647 4.52648 6.06485 4.52576C6.06321 4.52503 6.06149 4.52449 6.05974 4.52414C6.05832 4.52386 6.05687 4.52371 6.05542 4.52369C6.05217 4.52363 6.04894 4.52424 6.04592 4.52546C4.55708 5.13398 3.20988 6.02374 2.10898 7.18628C2.02114 7.2789 1.93312 7.37142 1.8449 7.46385C1.77494 7.53694 1.71083 7.61604 1.64656 7.69534C1.62169 7.72603 1.59679 7.75676 1.57152 7.78717C1.09188 8.36435 0.680525 9.00675 0.34422 9.67767C0.337876 9.69032 0.330816 9.70424 0.323218 9.71922C0.238543 9.88615 0.0867838 10.1853 0.11061 10.3387C0.520555 13.0035 2.06215 15.3082 4.35282 16.7009C4.53715 16.8131 4.72721 16.922 4.92301 17.0276C4.92775 17.0301 4.93313 17.0312 4.93847 17.0308C4.94382 17.0303 4.94891 17.0283 4.95313 17.0249C4.95735 17.0216 4.96051 17.0171 4.96223 17.012C4.96394 17.0069 4.96414 17.0015 4.9628 16.9963C4.95786 16.9781 4.95207 16.9599 4.94627 16.9417C4.93682 16.9121 4.92737 16.8824 4.92161 16.8528C4.80988 16.2867 4.73794 15.7155 4.70577 15.1391C4.63834 13.9294 4.79408 12.7476 5.16368 11.5975C5.31194 11.1363 5.48562 10.6852 5.65925 10.2342Z" fill="#67707B"/>
</g>
</g>
</svg>
