<svg width="18" height="18" viewBox="0 0 18 18" fill="none" xmlns="http://www.w3.org/2000/svg">
<path fill-rule="evenodd" clip-rule="evenodd" d="M5.30924 17.4688H5.42904C5.88427 17.3767 6.19575 17.0892 6.5192 16.7902C7.25694 16.138 8.01041 15.5008 8.76049 14.8664C8.93611 14.7179 9.11154 14.5696 9.28655 14.4212C9.34645 14.3637 9.47822 14.3522 9.58604 14.3522C10.188 14.3522 10.6612 14.3537 11.098 14.3551C11.8782 14.3575 12.5424 14.3596 13.6176 14.3522C14.2884 14.3522 14.9593 14.2717 15.5823 13.9957C16.6605 13.5242 17.2475 12.6847 17.4152 11.5807C17.4897 11.1207 17.4885 10.6516 17.4874 10.1815C17.4872 10.1227 17.4871 10.0639 17.4871 10.0051C17.4871 9.43661 17.4903 8.86705 17.4935 8.29675C17.5011 6.96366 17.5086 5.62661 17.4751 4.28957C17.4391 2.95555 16.8282 1.89754 15.5104 1.35703C15.0432 1.17303 14.5041 1.03502 14.0009 1.03502C10.3231 1.00052 7.65729 0.977523 3.97948 1.03502C2.20646 1.05802 1.02046 1.93204 0.577203 3.65706C0.517304 3.89856 0.505324 4.15157 0.505324 4.39307C0.505324 5.12141 0.503993 5.84976 0.502662 6.5781C0.5 8.03479 0.497338 9.49147 0.505324 10.9482C0.517304 11.6497 0.697002 12.3167 1.09234 12.9147C1.58351 13.6507 2.3023 14.0647 3.18881 14.2487C3.4781 14.3087 3.77759 14.3345 4.0873 14.3611C4.25212 14.3753 4.41984 14.3897 4.59045 14.4097V15.3527V16.4682C4.59045 17.1007 4.71025 17.2732 5.30924 17.4688ZM8.2396 8.29557C8.25158 8.65207 8.57503 8.89357 8.97037 8.88207C9.3657 8.88207 9.64124 8.64057 9.65322 8.28407C9.70113 6.93875 9.73707 5.59343 9.773 4.24811L9.77301 4.24779L9.77302 4.24751C9.785 3.799 9.4256 3.5 8.95839 3.5C8.44325 3.5 8.10782 3.799 8.10782 4.25901C8.11965 4.98603 8.14756 5.67926 8.17546 6.37204C8.20095 7.00511 8.22642 7.6378 8.2396 8.29557ZM9.90479 10.6876C9.97667 10.1931 9.4256 9.82509 8.98235 9.81359C8.44325 9.81359 8 10.1931 8 10.6761C8 11.2051 8.38335 11.5271 8.99433 11.5271C9.53342 11.5271 9.90479 11.1821 9.90479 10.6876Z" fill="#67707B"/>
</svg>
