<svg width="18" height="18" viewBox="0 0 18 18" fill="none" xmlns="http://www.w3.org/2000/svg">
<path d="M16.1105 11.8815C15.7032 11.9725 15.3535 12.2354 15.1027 12.5755C14.7748 13.0193 14.64 13.7253 14.8862 14.2675C15.1284 14.8012 15.0553 15.4156 14.6754 15.8559C14.5482 16.0033 14.329 16.1602 14.0178 16.3266C13.5489 16.5774 13.1165 16.8177 12.7204 17.0475C12.3018 17.2907 11.9815 17.4329 11.7594 17.4741C11.3774 17.5455 11.0112 17.4693 10.6608 17.2456C10.3848 17.0698 10.1614 16.8127 9.90492 16.6072C9.70115 16.4442 9.48672 16.3111 9.26162 16.2081C9.03005 16.102 8.80476 16.0995 8.58576 16.2006C8.3241 16.3213 8.04777 16.5003 7.75678 16.7377C7.5174 16.933 7.30716 17.1872 7.02664 17.3126C6.72423 17.4481 6.40924 17.4865 6.08169 17.4277C5.90763 17.3968 5.71091 17.318 5.49152 17.1912C4.94687 16.8759 4.4146 16.5789 3.8947 16.3003C3.64066 16.1644 3.45079 16.0258 3.3251 15.8846C2.95832 15.474 2.83377 14.8899 3.02802 14.362C3.08744 14.2002 3.12876 14.0496 3.152 13.9102C3.21789 13.5083 3.13657 13.1252 2.90804 12.761C2.55269 12.1941 2.02879 11.9428 1.37007 11.9193C1.09927 11.909 0.835891 11.8145 0.641644 11.6255C0.523953 11.5106 0.434067 11.3944 0.371984 11.2768C0.261149 11.0661 0.190306 10.8027 0.153742 10.5639C0.101943 10.228 0.0589039 9.88503 0.0246251 9.53498C-0.00660667 9.21853 -0.00813028 8.89462 0.0200545 8.56328C0.0691875 7.98686 0.139078 7.50473 0.229727 7.11689C0.351988 6.59124 0.743909 6.17324 1.3038 6.12915C1.50318 6.11312 1.70714 6.11656 1.90482 6.06101C2.66181 5.84743 3.18456 5.20498 3.22741 4.41765C3.2514 3.96358 2.96175 3.58165 2.92861 3.13445C2.91109 2.89472 2.95261 2.65766 3.05316 2.42328C3.17275 2.14309 3.36567 1.93256 3.6319 1.7917C4.26606 1.45616 4.89412 1.11718 5.51609 0.774762C5.78308 0.628176 5.99733 0.54305 6.15882 0.519382C6.83125 0.421467 7.2466 0.705477 7.71336 1.12462C7.9556 1.34221 8.24964 1.53155 8.59547 1.69264C8.83428 1.80411 9.0748 1.79895 9.31704 1.67718C9.6484 1.51036 9.91102 1.3403 10.1049 1.16699C10.3113 0.982234 10.4875 0.841565 10.6333 0.744987C10.9609 0.52778 11.3323 0.455632 11.7474 0.528543C11.9074 0.55641 12.0906 0.630085 12.297 0.749567C12.9415 1.12176 13.5895 1.48956 14.2412 1.85297C14.692 2.10491 15.033 2.58876 15.0267 3.11555C15.0222 3.51179 14.7714 3.85135 14.7799 4.24816C14.8039 5.30404 15.5855 6.03181 16.6304 6.03238C16.7809 6.03238 16.9359 6.06827 17.0955 6.14003C17.4914 6.31811 17.7399 6.78593 17.8119 7.19534C17.9479 7.97178 18.053 8.74422 17.9713 9.5138C17.9344 9.86308 17.8803 10.2431 17.809 10.6538C17.7034 11.2671 17.3223 11.8036 16.6573 11.8151C16.4779 11.8181 16.2956 11.8403 16.1105 11.8815ZM11.7925 8.99731C11.7925 8.2547 11.4982 7.54251 10.9743 7.0174C10.4504 6.49229 9.73976 6.19729 8.99882 6.19729C8.25788 6.19729 7.54728 6.49229 7.02336 7.0174C6.49943 7.54251 6.2051 8.2547 6.2051 8.99731C6.2051 9.73992 6.49943 10.4521 7.02336 10.9772C7.54728 11.5023 8.25788 11.7973 8.99882 11.7973C9.73976 11.7973 10.4504 11.5023 10.9743 10.9772C11.4982 10.4521 11.7925 9.73992 11.7925 8.99731Z" fill="white"/>
</svg>
