<svg width="18" height="18" viewBox="0 0 18 18" fill="none" xmlns="http://www.w3.org/2000/svg">
<g clip-path="url(#clip0_8391_73044)">
<path fill-rule="evenodd" clip-rule="evenodd" d="M9.48837 -0.0297852C9.54476 0.00181068 9.60104 0.033651 9.65728 0.0654719L9.6573 0.0654835C9.75737 0.122105 9.85734 0.178666 9.95769 0.233678C10.9587 0.783268 11.2608 2.14119 10.5158 3.00618C10.2048 3.36679 9.84498 3.68465 9.46842 4.01727C9.29377 4.17155 9.11552 4.329 8.93689 4.49536C8.7967 4.34775 8.64702 4.19937 8.49416 4.04783C8.14144 3.69816 7.77179 3.33171 7.46281 2.9193C6.78574 2.01465 7.19652 0.665229 8.22771 0.188351C8.34043 0.13613 8.4553 0.0882043 8.57028 0.0402285L8.5703 0.0402216C8.62581 0.0170606 8.68135 -0.00611203 8.73669 -0.0297852H9.48837ZM0 7.85901V7.29526C0.622302 6.09787 1.49107 5.96944 2.44388 6.93264C2.7222 7.21347 3.0001 7.49473 3.27814 7.77612L3.69793 8.20085C4.28812 8.79671 4.52326 8.79671 5.13989 8.21124C6.07133 7.32685 7.00375 6.44444 7.93822 5.56008L9.01818 4.53786C9.43391 4.93195 9.84734 5.32364 10.2591 5.71377C11.1409 6.54919 12.0151 7.37742 12.888 8.20652C13.5112 8.7986 13.7435 8.80049 14.3309 8.20652C14.4848 8.05118 14.6374 7.89466 14.7899 7.73818L14.7899 7.73815L14.79 7.73811L14.79 7.73808C15.129 7.39041 15.4678 7.04289 15.8201 6.70884C16.2988 6.25368 16.8465 6.18663 17.3687 6.47087C17.8683 6.74283 18.0826 7.26598 17.9712 7.91567C17.885 8.41939 17.801 8.92359 17.717 9.4279L17.7168 9.42887C17.6342 9.9245 17.5516 10.4202 17.4669 10.9158C17.34 11.6618 17.2155 12.6342 17.0888 13.6234L17.0888 13.6234V13.6234C16.9413 14.7753 16.7908 15.9499 16.6303 16.8161C16.4943 17.5507 16.041 17.9266 15.3347 17.9275C14.9426 17.9282 14.5506 17.9289 14.1585 17.9294C12.6524 17.6568 10.8872 17.5 9 17.5C7.11291 17.5 5.3479 17.6568 3.84187 17.9294C3.46369 17.9288 3.08551 17.9282 2.70734 17.9275C1.98589 17.9266 1.53262 17.5441 1.40419 16.8274C1.24028 15.9105 1.08326 14.7161 0.926977 13.5273L0.926976 13.5273L0.926974 13.5273L0.926973 13.5273C0.77713 12.3875 0.627963 11.2528 0.474045 10.3728C0.372551 9.79439 0.261196 9.21735 0.149862 8.64042C0.0996008 8.37997 0.0493436 8.11953 0 7.85901ZM9.00071 15.5144C8.81817 15.5145 8.6431 15.4419 8.51402 15.3129L5.33729 12.1361C5.06852 11.8674 5.06852 11.4316 5.33729 11.1628C5.60607 10.8941 6.04183 10.8941 6.31061 11.1628L9.00064 13.8529L11.6902 11.1629C11.9589 10.8941 12.3947 10.894 12.6635 11.1628C12.9323 11.4315 12.9323 11.8673 12.6636 12.1361L9.48738 15.3128C9.35831 15.4419 9.18325 15.5144 9.00071 15.5144Z" fill="#67707B"/>
</g>
<defs>
<clipPath id="clip0_8391_73044">
<rect width="18" height="18" fill="white"/>
</clipPath>
</defs>
</svg>
