<svg width="18" height="16" viewBox="0 0 18 16" fill="none" xmlns="http://www.w3.org/2000/svg">
<path fill-rule="evenodd" clip-rule="evenodd" d="M1.85027 2.49168C2.18856 1.82243 2.52684 1.15319 2.86463 0.483791C3.08171 0.0540244 3.38929 0 3.86485 0C7.3681 0.000404677 10.8711 0.00182103 14.374 0.00424909C14.859 0.00424909 15.0288 0.257982 15.2494 0.698675C16.6063 3.40475 17.4971 5.18472 17.9218 6.03859C18.0839 6.36455 17.9815 6.72694 17.7301 6.99524C15.079 9.81908 12.4337 12.6484 9.79402 15.4831C9.47935 15.8212 9.14929 16.163 8.6548 15.9153C8.50793 15.8416 8.3596 15.6817 8.22346 15.5349C8.20937 15.5197 8.19541 15.5046 8.1816 15.4898C5.67957 12.802 3.17773 10.1139 0.676093 7.42562C0.632581 7.37885 0.583703 7.32924 0.53271 7.27747C0.320294 7.06186 0.0711612 6.80898 0.0201233 6.56912C-0.0248305 6.35828 0.00553308 6.14785 0.111214 5.93782C0.689335 4.78845 1.26982 3.64004 1.85027 2.49168ZM8.97508 9.3234C8.98514 9.33502 8.99818 9.33875 9.01421 9.33461C9.02315 9.33253 9.03415 9.32403 9.04719 9.30909C10.1306 8.04753 11.2151 6.78659 12.3007 5.52627C12.3603 5.45741 12.4442 5.40638 12.5523 5.37319C13.3047 5.14295 13.8123 6.10188 13.2796 6.7254C12.0534 8.16037 10.8228 9.59057 9.58777 11.016C9.34254 11.2989 9.07104 11.3927 8.77327 11.2973C8.58283 11.2361 8.44927 11.0761 8.31093 10.9103C8.2917 10.8873 8.27239 10.8641 8.25282 10.8411C7.18918 9.59327 6.12312 8.34788 5.05463 7.10499C5.02135 7.06626 4.98585 7.0265 4.94957 6.98587C4.79757 6.81561 4.632 6.63016 4.55934 6.44227C4.46281 6.19294 4.48405 5.94942 4.62306 5.71171C4.83885 5.34374 5.14873 5.24418 5.55272 5.41302C5.65353 5.45529 5.83455 5.67004 5.95299 5.81053C5.97577 5.83755 5.99623 5.86182 6.01336 5.88159C7.00321 7.02534 7.99045 8.17261 8.97508 9.3234Z" fill="white"/>
</svg>
