<svg width="18" height="18" viewBox="0 0 18 18" fill="none" xmlns="http://www.w3.org/2000/svg">
<g clip-path="url(#clip0_12817_104139)">
<path d="M17.4424 7.58814V1.59492C17.4424 1.07627 17.039 0.672881 16.5203 0.672881H10.2966C9.77796 0.672881 9.31694 1.07627 9.31694 1.59492V7.58814C9.31694 8.10678 9.77796 8.51017 10.2966 8.51017H16.5203C17.039 8.51017 17.4424 8.10678 17.4424 7.58814ZM1.47965 9.4322C0.961007 9.4322 0.557617 9.89322 0.557617 10.3542V16.4051C0.557617 16.8661 0.961007 17.3271 1.47965 17.3271H7.76101C8.22202 17.3271 8.68304 16.8661 8.68304 16.4051V10.3542C8.68304 9.89322 8.22202 9.4322 7.76101 9.4322H1.47965ZM4.93728 5.3983H4.01524C4.01524 3.78475 5.3983 2.45932 6.95423 2.45932H7.29999C7.58813 2.45932 7.76101 2.28644 7.76101 1.99831V0.90339C7.76101 0.672881 7.58813 0.5 7.29999 0.5H6.95423C4.24575 0.5 2.05592 2.68983 2.05592 5.3983H0.961007C0.788126 5.3983 0.730499 5.57119 0.730499 5.74407C0.730499 5.80169 0.730499 5.80169 0.788126 5.91695L2.68982 7.99153C2.8627 8.16441 3.09321 8.16441 3.26609 7.99153L5.11016 5.91695C5.22541 5.80169 5.22541 5.62881 5.11016 5.57119C5.05253 5.45593 5.05253 5.3983 4.93728 5.3983ZM13.0627 12.4864H13.9847C13.9847 14.1 12.6593 15.4254 11.0458 15.4254H10.7C10.4119 15.4254 10.2966 15.5983 10.2966 15.8864V17.039C10.2966 17.3271 10.4119 17.5 10.7 17.5H11.0458C13.7542 17.5 15.9441 15.2525 15.9441 12.6017H17.039C17.2119 12.6017 17.2695 12.4864 17.2695 12.3136C17.2695 12.2559 17.2695 12.2559 17.2119 12.1407L15.3102 10.0661C15.1949 9.89322 14.9068 9.89322 14.7339 10.0661L12.8898 12.1407C12.8322 12.2559 12.8322 12.4288 12.8898 12.4864C12.8898 12.4288 12.9474 12.4864 13.0627 12.4864Z" fill="#929AA5"/>
</g>
<defs>
<clipPath id="clip0_12817_104139">
<rect width="18" height="18" fill="white"/>
</clipPath>
</defs>
</svg>
