<svg width="18" height="18" viewBox="0 0 18 18" fill="none" xmlns="http://www.w3.org/2000/svg">
<path d="M8.64642 1.79864C9.28599 1.44956 9.87914 1.12131 10.4259 0.813898C10.8496 0.575794 11.2149 0.387609 11.5219 0.249344C11.6892 0.173926 11.8982 0.115208 12.0853 0.109282C12.3375 0.101382 12.5954 0.127598 12.8591 0.187932C13.0524 0.232465 13.2315 0.315783 13.3965 0.437888C13.5108 0.522643 13.6187 0.612425 13.7202 0.707236C13.8113 0.791632 13.8832 0.886083 13.9359 0.99059C14.2824 1.67797 14.6165 2.33877 14.9384 2.97299C14.9478 2.99095 14.9426 2.99993 14.9228 2.99993H6.47044L6.46801 2.99955L6.46654 2.9975L6.46691 2.99498L6.46888 2.99346C7.23769 2.56969 7.96353 2.17141 8.64642 1.79864Z" fill="#3C4155"/>
<path d="M11.7002 9.68122C11.5848 9.91106 11.537 10.1766 11.5567 10.478C11.5811 10.8518 11.6789 11.2483 11.8904 11.5413C12.0702 11.7902 12.2751 11.9644 12.5052 12.0639C12.7577 12.1732 13.1184 12.1985 13.4048 12.1985C14.7536 12.2 16.1082 12.2 17.4688 12.1985C17.4879 12.1985 17.4974 12.2086 17.4974 12.2287C17.497 13.3682 17.4967 14.5056 17.4963 15.6408C17.4963 15.817 17.4745 16.0319 17.4283 16.2027C17.254 16.8412 16.8783 17.2469 16.301 17.4196C16.1188 17.4745 15.8139 17.5013 15.3864 17.4999C11.1668 17.4873 6.94336 17.4862 2.71614 17.4966C2.27925 17.4977 1.95964 17.4688 1.7573 17.4099C1.26705 17.267 0.901358 16.9441 0.660219 16.4413C0.554547 16.2215 0.501884 15.9375 0.502231 15.5891C0.503963 12.5861 0.50327 9.52087 0.500152 6.39355C0.499805 6.01754 0.50016 4.2808 0.50016 4.2808C0.50016 4.2808 1.40257 4.82325 2.00016 4.82325C2.40257 4.82325 2.31805 4.82325 2.31805 4.82325C2.31805 4.82325 11.2191 4.82361 15.6545 4.82325C16.2293 4.82325 16.6861 4.46161 17.025 4.82325C17.21 5.02042 17.3439 5.27145 17.4267 5.57635C17.478 5.76454 17.5024 6.03389 17.5 6.3844C17.4948 7.21363 17.4943 7.97391 17.4984 8.66524C17.4984 8.67024 17.4965 8.67503 17.4931 8.67857C17.4897 8.68211 17.4851 8.68409 17.4802 8.68409C16.1145 8.68481 14.7298 8.68391 13.3263 8.6814C12.5769 8.67996 12.0348 9.01324 11.7002 9.68122Z" fill="#3C4155"/>
<path d="M13.2468 11.3151C13.7138 11.3151 14.0923 10.9227 14.0923 10.4386C14.0923 9.95457 13.7138 9.56217 13.2468 9.56217C12.7798 9.56217 12.4012 9.95457 12.4012 10.4386C12.4012 10.9227 12.7798 11.3151 13.2468 11.3151Z" fill="#3C4155"/>
<path d="M1 4.5C1 3.39543 1.89543 2.5 3 2.5H14.5C15.6046 2.5 16.5 3.39543 16.5 4.5C16.5 5.60457 15.6046 6.5 14.5 6.5H3C1.89543 6.5 1 5.60457 1 4.5Z" stroke="#3C4155"/>
</svg>
