<svg width="18" height="18" viewBox="0 0 18 18" fill="none" xmlns="http://www.w3.org/2000/svg">
<path fill-rule="evenodd" clip-rule="evenodd" d="M16.3725 16.2935C16.5469 16.8974 16.0937 17.5 15.4651 17.5L2.5322 17.5C1.90362 17.5 1.45045 16.8974 1.62483 16.2935L4.07938 7.79353C4.19609 7.38936 4.56606 7.11111 4.98675 7.11111L13.0106 7.11111C13.4313 7.11111 13.8012 7.38936 13.918 7.79353L16.3725 16.2935ZM8.41839 9.82834L8.41574 9.76953C8.40351 9.51116 8.39065 9.23933 8.68395 9.08143C8.87992 8.97555 9.08221 8.97292 9.2908 9.07356C9.4697 9.15969 9.56546 9.28471 9.57808 9.44863C9.58698 9.56903 9.58847 9.68957 9.58253 9.81028C9.58142 9.82911 9.59218 9.83976 9.61482 9.84223C9.68126 9.84964 9.74083 9.86322 9.79353 9.88298C10.4883 10.1426 10.8868 10.5837 10.9889 11.2064C11.0119 11.3462 10.9992 11.4669 10.951 11.5685C10.8886 11.6988 10.7745 11.7858 10.6086 11.8297C10.3261 11.9037 10.1005 11.8397 9.93161 11.6375C9.8639 11.5568 9.84572 11.4467 9.8292 11.3468L9.82415 11.3166C9.79854 11.165 9.73081 11.0425 9.62094 10.9489C9.3719 10.7368 9.09408 10.6785 8.78751 10.7739C8.61547 10.8271 8.43954 10.9614 8.35882 11.1027C8.20664 11.3709 8.26733 11.6191 8.54087 11.8472C8.71602 11.9933 8.93288 12.01 9.15819 12.0273C9.18927 12.0296 9.22051 12.032 9.25183 12.0348C9.37505 12.0456 9.49178 12.0672 9.60202 12.0996C10.1762 12.2694 10.5858 12.5752 10.8307 13.0169C10.9777 13.2824 11.0271 13.5766 10.9788 13.8995C10.8842 14.5279 10.3826 15.0261 9.66994 15.2521C9.64655 15.2595 9.63579 15.2735 9.63765 15.2942C9.66214 15.5836 9.63264 15.8235 9.26964 15.9596C9.1364 16.0096 9.00463 16.0132 8.87436 15.9703C8.49299 15.8443 8.45625 15.61 8.47184 15.3123C8.47214 15.3053 8.46962 15.2985 8.46467 15.2928C8.45972 15.2872 8.45263 15.2831 8.44455 15.2813C8.22371 15.2278 8.03517 15.1556 7.87891 15.0645C7.55377 14.8756 7.31029 14.6242 7.14847 14.3102C7.06273 14.1441 7.01336 13.9418 7.00037 13.7032C6.99703 13.6495 7.01652 13.5397 7.04547 13.4929C7.18967 13.2619 7.5109 13.1304 7.80709 13.248C8.02793 13.3353 8.14429 13.4673 8.15616 13.6439C8.17231 13.893 8.26974 14.1125 8.53196 14.2519C8.78695 14.3871 9.06365 14.4158 9.33923 14.3112C9.7284 14.1634 9.9266 13.7935 9.78017 13.4596C9.64154 13.1433 9.32866 13.0104 8.94172 12.9887C8.71049 12.9754 8.49633 12.9347 8.29925 12.8664C7.83437 12.7058 7.43797 12.3682 7.2587 11.9848C7.05456 11.5486 7.06421 11.1237 7.28765 10.71C7.47434 10.3646 7.79818 10.0929 8.25916 9.89502C8.29739 9.87865 8.33803 9.86831 8.38109 9.86399C8.4067 9.86152 8.41913 9.84964 8.41839 9.82834ZM15.5 9.44455C15.5 9.70535 15.7114 9.91677 15.9722 9.91677L16.0833 9.91677C16.8657 9.91677 17.5 9.28245 17.5 8.5001L17.5 4.75C17.5 4.4892 17.2886 4.27778 17.0278 4.27778L0.972222 4.27778C0.711421 4.27778 0.499999 4.4892 0.499999 4.75L0.499999 8.5001C0.499999 9.28245 1.13432 9.91677 1.91667 9.91677L2.02778 9.91677C2.28858 9.91677 2.5 9.70535 2.5 9.44455L2.5 7.58333C2.5 6.80099 3.13432 6.16667 3.91667 6.16667L14.0833 6.16667C14.8657 6.16667 15.5 6.80098 15.5 7.58333L15.5 9.44455ZM17.5 2.86111C17.5 3.12191 17.2886 3.33333 17.0278 3.33333L0.972222 3.33333C0.711421 3.33333 0.500001 3.12191 0.500001 2.86111C0.500001 1.55711 1.55711 0.500001 2.86111 0.500001L15.1389 0.5C16.4429 0.5 17.5 1.55711 17.5 2.86111Z" fill="#3C4155"/>
</svg>
