<svg width="18" height="18" viewBox="0 0 18 18" fill="none" xmlns="http://www.w3.org/2000/svg">
<path fill-rule="evenodd" clip-rule="evenodd" d="M0.305306 15.1011C-0.0489199 15.3938 -0.102762 15.9231 0.185046 16.2833C0.472855 16.6435 0.993326 16.6982 1.34755 16.4056L17.6947 2.89889C18.0489 2.60621 18.1028 2.07694 17.815 1.71672C17.5271 1.3565 17.0067 1.30175 16.6525 1.59443L14.3113 3.52879C12.824 2.44628 10.969 1.71672 8.95826 1.71672C4.13906 1.71672 0.221987 5.90974 0.184998 9.12437C0.243691 10.4337 1.06248 12.0278 2.38936 13.3792L0.305306 15.1011ZM3.66742 12.3232L5.92207 10.4603C5.59672 9.96256 5.40773 9.42761 5.38834 8.95815C5.33279 7.61116 6.89615 5.72508 8.95826 5.72508C9.67663 5.72508 10.3488 5.9644 10.9163 6.33387L13.0209 4.59497C11.905 3.87044 10.5615 3.39496 9.13876 3.39496C5.20098 3.39496 1.8335 6.64151 1.84412 9.07707C1.84881 10.0776 2.54244 11.2939 3.66742 12.3232ZM9.45727 7.53938C9.33069 7.50991 9.20069 7.49388 9.06936 7.49388C7.835 7.49388 6.94296 8.35357 6.94592 9.04634C6.94662 9.17878 7.00139 9.33108 7.10213 9.4853L9.45727 7.53938Z" fill="#67707B"/>
<path d="M8.95826 16.2833C7.42624 16.2833 5.99469 15.8515 4.75038 15.1698L6.23573 13.9425C7.13127 14.3059 8.11504 14.5254 9.13876 14.5254C12.8475 14.5254 16.0253 11.2887 16.0214 9.07707C16.0202 8.28797 15.6909 7.41807 15.121 6.60114L16.3847 5.55697C17.2595 6.71695 17.7806 7.98472 17.8149 9.12437C17.7779 12.0245 13.7878 16.2833 8.95826 16.2833Z" fill="#67707B"/>
<path d="M8.41001 12.146L12.6003 8.68387C12.6144 8.7771 12.6218 8.86876 12.6218 8.95815C12.6238 10.3108 10.9702 12.1912 8.95826 12.1912C8.77022 12.1912 8.58729 12.1755 8.41001 12.146Z" fill="#67707B"/>
</svg>
