<svg width="14" height="14" viewBox="0 0 14 14" fill="none" xmlns="http://www.w3.org/2000/svg">
<g clip-path="url(#clip0_4070_25800)">
<path fill-rule="evenodd" clip-rule="evenodd" d="M2.03715 11.9922C0.724391 10.6795 -0.0131073 8.899 -0.0131073 7.04248C-0.0131073 5.18597 0.724391 3.40549 2.03715 2.09273C3.3499 0.779978 5.13038 0.0424805 6.98689 0.0424805C8.84341 0.0424805 10.6239 0.779978 11.9366 2.09273C13.2494 3.40549 13.9869 5.18597 13.9869 7.04248C13.9869 8.899 13.2494 10.6795 11.9366 11.9922C10.6239 13.305 8.84341 14.0425 6.98689 14.0425C5.13038 14.0425 3.3499 13.305 2.03715 11.9922ZM5.30239 6.42183L5.91553 8.30884L4.24877 10.603L1.95474 10.6879C1.95474 10.6879 0.791796 9.48027 0.769432 6.99784L2.74705 5.59149L5.30239 6.42183ZM7.01817 4.8202L5.32261 6.05211L2.66923 5.18992L2.04419 3.10647C2.04419 3.10647 3.18477 1.56334 5.06336 1.0266L7.01817 2.38652V4.8202ZM9.07148 6.05211L7.37609 4.8202V2.27023L9.06647 1.0266C9.06647 1.0266 10.7885 1.51861 12.1527 3.28538L11.5762 5.23823L9.07148 6.05211ZM11.4774 5.6466L13.2933 6.95311C13.2933 6.95311 13.3828 9.18963 12.1527 10.6433H10.1747L8.47865 8.30874L9.09178 6.42174L11.4774 5.6466ZM6.23954 8.47156H8.15472L9.79715 10.7323L9.06647 12.9244C9.06647 12.9244 6.80768 13.7295 5.19746 12.9244L4.47652 10.8981L6.23954 8.47156Z" fill="#3BC116"/>
<circle cx="4.2" cy="4.2" r="3.9" transform="matrix(1 0 0 -1 5.60001 14)" fill="white" stroke="#3BC116" stroke-width="0.6"/>
<path d="M9.85 12.3701C8.45824 12.3701 7.33 11.2418 7.33 9.85008C7.33 8.45832 8.45824 7.33008 9.85 7.33008L9.85 12.3701Z" fill="#3BC116"/>
</g>
<defs>
<clipPath id="clip0_4070_25800">
<rect width="14" height="14" fill="white"/>
</clipPath>
</defs>
</svg>
