<svg width="14" height="14" viewBox="0 0 14 14" fill="none" xmlns="http://www.w3.org/2000/svg">
<g clip-path="url(#clip0_4070_25795)">
<path fill-rule="evenodd" clip-rule="evenodd" d="M2.03658 11.9927C0.723826 10.68 -0.0136719 8.89948 -0.0136719 7.04297C-0.0136719 5.18645 0.723826 3.40598 2.03658 2.09322C3.34934 0.780467 5.12981 0.0429688 6.98633 0.0429688C8.84284 0.0429688 10.6233 0.780467 11.9361 2.09322C13.2488 3.40598 13.9863 5.18645 13.9863 7.04297C13.9863 8.89948 13.2488 10.68 11.9361 11.9927C10.6233 13.3055 8.84284 14.043 6.98633 14.043C5.12981 14.043 3.34934 13.3055 2.03658 11.9927ZM5.30183 6.42232L5.91496 8.30932L4.2482 10.6034L1.95417 10.6884C1.95417 10.6884 0.791231 9.48076 0.768867 6.99833L2.74649 5.59198L5.30183 6.42232ZM7.01761 4.82068L5.32204 6.05259L2.66866 5.19041L2.04363 3.10696C2.04363 3.10696 3.1842 1.56383 5.0628 1.02709L7.01761 2.38701V4.82068ZM9.07091 6.05259L7.37553 4.82068V2.27072L9.0659 1.02709C9.0659 1.02709 10.7879 1.5191 12.1522 3.28587L11.5756 5.23872L9.07091 6.05259ZM11.4769 5.64709L13.2927 6.9536C13.2927 6.9536 13.3822 9.19011 12.1522 10.6438H10.1742L8.47808 8.30923L9.09122 6.42223L11.4769 5.64709ZM6.23898 8.47204H8.15416L9.79659 10.7328L9.0659 12.9248C9.0659 12.9248 6.80712 13.73 5.19689 12.9248L4.47596 10.8986L6.23898 8.47204Z" fill="#3BC116"/>
</g>
<defs>
<clipPath id="clip0_4070_25795">
<rect width="14" height="14" fill="white"/>
</clipPath>
</defs>
</svg>
