<svg width="14" height="14" viewBox="0 0 14 14" fill="none" xmlns="http://www.w3.org/2000/svg">
<rect x="1.27275" y="1.97266" width="1.27273" height="11.4545" rx="0.636364" fill="#67707B"/>
<rect x="13.3636" y="12.1548" width="1.27273" height="12.0909" rx="0.636364" transform="rotate(90 13.3636 12.1548)" fill="#67707B"/>
<rect width="1.27273" height="10.5892" rx="0.636364" transform="matrix(0.618459 0.785817 -0.86057 0.509333 10.1983 6.18018)" fill="#67707B"/>
<path d="M3.20895 2.32227L7.49466 5.13246L3.20895 6.66992L3.20895 2.32227Z" fill="#FF0000"/>
<path fill-rule="evenodd" clip-rule="evenodd" d="M5.27224 12.2788C5.45115 12.0002 5.45377 11.6484 5.26431 11.3611C5.07484 11.0737 4.72568 10.8998 4.36068 10.8962L4.04371 10.4155C4.69147 10.3141 5.37955 10.5805 5.73674 11.1222C6.09392 11.664 6.01334 12.319 5.58921 12.7595L5.27224 12.2788Z" fill="#67707B"/>
</svg>
