<svg width="18" height="18" viewBox="0 0 18 18" fill="none" xmlns="http://www.w3.org/2000/svg">
<path d="M7.9435 14.3156C6.29401 12.6137 4.64809 10.9155 3 9.21509C3.42584 8.8684 3.84767 8.52493 4.27098 8.18024C5.22483 8.93874 6.1765 9.6956 7.13105 10.4547C9.26469 7.9341 11.7009 5.7628 14.5021 4C14.5377 4.08193 14.5729 4.16098 14.6065 4.24073C14.6583 4.3635 14.7094 4.4866 14.7598 4.60998C14.7889 4.68119 14.7751 4.73735 14.7205 4.79142C14.4217 5.08779 14.1189 5.38032 13.8256 5.682C13.3631 6.15755 12.9236 6.65408 12.4979 7.1628C11.7637 8.04032 11.0717 8.94989 10.4278 9.89559C9.75478 10.8839 9.13036 11.9017 8.57803 12.9627C8.36254 13.3767 8.16509 13.7992 7.9897 14.2319C7.98212 14.2506 7.97349 14.2691 7.96425 14.287C7.95971 14.2958 7.95265 14.3033 7.94359 14.3157L7.9435 14.3156Z" fill="#3BC116"/>
<rect x="0.5" y="0.5" width="17" height="17" rx="2.5" stroke="#3BC116"/>
</svg>
