<svg width="28" height="28" viewBox="0 0 28 28" fill="none" xmlns="http://www.w3.org/2000/svg">
<path d="M4.21105 25.7875C4.03021 25.6067 3.88675 25.392 3.78888 25.1558C3.691 24.9195 3.64062 24.6663 3.64062 24.4106C3.64062 24.1548 3.691 23.9016 3.78888 23.6654C3.88675 23.4291 4.03021 23.2145 4.21105 23.0337L5.45056 21.7944C5.8168 21.4346 6.31032 21.2341 6.82373 21.2363C7.33713 21.2386 7.82885 21.4436 8.19186 21.8067C8.55488 22.1697 8.7598 22.6615 8.76204 23.1749C8.76427 23.6883 8.56364 24.1818 8.2038 24.548L6.96458 25.7872C6.78382 25.9681 6.56919 26.1115 6.33296 26.2094C6.09673 26.3073 5.84353 26.3577 5.58782 26.3577C5.33211 26.3577 5.0789 26.3073 4.84267 26.2094C4.60644 26.1115 4.39181 25.9681 4.21105 25.7872" fill="#C5312F"/>
<path d="M23.7794 25.7876C23.9603 25.6068 24.1037 25.3922 24.2016 25.1559C24.2995 24.9197 24.3499 24.6664 24.3499 24.4107C24.3499 24.155 24.2995 23.9018 24.2016 23.6655C24.1037 23.4293 23.9603 23.2146 23.7794 23.0338L22.5402 21.7946C22.3594 21.6138 22.1447 21.4704 21.9085 21.3725C21.6722 21.2747 21.419 21.2244 21.1633 21.2244C20.9076 21.2244 20.6544 21.2748 20.4182 21.3726C20.182 21.4705 19.9673 21.6139 19.7865 21.7947C19.6057 21.9756 19.4623 22.1902 19.3645 22.4265C19.2666 22.6627 19.2163 22.9159 19.2163 23.1716C19.2163 23.4273 19.2667 23.6805 19.3646 23.9167C19.4624 24.153 19.6059 24.3676 19.7867 24.5484L21.0259 25.7873C21.2067 25.9682 21.4213 26.1117 21.6575 26.2096C21.8937 26.3075 22.147 26.3579 22.4027 26.3579C22.6584 26.3579 22.9116 26.3075 23.1478 26.2096C23.384 26.1117 23.5987 25.9682 23.7794 25.7873" fill="#C5312F"/>
<path d="M4.74147 4.90298L5.69982 4.18364C5.84163 4.07715 6.00302 3.99964 6.17479 3.95553C6.34656 3.91142 6.52533 3.90157 6.7009 3.92655C6.87647 3.95153 7.0454 4.01085 7.19805 4.10113C7.35069 4.1914 7.48406 4.31085 7.59054 4.45267L9.35887 6.80871C9.46536 6.95052 9.54287 7.11192 9.58698 7.28368C9.6311 7.45545 9.64094 7.63422 9.61596 7.8098C9.59098 7.98537 9.53166 8.1543 9.44138 8.30694C9.35111 8.45959 9.23166 8.59296 9.08984 8.69944L8.13149 9.4182C7.84518 9.63323 7.48519 9.72575 7.13069 9.67541C6.77618 9.62507 6.45618 9.43599 6.24106 9.14974L4.47244 6.79341C4.36596 6.65163 4.28845 6.49026 4.24434 6.31851C4.20023 6.14677 4.19039 5.96802 4.21537 5.79247C4.24035 5.61692 4.29967 5.44802 4.38994 5.2954C4.48021 5.14278 4.59966 5.00943 4.74147 4.90298ZM22.8745 5.27391L21.9161 4.55457C21.7743 4.4481 21.6129 4.3706 21.4411 4.32651C21.2694 4.28242 21.0906 4.2726 20.915 4.29761C20.7394 4.32262 20.5705 4.38197 20.4179 4.47227C20.2652 4.56257 20.1319 4.68205 20.0254 4.82389L18.2571 7.17964C18.1506 7.32145 18.0731 7.48285 18.029 7.65461C17.9849 7.82638 17.975 8.00515 18 8.18072C18.025 8.3563 18.0843 8.52523 18.1746 8.67787C18.2649 8.83052 18.3843 8.96389 18.5261 9.07036L19.4845 9.7897C19.771 10.0046 20.131 10.0969 20.4856 10.0464C20.8401 9.99592 21.1601 9.80671 21.3752 9.52038L23.1435 7.16434C23.3585 6.87801 23.4509 6.51802 23.4005 6.16356C23.35 5.80909 23.1608 5.48918 22.8745 5.2742" fill="#755561"/>
<path d="M24.8218 15.1586C24.8218 21.1642 19.9533 26.0333 13.9471 26.0333C7.94158 26.0333 3.07275 21.1642 3.07275 15.1586C3.07275 9.15247 7.94158 4.28394 13.9471 4.28394C19.9533 4.28394 24.8218 9.15247 24.8218 15.1586Z" fill="#E7423F"/>
<path d="M21.6367 15.1588C21.6367 19.4056 18.1939 22.8482 13.9474 22.8482C9.70037 22.8482 6.25781 19.4056 6.25781 15.1588C6.25781 10.9118 9.70037 7.46924 13.9474 7.46924C18.1939 7.46924 21.6367 10.9118 21.6367 15.1588Z" fill="#F0E3CC"/>
<path d="M2.9761 7.78284C1.87255 6.31298 2.16958 4.22684 3.63944 3.12358L4.29874 2.62853C5.76831 1.52498 7.85445 1.82172 8.95771 3.29187C9.01386 3.36662 9.05473 3.4517 9.07799 3.54225C9.10126 3.63279 9.10646 3.72704 9.0933 3.8196C9.08014 3.91215 9.04887 4.00121 9.00129 4.08169C8.9537 4.16216 8.89074 4.23248 8.81598 4.28861L3.97284 7.92457C3.89811 7.98075 3.81303 8.02166 3.72247 8.04494C3.63192 8.06823 3.53767 8.07344 3.4451 8.06028C3.35253 8.04711 3.26346 8.01584 3.18299 7.96823C3.10251 7.92063 3.03221 7.85763 2.9761 7.78284Z" fill="#E7423F"/>
<path d="M24.9189 7.78284C26.0221 6.31298 25.7251 4.22684 24.2555 3.12358L23.596 2.62853C22.1264 1.52498 20.0402 1.82172 18.937 3.29187C18.8808 3.3666 18.8399 3.45168 18.8166 3.54224C18.7933 3.63279 18.7881 3.72704 18.8013 3.81961C18.8144 3.91218 18.8457 4.00125 18.8933 4.08172C18.9409 4.1622 19.0039 4.2325 19.0787 4.28861L23.9218 7.92457C23.9966 7.98076 24.0817 8.02167 24.1723 8.04496C24.2629 8.06825 24.3571 8.07346 24.4497 8.0603C24.5423 8.04714 24.6314 8.01586 24.7119 7.96825C24.7924 7.92064 24.8627 7.85764 24.9189 7.78284Z" fill="#E7423F"/>
<path d="M13.9783 9.46104C13.9357 9.46104 13.8934 9.45263 13.854 9.43629C13.8146 9.41995 13.7788 9.39601 13.7486 9.36582C13.7185 9.33563 13.6945 9.2998 13.6782 9.26037C13.6619 9.22093 13.6536 9.17868 13.6536 9.13601V8.87621C13.6536 8.79016 13.6878 8.70763 13.7486 8.64679C13.8095 8.58594 13.892 8.55176 13.9781 8.55176C14.0641 8.55176 14.1466 8.58594 14.2075 8.64679C14.2683 8.70763 14.3025 8.79016 14.3025 8.87621V9.13601C14.3025 9.31497 14.1573 9.46075 13.9783 9.46075M13.9783 21.7649C13.8922 21.7649 13.8096 21.7307 13.7487 21.6698C13.6878 21.6089 13.6536 21.5263 13.6536 21.4401V21.1806C13.6536 21.138 13.662 21.0958 13.6783 21.0565C13.6946 21.0171 13.7185 20.9813 13.7486 20.9512C13.7788 20.9211 13.8145 20.8972 13.8539 20.8809C13.8933 20.8646 13.9354 20.8562 13.9781 20.8562C14.0207 20.8562 14.0628 20.8646 14.1022 20.8809C14.1416 20.8972 14.1773 20.9211 14.2075 20.9512C14.2376 20.9813 14.2615 21.0171 14.2778 21.0565C14.2941 21.0958 14.3025 21.138 14.3025 21.1806V21.4404C14.3025 21.6194 14.1573 21.7649 13.9783 21.7649ZM19.6759 15.1586C19.6759 14.9793 19.8211 14.8339 20.0001 14.8339H20.2599C20.3435 14.8374 20.4226 14.8731 20.4806 14.9336C20.5386 14.994 20.5709 15.0746 20.5709 15.1583C20.5709 15.2421 20.5386 15.3226 20.4806 15.383C20.4226 15.4435 20.3435 15.4792 20.2599 15.4828H20.0001C19.8211 15.4828 19.6759 15.3376 19.6759 15.1586ZM7.37236 15.1586C7.37236 14.9793 7.51727 14.8339 7.69652 14.8339H7.95632C8.04 14.8374 8.11908 14.8731 8.17705 14.9336C8.23501 14.994 8.26737 15.0746 8.26737 15.1583C8.26737 15.2421 8.23501 15.3226 8.17705 15.383C8.11908 15.4435 8.04 15.4792 7.95632 15.4828H7.69652C7.51756 15.4828 7.37207 15.3376 7.37207 15.1586" fill="#6B312A"/>
<path d="M14.4757 14.8341H13.4807L13.9403 10.0684H14.0159L14.4757 14.8341ZM15.0854 15.6559V14.6609L17.7128 15.1205V15.1961L15.0854 15.6559Z" fill="#6F5F70"/>
<path d="M15.5047 13.9776L9.82268 19.6593C9.80194 19.6802 9.77727 19.6969 9.75009 19.7083C9.7229 19.7197 9.69372 19.7256 9.66425 19.7257C9.63477 19.7257 9.60557 19.72 9.57832 19.7087C9.55107 19.6975 9.52631 19.681 9.50546 19.6601C9.48462 19.6393 9.4681 19.6145 9.45686 19.5873C9.44561 19.56 9.43986 19.5308 9.43994 19.5014C9.44002 19.4719 9.44592 19.4427 9.45731 19.4155C9.4687 19.3883 9.48535 19.3637 9.50631 19.3429L15.1883 13.6609C15.2303 13.619 15.2872 13.5954 15.3466 13.5955C15.4059 13.5955 15.4628 13.6191 15.5048 13.6611C15.5468 13.7031 15.5703 13.76 15.5703 13.8194C15.5703 13.8787 15.5466 13.9356 15.5047 13.9776Z" fill="#E7423F"/>
<path d="M15.3596 15.1586C15.3596 15.5249 15.2141 15.8762 14.9551 16.1353C14.6961 16.3943 14.3447 16.5398 13.9784 16.5398C13.6121 16.5398 13.2608 16.3943 13.0017 16.1353C12.7427 15.8762 12.5972 15.5249 12.5972 15.1586C12.5972 14.7923 12.7427 14.4409 13.0017 14.1819C13.2608 13.9229 13.6121 13.7773 13.9784 13.7773C14.3447 13.7773 14.6961 13.9229 14.9551 14.1819C15.2141 14.4409 15.3596 14.7923 15.3596 15.1586Z" fill="#5C4F5D"/>
</svg>
