<svg width="18" height="18" viewBox="0 0 18 18" fill="none" xmlns="http://www.w3.org/2000/svg">
<path fill-rule="evenodd" clip-rule="evenodd" d="M0.704849 1.04515C0.0772214 1.67278 0.0772216 2.69037 0.70485 3.31799L6.38696 9.00011L0.704957 14.6821C0.0773285 15.3097 0.0773279 16.3273 0.704957 16.955C1.33259 17.5826 2.35017 17.5826 2.9778 16.955L8.65981 11.2729L14.3419 16.9551C14.9695 17.5827 15.9871 17.5827 16.6148 16.9551C17.2424 16.3274 17.2424 15.3098 16.6148 14.6822L10.9326 9.00011L16.6149 3.3179C17.2425 2.69027 17.2425 1.67268 16.6149 1.04505C15.9872 0.417424 14.9696 0.417426 14.342 1.04505L8.65981 6.72726L2.97769 1.04515C2.35006 0.417522 1.33248 0.417522 0.704849 1.04515Z" fill="#67707B"/>
</svg>
