<svg xmlns="http://www.w3.org/2000/svg" width="12" height="12" viewBox="0 0 12 12" fill="none">
  <path d="M1.18306 0.168867L1.22244 0.204509L6.08801 5.00056L10.7746 0.381304C10.9054 0.251113 11.0824 0.176171 11.2683 0.172324C11.4542 0.168478 11.6343 0.236028 11.7705 0.360692C11.9068 0.485355 11.9885 0.657359 11.9984 0.840332C12.0083 1.0233 11.9456 1.2029 11.8236 1.34115L11.7878 1.37997L7.10051 5.99851L11.7874 10.6178C11.9197 10.7466 11.9958 10.9212 11.9998 11.1044C12.0038 11.2876 11.9354 11.4652 11.8089 11.5996C11.6824 11.734 11.5079 11.8146 11.3222 11.8244C11.1365 11.8342 10.9542 11.7724 10.814 11.6521L10.7746 11.6161L6.08801 6.99682L1.22244 11.7932C1.09143 11.9224 0.914729 11.9965 0.729464 11.9999C0.5442 12.0033 0.364803 11.9358 0.228979 11.8116C0.0931554 11.6873 0.0114806 11.516 0.00112092 11.3337C-0.00923877 11.1513 0.0525232 10.9721 0.173426 10.8337L0.209587 10.7949L5.07552 5.99851L0.209945 1.20282C0.0798237 1.07353 0.00544039 0.899676 0.00234498 0.717593C-0.00075042 0.53551 0.0676815 0.359295 0.193336 0.225786C0.31899 0.0922763 0.492139 0.0118068 0.676587 0.00119928C0.861036 -0.00940825 1.0425 0.0506673 1.18306 0.168867Z" fill="currentColor"/>
</svg>