<svg width="24" height="24" viewBox="0 0 24 24" fill="none" xmlns="http://www.w3.org/2000/svg">
<g id="&#230;&#148;&#182;&#232;&#151;&#143;-&#233;&#187;&#152;&#232;&#174;&#164;">
<rect id="Rectangle 146" opacity="0.6" width="24" height="24" rx="12" fill="black"/>
<path id="Vector" d="M12.0259 7.38055C12.2331 7.14534 12.4298 6.95968 12.616 6.82356C12.8181 6.67547 13.0834 6.52683 13.4117 6.37765C14.0938 6.06622 14.8681 5.96223 15.5622 6.01177C16.2519 6.06132 16.9604 6.36622 17.5186 6.8448C18.3136 7.5261 18.7914 8.41937 18.9521 9.52463C19.0076 9.90502 19.0149 10.2577 18.974 10.5825C18.9249 10.9742 18.8444 11.3257 18.7325 11.6371C18.5689 12.0916 18.416 12.4359 18.2739 12.67C18.0837 12.983 17.8985 13.2868 17.6899 13.5868C17.1073 14.4246 16.3546 15.2876 15.4318 16.1757C14.8319 16.7529 14.1304 17.3659 13.327 18.0149C12.8557 18.3953 12.4196 18.7213 12.019 18.9928C12.0047 19.0026 11.9908 19.0024 11.9772 18.9922C11.7614 18.8365 11.5481 18.6846 11.3373 18.5365C10.9602 18.2716 10.3463 17.7687 9.49548 17.0278C8.72934 16.3607 7.98112 15.6162 7.25082 14.7945C6.68717 14.1596 6.17746 13.4498 5.72169 12.6651C5.62044 12.4905 5.50742 12.2536 5.3826 11.9546C5.13364 11.3582 5.00617 10.7489 5.00019 10.1268C4.99687 9.76746 5.03621 9.41646 5.1182 9.07382C5.33862 8.1544 5.80368 7.40087 6.51339 6.81322C7.18028 6.26041 7.94294 5.98945 8.80137 6.00034C9.74079 6.01232 10.5947 6.28437 11.3632 6.81649C11.5255 6.92901 11.7232 7.11703 11.9562 7.38055C11.9795 7.40704 12.0027 7.40704 12.0259 7.38055Z" fill="#FF0000"/>
</g>
</svg>
