<svg width="14" height="13" viewBox="0 0 14 13" fill="none" xmlns="http://www.w3.org/2000/svg">
<path d="M6.58093 2.04279C6.67319 2.18455 6.83086 2.27006 7 2.27006C7.16914 2.27006 7.32681 2.18455 7.41907 2.04279C8.03382 1.09818 9.03502 0.5 10.15 0.5C11.9637 0.5 13.5 2.10344 13.5 4.16591C13.5 6.0712 12.4533 7.94362 11.0499 9.47726C9.71599 10.9349 8.12634 12.013 7 12.465C5.87366 12.013 4.28401 10.9349 2.95011 9.47726C1.54665 7.94362 0.5 6.0712 0.5 4.16591C0.5 2.10344 2.03624 0.5 3.85 0.5C4.96498 0.5 5.96618 1.09818 6.58093 2.04279Z" stroke="white" stroke-linecap="round" stroke-linejoin="round"/>
</svg>
