<svg width="20" height="21" viewBox="0 0 20 21" fill="none" xmlns="http://www.w3.org/2000/svg">
<rect x="2" width="2" height="20" rx="1" fill="#67707B"/>
<rect x="19.0908" y="18.3638" width="1.81818" height="17.2727" rx="0.909091" transform="rotate(90 19.0908 18.3638)" fill="#67707B"/>
<rect width="1.81818" height="15.1274" rx="0.909091" transform="matrix(0.618459 0.785817 -0.86057 0.509333 14.5693 9.82861)" fill="#67707B"/>
<path d="M4.58491 0.317628L10.7074 4.33219L4.58491 6.52856L4.58491 0.317628Z" fill="#FF0000"/>
<path fill-rule="evenodd" clip-rule="evenodd" d="M7.5322 18.5405C7.78772 18.1425 7.79144 17.6401 7.5208 17.2296C7.25016 16.8192 6.75142 16.5708 6.23006 16.5655L5.77723 15.8787C6.70255 15.734 7.68546 16.1145 8.1957 16.8884C8.70594 17.6623 8.59086 18.598 7.98503 19.2273L7.5322 18.5405Z" fill="#67707B"/>
</svg>
