<svg width="20" height="21" viewBox="0 0 20 21" fill="none" xmlns="http://www.w3.org/2000/svg">
<rect x="2.00098" width="2" height="20" rx="1" fill="#67707B"/>
<rect x="19.0918" y="18.3638" width="1.81818" height="17.2727" rx="0.909091" transform="rotate(90 19.0918 18.3638)" fill="#67707B"/>
<rect width="1.81818" height="15.1274" rx="0.909091" transform="matrix(0.618459 0.785817 -0.86057 0.509333 14.5703 9.82861)" fill="#67707B"/>
<path d="M4.58491 0.317628L10.7074 4.33219L4.58491 6.52856L4.58491 0.317628Z" fill="#FF0000"/>
<path fill-rule="evenodd" clip-rule="evenodd" d="M7.53247 18.54C7.7876 18.1421 7.79118 17.64 7.52068 17.2297C7.25018 16.8194 6.7518 16.5711 6.23073 16.5656L5.77782 15.8787C6.70294 15.7342 7.68547 16.1148 8.19558 16.8885C8.70568 17.6622 8.5908 18.5976 7.98538 19.2269L7.53247 18.54Z" fill="#67707B"/>
<circle cx="14" cy="14" r="5.57143" fill="white" stroke="#3BC116" stroke-width="0.857143"/>
<path d="M17.5994 13.9999C17.5994 12.0117 15.9876 10.3999 13.9994 10.3999C12.0112 10.3999 10.3994 12.0117 10.3994 13.9999H17.5994Z" fill="#3BC116"/>
</svg>
