<svg width="18" height="18" viewBox="0 0 18 18" fill="none" xmlns="http://www.w3.org/2000/svg">
<g id="dat_icon" clip-path="url(#clip0_1564_40689)">
<path id="Union" fill-rule="evenodd" clip-rule="evenodd" d="M9.69231 0H8.30769C8.16171 0.0272218 8.0153 0.0527033 7.86887 0.0781883C7.55353 0.133072 7.2381 0.187973 6.92654 0.260308C3.33485 1.09454 0.582923 4.11646 0.0789231 7.76908C0.0621064 7.89053 0.0440288 8.01167 0.0259666 8.13271C0.0172599 8.19105 0.0085567 8.24937 0 8.30769V9.69231C0.0486892 9.91436 0.0900105 10.139 0.131326 10.3637C0.221014 10.8513 0.310674 11.3388 0.475615 11.799C1.75154 15.3692 4.28954 17.4129 8.04808 17.9356C8.10768 17.9441 8.16633 17.9605 8.22488 17.9768C8.25271 17.9846 8.28051 17.9924 8.30838 17.9993H9.693C9.87411 17.9635 10.0568 17.9325 10.2395 17.9016C10.6329 17.8348 11.0266 17.768 11.4058 17.6532C14.8112 16.6216 16.9276 14.3529 17.7833 10.9059C17.8505 10.6356 17.8935 10.3595 17.9365 10.0834C17.9568 9.95284 17.9771 9.82229 18 9.69231V8.30769C17.9538 8.09002 17.915 7.86962 17.8763 7.64921C17.7914 7.16651 17.7066 6.68375 17.5431 6.22939C16.2519 2.64462 13.7112 0.571846 9.91938 0.0616154C9.86694 0.0545914 9.81608 0.0383823 9.7653 0.0221999C9.741 0.0144575 9.71673 0.00672123 9.69231 0ZM9.01246 4.20162C11.6557 4.19815 13.8025 6.34708 13.8025 8.99515V8.99585C13.8018 11.6626 11.6446 13.8164 8.98754 13.8025C6.318 13.7887 4.19885 11.6515 4.19746 8.97023C4.19608 6.33739 6.34915 4.20508 9.01246 4.20162ZM7.49631 3.1872C8.51168 2.90909 9.49661 2.93406 10.5044 3.17631C10.5044 3.01391 10.5036 2.85593 10.5028 2.70108C10.5008 2.32453 10.4989 1.96655 10.5092 1.60892C10.5148 1.40192 10.4428 1.33892 10.2427 1.30569C9.39392 1.16585 8.54792 1.16585 7.70469 1.32508C7.62577 1.34031 7.50808 1.45454 7.50531 1.52585C7.49272 1.93375 7.49404 2.34166 7.49542 2.76971C7.49586 2.90659 7.49631 3.04553 7.49631 3.1872ZM7.49658 15.2408C7.49713 15.1026 7.49769 14.9622 7.49769 14.8188C8.52092 15.075 9.486 15.0778 10.5002 14.8161C10.5002 14.9534 10.5006 15.089 10.501 15.2235C10.5022 15.662 10.5034 16.0873 10.4912 16.5122C10.4892 16.5711 10.3659 16.6638 10.2877 16.6784C9.432 16.8404 8.57354 16.8397 7.71923 16.6763C7.63408 16.6597 7.51015 16.5295 7.50739 16.4485C7.49335 16.053 7.49493 15.657 7.49658 15.2408ZM3.168 10.4871C3.45531 11.4764 3.91223 12.3418 4.61838 13.1075H4.61769C4.44093 13.2094 4.2696 13.3082 4.10102 13.4055C3.74537 13.6106 3.40195 13.8087 3.04546 14.0144C2.38362 13.2466 1.92115 12.3861 1.58746 11.4051C1.81767 11.2713 2.04705 11.1381 2.27927 11.0033C2.56873 10.8352 2.86261 10.6645 3.168 10.4871ZM13.3906 13.1151C14.0628 12.3418 14.5606 11.4978 14.8202 10.4843C15.1356 10.6655 15.4325 10.8362 15.7234 11.0034C15.9548 11.1365 16.1825 11.2673 16.4125 11.3995C16.092 12.3646 15.6309 13.2279 14.9476 14.0102C14.6133 13.8182 14.2825 13.628 13.9427 13.4326C13.7619 13.3286 13.5785 13.2231 13.3906 13.1151ZM14.7683 7.24777C14.4291 6.28823 13.9486 5.43531 13.1892 4.70146H13.1885C13.6106 4.45824 14.0063 4.2301 14.4046 4.00046C14.5256 3.93073 14.6468 3.86086 14.769 3.79038C15.435 4.49515 15.9065 5.30238 16.2547 6.18438C16.2803 6.24877 16.2305 6.39692 16.1709 6.43292C15.82 6.64782 15.4623 6.85177 15.0886 7.0648C14.9832 7.12491 14.8765 7.18576 14.7683 7.24777ZM4.80279 4.69706C4.59139 4.57523 4.38684 4.45744 4.18595 4.34176C3.86071 4.15447 3.54507 3.97271 3.22546 3.78831C2.57123 4.49654 2.10254 5.29408 1.74808 6.16223C1.72038 6.23077 1.73008 6.37615 1.773 6.40177C2.15972 6.63358 2.55236 6.85446 2.95902 7.08324C3.05396 7.13665 3.14966 7.19049 3.24623 7.245C3.56532 6.2552 4.07472 5.43148 4.80279 4.69706ZM9.41807 11.9572C9.41972 11.869 9.42137 11.7805 9.43407 11.6979H9.43476C9.46871 11.6891 9.50242 11.6807 9.53593 11.6724C9.60288 11.6557 9.66902 11.6392 9.73453 11.6203C10.5681 11.3801 11.0651 10.7044 11.0063 9.87087C10.9523 9.10863 10.4289 8.73479 9.8003 8.45648C9.69631 8.41026 9.59105 8.36621 9.48578 8.32215C9.21892 8.21045 8.95201 8.09874 8.70576 7.95179C8.57353 7.87217 8.45515 7.62848 8.47384 7.47756C8.48977 7.34671 8.70092 7.15217 8.83869 7.1404C9.20907 7.10925 9.58984 7.13694 9.96092 7.1854C10.3334 7.23387 10.5501 7.14248 10.6366 6.82748C10.7204 6.52287 10.5473 6.24525 10.1998 6.16217C10.0397 6.12395 9.87638 6.1009 9.71089 6.07754C9.63655 6.06705 9.56179 6.0565 9.48669 6.04448C9.48103 5.99729 9.47609 5.95171 9.47127 5.90724C9.46195 5.82124 9.45308 5.7394 9.4403 5.65817C9.39946 5.4034 9.23607 5.2594 8.98892 5.27256C8.72238 5.2864 8.559 5.45948 8.58253 5.73156C8.60815 6.02302 8.50084 6.14348 8.21769 6.2314C7.56069 6.43563 7.13215 6.87871 7.06361 7.59179C6.99646 8.29102 7.35507 8.75833 7.95115 9.05394C8.18383 9.16952 8.42345 9.27039 8.66306 9.37125C8.85833 9.45345 9.05358 9.53564 9.24507 9.62579C9.47492 9.73379 9.6473 9.91517 9.61477 10.1949C9.58015 10.4926 9.36553 10.6608 9.09415 10.658C8.66353 10.6546 8.22946 10.6082 7.80369 10.5403C7.43815 10.4822 7.19377 10.5826 7.128 10.8879C7.05392 11.2319 7.23184 11.5186 7.60292 11.6099C7.80767 11.6601 8.01603 11.6963 8.22189 11.7322C8.31465 11.7484 8.40689 11.7644 8.49807 11.7816C8.54792 12.4047 8.66146 12.6207 8.96192 12.5937C9.40691 12.5541 9.41244 12.2581 9.41807 11.9572Z" fill="currentColor"/>
</g>
<defs>
<clipPath id="clip0_1564_40689">
<rect width="18" height="18" fill="white"/>
</clipPath>
</defs>
</svg>
