<svg width="24" height="24" viewBox="0 0 24 24" fill="none" xmlns="http://www.w3.org/2000/svg">
<circle cx="12" cy="12" r="12" fill="url(#paint0_linear_1051_10262)"/>
<path opacity="0.8" d="M17.7046 7.72152C18.0985 7.32771 18.0985 6.68918 17.7046 6.29536C17.3108 5.90155 16.6723 5.90155 16.2785 6.29536L12 10.5739L7.72152 6.29539C7.32771 5.90158 6.68918 5.90158 6.29536 6.29539C5.90155 6.68921 5.90155 7.32772 6.29536 7.72155L10.5738 12L6.29538 16.2785C5.90155 16.6723 5.90155 17.3108 6.29538 17.7046C6.68919 18.0985 7.32771 18.0985 7.72154 17.7046L12 13.4262L16.2785 17.7047C16.6723 18.0985 17.3108 18.0985 17.7046 17.7047C18.0985 17.3108 18.0985 16.6723 17.7046 16.2785L13.4261 12L17.7046 7.72152Z" fill="white"/>
<defs>
<linearGradient id="paint0_linear_1051_10262" x1="12" y1="0" x2="12" y2="24" gradientUnits="userSpaceOnUse">
<stop stop-color="#FF5959"/>
<stop offset="1" stop-color="#FF2727"/>
</linearGradient>
</defs>
</svg>
