<svg width="20" height="21" viewBox="0 0 20 21" fill="none" xmlns="http://www.w3.org/2000/svg">
<g id="Vector">
<path fill-rule="evenodd" clip-rule="evenodd" d="M9.15143 0.351472C9.62006 -0.117157 10.3799 -0.117157 10.8485 0.351472L19.2485 8.75147C19.7171 9.2201 19.7171 9.9799 19.2485 10.4485C18.7799 10.9172 18.0201 10.9172 17.5514 10.4485L9.99996 2.89706L2.44849 10.4485C1.97986 10.9172 1.22006 10.9172 0.751435 10.4485C0.282806 9.9799 0.282806 9.2201 0.751435 8.75147L9.15143 0.351472Z" fill="currentColor"/>
<path fill-rule="evenodd" clip-rule="evenodd" d="M9.31053 12.0981C9.6913 11.7173 10.3086 11.7173 10.6894 12.0981L17.5144 18.9231C17.8952 19.3038 17.8952 19.9212 17.5144 20.3019C17.1336 20.6827 16.5163 20.6827 16.1355 20.3019L9.99996 14.1664L3.86439 20.3019C3.48363 20.6827 2.8663 20.6827 2.48553 20.3019C2.10477 19.9212 2.10477 19.3038 2.48553 18.9231L9.31053 12.0981Z" fill="currentColor"/>
</g>
</svg>
