<svg width="16" height="16" viewBox="0 0 16 16" fill="none" xmlns="http://www.w3.org/2000/svg">
<path d="M15.9188 2.30087C16.0401 2.81118 16.0664 3.24139 15.7046 3.65672C15.3834 4.02668 15.0375 4.37964 14.6667 4.71559C14.6473 4.73355 14.6281 4.73307 14.6092 4.71417L11.2146 1.30012C11.1985 1.28358 11.1983 1.26704 11.2139 1.2505C11.6495 0.783674 12.0824 0.419139 12.5128 0.156901C12.6779 0.0567308 12.9056 0.00451946 13.196 0.00026695C13.8648 -0.00918307 14.434 0.232265 14.9036 0.724611C15.3534 1.19593 15.7783 1.70978 15.9188 2.30087Z" fill="currentColor"/>
<path d="M0.822882 11.8804C0.960511 11.5628 1.1705 11.2635 1.45285 10.9824C4.23476 8.21398 7.00862 5.44277 9.77444 2.66871C9.79762 2.64556 9.82103 2.64556 9.84468 2.66871L13.2329 6.05442C13.2504 6.0719 13.2506 6.08938 13.2336 6.10687C12.1255 7.25221 10.9925 8.34369 9.86241 9.46989C9.52803 9.80301 9.19082 10.1342 8.85077 10.4636C7.60359 11.6727 6.34105 12.9083 5.06313 14.1703C4.94537 14.2866 4.81412 14.3787 4.69919 14.4942C4.65095 14.5429 4.59798 14.585 4.54028 14.6204C4.18557 14.8373 3.78096 15.0232 3.32645 15.1782C2.53851 15.447 1.71511 15.7001 0.856225 15.9373C0.622114 16.002 0.37405 16.0166 0.112035 15.9812C0.0832354 15.9775 0.0566419 15.9638 0.0368308 15.9426C0.0170197 15.9214 0.00523037 15.8939 0.00349249 15.865C-0.00407474 15.7397 0.000655109 15.6183 0.0176814 15.5007C0.151054 14.5953 0.33716 13.6496 0.576001 12.6635C0.654038 12.3418 0.736332 12.0807 0.822882 11.8804Z" fill="currentColor"/>
</svg>
