<svg xmlns="http://www.w3.org/2000/svg" width="12" height="12" viewBox="0 0 12 12" fill="none">
  <path d="M9.79688 1.71429H6.92411C6.66161 1.71429 6.44732 1.92455 6.44196 2.18705C6.43661 2.45893 6.66161 2.67857 6.93348 2.67857H8.65312L6.92411 4.40759C6.73661 4.59509 6.73661 4.90179 6.92411 5.08929C7.11161 5.27679 7.4183 5.27679 7.6058 5.08929L9.32143 3.37366V5.10134C9.32143 5.36384 9.53304 5.57812 9.7942 5.58348C10.0647 5.58884 10.2857 5.36384 10.2857 5.09196V2.20312C10.2857 1.93393 10.0674 1.71429 9.79688 1.71429ZM5.06518 9.32143H3.34554L5.07589 7.59241C5.26339 7.40491 5.26339 7.09821 5.07589 6.91071C4.88839 6.72321 4.5817 6.72321 4.3942 6.91071L2.67857 8.62634V6.89732C2.67857 6.63482 2.46696 6.42054 2.2058 6.41518C1.93527 6.40982 1.71429 6.63482 1.71429 6.9067V9.7942C1.71429 10.0661 1.93393 10.2857 2.2058 10.2857H5.07589C5.33839 10.2857 5.55268 10.0754 5.55804 9.81295C5.56205 9.54107 5.33705 9.32143 5.06518 9.32143Z" fill="currentColor"/>
  <path d="M10.3661 0.964286C10.7357 0.964286 11.0357 1.26429 11.0357 1.63393V10.3661C11.0357 10.7357 10.7357 11.0357 10.3661 11.0357H1.63393C1.26429 11.0357 0.964286 10.7357 0.964286 10.3661V1.63393C0.964286 1.26429 1.26429 0.964286 1.63393 0.964286H10.3661ZM10.3661 0H1.63393C1.41429 0 1.2 0.0428571 0.997768 0.128571C0.803571 0.210268 0.628125 0.328125 0.478125 0.478125C0.328125 0.628125 0.210268 0.802232 0.128571 0.997768C0.0428571 1.2 0 1.41429 0 1.63393V10.3661C0 10.5857 0.0428571 10.8 0.128571 11.0022C0.210268 11.1964 0.328125 11.3719 0.478125 11.5219C0.628125 11.6719 0.802232 11.7897 0.997768 11.8714C1.2 11.9571 1.41429 12 1.63393 12H10.3661C10.5857 12 10.8 11.9571 11.0022 11.8714C11.1964 11.7897 11.3719 11.6719 11.5219 11.5219C11.6719 11.3719 11.7897 11.1978 11.8714 11.0022C11.9571 10.8 12 10.5857 12 10.3661V1.63393C12 1.41429 11.9571 1.2 11.8714 0.997768C11.7897 0.803571 11.6719 0.628125 11.5219 0.478125C11.3719 0.328125 11.1978 0.210268 11.0022 0.128571C10.8 0.0428571 10.5857 0 10.3661 0Z" fill="currentColor"/>
</svg>