<svg width="30" height="30" viewBox="0 0 30 30" fill="none" xmlns="http://www.w3.org/2000/svg">
<mask id="mask0_38_2614" style="mask-type:alpha" maskUnits="userSpaceOnUse" x="0" y="0" width="30" height="30">
<rect width="30" height="30" fill="#D9D9D9"/>
</mask>
<g mask="url(#mask0_38_2614)">
<path d="M17.6799 16.3015C17.083 16.4126 16.498 16.5209 15.8915 16.6339C15.8915 16.8132 15.8915 17.0079 15.8915 17.2029C15.8922 17.8245 15.8946 18.4456 15.8938 19.0672C15.8934 19.5875 15.6496 19.9022 15.1856 19.9878C14.727 20.0722 14.268 19.7088 14.2588 19.2257C14.2445 18.4672 14.253 17.7083 14.2518 16.9494C14.2518 16.8521 14.2518 16.7544 14.2518 16.6394C13.9508 16.5986 13.6591 16.5684 13.3705 16.5181C13.0483 16.462 12.7265 16.4004 12.4105 16.3164C12.2617 16.2768 12.1991 16.3039 12.1358 16.4451C11.7282 17.3516 11.3113 18.2541 10.8975 19.1578C10.7411 19.4996 10.4165 19.7151 10.0924 19.6919C9.72805 19.6656 9.43172 19.4274 9.33359 19.0699C9.26829 18.8325 9.32161 18.6097 9.42438 18.3891C9.84048 17.4948 10.2492 16.597 10.6615 15.7C10.2697 15.4728 9.88143 15.2479 9.45529 15.0007C9.16282 15.3048 8.85645 15.627 8.54582 15.9452C8.16952 16.3306 7.79244 16.7155 7.41111 17.0958C7.07847 17.4273 6.56694 17.4297 6.24975 17.1087C5.92483 16.7795 5.91208 16.267 6.24009 15.9299C6.88723 15.2648 7.54363 14.6095 8.20197 13.944C7.98562 13.6877 7.77081 13.448 7.57184 13.1949C7.08272 12.5733 6.70062 11.8874 6.43442 11.1394C6.22657 10.5559 6.64576 9.97084 7.24305 10.0038C7.62399 10.0246 7.8643 10.2451 7.99837 10.6022C8.39012 11.646 9.03455 12.5026 9.88259 13.2058C10.8828 14.035 12.0253 14.5581 13.2883 14.8045C15.2069 15.1789 17.0532 14.952 18.7899 14.0275C20.2379 13.2569 21.3255 12.133 21.9216 10.5567C22.0989 10.0874 22.5703 9.88491 23.0069 10.0654C23.4431 10.2455 23.63 10.7176 23.4527 11.1869C23.0865 12.1554 22.5463 13.0124 21.849 13.7685C21.8188 13.8011 21.7895 13.8349 21.7532 13.8757C22.3902 14.522 23.0204 15.1667 23.6571 15.8047C23.9403 16.0884 24.0898 16.4055 23.9422 16.8077C23.7289 17.3881 23.0111 17.5282 22.5633 17.0765C21.9235 16.4314 21.2884 15.7816 20.6517 15.1333C20.5976 15.078 20.5458 15.0203 20.4952 14.9658C20.0691 15.2157 19.6561 15.4575 19.233 15.7059C19.466 16.2136 19.6978 16.7202 19.93 17.2264C20.1197 17.64 20.3129 18.0517 20.4987 18.4672C20.7019 18.9212 20.5335 19.4074 20.1089 19.6087C19.6804 19.8124 19.2187 19.6331 19.0035 19.1696C18.5797 18.2561 18.1617 17.3398 17.7409 16.4247C17.7197 16.3784 17.6957 16.3329 17.6803 16.3015H17.6799Z" fill="#67707B"/>
</g>
</svg>
