<svg width="30" height="30" viewBox="0 0 30 30" fill="none" xmlns="http://www.w3.org/2000/svg">
<path fill-rule="evenodd" clip-rule="evenodd" d="M14.9126 9C14.3875 9 13.1023 9.09896 12.454 9.33333C12.2035 9.42389 12.0677 9.46413 11.9383 9.50247C11.7327 9.56336 11.5434 9.61945 10.9367 9.86469C8.86608 10.7015 7.28202 12.2057 6.18562 14.3068C5.93013 14.7961 5.94235 15.2054 6.19784 15.6923C7.6697 18.5019 9.93693 20.0969 12.794 20.7351C15.72 21.3891 18.4693 20.8332 20.9787 19.0554C22.2828 18.1313 23.297 16.8973 23.9468 15.3544C24.0513 15.1061 23.9902 14.6859 23.8646 14.4255C22.8149 12.2432 21.1931 10.7185 19.0847 9.86469C18.0961 9.46504 17.3713 9.33333 17.3713 9.33333C17.3713 9.33333 15.4378 9 14.9126 9ZM14.9901 10.5078C17.2618 10.4835 19.1391 12.506 19.1502 14.9887V14.9899C19.1602 17.4459 17.2696 19.5011 15.0046 19.4938C12.7496 19.4853 10.9045 17.4955 10.8723 15.0347C10.8412 12.5738 12.6985 10.532 14.9901 10.5078ZM17.7 14.9933C17.7055 13.3638 16.4946 12.0098 15.024 12.0001C13.5436 11.9903 12.3154 13.3165 12.3002 14.9399C12.285 16.6119 13.486 17.9865 14.9762 17.9999C16.4685 18.0144 17.6946 16.6604 17.7 14.9933Z" fill="#67707B"/>
</svg>
