<svg width="30" height="30" viewBox="0 0 30 30" fill="none" xmlns="http://www.w3.org/2000/svg">
<ellipse cx="15" cy="15" rx="15" ry="15" fill="#FF0000"/>
<path fill-rule="evenodd" clip-rule="evenodd" d="M21.9287 8.82153C22.5796 9.4724 22.5796 10.5277 21.9287 11.1786L11.4189 21.6884C10.5428 22.5645 9.05102 22.2123 8.65923 21.0369C8.4596 20.438 8.61547 19.7778 9.06185 19.3314L19.5717 8.82153C20.2225 8.17066 21.2778 8.17066 21.9287 8.82153Z" fill="white"/>
<path fill-rule="evenodd" clip-rule="evenodd" d="M8.82165 8.82153C8.17078 9.4724 8.17078 10.5277 8.82165 11.1786L19.3315 21.6884C20.2075 22.5645 21.6993 22.2123 22.0911 21.0369C22.2907 20.438 22.1349 19.7778 21.6885 19.3314L11.1787 8.82153C10.5278 8.17066 9.47253 8.17066 8.82165 8.82153Z" fill="white"/>
</svg>
