<svg width="16" height="16" viewBox="0 0 16 16" fill="none" xmlns="http://www.w3.org/2000/svg">
<rect x="1" y="1" width="6" height="1.5" rx="0.75" fill="#67707B"/>
<rect x="2.5" y="1" width="6" height="1.5" rx="0.75" transform="rotate(90 2.5 1)" fill="#67707B"/>
<rect width="6" height="1.5" rx="0.75" transform="matrix(1 0 0 -1 1 16)" fill="#67707B"/>
<rect width="6" height="1.5" rx="0.75" transform="matrix(-4.37114e-08 -1 -1 4.37114e-08 2.5 16)" fill="#67707B"/>
<rect width="6" height="1.5" rx="0.75" transform="matrix(-1 0 0 1 16 1)" fill="#67707B"/>
<rect width="6" height="1.5" rx="0.75" transform="matrix(4.37114e-08 1 1 -4.37114e-08 14.5 1)" fill="#67707B"/>
<rect x="16" y="16" width="6" height="1.5" rx="0.75" transform="rotate(180 16 16)" fill="#67707B"/>
<rect x="14.5" y="16" width="6" height="1.5" rx="0.75" transform="rotate(-90 14.5 16)" fill="#67707B"/>
</svg>
