<svg width="44" height="44" viewBox="0 0 44 44" fill="none" xmlns="http://www.w3.org/2000/svg">
<g id="Group 5731">
<g id="&#228;&#184;&#139;&#232;&#189;&#189;">
<g id="Subtract">
<path fill-rule="evenodd" clip-rule="evenodd" d="M17 13C15.8954 13 15 13.8954 15 15V27H29V15C29 13.8954 28.1046 13 27 13H17ZM19.5 14C19.2239 14 19 14.2239 19 14.5C19 14.7761 19.2239 15 19.5 15H24.5C24.7761 15 25 14.7761 25 14.5C25 14.2239 24.7761 14 24.5 14H19.5Z" fill="#9FA5AC"/>
<path fill-rule="evenodd" clip-rule="evenodd" d="M29 28H15V29C15 30.1046 15.8954 31 17 31H27C28.1046 31 29 30.1046 29 29V28ZM20 29.5C20 29.2239 20.2239 29 20.5 29H23.5C23.7761 29 24 29.2239 24 29.5C24 29.7761 23.7761 30 23.5 30H20.5C20.2239 30 20 29.7761 20 29.5Z" fill="#9FA5AC"/>
</g>
</g>
</g>
</svg>
