<svg width="18" height="18" viewBox="0 0 18 18" fill="currentColor" xmlns="http://www.w3.org/2000/svg">
<path d="M10.6203 2.38385C10.9071 2.38385 11.129 2.18173 11.1351 1.89416C11.1445 1.49898 11.1448 1.10109 11.1358 0.700479C11.129 0.402057 11.1865 0.155182 11.4848 0.0371696C11.676 -0.0387921 11.8568 0.00167564 12.0272 0.158573C13.4688 1.48881 14.8974 2.81837 16.3128 4.14724C16.4801 4.30414 16.6395 4.44838 16.791 4.57996C16.9565 4.72329 17.0237 4.88697 16.9926 5.07099C16.9723 5.1881 16.8914 5.31425 16.7498 5.44945C16.5388 5.65111 16.3343 5.83378 16.1363 5.99746C16.0656 6.05624 16 6.12152 15.9342 6.18701C15.8815 6.23938 15.8287 6.29189 15.7731 6.34132C15.55 6.53984 15.3274 6.7409 15.1041 6.94264C14.7743 7.24057 14.4429 7.53997 14.1058 7.83478C14.1022 7.83779 14.0979 7.83985 14.0933 7.84076C14.0887 7.84166 14.084 7.84139 14.0796 7.83997C14.0751 7.83855 14.0711 7.83603 14.0679 7.83263C14.0646 7.82923 14.0623 7.82507 14.0611 7.82054C13.7919 6.74713 13.2459 5.85186 12.4229 5.13475C11.2399 4.10519 9.58885 3.68537 8.01827 4.04076C6.27859 4.43481 4.85276 5.71531 4.30353 7.41903C4.29867 7.4342 4.28917 7.44743 4.2764 7.45682C4.26364 7.4662 4.24827 7.47126 4.23251 7.47125C3.46729 7.47035 2.58033 7.4708 1.58107 7.47261C1.26587 7.47329 1.00343 7.26914 1.00479 6.93409C1.00975 5.68253 1.00817 4.39254 1.00005 3.06411C0.998701 2.88777 1.02305 2.75032 1.0731 2.65175C1.16329 2.47405 1.32743 2.3852 1.56552 2.3852L10.6203 2.38385Z" fill="currentColor"/>
<path d="M9.48407 14.0657C11.5822 13.9151 13.3036 12.5274 13.9543 10.5579C13.962 10.5348 13.9778 10.5233 14.0017 10.5233C14.8151 10.5228 15.428 10.523 16.4128 10.5239C16.6193 10.5244 16.7718 10.6038 16.8701 10.762C16.9291 10.8574 16.9584 10.9569 16.958 11.0604C16.9566 12.3581 16.9578 13.6675 16.9614 14.9887C16.9627 15.3224 16.8065 15.608 16.4284 15.608C13.234 15.6102 10.5014 15.6109 7.65781 15.61C7.45084 15.61 7.29933 15.6848 7.20328 15.8345C7.13654 15.9385 7.10543 16.0811 7.10994 16.2625C7.12031 16.7047 7.11963 17.1222 7.10791 17.5151C7.09911 17.8244 6.79339 18.0476 6.50592 17.9913C6.40987 17.9727 6.28902 17.897 6.14338 17.7641C5.80383 17.4539 5.47961 17.1536 5.17073 16.8634C4.2833 16.0296 3.37018 15.1811 2.43135 14.318C2.08278 13.9974 1.73985 13.6739 1.40256 13.3474C1.31508 13.2629 1.26773 13.179 1.26051 13.0958C1.24293 12.8883 1.28554 12.7309 1.45058 12.5878C1.8253 12.2632 2.19551 11.9288 2.56121 11.5847C2.66357 11.4879 2.76638 11.3941 2.86965 11.3032C3.31832 10.9085 3.74106 10.5262 4.13788 10.1563C4.16223 10.1337 4.17869 10.1385 4.18726 10.1706C4.61969 11.8042 5.5822 12.962 7.07476 13.6438C7.82511 13.9861 8.62821 14.1267 9.48407 14.0657Z" fill="currentColor"/>
<path d="M8.38961 7.6762L8.69575 8.73961L8.69646 8.74164L8.69779 8.74397C8.69872 8.74527 8.69986 8.74637 8.70114 8.74719C8.70243 8.74801 8.70384 8.74855 8.70528 8.74876C8.70672 8.74898 8.70816 8.74887 8.70953 8.74844L9.12633 8.62563C9.31341 8.57066 9.4778 8.4657 9.58334 8.33381C9.6889 8.20192 9.727 8.05389 9.68926 7.92224L9.6621 7.82847C9.62426 7.69676 9.5136 7.59227 9.35447 7.53799C9.19534 7.4837 9.00077 7.48404 8.81355 7.53896L8.39663 7.66133C8.39525 7.6617 8.39397 7.66239 8.39286 7.66334L8.39149 7.66477L8.39019 7.66689C8.38954 7.66828 8.38914 7.66982 8.38904 7.67141C8.38894 7.67301 8.38914 7.67464 8.38961 7.6762Z" fill="currentColor"/>
<path d="M8.84365 9.31744L9.1824 10.495L9.18294 10.4964L9.18415 10.4984L9.18554 10.4998L9.18689 10.5008C9.18793 10.5015 9.18906 10.5019 9.1902 10.502C9.19135 10.5022 9.1925 10.5021 9.19358 10.5017L9.71746 10.3479C9.8268 10.3158 9.93099 10.2698 10.0241 10.2127C10.1172 10.1555 10.1974 10.0882 10.26 10.0147C10.3227 9.94118 10.3667 9.86282 10.3894 9.78413C10.4121 9.70543 10.4132 9.62793 10.3925 9.55606L10.3632 9.45449C10.3213 9.30942 10.1936 9.19605 10.0079 9.1393C9.82231 9.08254 9.59406 9.08707 9.37333 9.15187L8.84909 9.30579C8.84831 9.30604 8.84758 9.30642 8.84692 9.3069C8.84578 9.30773 8.84484 9.30887 8.8442 9.31025C8.84319 9.31242 8.84299 9.315 8.84365 9.31744Z" fill="currentColor"/>
<path fill-rule="evenodd" clip-rule="evenodd" d="M12.8751 10.5029C13.079 10.0094 13.1839 9.48051 13.1839 8.94637C13.1839 7.86765 12.7566 6.8331 11.9958 6.07033C11.2351 5.30755 10.2034 4.87903 9.1276 4.87903C8.0518 4.87903 7.02006 5.30755 6.25936 6.07033C5.49865 6.8331 5.07129 7.86765 5.07129 8.94637C5.07129 10.0251 5.49865 11.0596 6.25936 11.8224C7.02006 12.5852 8.0518 13.0137 9.1276 13.0137C9.66028 13.0137 10.1878 12.9085 10.6799 12.7041C11.172 12.4997 11.6192 12.2001 11.9958 11.8224C12.3725 11.4447 12.6713 10.9964 12.8751 10.5029ZM7.69987 7.15316L7.48594 6.35476L7.98145 6.22199L8.18118 7.014C8.1852 7.02899 8.19356 7.03432 8.20626 7.02999L8.55318 6.91571C8.55947 6.91371 8.56365 6.91036 8.56572 6.90566C8.56769 6.90121 8.56775 6.89554 8.56591 6.88866L8.37045 6.11776L8.85537 5.98782L9.06687 6.77714C9.06988 6.78839 9.07621 6.79271 9.08584 6.79013C9.54088 6.68072 10.1597 6.6957 10.443 7.23541C10.6381 7.60773 10.666 8.08607 10.3754 8.37253C10.3451 8.40258 10.3508 8.41699 10.3923 8.41575C10.6654 8.40746 10.8838 8.48942 11.0473 8.66162C11.2876 8.91476 11.3991 9.34612 11.3902 9.69479C11.3788 10.153 11.1037 10.4757 10.7465 10.6887C10.5607 10.7997 10.3799 10.8838 10.2042 10.9411C10.191 10.9455 10.1864 10.9554 10.1905 10.9707L10.4083 11.7834L9.92328 11.9133L9.71039 11.1188C9.7056 11.1009 9.69534 11.0941 9.67961 11.0983L9.32486 11.1925C9.31674 11.1946 9.31388 11.2002 9.31628 11.2091L9.53334 12.0178L9.03885 12.1503L8.82376 11.3476C8.82182 11.3403 8.81889 11.3351 8.81497 11.332C8.81017 11.3281 8.80387 11.3272 8.79608 11.3295L7.89076 11.598C7.8896 11.5984 7.88835 11.5985 7.88712 11.5983L7.88558 11.5979L7.88362 11.5968C7.88256 11.596 7.88164 11.595 7.88095 11.5938C7.88025 11.5926 7.8798 11.5913 7.87961 11.5899L7.79405 10.9435C7.7931 10.937 7.79423 10.9306 7.79722 10.9253C7.80021 10.92 7.80487 10.9162 7.81035 10.9145L8.0245 10.8493L8.14692 10.8118C8.25479 10.7792 8.30693 10.6619 8.27181 10.5415C8.05962 9.81246 7.83811 9.02227 7.60727 8.17091C7.58445 8.08679 7.53737 8.02416 7.466 7.98301C7.32756 7.90269 7.06544 8.00585 6.92141 8.06256L6.90223 8.0701C6.89189 8.07411 6.88506 8.06991 6.88174 8.05752L6.7332 7.50164C6.72949 7.48781 6.73376 7.4794 6.74601 7.47642C7.0446 7.40291 7.31909 7.32874 7.56949 7.25392C7.59006 7.24749 7.63016 7.22423 7.68982 7.18413C7.70015 7.17703 7.7035 7.16672 7.69987 7.15316Z" fill="currentColor"/>
</svg>
