<svg width="19" height="18" viewBox="0 0 19 18" fill="currentColor" xmlns="http://www.w3.org/2000/svg">
<path d="M0.942706 2.67693C0.388514 3.31341 0.0328899 4.25519 0.0278881 5.15336C0.0125495 7.83101 0.0110489 10.565 0.0233866 13.3554C0.0250538 13.709 0.0418929 13.9933 0.0739041 14.2083C0.284977 15.625 1.27582 16.8328 2.56227 17.2394C2.85137 17.3309 3.1203 17.379 3.36905 17.3837C4.13465 17.3988 5.30906 17.4058 6.89228 17.4047C7.26291 17.4047 7.5415 17.3573 7.74357 17.0111C7.8116 16.894 7.85078 16.7495 7.86111 16.5776C7.87812 16.2936 7.88279 16.0468 7.87512 15.8372C7.85561 15.3192 7.55251 15.0101 7.08584 14.9816C6.99981 14.9762 6.91745 14.9733 6.83876 14.9729C5.8114 14.9665 4.7612 14.9636 3.68816 14.9643C3.49343 14.9643 3.28602 14.9207 3.06595 14.8335C2.50725 14.6116 2.28167 14.0236 2.28117 13.4178C2.27784 10.7352 2.277 8.10652 2.27867 5.53191C2.27867 5.27183 2.29468 5.01605 2.3697 4.76943C2.49608 4.35301 2.757 4.07624 3.15248 3.93911C3.32053 3.88095 3.51227 3.8499 3.72768 3.84595C4.86107 3.82495 5.95445 3.86211 7.06684 3.82872C7.35344 3.81957 7.60603 3.7248 7.75258 3.44102C7.81293 3.32328 7.84894 3.19171 7.86061 3.04632C7.89062 2.66329 7.88379 2.33949 7.84011 2.07492C7.76358 1.61291 7.39495 1.4056 6.98931 1.40775C5.98663 1.4135 4.98395 1.4126 3.98126 1.40506C3.58479 1.40219 3.26585 1.42175 3.02443 1.46375C2.21882 1.60376 1.52491 2.00815 0.942706 2.67693Z" fill="currentColor"/>
<path d="M9.81629 12.9101C9.8203 13.8377 9.81946 14.6989 9.81379 15.4936C9.81029 15.9088 9.88632 16.325 10.1294 16.6185C10.4609 17.0181 10.8648 17.1204 11.3413 16.9254C11.4957 16.8623 11.6384 16.7603 11.7695 16.6196C13.6828 14.5612 15.6402 12.4538 17.6415 10.2974C17.9796 9.93285 18.1317 9.40514 17.9131 8.92967C17.8291 8.74659 17.7129 8.57518 17.5645 8.41543C15.5288 6.22493 13.6074 4.1563 11.8005 2.20954C11.387 1.76405 10.9303 1.66856 10.4305 1.92308C9.93484 2.17562 9.81129 2.69201 9.81529 3.23587C9.82096 4.08019 9.82146 4.96885 9.81679 5.90184C9.81679 5.92123 9.80779 5.93092 9.78979 5.93092C8.47099 5.93631 7.1477 5.93559 5.8199 5.92877C5.4181 5.92661 5.14784 5.94941 5.00912 5.99715C4.64066 6.12423 4.40074 6.36726 4.28937 6.72624C4.23402 6.90466 4.20784 7.21643 4.21084 7.66157C4.21918 8.9679 4.22018 10.2543 4.21385 11.5208C4.21184 11.9304 4.30938 12.2472 4.50645 12.4712C4.78404 12.7867 5.10566 12.8831 5.5078 12.8821C7.01632 12.8781 8.44332 12.8776 9.78878 12.8804C9.80712 12.8804 9.81629 12.8903 9.81629 12.9101Z" fill="currentColor"/>
</svg>
