<svg width="18" height="18" viewBox="0 0 18 18" fill="none" xmlns="http://www.w3.org/2000/svg">
<path d="M8.5 7.5C9.32843 7.5 10 6.82837 10 6C10 5.17163 9.32843 4.5 8.5 4.5C7.67157 4.5 7 5.17163 7 6C7 6.82837 7.67157 7.5 8.5 7.5Z" fill="currentColor"/>
<path fill-rule="evenodd" clip-rule="evenodd" d="M9.06672 0.0114459L16.4317 2.42767C16.4495 2.43339 16.4597 2.44503 16.4622 2.46258C16.6627 3.86164 16.8057 5.1701 16.891 6.38794C16.9751 7.58746 17.0106 8.46479 16.9973 9.01991C16.9749 9.9516 16.914 10.7625 16.6791 11.6422C16.6262 11.839 16.5312 12.0948 16.4143 12.2665C15.9569 12.9413 15.3776 13.4592 14.7312 13.9805C13.8083 14.7245 12.8804 15.4433 11.9046 16.1106C10.9632 16.755 10.0114 17.38 9.04932 17.9855C9.03431 17.9949 9.01655 18 8.99835 18C8.98016 18 8.96239 17.9949 8.94739 17.9855C8.00434 17.3926 7.05839 16.772 6.10954 16.1238C5.0772 15.4187 4.07779 14.641 3.12749 13.8667C2.72599 13.5401 2.40943 13.2532 2.17781 13.0059C2.05268 12.8724 1.93149 12.7339 1.81423 12.5904C1.58634 12.3119 1.42702 12.017 1.33628 11.7057C1.08705 10.8484 1.0162 9.93215 1.0019 9.05768C0.991128 8.41824 1.02614 7.52241 1.10694 6.37019C1.18898 5.19585 1.33089 3.89369 1.53268 2.46372C1.53516 2.44579 1.54552 2.43396 1.56375 2.42824L8.92999 0.0114459C8.97556 -0.00381529 9.02114 -0.00381529 9.06672 0.0114459ZM11.5 6C11.5 7.39783 10.5439 8.57251 9.25 8.90552V10H10.25C10.6642 10 11 10.3358 11 10.75C11 11.1642 10.6642 11.5 10.25 11.5H9.25V12.5H10.25C10.6642 12.5 11 12.8358 11 13.25C11 13.6642 10.6642 14 10.25 14H8.5C8.08579 14 7.75 13.6642 7.75 13.25V8.90552C6.45605 8.57251 5.5 7.39783 5.5 6C5.5 4.34314 6.84314 3 8.5 3C10.1569 3 11.5 4.34314 11.5 6Z" fill="currentColor"/>
</svg>
