<svg width="18" height="18" viewBox="0 0 18 18" fill="none" xmlns="http://www.w3.org/2000/svg">
<path fill-rule="evenodd" clip-rule="evenodd" d="M4 1C4 0.447715 4.44772 0 5 0H13C13.5523 0 14 0.447715 14 1V10C14 10.5523 13.5523 11 13 11H5C4.44772 11 4 10.5523 4 10V1ZM9.43621 7.79L9.4382 7.84041C9.44737 8.06186 9.45702 8.29486 9.23704 8.4302C9.09006 8.52096 8.93834 8.52321 8.7819 8.43695C8.64773 8.36312 8.57591 8.25596 8.56644 8.11546C8.55976 8.01226 8.55865 7.90894 8.5631 7.80548C8.56394 7.78934 8.55586 7.78021 8.53888 7.77809C8.48906 7.77174 8.44438 7.7601 8.40485 7.74316C7.88374 7.52063 7.58491 7.14252 7.50836 6.60881C7.4911 6.48895 7.50057 6.38549 7.53675 6.29844C7.58352 6.18677 7.66912 6.11216 7.79355 6.07458C8.00539 6.01108 8.17464 6.06598 8.3013 6.2393C8.35207 6.30845 8.36571 6.40278 8.3781 6.48846V6.48846L8.38188 6.51435C8.40109 6.64427 8.45189 6.74932 8.53429 6.82949C8.72108 7.01127 8.92944 7.06128 9.15937 6.97952C9.28839 6.93388 9.42034 6.81878 9.48089 6.69772C9.59502 6.46778 9.54951 6.25504 9.34435 6.0595C9.21298 5.93429 9.05034 5.92003 8.88136 5.90521L8.88133 5.90521C8.85803 5.90316 8.83461 5.90111 8.81113 5.89876C8.71871 5.88949 8.63116 5.87097 8.54849 5.84319C8.11785 5.69766 7.81067 5.43557 7.62695 5.05692C7.51671 4.82937 7.47969 4.5772 7.51588 4.30043C7.58686 3.76183 7.96308 3.33476 8.49755 3.14107C8.51508 3.13472 8.52316 3.12268 8.52176 3.10496C8.50339 2.85689 8.52552 2.6513 8.79777 2.53461C8.8977 2.49174 8.99652 2.4887 9.09423 2.52548C9.38026 2.63343 9.40781 2.83427 9.39612 3.08948C9.39589 3.09545 9.39779 3.10132 9.4015 3.10615C9.40521 3.11097 9.41053 3.11447 9.41658 3.11607C9.58221 3.16184 9.72363 3.22376 9.84082 3.30182C10.0847 3.46376 10.2673 3.67927 10.3887 3.94837C10.453 4.09073 10.49 4.26418 10.4997 4.46871C10.5022 4.51475 10.4876 4.60882 10.4659 4.64891C10.3578 4.84696 10.1168 4.95968 9.89468 4.85887C9.72905 4.78399 9.64178 4.67087 9.63288 4.51952C9.62077 4.30598 9.5477 4.11785 9.35103 3.99838C9.15979 3.88249 8.95226 3.85788 8.74557 3.94758C8.4537 4.07419 8.30505 4.39132 8.41487 4.67748C8.51884 4.94857 8.75351 5.06248 9.04371 5.08113C9.21713 5.09251 9.37775 5.12744 9.52557 5.18592C9.87422 5.32364 10.1715 5.61299 10.306 5.94162C10.4591 6.3155 10.4518 6.67973 10.2843 7.03429C10.1442 7.33038 9.90137 7.56323 9.55563 7.73284C9.52696 7.74687 9.49648 7.75573 9.46418 7.75944C9.44498 7.76155 9.43565 7.77174 9.43621 7.79ZM3 4.5C3 4.22386 2.77614 4 2.5 4H1.5C0.671631 4 0 4.67163 0 5.5V13.5C0 13.7761 0.223858 14 0.5 14H17.5C17.7761 14 18 13.7761 18 13.5V5.5C18 4.67163 17.3284 4 16.5 4H15.5C15.2239 4 15 4.22386 15 4.5V10.5C15 11.3284 14.3284 12 13.5 12H4.5C3.67163 12 3 11.3284 3 10.5V4.5ZM0 15.5C0 15.2239 0.223858 15 0.5 15H17.5C17.7761 15 18 15.2239 18 15.5C18 16.8807 16.8807 18 15.5 18H2.5C1.11929 18 0 16.8807 0 15.5Z" fill="currentColor"/>
</svg>
