<svg width="18" height="18" viewBox="0 0 18 18" fill="none" xmlns="http://www.w3.org/2000/svg">
<path d="M8.62546 1.79018C9.30265 1.42057 9.93069 1.07302 10.5096 0.747516C10.9582 0.495406 11.3451 0.296152 11.6701 0.149753C11.8473 0.0698995 12.0685 0.0077272 12.2666 0.00145297C12.5336 -0.00691268 12.8068 0.0208464 13.0859 0.0847295C13.2906 0.131881 13.4803 0.220101 13.6549 0.349388C13.776 0.439128 13.8902 0.534193 13.9977 0.63458C14.0942 0.723941 14.1703 0.823948 14.2261 0.934602C14.5929 1.66241 14.9468 2.36209 15.2876 3.03362C15.2975 3.05263 15.292 3.06214 15.271 3.06214H6.32148C6.32061 3.06236 6.31968 3.06222 6.31891 3.06174C6.31813 3.06126 6.31758 3.06048 6.31736 3.05957C6.31714 3.05866 6.31728 3.0577 6.31774 3.0569C6.3182 3.0561 6.31896 3.05552 6.31983 3.05529C7.13386 2.60659 7.9024 2.18489 8.62546 1.79018Z" fill="currentColor"/>
<path d="M11.8588 9.72138C11.7367 9.96474 11.686 10.2459 11.707 10.565C11.7328 10.9608 11.8363 11.3806 12.0602 11.6909C12.2506 11.9544 12.4676 12.1389 12.7112 12.2442C12.9786 12.36 13.3605 12.3868 13.6637 12.3868C15.0918 12.3883 16.5262 12.3883 17.9668 12.3868C17.987 12.3868 17.9971 12.3974 17.9971 12.4187C17.9967 13.6253 17.9963 14.8296 17.996 16.0315C17.996 16.2181 17.9729 16.4456 17.9239 16.6265C17.7394 17.3025 17.3415 17.732 16.7304 17.915C16.5374 17.9731 16.2146 18.0015 15.7619 17.9999C11.2941 17.9866 6.82223 17.9855 2.34635 17.9965C1.88375 17.9977 1.54534 17.967 1.3311 17.9047C0.812016 17.7533 0.42481 17.4115 0.169486 16.8791C0.0575982 16.6464 0.00183765 16.3456 0.0022045 15.9768C0.00403873 12.7971 0.00330498 9.55159 3.37587e-06 6.24032C-0.00036347 5.84219 0.0291676 5.53875 0.0885966 5.32999C0.247074 4.76949 0.604932 4.37155 1.16217 4.13617C1.38998 4.03978 1.67612 4.0027 1.92484 4.00327C6.64247 4.00365 11.3495 4.00365 16.0458 4.00327C16.6544 4.00327 17.1381 4.19473 17.4969 4.57765C17.6928 4.78641 17.8346 5.05221 17.9222 5.37505C17.9765 5.5743 18.0024 5.85949 17.9998 6.23062C17.9943 7.10864 17.9938 7.91364 17.9982 8.64563C17.9982 8.65093 17.9961 8.656 17.9925 8.65975C17.9889 8.66349 17.984 8.6656 17.9789 8.6656C16.5328 8.66636 15.0667 8.66541 13.5806 8.66274C12.7871 8.66122 12.2132 9.0141 11.8588 9.72138Z" fill="currentColor"/>
<path d="M13.4964 11.4514C13.9909 11.4514 14.3917 11.0359 14.3917 10.5233C14.3917 10.0108 13.9909 9.59532 13.4964 9.59532C13.002 9.59532 12.6011 10.0108 12.6011 10.5233C12.6011 11.0359 13.002 11.4514 13.4964 11.4514Z" fill="currentColor"/>
</svg>
