<svg width="20" height="20" viewBox="0 0 20 20" fill="none" xmlns="http://www.w3.org/2000/svg">
<path d="M2.00754 16.498C1.99403 16.5227 1.98114 16.5462 1.96825 16.5675C1.98158 16.6051 1.99024 16.6398 1.99804 16.6711C2.01256 16.7293 2.02411 16.7756 2.05714 16.8067C2.08503 16.8344 2.11292 16.8623 2.14087 16.8903L2.14097 16.8904C2.34212 17.0917 2.54686 17.2965 2.78095 17.4645C2.86984 17.5243 3.08572 17.5004 3.2127 17.4526C3.29819 17.4257 3.36947 17.352 3.44248 17.2766C3.46707 17.2511 3.49186 17.2255 3.51746 17.2014C8.17778 12.8118 12.8381 8.42213 17.4857 4.0325C18.1079 3.44642 18.1079 3.38661 17.4857 2.80053C17.0667 2.40583 16.8889 2.39386 16.4571 2.80053C13.5286 5.56699 10.5943 8.32813 7.65823 11.091C6.1894 12.4732 4.7201 13.8558 3.25079 15.2398L3.25069 15.2399C2.88247 15.5867 2.51425 15.9336 2.15873 16.2804C2.0924 16.3429 2.04728 16.4253 2.00754 16.498Z" fill="#67707B"/>
<path d="M0 9.80959C0.0761905 9.64214 0.149206 9.47469 0.222222 9.30723C0.295238 9.13978 0.368254 8.97233 0.444445 8.80488C1.35873 6.87918 2.80635 5.37212 4.73651 4.31956C6.71746 3.23113 8.87619 2.78858 11.1746 3.05171C11.7265 3.11041 12.2659 3.22788 12.8104 3.34644C13.0426 3.39701 13.2757 3.44778 13.5111 3.49427C13.5238 3.53015 13.5365 3.56603 13.5365 3.60191C13.45 3.67933 13.3635 3.75536 13.2775 3.83095L13.2773 3.83106C13.1109 3.97729 12.9463 4.12195 12.7873 4.27172C12.4317 4.59466 12.0762 4.92957 11.7333 5.26447C11.5937 5.408 11.454 5.41996 11.2889 5.38408C10.6286 5.21663 9.96826 5.16878 9.29524 5.26447C8.30476 5.39604 7.42857 5.75486 6.69207 6.37683C5.16826 7.68056 4.63492 9.29527 5.10476 11.1851C5.15556 11.3884 5.11746 11.508 4.96508 11.6516C4.44915 12.1296 3.93886 12.6129 3.4267 13.0979L3.42626 13.0983L3.42552 13.099C3.16912 13.3419 2.91225 13.5851 2.65397 13.8284C2.61679 13.8635 2.5796 13.8921 2.53246 13.9283C2.51522 13.9416 2.49658 13.956 2.47619 13.972C1.29524 12.8716 0.533333 11.5559 0 10.1086V9.80959Z" fill="#67707B"/>
<path d="M20 10.0488C19.5937 11.2329 18.9968 12.3094 18.1714 13.2782C16.8127 14.881 15.0857 15.9934 12.9905 16.5794C11.6698 16.9622 10.2984 17.0938 8.92698 16.9263C8.32399 16.8553 7.72099 16.7316 7.12318 16.609C6.91528 16.5664 6.70801 16.5239 6.50158 16.4838C6.47619 16.4359 6.45079 16.3881 6.43809 16.3283C6.54242 16.2403 6.65149 16.1546 6.76019 16.0693C6.90286 15.9572 7.04486 15.8456 7.1746 15.7302C7.55555 15.3953 7.92381 15.0485 8.26666 14.6896C8.40635 14.5581 8.53333 14.5222 8.71111 14.57C9.61269 14.8332 10.527 14.7973 11.4159 14.5461C12.8127 14.1514 13.854 13.3381 14.527 12.1061C15.1111 11.0176 15.2 9.86941 14.8952 8.69725C14.8698 8.61352 14.8952 8.46999 14.9587 8.41019C15.7841 7.62077 16.6095 6.84331 17.4476 6.06586C17.4603 6.0539 17.473 6.04792 17.4952 6.03745C17.5175 6.02699 17.5492 6.01204 17.6 5.98213C17.7271 6.14429 17.8621 6.3027 17.9973 6.4614L17.9976 6.46175C18.2813 6.79457 18.566 7.1287 18.781 7.50116C19.0903 8.01109 19.3531 8.54841 19.6167 9.08717C19.7426 9.34451 19.8687 9.60227 20 9.85745V10.0488Z" fill="#67707B"/>
<path d="M6.45079 10.0727C6.3619 9.30725 6.66666 8.56568 7.1873 7.89587C7.83492 7.05861 9.13016 6.52038 10.0952 6.63999C9.69978 7.01247 9.30014 7.39021 8.89817 7.77015L8.89783 7.77048C8.08659 8.53726 7.26585 9.31302 6.45079 10.0727Z" fill="#67707B"/>
<path d="M9.84127 13.3261C11.8095 13.5773 13.8159 11.6875 13.4857 9.7498C12.6357 10.5267 11.808 11.293 10.9841 12.0558C10.5649 12.444 10.1467 12.8312 9.72698 13.2184L9.84127 13.3261Z" fill="#67707B"/>
</svg>
