<svg width="16" height="48" viewBox="0 0 16 48" fill="none" xmlns="http://www.w3.org/2000/svg">
<path d="M12.5963 4.04811L12.3539 4.58699L12.0595 5.11819L11.7098 5.6448L11.3097 6.15916L10.8583 6.66353L10.3588 7.1549L9.80793 7.63552L9.21279 8.10003L9.18561 8.11919L9.05507 8.18819L9.04809 8.19049L8.99602 8.18359L8.96651 8.13989L8.83986 7.25683L8.80724 6.9027L8.79092 6.54778V6.19365L8.80879 5.8395L8.84297 5.49149L8.89504 5.1458L8.96262 4.81158L9.04731 4.48196L9.14754 4.16155L9.26408 3.84803L9.39537 3.54678L9.5422 3.25319L9.70537 2.97034L9.88406 2.69515L10.076 2.43453L10.2834 2.18387L10.7224 1.71858L11.1862 1.29316L11.6764 0.909125L12.1915 0.565698L12.7206 0.269056L13.2746 0.0114906L13.3165 0L13.346 0.0069056L13.3616 0.0321887L13.3647 0.0758868L13.2373 1.43036L13.1402 2.11336L13.0011 2.77794L12.8193 3.4226L12.5963 4.04811Z" fill="#3BC116"/>
<path d="M7.80421 3.41876L7.60611 3.99827L7.45849 4.5655L7.36215 5.12278L7.3171 5.6678L7.29921 6.50715L7.31863 7.1909L7.37768 7.79725L7.47869 8.35222L7.46782 8.3936L7.42819 8.40971L7.41344 8.40588L7.01098 8.20734L6.64505 7.97737L6.31485 7.71599L6.02195 7.4224L5.84714 7.2093L5.63738 6.88736L5.46801 6.52939L5.33981 6.13231L5.25436 5.70382L5.21084 5.23776V4.74411L5.25436 4.21749L5.33903 3.67095L5.44081 3.1865L5.57211 2.65989L5.72516 2.13864L5.89997 1.62199L6.09575 1.10995L6.09809 1.10535L6.14704 1.06318L6.21152 1.06932L6.52384 1.25252L6.81908 1.45336L7.09567 1.67258L7.35439 1.90868L7.64961 2.22448L7.91766 2.56789L7.98213 2.69592L8.00078 2.81013L7.98835 2.94044L7.94717 3.08226L7.8687 3.26775L7.80421 3.41876Z" fill="#3BC116"/>
<path d="M13.9699 5.66935L13.6941 5.66168L13.6164 5.66782L13.5107 5.69463L13.4812 5.71073L13.4602 5.73526L12.984 6.4581L12.465 7.13497L12.19 7.45614L11.9041 7.76583L11.6073 8.06479L11.3004 8.35147L10.8024 8.77461L10.278 9.17013L10.2267 9.21613L10.2142 9.25446L10.2407 9.28512L10.3059 9.30735L10.8777 9.40163L11.4503 9.43612L11.9095 9.41926L12.1379 9.39319L12.3632 9.35103L12.5924 9.29202L12.8185 9.21842L13.28 9.01836L13.7368 8.75544L14.196 8.42659L14.6419 8.04025L15.0762 7.59719L15.4834 7.11197L15.9884 6.44278L16 6.39142L15.9705 6.34849L15.9682 6.34696L15.6753 6.18446L15.387 6.04495L15.0933 5.92306L14.8074 5.82648L14.5277 5.75212L14.2442 5.69924L13.9699 5.66935Z" fill="#3BC116"/>
<path d="M6.0942 15.1476L5.57677 15.071L5.14791 14.9705L4.80763 14.8471L4.67322 14.7774L4.55746 14.6992L4.04779 14.3113L3.51637 13.9334L3.28562 13.7425L3.0743 13.5026L2.88396 13.2113L2.72002 12.8771L2.58094 12.4954L2.4714 12.0807L2.39371 11.6353L2.35176 11.1869L2.33389 10.6833V10.185L2.35176 9.69062L2.38827 9.20156L2.44187 8.71635L2.51414 8.23573L2.60503 7.75971L2.71304 7.28827L2.71457 7.2829L2.734 7.24841L2.76508 7.22388L2.80393 7.21392L2.84355 7.22006L3.21493 7.36723L3.56765 7.5328L3.89474 7.71294L4.20317 7.91225L4.48986 8.1284L4.75711 8.36373L4.99797 8.61286L5.21782 8.88038L5.46723 9.24679L5.68089 9.64385L5.8557 10.0654L5.99399 10.517L6.10509 11.0045L6.19132 11.5089L6.25347 12.0324L6.29076 12.5736L6.30476 13.1401L6.29543 13.7334L6.26203 14.3704L6.20454 15.0595L6.19443 15.1024L6.17267 15.1315L6.13927 15.1461L6.0942 15.1476Z" fill="#3BC116"/>
<path d="M8.66274 31.458L8.61689 31.8651L8.59514 31.964L8.5594 31.8689L8.23621 30.3006L7.97437 28.743L7.91222 28.1857L7.92077 28.1489L7.9534 28.1297L8.11034 28.0929L8.49724 27.9979L8.76761 27.9143L8.99913 27.8193L9.19414 27.7089L9.4956 27.5188L9.80559 27.3425L9.94544 27.2697L10.2492 27.0949L10.5258 26.8964L10.807 26.6442L11.0603 26.3621L11.2903 26.0448L11.5039 25.6829L11.678 25.3365L11.8365 24.9792L11.9787 24.6105L12.1053 24.2303L12.2156 23.8394L12.3104 23.437L12.3889 23.023L12.4518 22.5984L12.451 22.5424L12.4316 22.5018L12.3943 22.475L12.3391 22.4635L11.7479 22.4466L11.1466 22.4727L10.8739 22.5148L10.6167 22.5938L10.5351 22.6283L10.0534 22.8306L9.58805 22.9908L9.3876 23.0721L9.32933 23.1043L9.05198 23.2936L8.79015 23.5221L8.55551 23.7796L8.33953 24.074L8.14763 24.399L7.97826 24.7554L7.83141 25.1456L7.711 25.5595L7.68303 25.65L7.66049 25.6791L7.6434 25.6469L7.63098 25.5534L7.61931 25.1525L7.60922 24.7646L7.57038 24.0809L7.54707 23.3619V21.8203L7.5626 21.7874L7.59758 21.7743L8.02564 21.7636L8.42344 21.7146L8.78315 21.6272L9.11334 21.5007L9.50336 21.3359L9.91202 21.1964L10.1405 21.1136L10.3588 21.0086L10.5716 20.8806L10.7861 20.7242L10.9904 20.5486L11.1939 20.3463L11.396 20.1179L11.5917 19.8664L11.6539 19.7806L11.8707 19.464L12.0727 19.1367L12.2599 18.8002L12.4339 18.4545L12.594 18.098L12.7393 17.7324L12.8706 17.356L12.9879 16.9704L12.9793 16.9053L12.9265 16.8647L12.6484 16.801L12.3694 16.7527L12.0991 16.7221L11.8287 16.7083L11.5638 16.7106L11.2996 16.7305L11.0456 16.7673L10.7931 16.821L10.2958 16.9206L10.0861 16.962L9.73101 17.0793L9.38993 17.2525L9.06207 17.4832L8.75441 17.7692L8.46462 18.1103L8.20045 18.5004L7.95962 18.9397L7.75218 19.4126L7.72265 19.4571L7.70323 19.4073L7.70012 19.3835L7.69778 19.2003L7.88504 17.4273L8.10956 15.6037L8.12509 15.5554L8.15774 15.5163L8.20279 15.4918L8.2533 15.4841L8.51046 15.4971L8.95253 15.5163L9.27028 15.5117L9.55465 15.4834L9.81026 15.4289L10.2313 15.3277L10.6781 15.2534L10.9477 15.202L11.1621 15.1369L11.3672 15.0525L11.5739 14.946L11.7743 14.821L12.2078 14.4968L12.6188 14.1266L13.0081 13.7111L13.3756 13.2496L13.6972 12.7905L13.98 12.3428L14.2224 11.9051L14.426 11.4782L14.4291 11.4445L14.4034 11.4207L13.9885 11.2513L13.5496 11.1148L13.099 11.0167L12.6554 10.9608L12.2195 10.9462L11.8031 10.9723L11.3998 11.0413L11.0254 11.1493L10.8342 11.2237L10.504 11.387L10.1871 11.5901L9.88095 11.8346L9.58961 12.1182L9.30913 12.4448L9.03644 12.815L8.76528 13.2366L8.47471 13.7433L8.42577 13.8077L8.42733 13.7272L8.60914 12.7476L8.80801 11.7649L9.25475 9.78642L9.29748 9.49283L9.29204 9.36712L9.27028 9.25444L9.17939 9.04288L9.11645 8.95548L9.04342 8.88036L8.93544 8.80447L8.81035 8.74852L8.66816 8.71173L8.50813 8.6941L8.44753 8.69486L8.33566 8.71326L8.23076 8.75235L8.12743 8.81368L8.03342 8.89187L7.94408 8.99227L7.8695 9.1042L7.80812 9.22991L7.76694 9.35868L7.45073 10.7277L7.16171 12.1098L6.90066 13.5049L6.66682 14.9123L6.40421 16.7903L6.20609 18.6331L6.07246 20.4413L6.02973 21.332L6.00332 22.2143L5.99633 23.0943L6.01186 24.005L6.04915 24.9455L6.1082 25.9167L6.2162 27.1639L6.3607 28.4034L6.54173 29.6367L6.75927 30.8624L7.00944 32.0636L7.29456 33.2571L7.61622 34.4445L7.97282 35.625L8.30535 36.6337L8.66585 37.6509L9.04887 38.6658L9.45909 39.6884L9.89338 40.714L10.3557 41.7466L10.8397 42.776L11.3493 43.8109L12.1744 45.3938L13.2023 47.2741L13.2318 47.327L13.3756 47.5769L13.4898 47.7386L13.6071 47.8567L13.7306 47.9356L13.8308 47.9732L13.9451 47.9946L14.0655 48L14.2022 47.9885L14.412 47.931L14.5107 47.8796L14.5969 47.816L14.6886 47.7233L14.7616 47.6167L14.8144 47.4994L14.8463 47.3745L14.8556 47.2442L14.8424 47.1123L14.8074 46.9889L14.7507 46.8686L13.8643 45.291L13.0283 43.712L12.242 42.1306L11.5071 40.5477L11.5039 40.4733L11.5529 40.4166L11.9895 40.1637L12.4021 39.8731L12.7804 39.5512L13.1153 39.2078L13.409 38.8391L13.6545 38.455L13.858 38.048L14.0103 37.631L14.1261 37.1887L14.2115 36.7203L14.2651 36.2374L14.2884 35.7338L14.2815 35.2118L14.2434 34.676L14.1742 34.1218L14.0748 33.5607L14.0585 33.5323L14.0259 33.5292L13.475 33.668L13.0166 33.8328L12.81 33.9294L12.6258 34.0329L12.4565 34.1455L12.298 34.272L11.9452 34.5679L11.5824 34.8416L11.3408 35.0462L11.1264 35.2969L10.9407 35.5935L10.7868 35.9308L10.6641 36.3141L10.5755 36.7303L10.5204 37.1833L10.5017 37.6517L10.5211 37.8924L10.5794 38.1998V38.2044L10.574 38.2082L10.546 38.2159L10.5382 38.2151L10.5336 38.2097L9.98585 36.7556L9.49171 35.2846L9.24466 34.4775L9.24077 34.433L9.25397 34.3901L9.28272 34.3556L9.32313 34.3349L9.65874 34.2168L9.96642 34.0704L10.2461 33.8972L10.4978 33.6963L10.8467 33.3997L11.3408 33.0157L11.4332 32.9451L11.6562 32.7366L11.8536 32.4722L12.096 32.0444L12.3042 31.5822L12.4805 31.0832L12.6204 30.5543L12.726 29.9886L12.796 29.3961L12.8309 28.7698L12.8302 28.1198V28.1182L12.8061 28.0669L12.7517 28.0485L12.3648 28.0814L11.9833 28.1412L11.6663 28.2133L11.3524 28.3037L11.1108 28.4103L10.783 28.6027L9.98894 29.0457L9.73101 29.2382L9.50802 29.4643L9.3037 29.7287L9.12656 30.0185L8.97118 30.342L8.84221 30.69L8.73888 31.0641L8.66274 31.458Z" fill="#3BC116"/>
<path d="M2.72235 21.0806L2.65941 21.0515L2.431 20.9227L2.21813 20.7618L2.02078 20.5701L1.839 20.347L1.63154 20.0343L1.44431 19.6917L1.27882 19.3214L1.13587 18.9228L1.01467 18.4951L0.915221 18.0405L0.835195 17.5484L0.776148 17.0226L0.733413 16.4676L0.709343 15.9303L0.703121 15.4105L0.714768 14.9084L0.729544 14.7689L0.762946 14.6279L0.781592 14.5965L0.817327 14.5781L0.923775 14.565L1.02167 14.5727L1.50569 14.6839L1.91669 14.8257L2.27328 15.002L2.42945 15.1024L2.57552 15.2158L2.94611 15.5079L3.32913 15.7654L3.49616 15.8789L3.65077 16.0054L3.80073 16.1502L3.93823 16.3066L4.07032 16.4806L4.19929 16.6769L4.43314 17.1153L4.64213 17.599L4.82783 18.1126L4.99175 18.6568L5.13082 19.2271L5.24658 19.8227L5.33747 20.4429L5.40585 21.0929L5.45014 21.7651L5.42839 21.8242L5.37012 21.8495H5.36701L4.90007 21.8265L4.40361 21.7774L4.06255 21.7169L3.7712 21.6187L3.57152 21.516L3.15899 21.2876L2.72235 21.0806Z" fill="#3BC116"/>
<path d="M3.00903 22.9924L2.77206 22.8751L2.30669 22.6612L1.89569 22.4198L1.63543 22.281L1.33009 22.1814L0.975045 22.1147L0.473154 22.0641L0.0745818 22.0265L0.014757 22.0396L0 22.097L0.0994487 22.9778L0.247835 23.8294L0.445955 24.6504L0.693012 25.4415L0.852285 25.8585L1.0302 26.2509L1.22366 26.6112L1.43342 26.9423L1.66108 27.2459L1.90191 27.5165L2.16297 27.7603L2.43567 27.9695L2.5895 28.0577L2.741 28.1144L3.26153 28.2692L3.79762 28.4601L4.08664 28.5483L4.37487 28.5889L4.73458 28.6012L5.07955 28.5919L5.40972 28.5621L5.72516 28.5099L5.75547 28.49L5.76323 28.454L5.58842 27.6453L5.36701 26.8573L5.09897 26.09L4.78509 25.3434L4.61339 24.9831L4.40672 24.5921L4.18529 24.2257L3.95843 23.8984L3.7238 23.6071L3.48839 23.3603L3.24833 23.1541L3.00903 22.9924Z" fill="#3BC116"/>
<path d="M2.42012 29.659L2.63921 29.7571L2.8684 29.8422L3.35398 29.9717L3.52801 30.02L3.69973 30.0906L3.87685 30.1841L4.06332 30.3044L4.25522 30.4501L4.45179 30.6187L4.86743 31.0365L5.18753 31.4075L5.49675 31.8099L5.79587 32.2476L6.08333 32.7152L6.36148 33.2188L6.62873 33.7546L6.88977 34.3326L7.14383 34.9489L7.15858 35.011L7.14927 35.0616L7.11587 35.1014L7.05838 35.1306L6.59067 35.2693L6.10586 35.3728L5.86812 35.3981L5.61406 35.3942L5.3367 35.3621L4.94979 35.2923L4.59551 35.2279L4.32669 35.1934L4.15888 35.1704L3.99495 35.1306L3.6601 35.0018L3.32058 34.8048L2.98494 34.5442L2.64544 34.213L2.3168 33.8259L2.00369 33.3874L1.71312 32.9084L1.35418 32.2062L1.02943 31.4512L0.739635 30.6425L0.483245 29.7809L0.478579 29.7632L0.467711 29.6736L0.47471 29.5793L0.497225 29.5379L0.541515 29.5195L1.26795 29.4965L1.95009 29.5249L2.1855 29.5685L2.42012 29.659Z" fill="#3BC116"/>
<path d="M6.01653 37.2631L5.72129 37.1075L5.46259 37.0002L5.24971 36.9511L4.58621 36.8591L3.94447 36.7257L3.68575 36.6828H3.43947L2.79695 36.7679L2.19017 36.9028L2.15365 36.9212L2.12723 36.9519L2.11481 36.9902L2.11792 37.03L2.25155 37.3865L2.61903 38.1178L3.01683 38.8138L3.44489 39.4761L3.90407 40.1039L4.23971 40.5063L4.58388 40.862L4.94436 41.1786L5.31107 41.4453L5.691 41.6684L6.07246 41.8424L6.46404 41.9712L6.86959 42.0547L7.10578 42.0815L7.34585 42.0915L7.58358 42.0861L7.82521 42.0654L8.07071 42.0287L8.32088 41.975L8.81812 41.8225L9.20892 41.6576L9.60281 41.4476L9.63778 41.4024L9.63001 41.3464L9.53445 41.1824L9.20425 40.6481L8.85308 40.1261L8.48093 39.6156L8.08704 39.1181L7.79181 38.7724L7.49502 38.452L7.20134 38.1615L6.9061 37.897L6.61011 37.6586L6.31643 37.4493L6.01653 37.2631Z" fill="#3BC116"/>
</svg>
