<svg width="16" height="48" viewBox="0 0 16 48" fill="none" xmlns="http://www.w3.org/2000/svg">
<path d="M3.4037 4.04811L3.64611 4.58699L3.94055 5.11819L4.29016 5.6448L4.69029 6.15916L5.14169 6.66353L5.64125 7.1549L6.19207 7.63552L6.78721 8.10003L6.81439 8.11919L6.94493 8.18819L6.95191 8.19049L7.00398 8.18359L7.03349 8.13989L7.16014 7.25683L7.19276 6.9027L7.20908 6.54778V6.19365L7.19121 5.8395L7.15703 5.49149L7.10496 5.1458L7.03738 4.81158L6.95269 4.48196L6.85246 4.16155L6.73592 3.84803L6.60463 3.54678L6.4578 3.25319L6.29463 2.97034L6.11594 2.69515L5.92404 2.43453L5.71661 2.18387L5.27765 1.71858L4.81381 1.29316L4.32358 0.909125L3.80847 0.565698L3.27938 0.269056L2.72544 0.0114906L2.68349 0L2.65397 0.0069056L2.63842 0.0321887L2.63531 0.0758868L2.76273 1.43036L2.85985 2.11336L2.99892 2.77794L3.18071 3.4226L3.4037 4.04811Z" fill="#3BC116"/>
<path d="M8.19579 3.41876L8.39389 3.99827L8.54151 4.5655L8.63785 5.12278L8.6829 5.6678L8.70079 6.50715L8.68137 7.1909L8.62232 7.79725L8.52131 8.35222L8.53218 8.3936L8.57181 8.40971L8.58656 8.40588L8.98902 8.20734L9.35495 7.97737L9.68515 7.71599L9.97805 7.4224L10.1529 7.2093L10.3626 6.88736L10.532 6.52939L10.6602 6.13231L10.7456 5.70382L10.7892 5.23776V4.74411L10.7456 4.21749L10.661 3.67095L10.5592 3.1865L10.4279 2.65989L10.2748 2.13864L10.1 1.62199L9.90425 1.10995L9.90191 1.10535L9.85296 1.06318L9.78848 1.06932L9.47616 1.25252L9.18092 1.45336L8.90433 1.67258L8.64561 1.90868L8.35039 2.22448L8.08234 2.56789L8.01787 2.69592L7.99922 2.81013L8.01165 2.94044L8.05283 3.08226L8.1313 3.26775L8.19579 3.41876Z" fill="#3BC116"/>
<path d="M2.0301 5.66935L2.30591 5.66168L2.3836 5.66782L2.48927 5.69463L2.51879 5.71073L2.53977 5.73526L3.01603 6.4581L3.53501 7.13497L3.81005 7.45614L4.09595 7.76583L4.39274 8.06479L4.69962 8.35147L5.19762 8.77461L5.72205 9.17013L5.77334 9.21613L5.78576 9.25446L5.75934 9.28512L5.69409 9.30735L5.12226 9.40163L4.54968 9.43612L4.09051 9.41926L3.86209 9.39319L3.63679 9.35103L3.40759 9.29202L3.18151 9.21842L2.72002 9.01836L2.26318 8.75544L1.80402 8.42659L1.35806 8.04025L0.923757 7.59719L0.516648 7.11197L0.0116463 6.44278L0 6.39142L0.0295143 6.34849L0.031847 6.34696L0.32475 6.18446L0.612986 6.04495L0.906666 5.92306L1.19257 5.82648L1.47227 5.75212L1.75584 5.69924L2.0301 5.66935Z" fill="#3BC116"/>
<path d="M9.9058 15.1476L10.4232 15.071L10.8521 14.9705L11.1924 14.8471L11.3268 14.7774L11.4425 14.6992L11.9522 14.3113L12.4836 13.9334L12.7144 13.7425L12.9257 13.5026L13.116 13.2113L13.28 12.8771L13.4191 12.4954L13.5286 12.0807L13.6063 11.6353L13.6482 11.1869L13.6661 10.6833V10.185L13.6482 9.69062L13.6117 9.20156L13.5581 8.71635L13.4859 8.23573L13.395 7.75971L13.287 7.28827L13.2854 7.2829L13.266 7.24841L13.2349 7.22388L13.1961 7.21392L13.1564 7.22006L12.7851 7.36723L12.4323 7.5328L12.1053 7.71294L11.7968 7.91225L11.5101 8.1284L11.2429 8.36373L11.002 8.61286L10.7822 8.88038L10.5328 9.24679L10.3191 9.64385L10.1443 10.0654L10.006 10.517L9.89491 11.0045L9.80868 11.5089L9.74653 12.0324L9.70924 12.5736L9.69524 13.1401L9.70457 13.7334L9.73797 14.3704L9.79546 15.0595L9.80557 15.1024L9.82733 15.1315L9.86073 15.1461L9.9058 15.1476Z" fill="#3BC116"/>
<path d="M7.33726 31.458L7.38311 31.8651L7.40486 31.964L7.4406 31.8689L7.76379 30.3006L8.02563 28.743L8.08778 28.1857L8.07923 28.1489L8.0466 28.1297L7.88966 28.0929L7.50276 27.9979L7.23239 27.9143L7.00087 27.8193L6.80586 27.7089L6.5044 27.5188L6.19441 27.3425L6.05456 27.2697L5.75079 27.0949L5.4742 26.8964L5.19296 26.6442L4.93968 26.3621L4.70971 26.0448L4.49606 25.6829L4.32201 25.3365L4.16353 24.9792L4.02135 24.6105L3.8947 24.2303L3.78438 23.8394L3.6896 23.437L3.61113 23.023L3.54819 22.5984L3.54897 22.5424L3.56839 22.5018L3.60569 22.475L3.66086 22.4635L4.25209 22.4466L4.85343 22.4727L5.12613 22.5148L5.3833 22.5938L5.46488 22.6283L5.94657 22.8306L6.41195 22.9908L6.6124 23.0721L6.67067 23.1043L6.94802 23.2936L7.20985 23.5221L7.44449 23.7796L7.66047 24.074L7.85237 24.399L8.02174 24.7554L8.16859 25.1456L8.289 25.5595L8.31697 25.65L8.33951 25.6791L8.3566 25.6469L8.36902 25.5534L8.38069 25.1525L8.39078 24.7646L8.42962 24.0809L8.45293 23.3619V21.8203L8.4374 21.7874L8.40242 21.7743L7.97436 21.7636L7.57656 21.7146L7.21685 21.6272L6.88666 21.5007L6.49664 21.3359L6.08798 21.1964L5.85955 21.1136L5.64125 21.0086L5.42837 20.8806L5.21394 20.7242L5.0096 20.5486L4.80605 20.3463L4.60404 20.1179L4.40826 19.8664L4.3461 19.7806L4.12933 19.464L3.92734 19.1367L3.74011 18.8002L3.56606 18.4545L3.40603 18.098L3.26074 17.7324L3.12944 17.356L3.01212 16.9704L3.02066 16.9053L3.0735 16.8647L3.35165 16.801L3.63055 16.7527L3.90092 16.7221L4.17129 16.7083L4.43623 16.7106L4.70038 16.7305L4.95444 16.7673L5.20694 16.821L5.70416 16.9206L5.91395 16.962L6.26899 17.0793L6.61007 17.2525L6.93793 17.4832L7.24559 17.7692L7.53538 18.1103L7.79955 18.5004L8.04038 18.9397L8.24782 19.4126L8.27735 19.4571L8.29677 19.4073L8.29988 19.3835L8.30222 19.2003L8.11496 17.4273L7.89044 15.6037L7.87491 15.5554L7.84226 15.5163L7.79721 15.4918L7.7467 15.4841L7.48954 15.4971L7.04747 15.5163L6.72972 15.5117L6.44535 15.4834L6.18974 15.4289L5.76865 15.3277L5.32192 15.2534L5.05233 15.202L4.8379 15.1369L4.63278 15.0525L4.42612 14.946L4.22569 14.821L3.79216 14.4968L3.38116 14.1266L2.99192 13.7111L2.62444 13.2496L2.3028 12.7905L2.01999 12.3428L1.77758 11.9051L1.57403 11.4782L1.57092 11.4445L1.59657 11.4207L2.01145 11.2513L2.45041 11.1148L2.90103 11.0167L3.34465 10.9608L3.78049 10.9462L4.19693 10.9723L4.60015 11.0413L4.97464 11.1493L5.16576 11.2237L5.49595 11.387L5.81294 11.5901L6.11905 11.8346L6.41039 12.1182L6.69087 12.4448L6.96356 12.815L7.23472 13.2366L7.52529 13.7433L7.57423 13.8077L7.57267 13.7272L7.39086 12.7476L7.19199 11.7649L6.74525 9.78642L6.70252 9.49283L6.70796 9.36712L6.72972 9.25444L6.82061 9.04288L6.88355 8.95548L6.95658 8.88036L7.06456 8.80447L7.18965 8.74852L7.33184 8.71173L7.49187 8.6941L7.55247 8.69486L7.66434 8.71326L7.76924 8.75235L7.87257 8.81368L7.96658 8.89187L8.05592 8.99227L8.1305 9.1042L8.19188 9.22991L8.23306 9.35868L8.54927 10.7277L8.83829 12.1098L9.09934 13.5049L9.33318 14.9123L9.59579 16.7903L9.79391 18.6331L9.92754 20.4413L9.97027 21.332L9.99668 22.2143L10.0037 23.0943L9.98814 24.005L9.95085 24.9455L9.8918 25.9167L9.7838 27.1639L9.6393 28.4034L9.45827 29.6367L9.24073 30.8624L8.99056 32.0636L8.70544 33.2571L8.38378 34.4445L8.02718 35.625L7.69465 36.6337L7.33415 37.6509L6.95113 38.6658L6.54091 39.6884L6.10662 40.714L5.64434 41.7466L5.16031 42.776L4.65067 43.8109L3.82556 45.3938L2.79769 47.2741L2.76816 47.327L2.62444 47.5769L2.51023 47.7386L2.39292 47.8567L2.26938 47.9356L2.16915 47.9732L2.05494 47.9946L1.93452 48L1.7978 47.9885L1.58801 47.931L1.48934 47.8796L1.40311 47.816L1.31142 47.7233L1.2384 47.6167L1.18557 47.4994L1.15372 47.3745L1.14439 47.2442L1.15759 47.1123L1.19257 46.9889L1.24928 46.8686L2.13575 45.291L2.97172 43.712L3.75798 42.1306L4.49295 40.5477L4.49606 40.4733L4.4471 40.4166L4.01048 40.1637L3.59793 39.8731L3.21956 39.5512L2.8847 39.2078L2.59104 38.8391L2.34551 38.455L2.14197 38.048L1.9897 37.631L1.87393 37.1887L1.78847 36.7203L1.73486 36.2374L1.71155 35.7338L1.71855 35.2118L1.75662 34.676L1.82576 34.1218L1.92521 33.5607L1.94152 33.5323L1.97414 33.5292L2.52499 33.668L2.98337 33.8328L3.19004 33.9294L3.37416 34.0329L3.54355 34.1455L3.70202 34.272L4.05475 34.5679L4.41759 34.8416L4.6592 35.0462L4.87363 35.2969L5.05933 35.5935L5.21316 35.9308L5.3359 36.3141L5.42448 36.7303L5.47964 37.1833L5.49828 37.6517L5.47886 37.8924L5.42059 38.1998V38.2044L5.42604 38.2082L5.45399 38.2159L5.46177 38.2151L5.46644 38.2097L6.01415 36.7556L6.50829 35.2846L6.75534 34.4775L6.75923 34.433L6.74603 34.3901L6.71728 34.3556L6.67687 34.3349L6.34126 34.2168L6.03358 34.0704L5.7539 33.8972L5.50217 33.6963L5.15333 33.3997L4.6592 33.0157L4.56675 32.9451L4.34377 32.7366L4.14644 32.4722L3.90403 32.0444L3.69582 31.5822L3.51946 31.0832L3.37961 30.5543L3.27396 29.9886L3.20402 29.3961L3.16906 28.7698L3.16984 28.1198V28.1182L3.19393 28.0669L3.24831 28.0485L3.63522 28.0814L4.01668 28.1412L4.33367 28.2133L4.64756 28.3037L4.88917 28.4103L5.21703 28.6027L6.01106 29.0457L6.26899 29.2382L6.49198 29.4643L6.6963 29.7287L6.87344 30.0185L7.02882 30.342L7.15779 30.69L7.26112 31.0641L7.33726 31.458Z" fill="#3BC116"/>
<path d="M13.2776 21.0806L13.3406 21.0515L13.569 20.9227L13.7819 20.7618L13.9792 20.5701L14.161 20.347L14.3685 20.0343L14.5557 19.6917L14.7212 19.3214L14.8641 18.9228L14.9853 18.4951L15.0848 18.0405L15.1648 17.5484L15.2239 17.0226L15.2666 16.4676L15.2907 15.9303L15.2969 15.4105L15.2852 14.9084L15.2705 14.7689L15.2371 14.6279L15.2184 14.5965L15.1827 14.5781L15.0762 14.565L14.9783 14.5727L14.4943 14.6839L14.0833 14.8257L13.7267 15.002L13.5706 15.1024L13.4245 15.2158L13.0539 15.5079L12.6709 15.7654L12.5038 15.8789L12.3492 16.0054L12.1993 16.1502L12.0618 16.3066L11.9297 16.4806L11.8007 16.6769L11.5669 17.1153L11.3579 17.599L11.1722 18.1126L11.0083 18.6568L10.8692 19.2271L10.7534 19.8227L10.6625 20.4429L10.5941 21.0929L10.5499 21.7651L10.5716 21.8242L10.6299 21.8495H10.633L11.0999 21.8265L11.5964 21.7774L11.9375 21.7169L12.2288 21.6187L12.4285 21.516L12.841 21.2876L13.2776 21.0806Z" fill="#3BC116"/>
<path d="M12.991 22.9924L13.2279 22.8751L13.6933 22.6612L14.1043 22.4198L14.3646 22.281L14.6699 22.1814L15.025 22.1147L15.5268 22.0641L15.9254 22.0265L15.9852 22.0396L16 22.097L15.9006 22.9778L15.7522 23.8294L15.554 24.6504L15.307 25.4415L15.1477 25.8585L14.9698 26.2509L14.7763 26.6112L14.5666 26.9423L14.3389 27.2459L14.0981 27.5165L13.837 27.7603L13.5643 27.9695L13.4105 28.0577L13.259 28.1144L12.7385 28.2692L12.2024 28.4601L11.9134 28.5483L11.6251 28.5889L11.2654 28.6012L10.9205 28.5919L10.5903 28.5621L10.2748 28.5099L10.2445 28.49L10.2368 28.454L10.4116 27.6453L10.633 26.8573L10.901 26.09L11.2149 25.3434L11.3866 24.9831L11.5933 24.5921L11.8147 24.2257L12.0416 23.8984L12.2762 23.6071L12.5116 23.3603L12.7517 23.1541L12.991 22.9924Z" fill="#3BC116"/>
<path d="M13.5799 29.659L13.3608 29.7571L13.1316 29.8422L12.646 29.9717L12.472 30.02L12.3003 30.0906L12.1231 30.1841L11.9367 30.3044L11.7448 30.4501L11.5482 30.6187L11.1326 31.0365L10.8125 31.4075L10.5033 31.8099L10.2041 32.2476L9.91667 32.7152L9.63852 33.2188L9.37127 33.7546L9.11023 34.3326L8.85617 34.9489L8.84142 35.011L8.85073 35.0616L8.88413 35.1014L8.94162 35.1306L9.40933 35.2693L9.89414 35.3728L10.1319 35.3981L10.3859 35.3942L10.6633 35.3621L11.0502 35.2923L11.4045 35.2279L11.6733 35.1934L11.8411 35.1704L12.0051 35.1306L12.3399 35.0018L12.6794 34.8048L13.0151 34.5442L13.3546 34.213L13.6832 33.8259L13.9963 33.3874L14.2869 32.9084L14.6458 32.2062L14.9706 31.4512L15.2604 30.6425L15.5168 29.7809L15.5214 29.7632L15.5323 29.6736L15.5253 29.5793L15.5028 29.5379L15.4585 29.5195L14.7321 29.4965L14.0499 29.5249L13.8145 29.5685L13.5799 29.659Z" fill="#3BC116"/>
<path d="M9.98347 37.2631L10.2787 37.1075L10.5374 37.0002L10.7503 36.9511L11.4138 36.8591L12.0555 36.7257L12.3143 36.6828H12.5605L13.203 36.7679L13.8098 36.9028L13.8463 36.9212L13.8728 36.9519L13.8852 36.9902L13.8821 37.03L13.7485 37.3865L13.381 38.1178L12.9832 38.8138L12.5551 39.4761L12.0959 40.1039L11.7603 40.5063L11.4161 40.862L11.0556 41.1786L10.6889 41.4453L10.309 41.6684L9.92754 41.8424L9.53596 41.9712L9.13041 42.0547L8.89422 42.0815L8.65415 42.0915L8.41642 42.0861L8.17479 42.0654L7.92929 42.0287L7.67912 41.975L7.18188 41.8225L6.79108 41.6576L6.39719 41.4476L6.36222 41.4024L6.36999 41.3464L6.46555 41.1824L6.79575 40.6481L7.14692 40.1261L7.51907 39.6156L7.91296 39.1181L8.20819 38.7724L8.50498 38.452L8.79866 38.1615L9.0939 37.897L9.38989 37.6586L9.68357 37.4493L9.98347 37.2631Z" fill="#3BC116"/>
</svg>
