<svg width="22" height="22" viewBox="0 0 22 22" fill="none" xmlns="http://www.w3.org/2000/svg">
<path fill-rule="evenodd" clip-rule="evenodd" d="M10.8658 0C5.13789 0 0.494385 4.64351 0.494385 10.3714C0.494385 16.0993 5.13789 20.7429 10.8658 20.7429C16.5937 20.7429 21.2372 16.0993 21.2372 10.3714C21.2372 4.64351 16.5937 0 10.8658 0ZM9.93896 15.4876C9.93896 14.9756 10.3537 14.5608 10.8658 14.5608C11.3779 14.5608 11.7927 14.9756 11.7927 15.4876C11.7927 15.9997 11.3779 16.4145 10.8658 16.4145C10.3537 16.4145 9.93896 15.9997 9.93896 15.4876ZM11.5586 13.2192V12.8067C11.5841 12.4823 11.6814 12.2807 11.8622 12.1162C12.0336 11.9587 12.2514 11.8451 12.7404 11.6343L12.8469 11.5902C12.8737 11.5784 12.8976 11.5684 12.9198 11.5591C12.9323 11.5539 12.9442 11.5489 12.9559 11.5439C13.2663 11.4095 13.4842 11.3052 13.6996 11.1755C13.987 11.004 14.2326 10.8117 14.4411 10.5777C14.9347 10.0285 15.1872 9.30092 15.1942 8.35322H15.1919V8.34859C15.1919 5.97585 13.271 4.14301 10.8635 4.14301C8.456 4.14301 6.53511 5.97585 6.53511 8.34859C6.53511 8.73323 6.84561 9.04372 7.23025 9.04372C7.61489 9.04372 7.92538 8.73323 7.92538 8.34859C7.92538 6.75904 9.21138 5.53328 10.8658 5.53328C12.5202 5.53328 13.8039 6.75672 13.8062 8.34395C13.8016 8.96726 13.6626 9.3658 13.4077 9.64849C13.2015 9.8802 12.9304 10.0424 12.4044 10.2695C12.3719 10.2834 12.3395 10.2973 12.3001 10.3135L12.1935 10.3598C11.9062 10.4827 11.7417 10.5568 11.5656 10.6518C11.32 10.7839 11.1114 10.9229 10.9284 11.0897C10.4742 11.4999 10.217 12.0421 10.1707 12.7372C10.1684 12.7534 10.1684 12.7673 10.1684 12.7836V13.2192C10.1684 13.6038 10.4788 13.9143 10.8635 13.9143C11.2481 13.9143 11.5586 13.6038 11.5586 13.2192Z" fill="#9FA5AC"/>
</svg>
