<svg width="30" height="36" viewBox="0 0 30 36" fill="none" xmlns="http://www.w3.org/2000/svg">
<path d="M15 36C23.2843 36 30 29.435 30 21.3367C30 13.2383 23.2843 6.67334 15 6.67334C6.71573 6.67334 0 13.2383 0 21.3367C0 29.435 6.71573 36 15 36Z" fill="#D5A290"/>
<path d="M22.049 3.96159V11.7292H7.88898V3.90978C7.88898 3.36333 8.27298 2.9205 8.74698 2.9205C8.92998 2.9205 9.10798 2.98795 9.25698 3.11307L11.226 4.78469C11.608 5.10826 12.145 5.01442 12.426 4.57452C12.453 4.53053 12.478 4.48654 12.499 4.43766L14.227 0.53917C14.443 0.0523477 14.96 -0.140231 15.382 0.109046C15.5423 0.207113 15.6691 0.349733 15.746 0.518642L17.596 4.45526C17.821 4.93622 18.342 5.11413 18.759 4.8541C18.7994 4.82895 18.8375 4.8005 18.873 4.76905L20.668 3.17857C21.044 2.8462 21.582 2.92734 21.871 3.3604C21.986 3.53342 22.049 3.74458 22.049 3.96257V3.96159Z" fill="#FFAE92"/>
<path d="M14.969 34.0451C22.1266 34.0451 27.929 28.3554 27.929 21.3369C27.929 14.3183 22.1266 8.62866 14.969 8.62866C7.81142 8.62866 2.00903 14.3183 2.00903 21.3369C2.00903 28.3554 7.81142 34.0451 14.969 34.0451Z" fill="#F2CAB9"/>
<mask id="mask0_233_22607" style="mask-type:luminance" maskUnits="userSpaceOnUse" x="2" y="8" width="26" height="27">
<path d="M14.969 34.0451C22.1266 34.0451 27.929 28.3554 27.929 21.3369C27.929 14.3183 22.1266 8.62866 14.969 8.62866C7.81142 8.62866 2.00903 14.3183 2.00903 21.3369C2.00903 28.3554 7.81142 34.0451 14.969 34.0451Z" fill="white"/>
</mask>
<g mask="url(#mask0_233_22607)">
<path fill-rule="evenodd" clip-rule="evenodd" d="M-1.23097 37.222L31.62 5.45142H-2.43097L-1.23097 37.222Z" fill="#FCD8C9"/>
</g>
<path d="M14.941 25.8149L11.432 26.6097C11.3623 26.6253 11.29 26.6262 11.22 26.6121C11.1499 26.5981 11.0837 26.5696 11.0259 26.5285C10.9681 26.4873 10.92 26.4345 10.8848 26.3737C10.8496 26.3128 10.8282 26.2453 10.822 26.1756L10.509 22.6691L8.65303 19.6524C8.61617 19.5924 8.59292 19.5254 8.58485 19.4558C8.57678 19.3863 8.58409 19.3158 8.60627 19.2493C8.62846 19.1827 8.66501 19.1216 8.71345 19.0701C8.76188 19.0185 8.82108 18.9778 8.88703 18.9505L12.202 17.5771L14.562 14.9191C14.609 14.8661 14.667 14.8236 14.7322 14.7945C14.7975 14.7653 14.8683 14.7502 14.94 14.7502C15.0117 14.7502 15.0826 14.7653 15.1478 14.7945C15.213 14.8236 15.2711 14.8661 15.318 14.9191L17.678 17.578L20.994 18.9505C21.06 18.9778 21.1192 19.0185 21.1676 19.0701C21.2161 19.1216 21.2526 19.1827 21.2748 19.2493C21.297 19.3158 21.3043 19.3863 21.2962 19.4558C21.2881 19.5254 21.2649 19.5924 21.228 19.6524L19.371 22.6691L19.06 26.1756C19.0539 26.2454 19.0324 26.313 18.9972 26.374C18.962 26.4349 18.9138 26.4878 18.8558 26.5289C18.7979 26.5701 18.7316 26.5986 18.6614 26.6125C18.5912 26.6264 18.5188 26.6255 18.449 26.6097L14.941 25.8149Z" fill="#FFAE92"/>
<mask id="mask1_233_22607" style="mask-type:luminance" maskUnits="userSpaceOnUse" x="8" y="14" width="14" height="13">
<path d="M14.941 25.8149L11.432 26.6097C11.3623 26.6253 11.29 26.6262 11.22 26.6121C11.1499 26.5981 11.0837 26.5696 11.0259 26.5285C10.9681 26.4873 10.92 26.4345 10.8848 26.3737C10.8496 26.3128 10.8282 26.2453 10.822 26.1756L10.509 22.6691L8.65303 19.6524C8.61617 19.5924 8.59292 19.5254 8.58485 19.4558C8.57678 19.3863 8.58409 19.3158 8.60627 19.2493C8.62846 19.1827 8.66501 19.1216 8.71345 19.0701C8.76188 19.0185 8.82108 18.9778 8.88703 18.9505L12.202 17.5771L14.562 14.9191C14.609 14.8661 14.667 14.8236 14.7322 14.7945C14.7975 14.7653 14.8683 14.7502 14.94 14.7502C15.0117 14.7502 15.0826 14.7653 15.1478 14.7945C15.213 14.8236 15.2711 14.8661 15.318 14.9191L17.678 17.578L20.994 18.9505C21.06 18.9778 21.1192 19.0185 21.1676 19.0701C21.2161 19.1216 21.2526 19.1827 21.2748 19.2493C21.297 19.3158 21.3043 19.3863 21.2962 19.4558C21.2881 19.5254 21.2649 19.5924 21.228 19.6524L19.371 22.6691L19.06 26.1756C19.0539 26.2454 19.0324 26.313 18.9972 26.374C18.962 26.4349 18.9138 26.4878 18.8558 26.5289C18.7979 26.5701 18.7316 26.5986 18.6614 26.6125C18.5912 26.6264 18.5188 26.6255 18.449 26.6097L14.941 25.8149Z" fill="white"/>
</mask>
<g mask="url(#mask1_233_22607)">
<path fill-rule="evenodd" clip-rule="evenodd" d="M-2.36693 38.1811L32.7301 4.34204H-3.64893L-2.36693 38.1811Z" fill="#FFC3AE"/>
</g>
</svg>
