<svg width="127" height="121" viewBox="0 0 127 121" fill="none" xmlns="http://www.w3.org/2000/svg">
<g id="kzt_img">
<path id="Rectangle 838" d="M15.9967 52.9573C15.7166 50.0216 18.0251 47.4824 20.9741 47.4824H114.486C117.435 47.4824 119.743 50.0216 119.463 52.9573L114.008 110.14C113.42 116.298 108.248 121 102.062 121H33.3981C27.2122 121 22.0399 116.298 21.4524 110.14L15.9967 52.9573Z" fill="url(#paint0_linear_246_11173)"/>
<rect id="Rectangle 841" x="29.5027" y="13.1743" width="81.3645" height="66.5159" rx="5" fill="url(#paint1_linear_246_11173)"/>
<path id="Rectangle 839" d="M9.92951 68.3458C9.17998 65.2034 11.5625 62.1858 14.7931 62.1858H60.7159H72.8409C74.6138 62.1858 76.3647 61.7929 77.9677 61.0355L87.9165 56.3344C89.5194 55.5769 91.2703 55.1841 93.0432 55.1841H120.822C124.003 55.1841 126.375 58.1153 125.712 61.2264L113.815 117.042C113.323 119.35 111.285 121 108.925 121H26.4362C24.1217 121 22.1097 119.411 21.5727 117.16L9.92951 68.3458Z" fill="url(#paint2_linear_246_11173)"/>
<rect id="Rectangle 840" x="28.8013" y="104.196" width="27.3553" height="4.20101" rx="2.1005" fill="#656E78"/>
<rect id="Rectangle 842" x="42.1284" y="25.0771" width="56.1135" height="7.70184" rx="3.85092" fill="#656E78"/>
<rect id="Rectangle 843" x="42.1284" y="42.5811" width="56.1135" height="7.70184" rx="3.85092" fill="#656E78"/>
<g id="Vector" opacity="0.3">
<path d="M12.6164 38.8714C12.6164 38.8714 12.607 44.402 9.39925 49.0048C7.62123 51.5561 5.26743 53.7075 1 55.5396C1 55.5396 1.93978 53.2327 3.55012 47.7342C4.00023 46.1973 4.6456 44.6961 5.74961 43.5344C8.84879 40.2735 12.6164 38.8714 12.6164 38.8714Z" fill="#D9D9D9"/>
<path d="M12.6164 38.8714L13.1164 38.8722L13.1176 38.1514L12.442 38.4028L12.6164 38.8714ZM9.39925 49.0048L8.98904 48.7189L9.39925 49.0048ZM1 55.5396L0.536949 55.3509L0.0770056 56.48L1.19725 55.999L1 55.5396ZM3.55012 47.7342L3.07028 47.5936L3.55012 47.7342ZM5.74961 43.5344L6.11204 43.8789L5.74961 43.5344ZM17.1103 33.7818C17.3633 33.6711 17.4787 33.3763 17.368 33.1233C17.2574 32.8703 16.9625 32.7549 16.7096 32.8656L17.1103 33.7818ZM12.6164 38.8714C12.1164 38.8705 12.1164 38.8704 12.1164 38.8703C12.1164 38.8703 12.1164 38.8702 12.1164 38.8702C12.1164 38.8702 12.1164 38.8703 12.1164 38.8704C12.1164 38.8707 12.1164 38.8713 12.1164 38.8723C12.1164 38.8742 12.1163 38.8774 12.1163 38.8819C12.1162 38.891 12.116 38.9052 12.1156 38.9244C12.1148 38.9628 12.1132 39.0211 12.1101 39.0977C12.1039 39.2509 12.0914 39.4774 12.0667 39.7644C12.017 40.3389 11.9181 41.1544 11.721 42.1112C11.326 44.0289 10.5414 46.4915 8.98904 48.7189L9.80946 49.2907C11.4649 46.9153 12.2888 44.3112 12.7005 42.3129C12.9067 41.3117 13.0106 40.4569 13.0629 39.8505C13.0891 39.5472 13.1025 39.3055 13.1093 39.1384C13.1127 39.0548 13.1145 38.9897 13.1154 38.9449C13.1158 38.9224 13.1161 38.905 13.1162 38.8928C13.1163 38.8868 13.1163 38.882 13.1164 38.8785C13.1164 38.8768 13.1164 38.8754 13.1164 38.8744C13.1164 38.8739 13.1164 38.8734 13.1164 38.8731C13.1164 38.8729 13.1164 38.8727 13.1164 38.8726C13.1164 38.8724 13.1164 38.8722 12.6164 38.8714ZM8.98904 48.7189C7.26613 51.1911 4.98718 53.2836 0.802748 55.0801L1.19725 55.999C5.54767 54.1313 7.97634 51.921 9.80946 49.2907L8.98904 48.7189ZM1 55.5396C1.46305 55.7282 1.46308 55.7281 1.4631 55.7281C1.46312 55.728 1.46315 55.7279 1.46318 55.7279C1.46324 55.7277 1.46331 55.7276 1.46339 55.7273C1.46357 55.7269 1.4638 55.7264 1.46408 55.7257C1.46465 55.7242 1.46545 55.7223 1.46648 55.7197C1.46853 55.7146 1.47149 55.7073 1.47535 55.6976C1.48307 55.6782 1.49439 55.6497 1.50924 55.6117C1.53894 55.5356 1.58276 55.4219 1.64019 55.2687C1.75505 54.9622 1.92433 54.4979 2.14383 53.8619C2.58282 52.5899 3.22273 50.631 4.02997 47.8747L3.07028 47.5936C2.26717 50.3358 1.63202 52.2796 1.19854 53.5357C0.981798 54.1637 0.815484 54.6198 0.70381 54.9177C0.647974 55.0667 0.605799 55.1761 0.577813 55.2477C0.563819 55.2835 0.553374 55.3099 0.546541 55.327C0.543125 55.3356 0.540612 55.3419 0.53901 55.3458C0.53821 55.3478 0.537637 55.3492 0.537293 55.3501C0.537121 55.3505 0.537006 55.3508 0.536949 55.3509C0.53692 55.351 0.536906 55.351 0.536906 55.351L0.536917 55.351C0.536931 55.351 0.536949 55.3509 1 55.5396ZM6.11204 43.8789C7.61834 42.294 9.29185 41.1564 10.5929 40.4144C11.2424 40.044 11.7963 39.7737 12.186 39.5967C12.3808 39.5082 12.5344 39.4432 12.6381 39.4007C12.6899 39.3794 12.7293 39.3638 12.7551 39.3537C12.768 39.3487 12.7775 39.345 12.7835 39.3427C12.7865 39.3416 12.7886 39.3408 12.7898 39.3403C12.7904 39.3401 12.7908 39.34 12.791 39.3399C12.7911 39.3399 12.7911 39.3399 12.791 39.3399C12.791 39.3399 12.791 39.3399 12.791 39.3399C12.7909 39.34 12.7908 39.34 12.6164 38.8714C12.442 38.4028 12.4419 38.4028 12.4417 38.4029C12.4417 38.4029 12.4415 38.403 12.4414 38.403C12.4411 38.4031 12.4408 38.4032 12.4404 38.4034C12.4396 38.4037 12.4387 38.404 12.4374 38.4045C12.435 38.4054 12.4317 38.4067 12.4274 38.4083C12.419 38.4115 12.407 38.4161 12.3915 38.4222C12.3606 38.4342 12.316 38.4519 12.2588 38.4754C12.1444 38.5223 11.9794 38.5922 11.7725 38.6862C11.359 38.874 10.7773 39.158 10.0975 39.5457C8.73993 40.32 6.98006 41.5139 5.38718 43.19L6.11204 43.8789ZM4.02997 47.8747C4.47061 46.3701 5.08751 44.9569 6.11204 43.8789L5.38718 43.19C4.2037 44.4352 3.52985 46.0244 3.07028 47.5936L4.02997 47.8747ZM11.9605 40.8703C12.4349 39.8485 13.2722 38.2572 14.2344 36.8186C14.7155 36.0993 15.2214 35.4278 15.7224 34.8874C16.2301 34.3398 16.7022 33.9603 17.1103 33.7818L16.7096 32.8656C16.1153 33.1256 15.5316 33.6223 14.9891 34.2075C14.44 34.7998 13.9015 35.5175 13.4032 36.2626C12.4065 37.7528 11.5447 39.391 11.0534 40.4492L11.9605 40.8703Z" fill="#D9D9D9"/>
</g>
<g id="Vector_2" opacity="0.3">
<path d="M39.1983 26.348C39.1983 26.348 39.1919 30.1339 37.0028 33.2847C35.7895 35.0312 34.1832 36.5039 31.271 37.7581C31.271 37.7581 31.8287 36.3848 32.7951 33.1471C33.2531 31.6128 33.8825 30.0941 35.0536 29.0037C37.0414 27.1531 39.1983 26.348 39.1983 26.348Z" fill="#D9D9D9"/>
<path d="M39.1983 26.348L39.6983 26.3488L39.6995 25.6272L39.0234 25.8795L39.1983 26.348ZM37.0028 33.2847L36.5922 32.9995L37.0028 33.2847ZM31.271 37.7581L30.8077 37.5699L30.349 38.6995L31.4688 38.2173L31.271 37.7581ZM32.7951 33.1471L32.316 33.0041L32.7951 33.1471ZM35.0536 29.0037L35.3943 29.3697L35.0536 29.0037ZM42.3293 23.0082C42.5821 22.8972 42.6972 22.6022 42.5862 22.3494C42.4752 22.0965 42.1803 21.9815 41.9274 22.0924L42.3293 23.0082ZM39.1983 26.348C38.6983 26.3471 38.6983 26.347 38.6983 26.3469C38.6983 26.3469 38.6983 26.3468 38.6983 26.3467C38.6983 26.3467 38.6983 26.3466 38.6983 26.3467C38.6983 26.3468 38.6983 26.3471 38.6983 26.3476C38.6983 26.3487 38.6983 26.3506 38.6982 26.3535C38.6982 26.3592 38.698 26.3684 38.6978 26.3811C38.6973 26.4063 38.6962 26.4452 38.6942 26.4965C38.69 26.5993 38.6816 26.7519 38.6649 26.9459C38.6315 27.3341 38.5648 27.8862 38.4317 28.5342C38.1647 29.8344 37.6354 31.498 36.5922 32.9995L37.4135 33.57C38.5594 31.9207 39.1278 30.1159 39.4112 28.7354C39.5534 28.043 39.6251 27.4517 39.6612 27.0316C39.6793 26.8215 39.6886 26.6537 39.6933 26.5371C39.6957 26.4787 39.6969 26.4332 39.6976 26.4014C39.6979 26.3856 39.6981 26.3732 39.6982 26.3644C39.6982 26.3599 39.6983 26.3564 39.6983 26.3538C39.6983 26.3525 39.6983 26.3515 39.6983 26.3506C39.6983 26.3502 39.6983 26.3498 39.6983 26.3495C39.6983 26.3494 39.6983 26.3492 39.6983 26.3491C39.6983 26.349 39.6983 26.3488 39.1983 26.348ZM36.5922 32.9995C35.4338 34.6668 33.9023 36.0805 31.0732 37.2989L31.4688 38.2173C34.4641 36.9273 36.1452 35.3955 37.4135 33.57L36.5922 32.9995ZM31.271 37.7581C31.7343 37.9462 31.7343 37.9462 31.7343 37.9461C31.7343 37.9461 31.7343 37.946 31.7344 37.946C31.7344 37.9458 31.7345 37.9457 31.7345 37.9456C31.7346 37.9453 31.7348 37.9449 31.735 37.9444C31.7354 37.9435 31.7359 37.9422 31.7365 37.9406C31.7378 37.9374 31.7396 37.9328 31.742 37.9269C31.7467 37.915 31.7536 37.8976 31.7626 37.8747C31.7805 37.8287 31.8068 37.7604 31.8413 37.6688C31.9102 37.4855 32.0115 37.2088 32.1429 36.831C32.4057 36.0755 32.789 34.9156 33.2743 33.2901L32.316 33.0041C31.8348 34.6163 31.456 35.7619 31.1984 36.5024C31.0696 36.8727 30.9711 37.1417 30.9052 37.317C30.8722 37.4047 30.8475 37.469 30.8311 37.5108C30.8229 37.5317 30.8169 37.5471 30.813 37.5569C30.811 37.5618 30.8096 37.5653 30.8087 37.5675C30.8083 37.5686 30.808 37.5693 30.8078 37.5697C30.8077 37.5699 30.8077 37.5701 30.8077 37.5701C30.8077 37.5701 30.8077 37.5701 30.8077 37.5701C30.8077 37.5701 30.8077 37.57 30.8077 37.57C30.8077 37.57 30.8077 37.5699 31.271 37.7581ZM35.3943 29.3697C36.3501 28.4799 37.3497 27.8388 38.1121 27.4201C38.4925 27.2112 38.8119 27.0587 39.0345 26.9591C39.1457 26.9093 39.2325 26.8728 39.2905 26.8492C39.3195 26.8373 39.3413 26.8287 39.3552 26.8233C39.3622 26.8206 39.3672 26.8186 39.3703 26.8175C39.3718 26.8169 39.3728 26.8165 39.3732 26.8164C39.3735 26.8163 39.3736 26.8162 39.3736 26.8162C39.3736 26.8162 39.3735 26.8162 39.3735 26.8163C39.3734 26.8163 39.3734 26.8163 39.3733 26.8163C39.3733 26.8164 39.3732 26.8164 39.1983 26.348C39.0234 25.8795 39.0233 25.8796 39.0232 25.8796C39.0231 25.8796 39.023 25.8797 39.0229 25.8797C39.0227 25.8798 39.0225 25.8799 39.0222 25.88C39.0217 25.8802 39.021 25.8804 39.0202 25.8808C39.0186 25.8814 39.0165 25.8822 39.0138 25.8832C39.0086 25.8852 39.0012 25.888 38.9919 25.8916C38.9733 25.8989 38.9468 25.9094 38.913 25.9232C38.8452 25.9508 38.748 25.9917 38.626 26.0463C38.382 26.1555 38.0379 26.32 37.6307 26.5436C36.8177 26.9901 35.745 27.677 34.7129 28.6378L35.3943 29.3697ZM33.2743 33.2901C33.7259 31.777 34.3242 30.366 35.3943 29.3697L34.7129 28.6378C33.4407 29.8222 32.7804 31.4486 32.316 33.0041L33.2743 33.2901ZM38.895 27.7822C39.2161 27.0884 39.7837 26.0065 40.4349 25.0298C40.7605 24.5415 41.1006 24.0891 41.4349 23.7274C41.7759 23.3584 42.0804 23.1173 42.3293 23.0082L41.9274 22.0924C41.4922 22.2834 41.0762 22.6422 40.7005 23.0486C40.3182 23.4623 39.9457 23.9609 39.6029 24.4751C38.9173 25.5033 38.3254 26.6321 37.9875 27.3622L38.895 27.7822Z" fill="#D9D9D9"/>
</g>
<g id="Vector_3" opacity="0.3">
<path d="M115.309 75.2824C115.309 75.2824 114.671 71.2286 116.565 67.635C118.458 64.0414 120.965 61.6389 122.165 62.2688C123.365 62.8988 122.803 66.3227 120.91 69.9163C119.017 73.5099 115.309 75.2824 115.309 75.2824Z" fill="#D9D9D9"/>
<path d="M115.309 75.2824L114.815 75.3602L114.92 76.0229L115.525 75.7335L115.309 75.2824ZM124.236 59.1748C124.236 58.8987 124.012 58.6748 123.736 58.6748C123.459 58.6748 123.236 58.8987 123.236 59.1748L124.236 59.1748ZM115.309 75.2824C115.803 75.2047 115.803 75.2048 115.803 75.2049C115.803 75.2049 115.803 75.205 115.803 75.2051C115.803 75.2051 115.803 75.2052 115.803 75.2051C115.803 75.205 115.803 75.2046 115.803 75.204C115.803 75.2029 115.803 75.2007 115.802 75.1976C115.801 75.1914 115.8 75.1814 115.798 75.1678C115.794 75.1405 115.789 75.0986 115.782 75.0433C115.769 74.9325 115.752 74.768 115.738 74.5583C115.709 74.1386 115.689 73.5402 115.726 72.8326C115.801 71.4127 116.105 69.579 117.007 67.868L116.122 67.4019C115.13 69.2845 114.807 71.2746 114.728 72.78C114.688 73.535 114.709 74.1747 114.74 74.6274C114.756 74.854 114.774 75.0342 114.789 75.1591C114.796 75.2216 114.803 75.2704 114.807 75.3042C114.81 75.3212 114.811 75.3344 114.813 75.3438C114.814 75.3484 114.814 75.3522 114.814 75.3549C114.815 75.3563 114.815 75.3574 114.815 75.3583C114.815 75.3587 114.815 75.3591 114.815 75.3594C114.815 75.3596 114.815 75.3597 114.815 75.3598C114.815 75.36 114.815 75.3602 115.309 75.2824ZM117.007 67.868C117.935 66.1056 119.006 64.6539 119.971 63.7291C120.455 63.2648 120.893 62.9534 121.253 62.793C121.621 62.6297 121.826 62.6556 121.933 62.7115L122.398 61.8261C121.904 61.5671 121.347 61.6571 120.847 61.8793C120.341 62.1045 119.808 62.5002 119.279 63.007C118.217 64.0244 117.087 65.5707 116.122 67.4019L117.007 67.868ZM121.933 62.7115C122.039 62.7673 122.177 62.9213 122.25 63.3154C122.322 63.7026 122.313 64.2386 122.204 64.9002C121.988 66.218 121.396 67.9208 120.468 69.6832L121.352 70.1493C122.317 68.3182 122.953 66.5122 123.191 65.0622C123.31 64.3399 123.334 63.6771 123.233 63.1329C123.134 62.5955 122.892 62.0853 122.398 61.8261L121.933 62.7115ZM120.468 69.6832C119.566 71.3943 118.225 72.6838 117.095 73.5502C116.532 73.9819 116.027 74.3046 115.664 74.5186C115.483 74.6255 115.338 74.7049 115.239 74.7571C115.189 74.7832 115.152 74.8024 115.127 74.8148C115.115 74.8209 115.106 74.8254 115.1 74.8282C115.097 74.8296 115.095 74.8305 115.094 74.831C115.094 74.8313 115.093 74.8315 115.093 74.8315C115.093 74.8315 115.093 74.8315 115.093 74.8315C115.093 74.8315 115.093 74.8314 115.093 74.8314C115.093 74.8314 115.094 74.8313 115.309 75.2824C115.525 75.7335 115.525 75.7335 115.525 75.7334C115.525 75.7333 115.525 75.7333 115.526 75.7332C115.526 75.7331 115.526 75.7329 115.527 75.7327C115.527 75.7323 115.528 75.7318 115.53 75.7312C115.532 75.73 115.536 75.7284 115.54 75.7263C115.548 75.7221 115.56 75.7162 115.576 75.7085C115.606 75.6932 115.65 75.6708 115.706 75.6414C115.817 75.5826 115.976 75.4955 116.172 75.3801C116.563 75.1493 117.103 74.8043 117.704 74.3437C118.901 73.4255 120.361 72.0319 121.352 70.1493L120.468 69.6832ZM119.113 66.9251C119.291 66.4939 119.656 66.0541 120.166 65.5516C120.417 65.3041 120.691 65.0527 120.983 64.7852C121.272 64.5199 121.575 64.2403 121.873 63.946C123.06 62.7729 124.236 61.2895 124.236 59.1748L123.236 59.1748C123.236 60.8751 122.307 62.1117 121.17 63.2347C120.887 63.5145 120.596 63.7824 120.306 64.0487C120.019 64.3126 119.73 64.5768 119.464 64.8392C118.938 65.3567 118.448 65.9147 118.189 66.5431L119.113 66.9251Z" fill="#D9D9D9"/>
</g>
<g id="Vector_4" opacity="0.3">
<path d="M73.5914 16.8633C73.5914 16.8633 71.5119 12.5644 73.1485 9.49148C74.7852 6.41855 77.637 4.7368 79.5182 5.73519C81.3995 6.73358 81.5978 10.034 79.9611 13.107C78.3245 16.1799 73.5914 16.8633 73.5914 16.8633Z" fill="#D9D9D9"/>
<path d="M73.5914 16.8633L73.1413 17.081L73.3007 17.4104L73.6629 17.3581L73.5914 16.8633ZM83.0106 1.4558C83.2624 1.34227 83.3744 1.04618 83.2609 0.79445C83.1474 0.542721 82.8513 0.430683 82.5995 0.544205L83.0106 1.4558ZM73.5914 16.8633C74.0415 16.6455 74.0416 16.6456 74.0416 16.6457C74.0416 16.6457 74.0417 16.6458 74.0417 16.6458C74.0417 16.6459 74.0417 16.6459 74.0416 16.6458C74.0416 16.6456 74.0413 16.6452 74.041 16.6445C74.0404 16.6431 74.0392 16.6407 74.0376 16.6374C74.0344 16.6306 74.0294 16.6198 74.0227 16.6052C74.0093 16.5761 73.9892 16.5317 73.9639 16.4733C73.9132 16.3566 73.8415 16.1845 73.7601 15.9678C73.597 15.5334 73.3962 14.9239 73.2449 14.2241C72.9383 12.8055 72.8549 11.1064 73.5898 9.72652L72.7072 9.25644C71.8054 10.9495 71.9435 12.9363 72.2675 14.4353C72.4315 15.1943 72.6483 15.8517 72.824 16.3193C72.912 16.5536 72.99 16.7414 73.0466 16.8717C73.075 16.937 73.098 16.9879 73.1142 17.0232C73.1224 17.0409 73.1288 17.0546 73.1334 17.0643C73.1356 17.0692 73.1375 17.073 73.1388 17.0758C73.1395 17.0772 73.14 17.0783 73.1404 17.0792C73.1406 17.0796 73.1408 17.08 73.141 17.0803C73.141 17.0804 73.1411 17.0806 73.1412 17.0807C73.1412 17.0808 73.1413 17.081 73.5914 16.8633ZM73.5898 9.72652C74.372 8.25782 75.4344 7.14312 76.4956 6.51728C77.5656 5.88632 78.5549 5.79 79.2838 6.17684L79.7526 5.29353C78.6003 4.68198 77.2231 4.92734 75.9877 5.6559C74.7435 6.38957 73.5616 7.65221 72.7072 9.25644L73.5898 9.72652ZM79.2838 6.17684C80.0124 6.56352 80.4854 7.43544 80.5598 8.67311C80.6336 9.90091 80.3021 11.4032 79.5198 12.8719L80.4025 13.342C81.2569 11.7378 81.6445 10.0534 81.558 8.61314C81.4721 7.18275 80.9053 5.90525 79.7526 5.29353L79.2838 6.17684ZM79.5198 12.8719C78.7848 14.2519 77.3268 15.1334 75.9769 15.6732C75.311 15.9395 74.6924 16.1142 74.2404 16.2221C74.0148 16.276 73.8318 16.313 73.7065 16.3363C73.6439 16.348 73.5957 16.3562 73.564 16.3614C73.5481 16.364 73.5364 16.3659 73.5289 16.367C73.5252 16.3676 73.5226 16.368 73.5211 16.3682C73.5203 16.3683 73.5199 16.3684 73.5197 16.3684C73.5196 16.3684 73.5196 16.3684 73.5196 16.3684C73.5196 16.3684 73.5197 16.3684 73.5197 16.3684C73.5198 16.3684 73.52 16.3684 73.5914 16.8633C73.6629 17.3581 73.663 17.3581 73.6632 17.3581C73.6633 17.3581 73.6635 17.358 73.6636 17.358C73.664 17.358 73.6644 17.3579 73.6649 17.3578C73.6658 17.3577 73.6671 17.3575 73.6686 17.3573C73.6717 17.3568 73.6758 17.3562 73.6811 17.3554C73.6917 17.3537 73.7067 17.3514 73.7259 17.3482C73.7643 17.3419 73.8195 17.3325 73.8895 17.3194C74.0294 17.2934 74.229 17.253 74.4727 17.1948C74.9592 17.0786 75.6263 16.8904 76.3482 16.6017C77.774 16.0316 79.5008 15.0349 80.4025 13.342L79.5198 12.8719ZM79.0112 7.53031C79.2123 6.72687 79.6633 5.44 80.3535 4.22876C81.0505 3.00548 81.9486 1.93473 83.0106 1.4558L82.5995 0.544205C81.2494 1.15307 80.2187 2.44524 79.4846 3.7337C78.7436 5.0342 78.2613 6.40788 78.0411 7.2875L79.0112 7.53031Z" fill="#D9D9D9"/>
</g>
<g id="Vector_5" opacity="0.3">
<path d="M118.278 47.4681C118.278 47.4681 120.91 46.9622 121.937 45.3125C122.963 43.6629 122.99 41.9533 121.996 41.4941C121.002 41.0349 119.365 42 118.338 43.6497C117.311 45.2994 118.278 47.4681 118.278 47.4681Z" fill="#D9D9D9"/>
<path d="M118.278 47.4681L117.821 47.6717L117.983 48.034L118.373 47.9591L118.278 47.4681ZM124.209 39.083C124.21 38.8069 123.988 38.5819 123.711 38.5806C123.435 38.5792 123.21 38.802 123.209 39.0781L124.209 39.083ZM118.278 47.4681C118.373 47.9591 118.373 47.9591 118.373 47.9591C118.373 47.9591 118.373 47.959 118.373 47.959C118.373 47.959 118.374 47.9589 118.374 47.9588C118.375 47.9587 118.376 47.9585 118.377 47.9583C118.378 47.958 118.381 47.9574 118.384 47.9568C118.391 47.9555 118.4 47.9537 118.411 47.9513C118.433 47.9466 118.465 47.9397 118.506 47.9304C118.586 47.9118 118.7 47.8838 118.84 47.8449C119.118 47.7675 119.5 47.646 119.917 47.4694C120.735 47.1234 121.766 46.5336 122.361 45.5767L121.512 45.0483C121.081 45.7412 120.282 46.2291 119.527 46.5485C119.159 46.7045 118.819 46.8127 118.571 46.8816C118.448 46.916 118.348 46.9404 118.281 46.9559C118.247 46.9637 118.222 46.9693 118.205 46.9727C118.197 46.9745 118.191 46.9757 118.187 46.9764C118.185 46.9768 118.184 46.977 118.184 46.9771C118.183 46.9772 118.183 46.9772 118.183 46.9772C118.183 46.9772 118.183 46.9772 118.183 46.9772C118.183 46.9772 118.183 46.9771 118.184 46.9771C118.184 46.9771 118.184 46.9771 118.278 47.4681ZM122.361 45.5767C122.91 44.6945 123.211 43.767 123.224 42.9647C123.236 42.1713 122.955 41.3865 122.206 41.0402L121.786 41.948C122.031 42.0609 122.233 42.3605 122.224 42.9491C122.215 43.5288 121.99 44.281 121.512 45.0483L122.361 45.5767ZM122.206 41.0402C121.49 40.7094 120.646 40.9259 119.926 41.3503C119.185 41.7864 118.464 42.5012 117.913 43.3855L118.762 43.9139C119.239 43.1485 119.849 42.5559 120.433 42.2119C121.037 41.8561 121.509 41.8197 121.786 41.948L122.206 41.0402ZM117.913 43.3855C117.31 44.3546 117.307 45.4488 117.429 46.2525C117.49 46.6599 117.587 47.0098 117.668 47.2583C117.708 47.383 117.745 47.4832 117.773 47.5537C117.787 47.589 117.798 47.6169 117.806 47.6368C117.811 47.6467 117.814 47.6546 117.817 47.6605C117.818 47.6634 117.819 47.6658 117.82 47.6677C117.82 47.6686 117.82 47.6695 117.821 47.6701C117.821 47.6705 117.821 47.6708 117.821 47.671C117.821 47.6712 117.821 47.6713 117.821 47.6714C117.821 47.6716 117.821 47.6717 118.278 47.4681C118.735 47.2645 118.735 47.2646 118.735 47.2648C118.735 47.2648 118.735 47.2649 118.735 47.265C118.735 47.2651 118.735 47.2652 118.735 47.2653C118.735 47.2655 118.735 47.2655 118.735 47.2654C118.735 47.2651 118.735 47.2644 118.734 47.2632C118.733 47.2607 118.731 47.2563 118.729 47.2499C118.723 47.2372 118.715 47.2169 118.704 47.1897C118.683 47.1351 118.653 47.0531 118.618 46.9486C118.55 46.7389 118.469 46.4435 118.417 46.1026C118.312 45.4094 118.339 44.5945 118.762 43.9139L117.913 43.3855ZM121.763 43.1106C122.166 42.7644 122.76 42.1638 123.26 41.4653C123.748 40.7834 124.205 39.926 124.209 39.083L123.209 39.0781C123.206 39.5995 122.905 40.2433 122.447 40.8835C122.001 41.5073 121.463 42.0499 121.111 42.3521L121.763 43.1106Z" fill="#D9D9D9"/>
</g>
</g>
<defs>
<linearGradient id="paint0_linear_246_11173" x1="68.3307" y1="56.6721" x2="68.3307" y2="113.342" gradientUnits="userSpaceOnUse">
<stop stop-color="#303439"/>
<stop offset="1" stop-color="#3B4147"/>
</linearGradient>
<linearGradient id="paint1_linear_246_11173" x1="70.6526" y1="21.4888" x2="70.6526" y2="72.7615" gradientUnits="userSpaceOnUse">
<stop stop-color="#303439"/>
<stop offset="1" stop-color="#3B4147"/>
</linearGradient>
<linearGradient id="paint2_linear_246_11173" x1="68.4113" y1="63.4111" x2="68.4113" y2="114.144" gradientUnits="userSpaceOnUse">
<stop stop-color="#303439"/>
<stop offset="1" stop-color="#3B4147"/>
</linearGradient>
</defs>
</svg>
