<svg width="127" height="121" viewBox="0 0 127 121" fill="none" xmlns="http://www.w3.org/2000/svg">
<g id="&#228;&#184;&#187;&#228;&#189;&#147;" opacity="0.5">
<path id="Rectangle 838" d="M15.9967 52.9573C15.7166 50.0215 18.0251 47.4824 20.9741 47.4824H114.486C117.435 47.4824 119.743 50.0215 119.463 52.9572L113.403 116.475C113.158 119.041 111.003 121 108.426 121H27.0342C24.4567 121 22.3016 119.041 22.0568 116.475L15.9967 52.9573Z" fill="url(#paint0_linear_3455_6783)"/>
<rect id="Rectangle 841" x="29.5029" y="13.1742" width="81.3645" height="66.5159" rx="5" fill="url(#paint1_linear_3455_6783)"/>
<path id="Rectangle 839" d="M9.92951 68.346C9.17998 65.2036 11.5625 62.1859 14.7931 62.1859H60.7159H72.8409C74.6138 62.1859 76.3647 61.7931 77.9677 61.0356L87.9165 56.3346C89.5194 55.5771 91.2703 55.1843 93.0433 55.1843H120.822C124.003 55.1843 126.375 58.1155 125.712 61.2266L114.996 111.502C113.815 117.041 108.923 121 103.26 121H31.963C26.408 121 21.5792 117.188 20.2904 111.784L9.92951 68.346Z" fill="url(#paint2_linear_3455_6783)"/>
<rect id="Rectangle 840" x="28.8015" y="104.196" width="27.3553" height="4.201" rx="2.1005" fill="#F5F7FD"/>
<rect id="Rectangle 842" x="42.1284" y="25.077" width="56.1135" height="7.70184" rx="3.85092" fill="#E2E5EF"/>
<rect id="Rectangle 843" x="42.1284" y="42.5812" width="56.1135" height="7.70184" rx="3.85092" fill="#E2E5EF"/>
<g id="Vector" opacity="0.3">
<path d="M12.6164 38.8714C12.6164 38.8714 12.607 44.402 9.39925 49.0048C7.62123 51.5561 5.26743 53.7075 1 55.5396C1 55.5396 1.93978 53.2327 3.55012 47.7342C4.00023 46.1973 4.6456 44.6961 5.74961 43.5344C8.84879 40.2735 12.6164 38.8714 12.6164 38.8714Z" fill="#656E78"/>
<path d="M12.6164 38.8714L13.1164 38.8722L13.1176 38.1514L12.442 38.4028L12.6164 38.8714ZM9.39925 49.0048L8.98904 48.7189L9.39925 49.0048ZM1 55.5396L0.536949 55.3509L0.0770056 56.48L1.19725 55.999L1 55.5396ZM3.55012 47.7342L3.07028 47.5936L3.55012 47.7342ZM5.74961 43.5344L6.11204 43.8789L5.74961 43.5344ZM17.1103 33.7818C17.3633 33.6711 17.4787 33.3763 17.368 33.1233C17.2574 32.8703 16.9625 32.7549 16.7096 32.8656L17.1103 33.7818ZM12.6164 38.8714C12.1164 38.8705 12.1164 38.8704 12.1164 38.8703C12.1164 38.8703 12.1164 38.8702 12.1164 38.8702C12.1164 38.8702 12.1164 38.8703 12.1164 38.8704C12.1164 38.8707 12.1164 38.8713 12.1164 38.8723C12.1164 38.8742 12.1163 38.8774 12.1163 38.8819C12.1162 38.891 12.116 38.9052 12.1156 38.9244C12.1148 38.9628 12.1132 39.0211 12.1101 39.0977C12.1039 39.2509 12.0914 39.4774 12.0667 39.7644C12.017 40.3389 11.9181 41.1544 11.721 42.1112C11.326 44.0289 10.5414 46.4915 8.98904 48.7189L9.80946 49.2907C11.4649 46.9153 12.2888 44.3112 12.7005 42.3129C12.9067 41.3117 13.0106 40.4569 13.0629 39.8505C13.0891 39.5472 13.1025 39.3055 13.1093 39.1384C13.1127 39.0548 13.1145 38.9897 13.1154 38.9449C13.1158 38.9224 13.1161 38.905 13.1162 38.8928C13.1163 38.8868 13.1163 38.882 13.1164 38.8785C13.1164 38.8768 13.1164 38.8754 13.1164 38.8744C13.1164 38.8739 13.1164 38.8734 13.1164 38.8731C13.1164 38.8729 13.1164 38.8727 13.1164 38.8726C13.1164 38.8724 13.1164 38.8722 12.6164 38.8714ZM8.98904 48.7189C7.26613 51.1911 4.98718 53.2836 0.802748 55.0801L1.19725 55.999C5.54767 54.1313 7.97634 51.921 9.80946 49.2907L8.98904 48.7189ZM1 55.5396C1.46305 55.7282 1.46308 55.7281 1.4631 55.7281C1.46312 55.728 1.46315 55.7279 1.46318 55.7279C1.46324 55.7277 1.46331 55.7276 1.46339 55.7273C1.46357 55.7269 1.4638 55.7264 1.46408 55.7257C1.46465 55.7242 1.46545 55.7223 1.46648 55.7197C1.46853 55.7146 1.47149 55.7073 1.47535 55.6976C1.48307 55.6782 1.49439 55.6497 1.50924 55.6117C1.53894 55.5356 1.58276 55.4219 1.64019 55.2687C1.75505 54.9622 1.92433 54.4979 2.14383 53.8619C2.58282 52.5899 3.22273 50.631 4.02997 47.8747L3.07028 47.5936C2.26717 50.3358 1.63202 52.2796 1.19854 53.5357C0.981798 54.1637 0.815484 54.6198 0.70381 54.9177C0.647974 55.0667 0.605799 55.1761 0.577813 55.2477C0.563819 55.2835 0.553374 55.3099 0.546541 55.327C0.543125 55.3356 0.540612 55.3419 0.53901 55.3458C0.53821 55.3478 0.537637 55.3492 0.537293 55.3501C0.537121 55.3505 0.537006 55.3508 0.536949 55.3509C0.53692 55.351 0.536906 55.351 0.536906 55.351L0.536917 55.351C0.536931 55.351 0.536949 55.3509 1 55.5396ZM6.11204 43.8789C7.61834 42.294 9.29185 41.1564 10.5929 40.4144C11.2424 40.044 11.7963 39.7737 12.186 39.5967C12.3808 39.5082 12.5344 39.4432 12.6381 39.4007C12.6899 39.3794 12.7293 39.3638 12.7551 39.3537C12.768 39.3487 12.7775 39.345 12.7835 39.3427C12.7865 39.3416 12.7886 39.3408 12.7898 39.3403C12.7904 39.3401 12.7908 39.34 12.791 39.3399C12.7911 39.3399 12.7911 39.3399 12.791 39.3399C12.791 39.3399 12.791 39.3399 12.791 39.3399C12.7909 39.34 12.7908 39.34 12.6164 38.8714C12.442 38.4028 12.4419 38.4028 12.4417 38.4029C12.4417 38.4029 12.4415 38.403 12.4414 38.403C12.4411 38.4031 12.4408 38.4032 12.4404 38.4034C12.4396 38.4037 12.4387 38.404 12.4374 38.4045C12.435 38.4054 12.4317 38.4067 12.4274 38.4083C12.419 38.4115 12.407 38.4161 12.3915 38.4222C12.3606 38.4342 12.316 38.4519 12.2588 38.4754C12.1444 38.5223 11.9794 38.5922 11.7725 38.6862C11.359 38.874 10.7773 39.158 10.0975 39.5457C8.73993 40.32 6.98006 41.5139 5.38718 43.19L6.11204 43.8789ZM4.02997 47.8747C4.47061 46.3701 5.08751 44.9569 6.11204 43.8789L5.38718 43.19C4.2037 44.4352 3.52985 46.0244 3.07028 47.5936L4.02997 47.8747ZM11.9605 40.8703C12.4349 39.8485 13.2722 38.2572 14.2344 36.8186C14.7155 36.0993 15.2214 35.4278 15.7224 34.8874C16.2301 34.3398 16.7022 33.9603 17.1103 33.7818L16.7096 32.8656C16.1153 33.1256 15.5316 33.6223 14.9891 34.2075C14.44 34.7998 13.9015 35.5175 13.4032 36.2626C12.4065 37.7528 11.5447 39.391 11.0534 40.4492L11.9605 40.8703Z" fill="#656E78"/>
</g>
<g id="Vector_2" opacity="0.3">
<path d="M39.1983 26.3477C39.1983 26.3477 39.1919 30.1337 37.0028 33.2845C35.7895 35.0309 34.1832 36.5037 31.271 37.7578C31.271 37.7578 31.8287 36.3846 32.7951 33.1469C33.2531 31.6125 33.8825 30.0938 35.0536 29.0035C37.0414 27.1529 39.1983 26.3477 39.1983 26.3477Z" fill="#656E78"/>
<path d="M39.1983 26.3477L39.6983 26.3486L39.6995 25.6269L39.0234 25.8793L39.1983 26.3477ZM37.0028 33.2845L36.5922 32.9992L37.0028 33.2845ZM31.271 37.7578L30.8077 37.5697L30.349 38.6993L31.4688 38.2171L31.271 37.7578ZM32.7951 33.1469L32.316 33.0039L32.7951 33.1469ZM35.0536 29.0035L35.3943 29.3694L35.0536 29.0035ZM42.3293 23.0079C42.5821 22.8969 42.6972 22.602 42.5862 22.3491C42.4752 22.0963 42.1803 21.9812 41.9274 22.0922L42.3293 23.0079ZM39.1983 26.3477C38.6983 26.3469 38.6983 26.3467 38.6983 26.3466C38.6983 26.3466 38.6983 26.3465 38.6983 26.3465C38.6983 26.3464 38.6983 26.3464 38.6983 26.3464C38.6983 26.3465 38.6983 26.3468 38.6983 26.3474C38.6983 26.3484 38.6983 26.3504 38.6982 26.3532C38.6982 26.3589 38.698 26.3682 38.6978 26.3808C38.6973 26.4061 38.6962 26.4449 38.6942 26.4963C38.69 26.599 38.6816 26.7516 38.6649 26.9456C38.6315 27.3338 38.5648 27.886 38.4317 28.534C38.1647 29.8342 37.6354 31.4978 36.5922 32.9992L37.4135 33.5698C38.5594 31.9204 39.1278 30.1156 39.4112 28.7351C39.5534 28.0428 39.6251 27.4515 39.6612 27.0314C39.6793 26.8212 39.6886 26.6534 39.6933 26.5368C39.6957 26.4785 39.6969 26.4329 39.6976 26.4012C39.6979 26.3853 39.6981 26.3729 39.6982 26.3641C39.6982 26.3597 39.6983 26.3562 39.6983 26.3536C39.6983 26.3523 39.6983 26.3512 39.6983 26.3504C39.6983 26.35 39.6983 26.3496 39.6983 26.3493C39.6983 26.3491 39.6983 26.349 39.6983 26.3489C39.6983 26.3487 39.6983 26.3486 39.1983 26.3477ZM36.5922 32.9992C35.4338 34.6666 33.9023 36.0803 31.0732 37.2986L31.4688 38.2171C34.4641 36.9271 36.1452 35.3953 37.4135 33.5698L36.5922 32.9992ZM31.271 37.7578C31.7343 37.946 31.7343 37.9459 31.7343 37.9459C31.7343 37.9458 31.7343 37.9458 31.7344 37.9457C31.7344 37.9456 31.7345 37.9455 31.7345 37.9453C31.7346 37.945 31.7348 37.9446 31.735 37.9442C31.7354 37.9432 31.7359 37.942 31.7365 37.9404C31.7378 37.9371 31.7396 37.9326 31.742 37.9266C31.7467 37.9147 31.7536 37.8974 31.7626 37.8744C31.7805 37.8285 31.8068 37.7602 31.8413 37.6685C31.9102 37.4852 32.0115 37.2085 32.1429 36.8308C32.4057 36.0753 32.789 34.9154 33.2743 33.2899L32.316 33.0039C31.8348 34.616 31.456 35.7617 31.1984 36.5022C31.0696 36.8725 30.9711 37.1414 30.9052 37.3168C30.8722 37.4045 30.8475 37.4688 30.8311 37.5106C30.8229 37.5315 30.8169 37.5468 30.813 37.5566C30.811 37.5615 30.8096 37.5651 30.8087 37.5672C30.8083 37.5683 30.808 37.5691 30.8078 37.5695C30.8077 37.5697 30.8077 37.5698 30.8077 37.5698C30.8077 37.5699 30.8077 37.5699 30.8077 37.5698C30.8077 37.5698 30.8077 37.5698 30.8077 37.5698C30.8077 37.5697 30.8077 37.5697 31.271 37.7578ZM35.3943 29.3694C36.3501 28.4796 37.3497 27.8386 38.1121 27.4199C38.4925 27.2109 38.8119 27.0584 39.0345 26.9588C39.1457 26.909 39.2325 26.8726 39.2905 26.8489C39.3195 26.8371 39.3413 26.8285 39.3552 26.8231C39.3622 26.8203 39.3672 26.8184 39.3703 26.8172C39.3718 26.8167 39.3728 26.8163 39.3732 26.8161C39.3735 26.816 39.3736 26.816 39.3736 26.816C39.3736 26.816 39.3735 26.816 39.3735 26.816C39.3734 26.816 39.3734 26.8161 39.3733 26.8161C39.3733 26.8161 39.3732 26.8161 39.1983 26.3477C39.0234 25.8793 39.0233 25.8793 39.0232 25.8794C39.0231 25.8794 39.023 25.8794 39.0229 25.8795C39.0227 25.8796 39.0225 25.8796 39.0222 25.8797C39.0217 25.88 39.021 25.8802 39.0202 25.8805C39.0186 25.8811 39.0165 25.8819 39.0138 25.8829C39.0086 25.8849 39.0012 25.8877 38.9919 25.8914C38.9733 25.8986 38.9468 25.9091 38.913 25.9229C38.8452 25.9506 38.748 25.9914 38.626 26.0461C38.382 26.1553 38.0379 26.3197 37.6307 26.5434C36.8177 26.9899 35.745 27.6767 34.7129 28.6375L35.3943 29.3694ZM33.2743 33.2899C33.7259 31.7768 34.3242 30.3657 35.3943 29.3694L34.7129 28.6375C33.4407 29.8219 32.7804 31.4483 32.316 33.0039L33.2743 33.2899ZM38.895 27.7819C39.2161 27.0882 39.7837 26.0062 40.4349 25.0296C40.7605 24.5412 41.1006 24.0889 41.4349 23.7271C41.7759 23.3582 42.0804 23.1171 42.3293 23.0079L41.9274 22.0922C41.4922 22.2832 41.0762 22.6419 40.7005 23.0484C40.3182 23.462 39.9457 23.9607 39.6029 24.4748C38.9173 25.503 38.3254 26.6319 37.9875 27.3619L38.895 27.7819Z" fill="#656E78"/>
</g>
<g id="Vector_3" opacity="0.3">
<path d="M115.309 75.2825C115.309 75.2825 114.671 71.2286 116.564 67.635C118.458 64.0414 120.965 61.6389 122.165 62.2689C123.365 62.8989 122.803 66.3227 120.91 69.9163C119.017 73.5099 115.309 75.2825 115.309 75.2825Z" fill="#656E78"/>
<path d="M115.309 75.2825L114.815 75.3602L114.919 76.023L115.525 75.7336L115.309 75.2825ZM124.235 59.1749C124.235 58.8987 124.012 58.6749 123.735 58.6749C123.459 58.6749 123.235 58.8987 123.235 59.1749L124.235 59.1749ZM115.309 75.2825C115.803 75.2048 115.803 75.2049 115.803 75.205C115.803 75.205 115.803 75.2051 115.803 75.2051C115.803 75.2052 115.803 75.2052 115.803 75.2052C115.803 75.205 115.803 75.2047 115.803 75.2041C115.803 75.2029 115.802 75.2008 115.802 75.1977C115.801 75.1915 115.8 75.1815 115.798 75.1679C115.794 75.1406 115.788 75.0987 115.782 75.0434C115.769 74.9326 115.752 74.768 115.738 74.5583C115.709 74.1387 115.689 73.5403 115.726 72.8327C115.801 71.4127 116.105 69.5791 117.007 67.8681L116.122 67.402C115.13 69.2846 114.807 71.2747 114.727 72.78C114.688 73.5351 114.709 74.1748 114.74 74.6275C114.756 74.854 114.774 75.0342 114.789 75.1592C114.796 75.2217 114.802 75.2704 114.807 75.3043C114.809 75.3212 114.811 75.3345 114.813 75.3438C114.813 75.3485 114.814 75.3522 114.814 75.355C114.815 75.3563 114.815 75.3575 114.815 75.3583C114.815 75.3588 114.815 75.3591 114.815 75.3595C114.815 75.3596 114.815 75.3598 114.815 75.3599C114.815 75.3601 114.815 75.3602 115.309 75.2825ZM117.007 67.8681C117.935 66.1056 119.005 64.654 119.971 63.7292C120.455 63.2649 120.893 62.9535 121.253 62.7931C121.621 62.6297 121.826 62.6557 121.933 62.7116L122.398 61.8262C121.904 61.5671 121.347 61.6571 120.847 61.8794C120.341 62.1046 119.808 62.5003 119.279 63.0071C118.217 64.0244 117.087 65.5708 116.122 67.402L117.007 67.8681ZM121.933 62.7116C122.039 62.7674 122.177 62.9214 122.25 63.3155C122.322 63.7027 122.313 64.2386 122.204 64.9003C121.988 66.2181 121.396 67.9208 120.468 69.6833L121.352 70.1494C122.317 68.3183 122.953 66.5123 123.191 65.0622C123.31 64.3399 123.334 63.6772 123.233 63.1329C123.133 62.5956 122.891 62.0854 122.398 61.8262L121.933 62.7116ZM120.468 69.6833C119.566 71.3943 118.225 72.6838 117.095 73.5503C116.532 73.982 116.027 74.3047 115.664 74.5186C115.483 74.6255 115.337 74.705 115.239 74.7572C115.189 74.7832 115.152 74.8024 115.127 74.8148C115.115 74.821 115.106 74.8255 115.1 74.8282C115.097 74.8296 115.095 74.8306 115.094 74.8311C115.094 74.8314 115.093 74.8315 115.093 74.8316C115.093 74.8316 115.093 74.8316 115.093 74.8316C115.093 74.8315 115.093 74.8315 115.093 74.8315C115.093 74.8314 115.093 74.8314 115.309 75.2825C115.525 75.7336 115.525 75.7335 115.525 75.7334C115.525 75.7334 115.525 75.7333 115.525 75.7333C115.526 75.7331 115.526 75.7329 115.526 75.7328C115.527 75.7324 115.528 75.7319 115.53 75.7313C115.532 75.7301 115.535 75.7284 115.54 75.7263C115.548 75.7222 115.56 75.7163 115.575 75.7086C115.606 75.6932 115.65 75.6709 115.706 75.6414C115.817 75.5826 115.976 75.4956 116.172 75.3801C116.563 75.1494 117.103 74.8044 117.704 74.3438C118.901 73.4255 120.361 72.032 121.352 70.1494L120.468 69.6833ZM119.113 66.9251C119.291 66.494 119.655 66.0541 120.165 65.5517C120.417 65.3041 120.691 65.0528 120.983 64.7853C121.271 64.52 121.575 64.2404 121.873 63.9461C123.06 62.773 124.235 61.2895 124.235 59.1749L123.235 59.1749C123.235 60.8752 122.306 62.1118 121.17 63.2348C120.887 63.5145 120.596 63.7825 120.306 64.0487C120.019 64.3127 119.73 64.5769 119.464 64.8392C118.938 65.3568 118.448 65.9147 118.188 66.5431L119.113 66.9251Z" fill="#656E78"/>
</g>
<g id="Vector_4" opacity="0.3">
<path d="M73.5914 16.8633C73.5914 16.8633 71.5119 12.5644 73.1485 9.49148C74.7852 6.41855 77.637 4.7368 79.5182 5.73519C81.3995 6.73358 81.5978 10.034 79.9611 13.107C78.3245 16.1799 73.5914 16.8633 73.5914 16.8633Z" fill="#656E78"/>
<path d="M73.5914 16.8633L73.1413 17.081L73.3007 17.4104L73.6629 17.3581L73.5914 16.8633ZM83.0106 1.4558C83.2624 1.34227 83.3744 1.04618 83.2609 0.79445C83.1474 0.542721 82.8513 0.430683 82.5995 0.544205L83.0106 1.4558ZM73.5914 16.8633C74.0415 16.6455 74.0416 16.6456 74.0416 16.6457C74.0416 16.6457 74.0417 16.6458 74.0417 16.6458C74.0417 16.6459 74.0417 16.6459 74.0416 16.6458C74.0416 16.6456 74.0413 16.6452 74.041 16.6445C74.0404 16.6431 74.0392 16.6407 74.0376 16.6374C74.0344 16.6306 74.0294 16.6198 74.0227 16.6052C74.0093 16.5761 73.9892 16.5317 73.9639 16.4733C73.9132 16.3566 73.8415 16.1845 73.7601 15.9678C73.597 15.5334 73.3962 14.9239 73.2449 14.2241C72.9383 12.8055 72.8549 11.1064 73.5898 9.72652L72.7072 9.25644C71.8054 10.9495 71.9435 12.9363 72.2675 14.4353C72.4315 15.1943 72.6483 15.8517 72.824 16.3193C72.912 16.5536 72.99 16.7414 73.0466 16.8717C73.075 16.937 73.098 16.9879 73.1142 17.0232C73.1224 17.0409 73.1288 17.0546 73.1334 17.0643C73.1356 17.0692 73.1375 17.073 73.1388 17.0758C73.1395 17.0772 73.14 17.0783 73.1404 17.0792C73.1406 17.0796 73.1408 17.08 73.141 17.0803C73.141 17.0804 73.1411 17.0806 73.1412 17.0807C73.1412 17.0808 73.1413 17.081 73.5914 16.8633ZM73.5898 9.72652C74.372 8.25782 75.4344 7.14312 76.4956 6.51728C77.5656 5.88632 78.5549 5.79 79.2838 6.17684L79.7526 5.29353C78.6003 4.68198 77.2231 4.92734 75.9877 5.6559C74.7435 6.38957 73.5616 7.65221 72.7072 9.25644L73.5898 9.72652ZM79.2838 6.17684C80.0124 6.56352 80.4854 7.43544 80.5598 8.67311C80.6336 9.90091 80.3021 11.4032 79.5198 12.8719L80.4025 13.342C81.2569 11.7378 81.6445 10.0534 81.558 8.61314C81.4721 7.18275 80.9053 5.90525 79.7526 5.29353L79.2838 6.17684ZM79.5198 12.8719C78.7848 14.2519 77.3268 15.1334 75.9769 15.6732C75.311 15.9395 74.6924 16.1142 74.2404 16.2221C74.0148 16.276 73.8318 16.313 73.7065 16.3363C73.6439 16.348 73.5957 16.3562 73.564 16.3614C73.5481 16.364 73.5364 16.3659 73.5289 16.367C73.5252 16.3676 73.5226 16.368 73.5211 16.3682C73.5203 16.3683 73.5199 16.3684 73.5197 16.3684C73.5196 16.3684 73.5196 16.3684 73.5196 16.3684C73.5196 16.3684 73.5197 16.3684 73.5197 16.3684C73.5198 16.3684 73.52 16.3684 73.5914 16.8633C73.6629 17.3581 73.663 17.3581 73.6632 17.3581C73.6633 17.3581 73.6635 17.358 73.6636 17.358C73.664 17.358 73.6644 17.3579 73.6649 17.3578C73.6658 17.3577 73.6671 17.3575 73.6686 17.3573C73.6717 17.3568 73.6758 17.3562 73.6811 17.3554C73.6917 17.3537 73.7067 17.3514 73.7259 17.3482C73.7643 17.3419 73.8195 17.3325 73.8895 17.3194C74.0294 17.2934 74.229 17.253 74.4727 17.1948C74.9592 17.0786 75.6263 16.8904 76.3482 16.6017C77.774 16.0316 79.5008 15.0349 80.4025 13.342L79.5198 12.8719ZM79.0112 7.53031C79.2123 6.72687 79.6633 5.44 80.3535 4.22876C81.0505 3.00548 81.9486 1.93473 83.0106 1.4558L82.5995 0.544205C81.2494 1.15307 80.2187 2.44524 79.4846 3.7337C78.7436 5.0342 78.2613 6.40788 78.0411 7.2875L79.0112 7.53031Z" fill="#656E78"/>
</g>
<g id="Vector_5" opacity="0.3">
<path d="M118.278 47.468C118.278 47.468 120.91 46.9621 121.937 45.3124C122.963 43.6627 122.99 41.9532 121.996 41.494C121.002 41.0348 119.365 41.9999 118.338 43.6496C117.311 45.2992 118.278 47.468 118.278 47.468Z" fill="#656E78"/>
<path d="M118.278 47.468L117.821 47.6716L117.983 48.0339L118.373 47.959L118.278 47.468ZM124.209 39.0829C124.21 38.8068 123.988 38.5818 123.711 38.5805C123.435 38.5791 123.21 38.8019 123.209 39.078L124.209 39.0829ZM118.278 47.468C118.373 47.959 118.373 47.959 118.373 47.9589C118.373 47.9589 118.373 47.9589 118.373 47.9589C118.373 47.9588 118.374 47.9588 118.374 47.9587C118.375 47.9586 118.376 47.9584 118.377 47.9582C118.378 47.9578 118.381 47.9573 118.384 47.9567C118.391 47.9554 118.4 47.9536 118.411 47.9512C118.433 47.9465 118.465 47.9395 118.506 47.9302C118.586 47.9117 118.7 47.8837 118.84 47.8448C119.118 47.7674 119.5 47.6459 119.917 47.4693C120.735 47.1233 121.766 46.5334 122.361 45.5766L121.512 45.0482C121.081 45.7411 120.282 46.229 119.527 46.5484C119.159 46.7044 118.819 46.8126 118.571 46.8815C118.448 46.9159 118.348 46.9403 118.281 46.9558C118.247 46.9636 118.222 46.9691 118.205 46.9726C118.197 46.9744 118.191 46.9756 118.187 46.9763C118.185 46.9767 118.184 46.9769 118.184 46.977C118.183 46.9771 118.183 46.9771 118.183 46.9771C118.183 46.9771 118.183 46.9771 118.183 46.9771C118.183 46.977 118.183 46.977 118.184 46.977C118.184 46.977 118.184 46.977 118.278 47.468ZM122.361 45.5766C122.91 44.6943 123.211 43.7669 123.224 42.9646C123.236 42.1712 122.955 41.3864 122.206 41.0401L121.786 41.9479C122.031 42.0608 122.233 42.3604 122.224 42.949C122.215 43.5287 121.99 44.2808 121.512 45.0482L122.361 45.5766ZM122.206 41.0401C121.49 40.7093 120.646 40.9258 119.926 41.3502C119.185 41.7863 118.464 42.5011 117.913 43.3854L118.762 43.9138C119.239 43.1484 119.849 42.5558 120.433 42.2117C121.037 41.856 121.509 41.8195 121.786 41.9479L122.206 41.0401ZM117.913 43.3854C117.31 44.3545 117.307 45.4487 117.429 46.2523C117.49 46.6598 117.587 47.0097 117.668 47.2582C117.708 47.3829 117.745 47.4831 117.773 47.5536C117.787 47.5889 117.798 47.6168 117.806 47.6366C117.811 47.6466 117.814 47.6545 117.817 47.6604C117.818 47.6633 117.819 47.6657 117.82 47.6676C117.82 47.6685 117.82 47.6693 117.821 47.67C117.821 47.6703 117.821 47.6706 117.821 47.6709C117.821 47.671 117.821 47.6712 117.821 47.6713C117.821 47.6715 117.821 47.6716 118.278 47.468C118.735 47.2644 118.735 47.2645 118.735 47.2646C118.735 47.2647 118.735 47.2648 118.735 47.2649C118.735 47.265 118.735 47.2651 118.735 47.2652C118.735 47.2653 118.735 47.2653 118.735 47.2652C118.735 47.265 118.735 47.2643 118.734 47.2631C118.733 47.2606 118.731 47.2562 118.729 47.2498C118.723 47.2371 118.715 47.2168 118.704 47.1896C118.683 47.135 118.653 47.0529 118.618 46.9485C118.55 46.7388 118.469 46.4434 118.417 46.1025C118.312 45.4093 118.339 44.5943 118.762 43.9138L117.913 43.3854ZM121.763 43.1104C122.166 42.7642 122.76 42.1636 123.26 41.4652C123.748 40.7832 124.205 39.9258 124.209 39.0829L123.209 39.078C123.206 39.5994 122.905 40.2432 122.447 40.8834C122.001 41.5072 121.463 42.0498 121.111 42.352L121.763 43.1104Z" fill="#656E78"/>
</g>
</g>
<defs>
<linearGradient id="paint0_linear_3455_6783" x1="67.73" y1="47.4824" x2="67.73" y2="121" gradientUnits="userSpaceOnUse">
<stop offset="0.175729" stop-color="#8591A0"/>
<stop offset="1" stop-color="#D0D8E1"/>
</linearGradient>
<linearGradient id="paint1_linear_3455_6783" x1="70.1852" y1="13.1742" x2="70.1852" y2="79.6901" gradientUnits="userSpaceOnUse">
<stop offset="0.175729" stop-color="#9FA5AC"/>
<stop offset="1" stop-color="#D0D8E1"/>
</linearGradient>
<linearGradient id="paint2_linear_3455_6783" x1="67.7301" y1="55.1843" x2="67.7301" y2="121" gradientUnits="userSpaceOnUse">
<stop offset="0.175729" stop-color="#9FA5AC"/>
<stop offset="1" stop-color="#D0D8E1"/>
</linearGradient>
</defs>
</svg>
