<svg width="18" height="18" viewBox="0 0 18 18" fill="none" xmlns="http://www.w3.org/2000/svg">
<g id="Group 5730">
<path id="Subtract" fill-rule="evenodd" clip-rule="evenodd" d="M6.48643 2.84436H7.42288C8.72262 2.84436 9.78058 2.84436 10.6152 2.94492C11.4853 3.05101 12.234 3.27756 12.8305 3.81574C13.4282 4.35172 13.6798 5.02583 13.7976 5.81045C13.7941 5.78538 13.7904 5.76033 13.7866 5.7353C14.1114 5.4989 14.4516 5.28008 14.8053 5.07998C15.3784 4.76834 16.105 4.50753 16.85 4.83906C17.5839 5.16728 17.811 5.83807 17.9055 6.44035C18 7.04595 18 7.8582 18 8.83621V10.1126C18 11.0906 18 11.904 17.9055 12.5085C17.811 13.1107 17.5839 13.7815 16.85 14.1097C16.105 14.4424 15.3784 14.1805 14.8053 13.8688C14.4997 13.7031 14.1609 13.4787 13.7854 13.2135C13.6638 13.9661 13.4086 14.6148 12.8305 15.1342C12.2352 15.6712 11.4866 15.8989 10.6152 16.005C9.78181 16.1055 8.72385 16.1055 7.42534 16.1055H6.48398C5.18424 16.1055 4.12751 16.1055 3.29415 16.005C2.42397 15.8989 1.6753 15.6712 1.07759 15.1342C0.481113 14.5971 0.228283 13.923 0.111687 13.1384C0 12.3869 0 11.4354 0 10.2651V8.68481C0 7.51451 0 6.56191 0.111687 5.81045C0.228283 5.02693 0.481113 4.35282 1.07759 3.81574C1.67408 3.27756 2.42275 3.05101 3.29415 2.94492C4.12873 2.84436 5.18669 2.84436 6.48643 2.84436ZM15.6521 6.34089C15.2299 6.57075 14.6887 6.96417 13.9044 7.54545H13.9032C13.9103 7.85638 13.9097 8.04474 13.9088 8.31878C13.9085 8.42363 13.9081 8.54101 13.9081 8.6826V10.2673C13.9081 10.6718 13.9081 11.0497 13.9032 11.4034C14.6874 11.9846 15.2287 12.3781 15.6509 12.609C15.7825 12.6885 15.9276 12.7482 16.0805 12.7858C16.0914 12.7876 16.1025 12.7887 16.1136 12.7891H16.1222L16.1259 12.7869L16.1271 12.7858C16.14 12.7725 16.1507 12.7576 16.159 12.7416C16.1983 12.672 16.2474 12.5416 16.2842 12.3018C16.3603 11.8133 16.3627 11.1039 16.3627 10.0507V8.89809C16.3627 7.84493 16.3603 7.13546 16.2842 6.64701C16.2461 6.4072 16.1983 6.2768 16.159 6.20718C16.1507 6.19118 16.14 6.1763 16.1271 6.16297C16.1253 6.16154 16.1232 6.16041 16.121 6.15966H16.1136C16.1029 6.16048 16.0922 6.16195 16.0817 6.16408C16.008 6.17623 15.873 6.21933 15.6521 6.34089ZM9 9.47496C10.1046 9.47496 11 8.62678 11 7.5805C11 6.53422 10.1046 5.68604 9 5.68604C7.89543 5.68604 7 6.53422 7 7.5805C7 8.62678 7.89543 9.47496 9 9.47496Z" fill="currentColor"/>
</g>
</svg>
