<svg xmlns="http://www.w3.org/2000/svg" width="23" height="16" viewBox="0 0 23 16" fill="none">
  <rect x="0.5" y="0.5" width="22" height="15" rx="1.5" stroke="currentColor"/>
  <path d="M4.51948 9.92129V6.05315C4.52075 5.8715 4.44277 5.69678 4.30258 5.56713C4.16238 5.43749 3.97136 5.36345 3.77123 5.36118H2.5V10.6219H3.77123C3.97182 10.6163 4.16214 10.54 4.30182 10.4092C4.4415 10.2784 4.51957 10.1034 4.51948 9.92129ZM19.3188 5.36118C19.1203 5.36343 18.9307 5.43628 18.7908 5.56408C18.6508 5.69187 18.5718 5.86439 18.5705 6.04455V9.9127C18.5718 10.0929 18.6508 10.2654 18.7908 10.3932C18.9307 10.521 19.1203 10.5938 19.3188 10.5961H20.5V5.36118H19.3188ZM9.4068 7.98292C9.40718 8.41024 9.56773 8.82472 9.86208 9.15824C10.1564 9.49177 10.567 9.72448 11.0264 9.81814V6.1477C10.567 6.24136 10.1564 6.47408 9.86208 6.8076C9.56773 7.14112 9.40718 7.55561 9.4068 7.98292ZM13.5695 7.98292C13.5682 7.55324 13.405 7.1369 13.1069 6.80305C12.8088 6.46921 12.3939 6.23795 11.931 6.1477V9.81814C12.3919 9.72431 12.8044 9.49207 13.1017 9.15901C13.3991 8.82595 13.5639 8.41157 13.5695 7.98292Z" fill="currentColor"/>
  <path d="M20.5 3.49974C20.5 2.94746 20.0523 2.5 19.5 2.5H11.8883V5.40397C12.5682 5.50464 13.1865 5.82147 13.6327 6.29783C14.0789 6.77418 14.3239 7.37901 14.3239 8.00422C14.3239 8.62943 14.0789 9.23426 13.6327 9.71061C13.1865 10.187 12.5682 10.5038 11.8883 10.6045V13.5H19.5C20.0523 13.5 20.5 13.0526 20.5 12.5004C20.5 12.1656 20.5 11.7685 20.5 11.3437H19.3187C18.903 11.3437 18.5043 11.1938 18.2103 10.927C17.9164 10.6603 17.7512 10.2984 17.7512 9.9211V6.05296C17.7512 5.86614 17.7918 5.68114 17.8705 5.50854C17.9493 5.33594 18.0648 5.17912 18.2103 5.04701C18.3559 4.91491 18.5287 4.81012 18.7189 4.73863C18.9091 4.66714 19.1129 4.63034 19.3187 4.63034H20.5C20.5 4.2128 20.5 3.82599 20.5 3.49974ZM8.65852 8.00422C8.66317 7.38037 8.90965 6.77792 9.35473 6.30247C9.79981 5.82703 10.4151 5.50894 11.0927 5.40397V2.5H3.5C2.94771 2.5 2.5 2.94743 2.5 3.49971C2.5 3.82802 2.5 4.21782 2.5 4.63893H3.77119C3.97767 4.63893 4.18212 4.67584 4.37288 4.74755C4.56364 4.81926 4.73696 4.92437 4.88296 5.05687C5.02896 5.18937 5.14477 5.34667 5.22379 5.51979C5.3028 5.69291 5.34347 5.87846 5.34347 6.06585V9.934C5.34222 10.3109 5.17667 10.6721 4.88297 10.9387C4.58927 11.2052 4.19128 11.3555 3.77593 11.3566H2.5C2.5 11.7831 2.5 12.1731 2.5 12.5002C2.5 13.0525 2.94772 13.5 3.5 13.5H11.0264V10.583C10.3575 10.4804 9.75111 10.1641 9.31683 9.69113C8.88255 9.21817 8.64904 8.61981 8.65852 8.00422Z" fill="currentColor"/>
</svg>