<svg width="132" height="16" viewBox="0 0 132 16" fill="none" xmlns="http://www.w3.org/2000/svg">
<path fill-rule="evenodd" clip-rule="evenodd" d="M14.8667 0.466667C15.7333 0.8 16.4667 1.26667 17.0667 1.86667C17.6667 2.53333 18.1333 3.2 18.4667 4.06667C18.8 4.86667 18.9333 5.8 18.9333 6.86667V9.06667C18.9333 10.0667 18.8 11 18.4667 11.8667C18.1333 12.7333 17.6667 13.4667 17.0667 14.0667C16.4667 14.6667 15.7333 15.1333 14.8667 15.4667C14.0667 15.8 13.1333 15.9333 12.0667 15.9333H6.86667C5.86667 15.9333 4.93333 15.8 4.06667 15.4667C3.2 15.1333 2.46667 14.6667 1.86667 14.0667C1.26667 13.4667 0.8 12.7333 0.466667 11.8667C0.133333 11.0667 0 10.1333 0 9.06667V6.86667C0 5.86667 0.133333 4.93333 0.466667 4.06667C0.8 3.2 1.26667 2.46667 1.86667 1.86667C2.53333 1.26667 3.2 0.8 4.06667 0.466667C4.86667 0.133333 5.8 0 6.86667 0H12.0667C13.1333 0 14.0667 0.133333 14.8667 0.466667ZM14.2 11.4667C14.7333 10.8667 15 10.1333 15 9.13333V6.86667C15 5.86667 14.7333 5.13333 14.2 4.53333C13.6667 3.93333 12.9333 3.66667 12.0667 3.66667H6.86667C6 3.66667 5.26667 4 4.73333 4.6C4.2 5.2 3.93333 5.93333 3.93333 6.93333V9.13333C3.93333 10.1333 4.2 10.8667 4.73333 11.4667C5.26667 12.0667 6 12.3333 6.86667 12.3333H12.0667C12.9333 12.3333 13.6667 12.0667 14.2 11.4667Z" fill="#3BC116"/>
<path d="M71.7336 0.4C72.3336 0.666667 72.8669 1 73.3336 1.46667C73.8003 1.93333 74.1336 2.46667 74.4003 3.13333C74.6669 3.8 74.8003 4.53333 74.8003 5.33333C74.8003 6.13333 74.6669 6.86667 74.4003 7.53333C74.1336 8.2 73.8003 8.8 73.3336 9.26667C72.8669 9.73333 72.3336 10.0667 71.7336 10.3333C71.1336 10.6 70.4669 10.7333 69.7336 10.7333H61.5336V16H57.6003V7H68.5336C69.3336 7 69.9336 6.86667 70.3336 6.53333C70.7336 6.2 70.9336 5.8 70.9336 5.26667C70.9336 4.8 70.7336 4.4 70.3336 4.06667C69.9336 3.73333 69.3336 3.6 68.5336 3.6H44.6003C43.8669 3.6 43.4003 3.73333 43.1336 3.93333C42.8669 4.13333 42.7336 4.46667 42.7336 4.86667C42.7336 5.26667 42.8669 5.6 43.1336 5.8C43.4003 6 43.8669 6.13333 44.6003 6.13333H50.1336C51.0669 6.13333 51.8669 6.26667 52.5336 6.53333C53.2669 6.8 53.8003 7.13333 54.2669 7.6C54.7336 8.06667 55.0669 8.6 55.2669 9.2C55.4669 9.86667 55.6003 10.4667 55.6003 11.2C55.6003 11.8667 55.4669 12.5333 55.2669 13.1333C55.0669 13.7333 54.7336 14.2667 54.2669 14.6667C53.8003 15.1333 53.2003 15.4667 52.5336 15.6667C51.8669 15.8667 51.0003 16 50.0669 16H32.7336L24.8669 10.6V16H20.9336V0H24.8669V5.66667L32.8669 0H39.2669L27.8669 8.2L33.9336 12.4H50.0003C50.7336 12.4 51.2003 12.2667 51.4669 12.0667C51.7336 11.8 51.8669 11.5333 51.8669 11.1333C51.8669 10.7333 51.7336 10.4 51.4669 10.2C51.2003 10 50.7336 9.86667 50.0003 9.86667H44.4669C43.5336 9.86667 42.7336 9.73333 42.0669 9.46667C41.3336 9.2 40.8003 8.86667 40.3336 8.4C39.8669 7.93333 39.5336 7.4 39.3336 6.8C39.1336 6.13333 39.0003 5.53333 39.0003 4.8C39.0003 3.33333 39.4669 2.2 40.4003 1.33333C41.3336 0.466667 42.7336 0 44.6003 0H69.7336C70.4669 0 71.1336 0.133333 71.7336 0.4Z" fill="#3BC116"/>
<path fill-rule="evenodd" clip-rule="evenodd" d="M93.4 1.86667C92.8 1.26667 92.0667 0.8 91.2 0.466667C90.3333 0.133333 89.4 0 88.4 0H83.2C82.1333 0 81.2 0.133333 80.4 0.466667C79.5333 0.8 78.8 1.26667 78.2 1.86667C77.6 2.46667 77.1333 3.2 76.8 4.06667C76.4667 4.93333 76.3333 5.86667 76.3333 6.86667V9.06667C76.3333 10.1333 76.4667 11.0667 76.8 11.8667C77.1333 12.7333 77.6 13.4667 78.2 14.0667C78.8 14.6667 79.5333 15.1333 80.4 15.4667C81.2667 15.8 82.2 15.9333 83.2 15.9333H88.4C89.4667 15.9333 90.4 15.8 91.2 15.4667C92.0667 15.1333 92.8 14.6667 93.4 14.0667C94 13.4667 94.4667 12.7333 94.8 11.8667C95.1333 11 95.2667 10.0667 95.2667 9.06667V6.86667C95.2667 5.8 95.1333 4.86667 94.8 4.06667C94.4667 3.2 94 2.53333 93.4 1.86667ZM91.3333 9.13333C91.3333 10.1333 91.0667 10.8667 90.5333 11.4667C90 12.0667 89.2667 12.3333 88.4 12.3333H83.2C82.3333 12.3333 81.6 12.0667 81.0667 11.4667C80.5333 10.8667 80.2667 10.1333 80.2667 9.13333V6.93333C80.2667 5.93333 80.5333 5.2 81.0667 4.6C81.6 4 82.3333 3.73333 83.2 3.73333H88.4C89.2667 3.73333 90 4 90.5333 4.6C91.0667 5.2 91.3333 5.93333 91.3333 6.93333V9.13333Z" fill="#3BC116"/>
<path d="M115.733 3.66667V0H132V3.66667H125.867V16H109.333L105.667 10.7333H101.267V16H97.3333V7.06667H108.267C109.067 7.06667 109.667 6.93333 110.067 6.6C110.467 6.26667 110.667 5.86667 110.667 5.33333C110.667 4.86667 110.467 4.46667 110.067 4.13333C109.667 3.8 109.067 3.66667 108.267 3.66667H97.3333V0H109.467C110.2 0 110.867 0.133333 111.467 0.4C112.067 0.666667 112.6 1 113.067 1.46667C113.467 1.93333 113.867 2.46667 114.133 3.13333C114.4 3.8 114.533 4.53333 114.533 5.33333C114.533 6.06667 114.4 6.73333 114.2 7.33333C114 7.93333 113.733 8.46667 113.333 8.93333C112.933 9.4 112.467 9.8 112 10.0667C111.467 10.3333 110.933 10.5333 110.333 10.6667L111.467 12.2667H121.867V3.66667H115.733Z" fill="#3BC116"/>
</svg>
