<svg xmlns="http://www.w3.org/2000/svg" width="12" height="12" viewBox="0 0 12 12" fill="none">
  <path d="M7.86911 8.57912C7.93292 8.57913 7.99611 8.56656 8.05506 8.54214C8.11401 8.51771 8.16756 8.48192 8.21266 8.43679C8.30383 8.34562 8.35506 8.22199 8.35507 8.09309V4.9783H5.24174C5.15545 4.97677 5.0703 4.99825 4.99506 5.04052C4.91982 5.08279 4.85721 5.14432 4.81366 5.2188C4.77007 5.29331 4.7471 5.37808 4.7471 5.46439C4.7471 5.55071 4.77007 5.63547 4.81366 5.70999C4.85721 5.78446 4.91982 5.846 4.99506 5.88827C5.0703 5.93054 5.15545 5.95201 5.24174 5.95048H6.69664L6.11185 6.53564L4.06868 8.58068C4.00629 8.64055 3.961 8.71596 3.93746 8.79914C3.91392 8.88232 3.91299 8.97027 3.93476 9.05393C3.95653 9.13759 4.00022 9.21394 4.06133 9.27512C4.12243 9.3363 4.19875 9.3801 4.28242 9.40201C4.36609 9.42379 4.45406 9.42283 4.53724 9.39924C4.62042 9.37566 4.69578 9.33029 4.75554 9.26784L6.80039 7.22196L7.3847 6.63728V8.09309C7.38464 8.22168 7.43559 8.34505 7.52639 8.43616C7.61719 8.52727 7.74044 8.57868 7.86911 8.57912ZM11.9921 2.66157H11.9869V2.26614C11.9869 1.01747 10.9656 -0.00439453 9.71678 -0.00439453H2.26171C1.01335 -0.00439453 -0.0078125 1.01747 -0.0078125 2.26614V9.72507C-0.0078125 10.9745 1.01335 11.9956 2.26171 11.9956H9.71678C10.9656 11.9956 11.9863 10.974 11.9863 9.72507V6.9697C11.983 6.83934 11.929 6.71539 11.8357 6.62421C11.7424 6.53303 11.6173 6.48179 11.4868 6.48139C11.3563 6.48179 11.2311 6.53304 11.1378 6.62425C11.0445 6.71546 10.9905 6.83944 10.9872 6.96982V9.72519C10.984 10.4259 10.4172 10.9932 9.71678 10.9968H2.26171C1.5614 10.9932 0.994499 10.4259 0.991257 9.72507V3.62738H11.9922V2.66157H11.9921ZM10.988 2.66157H0.991257V2.26614C0.994859 1.56566 1.56152 0.998745 2.26171 0.995145H9.71678C10.417 0.998745 10.9836 1.56566 10.9872 2.26614L10.988 2.66157ZM9.92476 1.58042H5.51349C5.38416 1.58042 5.27801 1.69083 5.27801 1.8256V1.8688C5.27801 2.00357 5.38416 2.11397 5.51349 2.11397H9.92476C10.0542 2.11397 10.1602 2.00357 10.1602 1.86868V1.8256C10.1602 1.69083 10.0542 1.58042 9.92476 1.58042ZM3.5043 1.54574C3.4447 1.54592 3.38648 1.56373 3.33699 1.59691C3.28749 1.63009 3.24892 1.67717 3.22615 1.73222C3.20337 1.78727 3.1974 1.84782 3.20899 1.90624C3.22058 1.96467 3.24921 2.01837 3.29128 2.06057C3.33341 2.1028 3.38715 2.13157 3.44568 2.14323C3.5042 2.15489 3.56487 2.1489 3.61999 2.12604C3.6751 2.10318 3.72218 2.06447 3.75525 2.01483C3.78831 1.96518 3.80587 1.90683 3.8057 1.8472C3.8057 1.76729 3.77396 1.69065 3.71744 1.63412C3.66092 1.57759 3.58426 1.5458 3.5043 1.54574ZM4.41739 1.54574C4.35779 1.54592 4.29957 1.56373 4.25008 1.59691C4.20058 1.63009 4.16201 1.67717 4.13924 1.73222C4.11646 1.78727 4.11049 1.84782 4.12208 1.90624C4.13367 1.96467 4.1623 2.01837 4.20437 2.06057C4.2465 2.10284 4.30025 2.13165 4.35879 2.14333C4.41734 2.15501 4.47803 2.14904 4.53317 2.12617C4.58832 2.10331 4.63541 2.06458 4.66848 2.01491C4.70156 1.96523 4.71911 1.90686 4.71891 1.8472C4.71885 1.76724 4.68703 1.69059 4.63045 1.63406C4.57387 1.57754 4.49715 1.54577 4.41715 1.54574H4.41739Z" fill="currentColor"/>
</svg>