<svg width="12" height="12" viewBox="0 0 12 12" fill="none" xmlns="http://www.w3.org/2000/svg">
<rect x="0.5" y="0.5" width="11" height="11" rx="2.5" stroke="#01AFF6"/>
<path d="M2.66833 5.33325C2.58067 5.33312 2.49384 5.35026 2.4128 5.3837C2.33177 5.41714 2.25811 5.46621 2.19605 5.52812C2.13398 5.59003 2.08472 5.66356 2.05108 5.74452C2.01745 5.82547 2.00009 5.91226 2 5.99992C2 6.37059 2.29933 6.66659 2.66833 6.66659C6.52924 6.66659 5.06184 6.66659 9.33167 6.66659C9.41933 6.66672 9.50616 6.64958 9.5872 6.61614C9.66823 6.5827 9.74189 6.53363 9.80395 6.47172C9.86602 6.40981 9.91528 6.33628 9.94892 6.25532C9.98255 6.17437 9.99991 6.08758 10 5.99992C10 5.62925 9.70067 5.33325 9.33167 5.33325C5.0722 5.33325 6.52091 5.33325 2.66833 5.33325Z" fill="#01AFF6"/>
</svg>
