<svg width="20" height="20" viewBox="0 0 20 20" fill="none" xmlns="http://www.w3.org/2000/svg">
<g clip-path="url(#clip0_3946_29113)">
<path fill-rule="evenodd" clip-rule="evenodd" d="M2.9094 17.1321C1.03404 15.2567 -0.0195312 12.7132 -0.0195312 10.061C-0.0195312 7.40887 1.03404 4.86533 2.9094 2.98997C4.78476 1.1146 7.3283 0.0610352 9.98047 0.0610352C12.6326 0.0610352 15.1762 1.1146 17.0515 2.98997C18.9269 4.86533 19.9805 7.40887 19.9805 10.061C19.9805 12.7132 18.9269 15.2567 17.0515 17.1321C15.1762 19.0075 12.6326 20.061 9.98047 20.061C7.3283 20.061 4.78476 19.0075 2.9094 17.1321ZM7.57404 9.17439L8.44995 11.8701L6.06886 15.1474L2.79167 15.2688C2.79167 15.2688 1.13033 13.5436 1.09838 9.99727L3.92356 7.98819L7.57404 9.17439ZM10.0252 6.88634L7.60292 8.64621L3.81238 7.41452L2.91947 4.43816C2.91947 4.43816 4.54886 2.23369 7.23257 1.46692L10.0252 3.40966V6.88634ZM12.9584 8.64621L10.5365 6.88634V3.24353L12.9513 1.46692C12.9513 1.46692 15.4114 2.16979 17.3602 4.69375L16.5366 7.48353L12.9584 8.64621ZM16.3955 8.06692L18.9896 9.93337C18.9896 9.93337 19.1174 13.1284 17.3602 15.2051H14.5345L12.1115 11.87L12.9875 9.17427L16.3955 8.06692ZM8.91282 12.1026H11.6488L13.9951 15.3322L12.9513 18.4637C12.9513 18.4637 9.72445 19.6139 7.42413 18.4637L6.39423 15.569L8.91282 12.1026Z" fill="#3BC116"/>
</g>
<defs>
<clipPath id="clip0_3946_29113">
<rect width="20" height="20" fill="white"/>
</clipPath>
</defs>
</svg>
