<svg width="20" height="20" viewBox="0 0 20 20" fill="none" xmlns="http://www.w3.org/2000/svg">
<g clip-path="url(#clip0_3946_29119)">
<path fill-rule="evenodd" clip-rule="evenodd" d="M2.91038 17.1321C1.03501 15.2567 -0.0185547 12.7132 -0.0185547 10.061C-0.0185547 7.40887 1.03501 4.86533 2.91038 2.98997C4.78574 1.1146 7.32928 0.0610352 9.98145 0.0610352C12.6336 0.0610352 15.1771 1.1146 17.0525 2.98997C18.9279 4.86533 19.9814 7.40887 19.9814 10.061C19.9814 12.7132 18.9279 15.2567 17.0525 17.1321C15.1771 19.0075 12.6336 20.061 9.98145 20.061C7.32928 20.061 4.78574 19.0075 2.91038 17.1321ZM7.57501 9.17439L8.45092 11.8701L6.06984 15.1474L2.79265 15.2688C2.79265 15.2688 1.13131 13.5436 1.09936 9.99727L3.92453 7.98819L7.57501 9.17439ZM10.0261 6.88634L7.60389 8.64621L3.81335 7.41452L2.92044 4.43816C2.92044 4.43816 4.54984 2.23369 7.23354 1.46692L10.0261 3.40966V6.88634ZM12.9594 8.64621L10.5374 6.88634V3.24353L12.9523 1.46692C12.9523 1.46692 15.4123 2.16979 17.3612 4.69375L16.5376 7.48353L12.9594 8.64621ZM16.3965 8.06692L18.9906 9.93337C18.9906 9.93337 19.1184 13.1284 17.3612 15.2051H14.5355L12.1125 11.87L12.9884 9.17427L16.3965 8.06692ZM8.9138 12.1026H11.6498L13.9961 15.3322L12.9523 18.4637C12.9523 18.4637 9.72543 19.6139 7.42511 18.4637L6.3952 15.569L8.9138 12.1026Z" fill="#3BC116"/>
<circle cx="14" cy="14" r="5.57143" fill="white" stroke="#3BC116" stroke-width="0.857143"/>
<path d="M10.5713 14H17.4284" stroke="#3BC116" stroke-width="1.71429" stroke-linecap="round"/>
<path d="M14 10.5715L14 17.4287" stroke="#3BC116" stroke-width="1.71429" stroke-linecap="round"/>
</g>
<defs>
<clipPath id="clip0_3946_29119">
<rect width="20" height="20" fill="white"/>
</clipPath>
</defs>
</svg>
