<svg width="20" height="20" viewBox="0 0 20 20" fill="none" xmlns="http://www.w3.org/2000/svg">
<g id="dc_dzjx_icon">
<path id="&#229;&#189;&#162;&#231;&#138;&#182;" fill-rule="evenodd" clip-rule="evenodd" d="M9.87798 0C4.67078 0 0.449409 4.22137 0.449409 9.42857C0.449409 14.6358 4.67078 18.8571 9.87798 18.8571C15.0852 18.8571 19.3066 14.6358 19.3066 9.42857C19.3066 4.22137 15.0852 0 9.87798 0ZM9.03539 14.0797C9.03539 13.6141 9.41245 13.2371 9.87798 13.2371C10.3435 13.2371 10.7206 13.6141 10.7206 14.0797C10.7206 14.5452 10.3435 14.9223 9.87798 14.9223C9.41245 14.9223 9.03539 14.5452 9.03539 14.0797ZM10.5078 12.0174V11.6425C10.531 11.3476 10.6195 11.1643 10.7838 11.0147C10.9396 10.8715 11.1376 10.7683 11.5821 10.5766L11.679 10.5366C11.7033 10.5258 11.725 10.5167 11.7452 10.5083C11.7566 10.5035 11.7674 10.499 11.778 10.4944C12.0603 10.3723 12.2583 10.2775 12.4542 10.1595C12.7154 10.0036 12.9387 9.8288 13.1283 9.61605C13.5769 9.11682 13.8065 8.45538 13.8129 7.59384H13.8108V7.58962C13.8108 5.43259 12.0645 3.76637 9.87587 3.76637C7.68724 3.76637 5.94098 5.43259 5.94098 7.58962C5.94098 7.9393 6.22325 8.22156 6.57292 8.22156C6.9226 8.22156 7.20486 7.9393 7.20486 7.58962C7.20486 6.14458 8.37395 5.03026 9.87798 5.03026C11.382 5.03026 12.549 6.14248 12.5511 7.58541C12.5469 8.15205 12.4205 8.51436 12.1888 8.77135C12.0013 8.982 11.7548 9.12945 11.2767 9.33589C11.2472 9.34853 11.2177 9.36117 11.1819 9.37591L11.085 9.41804C10.8238 9.52968 10.6742 9.59709 10.5141 9.68346C10.2908 9.80353 10.1013 9.92991 9.93485 10.0816C9.52198 10.4544 9.28816 10.9473 9.24603 11.5793C9.24393 11.594 9.24393 11.6067 9.24393 11.6214V12.0174C9.24393 12.3671 9.5262 12.6494 9.87587 12.6494C10.2255 12.6494 10.5078 12.3671 10.5078 12.0174Z" fill="#9FA5AC"/>
</g>
</svg>
