<svg width="24" height="24" viewBox="0 0 24 24" fill="none" xmlns="http://www.w3.org/2000/svg">
<path id="Vector" d="M17.4774 2.31216L17.4774 2.31212L17.4736 2.30985C15.4201 1.09157 12.9741 0.545055 10.775 0.954363L10.7749 0.95388L10.762 0.957272C10.4811 1.03134 10.217 1.1837 10.0592 1.41247C9.89642 1.64858 9.86142 1.94636 10.008 2.26398C10.1614 2.73133 10.6057 3.04466 11.0608 3.04466H11.0733L11.0858 3.0429C12.9387 2.78234 14.7936 3.17216 16.5303 4.21883L16.5314 4.21946C20.4934 6.56998 21.9865 11.803 20.1249 15.9916L20.1208 16.0008L20.1178 16.0104C20.0612 16.1893 19.9757 16.3402 19.9033 16.4471C19.8913 16.4648 19.8797 16.4812 19.8688 16.4962L18.2332 15.5105L17.9793 15.3575L17.9606 15.6533L17.5814 21.6533L17.5764 21.7316L17.6304 21.7885C17.673 21.8335 17.7239 21.844 17.7464 21.847C17.7719 21.8505 17.7944 21.8488 17.809 21.8471C17.8388 21.8435 17.8695 21.8354 17.896 21.8272C17.9511 21.8101 18.0216 21.7825 18.1018 21.7481C18.2639 21.6786 18.4853 21.5731 18.7438 21.4446C19.2618 21.1872 19.9392 20.832 20.6112 20.4735C21.2835 20.1148 21.9517 19.752 22.4517 19.4789C22.7018 19.3423 22.9098 19.2282 23.0554 19.1482L23.2243 19.0552L23.2688 19.0307L23.2802 19.0244L23.2831 19.0228L23.2838 19.0224L23.284 19.0222L23.197 18.8647L23.2841 19.0222L23.557 18.8714L23.29 18.7105L21.6596 17.7279L21.9691 17.0751L21.9694 17.0752L21.9734 17.0653C24.1529 11.6566 22.2337 5.2949 17.4774 2.31216ZM7.74034 20.0438L7.73881 20.0429C3.58285 17.5935 2.19218 12.076 4.43464 7.64621L6.16856 8.62154L6.41797 8.76184L6.43643 8.47627L6.81569 2.6096L6.83619 2.29243L6.55364 2.43797L1.11759 5.23797L0.830847 5.38567L1.1071 5.55216L2.73192 6.5314C-0.103263 12.0543 1.95176 18.8603 6.66685 21.8172L6.66759 21.8176C8.8554 23.1749 11.3024 23.5827 13.6203 23.1753L13.6277 23.174L13.635 23.172C13.924 23.0959 14.1571 22.9385 14.2964 22.7076C14.4358 22.4765 14.4683 22.1931 14.3964 21.8898L14.3969 21.8897L14.3929 21.8771C14.2431 21.4032 13.7952 21.0847 13.3363 21.0847H13.3175L13.2992 21.0885C11.4525 21.4781 9.47589 21.0898 7.74034 20.0438Z" fill="currentColor" stroke="currentColor" stroke-width="0.36"/>
</svg>
