<svg width="20" height="20" viewBox="0 0 20 20" fill="none" xmlns="http://www.w3.org/2000/svg">
<g clip-path="url(#clip0_4006_5961)">
<path d="M14.5645 2.09347L14.5645 2.09343L14.5613 2.09154C12.85 1.07631 10.8118 0.62088 8.97914 0.961969L8.97906 0.961567L8.96834 0.964394C8.73426 1.02611 8.51415 1.15309 8.38269 1.34373C8.24701 1.54049 8.21784 1.78863 8.33996 2.05331C8.46779 2.44277 8.83808 2.70388 9.21728 2.70388H9.22778L9.23817 2.70242C10.7822 2.48528 12.328 2.81013 13.7752 3.68236L13.7761 3.68289C17.0778 5.64165 18.3221 10.0025 16.7707 13.493L16.7673 13.5007L16.7648 13.5087C16.7177 13.6577 16.6464 13.7835 16.5861 13.8725C16.5761 13.8873 16.5664 13.901 16.5573 13.9135L15.1943 13.0921L14.9828 12.9646L14.9672 13.2111L14.6511 18.2111L14.647 18.2763L14.692 18.3238C14.7275 18.3612 14.7699 18.37 14.7886 18.3725C14.8099 18.3754 14.8287 18.374 14.8408 18.3726C14.8657 18.3696 14.8912 18.3628 14.9133 18.356C14.9592 18.3418 15.018 18.3187 15.0848 18.29C15.2199 18.2321 15.4044 18.1442 15.6199 18.0372C16.0515 17.8226 16.616 17.5267 17.176 17.2279C17.7362 16.929 18.2931 16.6266 18.7098 16.3991C18.9181 16.2853 19.0915 16.1902 19.2128 16.1235L19.3536 16.046L19.3906 16.0256L19.4002 16.0203L19.4026 16.019L19.4032 16.0186L19.4033 16.0185L19.3309 15.8872L19.4034 16.0185L19.6308 15.8929L19.4083 15.7587L18.0497 14.9399L18.3076 14.3959L18.3078 14.396L18.3111 14.3877C20.1274 9.88049 18.5281 4.57909 14.5645 2.09347ZM6.45027 16.8698L6.449 16.8691C2.9857 14.8279 1.82681 10.23 3.69552 6.53851L5.14045 7.35128L5.3483 7.4682L5.36368 7.23023L5.67973 2.34134L5.69682 2.07703L5.46136 2.19831L0.931314 4.53164L0.692363 4.65472L0.922573 4.79346L2.27659 5.6095C-0.0860626 10.2119 1.62646 15.8836 5.5557 18.3476L5.55631 18.348C7.37949 19.4791 9.41869 19.8189 11.3502 19.4794L11.3503 19.4799L11.3625 19.4767C11.6033 19.4132 11.7976 19.2821 11.9136 19.0897C12.0298 18.8971 12.0569 18.6609 11.997 18.4082L11.9974 18.4081L11.9941 18.3976C11.8693 18.0027 11.496 17.7372 11.1136 17.7372H11.0979L11.0826 17.7404C9.54376 18.0651 7.89656 17.7415 6.45027 16.8698Z" fill="#67707B" stroke="#67707B" stroke-width="0.3"/>
</g>
<defs>
<clipPath id="clip0_4006_5961">
<rect width="20" height="20" fill="white"/>
</clipPath>
</defs>
</svg>
