<svg width="18" height="18" viewBox="0 0 18 18" fill="none" xmlns="http://www.w3.org/2000/svg">
<path d="M18 3.28807V3.30067L17.0095 7.28667C16.9573 7.5084 16.7986 7.66209 16.6754 7.74776L16.6659 7.75532L16.6564 7.75784C16.6303 7.76792 16.6066 7.77548 16.5829 7.78555C16.4905 7.82083 16.4028 7.85358 16.2867 7.85358C16.2512 7.85358 16.2133 7.84099 16.1754 7.82587C16.1564 7.81831 16.1256 7.80823 16.1161 7.80823H16.1019L16.0924 7.80571L12.3531 6.75504C11.9645 6.65174 11.7251 6.23348 11.8223 5.82531C11.9194 5.40957 12.3128 5.15762 12.6967 5.2584H12.6991L15.1114 5.98404C14.0071 3.32587 11.41 1.54955 8.59242 1.54955C7.63744 1.54955 6.70616 1.74608 5.82938 2.13662C4.98104 2.51204 4.21564 3.05123 3.55924 3.73404C2.20379 5.14502 1.45735 7.01708 1.45735 9C1.45735 10.988 2.19905 12.86 3.54265 14.266C4.891 15.6744 6.68247 16.4504 8.59242 16.4504C11.6114 16.4504 14.3246 14.4726 15.3483 11.5272C15.4953 11.1114 15.891 10.9124 16.2725 11.0636C16.4597 11.1391 16.609 11.2777 16.6896 11.4566C16.7725 11.638 16.7796 11.8471 16.7085 12.0462C15.4882 15.6064 12.2275 18 8.59242 18C7.43602 18 6.3128 17.7632 5.25592 17.2945C4.23223 16.841 3.3128 16.1934 2.5237 15.3695C0.898104 13.6688 0 11.4087 0 9C0 6.59378 0.895735 4.33119 2.5237 2.63046C3.3128 1.80655 4.23223 1.15901 5.25592 0.705487C6.3128 0.236842 7.43602 0 8.59242 0C11.6896 0 14.5569 1.7612 16.128 4.61086L16.5474 2.94541C16.5948 2.74636 16.7109 2.57755 16.8744 2.47172C17.0403 2.36338 17.2346 2.33063 17.4218 2.38102C17.8223 2.48684 18 2.91265 18 3.28807Z" fill="#3BC116"/>
</svg>
