<svg width="18" height="18" viewBox="0 0 18 18" fill="none" xmlns="http://www.w3.org/2000/svg">
<g id="rm_mr_icon">
<path id="Vector" d="M11.8992 17.2503C12.4596 15.8288 12.5425 14.5299 11.9503 13.232C11.3653 11.9495 10.3712 11.0608 9.1511 10.2436C8.80235 11.7716 7.71519 12.8189 6.97985 14.0758C6.37235 15.1139 6.48179 16.1468 7.0136 17.1736C7.07497 17.2923 7.14144 17.4078 7.2161 17.5439C2.91758 16.4475 0.644058 12.3842 2.8644 7.42602C3.12213 7.84636 3.35224 8.22273 3.63042 8.6758C3.80838 6.84614 4.64906 5.39489 5.67997 4.03261C6.57997 2.84216 7.09133 1.53102 6.88679 0C9.40269 0.649432 12.2275 2.61511 12.8196 6.55159C13.1336 6.19671 13.4097 5.81011 13.7605 5.50943C14.096 5.22205 14.5071 5.02364 15.0021 4.71273C14.95 6.17421 15.2721 7.4025 15.7283 8.60625C15.9134 9.09511 16.076 9.59932 16.1762 10.1107C16.5209 11.8718 16.3429 13.5624 15.2997 15.0709C14.5081 16.2164 13.3545 16.8494 11.8992 17.2514V17.2503Z" fill="currentColor"/>
</g>
</svg>
