<svg xmlns="http://www.w3.org/2000/svg" width="23" height="16" viewBox="0 0 23 16" fill="none">
  <path fill-rule="evenodd" clip-rule="evenodd" d="M0 2C0 0.895431 0.895431 0 2 0H21C22.1046 0 23 0.895431 23 2V7H22C21.4477 7 21 7.44772 21 8C21 8.55228 21.4477 9 22 9H23V14C23 15.1046 22.1046 16 21 16H2C0.89543 16 0 15.1046 0 14V9H1C1.55228 9 2 8.55228 2 8C2 7.44772 1.55228 7 1 7H0V2ZM6.79215 3.7002H8.10001V12.4402H6.33001V6.01613C5.96548 6.25057 5.54988 6.43408 5.083 6.56849L4.70001 6.67874V4.88596L4.92725 4.82915C5.21487 4.75725 5.52851 4.62957 5.86889 4.44096C6.21103 4.23142 6.4872 4.01785 6.7036 3.79244L6.79215 3.7002ZM17.3921 3.7002H18.7V12.4402H16.93V6.01613C16.5655 6.25057 16.1499 6.43408 15.683 6.56849L15.3 6.67874V4.88596L15.5272 4.82915C15.8148 4.75725 16.1285 4.62957 16.4689 4.44096C16.811 4.23142 17.0872 4.01785 17.3036 3.79244L17.3921 3.7002ZM12.7387 6.5662L12.7276 6.57597C12.5214 6.75633 12.2733 6.87019 11.97 6.87019C11.6737 6.87019 11.4064 6.76088 11.2079 6.56233C10.9893 6.34378 10.89 6.08647 10.89 5.7902C10.89 5.50456 10.9827 5.23478 11.2042 5.02146C11.4113 4.79169 11.6868 4.7002 11.97 4.7002C12.2663 4.7002 12.5236 4.79951 12.7421 5.01806C12.9486 5.22455 13.06 5.49096 13.06 5.7902C13.06 6.09485 12.9449 6.34625 12.7489 6.55538L12.7387 6.5662ZM12.7387 10.2262L12.7276 10.236C12.5214 10.4163 12.2733 10.5302 11.97 10.5302C11.6737 10.5302 11.4064 10.4209 11.2079 10.2223C10.9893 10.0038 10.89 9.74647 10.89 9.4502C10.89 9.16456 10.9827 8.89478 11.2042 8.68146C11.4113 8.45169 11.6868 8.3602 11.97 8.3602C12.2663 8.3602 12.5236 8.45951 12.7421 8.67806C12.9486 8.88455 13.06 9.15096 13.06 9.4502C13.06 9.75485 12.9449 10.0063 12.7489 10.2154L12.7387 10.2262ZM6.63 5.41C6.2 5.8 5.66 6.09 5 6.28C5.1029 6.25038 5.2029 6.21852 5.30001 6.18403C5.68865 6.04601 6.03118 5.86906 6.33001 5.65316C6.43541 5.57702 6.53536 5.49583 6.63 5.41ZM17.23 5.41C16.8 5.8 16.26 6.09 15.6 6.28C15.7029 6.25038 15.8029 6.21852 15.9 6.18403C16.2886 6.04601 16.6312 5.86906 16.93 5.65316C17.0354 5.57702 17.1353 5.49583 17.23 5.41Z" fill="currentColor"/>
</svg>