<svg width="22" height="22" viewBox="0 0 22 22" fill="none" xmlns="http://www.w3.org/2000/svg">
<g id="search">
<path id="&#229;&#189;&#162;&#231;&#138;&#182;" fill-rule="evenodd" clip-rule="evenodd" d="M21.1082 19.8133L21.1113 19.8196C21.3956 20.1639 21.424 20.7482 21.1714 21.1272L21.1619 21.1398L21.1524 21.1493C20.9882 21.3167 20.7639 21.3988 20.4828 21.3988C20.2049 21.3988 19.9775 21.3135 19.8133 21.1493L15.3885 16.7276C13.6924 18.0573 11.7153 18.7584 9.65611 18.7584C8.44331 18.7584 7.2621 18.5184 6.14721 18.0415C5.07022 17.5835 4.10378 16.9266 3.26682 16.0928C2.43302 15.259 1.77609 14.2894 1.31814 13.2124C0.844387 12.0975 0.601196 10.9163 0.601196 9.7035C0.601196 8.49071 0.841229 7.30633 1.31814 6.18513C1.77609 5.10183 2.43302 4.12906 3.26682 3.28895C4.10062 2.44883 5.07022 1.78559 6.14405 1.32447C7.2621 0.844406 8.44331 0.601215 9.65611 0.601215C10.8689 0.601215 12.0501 0.841248 13.1682 1.31815C14.2451 1.77611 15.2116 2.43304 16.0486 3.26684C16.8855 4.10064 17.5393 5.07024 17.9972 6.14723C18.471 7.26212 18.7142 8.44333 18.7142 9.65613C18.7142 11.7975 17.9941 13.8251 16.6865 15.3916L21.1082 19.8133ZM2.4425 9.70348C2.4425 13.6798 5.67662 16.9171 9.65611 16.9171C13.6324 16.9171 16.8697 13.683 16.8697 9.70348C16.8697 5.724 13.6324 2.48987 9.65611 2.48987C5.67978 2.48987 2.4425 5.72715 2.4425 9.70348Z" fill="#67707B"/>
</g>
</svg>
