<svg width="20" height="20" viewBox="0 0 20 20" fill="none" xmlns="http://www.w3.org/2000/svg">
<path d="M8.49085 17.5937C6.13444 15.1625 3.78313 12.7365 1.42871 10.3073C2.03705 9.81203 2.63967 9.32136 3.2444 8.82894C4.60704 9.91253 5.96657 10.9937 7.33021 12.0782C10.3783 8.47733 13.8586 5.37546 17.8602 2.85718C17.9112 2.97422 17.9615 3.08715 18.0094 3.20108C18.0834 3.37646 18.1564 3.55233 18.2285 3.72857C18.2701 3.83031 18.2503 3.91054 18.1723 3.98777C17.7454 4.41116 17.3129 4.82907 16.8938 5.26004C16.2332 5.93939 15.6053 6.64872 14.9972 7.37546C13.9483 8.62907 12.9597 9.92845 12.0398 11.2794C11.0784 12.6914 10.1864 14.1454 9.39733 15.661C9.08948 16.2525 8.80742 16.8561 8.55686 17.4742C8.54602 17.501 8.53369 17.5273 8.52049 17.553C8.51402 17.5655 8.50393 17.5762 8.49098 17.5939L8.49085 17.5937Z" fill="#3BC116"/>
</svg>
