<svg width="26" height="26" viewBox="0 0 26 26" fill="none" xmlns="http://www.w3.org/2000/svg">
<g id="Vector">
<path fill-rule="evenodd" clip-rule="evenodd" d="M0 13C0 5.83419 5.83419 0 13 0C20.1658 0 26 5.83419 26 13C26 20.1658 20.1658 26 13 26C5.83419 26 0 20.1658 0 13ZM1.90304 13C1.90304 19.0866 6.9133 24.0969 12.9999 24.0969C19.0865 24.0969 24.0967 19.0866 24.0967 13C24.0967 6.91345 19.0865 1.90319 12.9999 1.90319C6.9133 1.90319 1.90304 6.91345 1.90304 13Z" fill="currentColor"/>
<path d="M7.38096 18.4116C6.87328 17.9039 6.87328 17.0808 7.38096 16.5731L16.5734 7.38076C17.081 6.87308 17.9041 6.87308 18.4118 7.38076C18.9195 7.88844 18.9195 8.71156 18.4118 9.21924L9.21944 18.4116C8.71176 18.9193 7.88865 18.9193 7.38096 18.4116Z" fill="currentColor"/>
<path d="M18.4116 18.4116C18.9193 17.9039 18.9193 17.0808 18.4116 16.5731L9.21924 7.38076C8.71156 6.87308 7.88844 6.87308 7.38076 7.38076C6.87308 7.88844 6.87308 8.71156 7.38076 9.21924L16.5731 18.4116C17.0808 18.9193 17.9039 18.9193 18.4116 18.4116Z" fill="currentColor"/>
</g>
</svg>
