<svg xmlns="http://www.w3.org/2000/svg" width="20" height="20" viewBox="0 0 20 20" fill="none">
  <path d="M19.321 7.61301C19.187 7.12869 18.7178 6.78275 18.2486 6.71356L13.3557 5.95249L11.2109 1.38607C11.0098 0.901753 10.5406 0.625 10.0044 0.625C9.46818 0.625 8.999 0.901753 8.79792 1.38607L6.65308 5.95249L1.76016 6.71356C1.29098 6.78275 0.821795 7.12869 0.687742 7.61301C0.55369 8.09732 0.620716 8.65083 1.02287 8.99677L4.57526 12.6637L3.77095 17.7837C3.70392 18.268 3.905 18.8215 4.30716 19.0982C4.50824 19.2366 4.84337 19.375 5.11147 19.375C5.31255 19.375 5.58066 19.3058 5.78174 19.2366L10.0714 16.8842L14.3611 19.2366C14.5622 19.375 14.7633 19.375 15.0314 19.375C15.2995 19.375 15.5676 19.3058 15.8357 19.0982C16.2378 18.8215 16.5059 18.268 16.3719 17.7837L15.5676 12.6637L19.12 8.99677C19.321 8.65083 19.4551 8.09732 19.321 7.61301Z" fill="currentColor"/>
</svg>