<svg width="18" height="18" viewBox="0 0 18 18" fill="none" xmlns="http://www.w3.org/2000/svg">
<ellipse cx="9" cy="9" rx="9" ry="9" fill="#FF0000"/>
<path fill-rule="evenodd" clip-rule="evenodd" d="M13.1571 5.29289C13.5476 5.68342 13.5476 6.31658 13.1571 6.70711L6.85123 13.013C6.32558 13.5387 5.43052 13.3274 5.19544 12.6221C5.07566 12.2628 5.16918 11.8666 5.43701 11.5988L11.7429 5.29289C12.1334 4.90237 12.7666 4.90237 13.1571 5.29289Z" fill="white"/>
<path fill-rule="evenodd" clip-rule="evenodd" d="M5.29289 5.29289C4.90237 5.68342 4.90237 6.31658 5.29289 6.70711L11.5988 13.013C12.1244 13.5387 13.0195 13.3274 13.2546 12.6221C13.3743 12.2628 13.2808 11.8666 13.013 11.5988L6.70711 5.29289C6.31658 4.90237 5.68342 4.90237 5.29289 5.29289Z" fill="white"/>
</svg>
