<svg xmlns="http://www.w3.org/2000/svg" width="13" height="12" viewBox="0 0 13 12" fill="none">
  <path d="M9.83842 0.0324541C9.63146 0.0113589 9.43222 0 9.24688 0C7.95723 0 7.19271 0.49817 6.50077 1.26409C5.71463 0.387826 4.81573 -0.136307 3.16312 0.0324541C1.77308 0.175252 0.191517 1.46043 0 3.94155V4.7529C0.154449 6.90785 1.58928 8.66524 5.66057 11.7176C5.90526 11.9012 6.19849 12 6.49923 12C6.79997 12 7.09319 11.9012 7.33789 11.7176C11.4123 8.65875 12.8409 6.90136 13 4.74641V3.93506C12.81 1.46043 11.2285 0.175252 9.83842 0.0324541ZM11.9559 4.00808V4.6815C11.8154 6.44538 10.5026 7.99507 6.73245 10.8169C6.66485 10.8677 6.58385 10.895 6.50077 10.895C6.41769 10.895 6.33669 10.8677 6.2691 10.8169C2.50671 7.99669 1.18617 6.44538 1.04562 4.6815V4.00808C1.20007 2.16956 2.29975 1.22514 3.26506 1.12616C3.4365 1.10831 3.60176 1.10019 3.75466 1.10019C4.83581 1.10019 5.35476 1.51561 6.10075 2.44866L6.50077 2.95008L6.90234 2.44866C7.64679 1.51561 8.16265 1.10019 9.24688 1.10019C9.40133 1.10019 9.56505 1.10019 9.73649 1.12616C10.7018 1.22514 11.8061 2.16956 11.9559 4.00808Z" fill="currentColor"/>
</svg>