<svg xmlns="http://www.w3.org/2000/svg" width="13" height="12" viewBox="0 0 13 12" fill="none">
  <path d="M9.83842 0.0324541C9.63146 0.0113589 9.43222 0 9.24688 0C7.95723 0 7.19271 0.49817 6.50077 1.26409C5.71463 0.387826 4.81573 -0.136307 3.16312 0.0324541C1.77308 0.175252 0.191517 1.46043 0 3.94155V4.7529C0.154449 6.90785 1.58928 8.66524 5.66057 11.7176C5.90526 11.9012 6.19849 12 6.49923 12C6.79997 12 7.09319 11.9012 7.33789 11.7176C11.4123 8.65875 12.8409 6.90136 13 4.74641V3.93506C12.81 1.46043 11.2285 0.175252 9.83842 0.0324541Z" fill="currentColor"/>
</svg>