<svg width="12" height="12" viewBox="0 0 12 12" fill="none" xmlns="http://www.w3.org/2000/svg">
<rect x="0.5" y="0.5" width="11" height="11" rx="2.5" stroke="#67707B"/>
<path d="M5.33333 5.33333H2.66833C2.58067 5.3332 2.49384 5.35034 2.4128 5.38378C2.33177 5.41722 2.25811 5.46629 2.19605 5.5282C2.13398 5.59011 2.08472 5.66364 2.05108 5.7446C2.01745 5.82555 2.00009 5.91234 2 6C2 6.37067 2.29933 6.66667 2.66833 6.66667H5.33333V9.33167C5.33333 9.701 5.63167 10 6 10C6.37067 10 6.66667 9.70067 6.66667 9.33167V6.66667H9.33167C9.41933 6.6668 9.50616 6.64966 9.5872 6.61622C9.66823 6.58278 9.74189 6.53371 9.80395 6.4718C9.86602 6.40989 9.91528 6.33636 9.94892 6.2554C9.98255 6.17445 9.99991 6.08766 10 6C10 5.62933 9.70067 5.33333 9.33167 5.33333H6.66667V2.66833C6.6668 2.58067 6.64966 2.49384 6.61622 2.4128C6.58278 2.33177 6.53371 2.25811 6.4718 2.19605C6.40989 2.13398 6.33636 2.08472 6.2554 2.05108C6.17445 2.01745 6.08766 2.00009 6 2C5.62933 2 5.33333 2.29933 5.33333 2.66833V5.33333Z" fill="#67707B"/>
</svg>
