<svg width="18" height="18" viewBox="0 0 18 18" fill="none" xmlns="http://www.w3.org/2000/svg">
<path fill-rule="evenodd" clip-rule="evenodd" d="M1.85027 3.49168C2.18856 2.82243 2.52684 2.15319 2.86463 1.48379C3.08171 1.05402 3.38929 1 3.86485 1C7.3681 1.0004 10.8711 1.00182 14.374 1.00425C14.859 1.00425 15.0288 1.25798 15.2494 1.69867C16.6063 4.40475 17.4971 6.18472 17.9218 7.03859C18.0839 7.36455 17.9815 7.72694 17.7301 7.99524C15.079 10.8191 12.4337 13.6484 9.79402 16.4831C9.47935 16.8212 9.14929 17.163 8.6548 16.9153C8.50793 16.8416 8.3596 16.6817 8.22346 16.5349C8.20937 16.5197 8.19541 16.5046 8.1816 16.4898C5.67957 13.802 3.17773 11.1139 0.676093 8.42562C0.632581 8.37885 0.583703 8.32924 0.53271 8.27747C0.320294 8.06186 0.0711612 7.80898 0.0201233 7.56912C-0.0248305 7.35828 0.00553308 7.14785 0.111214 6.93782C0.689335 5.78845 1.26982 4.64004 1.85027 3.49168ZM8.97508 10.3234C8.98514 10.335 8.99818 10.3388 9.01421 10.3346C9.02315 10.3325 9.03415 10.324 9.04719 10.3091C10.1306 9.04753 11.2151 7.78659 12.3007 6.52627C12.3603 6.45741 12.4442 6.40638 12.5523 6.37319C13.3047 6.14295 13.8123 7.10188 13.2796 7.7254C12.0534 9.16037 10.8228 10.5906 9.58777 12.016C9.34254 12.2989 9.07104 12.3927 8.77327 12.2973C8.58283 12.2361 8.44927 12.0761 8.31093 11.9103C8.2917 11.8873 8.27239 11.8641 8.25282 11.8411C7.18918 10.5933 6.12312 9.34788 5.05463 8.10499C5.02135 8.06626 4.98585 8.0265 4.94957 7.98587C4.79757 7.81561 4.632 7.63016 4.55934 7.44227C4.46281 7.19294 4.48405 6.94942 4.62306 6.71171C4.83885 6.34374 5.14873 6.24418 5.55272 6.41302C5.65353 6.45529 5.83455 6.67004 5.95299 6.81053C5.97577 6.83755 5.99623 6.86182 6.01336 6.88159C7.00321 8.02534 7.99045 9.17261 8.97508 10.3234Z" fill="#3BC116"/>
</svg>
