<svg width="34" height="34" viewBox="0 0 34 34" fill="none" xmlns="http://www.w3.org/2000/svg">
<g id="vipjlb_kef_icon">
<path id="&#229;&#189;&#162;&#231;&#138;&#182;" fill-rule="evenodd" clip-rule="evenodd" d="M30.2749 17.7192V18.6335C30.9876 19.2742 31.6319 20.282 31.2468 21.7542C31.0272 22.5821 30.4981 23.2408 29.8178 23.626C29.2851 24.0471 28.6263 24.3063 27.91 24.3063C27.8898 24.3063 27.8705 24.3016 27.8516 24.297C27.8336 24.2926 27.816 24.2883 27.7985 24.2883C26.6394 29.3708 22.4748 32.8191 17.0252 32.8191C11.5719 32.8191 7.4109 29.3708 6.24826 24.3027C5.66154 24.3027 5.13241 24.1371 4.67168 23.842C3.7718 23.5108 3.0411 22.7765 2.76394 21.7686C2.39679 20.4116 2.88992 19.4614 3.51624 18.8171V17.6976C3.44065 13.515 4.67168 10.0127 7.09414 7.51462C8.25318 6.32319 9.64619 5.42691 11.2624 4.8006C11.4999 2.54012 13.9404 0.761963 16.8956 0.761963C19.8508 0.761963 22.2696 2.54372 22.5288 4.8042C24.145 5.42691 25.5416 6.32679 26.697 7.51822C29.1195 10.0127 30.3469 13.533 30.2749 17.7192ZM26.931 23.3453C27.0246 22.7226 27.0786 22.0818 27.0786 21.4015C27.0786 21.4015 27.1145 21.3259 27.1181 21.3188L27.0642 21.2648C25.6903 19.4665 23.6553 19.0302 21.5084 18.5699L21.5029 18.5687C21.4231 18.5514 21.3432 18.5342 21.2632 18.517C20.2599 18.3007 19.2382 18.0805 18.2382 17.6905C15.337 16.571 13.4508 14.4077 12.623 13.2883C11.7231 14.8648 9.50579 18.3024 7.04374 19.1986C7.00774 19.861 6.97175 20.5557 6.97175 20.8148L6.98974 21.4015C6.98974 27.5099 11.1148 31.7861 17.0431 31.7861H17.0791C21.6829 31.7861 25.2248 29.1837 26.5494 25.1198C26.3838 25.3214 26.2183 25.505 26.0347 25.6885C24.9153 26.826 23.5942 27.7223 22.0896 28.3306C21.0278 28.7553 19.9047 29.0469 18.7313 29.1765C18.5837 29.7092 17.925 30.1123 17.0971 30.1123C16.1793 30.1123 15.445 29.6012 15.445 28.9929C15.445 28.3702 16.1829 27.8734 17.0971 27.8734C17.7378 27.8734 18.2886 28.1146 18.5657 28.4818C22.2156 28.0786 25.1528 26.2069 26.931 23.3453Z" fill="currentColor"/>
</g>
</svg>
