<svg width="18" height="18" viewBox="0 0 18 18" fill="none" xmlns="http://www.w3.org/2000/svg">
<g id="xsyx_mr_icon" clip-path="url(#clip0_1564_37678)">
<path id="Vector" d="M8.7538 0C8.90603 0 9.0586 0 9.21083 0C9.24388 0.0105469 9.27657 0.0277734 9.31067 0.0312891C9.93786 0.0977344 10.455 0.381797 10.8934 0.825469C11.2063 1.14187 11.5188 1.45898 11.8405 1.7666C11.8996 1.8232 11.9998 1.86434 12.0817 1.86609C12.5619 1.87559 13.0425 1.86504 13.5227 1.87277C14.9715 1.89598 16.0937 3.03152 16.1029 4.47961C16.1057 4.94824 16.0983 5.41687 16.1085 5.88551C16.1106 5.97269 16.1549 6.07852 16.2154 6.14144C16.5599 6.50074 16.9227 6.84246 17.2651 7.20351C18.2186 8.20863 18.2126 9.78504 17.2539 10.7824C16.9252 11.1245 16.5877 11.4578 16.247 11.7882C16.1426 11.8895 16.0969 11.9921 16.0997 12.1409C16.1088 12.6267 16.1102 13.1133 16.0997 13.5995C16.0695 14.952 14.9269 16.0815 13.5762 16.098C13.09 16.104 12.6038 16.1033 12.1175 16.098C11.9984 16.0966 11.9098 16.1255 11.824 16.2141C11.5146 16.534 11.2084 16.8588 10.8776 17.1555C10.6449 17.3644 10.3938 17.5718 10.1161 17.7089C9.08638 18.2169 7.93923 17.9905 7.08669 17.1439C6.77099 16.8303 6.4595 16.5122 6.13782 16.2049C6.07841 16.1483 5.97892 16.1068 5.89735 16.1051C5.39392 16.0956 4.88978 16.1061 4.38599 16.098C3.11087 16.078 1.98481 15.024 1.90185 13.751C1.86563 13.1966 1.88849 12.6387 1.87231 12.0829C1.86985 11.9957 1.8245 11.8905 1.76368 11.8273C1.44411 11.4929 1.11118 11.1712 0.786689 10.8415C0.411572 10.4611 0.157744 10.0146 0.0631738 9.48375C0.0427832 9.36949 0.0213379 9.25523 0.000244141 9.14098C0.000244141 9.04711 0.000244141 8.95359 0.000244141 8.85972C0.0104395 8.8207 0.0269629 8.78203 0.030127 8.7423C0.0835645 8.08101 0.372549 7.53715 0.844346 7.07941C1.14247 6.79008 1.42829 6.48773 1.72888 6.20051C1.83962 6.09469 1.88392 5.985 1.8811 5.83312C1.87267 5.4 1.87548 4.96652 1.87864 4.5334C1.89024 3.00621 3.02614 1.87664 4.55333 1.87172C4.99841 1.87031 5.44349 1.8777 5.88821 1.86645C5.98103 1.86398 6.09317 1.82004 6.16032 1.75676C6.44192 1.49238 6.71403 1.21781 6.98122 0.938672C7.33067 0.57375 7.72056 0.272461 8.21204 0.127266C8.38993 0.0748828 8.57345 0.0418359 8.75415 0.000351562L8.7538 0ZM12.7018 8.49269C12.8664 9.36035 13.0443 10.2902 13.2176 11.2205C13.2355 11.3175 13.2816 11.3396 13.373 11.3375C13.6187 11.3323 13.8652 11.3316 14.1109 11.34C14.2213 11.3439 14.2593 11.3038 14.2856 11.1983C14.4776 10.4333 14.6776 9.67008 14.8749 8.90648C15.0137 8.36965 15.1526 7.83316 15.2946 7.28367H14.3419C14.1552 8.27437 13.9699 9.25734 13.7878 10.2227C13.6117 9.25523 13.432 8.26945 13.2506 7.27312C12.9374 7.27312 12.6452 7.26855 12.3534 7.2784C12.3123 7.2798 12.2494 7.34344 12.2374 7.38949C12.1907 7.56422 12.1601 7.74351 12.1242 7.92105C11.9657 8.70574 11.8075 9.49043 11.6465 10.2874C11.4643 9.27668 11.2847 8.27859 11.1061 7.28824H10.114C10.1544 7.46402 10.1899 7.62328 10.2275 7.78148C10.4986 8.92476 10.769 10.0684 11.0442 11.2106C11.0558 11.2588 11.1152 11.3302 11.1543 11.3316C11.4633 11.3414 11.7727 11.3372 12.0947 11.3372C12.3039 10.3574 12.5102 9.39234 12.7022 8.4934L12.7018 8.49269ZM6.36493 11.3365V7.28754H5.50888C5.52751 8.21461 5.54579 9.12691 5.56407 10.0371C5.5588 10.0308 5.54966 10.0234 5.54474 10.0139C5.08349 9.13992 4.62329 8.26558 4.15853 7.39336C4.13216 7.34414 4.07239 7.28051 4.02634 7.27945C3.69481 7.26961 3.36259 7.27418 3.02685 7.27418V11.3245H3.85196V8.40023C3.87376 8.44066 3.88642 8.46422 3.89872 8.48777C4.38212 9.40324 4.86446 10.3194 5.35208 11.2331C5.37669 11.2795 5.44384 11.3309 5.49271 11.3323C5.77888 11.3418 6.06575 11.3368 6.36458 11.3368L6.36493 11.3365ZM8.1006 9.63773C8.17196 9.63457 8.23454 9.62965 8.29747 9.6293C8.67821 9.62859 9.05896 9.62543 9.43935 9.63035C9.5529 9.63176 9.59755 9.59555 9.59122 9.47918C9.58349 9.33328 9.58173 9.18598 9.59157 9.04008C9.60071 8.90473 9.55958 8.8534 9.41579 8.85867C9.11731 8.86922 8.81849 8.86219 8.52001 8.86254C8.38185 8.86254 8.24333 8.86254 8.10341 8.86254V8.03566H9.66153V7.28332H7.17599V11.3266H9.74942V10.5725H8.1006V9.63738V9.63773Z" fill="currentColor"/>
</g>
<defs>
<clipPath id="clip0_1564_37678">
<rect width="18" height="18" fill="white"/>
</clipPath>
</defs>
</svg>
