<svg width="18" height="18" viewBox="0 0 18 18" fill="none" xmlns="http://www.w3.org/2000/svg">
<g id="zs_mr_icon">
<path id="Vector" d="M6.75869 15.1844C6.47209 15.8567 6.07715 16.3858 5.5842 16.8432C5.34746 17.0628 5.0901 17.268 5.24601 17.6411C5.39676 18.0022 5.71718 18.0005 6.04391 17.9999C8.02146 17.9954 9.99901 17.9999 11.9766 17.9965C12.4913 17.9959 12.7853 17.5563 12.5417 17.1568C12.4844 17.0628 12.3893 16.9871 12.3016 16.916C11.737 16.4575 11.2962 15.906 11.017 15.2698C11.6063 15.2062 12.1967 15.193 12.7647 15.0726C14.9114 14.6186 16.6109 12.6302 16.7771 10.4354C16.905 8.74444 16.3759 7.30341 15.1785 6.09911C13.272 4.18231 11.3741 2.25692 9.47166 0.336121C9.02571 -0.114416 8.80216 -0.111551 8.35277 0.341852C6.42337 2.2896 4.4762 4.22072 2.56858 6.18967C1.0771 7.72929 0.630575 9.58189 1.30925 11.6082C1.99136 13.6465 3.47653 14.8353 5.60541 15.1775C5.96652 15.2354 6.34541 15.1855 6.75869 15.1855V15.1844Z" fill="currentColor"/>
</g>
</svg>
