<svg width="712" height="273" viewBox="0 0 712 273" fill="none" xmlns="http://www.w3.org/2000/svg"> <path d="M1 54C1 32.4609 18.4609 15 40 15H672C693.539 15 711 32.4609 711 54V233C711 254.539 693.539 272 672 272H40C18.4609 272 1 254.539 1 233V54Z" fill="url(#paint0_linear_10578_70509)" stroke="#FFE5EB" stroke-width="2"/> <g filter="url(#filter0_ii_10578_70509)"> <path d="M20 68C20 49.2223 35.2223 34 54 34H658C676.778 34 692 49.2223 692 68V219C692 237.778 676.778 253 658 253H54C35.2223 253 20 237.778 20 219V68Z" fill="#FFF4F6"/> </g> <path d="M54 33C34.67 33 19 48.67 19 68V219C19 238.33 34.67 254 54 254H658C677.33 254 693 238.33 693 219V68C693 48.67 677.33 33 658 33H54Z" stroke="url(#paint1_linear_10578_70509)" stroke-width="2"/> <g filter="url(#filter1_i_10578_70509)"> <path d="M124 14C124 6.26801 130.268 0 138 0H198V14H124Z" fill="url(#paint2_linear_10578_70509)"/> </g> <g filter="url(#filter2_i_10578_70509)"> <path d="M588 14C588 6.26801 581.732 0 574 0H514V14H588Z" fill="url(#paint3_linear_10578_70509)"/> </g> <g filter="url(#filter3_di_10578_70509)"> <path d="M142 0H568C568 0 541.893 0 531.09 15.5556C524.064 25.6711 509.045 34.2362 499.399 38.9897C493.652 41.8216 487.286 43 480.88 43H230.158C223.662 43 217.212 41.7888 211.4 38.8857C201.844 34.112 187.075 25.5978 179.811 15.5556C168.557 0 142 0 142 0Z" fill="url(#paint4_linear_10578_70509)"/> <path d="M153.034 0.578873H557.17C555.983 0.801237 554.738 1.06635 553.457 1.38244C545.533 3.33854 536.136 7.27378 530.614 15.2254C527.16 20.1987 521.716 24.8218 515.9 28.8058C510.092 32.7848 503.951 36.1008 499.143 38.4704C493.492 41.2553 487.217 42.4211 480.88 42.4211H230.158C223.733 42.4211 217.374 41.2229 211.659 38.3679C206.895 35.9881 200.839 32.6795 195.074 28.7192C189.302 24.7544 183.856 20.1595 180.28 15.2163C174.531 7.27022 164.913 3.33722 156.821 1.38177C155.515 1.06598 154.245 0.801081 153.034 0.578873Z" stroke="url(#paint5_linear_10578_70509)" stroke-width="1.15775"/> </g> <path d="M160.044 0.771831H552.2C551.612 0.898824 551.014 1.03627 550.408 1.18505C542.467 3.13492 533.012 7.06535 527.448 15.0351C523.868 20.1624 518.093 24.7241 511.962 28.5244C505.843 32.3174 499.431 35.315 494.636 37.3345C489.741 39.396 484.439 40.2282 479.081 40.2282H233.544C228.015 40.2282 222.547 39.3428 217.525 37.1496C212.837 35.1022 206.658 32.1117 200.721 28.3524C194.775 24.5871 189.124 20.0824 185.444 15.0229C179.653 7.06065 169.977 3.13319 161.869 1.18416C161.252 1.03573 160.643 0.898572 160.044 0.771831Z" stroke="url(#paint6_linear_10578_70509)" stroke-opacity="0.3" stroke-width="1.54366"/> <path opacity="0.3" d="M192 0H520C520 0 493.882 0 483.075 15.4301C475.783 25.8414 459.881 33.8441 450.307 37.9486C445.225 40.1274 439.727 41 434.197 41H278.824C273.216 41 267.639 40.1018 262.496 37.8646C253.004 33.7355 237.37 25.7708 229.825 15.4301C218.568 0 192 0 192 0Z" fill="url(#paint7_linear_10578_70509)"/> <defs> <filter id="filter0_ii_10578_70509" x="18" y="26" width="676" height="237" filterUnits="userSpaceOnUse" color-interpolation-filters="sRGB"> <feFlood flood-opacity="0" result="BackgroundImageFix"/> <feBlend mode="normal" in="SourceGraphic" in2="BackgroundImageFix" result="shape"/> <feColorMatrix in="SourceAlpha" type="matrix" values="0 0 0 0 0 0 0 0 0 0 0 0 0 0 0 0 0 0 127 0" result="hardAlpha"/> <feOffset dy="8"/> <feGaussianBlur stdDeviation="7.5"/> <feComposite in2="hardAlpha" operator="arithmetic" k2="-1" k3="1"/> <feColorMatrix type="matrix" values="0 0 0 0 0.313726 0 0 0 0 0.196078 0 0 0 0 0.211765 0 0 0 0.4 0"/> <feBlend mode="normal" in2="shape" result="effect1_innerShadow_10578_70509"/> <feColorMatrix in="SourceAlpha" type="matrix" values="0 0 0 0 0 0 0 0 0 0 0 0 0 0 0 0 0 0 127 0" result="hardAlpha"/> <feOffset dy="-6"/> <feGaussianBlur stdDeviation="7.5"/> <feComposite in2="hardAlpha" operator="arithmetic" k2="-1" k3="1"/> <feColorMatrix type="matrix" values="0 0 0 0 0.313726 0 0 0 0 0.196078 0 0 0 0 0.211765 0 0 0 0.2 0"/> <feBlend mode="normal" in2="effect1_innerShadow_10578_70509" result="effect2_innerShadow_10578_70509"/> </filter> <filter id="filter1_i_10578_70509" x="124" y="0" width="74" height="14" filterUnits="userSpaceOnUse" color-interpolation-filters="sRGB"> <feFlood flood-opacity="0" result="BackgroundImageFix"/> <feBlend mode="normal" in="SourceGraphic" in2="BackgroundImageFix" result="shape"/> <feColorMatrix in="SourceAlpha" type="matrix" values="0 0 0 0 0 0 0 0 0 0 0 0 0 0 0 0 0 0 127 0" result="hardAlpha"/> <feOffset dx="0.898872" dy="1.79774"/> <feComposite in2="hardAlpha" operator="arithmetic" k2="-1" k3="1"/> <feColorMatrix type="matrix" values="0 0 0 0 1 0 0 0 0 1 0 0 0 0 1 0 0 0 0.25 0"/> <feBlend mode="normal" in2="shape" result="effect1_innerShadow_10578_70509"/> </filter> <filter id="filter2_i_10578_70509" x="514" y="0" width="74" height="14" filterUnits="userSpaceOnUse" color-interpolation-filters="sRGB"> <feFlood flood-opacity="0" result="BackgroundImageFix"/> <feBlend mode="normal" in="SourceGraphic" in2="BackgroundImageFix" result="shape"/> <feColorMatrix in="SourceAlpha" type="matrix" values="0 0 0 0 0 0 0 0 0 0 0 0 0 0 0 0 0 0 127 0" result="hardAlpha"/> <feOffset dx="0.898872" dy="1.79774"/> <feComposite in2="hardAlpha" operator="arithmetic" k2="-1" k3="1"/> <feColorMatrix type="matrix" values="0 0 0 0 1 0 0 0 0 1 0 0 0 0 1 0 0 0 0.25 0"/> <feBlend mode="normal" in2="shape" result="effect1_innerShadow_10578_70509"/> </filter> <filter id="filter3_di_10578_70509" x="136.211" y="-1.92958" width="437.577" height="56.507" filterUnits="userSpaceOnUse" color-interpolation-filters="sRGB"> <feFlood flood-opacity="0" result="BackgroundImageFix"/> <feColorMatrix in="SourceAlpha" type="matrix" values="0 0 0 0 0 0 0 0 0 0 0 0 0 0 0 0 0 0 127 0" result="hardAlpha"/> <feOffset dy="5.78873"/> <feGaussianBlur stdDeviation="2.89437"/> <feComposite in2="hardAlpha" operator="out"/> <feColorMatrix type="matrix" values="0 0 0 0 0.525 0 0 0 0 0.0765625 0 0 0 0 0.16625 0 0 0 0.1 0"/> <feBlend mode="normal" in2="BackgroundImageFix" result="effect1_dropShadow_10578_70509"/> <feBlend mode="normal" in="SourceGraphic" in2="effect1_dropShadow_10578_70509" result="shape"/> <feColorMatrix in="SourceAlpha" type="matrix" values="0 0 0 0 0 0 0 0 0 0 0 0 0 0 0 0 0 0 127 0" result="hardAlpha"/> <feOffset dy="-1.92958"/> <feGaussianBlur stdDeviation="1.92958"/> <feComposite in2="hardAlpha" operator="arithmetic" k2="-1" k3="1"/> <feColorMatrix type="matrix" values="0 0 0 0 0.641667 0 0 0 0 0.00802083 0 0 0 0 0.166432 0 0 0 0.4 0"/> <feBlend mode="normal" in2="shape" result="effect2_innerShadow_10578_70509"/> </filter> <linearGradient id="paint0_linear_10578_70509" x1="408.347" y1="14" x2="408.347" y2="323.847" gradientUnits="userSpaceOnUse"> <stop offset="0.00561434" stop-color="#FFC2D1"/> <stop offset="0.319003" stop-color="#FFD5DC"/> <stop offset="0.993294" stop-color="#FFF5F8"/> </linearGradient> <linearGradient id="paint1_linear_10578_70509" x1="407.402" y1="18.6853" x2="407.402" y2="317.322" gradientUnits="userSpaceOnUse"> <stop stop-color="#FFE5E9"/> <stop offset="1" stop-color="white"/> </linearGradient> <linearGradient id="paint2_linear_10578_70509" x1="160.554" y1="4.87607" x2="124" y2="4.87607" gradientUnits="userSpaceOnUse"> <stop stop-color="#D52C48"/> <stop offset="1" stop-color="#F26C92"/> </linearGradient> <linearGradient id="paint3_linear_10578_70509" x1="551.446" y1="4.87607" x2="588" y2="4.87607" gradientUnits="userSpaceOnUse"> <stop stop-color="#D52C48"/> <stop offset="1" stop-color="#F26C92"/> </linearGradient> <linearGradient id="paint4_linear_10578_70509" x1="412.976" y1="-28.0694" x2="412.976" y2="47.7778" gradientUnits="userSpaceOnUse"> <stop stop-color="#FF284B"/> <stop offset="0.42725" stop-color="#FF97A5"/> <stop offset="0.6875" stop-color="#FF506D"/> <stop offset="1" stop-color="#EE4055"/> </linearGradient> <linearGradient id="paint5_linear_10578_70509" x1="412.976" y1="3.61111" x2="412.976" y2="47.7778" gradientUnits="userSpaceOnUse"> <stop stop-color="white" stop-opacity="0"/> <stop offset="1" stop-color="#FFEDF1"/> </linearGradient> <linearGradient id="paint6_linear_10578_70509" x1="413.991" y1="35.3758" x2="413.991" y2="45.878" gradientUnits="userSpaceOnUse"> <stop stop-color="white" stop-opacity="0"/> <stop offset="1" stop-color="white"/> </linearGradient> <linearGradient id="paint7_linear_10578_70509" x1="413.549" y1="0" x2="413.549" y2="15.9812" gradientUnits="userSpaceOnUse"> <stop stop-color="white"/> <stop offset="1" stop-color="white" stop-opacity="0"/> </linearGradient> </defs> </svg>