<svg xmlns="http://www.w3.org/2000/svg" width="580" height="42" viewBox="0 0 580 42" fill="none">
  <path d="M12 0H22L12 21L22 42H12L0 21L12 0Z" fill="url(#paint0_linear_10550_318)"/>
  <path d="M44 0H34L22 21L34 42H44L34 21L44 0Z" fill="url(#paint1_linear_10550_318)"/>
  <path d="M66 0H56L44 21L56 42H66L56 21L66 0Z" fill="url(#paint2_linear_10550_318)"/>
  <path d="M78 0H88L78 21L88 42H78L66 21L78 0Z" fill="url(#paint3_linear_10550_318)"/>
  <path d="M502 0H492L502 21L492 42H502L514 21L502 0Z" fill="url(#paint4_linear_10550_318)"/>
  <path d="M524 0H514L524 21L514 42H524L536 21L524 0Z" fill="url(#paint5_linear_10550_318)"/>
  <path d="M546 0H536L546 21L536 42H546L558 21L546 0Z" fill="url(#paint6_linear_10550_318)"/>
  <path d="M568 0H558L568 21L558 42H568L580 21L568 0Z" fill="url(#paint7_linear_10550_318)"/>
  <path d="M480 0H100L88 21L100 42H480L492 21L480 0Z" fill="url(#paint8_linear_10550_318)"/>
  <defs>
    <linearGradient id="paint0_linear_10550_318" x1="1.5836e-05" y1="21" x2="580" y2="21" gradientUnits="userSpaceOnUse">
      <stop stop-color="#FF284B" stop-opacity="0"/>
      <stop offset="0.15" stop-color="#FF284B" stop-opacity="0.6"/>
      <stop offset="0.3" stop-color="#FF284B"/>
      <stop offset="0.5" stop-color="#FF284B"/>
      <stop offset="0.7" stop-color="#FF284B"/>
      <stop offset="0.849724" stop-color="#FF284B" stop-opacity="0.6"/>
      <stop offset="1" stop-color="#FF284B" stop-opacity="0"/>
    </linearGradient>
    <linearGradient id="paint1_linear_10550_318" x1="1.5836e-05" y1="21" x2="580" y2="21" gradientUnits="userSpaceOnUse">
      <stop stop-color="#FF284B" stop-opacity="0"/>
      <stop offset="0.15" stop-color="#FF284B" stop-opacity="0.6"/>
      <stop offset="0.3" stop-color="#FF284B"/>
      <stop offset="0.5" stop-color="#FF284B"/>
      <stop offset="0.7" stop-color="#FF284B"/>
      <stop offset="0.849724" stop-color="#FF284B" stop-opacity="0.6"/>
      <stop offset="1" stop-color="#FF284B" stop-opacity="0"/>
    </linearGradient>
    <linearGradient id="paint2_linear_10550_318" x1="1.5836e-05" y1="21" x2="580" y2="21" gradientUnits="userSpaceOnUse">
      <stop stop-color="#FF284B" stop-opacity="0"/>
      <stop offset="0.15" stop-color="#FF284B" stop-opacity="0.6"/>
      <stop offset="0.3" stop-color="#FF284B"/>
      <stop offset="0.5" stop-color="#FF284B"/>
      <stop offset="0.7" stop-color="#FF284B"/>
      <stop offset="0.849724" stop-color="#FF284B" stop-opacity="0.6"/>
      <stop offset="1" stop-color="#FF284B" stop-opacity="0"/>
    </linearGradient>
    <linearGradient id="paint3_linear_10550_318" x1="1.5836e-05" y1="21" x2="580" y2="21" gradientUnits="userSpaceOnUse">
      <stop stop-color="#FF284B" stop-opacity="0"/>
      <stop offset="0.15" stop-color="#FF284B" stop-opacity="0.6"/>
      <stop offset="0.3" stop-color="#FF284B"/>
      <stop offset="0.5" stop-color="#FF284B"/>
      <stop offset="0.7" stop-color="#FF284B"/>
      <stop offset="0.849724" stop-color="#FF284B" stop-opacity="0.6"/>
      <stop offset="1" stop-color="#FF284B" stop-opacity="0"/>
    </linearGradient>
    <linearGradient id="paint4_linear_10550_318" x1="1.5836e-05" y1="21" x2="580" y2="21" gradientUnits="userSpaceOnUse">
      <stop stop-color="#FF284B" stop-opacity="0"/>
      <stop offset="0.15" stop-color="#FF284B" stop-opacity="0.6"/>
      <stop offset="0.3" stop-color="#FF284B"/>
      <stop offset="0.5" stop-color="#FF284B"/>
      <stop offset="0.7" stop-color="#FF284B"/>
      <stop offset="0.849724" stop-color="#FF284B" stop-opacity="0.6"/>
      <stop offset="1" stop-color="#FF284B" stop-opacity="0"/>
    </linearGradient>
    <linearGradient id="paint5_linear_10550_318" x1="1.5836e-05" y1="21" x2="580" y2="21" gradientUnits="userSpaceOnUse">
      <stop stop-color="#FF284B" stop-opacity="0"/>
      <stop offset="0.15" stop-color="#FF284B" stop-opacity="0.6"/>
      <stop offset="0.3" stop-color="#FF284B"/>
      <stop offset="0.5" stop-color="#FF284B"/>
      <stop offset="0.7" stop-color="#FF284B"/>
      <stop offset="0.849724" stop-color="#FF284B" stop-opacity="0.6"/>
      <stop offset="1" stop-color="#FF284B" stop-opacity="0"/>
    </linearGradient>
    <linearGradient id="paint6_linear_10550_318" x1="1.5836e-05" y1="21" x2="580" y2="21" gradientUnits="userSpaceOnUse">
      <stop stop-color="#FF284B" stop-opacity="0"/>
      <stop offset="0.15" stop-color="#FF284B" stop-opacity="0.6"/>
      <stop offset="0.3" stop-color="#FF284B"/>
      <stop offset="0.5" stop-color="#FF284B"/>
      <stop offset="0.7" stop-color="#FF284B"/>
      <stop offset="0.849724" stop-color="#FF284B" stop-opacity="0.6"/>
      <stop offset="1" stop-color="#FF284B" stop-opacity="0"/>
    </linearGradient>
    <linearGradient id="paint7_linear_10550_318" x1="1.5836e-05" y1="21" x2="580" y2="21" gradientUnits="userSpaceOnUse">
      <stop stop-color="#FF284B" stop-opacity="0"/>
      <stop offset="0.15" stop-color="#FF284B" stop-opacity="0.6"/>
      <stop offset="0.3" stop-color="#FF284B"/>
      <stop offset="0.5" stop-color="#FF284B"/>
      <stop offset="0.7" stop-color="#FF284B"/>
      <stop offset="0.849724" stop-color="#FF284B" stop-opacity="0.6"/>
      <stop offset="1" stop-color="#FF284B" stop-opacity="0"/>
    </linearGradient>
    <linearGradient id="paint8_linear_10550_318" x1="1.5836e-05" y1="21" x2="580" y2="21" gradientUnits="userSpaceOnUse">
      <stop stop-color="#FF284B" stop-opacity="0"/>
      <stop offset="0.15" stop-color="#FF284B" stop-opacity="0.6"/>
      <stop offset="0.3" stop-color="#FF284B"/>
      <stop offset="0.5" stop-color="#FF284B"/>
      <stop offset="0.7" stop-color="#FF284B"/>
      <stop offset="0.849724" stop-color="#FF284B" stop-opacity="0.6"/>
      <stop offset="1" stop-color="#FF284B" stop-opacity="0"/>
    </linearGradient>
  </defs>
</svg>