<svg width="18" height="19" viewBox="0 0 18 19" fill="none" xmlns="http://www.w3.org/2000/svg">
<g clip-path="url(#clip0_8391_73122)">
<path d="M9.64561 2.2237C9.74381 2.2237 9.82164 2.2237 9.89947 2.2237C11.4829 2.2237 13.0667 2.22291 14.6501 2.2253C15.2421 2.2261 15.5283 2.51867 15.5283 3.10981C15.5283 4.11487 15.5275 5.11953 15.5295 6.12458C15.5299 6.42833 15.4261 6.67501 15.1435 6.81152C14.8605 6.94842 14.5759 6.93605 14.3101 6.75883C14.0678 6.59757 14.0091 6.3485 14.0087 6.07868C14.0071 5.38017 14.0075 4.68126 14.0075 3.98275C14.0075 3.9113 14.0075 3.84026 14.0075 3.75763H9.6548V8.16423H12.0976V6.73568C13.4016 7.65851 14.6757 8.56019 15.9761 9.48022C14.6837 10.3955 13.4088 11.2983 12.104 12.2228V10.7966H9.66038V15.2072H14.0087C14.0087 14.761 14.0087 14.3243 14.0087 13.8872C14.0087 13.5348 14.0035 13.1819 14.0095 12.8295C14.0147 12.5126 14.1368 12.2527 14.445 12.1306C14.7415 12.0132 15.0333 12.0376 15.2892 12.2487C15.4927 12.4168 15.5311 12.6479 15.5303 12.8957C15.5279 13.7208 15.5291 14.5462 15.5287 15.3713C15.5287 15.5509 15.5299 15.7305 15.5287 15.9101C15.5255 16.4294 15.2161 16.7403 14.6944 16.7407C13.1042 16.7423 11.514 16.7411 9.92382 16.7411C9.8388 16.7411 9.75339 16.7411 9.64442 16.7411C9.64442 17.0553 9.64561 17.3526 9.64442 17.65C9.64122 18.3106 9.0888 18.665 8.49168 18.3796C6.19857 17.284 3.90825 16.1835 1.61634 15.0859C1.28904 14.9294 1.16131 14.664 1.16211 14.3131C1.16531 13.1951 1.16371 12.0771 1.16411 10.9591C1.16531 8.87591 1.17249 6.79316 1.16411 4.71C1.16211 4.27533 1.33854 4.0067 1.72771 3.82189C3.99806 2.7422 6.26323 1.65053 8.53039 0.563645C9.06206 0.308988 9.63763 0.663432 9.64522 1.25138C9.64921 1.5691 9.64601 1.88682 9.64601 2.2237H9.64561Z" fill="white"/>
</g>
<defs>
<clipPath id="clip0_8391_73122">
<rect width="14.814" height="18" fill="white" transform="translate(1.16211 0.47998)"/>
</clipPath>
</defs>
</svg>
