<svg width="16" height="16" viewBox="0 0 16 16" fill="none" xmlns="http://www.w3.org/2000/svg">
<g clip-path="url(#clip0_9216_205981)">
<path d="M15.9994 5.72194L16 5.71827V4.761C15.9828 4.68613 15.9665 4.61111 15.9506 4.53605C15.9371 4.47283 15.924 4.40957 15.9109 4.34634C15.848 4.04281 15.7851 3.73989 15.6912 3.44413C15.2205 1.93986 14.1828 0.967394 12.7352 0.425452C12.4034 0.298805 12.0531 0.225367 11.7031 0.151984C11.5351 0.116773 11.3673 0.081575 11.2015 0.0405216C11.1853 0.0381907 11.1679 0.0326634 11.1505 0.0258933C11.1367 0.0205514 11.1229 0.0144367 11.1096 0.00850744C11.103 0.00558919 11.0965 0.00271422 11.0902 0H9.82474C9.78527 0.00717815 9.74524 0.0140781 9.70491 0.0210275L9.70476 0.021046C9.57445 0.0435017 9.44102 0.0664953 9.31351 0.101298C8.95791 0.196456 8.60234 0.298385 8.21364 0.409798L8.21023 0.410781L8.20934 0.41104L7.94685 0.486229C8.99689 1.48927 10.0367 2.48298 11.0734 3.47361L11.1467 3.54367C12.6189 4.95056 14.085 6.35153 15.5647 7.76448C15.5877 7.70258 15.6094 7.64994 15.6288 7.60289C15.6651 7.51523 15.6932 7.447 15.7064 7.37449C15.8074 6.82363 15.9034 6.27279 15.9994 5.72194Z" fill="#67707B"/>
<path d="M0.0517167 9.98255L0.0503821 9.99101C0.0353428 10.0862 0.0202912 10.1814 0.00506663 10.2767C0.00506663 10.5299 0.00506663 10.7832 0 11.0364C0.0219348 11.1631 0.0416205 11.2903 0.0613062 11.4175L0.0613804 11.418C0.100727 11.6722 0.140074 11.9263 0.197401 12.176C0.698515 14.3488 2.56122 15.7113 4.59095 15.9544C4.63929 15.9579 4.68998 15.9708 4.73982 15.9834C4.75387 15.987 4.76786 15.9905 4.7817 15.9939C4.79073 15.996 4.79971 15.9981 4.8086 16H5.77032C5.81579 15.9924 5.85999 15.9836 5.90419 15.9747L5.90471 15.9746C5.94892 15.9658 5.99312 15.9569 6.0386 15.9494C6.6055 15.843 7.17241 15.7366 7.80512 15.6201C5.32996 13.0877 2.91047 10.616 0.455552 8.1089C0.428303 8.19978 0.4004 8.2835 0.373954 8.36284L0.373917 8.36294C0.326686 8.50464 0.284102 8.63241 0.258151 8.76227C0.180595 9.16663 0.116199 9.57427 0.0517167 9.98255Z" fill="#67707B"/>
<path d="M7.63006 8.75362L7.63199 8.75181L7.82031 8.57487C7.91205 8.65392 8.01277 8.74195 8.11861 8.83444L8.11902 8.83481C8.22327 8.92593 8.33246 9.02137 8.4429 9.11682C8.61499 9.26876 8.81746 9.30928 9.03006 9.22824C9.36919 9.09656 9.49066 8.69643 9.25277 8.41786C9.10872 8.25153 8.94309 8.10408 8.78539 7.9637C8.727 7.91172 8.6697 7.86071 8.61499 7.81007C8.72432 7.6889 8.83085 7.57052 8.93571 7.454C9.14639 7.21988 9.35031 6.99329 9.55647 6.7667C9.64863 6.84829 9.73458 6.92924 9.81802 7.00783L9.81828 7.00807C9.97306 7.15386 10.1192 7.29151 10.2803 7.40994C10.6346 7.67332 11.161 7.4454 11.1509 7.01995C11.1458 6.84268 11.0193 6.65021 10.8978 6.50333C10.795 6.37558 10.6698 6.26773 10.5413 6.15711L10.5412 6.157C10.4864 6.10977 10.431 6.06203 10.3765 6.01203C10.5348 5.86843 10.6883 5.72968 10.8417 5.59104L10.8509 5.58273C10.9423 5.50013 11.0337 5.41753 11.1261 5.33394C11.1928 5.27361 11.26 5.21275 11.3281 5.151C12.6087 6.39696 13.8842 7.63786 15.1598 8.87876C14.684 9.95759 14.0816 10.9452 13.3122 11.8316C12.5682 12.6876 11.7583 13.4777 10.7966 14.0855C10.3287 14.3827 9.83793 14.6439 9.35054 14.9033L9.34905 14.9041C9.23059 14.9671 9.11231 15.0301 8.99462 15.0934C8.93388 15.1288 8.79215 15.1035 8.74153 15.0529C7.49636 13.8018 6.26131 12.5457 5.02626 11.2897C5.01792 11.2813 5.01111 11.2699 5.00247 11.2555C4.99538 11.2436 4.98705 11.2297 4.97564 11.2137C5.17936 11.0162 5.38508 10.8207 5.59532 10.621C5.7194 10.5031 5.84505 10.3837 5.97279 10.2615C6.05095 10.3269 6.1271 10.3924 6.2025 10.4572L6.20324 10.4578L6.20331 10.4579C6.36691 10.5985 6.52703 10.7361 6.69662 10.8642C7.056 11.1428 7.52673 11.001 7.60265 10.5704C7.62796 10.4084 7.53686 10.1956 7.43056 10.0538C7.32115 9.91354 7.18632 9.79175 7.04949 9.66815L7.04908 9.66776C6.98347 9.60852 6.91745 9.54887 6.85353 9.48655C7.11121 9.24097 7.36562 9.00201 7.63006 8.75362Z" fill="#67707B"/>
<path d="M5.02868 9.48588L5.09206 9.41564C5.0446 9.36814 4.99278 9.31934 4.93904 9.26873C4.80939 9.14663 4.66854 9.01396 4.55046 8.86357C4.45429 8.74708 4.37331 8.56474 4.37836 8.41786C4.39861 8.02279 4.8896 7.79994 5.21354 8.03799C5.39443 8.17027 5.56097 8.32407 5.73126 8.48132C5.80874 8.55288 5.887 8.62515 5.96774 8.69643C6.15117 8.52417 6.33303 8.35034 6.52297 8.16879C6.6737 8.02471 6.82952 7.87577 6.99525 7.7189C6.93239 7.66606 6.87452 7.61946 6.81978 7.5754C6.76435 7.53077 6.71212 7.48872 6.66119 7.4454C6.55995 7.35423 6.45872 7.26306 6.36761 7.16683C6.08921 6.868 6.11959 6.4932 6.42834 6.31086C6.69662 6.15385 6.95982 6.19437 7.22809 6.44761C7.3468 6.55622 7.46096 6.66937 7.57972 6.78707C7.63819 6.84502 7.69778 6.90408 7.75957 6.96424C7.91796 6.8148 8.07029 6.67042 8.22062 6.52794C8.40657 6.35169 8.58945 6.17835 8.77697 6.00191C8.72787 5.95745 8.67983 5.91433 8.63281 5.87214C8.47631 5.73167 8.33111 5.60134 8.19488 5.46502C7.87092 5.1358 7.92661 4.71036 8.31636 4.52802C8.59475 4.39633 8.82759 4.51789 9.01993 4.71036C9.12897 4.81946 9.22784 4.9367 9.32815 5.05563C9.38616 5.12441 9.44464 5.19376 9.50585 5.26243C9.72929 5.04816 9.9299 4.85864 10.1229 4.67636C10.2446 4.56134 10.3633 4.44921 10.4828 4.33555C10.2306 4.09789 9.97952 3.86131 9.7292 3.62545C8.7686 2.72032 7.81932 1.82585 6.86365 0.921815C6.75887 0.978399 6.65464 1.03334 6.55113 1.08791C6.33963 1.19939 6.13116 1.30928 5.92724 1.4283C4.69218 2.13739 3.65454 3.07439 2.72319 4.14815C1.99937 4.97879 1.39703 5.88541 0.91617 6.87307C0.875674 6.94904 0.875674 7.10099 0.926291 7.15163C1.95887 8.20514 2.99652 9.25357 4.0443 10.2919C4.08985 10.3324 4.23158 10.3425 4.26701 10.3071C4.52454 10.0447 4.76907 9.77363 5.02868 9.48588Z" fill="#67707B"/>
</g>
<defs>
<clipPath id="clip0_9216_205981">
<rect width="16" height="16" fill="white"/>
</clipPath>
</defs>
</svg>
