<svg width="16" height="16" viewBox="0 0 16 16" fill="none" xmlns="http://www.w3.org/2000/svg">
<g clip-path="url(#clip0_9216_205989)">
<path d="M14.6024 3.53022C14.0103 3.87835 13.4276 4.22657 12.8356 4.58418C12.9577 4.97944 12.8638 5.24288 12.563 5.35582C12.3187 5.44989 12.0743 5.2994 11.9052 4.95118C11.3131 5.09238 10.7117 5.23349 10.1196 5.37469C10.0538 5.78873 9.92224 5.9581 9.64031 5.98636C9.37716 6.00513 9.24559 5.8828 9.09523 5.5158C8.76694 5.48637 8.44376 5.45439 8.12169 5.42251C7.82604 5.39327 7.53132 5.36404 7.23446 5.33705C7.09349 5.31817 7.01831 5.36521 6.97131 5.5158C6.88673 5.8075 6.65179 5.94871 6.41685 5.89219C6.14431 5.82638 6.02213 5.64752 6.04093 5.31817L6.04108 5.31671C6.05041 5.20425 6.05897 5.10147 5.89996 5.04525C5.57292 4.93836 5.25063 4.81721 4.92634 4.69526L4.71793 4.61703C4.65472 4.59347 4.59139 4.5699 4.52788 4.54653C4.18016 4.83823 4.0016 4.89475 3.79485 4.77242C3.5693 4.63121 3.51291 4.43359 3.61628 4.06659C3.33897 3.85009 3.05931 3.63593 2.77965 3.42178L2.75903 3.40593C2.4864 3.19716 2.21382 2.98848 1.94347 2.77735C-0.0206821 4.9324 -0.631534 8.52718 0.740549 11.3409C1.56755 10.8798 2.39457 10.4187 3.22158 9.94813C3.137 9.56236 3.21218 9.32708 3.49411 9.23291C3.5881 9.19536 3.73846 9.17649 3.80425 9.22352C3.91914 9.31153 4.01946 9.42379 4.12267 9.53938L4.1234 9.54026C4.16346 9.58514 4.20398 9.63051 4.24595 9.6752L5.7214 9.40237C5.72606 9.37431 5.73072 9.344 5.73539 9.31133L5.7426 9.25892L5.7496 9.20475C5.77779 8.96008 5.92816 8.80949 6.1631 8.78123C6.37925 8.76245 6.64239 8.90356 6.66118 9.12945C6.68773 9.34204 6.79763 9.35446 6.94377 9.37098L6.97131 9.37411C7.56338 9.42115 8.16484 9.46819 8.7851 9.52471C8.86028 9.28004 9.02944 9.05415 9.36776 9.12006C9.77188 9.19536 9.77188 9.52471 9.76248 9.80702C10.0145 9.91693 10.263 10.0233 10.5088 10.1284L10.5294 10.1372L10.5359 10.1399C10.849 10.274 11.1577 10.4061 11.4635 10.541C11.6702 10.1364 11.877 10.0234 12.1683 10.1458C12.4785 10.2775 12.5066 10.4751 12.3187 11.0492L12.5094 11.2216C13.1208 11.7741 13.7245 12.3198 14.3204 12.8654C16.8015 9.73172 16.2188 5.57222 14.6024 3.53022Z" fill="#67707B"/>
<path d="M11.8112 12.1126C11.4917 12.4325 11.3319 12.4889 11.0876 12.329C10.7868 12.1313 10.8338 11.849 10.9748 11.5479C10.5769 11.3716 10.1853 11.2017 9.78464 11.0278L9.78391 11.0275L9.50874 10.908C9.43356 11.2561 9.33018 11.5479 8.94486 11.5291C8.83209 11.5197 8.65353 11.435 8.61594 11.3409C8.55277 11.1862 8.52629 11.0159 8.49736 10.8298C8.48756 10.7667 8.47747 10.7018 8.46558 10.6351C7.98949 10.5892 7.45988 10.5345 6.92889 10.4795L6.88674 10.4751C6.81156 11.021 6.67059 11.2374 6.41685 11.2467C6.10671 11.2561 5.94695 11.0586 5.84358 10.5315C5.40188 10.6163 4.96018 10.701 4.50908 10.7857C4.58426 11.1338 4.60306 11.435 4.23655 11.5667C4.13317 11.6044 3.97341 11.6044 3.88883 11.5573C3.79066 11.4918 3.71072 11.3989 3.62362 11.2977C3.58564 11.2536 3.54631 11.2078 3.50351 11.1621C3.1276 11.228 1.86828 11.9526 1.389 12.4137C1.3992 12.4341 1.40694 12.4521 1.414 12.4684C1.42645 12.4974 1.43679 12.5214 1.45478 12.5454C1.96227 13.27 2.56373 13.9005 3.27796 14.4369C4.49028 15.331 5.84358 15.8485 7.33783 15.9709C8.7945 16.0932 10.1948 15.8297 11.5199 15.1897C12.2341 14.8416 12.8638 14.3898 13.4652 13.8723C13.5704 13.7757 13.5203 13.7201 13.4521 13.6443L13.437 13.6276C12.9483 13.0536 12.4127 12.5454 11.8112 12.1126Z" fill="#67707B"/>
<path d="M4.8756 2.57973C4.62186 2.53269 4.4527 2.66441 4.36811 2.86204C4.26473 3.1067 4.15196 3.04079 4.0204 2.92785C3.78502 2.75115 3.54963 2.57132 3.31251 2.39011C3.13308 2.25302 2.95265 2.11523 2.77048 1.97745C5.80598 -0.75161 10.862 -0.760998 13.9351 2.60789C13.6252 2.79652 13.3193 2.98515 13.0121 3.17379C12.8443 3.27695 12.676 3.38002 12.5066 3.48309C12.3093 3.06905 12.0931 2.90907 11.8206 3.00315C11.3883 3.15374 11.4635 3.51135 11.5481 3.86896C11.1534 3.96068 10.7745 4.05241 10.3957 4.14413L10.0162 4.23596C9.94104 3.73724 9.74368 3.51135 9.45234 3.51135C9.17981 3.51135 9.04824 3.73714 8.99186 4.29238C8.90136 4.29238 8.80981 4.29443 8.71793 4.29658C8.53311 4.30079 8.34688 4.30499 8.16484 4.29238C7.91351 4.27566 7.66964 4.24397 7.41327 4.21063L7.31904 4.19831C7.34723 3.86896 7.32843 3.53961 6.93373 3.46431C6.54841 3.38902 6.42624 3.68072 6.32286 3.99129C5.91876 3.8407 5.52405 3.6901 5.15753 3.55838C5.17211 3.50001 5.18794 3.44417 5.20325 3.39019C5.24713 3.2352 5.28667 3.09565 5.27971 2.95611C5.26091 2.74909 5.09175 2.61737 4.8756 2.57973Z" fill="#67707B"/>
</g>
<defs>
<clipPath id="clip0_9216_205989">
<rect width="16" height="16" fill="white"/>
</clipPath>
</defs>
</svg>
