<svg width="16" height="16" viewBox="0 0 16 16" fill="none" xmlns="http://www.w3.org/2000/svg">
<path d="M12.5581 5.56782C12.7893 4.49079 13.2785 3.60067 14.3546 3.12891C12.6737 0.885823 9.96109 -0.0754993 8.04892 0.00460781C9.27627 1.55341 9.63203 3.39595 9.86325 5.25628C10.2269 5.29868 10.5863 5.33968 10.9431 5.38038C11.4854 5.44223 12.0217 5.50341 12.5581 5.56782Z" fill="#67707B"/>
<path d="M7.20553 5.38911C6.74874 5.42719 6.2898 5.46545 5.82546 5.50552C5.27405 3.58287 3.84213 2.87078 1.92996 2.77286L1.97269 2.72342L2.00265 2.68866C2.08825 2.58936 2.16646 2.49864 2.25014 2.40792C3.42413 1.22407 4.84714 0.467469 6.4836 0.129221C6.57254 0.111423 6.70594 0.147024 6.786 0.200434C7.46192 0.663289 7.83546 1.34868 8.13786 2.08747C8.54696 3.10221 8.76931 4.17034 8.87605 5.24738C8.32066 5.29614 7.76797 5.3422 7.21204 5.38854L7.20553 5.38911Z" fill="#67707B"/>
<path d="M7.03503 15.9555C8.49361 12.8935 9.06283 9.66235 8.96499 6.28882L8.93422 6.27993C8.89327 6.26805 8.87279 6.26211 8.85827 6.26211C8.39714 6.29761 7.93827 6.33532 7.47938 6.37303L7.47527 6.37338C7.01501 6.41121 6.55477 6.44904 6.09228 6.48464C5.95887 6.49354 5.9233 6.56475 5.9233 6.68937C5.88771 7.6774 5.55865 8.56751 5.06949 9.41312C4.30463 10.7305 3.22847 11.7363 1.94776 12.5463C1.88036 12.593 1.81297 12.6367 1.74207 12.6826L1.74083 12.6834L1.73784 12.6854C1.71056 12.703 1.68277 12.721 1.65424 12.7397C1.63103 12.7549 1.60736 12.7705 1.58311 12.7867C2.98834 14.5758 4.78489 15.6261 7.03503 15.9555Z" fill="#67707B"/>
<path d="M9.95219 6.29772C10.0323 9.68016 9.49862 12.9202 8.09339 16C11.1884 16.0089 14.1323 14.0328 15.2707 11.3091C13.8833 10.0273 12.7538 8.59421 12.5225 6.62706C11.6776 6.43124 10.8327 6.30662 9.95219 6.29772Z" fill="#67707B"/>
<path d="M4.96276 6.68047C4.61589 9.19059 3.05059 10.7216 1.04948 11.9678C0.346851 10.7216 0.00890252 9.39532 0 7.98003C1.60979 7.47267 3.23735 6.99201 4.96276 6.68047Z" fill="#67707B"/>
<path d="M2.45914 6.25321C3.25068 6.05072 4.04224 5.84821 4.83824 5.64794C4.63368 4.95365 4.21567 4.43738 3.56641 4.11694C2.82822 3.75199 2.04558 3.73419 1.24514 3.8143C1.20067 3.8232 1.13839 3.88551 1.11173 3.93892C0.684821 4.65991 0.373537 5.43431 0.186758 6.25321C0.152038 6.38644 0.132365 6.51967 0.113062 6.65045L0.112997 6.65084C0.102661 6.72089 0.0924342 6.79023 0.0800358 6.85849C0.87603 6.65822 1.66759 6.45571 2.45914 6.25321Z" fill="#67707B"/>
<path d="M13.5542 6.9119C14.4258 7.18783 15.1996 7.57948 15.92 8.05124C15.9644 8.07794 16 8.15806 16 8.21146C15.9911 8.91465 15.8666 9.60004 15.6531 10.321C14.657 9.35971 13.8655 8.30938 13.5542 6.9119Z" fill="#67707B"/>
<path d="M14.239 4.35727C13.8121 4.75782 13.6076 5.26518 13.5364 5.81706C14.3355 6.15473 15.1258 6.49242 15.916 6.83895C15.9159 6.84258 15.9169 6.84377 15.92 6.84069C15.9186 6.84011 15.9173 6.83953 15.916 6.83895C15.9162 6.83213 15.92 6.81671 15.92 6.80508C15.7954 5.98618 15.5375 5.20287 15.1729 4.45518C14.9327 3.96562 14.7993 3.93001 14.3546 4.25935C14.3191 4.28606 14.2746 4.32166 14.239 4.35727Z" fill="#67707B"/>
</svg>
