<svg width="17" height="16" viewBox="0 0 17 16" fill="none" xmlns="http://www.w3.org/2000/svg">
<path fill-rule="evenodd" clip-rule="evenodd" d="M16.1875 7.99976C16.1875 12.418 12.6058 15.9998 8.1875 15.9998C3.76922 15.9998 0.1875 12.418 0.1875 7.99976C0.1875 3.58148 3.76922 -0.000244141 8.1875 -0.000244141C12.6058 -0.000244141 16.1875 3.58148 16.1875 7.99976ZM13.1391 7.9995C13.1391 10.7346 10.9219 12.9519 8.18676 12.9519C5.45163 12.9519 3.23438 10.7346 3.23438 7.9995C3.23438 5.26438 5.45163 3.04712 8.18676 3.04712C10.9219 3.04712 13.1391 5.26438 13.1391 7.9995ZM9.74883 5.13477C9.3565 4.75587 8.83625 4.57104 8.18806 4.57104C7.53134 4.57104 7.01109 4.75587 6.62729 5.13477C6.27761 5.46746 6.10703 5.88333 6.10703 6.38237C6.10703 6.71506 6.17526 7.00154 6.31173 7.23258C6.45672 7.47285 6.67846 7.66692 6.9855 7.7963V7.81479C6.69552 7.89796 6.45671 8.08279 6.25202 8.36927C6.01322 8.68348 5.90234 9.0439 5.90234 9.45052C5.90234 10.042 6.09851 10.5133 6.49936 10.8829C6.89168 11.2434 7.45458 11.4282 8.18806 11.4282C8.913 11.4282 9.47591 11.2434 9.87676 10.8829C10.2691 10.5133 10.4738 10.042 10.4738 9.45052C10.4738 9.0439 10.3544 8.68348 10.1241 8.36927C9.9194 8.08279 9.67207 7.89796 9.39062 7.81479V7.7963C9.68913 7.66692 9.91087 7.47285 10.0644 7.23258C10.2009 7.00154 10.2691 6.71506 10.2691 6.38237C10.2691 5.88333 10.09 5.46746 9.74883 5.13477ZM7.32665 5.74471C7.53987 5.53215 7.82985 5.4305 8.18806 5.4305C8.54627 5.4305 8.82772 5.53215 9.04947 5.74471C9.2371 5.92954 9.33092 6.15133 9.33092 6.41933C9.33092 6.7243 9.25416 6.96458 9.10064 7.14016C8.913 7.35272 8.60597 7.46361 8.18806 7.46361C7.76162 7.46361 7.46311 7.35272 7.27548 7.14016C7.12196 6.96458 7.0452 6.7243 7.0452 6.41933C7.0452 6.15133 7.13902 5.92954 7.32665 5.74471ZM7.21578 8.60031C7.43753 8.37851 7.76162 8.26762 8.18806 8.26762C8.6145 8.26762 8.93859 8.37851 9.16887 8.60955C9.37356 8.81286 9.48443 9.09935 9.48443 9.45052C9.48443 9.78321 9.37356 10.042 9.16034 10.2453C8.92153 10.4486 8.59744 10.5595 8.18806 10.5595C7.77015 10.5595 7.45458 10.4578 7.23283 10.2545C7.00256 10.0512 6.89168 9.78321 6.89168 9.45052C6.89168 9.09935 6.99403 8.81286 7.21578 8.60031Z" fill="currentColor"/>
</svg>
