<svg width="16" height="16" viewBox="0 0 16 16" fill="none" xmlns="http://www.w3.org/2000/svg">
<path d="M15.9612 10.0308C16 10.7447 15.9224 11.4389 15.7477 12.1265C15.5084 13.0564 14.9133 13.5803 13.9948 13.7244C13.4773 13.803 12.9533 13.7637 12.4617 13.5541C12.2418 13.4625 12.0477 13.3053 11.8601 13.1547C11.2586 12.6438 10.7217 12.061 10.2236 11.4454C10.1072 11.3013 9.99719 11.1376 9.85489 11.0197C9.5638 10.784 9.20803 10.8036 8.85873 10.7971C8.21835 10.7905 7.57796 10.784 6.94404 10.7578C6.57534 10.7381 6.31013 10.8953 6.09666 11.1638C5.7603 11.5895 5.46275 12.0414 5.11345 12.4539C4.66712 12.9844 4.14317 13.4166 3.47691 13.6589C2.76537 13.9143 2.09911 13.8292 1.46519 13.4363C0.747182 12.9909 0.378476 12.2902 0.165014 11.4912C0.00330027 10.8756 -0.0290424 10.2535 0.0227059 9.61826C0.145608 8.03343 0.469035 6.49445 1.08355 5.0275C1.45225 4.14995 1.91152 3.31824 2.62306 2.66335C2.99823 2.31626 3.43809 2.10014 3.94264 2.0412C4.99701 1.91678 5.92201 2.23767 6.72411 2.91876C7.51974 3.59329 8.62586 3.52125 9.36328 3.04318C9.59614 2.89256 9.7902 2.69609 10.0101 2.52582C10.3724 2.24422 10.7928 2.11324 11.2392 2.06085C11.7437 2.00191 12.2418 2.00846 12.7334 2.17873C13.3414 2.3883 13.8072 2.78778 14.1759 3.30514C14.7904 4.16304 15.1462 5.14538 15.4114 6.16045C15.5925 6.86118 15.7477 7.58156 15.8577 8.29539C15.9483 8.86514 15.9547 9.44144 16 10.0177C15.9871 10.0308 15.9741 10.0308 15.9612 10.0308ZM4.05907 5.97053C3.63862 5.97053 3.24404 5.97053 2.84299 5.97053C2.57778 5.97053 2.39019 6.16045 2.37725 6.42241C2.37079 6.56648 2.37725 6.70401 2.37725 6.84809C2.38372 7.05765 2.48075 7.21482 2.67481 7.26066C2.85593 7.30651 3.04351 7.29996 3.2311 7.30651C3.50278 7.31306 3.77446 7.30651 4.05907 7.30651C4.05907 7.73218 4.05907 8.13822 4.05907 8.5377C4.05907 8.8062 4.24019 9.00267 4.51187 9.00922C4.66065 9.01577 4.81589 9.02231 4.96467 9.00267C5.04876 8.99612 5.13932 8.95028 5.21047 8.90443C5.33985 8.81275 5.39159 8.66867 5.38513 8.50495C5.38513 8.10547 5.38513 7.71254 5.38513 7.30651C5.79911 7.30651 6.19369 7.30651 6.58181 7.30651C6.83408 7.30651 7.02813 7.15588 7.06695 6.90048C7.09282 6.73675 7.09929 6.55993 7.07341 6.39621C7.0346 6.11461 6.84055 5.96399 6.55593 5.96399C6.3166 5.96399 6.08373 5.96399 5.84439 5.96399C5.69562 5.96399 5.54684 5.96399 5.38513 5.96399C5.38513 5.55141 5.39159 5.15847 5.38513 4.76554C5.37866 4.45774 5.23635 4.28747 4.94526 4.24163C4.80296 4.22198 4.65418 4.22198 4.51187 4.24163C4.22079 4.28092 4.05907 4.48394 4.05907 4.77864C4.05907 5.17812 4.05907 5.5645 4.05907 5.97053ZM11.4073 7.6274C11.4203 7.13624 11.058 6.71711 10.5211 6.71056C10.0231 6.70401 9.61555 7.05765 9.60908 7.60776C9.60261 8.11857 9.93251 8.5377 10.5147 8.5377C11.0645 8.54425 11.4138 8.11202 11.4073 7.6274ZM12.1771 6.49445C12.6881 6.46825 13.0568 6.12116 13.0698 5.5907C13.0827 5.0275 12.604 4.68695 12.1836 4.68695C11.692 4.68695 11.278 5.07334 11.2844 5.5907C11.2974 6.12116 11.6531 6.46825 12.1771 6.49445Z" fill="#67707B"/>
</svg>
