<svg width="16" height="16" viewBox="0 0 16 16" fill="none" xmlns="http://www.w3.org/2000/svg">
<path fill-rule="evenodd" clip-rule="evenodd" d="M7.9818 1.45369L6.24219 0.193284C6.81414 0.0655954 7.40443 0 8.00475 0C8.59264 0 9.17081 0.0632199 9.73168 0.185783L7.9818 1.45369ZM13.6653 2.3425C12.854 1.53205 11.8991 0.917186 10.8581 0.520996L8.44922 2.26656L8.46325 4.34118L11.3954 6.46587L13.4096 5.88625L14.3226 3.08404C14.1203 2.82567 13.9011 2.57803 13.6653 2.3425ZM1.39221 12.5173H4.14695L5.43401 10.776L4.31072 7.32792L2.37495 6.51954L0 8.24044C0.0453116 9.78889 0.529197 11.2619 1.39221 12.5173ZM9.70787 10.3915H6.29642L5.24219 7.15564L8.00211 5.15576L10.7621 7.15564L9.70787 10.3915ZM0.0546875 7.04777L1.76532 5.80829L1.13752 3.88135C0.55657 4.84458 0.187749 5.91943 0.0546875 7.04777ZM11.1133 15.3783C12.055 14.9818 12.9205 14.4031 13.6649 13.6594C13.7332 13.5913 13.7995 13.5218 13.865 13.4517H11.741L11.1133 15.3783ZM13.6906 6.77832L16.001 8.4525C15.9197 9.92328 15.4415 11.3195 14.6179 12.5175H11.6607L10.5586 10.7948L11.6785 7.35733L13.6906 6.77832ZM14.332 6.08911L15.9833 7.28571C15.8828 6.14598 15.5433 5.05603 14.9883 4.07471L14.332 6.08911ZM10.0103 15.7481C9.36292 15.9142 8.69029 16.0002 8.00437 16.0002C7.23168 16.0002 6.47591 15.891 5.75411 15.6811L4.90234 13.0665L6.18938 11.3252H9.78785L10.89 13.0479L10.0103 15.7481ZM4.63226 15.2633L4.04198 13.4517H2.14062C2.20606 13.5218 2.27241 13.5913 2.34066 13.6594C3.01605 14.3341 3.79103 14.8729 4.63226 15.2633ZM4.626 6.4487L2.69136 5.64075L1.80859 2.93104C1.97563 2.72808 2.15347 2.53212 2.34188 2.34392C3.14534 1.54128 4.08945 0.930226 5.11862 0.533691L7.51528 2.27032L7.52931 4.34494L4.626 6.4487Z" fill="currentColor"/>
</svg>
