<svg width="16" height="16" viewBox="0 0 16 16" fill="none" xmlns="http://www.w3.org/2000/svg">
<path d="M14.4302 0.43999C14.5502 0.16001 14.83 0 15.1498 0C15.7894 0 16.1891 0.67998 15.9093 1.2C15.6326 1.71118 15.3106 2.30176 15.0519 2.77246C14.8247 3.18569 14.6463 3.50649 14.5902 3.6C14.5245 3.71489 14.4657 3.82305 14.408 3.92998C14.3251 4.08369 14.2447 4.23491 14.1504 4.4C14.0305 4.63999 13.8706 4.92002 13.7507 5.16001C13.6908 5.27993 13.6209 5.40981 13.551 5.53975C13.4811 5.66982 13.411 5.7999 13.351 5.92002C13.1911 6.2 13.0312 6.52002 12.8713 6.83999C12.7115 7.07998 12.5915 7.27998 12.4716 7.52002C12.3917 7.63999 12.3117 7.8 12.2317 7.96001C12.1918 8.03999 12.1518 8.07998 12.1119 8.12002H12.0719C12.0057 8.07588 11.9395 8.0439 11.8735 8.01069C11.8197 7.98369 11.7659 7.95586 11.7121 7.92002C11.4723 7.8 11.1925 7.63999 10.9127 7.47998C10.8648 7.45601 10.8312 7.43203 10.7948 7.40806C10.7705 7.39204 10.7448 7.37603 10.7128 7.36001C10.6898 7.33701 10.68 7.32725 10.6758 7.31548C10.6728 7.30679 10.6728 7.29702 10.6728 7.27998C10.7527 7.07998 10.8727 6.83999 10.9926 6.63999C11.0725 6.47998 11.1925 6.27998 11.2724 6.12002C11.4323 5.8 11.6321 5.47998 11.7921 5.16001C11.892 5.00005 11.9819 4.83008 12.0718 4.66011C12.1617 4.49004 12.2517 4.32002 12.3517 4.16001C12.4316 4.03999 12.5116 3.87998 12.5915 3.76001C12.7115 3.56001 13.9107 1.4 14.4302 0.43999Z" fill="#67707B"/>
<path fill-rule="evenodd" clip-rule="evenodd" d="M0.439743 3.83999C0.479755 3.71997 0.51967 3.63999 0.559682 3.55996C0.679621 3.31997 0.799462 3.11997 0.919401 2.91997C1.15928 2.55996 1.39906 2.23999 1.71886 1.95996L2.31846 1.47998C2.59825 1.27998 2.87814 1.11997 3.19785 1C3.30442 0.94668 3.44641 0.893408 3.5885 0.840088C3.65965 0.813379 3.73079 0.78667 3.79745 0.759961C3.93144 0.692969 4.09334 0.654053 4.23641 0.619678L4.31712 0.6C4.47707 0.559961 4.67693 0.559961 4.83679 0.519971C4.89837 0.499463 4.97039 0.489453 5.04212 0.48457C5.11023 0.47998 5.17816 0.47998 5.23652 0.47998H5.75619C5.76243 0.47998 5.76887 0.480225 5.77561 0.480664L5.792 0.482129C5.82421 0.485645 5.86012 0.492822 5.89603 0.5C5.946 0.509961 5.99597 0.519971 6.03598 0.519971C6.11591 0.519971 6.23584 0.559961 6.35578 0.559961C6.39531 0.559961 6.44459 0.559961 6.49397 0.564795C6.54452 0.569727 6.59517 0.579736 6.63557 0.6L6.67773 0.616504C6.70028 0.625098 6.72233 0.633203 6.744 0.640869C6.77952 0.653467 6.81417 0.664893 6.84852 0.675439L6.88765 0.687061L6.91459 0.694727C7.00476 0.719824 7.09493 0.739893 7.19516 0.759961C7.3151 0.759961 7.39502 0.8 7.51496 0.87998C7.71483 0.959961 7.9147 1.03999 8.07465 1.11997C8.21859 1.17759 8.34185 1.25596 8.47408 1.34014C8.52551 1.37285 8.57831 1.4064 8.63423 1.43999L9.11389 1.8L9.59355 2.27998C9.71348 2.4 9.79341 2.51997 9.91335 2.51997C9.95336 2.55996 9.95336 2.63999 9.95336 2.67998V4.63999C9.95336 4.69849 9.93199 4.7356 9.90486 4.78257C9.89491 4.79985 9.88417 4.81846 9.87344 4.83999C9.82415 4.89917 9.77731 4.95835 9.73232 5.01753C9.69553 5.06587 9.65991 5.11421 9.62526 5.16255C9.53031 5.29502 9.44199 5.42749 9.35377 5.55996C9.27384 5.67988 9.18396 5.7998 9.09408 5.91973L9.09144 5.92368C9.00234 6.04248 8.91324 6.16123 8.8341 6.27998C8.78257 6.36592 8.73104 6.45186 8.68264 6.53779C8.61842 6.65185 8.55987 6.76592 8.51429 6.87998L8.514 6.88101C8.49829 6.92808 8.48258 6.97515 8.4694 7.02222C8.45974 7.05654 8.45135 7.09082 8.44529 7.12515C8.43846 7.16343 8.43437 7.20171 8.43437 7.23999V7.43999C8.47438 7.55996 8.47438 7.67998 8.51429 7.8L8.63423 8.15996C8.63423 8.20552 8.63423 8.22515 8.62681 8.23359C8.62564 8.23501 8.62418 8.23613 8.62252 8.23696C8.62106 8.2377 8.6194 8.23828 8.61764 8.23867C8.61198 8.23999 8.60437 8.23999 8.59422 8.23999C8.5624 8.25591 8.52425 8.26548 8.48482 8.27124C8.42519 8.27998 8.36254 8.27998 8.31443 8.27998C8.15457 8.31997 8.03463 8.31997 7.87478 8.31997C7.87078 8.31997 7.86678 8.32036 7.86278 8.32109L7.8578 8.32217L7.84902 8.32476C7.8376 8.32856 7.82618 8.33428 7.81476 8.33999C7.79476 8.35 7.77475 8.35996 7.75484 8.35996H7.15524C7.11465 8.35996 7.09464 8.35996 7.08478 8.34946C7.07532 8.33931 7.07532 8.31934 7.07532 8.27998V4.07998C7.07532 4 7.03531 3.87998 6.91537 3.83999H0.439743ZM7.99462 2.27998H7.83477C7.71483 2.31997 7.59489 2.43999 7.59489 2.55996C7.59489 2.67998 7.67491 2.75996 7.75484 2.8H8.11456C8.27451 2.8 8.31443 2.75996 8.35444 2.63999C8.39435 2.51997 8.31443 2.35996 8.19449 2.31997C8.11456 2.27998 8.07465 2.27998 7.99462 2.27998ZM6.83544 2.27998C6.7155 2.31997 6.63557 2.35996 6.59556 2.51997C6.59556 2.63999 6.63558 2.75996 6.75551 2.75996C6.83544 2.8 6.91537 2.8 6.95538 2.8H7.15524C7.23517 2.8 7.35511 2.71997 7.39502 2.55996C7.39502 2.47998 7.35511 2.35996 7.27518 2.31997C7.25606 2.3104 7.23693 2.30312 7.2178 2.29761C7.19614 2.29136 7.17457 2.2873 7.153 2.28472C7.11377 2.27998 7.07454 2.27998 7.03531 2.27998H6.83544Z" fill="#67707B"/>
<path d="M2.31846 10.56C2.27845 10.48 2.27845 10.44 2.23853 10.36C2.15851 10.16 2.07858 9.92002 1.99866 9.72002C1.95864 9.63999 1.95864 9.52002 1.91873 9.43999C1.87872 9.32002 1.87872 9.2 1.87872 9.07998C1.87872 9 1.87872 9 1.79879 9H0.0799267C0.0400121 9 0 9 0 9.07998V9.23999C0.0400121 9.36001 0.119939 9.47998 0.199866 9.6C0.21509 9.62031 0.229631 9.64126 0.243684 9.66269C0.265739 9.69619 0.286526 9.73081 0.306825 9.76597L0.336883 9.8189L0.359719 9.86001C0.378066 9.89302 0.396413 9.92603 0.41515 9.95854C0.447648 10.0147 0.48161 10.0694 0.51967 10.12C0.559584 10.2 0.599499 10.2699 0.639414 10.3399C0.679426 10.4099 0.719438 10.4799 0.75945 10.56H2.31846Z" fill="#67707B"/>
<path d="M10.0931 11.56C10.0732 11.55 10.0532 11.54 10.0332 11.52C9.97161 11.4892 9.91003 11.4525 9.84621 11.4144C9.74432 11.3535 9.63658 11.2892 9.51362 11.24C9.39378 11.1601 9.26398 11.0802 9.13419 11.0002L8.98858 10.9103C8.94798 10.885 8.90768 10.8597 8.86815 10.8344C8.82941 10.8096 8.79125 10.7848 8.75407 10.76H8.67415V10.8C8.61403 10.9002 8.55391 11.0105 8.49389 11.1208C8.45593 11.1904 8.41797 11.26 8.38001 11.3271L8.35395 11.3725C8.34078 11.3954 8.3276 11.418 8.31443 11.44C8.19449 11.68 7.99462 11.92 7.75474 12.08C7.51496 12.24 7.19516 12.36 6.91537 12.36H5.63615C5.60014 12.36 5.57496 12.36 5.5573 12.3622C5.54168 12.3641 5.53202 12.3677 5.52607 12.3746C5.52431 12.3766 5.52294 12.3788 5.52177 12.3813C5.52002 12.3852 5.51875 12.3896 5.51797 12.395C5.51699 12.4012 5.5166 12.4086 5.51641 12.4173L5.51631 12.44C5.49933 12.5079 5.47512 12.5758 5.44985 12.6468C5.41559 12.743 5.37939 12.8449 5.35636 12.96C5.33655 13.0592 5.30688 13.1583 5.27721 13.2575L5.26052 13.3133C5.23613 13.3956 5.2129 13.4778 5.1965 13.56L5.07657 13.92C5.05656 14.0199 5.0266 14.1099 4.99664 14.1998C4.96668 14.2898 4.93672 14.3799 4.91671 14.48C4.83669 14.72 4.75676 14.96 4.67683 15.24C4.63682 15.44 4.5569 15.6 4.51698 15.8C4.51698 15.84 4.50693 15.8701 4.49688 15.9C4.49239 15.9137 4.4879 15.9273 4.48429 15.9418C4.47999 15.9593 4.47697 15.9782 4.47697 16H7.11523C7.27509 15.96 7.43494 15.96 7.55488 15.88C7.79476 15.76 8.03454 15.6 8.19449 15.36C8.27441 15.24 8.35434 15.12 8.39435 15C8.43563 14.9381 8.47418 14.8735 8.51146 14.8076L8.54191 14.7534L8.57168 14.6989L8.61422 14.6199C8.6842 14.4899 8.75407 14.36 8.834 14.24C8.88972 14.1424 8.94057 14.0498 8.98995 13.9585L9.05455 13.8387C9.12433 13.7091 9.19411 13.5795 9.27374 13.44C9.33356 13.3203 9.39339 13.2105 9.45321 13.1008C9.51333 12.9905 9.57344 12.8803 9.63346 12.76C9.68977 12.6474 9.75486 12.526 9.82044 12.4041L9.84328 12.3617C9.88144 12.2906 9.9196 12.2196 9.956 12.1504C9.98293 12.0991 10.0089 12.0487 10.0332 12C10.0732 11.88 10.1531 11.8 10.1931 11.68C10.2103 11.6627 10.2202 11.6529 10.2193 11.6441C10.2186 11.6369 10.2108 11.6304 10.1939 11.621L10.1869 11.6172L10.1701 11.6085L10.1531 11.6C10.1462 11.5931 10.1393 11.5874 10.1323 11.5824L10.1262 11.5781L10.1192 11.5738L10.1136 11.5706C10.1068 11.5668 10.0999 11.5634 10.0931 11.56Z" fill="#67707B"/>
<path d="M3.63749 12.4H2.23844C2.07858 12.4 1.91863 12.44 1.79879 12.48C1.77976 12.4864 1.75966 12.4927 1.73926 12.4991L1.7375 12.4997C1.62888 12.5341 1.50592 12.573 1.43897 12.64L1.43809 12.6406C1.39076 12.6761 1.34343 12.7117 1.29708 12.7483C1.2477 12.7874 1.19939 12.8276 1.15362 12.8704C1.1381 12.8849 1.12288 12.8996 1.10795 12.9147C1.09584 12.927 1.08394 12.9395 1.07223 12.9522C1.04666 12.9802 1.02226 13.0094 0.999328 13.04C0.839377 13.28 0.75945 13.52 0.679523 13.8C0.639511 13.92 0.599597 14.04 0.599597 14.12C0.599597 14.1581 0.590521 14.2053 0.581054 14.2529C0.570612 14.3053 0.559584 14.3581 0.559584 14.4C0.559584 14.52 0.559584 14.64 0.599597 14.72L0.719438 15.08C0.839377 15.36 1.03924 15.56 1.31903 15.72C1.47899 15.84 1.67885 15.92 1.87872 15.92C1.91863 15.92 1.99866 15.92 2.07858 15.96H2.63817L2.67818 15.92C2.6934 15.8896 2.70863 15.8533 2.72161 15.8157C2.74278 15.7544 2.75811 15.6895 2.75811 15.64L2.87804 15.16C2.91796 15 2.95797 14.84 2.99798 14.72L3.02267 14.6225C3.05576 14.495 3.09421 14.3675 3.15784 14.24L3.15871 14.2359C3.18907 14.1145 3.21942 13.9933 3.24977 13.8897C3.25914 13.858 3.26841 13.8279 3.27778 13.8L3.27865 13.7969C3.31828 13.6779 3.35799 13.5586 3.39771 13.4L3.39889 13.3955C3.43841 13.2369 3.47803 13.0781 3.51756 12.88L3.63749 12.4Z" fill="#67707B"/>
<path d="M15.4498 14.6398C15.5196 14.5999 15.5895 14.56 15.6694 14.52L15.6716 14.5182L15.6747 14.5159C15.6771 14.5144 15.6803 14.5124 15.6845 14.5103C15.6938 14.5054 15.7083 14.4995 15.7295 14.4941C15.7601 14.4864 15.805 14.48 15.8693 14.48V15.04C15.8693 15.24 15.7894 15.4 15.6294 15.52C15.4696 15.68 15.2697 15.76 15.0298 15.84C14.8305 15.8799 14.6709 15.9198 14.5113 15.9597L14.5102 15.96C14.3903 16 14.3103 16 14.1905 16H13.8306C13.7938 15.9926 13.7584 15.9866 13.7242 15.9815C13.671 15.9735 13.6203 15.9675 13.5715 15.9618C13.526 15.9565 13.4818 15.9513 13.4385 15.9448C13.3955 15.9383 13.3532 15.9306 13.311 15.92C13.2828 15.9144 13.2554 15.9087 13.2288 15.903C13.1953 15.8958 13.163 15.8884 13.1315 15.8807L13.0914 15.8704L13.0658 15.8635C13.0299 15.8535 12.995 15.8428 12.9607 15.8309C12.9032 15.811 12.8473 15.7879 12.7914 15.76C12.73 15.7292 12.6686 15.6985 12.6095 15.6655C12.5145 15.6126 12.4255 15.5539 12.3517 15.48C12.2317 15.36 12.1518 15.2 12.1518 15.04V14.48H12.1918C12.2094 14.4932 12.2274 14.5059 12.2459 14.5182C12.2698 14.534 12.2945 14.5492 12.3196 14.5637C12.3669 14.591 12.4162 14.6161 12.4669 14.6399C12.523 14.6662 12.5808 14.6908 12.6393 14.7147C12.6764 14.73 12.7139 14.745 12.7514 14.76C12.9112 14.84 13.0712 14.88 13.2711 14.92C13.5121 14.9803 13.7758 14.9724 14.028 14.9648L14.0318 14.9647C14.113 14.9623 14.1929 14.96 14.2704 14.96C14.3304 14.96 14.4003 14.95 14.4702 14.9399L14.4717 14.9398C14.5118 14.9341 14.5517 14.9284 14.5899 14.9246C14.6179 14.9217 14.6448 14.92 14.6701 14.92C14.87 14.88 15.0298 14.84 15.2297 14.76C15.3097 14.7199 15.3798 14.6799 15.4498 14.6398Z" fill="#67707B"/>
<path d="M0.0800243 6.44004H0.599597C0.679621 6.44004 0.759548 6.48003 0.799462 6.52002C0.845135 6.56567 0.877827 6.62436 0.897346 6.68867C0.912082 6.73701 0.919401 6.78853 0.919401 6.84004C0.919401 6.88003 0.879486 6.92002 0.839474 6.92002H0.0800243C0.0681182 6.92002 0.059823 6.92002 0.0539676 6.92104C0.0489905 6.92192 0.0458676 6.92353 0.0438182 6.92646C0.0400121 6.93188 0.0400121 6.9418 0.0400121 6.96001V8.44004C0.170393 8.44004 0.300677 8.44004 0.424617 8.43359C0.462482 8.43164 0.499761 8.4291 0.53626 8.42573C0.600085 8.41987 0.661469 8.41162 0.719535 8.4C0.737297 8.4 0.762866 8.39214 0.78941 8.37988C0.822591 8.36455 0.857236 8.34229 0.879486 8.32002C0.882707 8.31675 0.885732 8.31348 0.888465 8.31021C0.892368 8.30562 0.895882 8.30103 0.899005 8.29644C0.902615 8.29106 0.905836 8.28569 0.908861 8.28032L0.914033 8.27051L0.919303 8.26006C0.929355 8.24004 0.939407 8.22002 0.959413 8.2C1.03934 8.04004 1.15928 7.96001 1.35914 7.96001H1.79879C1.81118 7.96001 1.81977 7.96001 1.82563 7.95884C1.8388 7.95615 1.8388 7.94761 1.8388 7.92002V5.6C1.8388 5.58721 1.8388 5.57441 1.84007 5.56162C1.8429 5.53442 1.85159 5.50723 1.87881 5.48003C1.91873 5.32002 1.99866 5.16001 2.03867 5.04004C2.07868 4.94004 2.10864 4.85005 2.1386 4.76006C2.15695 4.70493 2.17529 4.64985 2.19589 4.59253L2.21531 4.53979C2.22272 4.52026 2.23043 4.50034 2.23853 4.48003C2.23853 4.46353 2.24536 4.44697 2.25346 4.42754L2.25405 4.42607C2.26527 4.39888 2.27855 4.36606 2.27855 4.32002H0.27989L0.262909 4.32021L0.256663 4.32065L0.253443 4.32114C0.244855 4.32275 0.241732 4.32676 0.240561 4.33657L0.239975 4.34414L0.239878 4.36001C0.225337 4.40361 0.210796 4.45244 0.198206 4.50273C0.176151 4.59097 0.159951 4.68359 0.159951 4.76001C0.159951 4.8 0.149997 4.83994 0.140042 4.87988L0.13975 4.88105L0.137408 4.89014C0.128332 4.92676 0.119939 4.96338 0.119939 5C0.119939 5.05952 0.110082 5.10923 0.100226 5.15884L0.0999328 5.16001C0.0966147 5.17676 0.0932966 5.19351 0.0903689 5.2106C0.0881243 5.22373 0.0860749 5.23711 0.0844159 5.25088L0.0823665 5.26963C0.0809026 5.28574 0.0800243 5.30244 0.0800243 5.32002C0.0800243 5.36582 0.0768038 5.41162 0.0721195 5.45649C0.0680206 5.49556 0.0628483 5.53389 0.0578712 5.5709L0.0572857 5.57441L0.0564074 5.58203C0.0509423 5.62397 0.0456724 5.66411 0.0426471 5.70146C0.0409881 5.72183 0.0400121 5.74141 0.0400121 5.76001V6.32002C0 6.44004 0 6.44004 0.0800243 6.44004Z" fill="#67707B"/>
<path d="M13.1911 14.36C12.9512 14.32 12.7114 14.24 12.5115 14.12C12.3917 14.08 12.2717 14 12.1918 13.84C12.0719 13.68 12.0318 13.48 12.1518 13.28C12.1918 13.2 12.2317 13.12 12.3116 13.08C12.5115 12.92 12.7114 12.84 12.9512 12.76C13.0113 12.74 13.0812 12.73 13.1512 12.72C13.2211 12.71 13.2911 12.7 13.351 12.68C13.4166 12.6581 13.4821 12.6482 13.5477 12.6437L13.5685 12.6424L13.5881 12.6416L13.6312 12.6404C13.6577 12.64 13.6843 12.64 13.7107 12.64H14.2704C14.4702 12.68 14.6701 12.72 14.83 12.76C14.9899 12.8 15.1498 12.84 15.2697 12.92C15.2958 12.9374 15.3237 12.9547 15.3523 12.9725C15.3968 13.0002 15.4428 13.0289 15.4859 13.0601C15.5426 13.1011 15.5939 13.1466 15.6294 13.2C15.7094 13.32 15.7494 13.48 15.7094 13.64C15.6694 13.76 15.5895 13.88 15.4696 13.96C15.2697 14.12 15.0298 14.2 14.79 14.28C14.7441 14.2984 14.7003 14.3146 14.6575 14.3288C14.6033 14.3468 14.551 14.3614 14.4984 14.3726C14.4709 14.3784 14.4434 14.3833 14.4156 14.3873L14.3921 14.3904C14.3402 14.3968 14.2869 14.4 14.2304 14.4C14.1104 14.44 13.9906 14.44 13.8706 14.44C13.6612 14.44 13.4822 14.4095 13.2806 14.3751L13.1911 14.36Z" fill="#67707B"/>
<path d="M11.7921 8.67998C11.5522 8.51997 11.3523 8.4 11.1124 8.27998C11.0598 8.23789 11.0045 8.19858 10.9479 8.1606C10.8969 8.12632 10.8448 8.09311 10.7925 8.05991C10.6827 7.98994 10.5728 7.91997 10.4729 7.83999H10.393C10.3758 7.85713 10.3661 7.87427 10.3573 7.89146C10.3456 7.91431 10.3358 7.93716 10.313 7.96001C10.2331 8.11997 10.1531 8.27998 10.0332 8.43999C9.87334 8.67998 9.71339 8.96001 9.55353 9.2L9.54221 9.21538L9.52426 9.24092C9.51625 9.25259 9.50854 9.2644 9.50084 9.27637L9.48063 9.30845C9.45048 9.35771 9.42208 9.40884 9.39368 9.45996L9.37543 9.49292L9.34586 9.54526C9.33718 9.5604 9.32839 9.57544 9.31941 9.59038L9.30507 9.61406L9.29238 9.63442C9.28243 9.65015 9.27228 9.66562 9.26184 9.68081L9.24769 9.70083L9.23373 9.71997L9.21441 9.75791L9.18464 9.8145L9.15029 9.87783L9.09173 9.98369L9.08705 9.99228C9.05953 10.0418 9.03211 10.0912 9.00654 10.1388C8.9878 10.1737 8.97004 10.2077 8.95394 10.24V10.32C9.03386 10.36 9.07388 10.4 9.1538 10.44C9.20826 10.4763 9.26271 10.5106 9.31707 10.5437C9.38256 10.5836 9.44804 10.6218 9.51352 10.66C9.61102 10.7169 9.70851 10.7738 9.806 10.8361L9.83938 10.8575L9.87334 10.88C9.8869 10.8868 9.90047 10.8939 9.91403 10.9013L9.9439 10.9177L9.98459 10.9412L10.0229 10.9642C10.053 10.9824 10.0831 11.0012 10.1131 11.02L10.1556 11.0466C10.1769 11.0599 10.1983 11.073 10.2197 11.0858C10.2642 11.1125 10.3086 11.1378 10.353 11.16H10.393C10.393 11.1406 10.4024 11.1212 10.412 11.1019L10.4132 11.0995C10.4231 11.0796 10.4329 11.0598 10.4329 11.04C10.5929 10.72 10.7927 10.4 10.9526 10.08L11.4323 9.23999C11.5122 9.07998 11.5922 8.91997 11.6721 8.8L11.6733 8.79941C11.74 8.76602 11.7787 8.74658 11.7981 8.73237C11.8249 8.71284 11.8151 8.70308 11.7921 8.67998Z" fill="#67707B"/>
<path d="M4.5569 4.56001L4.43696 4.92002C4.35703 5.08003 4.31702 5.23999 4.23709 5.36001C4.23016 5.38765 4.22323 5.41411 4.2165 5.4398C4.18449 5.5627 4.15716 5.66763 4.15716 5.8V6.4C4.15716 6.43999 4.15716 6.43999 4.11715 6.43999H2.39839L2.38414 6.43989C2.37965 6.43979 2.37594 6.43955 2.37282 6.43901L2.36862 6.43804C2.36647 6.4373 2.36472 6.43633 2.36335 6.43496C2.35837 6.42998 2.35837 6.41997 2.35837 6.4V5.72002C2.35837 5.63999 2.39839 5.6 2.39839 5.52002C2.4383 5.36001 2.51823 5.2 2.55824 5.03999L2.67818 4.68003C2.67818 4.6314 2.69291 4.56807 2.71341 4.50791C2.72668 4.46899 2.74239 4.4314 2.75811 4.4C2.78602 4.37207 2.79451 4.36367 2.81061 4.36113C2.81764 4.36001 2.82603 4.36001 2.83803 4.36001H4.59691C4.59691 4.40332 4.59691 4.43491 4.59056 4.46748C4.58773 4.48198 4.58364 4.49673 4.57768 4.51274L4.57466 4.5207L4.56919 4.53369C4.56558 4.54199 4.56148 4.55073 4.5569 4.56001Z" fill="#67707B"/>
<path d="M4.67683 10.56C4.63682 10.52 4.63682 10.48 4.63682 10.4C4.62404 10.3678 4.61018 10.3346 4.59564 10.3007L4.57924 10.2629L4.55719 10.2131C4.53757 10.1691 4.51727 10.1246 4.49697 10.08L4.46018 9.99883L4.42915 9.92949C4.40329 9.87114 4.3787 9.81411 4.35703 9.76001C4.31702 9.6 4.23709 9.43999 4.19718 9.27998C4.17541 9.21465 4.16546 9.13745 4.16097 9.06133C4.1597 9.03984 4.15882 9.01846 4.15824 8.99741C4.15775 8.97788 4.15746 8.95864 4.15736 8.93999L4.15716 8.87998V8.67998C4.15716 8.63999 4.15716 8.63999 4.11715 8.63999H2.39839C2.35837 8.63999 2.35837 8.63999 2.35837 8.67998V9C2.35837 9.09868 2.3736 9.2126 2.39458 9.32295C2.40766 9.3915 2.42298 9.45869 2.4383 9.51997C2.47831 9.64004 2.52828 9.76006 2.57825 9.88008C2.62821 10 2.67818 10.12 2.71809 10.24C2.76045 10.2824 2.79158 10.3248 2.81744 10.3731C2.84047 10.416 2.85921 10.4636 2.87804 10.52C2.87804 10.56 2.91796 10.56 2.95797 10.56H4.67683Z" fill="#67707B"/>
<path d="M6.51554 4.4C6.55555 4.4 6.55555 4.4 6.55555 4.43999V5.76001C6.55555 5.8 6.55555 5.83999 6.51554 5.83999C6.41551 5.88003 6.31548 5.91006 6.21545 5.94004C6.11561 5.97002 6.01578 6 5.91594 6.03999L5.79483 6.07046C5.73276 6.08623 5.67236 6.102 5.61605 6.11777C5.56569 6.13184 5.51855 6.14595 5.4763 6.16001C5.45551 6.16519 5.43472 6.17104 5.41394 6.17744C5.38583 6.18608 5.35772 6.19561 5.32962 6.20566C5.29849 6.21675 5.26735 6.22842 5.23622 6.24009C5.1563 6.27007 5.07647 6.3 4.99664 6.32002C4.98893 6.32388 4.98122 6.32734 4.97351 6.33052C4.96151 6.33545 4.9496 6.3397 4.93769 6.34346L4.91369 6.35049L4.8768 6.35996C4.83678 6.36997 4.79677 6.37998 4.75676 6.4V5.67998C4.83669 5.47998 4.91661 5.23999 4.99664 5.03999C5.03655 4.87998 5.11648 4.72002 5.15649 4.56001C5.15649 4.52002 5.1965 4.47998 5.1965 4.43999L5.1966 4.42495L5.19719 4.41597C5.19768 4.41255 5.19836 4.40986 5.19943 4.40776C5.20002 4.40669 5.2007 4.40576 5.20158 4.40498C5.20402 4.40259 5.20753 4.40132 5.2128 4.40068L5.22373 4.40005L5.23642 4.4H6.51554Z" fill="#67707B"/>
<path d="M6.55555 7.95996C6.51554 8.03999 6.55555 8.03999 6.55555 8.03999V7.95996Z" fill="#67707B"/>
<path d="M6.55555 7.95996V6.27998H6.51554L6.15582 6.4C6.11288 6.41436 6.06467 6.43384 6.01509 6.45474L5.89096 6.50767C5.86558 6.51831 5.8406 6.52856 5.8166 6.53789C5.79561 6.54604 5.77531 6.55352 5.75609 6.55996C5.59624 6.63999 5.43628 6.67998 5.27643 6.71997C5.19641 6.73999 5.11648 6.77002 5.03655 6.80005C4.95663 6.83003 4.8767 6.86001 4.79677 6.87998C4.77852 6.87998 4.76857 6.88833 4.7632 6.89741C4.76027 6.90229 4.75871 6.90747 4.75783 6.91162C4.75676 6.9165 4.75676 6.91997 4.75676 6.91997V7.91997C4.75676 7.93716 4.75676 7.94697 4.75998 7.95254C4.76164 7.95552 4.76418 7.95728 4.76818 7.95835C4.77413 7.95996 4.78311 7.95996 4.79677 7.95996H6.55555Z" fill="#67707B"/>
<path d="M4.71685 9.2V8.88003C4.71685 8.84004 4.71685 8.76001 4.75686 8.76001C4.75686 8.75225 4.75686 8.746 4.75715 8.74097C4.75803 8.72603 4.76145 8.72173 4.77491 8.72051C4.78038 8.72002 4.7875 8.72002 4.79677 8.72002C4.95672 8.72002 5.15659 8.76001 5.31644 8.84004C5.41286 8.91245 5.52392 8.97031 5.64074 9.03115C5.68143 9.05234 5.72291 9.07393 5.76468 9.09658C5.80166 9.1167 5.83885 9.13765 5.87603 9.16001C5.91604 9.18003 5.95351 9.20254 5.98913 9.22695C6.04066 9.26226 6.08829 9.30151 6.13386 9.34277C6.18275 9.38696 6.22931 9.4335 6.27576 9.48003C6.35559 9.55986 6.3955 9.67954 6.43542 9.79927L6.43571 9.8V9.92002C6.43571 9.93784 6.4278 9.96357 6.41551 9.99019C6.40009 10.0233 6.37794 10.0579 6.35578 10.08L6.1159 10.44C6.10732 10.4486 6.10058 10.4572 6.09492 10.4658C6.08731 10.4772 6.08155 10.4887 6.0758 10.5001C6.06584 10.5201 6.05589 10.54 6.03598 10.56C6.03598 10.6 5.99597 10.6 5.95605 10.6H5.31644C5.27643 10.6 5.23652 10.56 5.23652 10.52C5.1968 10.4406 5.15718 10.3218 5.11746 10.2026L5.11658 10.2C5.03665 10.04 4.95672 9.84004 4.8767 9.68003C4.79697 9.52041 4.75705 9.36079 4.71714 9.20117L4.71685 9.2Z" fill="#67707B"/>
<path d="M4.15716 6.91997H2.39839C2.35837 6.91997 2.35837 6.91997 2.35837 6.95996V7.95996C2.35837 7.97964 2.35837 7.98965 2.36316 7.99473C2.36804 8 2.37799 8 2.39839 8H4.15716V6.91997Z" fill="#67707B"/>
<path d="M4.15716 6.91997V6.87998C4.17483 6.89761 4.17688 6.90747 4.17366 6.91299C4.16966 6.91997 4.15716 6.91997 4.15716 6.91997Z" fill="#67707B"/>
</svg>
