<svg width="16" height="16" viewBox="0 0 16 16" fill="none" xmlns="http://www.w3.org/2000/svg">
<path d="M7.98875 0.0018932C8.27044 4.40614 4.45075 8.21339 0.0113485 7.75156C-0.0900592 3.88799 3.45921 -0.0994832 7.98875 0.0018932Z" fill="currentColor"/>
<path d="M0 8.81047C2.53519 8.97943 4.73236 8.22474 6.53516 6.49007C8.34923 4.74414 9.14922 2.55892 9.05908 0.0583012C12.7436 0.508863 15.7407 3.64027 15.9886 7.30108C13.4872 7.09833 11.29 7.83049 9.47598 9.54263C7.66191 11.2548 6.85065 13.4062 6.87318 15.8843C4.0225 15.659 0.461968 13.1021 0 8.81047Z" fill="currentColor"/>
<path d="M7.85352 15.9967C7.57183 11.4573 11.707 7.71764 15.9999 8.29211C16.0337 12.0656 12.6309 16.1319 7.85352 15.9967Z" fill="currentColor"/>
</svg>
