<?xml version="1.0" encoding="UTF-8"?>
<svg width="30px" height="30px" viewBox="0 0 30 30" version="1.1" xmlns="http://www.w3.org/2000/svg" xmlns:xlink="http://www.w3.org/1999/xlink">
    <title>10.数位货币/GPL</title>
    <g id="10.数位货币/GPL" stroke="none" stroke-width="1" fill="none" fill-rule="evenodd">
        <g id="img_gpl">
            <circle id="椭圆形" fill="#3BC117" cx="15" cy="15" r="15"></circle>
            <path d="M11.5699782,7.90675572 C12.8690159,7.48280302 14.2018787,7.24203893 15.5685666,7.18446345 L15.6967927,7.17960244 C17.1083698,7.1320348 18.1064965,6.74343223 18.6911727,6.01379474 L18.4066259,7.42018307 L18.4066259,7.87947338 C18.8429605,7.7408821 19.25798,7.7408821 19.6516843,7.87947338 C19.9164648,7.11030679 20.318946,6.63094931 20.8591277,6.44140093 L20.8591277,7.02086882 C23.6748273,4.48175102 25.3543875,8.12783712 25.3668719,8.94923039 L25.3667394,8.9732472 C25.3524309,9.48732766 25.5635178,9.87371474 26,10.1324084 L25.3667394,10.1324084 C25.5133644,10.806876 25.1895799,11.4794646 24.3953858,12.1501742 C25.5725041,14.8237151 25.2004838,17.4376339 23.2793249,19.9919305 C20.3975866,23.8233755 15.221661,24.6400011 13.7166918,24.8531475 C12.2282607,25.0639516 10.6946181,24.5152474 10.3261481,24.1648807 L10.287981,24.1271982 C9.90673814,23.7559184 8.64653954,22.7817878 7.142907,22.0698979 C6.11603599,21.5837291 5.44346398,20.7397803 5.12519096,19.5380516 C4.54601641,15.2504582 6.1601829,14.0445279 6.23417465,13.4795836 L6.23594154,13.4626577 C6.26455848,13.0907761 6.5668803,12.3470881 7.142907,11.2315936 C7.00343498,10.9279153 6.90887131,10.6350227 6.852386,10.3535796 C6.82530292,10.2186357 6.58552471,10.1640497 6.13305138,10.1898218 L6.22128902,10.1045355 C6.59945211,9.73695876 6.79089292,9.52235777 6.79561143,9.46073256 C6.95218239,7.41587111 9.06679311,6.15310662 9.62749229,6.01379474 C10.0996719,5.89647651 10.7471672,6.52746351 11.5699782,7.90675572 Z M13.4549612,20.4317355 C13.0703121,20.4935416 12.5847128,20.62067 11.9981633,20.8131206 L11.7225143,20.8408867 C10.9997208,20.9103749 10.7524447,20.9004254 10.4888813,20.775639 L10.4733551,20.7681659 C9.99905589,20.5362046 9.69237951,20.4522223 9.55332599,20.5162189 L9.72611464,20.6652412 C9.80258579,20.7319789 9.85699852,20.7809254 9.88935282,20.8120809 L9.89762982,20.8201367 C10.2202701,21.1379622 10.4354295,22.0229855 10.9582718,22.0992915 L11.1881719,22.1334748 C11.7031281,22.2065714 12.3791014,22.2517993 12.7121747,21.6275197 C12.8433825,21.381597 12.9153525,21.1059364 13.0841141,20.8752977 L13.1152924,20.8336761 C13.1931012,20.7319509 13.3063241,20.5979707 13.4549612,20.4317355 Z M18.1308846,14.0166209 C16.8527452,14.833163 13.9105294,19.4984917 13.8438792,16.1788429 L13.4943237,16.5628836 C10.455988,20.3853408 22.0146568,21.8224654 21.0358447,16.2722604 L20.9972553,16.045789 C20.831205,16.6892397 20.6590512,16.9514982 20.480794,16.8325645 C20.1208027,16.5923773 20.5072086,16.2155329 20.1827479,15.5542241 C19.9662968,15.113058 19.6926724,15.152485 19.6093275,14.6757816 C19.5537588,14.3579476 19.6134325,14.1728338 19.8090718,13.9189041 C19.9188606,13.776404 20.1390109,13.5963725 20.4695227,13.3788097 C19.7625236,13.2596557 18.9829776,13.4722595 18.1308846,14.0166209 Z M6.8046515,14.0473683 C6.98914843,14.3182669 7.0770297,14.5456256 7.06829531,14.7294446 C7.04420597,15.2364151 6.82608136,15.7248358 6.82844726,16.2323945 C6.82984502,16.532255 6.97600087,16.7523279 6.91925657,17.0473411 C6.84175714,17.45026 6.67561518,17.407376 6.42083068,16.9186891 C6.45715188,17.3195057 6.53745992,17.6530144 6.66175479,17.9192152 C7.93604265,20.6483416 12.1589359,19.4744125 10.9946212,16.98305 C10.7974623,16.5611759 10.4986908,16.2801569 10.2386091,15.8953167 L10.1532414,16.167759 C10.727118,17.631406 8.82815375,16.3701553 7.8247257,14.4571282 C7.6970488,14.2137132 7.35702406,14.0771266 6.8046515,14.0473683 Z M14.1839417,18.8981405 C15.204502,18.9986778 16.4936539,17.6696509 16.6705496,17.7287546 C16.8474453,17.7878583 17.0860138,18.8792564 15.9090988,19.2648552 C14.7321837,19.6504541 13.1633813,18.7976032 14.1839417,18.8981405 Z M9.45750172,18.5112347 C10.0346362,18.4106974 9.32703058,19.1496159 8.45110404,19.021111 C7.89716975,18.8363661 8.00593556,18.1167021 8.10597141,18.0575984 C8.20600725,17.9984946 8.88036724,18.611772 9.45750172,18.5112347 Z" id="形状" fill="#FFFFFF"></path>
        </g>
    </g>
</svg>