<svg width="54" height="54" viewBox="0 0 54 54" fill="none" xmlns="http://www.w3.org/2000/svg">
    <path d="M0 21.7072C0 19.4188 1.13671 17.2854 2.96775 15.9954C10.2469 10.8634 17.4581 5.78268 24.6013 0.753081C25.5801 0.0642329 26.5383 -0.152044 27.4761 0.104247C27.927 0.226822 28.6003 0.598091 29.4961 1.21805C36.8452 6.30033 43.9649 11.2018 50.8552 15.9224C52.4793 17.0347 53.643 18.7578 53.9159 20.7074C53.9739 21.1257 54.0019 21.8921 53.9999 23.0064C53.9779 31.927 53.9779 40.8288 53.9999 49.7119C54.0019 50.6135 53.9379 51.2583 53.8079 51.6463C53.44 52.7464 52.7267 53.4687 51.668 53.8131C51.2831 53.9387 50.6347 54.001 49.723 54C34.2329 53.9959 18.8228 53.9929 3.49262 53.9909C1.93601 53.9909 0.529367 53.0624 0.149962 51.5095C0.0529867 51.1124 0.00449868 50.5628 0.00449868 49.8608C0.00249919 40.4763 0.000999748 31.0918 0 21.7072ZM27.4491 4.00485C26.7008 3.63105 26.0544 3.88784 25.3991 4.35282C19.8355 8.29748 13.862 12.4989 7.47862 16.9572C6.3599 17.7393 5.58659 18.3688 5.1587 18.846C3.83603 20.3169 3.24618 22.1241 3.38915 24.2676C3.39215 24.3183 3.41564 24.3547 3.45963 24.377C9.99498 27.7817 16.3354 31.0973 22.4808 34.3238C23.7005 34.964 24.5343 35.3586 24.9822 35.5075C26.0779 35.8732 27.2471 35.9188 28.4898 35.6442C28.9947 35.5328 29.5346 35.3261 30.1094 35.0243C36.7288 31.5486 43.4631 28.0249 50.3123 24.453C50.3843 24.4165 50.4583 24.3826 50.5343 24.3512C50.5833 24.3309 50.6093 24.2939 50.6123 24.2403C50.7232 22.116 50.1239 20.3326 48.8142 18.89C48.4343 18.4706 47.6505 17.8542 46.4628 17.0408C40.1904 12.7395 33.9819 8.47071 27.8375 4.23429C27.7135 4.14819 27.5841 4.07171 27.4491 4.00485Z" fill="#3BC116"/>
</svg>
