<svg width="48" height="54" viewBox="0 0 48 54" fill="none" xmlns="http://www.w3.org/2000/svg">
    <path d="M22.5 22.5C24.9853 22.5 27 20.4851 27 18C27 15.5149 24.9853 13.5 22.5 13.5C20.0147 13.5 18 15.5149 18 18C18 20.4851 20.0147 22.5 22.5 22.5Z" fill="#3BC116"/>
    <path fill-rule="evenodd" clip-rule="evenodd" d="M24.2002 0.0343376L46.2951 7.283C46.3486 7.30017 46.379 7.33508 46.3865 7.38773C46.9881 11.5849 47.417 15.5103 47.673 19.1638C47.9254 22.7624 48.0317 25.3944 47.9919 27.0597C47.9248 29.8548 47.742 32.2876 47.0372 34.9265C46.8787 35.5171 46.5935 36.2845 46.2429 36.7996C44.8706 38.8238 43.1328 40.3776 41.1937 41.9416C38.4248 44.1736 35.6411 46.33 32.7137 48.3319C29.8895 50.2651 27.0343 52.1399 24.148 53.9564C24.1029 53.9848 24.0496 54 23.9951 54C23.9405 54 23.8872 53.9848 23.8422 53.9564C21.013 52.1777 18.1752 50.316 15.3286 48.3714C12.2316 46.2562 9.23338 43.9229 6.38248 41.6C5.17798 40.6202 4.2283 39.7595 3.53344 39.0178C3.15804 38.6172 2.79446 38.2017 2.44268 37.7713C1.75901 36.9358 1.28106 36.051 1.00883 35.1171C0.261148 32.5452 0.0485881 29.7964 0.00570333 27.173C-0.0266156 25.2547 0.0784214 22.5672 0.320813 19.1106C0.566935 15.5875 0.992674 11.6811 1.59803 7.39117C1.60549 7.33737 1.63657 7.30189 1.69126 7.28472L23.79 0.0343376C23.9267 -0.0114459 24.0634 -0.0114459 24.2002 0.0343376ZM31.5 18C31.5 22.1935 28.6318 25.7175 24.75 26.7166V30H27.75C28.9926 30 30 31.0074 30 32.25C30 33.4926 28.9926 34.5 27.75 34.5H24.75V37.5H27.75C28.9926 37.5 30 38.5074 30 39.75C30 40.9926 28.9926 42 27.75 42H22.5C21.2574 42 20.25 40.9926 20.25 39.75V26.7166C16.3682 25.7175 13.5 22.1935 13.5 18C13.5 13.0294 17.5294 9 22.5 9C27.4706 9 31.5 13.0294 31.5 18Z" fill="#3BC116"/>
</svg>
