<svg width="36" height="54" viewBox="0 0 36 54" fill="none" xmlns="http://www.w3.org/2000/svg">
    <path d="M35.0498 50.298C34.7449 50.8163 34.3915 51.2756 33.9894 51.6758C32.9159 52.7425 31.6623 53.4403 30.2287 53.7692C29.5041 53.9364 28.4946 54.0128 27.2002 53.9983C24.7902 53.9715 18.3417 53.9682 7.85456 53.9882C5.51747 53.9927 3.59733 53.2453 2.09412 51.746C1.19397 50.8497 0.571588 49.7969 0.226989 48.5874C0.0513755 47.9738 0.00664351 47.2364 0.00664351 46.601C0.00553903 33.8631 0.00333054 21.0817 1.70798e-05 8.25686C-0.00108741 7.08417 0.0513751 6.24702 0.157406 5.74539C0.336332 4.89598 0.688111 4.09561 1.21274 3.34429C1.61367 2.77243 2.09081 2.16881 2.64912 1.7324C4.11257 0.58424 5.8085 0.011274 7.73694 0.0135034C13.7774 0.0235359 20.3468 0.0190767 27.4454 0.000126459C28.5156 -0.0032177 29.3738 0.0597641 30.0199 0.189072C32.135 0.612665 33.773 1.73463 34.9338 3.55497C35.6876 4.73713 35.9941 6.12663 35.9957 7.53786C36.0024 20.5199 36.0013 33.5404 35.9924 46.5993C35.9924 47.6282 35.7991 48.6203 35.4126 49.5756C35.3187 49.8064 35.1978 50.0471 35.0498 50.298ZM22.6458 4.93443C22.6458 4.68299 22.5469 4.44185 22.3707 4.26405C22.1945 4.08625 21.9556 3.98636 21.7065 3.98636H14.2876C14.1643 3.98636 14.0421 4.01089 13.9282 4.05853C13.8142 4.10618 13.7106 4.17601 13.6234 4.26405C13.5362 4.35208 13.467 4.4566 13.4198 4.57162C13.3726 4.68665 13.3483 4.80993 13.3483 4.93443V5.04479C13.3483 5.16929 13.3726 5.29258 13.4198 5.4076C13.467 5.52263 13.5362 5.62714 13.6234 5.71518C13.7106 5.80321 13.8142 5.87305 13.9282 5.92069C14.0421 5.96834 14.1643 5.99286 14.2876 5.99286H21.7065C21.9556 5.99286 22.1945 5.89297 22.3707 5.71518C22.5469 5.53738 22.6458 5.29623 22.6458 5.04479V4.93443ZM31.236 10.0911C31.236 10.0792 31.2313 10.0677 31.2229 10.0592C31.2145 10.0507 31.2031 10.046 31.1912 10.046H4.72997C4.71811 10.046 4.70673 10.0507 4.69834 10.0592C4.68996 10.0677 4.68524 10.0792 4.68524 10.0911V43.9441C4.68524 43.956 4.68996 43.9675 4.69834 43.976C4.70673 43.9844 4.71811 43.9892 4.72997 43.9892H31.1912C31.2031 43.9892 31.2145 43.9844 31.2229 43.976C31.2313 43.9675 31.236 43.956 31.236 43.9441V10.0911ZM21.0073 48.7112C21.0073 47.8983 20.6874 47.1187 20.1179 46.5439C19.5484 45.9691 18.7759 45.6462 17.9705 45.6462C17.1651 45.6462 16.3927 45.9691 15.8232 46.5439C15.2537 47.1187 14.9338 47.8983 14.9338 48.7112C14.9338 49.524 15.2537 50.3036 15.8232 50.8784C16.3927 51.4532 17.1651 51.7761 17.9705 51.7761C18.7759 51.7761 19.5484 51.4532 20.1179 50.8784C20.6874 50.3036 21.0073 49.524 21.0073 48.7112Z" fill="#3BC116"/>
</svg>
