<svg width="16" height="18" viewBox="0 0 16 18" fill="none" xmlns="http://www.w3.org/2000/svg">
    <path d="M6.98353 17.8281C6.24543 17.601 5.52032 17.2328 4.8973 16.8081C4.29531 16.3975 3.70879 15.95 3.1829 15.4323C2.61989 14.8779 2.16866 14.3771 1.8292 13.9298C1.30332 13.2358 0.859095 12.4561 0.496542 11.5907C0.289073 11.0949 0.143681 10.5436 0.0603636 9.93666C0.0170552 9.61903 -0.00294928 9.21174 0.000350409 8.71478C0.0114869 7.16604 0.0228297 5.56662 0.0343787 3.91652C0.0374721 3.49671 0.290517 3.05782 0.664826 2.86145C0.810425 2.78512 1.0115 2.73198 1.26805 2.70202C1.62442 2.66017 1.99873 2.61461 2.34767 2.5309C2.72631 2.4398 3.09505 2.35793 3.46812 2.22928C4.11692 2.00521 4.65642 1.80146 5.08662 1.61803C5.75419 1.33364 6.43413 0.917526 6.98724 0.415847C7.37578 0.0625178 7.83176 -0.0882936 8.35641 0.0520532C8.54573 0.102529 8.75959 0.219074 8.99799 0.401689C9.28135 0.618981 9.57028 0.833194 9.88025 1.01909C10.336 1.29158 10.8019 1.53965 11.2779 1.7633C11.5674 1.89913 11.8469 2.00132 12.1162 2.06985C12.4165 2.14618 12.7145 2.22558 13.0102 2.30807C13.494 2.44349 14.01 2.53275 14.5192 2.61338C14.9218 2.6774 15.2177 2.76686 15.407 2.88177C15.69 3.05371 15.8826 3.31737 15.9849 3.67276C15.9993 3.72159 16.0016 3.76817 15.9917 3.81249C15.9781 3.87158 15.9721 3.92534 15.9737 3.97376C16.0187 5.49131 16.0059 7.03636 15.9354 8.6089C15.9148 9.06565 15.8735 9.4713 15.8116 9.82586C15.725 10.3171 15.611 10.7839 15.4695 11.2262C15.2177 12.0105 14.8589 12.8482 14.432 13.5494C13.909 14.407 13.321 15.1447 12.6681 15.7623C11.9376 16.4538 11.1218 17.0141 10.2205 17.4434C9.55729 17.7591 8.78578 17.99 8.02355 17.9998C7.71379 18.0035 7.36712 17.9463 6.98353 17.8281ZM7.08809 10.8969C7.06747 10.9166 7.04726 10.9162 7.02746 10.8957C6.21656 10.0466 5.39576 9.18917 4.56506 8.32329C4.28294 8.02843 3.84985 7.92871 3.504 8.19956C3.25405 8.39592 3.13712 8.71786 3.23302 9.0201C3.27756 9.15962 3.34356 9.27432 3.431 9.36419C4.42214 10.3782 5.41473 11.4021 6.40877 12.4358C6.64758 12.6839 6.92723 12.8138 7.25761 12.6956C7.3599 12.6591 7.52509 12.5343 7.75318 12.3213C9.43066 10.7521 11.1024 9.18588 12.7683 7.62278C13.1358 7.27807 13.5089 6.99307 13.2713 6.44399C13.1197 6.09436 12.6316 5.90661 12.2919 6.06665C12.181 6.11877 12.075 6.19243 11.9739 6.28764C10.2704 7.89383 8.64183 9.43026 7.08809 10.8969Z" fill="#3BC116"/>
</svg>
