<svg width="18" height="18" viewBox="0 0 18 18" fill="none" xmlns="http://www.w3.org/2000/svg">
<path d="M0.470135 13.1521C0.00179836 13.4448 -0.140575 14.0618 0.152135 14.5301C0.444846 14.9985 1.0618 15.1408 1.53013 14.8481L9.53014 9.84813C9.82252 9.66539 10.0001 9.34492 10.0001 9.00013C10.0001 8.65534 9.82252 8.33487 9.53014 8.15214L1.53013 3.15214C1.0618 2.85943 0.444847 3.0018 0.152136 3.47014C-0.140574 3.93847 0.00179914 4.55542 0.470136 4.84813L7.11334 9.00013L0.470135 13.1521Z" fill="#3BC116"/>
<path d="M8.47014 13.1521C8.0018 13.4448 7.85943 14.0618 8.15214 14.5301C8.44485 14.9985 9.0618 15.1408 9.53013 14.8481L17.5301 9.84813C17.8225 9.66539 18.0001 9.34492 18.0001 9.00013C18.0001 8.65534 17.8225 8.33487 17.5301 8.15214L9.53013 3.15214C9.0618 2.85943 8.44485 3.0018 8.15214 3.47014C7.85943 3.93847 8.0018 4.55542 8.47014 4.84813L15.1133 9.00013L8.47014 13.1521Z" fill="#3BC116"/>
</svg>
