<svg width="18" height="18" viewBox="0 0 18 18" fill="none" xmlns="http://www.w3.org/2000/svg">
<path fill-rule="evenodd" clip-rule="evenodd" d="M17.4856 9.00106C17.4856 4.32262 13.6774 0.514404 8.99893 0.514404C4.32237 0.514404 0.51416 4.32262 0.51416 9.00106C0.51416 13.6795 4.32048 17.4877 8.99893 17.4877C13.6774 17.4877 17.4856 13.6795 17.4856 9.00106ZM8.37845 4.4473C8.37845 4.11623 8.6679 3.82678 8.99896 3.82678C9.33003 3.82678 9.57975 4.07461 9.6611 4.40568V8.71144L12.601 10.0773C12.8904 10.2438 13.0569 10.5749 12.932 10.8643L12.8904 10.9059C12.7239 11.1954 12.3929 11.3619 12.1034 11.237L12.0618 11.1954L8.75113 9.62329C8.54493 9.54005 8.42007 9.33195 8.37845 9.12574V4.4473Z" fill="white"/>
</svg>
