<svg width="18" height="18" viewBox="0 0 18 18" fill="none" xmlns="http://www.w3.org/2000/svg">
<path d="M3.27273 9L4.90909 5.8V5H2.45455V5.8H4.09091L2.45455 9M6.54545 9L8.18182 5.8V5H5.72727V5.8H7.36364L5.72727 9M9.81818 9L11.4545 5.8V5H9V5.8H10.6364L9 9M16.3636 1C15.4636 1 14.7273 1.72 14.7273 2.6C14.7273 3.16 15.0545 3.72 15.5455 3.96V13H13.0909V11.4C13.5818 11.4 13.9091 11.08 13.9091 10.6V3.4C13.9091 2.92 13.5818 2.6 13.0909 2.6H9.98182C9.32727 1.64 8.18182 1 6.95455 1C5.72727 1 4.58182 1.64 3.92727 2.6H0.818182C0.327273 2.6 -1.91761e-08 2.92 0 3.4V10.6C0 11.08 0.327273 11.4 0.818182 11.4V17H13.0909V14.6H15.5455C16.4455 14.6 17.1818 13.88 17.1818 13V3.96C17.6727 3.72 18 3.16 18 2.6C18 1.72 17.2636 1 16.3636 1ZM9.81818 14.6H4.09091V13H9.81818V14.6ZM12.2727 9.8H1.63636V4.2H12.2727V9.8Z" fill="#67707B"/>
</svg>
