<svg width="20" height="20" viewBox="0 0 20 20" fill="none" xmlns="http://www.w3.org/2000/svg">
<g id="dc_dzjx_icon">
<path id="&#229;&#189;&#162;&#231;&#138;&#182;" fill-rule="evenodd" clip-rule="evenodd" d="M9.87779 0C4.67059 0 0.449219 4.22137 0.449219 9.42857C0.449219 14.6358 4.67059 18.8571 9.87779 18.8571C15.085 18.8571 19.3064 14.6358 19.3064 9.42857C19.3064 4.22137 15.085 0 9.87779 0ZM9.0352 14.0797C9.0352 13.6141 9.41226 13.2371 9.87778 13.2371C10.3433 13.2371 10.7204 13.6141 10.7204 14.0797C10.7204 14.5452 10.3433 14.9223 9.87778 14.9223C9.41226 14.9223 9.0352 14.5452 9.0352 14.0797ZM10.5076 12.0174V11.6425C10.5308 11.3476 10.6193 11.1643 10.7836 11.0147C10.9394 10.8715 11.1375 10.7683 11.5819 10.5766L11.6788 10.5366C11.7031 10.5258 11.7248 10.5167 11.7451 10.5083C11.7564 10.5035 11.7672 10.499 11.7778 10.4944C12.0601 10.3723 12.2581 10.2775 12.454 10.1595C12.7152 10.0036 12.9385 9.8288 13.1281 9.61605C13.5768 9.11682 13.8064 8.45538 13.8127 7.59384H13.8106V7.58962C13.8106 5.43259 12.0643 3.76637 9.87568 3.76637C7.68705 3.76637 5.94079 5.43259 5.94079 7.58962C5.94079 7.9393 6.22306 8.22156 6.57273 8.22156C6.9224 8.22156 7.20467 7.9393 7.20467 7.58962C7.20467 6.14458 8.37376 5.03026 9.87779 5.03026C11.3818 5.03026 12.5488 6.14248 12.5509 7.58541C12.5467 8.15205 12.4203 8.51436 12.1886 8.77135C12.0011 8.982 11.7547 9.12945 11.2765 9.33589C11.247 9.34853 11.2175 9.36117 11.1817 9.37591L11.0848 9.41804C10.8236 9.52968 10.674 9.59709 10.5139 9.68346C10.2907 9.80353 10.1011 9.92991 9.93466 10.0816C9.52179 10.4544 9.28797 10.9473 9.24584 11.5793C9.24374 11.594 9.24374 11.6067 9.24374 11.6214V12.0174C9.24374 12.3671 9.526 12.6494 9.87568 12.6494C10.2254 12.6494 10.5076 12.3671 10.5076 12.0174Z" fill="currentColor"/>
</g>
</svg>
