<svg width="44" height="44" viewBox="0 0 44 44" fill="none" xmlns="http://www.w3.org/2000/svg">
<g id="&#230;&#182;&#136;&#230;&#129;&#175;">
<path id="Subtract" fill-rule="evenodd" clip-rule="evenodd" d="M31 22C31 26.9706 26.9706 31 22 31H15C13.8954 31 13 30.1046 13 29V22C13 17.0294 17.0294 13 22 13C26.9706 13 31 17.0294 31 22ZM18 20C18 19.4477 18.4477 19 19 19C19.5523 19 20 19.4477 20 20V22C20 22.5523 19.5523 23 19 23C18.4477 23 18 22.5523 18 22V20ZM24 20C24 19.4477 24.4477 19 25 19C25.5523 19 26 19.4477 26 20V22C26 22.5523 25.5523 23 25 23C24.4477 23 24 22.5523 24 22V20Z" fill="#9FA5AC"/>
</g>
</svg>
