<svg xmlns="http://www.w3.org/2000/svg" width="12" height="12" viewBox="0 0 12 12" fill="none">
  <path d="M1.2 6C1.2 6.15913 1.13679 6.31174 1.02426 6.42427C0.911742 6.53679 0.75913 6.6 0.6 6.6C0.44087 6.6 0.288258 6.53679 0.175736 6.42427C0.063214 6.31174 0 6.15913 0 6C0 2.6862 2.6862 2.04525e-06 6 2.04525e-06C6.93154 -0.000767621 7.85043 0.215703 8.68367 0.632219C9.51691 1.04873 10.2415 1.65382 10.8 2.3994V1.8C10.8 1.64087 10.8632 1.48826 10.9757 1.37574C11.0883 1.26322 11.2409 1.2 11.4 1.2C11.5591 1.2 11.7117 1.26322 11.8243 1.37574C11.9368 1.48826 12 1.64087 12 1.8V4.2C12 4.35913 11.9368 4.51174 11.8243 4.62427C11.7117 4.73679 11.5591 4.8 11.4 4.8H9C8.84087 4.8 8.68826 4.73679 8.57574 4.62427C8.46321 4.51174 8.4 4.35913 8.4 4.2C8.4 4.04087 8.46321 3.88826 8.57574 3.77574C8.68826 3.66322 8.84087 3.6 9 3.6H10.158C9.62992 2.68439 8.81438 1.96868 7.83794 1.56395C6.86151 1.15923 5.77879 1.08811 4.75781 1.36165C3.73683 1.63519 2.83468 2.23808 2.19138 3.07676C1.54808 3.91544 1.19959 4.94301 1.2 6ZM10.8 6C10.8 5.84087 10.8632 5.68826 10.9757 5.57574C11.0883 5.46322 11.2409 5.4 11.4 5.4C11.5591 5.4 11.7117 5.46322 11.8243 5.57574C11.9368 5.68826 12 5.84087 12 6C12 9.3138 9.3138 12 6 12C5.06846 12.0008 4.14957 11.7843 3.31633 11.3678C2.48309 10.9513 1.75846 10.3462 1.2 9.6006V10.2C1.2 10.3591 1.13679 10.5117 1.02426 10.6243C0.911742 10.7368 0.75913 10.8 0.6 10.8C0.44087 10.8 0.288258 10.7368 0.175736 10.6243C0.063214 10.5117 0 10.3591 0 10.2V7.8C0 7.64087 0.063214 7.48826 0.175736 7.37574C0.288258 7.26322 0.44087 7.2 0.6 7.2H3C3.15913 7.2 3.31174 7.26322 3.42426 7.37574C3.53679 7.48826 3.6 7.64087 3.6 7.8C3.6 7.95913 3.53679 8.11174 3.42426 8.22427C3.31174 8.33679 3.15913 8.4 3 8.4H1.842C2.37008 9.31562 3.18562 10.0313 4.16206 10.4361C5.13849 10.8408 6.22121 10.9119 7.24219 10.6384C8.26317 10.3648 9.16532 9.76192 9.80862 8.92324C10.4519 8.08456 10.8004 7.05699 10.8 6Z" fill="currentColor"/>
</svg>