<svg xmlns="http://www.w3.org/2000/svg" width="16" height="16" viewBox="0 0 16 16" fill="none">
  <path d="M15.1585 6.16659C15.0556 5.79464 14.6953 5.52896 14.3349 5.47582L10.5772 4.89132L8.92993 1.38431C8.7755 1.01235 8.41517 0.799805 8.00336 0.799805C7.59155 0.799805 7.23122 1.01235 7.07679 1.38431L5.42955 4.89132L1.67179 5.47582C1.31146 5.52896 0.951126 5.79464 0.848174 6.16659C0.745221 6.53855 0.796698 6.96364 1.10555 7.22933L3.83379 10.0456L3.21608 13.9777C3.1646 14.3496 3.31903 14.7747 3.62789 14.9873C3.78232 15.0935 4.0397 15.1998 4.2456 15.1998C4.40003 15.1998 4.60593 15.1467 4.76036 15.0935L8.05484 13.2869L11.3493 15.0935C11.5037 15.1998 11.6582 15.1998 11.8641 15.1998C12.07 15.1998 12.2759 15.1467 12.4818 14.9873C12.7906 14.7747 12.9965 14.3496 12.8936 13.9777L12.2759 10.0456L15.0041 7.22933C15.1585 6.96364 15.2615 6.53855 15.1585 6.16659Z" fill="currentColor"/>
</svg>