<svg width="18" height="18" viewBox="0 0 18 18" fill="none" xmlns="http://www.w3.org/2000/svg">
<rect width="18" height="18" fill="#1E1E1E"/>
<g id="&#229;&#189;&#169;&#231;&#165;&#168;-&#232;&#180;&#173;&#228;&#185;&#176;&#229;&#189;&#169;&#231;&#165;&#168;-&#229;&#177;&#149;&#229;&#188;&#128;-&#231;&#172;&#172;&#228;&#184;&#128;&#231;&#144;&#131;" clip-path="url(#clip0_13913_63321)">
<rect width="1440" height="1080" transform="translate(-288 -796)" fill="#1D1F23"/>
<g id="Frame 1948758567">
<rect x="-44" y="-708" width="1176" height="991" rx="12" fill="#24262B"/>
<g id="Frame 1948758565">
<g id="Frame 1948758566">
<g id="Frame 1948757636">
<g id="&#228;&#184;&#139;&#230;&#139;&#137;&#232;&#143;&#156;&#229;&#141;&#149;">
<path d="M-24 -365H734V87C734 91.4183 730.418 95 726 95H-16C-20.4183 95 -24 91.4183 -24 87V-365Z" fill="#212328"/>
<g id="Frame 1948758628">
<g id="Frame 1948757636_2">
<g id="&#233;&#128;&#137;&#230;&#139;&#169;&#231;&#144;&#131;">
<path d="M-11.75 -33C-11.75 -37.2802 -8.28021 -40.75 -4 -40.75H714C718.28 -40.75 721.75 -37.2802 721.75 -33V75C721.75 79.2802 718.28 82.75 714 82.75H-4C-8.2802 82.75 -11.75 79.2802 -11.75 75V-33Z" fill="#24262B"/>
<path d="M-11.75 -33C-11.75 -37.2802 -8.28021 -40.75 -4 -40.75H714C718.28 -40.75 721.75 -37.2802 721.75 -33V75C721.75 79.2802 718.28 82.75 714 82.75H-4C-8.2802 82.75 -11.75 79.2802 -11.75 75V-33Z" stroke="#373A40" stroke-width="0.5"/>
<g id="Frame 1948758657">
<g id="Frame 1948758658">
<g id="Frame 1948758656">
<g id="&#229;&#189;&#169;&#231;&#165;&#168;&#230;&#138;&#149;&#230;&#179;&#168;&#233;&#128;&#154;&#231;&#148;&#168;&#229;&#155;&#190;&#230;&#160;&#135;" clip-path="url(#clip1_13913_63321)">
<g id="delete_2_fill 1" clip-path="url(#clip2_13913_63321)">
<g id="Group">
<path id="Vector" fill-rule="evenodd" clip-rule="evenodd" d="M10.9 0.666016C11.2498 0.666106 11.5907 0.776254 11.8744 0.980855C12.1581 1.18546 12.3703 1.47414 12.4808 1.80602L12.9333 3.16602H15.6667C15.8877 3.16602 16.0996 3.25381 16.2559 3.41009C16.4122 3.56637 16.5 3.77834 16.5 3.99935C16.5 4.22036 16.4122 4.43232 16.2559 4.5886C16.0996 4.74488 15.8877 4.83268 15.6667 4.83268L15.6642 4.89185L14.9417 15.011C14.8966 15.6415 14.6143 16.2315 14.1517 16.6623C13.6891 17.0931 13.0805 17.3326 12.4483 17.3327H5.55167C4.91955 17.3326 4.31092 17.0931 3.84831 16.6623C3.38569 16.2315 3.10342 15.6415 3.05833 15.011L2.33583 4.89102C2.33433 4.87161 2.33349 4.85215 2.33333 4.83268C2.11232 4.83268 1.90036 4.74488 1.74408 4.5886C1.5878 4.43232 1.5 4.22036 1.5 3.99935C1.5 3.77834 1.5878 3.56637 1.74408 3.41009C1.90036 3.25381 2.11232 3.16602 2.33333 3.16602H5.06667L5.51917 1.80602C5.62975 1.47401 5.84203 1.18523 6.12592 0.980612C6.4098 0.775998 6.75089 0.665931 7.10083 0.666016H10.9ZM6.5 7.33268C6.29589 7.33271 6.09889 7.40765 5.94636 7.54328C5.79383 7.67891 5.69638 7.86581 5.6725 8.06852L5.66667 8.16602V13.166C5.6669 13.3784 5.74823 13.5827 5.89404 13.7372C6.03985 13.8916 6.23913 13.9845 6.45116 13.997C6.6632 14.0094 6.87198 13.9405 7.03486 13.8041C7.19774 13.6678 7.30241 13.4744 7.3275 13.2635L7.33333 13.166V8.16602C7.33333 7.945 7.24554 7.73304 7.08926 7.57676C6.93297 7.42048 6.72101 7.33268 6.5 7.33268ZM11.5 7.33268C11.279 7.33268 11.067 7.42048 10.9107 7.57676C10.7545 7.73304 10.6667 7.945 10.6667 8.16602V13.166C10.6667 13.387 10.7545 13.599 10.9107 13.7553C11.067 13.9116 11.279 13.9993 11.5 13.9993C11.721 13.9993 11.933 13.9116 12.0893 13.7553C12.2455 13.599 12.3333 13.387 12.3333 13.166V8.16602C12.3333 7.945 12.2455 7.73304 12.0893 7.57676C11.933 7.42048 11.721 7.33268 11.5 7.33268ZM10.9 2.33268H7.1L6.8225 3.16602H11.1775L10.9 2.33268Z" fill="#67707B"/>
</g>
</g>
</g>
</g>
</g>
</g>
</g>
</g>
</g>
</g>
</g>
</g>
</g>
</g>
</g>
<defs>
<clipPath id="clip0_13913_63321">
<rect width="1440" height="1080" fill="white" transform="translate(-288 -796)"/>
</clipPath>
<clipPath id="clip1_13913_63321">
<rect width="18" height="18" fill="white"/>
</clipPath>
<clipPath id="clip2_13913_63321">
<rect width="20" height="20" fill="white" transform="translate(-1 -1)"/>
</clipPath>
</defs>
</svg>
