<svg width="18" height="18" viewBox="0 0 18 18" fill="none" xmlns="http://www.w3.org/2000/svg">
<g id="flash_fill 1" clip-path="url(#clip0_15721_69065)">
<g id="Group">
<path id="Vector" fill-rule="evenodd" clip-rule="evenodd" d="M10.3692 0.296717C10.8862 -0.32331 11.8931 0.100403 11.8113 0.903657L11.2338 6.54607H15.9053C16.0607 6.54613 16.2129 6.59047 16.3441 6.67389C16.4752 6.75732 16.5799 6.87639 16.6458 7.01715C16.7117 7.1579 16.7361 7.31453 16.7163 7.46868C16.6964 7.62283 16.633 7.76813 16.5335 7.88755L8.35374 17.7033C7.83678 18.3233 6.82985 17.8996 6.91165 17.0963L7.48914 11.4539H2.81767C2.66224 11.4539 2.51005 11.4095 2.37891 11.3261C2.24777 11.2427 2.14312 11.1236 2.0772 10.9829C2.01129 10.8421 1.98684 10.6855 2.00672 10.5313C2.0266 10.3772 2.08999 10.2319 2.18946 10.1125L10.3692 0.296717Z" fill="#67707B"/>
</g>
</g>
<defs>
<clipPath id="clip0_15721_69065">
<rect width="20" height="20" fill="white" transform="translate(-1 -1)"/>
</clipPath>
</defs>
</svg>
