<svg width="18" height="18" viewBox="0 0 18 18" fill="none" xmlns="http://www.w3.org/2000/svg">
<path fill-rule="evenodd" clip-rule="evenodd" d="M9.48085 1.74481C9.64802 1.66333 9.81718 1.58089 9.98912 1.49758C9.91599 1.45263 9.84646 1.40945 9.77928 1.36772C9.62945 1.27466 9.49126 1.18884 9.35068 1.1068C9.1408 0.984629 8.9213 0.96622 8.69051 1.05701C8.15326 1.26788 7.61559 1.47708 7.07499 1.67916C6.9366 1.73062 6.93702 1.81849 6.9759 1.92559C7.07374 2.19546 7.28446 2.3511 7.54117 2.4444C7.54557 2.44598 7.55003 2.44759 7.55454 2.44922C7.6657 2.48931 7.80815 2.54067 7.89655 2.50047C8.42199 2.26088 8.94109 2.00788 9.48085 1.74481ZM8.77323 2.79558L8.30964 3.01774L8.31006 3.01816C8.31652 3.04417 8.32225 3.06801 8.32762 3.09035L8.32762 3.09036C8.33891 3.13737 8.34861 3.17775 8.36023 3.21773C8.5722 3.95159 8.65122 4.70177 8.50196 5.4507C8.10937 7.423 7.03361 8.81709 5.05268 9.41078C4.96184 9.438 4.86474 9.45535 4.76807 9.47262C4.58533 9.50527 4.40412 9.53764 4.26958 9.63588C4.11883 9.74597 4.0173 9.92376 3.91579 10.1015C3.87147 10.1792 3.82715 10.2568 3.77874 10.3287L3.77135 10.3397C3.57944 10.6249 3.56969 10.6394 3.80048 10.9166C4.57647 11.8483 5.50756 12.5897 6.585 13.1466C6.73384 13.2236 6.81788 13.2056 6.91027 13.0445C7.36725 12.2479 8.02324 11.7149 8.93553 11.4923C9.39752 11.3797 9.87415 11.2425 10.2822 11.0078C11.437 10.3434 12.5077 9.55387 13.4794 8.63592C14.0363 8.10958 14.3181 7.46024 14.3168 6.69876C14.3156 5.65738 14.0777 4.66746 13.5818 3.74993C13.1713 2.99055 12.5859 2.39308 11.8154 1.99435C11.3989 1.77888 10.9704 1.73035 10.536 1.96674C10.4379 2.01994 10.3344 2.06345 10.231 2.10698C10.1611 2.13636 10.0912 2.16574 10.023 2.19811C9.60655 2.39609 9.19077 2.59541 8.77323 2.79558ZM11.2054 13.8978C11.003 13.948 10.9206 14.0099 10.9232 14.3271V14.3266C10.9347 14.3531 10.9474 14.387 10.9617 14.4255L10.9618 14.4256C11.0004 14.529 11.0516 14.6664 11.1293 14.7865C11.395 15.198 11.6682 15.6046 11.9414 16.0111L11.9415 16.0113C12.0835 16.2225 12.2255 16.4338 12.3664 16.6458L12.3714 16.6533C12.6327 17.0467 12.6345 17.0492 13.1052 16.9337C15.2375 16.4107 16.7673 15.0735 17.9806 13.312C18.0065 13.2748 18.0065 13.1865 17.9802 13.1505C17.8662 12.9955 17.7528 12.8401 17.6394 12.6847L17.6394 12.6846C17.2363 12.1322 16.8332 11.5796 16.4061 11.0464C16.1364 10.7096 15.7384 10.5979 15.3098 10.7197C15.2128 10.7473 15.1212 10.8389 15.056 10.9234C15.0004 10.9954 14.9523 11.0735 14.9042 11.1515L14.9042 11.1515L14.9042 11.1515L14.9042 11.1515L14.9042 11.1515C14.8461 11.2458 14.7881 11.3399 14.7169 11.423C13.9435 12.3259 13.0249 13.0543 11.9868 13.6263C11.7481 13.7576 11.4725 13.8317 11.2054 13.8978ZM0 13.231C0.170909 13.0085 0.337867 12.7886 0.502922 12.5712L0.502952 12.5711C0.890652 12.0604 1.26785 11.5635 1.66109 11.0796C1.9617 10.7094 2.38064 10.5939 2.8489 10.7269C2.90953 10.7441 2.98478 10.7876 3.00987 10.8399C3.32219 11.4859 3.84063 11.952 4.37203 12.403C4.9883 12.9256 5.62339 13.426 6.37387 13.7481C6.54403 13.8214 6.72925 13.8778 6.91196 13.8971C7.10219 13.9168 7.19417 14.0214 7.17368 14.1766C7.14818 14.3707 7.09968 14.5803 6.99683 14.7431C6.71977 15.1816 6.42992 15.6119 6.14001 16.0424L6.13996 16.0424L6.13995 16.0424L6.13994 16.0425L6.13993 16.0425C6.01381 16.2297 5.88769 16.417 5.76261 16.6049C5.56611 16.9003 5.29295 17.0056 4.94314 16.9208C3.49904 16.5706 2.30162 15.7974 1.28481 14.7381C0.984493 14.4253 0.7087 14.0892 0.420295 13.7377C0.284299 13.5719 0.145498 13.4028 0 13.231ZM7.49476 3.10555C6.89604 2.91643 6.44492 2.57126 6.31113 1.89932V1.89974C5.65054 1.90476 4.98785 2.27253 4.77045 2.82313C4.21271 4.23521 3.7783 5.68619 3.37233 7.14555C3.24231 7.61331 3.31965 8.09405 3.58598 8.51244C3.74486 8.7618 3.95976 9.00154 4.298 8.91493C4.36499 8.89777 4.43237 8.88094 4.4999 8.86407C4.90481 8.76293 5.3152 8.66041 5.68106 8.47646C7.47218 7.57566 8.34725 5.34311 7.736 3.34738C7.69419 3.21056 7.6298 3.14822 7.49476 3.10555ZM13.6395 9.36679C13.7026 9.45845 13.7655 9.54947 13.8281 9.64009L13.8281 9.64016C14.0381 9.94409 14.2449 10.2434 14.4452 10.5467C14.4715 10.5864 14.4573 10.6864 14.4239 10.7274C14.3728 10.7899 14.3223 10.8531 14.2717 10.9163L14.2717 10.9163C14.0918 11.1413 13.9116 11.3667 13.7043 11.5633C13.0671 12.1688 12.3831 12.7181 11.5892 13.1114C11.1999 13.3043 11.1974 13.3005 10.9691 12.9294C10.7358 12.5499 10.503 12.17 10.2705 11.7901C10.2685 11.787 10.2692 11.7818 10.2702 11.7754C10.2706 11.7725 10.2711 11.7693 10.2713 11.7659C11.4667 11.0826 12.5859 10.2877 13.6391 9.36679H13.6395Z" fill="currentColor"/>
</svg>
