<svg width="18" height="18" viewBox="0 0 18 18" fill="none" xmlns="http://www.w3.org/2000/svg">
<path fill-rule="evenodd" clip-rule="evenodd" d="M12.9027 2.57143H9.85335C9.64096 2.57143 9.48167 2.53853 9.37547 2.47273C9.26928 2.40694 9.2086 2.32469 9.19343 2.226C9.17826 2.1273 9.2086 1.95548 9.28445 1.84362C9.3603 1.73177 9.48167 1.62978 9.64855 1.53767C9.75474 1.47187 9.92541 1.38305 10.1606 1.27119C10.3957 1.15934 10.6536 1.03432 10.9343 0.896151C11.2149 0.757978 11.4994 0.619805 11.7876 0.481632C12.0759 0.343459 12.3338 0.215155 12.5613 0.0967211C12.7585 0.00460576 12.9254 -0.0217129 13.0619 0.0177651C13.1985 0.0572431 13.3085 0.136199 13.3919 0.254633C13.4753 0.373067 13.536 0.51453 13.574 0.679022C13.6119 0.843513 13.646 0.998136 13.6764 1.14289C13.6915 1.28764 13.6991 1.44226 13.6991 1.60676C13.6991 1.77125 13.6764 1.98584 13.6308 2.11743C13.5853 2.24902 13.5057 2.35759 13.3919 2.44313C13.2781 2.52866 13.115 2.57143 12.9027 2.57143ZM5.00632 2.59117H8.07838C8.2756 2.59117 8.42731 2.55827 8.5335 2.49247C8.6397 2.42668 8.70038 2.34443 8.71555 2.24573C8.73072 2.14704 8.70038 1.97522 8.62453 1.86336C8.54867 1.75151 8.43489 1.64952 8.28319 1.55741C8.16182 1.49161 7.98357 1.40279 7.74842 1.29093C7.51328 1.17908 7.25917 1.05406 6.98609 0.91589C6.71302 0.777717 6.43236 0.639544 6.14412 0.501371C5.85588 0.363198 5.59798 0.234894 5.37042 0.11646C5.1732 0.0111854 5.00632 -0.0217129 4.86979 0.0177651C4.73325 0.0572431 4.62326 0.136199 4.53982 0.254633C4.45638 0.373067 4.39191 0.51782 4.3464 0.688891C4.30089 0.859963 4.27054 1.01787 4.25537 1.16263C4.22503 1.30738 4.20986 1.462 4.20986 1.62649C4.20986 1.79099 4.23262 2.00558 4.27813 2.13717C4.32364 2.26876 4.40329 2.37733 4.51707 2.46286C4.63085 2.5484 4.79393 2.59117 5.00632 2.59117ZM7.7598 3.80765H1.16056C0.675095 3.80765 0.360303 3.87674 0.216182 4.01491C0.0720607 4.15309 0 4.37351 0 4.67617V6.4132C0 6.74219 0.079646 6.98563 0.238938 7.14355C0.39823 7.30146 0.713022 7.38041 1.18331 7.38041H7.7598V3.80765ZM16.7484 3.80765H10.2402V7.38041H16.8167C17.287 7.38041 17.6018 7.30475 17.7611 7.15342C17.9204 7.00208 18 6.76851 18 6.45268V4.75513C18 4.45246 17.9128 4.21888 17.7383 4.05439C17.5638 3.8899 17.2339 3.80765 16.7484 3.80765ZM7.7598 8.35714H0.773704V15.8879C0.773704 16.5591 0.993679 17.0788 1.43363 17.4473C1.87358 17.8158 2.55626 18 3.48167 18H7.7598V8.35714ZM17.2035 8.35714H10.2402V18H14.5183C15.4437 18 16.1188 17.8059 16.5436 17.4177C16.9684 17.0295 17.1884 16.4998 17.2035 15.8287V8.35714Z" fill="#67707B"/>
</svg>
