<svg width="18" height="18" viewBox="0 0 18 18" fill="none" xmlns="http://www.w3.org/2000/svg">
<path d="M9.46744 8.60816C9.79093 9.16597 10.1721 9.72146 10.6173 10.1807C12.1961 11.8093 14.1273 12.6561 16.4113 12.7214C16.6869 12.7289 16.9621 12.7298 17.2372 12.724C17.2606 12.7236 17.2665 12.7337 17.2543 12.7542C16.7979 13.5299 16.4802 14.0418 16.3019 14.2903C15.994 14.7191 15.6402 15.1285 15.2405 15.5185C14.8134 15.9357 14.336 16.3062 13.8082 16.6301C12.2372 17.5943 10.5454 18.0495 8.73249 17.9957C8.01806 17.9745 7.31292 17.8697 6.61755 17.6815C6.23933 17.5796 5.86355 17.4465 5.48972 17.2821C4.8657 17.0077 4.31839 16.7063 3.84879 16.3781C2.23522 15.251 1.09713 13.7154 0.43499 11.7712C0.197499 11.0727 0.0640944 10.2736 0.0181601 9.55873C-0.0820159 7.98438 0.231706 6.35127 0.973008 4.94465C1.47975 3.98333 2.10182 3.10997 2.87391 2.39982C3.49695 1.82735 4.18939 1.3465 4.95121 0.957285C5.86159 0.49281 6.82915 0.200345 7.85387 0.0800122C8.52187 0.00145961 9.19574 -0.0193086 9.87596 0.017952L9.88085 0.0195401L9.88476 0.0234495L9.88573 0.0287026L9.88378 0.0338335C9.63505 0.421954 9.40977 0.824002 9.20747 1.24022C9.04719 1.57068 8.90596 1.93999 8.79113 2.32151C8.66554 2.73748 8.57074 3.168 8.5165 3.57835C8.3396 4.92181 8.48522 6.23228 8.95385 7.50964C9.09654 7.89813 9.26757 8.26438 9.46744 8.60816Z" fill="#67707B"/>
</svg>
