<svg width="18" height="18" viewBox="0 0 18 18" fill="none" xmlns="http://www.w3.org/2000/svg">
<path fill-rule="evenodd" clip-rule="evenodd" d="M11.0382 2.36091H6.92974L6.92884 2.36001C6.40144 2.33841 5.99374 1.86861 6.01444 1.33221C5.99374 0.78681 6.39244 0.32781 6.91804 0.29541H10.9986C11.1251 0.301425 11.2491 0.332531 11.3635 0.386918C11.4778 0.441306 11.5802 0.517888 11.6646 0.61221C11.836 0.807986 11.925 1.06242 11.913 1.32231C11.9427 1.85781 11.5548 2.31681 11.0382 2.36091ZM13.6375 1.476H13.6362L13.6371 1.4751C13.6372 1.4754 13.6374 1.4757 13.6375 1.476ZM13.6375 1.476C13.7135 1.70164 13.7368 1.9417 13.7057 2.17777C13.6744 2.41415 13.5894 2.64023 13.4571 2.8386C13.1898 3.2355 12.756 3.4722 12.2925 3.4722H5.63705C5.17445 3.4722 4.73885 3.2355 4.47245 2.8386C4.3403 2.64034 4.25537 2.41442 4.22416 2.17821C4.19296 1.94199 4.21632 1.70177 4.29245 1.476H3.30795C2.25765 1.476 1.40625 2.3697 1.40625 3.4722V15.444C1.40625 16.5465 2.25765 17.4402 3.30885 17.4402H14.6198C15.6701 17.4402 16.5215 16.5465 16.5215 15.444V3.4722C16.5215 2.3697 15.6701 1.476 14.6198 1.476H13.6375ZM4.00715 11.304H11.7255C11.8946 11.3069 12.0598 11.354 12.2041 11.4421C12.3484 11.5303 12.4666 11.6553 12.5463 11.8044C12.7317 12.1104 12.7317 12.4911 12.5643 12.8061C12.396 13.1121 12.0783 13.3065 11.7426 13.3065H4.01615C3.48605 13.3065 3.06215 12.8619 3.06215 12.3048C3.06215 12.1284 3.10625 11.9529 3.18545 11.8044C3.35375 11.4984 3.67145 11.304 4.00715 11.304ZM14.368 4.76148C14.4894 4.72433 14.6171 4.71252 14.7432 4.7268C14.8697 4.74089 14.9918 4.78065 15.1023 4.84364C15.2128 4.90663 15.3093 4.99151 15.3858 5.0931C15.546 5.3001 15.627 5.5629 15.6 5.8347C15.573 6.0975 15.4479 6.3513 15.2517 6.5115L11.7345 9.5067C11.5923 9.6282 11.4042 9.7038 11.217 9.7317L9.77075 9.8721L10.2081 8.4168C10.2637 8.23034 10.3722 8.06401 10.5204 7.938L14.0376 4.9428C14.1342 4.86036 14.2466 4.79864 14.368 4.76148ZM3.98285 7.2972H7.68365C7.84969 7.29991 8.01183 7.34796 8.15253 7.43616C8.29323 7.52435 8.40715 7.64934 8.48195 7.7976C8.64485 8.1036 8.64485 8.4843 8.48195 8.7993C8.31905 9.1053 8.00945 9.3006 7.68365 9.3006H3.98285C3.64805 9.3006 3.34745 9.1053 3.18455 8.7993C3.02165 8.4933 3.02165 8.1126 3.18455 7.7976C3.34745 7.4916 3.65705 7.2972 3.98285 7.2972Z" fill="currentColor"/>
</svg>
