<svg width="17" height="17" viewBox="0 0 17 17" fill="none" xmlns="http://www.w3.org/2000/svg">
<path fill-rule="evenodd" clip-rule="evenodd" d="M8.50005 14.4498C5.2138 14.4498 2.55005 11.7861 2.55005 8.4998C2.55005 5.21356 5.2138 2.5498 8.50005 2.5498C11.7863 2.5498 14.45 5.21356 14.45 8.4998C14.45 11.7861 11.7863 14.4498 8.50005 14.4498ZM7.65021 8.55089V5.94787C7.66094 5.4764 8.04622 5.0998 8.5178 5.0998C8.98939 5.0998 9.37466 5.4764 9.3854 5.94787V8.55089C9.37466 9.02235 8.98939 9.39895 8.5178 9.39895C8.04622 9.39895 7.66094 9.02235 7.65021 8.55089ZM9.38535 11.0322C9.38535 11.5113 8.99698 11.8997 8.51787 11.8998C8.51781 11.8998 8.51776 11.8998 8.51776 11.8999C8.51776 11.9 8.51771 11.9 8.51765 11.9C8.03847 11.9 7.65005 11.5115 7.65005 11.0323C7.65005 10.5531 8.03854 10.1646 8.51776 10.1646C8.99692 10.1646 9.38535 10.553 9.38535 11.0322Z" fill="#FF8C00"/>
</svg>
