<svg width="16" height="16" viewBox="0 0 16 16" fill="none" xmlns="http://www.w3.org/2000/svg">
<rect x="1.4115" y="5.30225" width="2.71679" height="0.4375" rx="0.21875" transform="rotate(72.9963 1.4115 5.30225)" fill="#67707B" stroke="#67707B"/>
<rect width="2.70278" height="0.4375" rx="0.21875" transform="matrix(-0.759554 0.650444 0.650444 0.759554 3.70154 5.96826)" fill="#67707B" stroke="#67707B"/>
<rect x="7.5625" y="8.875" width="4.375" height="0.875" rx="0.4375" fill="#67707B" stroke="#67707B" stroke-width="0.5"/>
<rect x="8.4375" y="4.5" width="5.25" height="0.875" rx="0.4375" transform="rotate(90 8.4375 4.5)" fill="#67707B" stroke="#67707B" stroke-width="0.5"/>
<path d="M14.5627 8C14.5627 11.3827 11.8204 14.125 8.43767 14.125C6.21667 14.125 4.27177 12.9429 3.19785 11.1735C3.15644 11.1052 3.08295 11.0625 3.00314 11.0625C2.83473 11.0625 2.72771 11.2413 2.81472 11.3855C3.96349 13.2894 6.05191 14.5625 8.43767 14.5625C12.062 14.5625 15.0002 11.6244 15.0002 8C15.0002 4.37563 12.062 1.4375 8.43767 1.4375C5.03989 1.4375 2.24523 4.01974 1.90908 7.32883C1.89626 7.45495 1.99694 7.5625 2.12371 7.5625C2.23882 7.5625 2.33394 7.47312 2.34585 7.35862C2.66648 4.27732 5.27153 1.875 8.43767 1.875C11.8204 1.875 14.5627 4.61726 14.5627 8Z" fill="#67707B" stroke="#67707B"/>
</svg>
