<svg width="18" height="18" viewBox="0 0 18 18" fill="none" xmlns="http://www.w3.org/2000/svg">
<path fill-rule="evenodd" clip-rule="evenodd" d="M12.6858 2.92857H9.80594C9.60535 2.92857 9.45491 2.8975 9.35461 2.83536C9.25432 2.77322 9.19701 2.69554 9.18268 2.60233C9.16835 2.50912 9.19701 2.34684 9.26865 2.2412C9.34029 2.13556 9.45491 2.03924 9.61252 1.95224C9.71281 1.8901 9.874 1.80621 10.0961 1.70057C10.3182 1.59493 10.5617 1.47686 10.8268 1.34636C11.0919 1.21587 11.3605 1.08537 11.6327 0.954874C11.905 0.824378 12.1485 0.703202 12.3635 0.591348C12.5497 0.50435 12.7073 0.479493 12.8363 0.516778C12.9652 0.554063 13.0691 0.628633 13.1479 0.740487C13.2267 0.852341 13.284 0.985945 13.3198 1.1413C13.3557 1.29665 13.3879 1.44268 13.4166 1.57939C13.4309 1.71611 13.4381 1.86214 13.4381 2.01749C13.4381 2.17284 13.4166 2.37551 13.3736 2.4998C13.3306 2.62408 13.2554 2.72661 13.1479 2.8074C13.0405 2.88818 12.8864 2.92857 12.6858 2.92857ZM5.22819 2.94721H8.12958C8.31585 2.94721 8.45912 2.91614 8.55942 2.854C8.65971 2.79186 8.71702 2.71418 8.73135 2.62097C8.74568 2.52776 8.71702 2.36548 8.64539 2.25984C8.57375 2.1542 8.46629 2.05788 8.32301 1.97089C8.20839 1.90874 8.04003 1.82485 7.81795 1.71921C7.59587 1.61357 7.35588 1.4955 7.09798 1.36501C6.84008 1.23451 6.57501 1.10401 6.30278 0.973517C6.03055 0.84302 5.78698 0.721844 5.57206 0.60999C5.3858 0.510564 5.22819 0.479493 5.09924 0.516778C4.97029 0.554063 4.86641 0.628633 4.78761 0.740487C4.70881 0.852341 4.64791 0.989052 4.60493 1.15062C4.56195 1.31219 4.53329 1.46133 4.51896 1.59804C4.49031 1.73475 4.47598 1.88078 4.47598 2.03613C4.47598 2.19149 4.49747 2.39416 4.54045 2.51844C4.58344 2.64272 4.65866 2.74525 4.76612 2.82604C4.87358 2.90682 5.0276 2.94721 5.22819 2.94721ZM8 4.09612H1.59608C1.13759 4.09612 0.840287 4.16137 0.704172 4.29186C0.568057 4.42236 0.5 4.63053 0.5 4.91638V6.55691C0.5 6.86762 0.575221 7.09754 0.725664 7.24668C0.876106 7.39582 1.17341 7.47039 1.61757 7.47039H8V4.09612ZM16.318 4.09612H10V7.47039H16.3824C16.8266 7.47039 17.1239 7.39893 17.2743 7.256C17.4248 7.11308 17.5 6.89248 17.5 6.5942V4.99095C17.5 4.7051 17.4176 4.4845 17.2528 4.32915C17.0881 4.17379 16.7764 4.09612 16.318 4.09612ZM8 8.39286H1.23072V15.5053C1.23072 16.1391 1.43847 16.63 1.85398 16.978C2.26949 17.326 2.91424 17.5 3.78824 17.5H8V8.39286ZM16.7478 8.39286H10V17.5H14.2118C15.0858 17.5 15.7233 17.3167 16.1245 16.9501C16.5257 16.5834 16.7335 16.0832 16.7478 15.4493V8.39286Z" fill="currentColor"/>
</svg>
