<svg width="20" height="20" viewBox="0 0 20 20" fill="none" xmlns="http://www.w3.org/2000/svg">
<g clip-path="url(#clip0_9872_30086)">
<path fill-rule="evenodd" clip-rule="evenodd" d="M2.9094 17.1326C1.03404 15.2572 -0.0195312 12.7137 -0.0195312 10.0615C-0.0195312 7.40936 1.03404 4.86582 2.9094 2.99046C4.78476 1.11509 7.3283 0.0615234 9.98047 0.0615234C12.6326 0.0615234 15.1762 1.11509 17.0515 2.99046C18.9269 4.86582 19.9805 7.40936 19.9805 10.0615C19.9805 12.7137 18.9269 15.2572 17.0515 17.1326C15.1762 19.008 12.6326 20.0615 9.98047 20.0615C7.3283 20.0615 4.78476 19.008 2.9094 17.1326ZM7.57404 9.17488L8.44995 11.8706L6.06886 15.1479L2.79167 15.2693C2.79167 15.2693 1.13033 13.5441 1.09838 9.99776L3.92356 7.98868L7.57404 9.17488ZM10.0252 6.88683L7.60292 8.6467L3.81238 7.41501L2.91947 4.43865C2.91947 4.43865 4.54886 2.23418 7.23257 1.46741L10.0252 3.41015V6.88683ZM12.9584 8.6467L10.5365 6.88683V3.24402L12.9513 1.46741C12.9513 1.46741 15.4114 2.17028 17.3602 4.69424L16.5366 7.48402L12.9584 8.6467ZM16.3955 8.06741L18.9896 9.93386C18.9896 9.93386 19.1174 13.1289 17.3602 15.2056H14.5345L12.1115 11.8705L12.9875 9.17475L16.3955 8.06741ZM8.91282 12.1031H11.6488L13.9951 15.3327L12.9513 18.4642C12.9513 18.4642 9.72445 19.6144 7.42413 18.4642L6.39423 15.5695L8.91282 12.1031Z" fill="#FF284B"/>
</g>
<defs>
<clipPath id="clip0_9872_30086">
<rect width="20" height="20" fill="white"/>
</clipPath>
</defs>
</svg>
