<svg width="20" height="20" viewBox="0 0 20 20" fill="none" xmlns="http://www.w3.org/2000/svg">
<g clip-path="url(#clip0_9872_30081)">
<path fill-rule="evenodd" clip-rule="evenodd" d="M2.9094 17.1316C1.03404 15.2563 -0.0195312 12.7127 -0.0195312 10.0605C-0.0195312 7.40838 1.03404 4.86484 2.9094 2.98948C4.78476 1.11412 7.3283 0.0605469 9.98047 0.0605469C12.6326 0.0605469 15.1762 1.11412 17.0515 2.98948C18.9269 4.86484 19.9805 7.40838 19.9805 10.0605C19.9805 12.7127 18.9269 15.2563 17.0515 17.1316C15.1762 19.007 12.6326 20.0605 9.98047 20.0605C7.3283 20.0605 4.78476 19.007 2.9094 17.1316ZM7.57404 9.1739L8.44995 11.8696L6.06886 15.1469L2.79167 15.2683C2.79167 15.2683 1.13033 13.5431 1.09838 9.99678L3.92356 7.98771L7.57404 9.1739ZM10.0252 6.88585L7.60292 8.64573L3.81238 7.41403L2.91947 4.43767C2.91947 4.43767 4.54886 2.2332 7.23257 1.46643L10.0252 3.40918V6.88585ZM12.9584 8.64573L10.5365 6.88585V3.24304L12.9513 1.46643C12.9513 1.46643 15.4114 2.1693 17.3602 4.69327L16.5366 7.48304L12.9584 8.64573ZM16.3955 8.06643L18.9896 9.93288C18.9896 9.93288 19.1174 13.1279 17.3602 15.2046H14.5345L12.1115 11.8695L12.9875 9.17378L16.3955 8.06643ZM8.91282 12.1021H11.6488L13.9951 15.3317L12.9513 18.4632C12.9513 18.4632 9.72445 19.6134 7.42413 18.4632L6.39423 15.5685L8.91282 12.1021Z" fill="#FF284B"/>
<circle cx="14" cy="14" r="5.57143" fill="white" stroke="#FF284B" stroke-width="0.857143"/>
<path d="M17.5984 14.0004C17.5984 12.0122 15.9867 10.4004 13.9984 10.4004C12.0102 10.4004 10.3984 12.0122 10.3984 14.0004H17.5984Z" fill="#FF284B"/>
</g>
<defs>
<clipPath id="clip0_9872_30081">
<rect width="20" height="20" fill="white"/>
</clipPath>
</defs>
</svg>
