<svg xmlns="http://www.w3.org/2000/svg" viewBox="0 0 12 12" fill="none">
  <g clip-path="url(#clip0_14401_4059)">
    <path
      d="M1.68819 3.99112C0.757181 3.99112 0 3.23394 0 2.30293C0 1.37193 0.757181 0.614746 1.68819 0.614746C2.6192 0.614746 3.37638 1.37193 3.37638 2.30293C3.37638 3.23394 2.62067 3.99112 1.68819 3.99112ZM1.68819 1.49861C1.24478 1.49861 0.883868 1.85953 0.883868 2.30293C0.883868 2.74634 1.24478 3.10725 1.68819 3.10725C2.1316 3.10725 2.49251 2.74634 2.49251 2.30293C2.49251 1.85953 2.13307 1.49861 1.68819 1.49861Z"
      fill="#67707B" />
    <path
      d="M1.04459 11.983C0.931163 11.983 0.817734 11.9402 0.732293 11.8533C0.559939 11.681 0.559939 11.4011 0.732293 11.2287L2.44552 9.5155C2.61788 9.34314 2.89777 9.34314 3.07012 9.5155C3.24248 9.68785 3.24248 9.96774 3.07012 10.1401L1.35689 11.8533C1.27145 11.9402 1.15802 11.983 1.04459 11.983ZM11.0338 11.896C10.9203 11.896 10.8069 11.8533 10.7215 11.7664L9.10989 10.1548C8.93754 9.98247 8.93754 9.70258 9.10989 9.53023C9.28224 9.35787 9.56214 9.35787 9.73449 9.53023L11.3461 11.1418C11.5184 11.3142 11.5184 11.5941 11.3461 11.7664C11.2592 11.8519 11.1472 11.896 11.0338 11.896Z"
      fill="#67707B" />
    <path
      d="M10.3117 3.97647C9.38072 3.97647 8.62354 3.21929 8.62354 2.28829C8.62354 1.35728 9.38072 0.600098 10.3117 0.600098C11.2427 0.600098 11.9999 1.35728 11.9999 2.28829C11.9999 3.21929 11.2442 3.97647 10.3117 3.97647ZM10.3117 1.48397C9.86832 1.48397 9.5074 1.84488 9.5074 2.28829C9.5074 2.73169 9.86832 3.09261 10.3117 3.09261C10.7551 3.09261 11.116 2.73169 11.116 2.28829C11.116 1.84488 10.7566 1.48397 10.3117 1.48397Z"
      fill="#67707B" />
    <path
      d="M6.12904 11.7051C5.43373 11.7051 4.75757 11.5681 4.12119 11.3C3.5069 11.0407 2.95596 10.668 2.48309 10.1952C2.01022 9.7223 1.63752 9.16988 1.37825 8.55706C1.10867 7.92068 0.973145 7.24599 0.973145 6.54921C0.973145 5.85243 1.11014 5.17774 1.37825 4.54135C1.63752 3.92707 2.01022 3.37612 2.48309 2.90325C2.95596 2.43038 3.50837 2.05768 4.12119 1.79842C4.75757 1.52884 5.43226 1.39331 6.12904 1.39331C6.82583 1.39331 7.50051 1.53031 8.1369 1.79842C8.75118 2.05768 9.30213 2.43038 9.775 2.90325C10.2479 3.37612 10.6206 3.92854 10.8798 4.54135C11.1494 5.17774 11.2849 5.85243 11.2849 6.54921C11.2849 7.24599 11.1479 7.92068 10.8798 8.55706C10.6206 9.17135 10.2479 9.7223 9.775 10.1952C9.30213 10.668 8.74971 11.0407 8.1369 11.3C7.50051 11.5696 6.82435 11.7051 6.12904 11.7051ZM6.12904 2.27718C3.77353 2.27718 1.85701 4.1937 1.85701 6.54921C1.85701 8.90472 3.77353 10.8212 6.12904 10.8212C8.48455 10.8212 10.4011 8.90472 10.4011 6.54921C10.4011 4.1937 8.48455 2.27718 6.12904 2.27718Z"
      fill="#67707B" />
    <path
      d="M6.08381 6.96244C5.83939 6.96244 5.64209 6.76504 5.64209 6.52051V4.6143C5.64209 4.36976 5.83939 4.17236 6.08381 4.17236C6.32822 4.17236 6.52552 4.36976 6.52552 4.6143V6.52051C6.52552 6.76504 6.32822 6.96244 6.08381 6.96244Z"
      fill="#67707B" />
    <path
      d="M7.43181 8.29406C7.31986 8.29406 7.2079 8.25134 7.12099 8.1659L5.77309 6.83567C5.59926 6.66479 5.59779 6.3849 5.76867 6.21107C5.93955 6.03725 6.21944 6.03577 6.39327 6.20666L7.74117 7.53835C7.91499 7.70923 7.91647 7.98912 7.74559 8.16295C7.66015 8.24986 7.54524 8.29406 7.43181 8.29406Z"
      fill="#67707B" />
  </g>
  <defs>
    <clipPath id="clip0_14401_4059">
      <rect width="12" height="12" fill="white" />
    </clipPath>
  </defs>
</svg>