<svg width="26" height="26" viewBox="0 0 26 26" fill="none" xmlns="http://www.w3.org/2000/svg">
<g clip-path="url(#clip0_11097_61035)">
<path fill-rule="evenodd" clip-rule="evenodd" d="M7.25 1.46582C6.61492 1.46582 6.1 1.98067 6.1 2.61582V4.91582H3.8C2.52969 4.91582 1.5 5.94558 1.5 7.21582V21.0158C1.5 22.2861 2.52969 23.3158 3.8 23.3158H22.2C23.4703 23.3158 24.5 22.2861 24.5 21.0158V7.21582C24.5 5.94558 23.4703 4.91582 22.2 4.91582H19.9V2.61582C19.9 1.98067 19.3851 1.46582 18.75 1.46582C18.1149 1.46582 17.6 1.98067 17.6 2.61582V4.91582H8.4V2.61582C8.4 1.98067 7.88508 1.46582 7.25 1.46582ZM3.8 14.6759C3.8 17.2778 4.74364 18.5788 6.63078 18.5788C7.57063 18.5788 8.2912 18.2278 8.7925 17.5257C9.29745 16.8237 9.55 15.8141 9.55 14.4968C9.55 11.8515 8.62854 10.5288 6.78562 10.5288C5.81615 10.5288 5.07536 10.8835 4.56297 11.5928C4.05437 12.2984 3.8 13.3261 3.8 14.6759ZM21.05 10.6658V18.7158H19.2972V12.6207C19.2538 12.6586 19.2067 12.6957 19.1557 12.7322C19.0935 12.7767 19.0257 12.82 18.9521 12.8623C18.8223 12.9355 18.6832 13.0032 18.5348 13.0654C18.3864 13.124 18.2326 13.1753 18.0729 13.2192C17.9135 13.2595 17.7558 13.2888 17.6 13.3071V11.8464C18.0562 11.7146 18.4866 11.5462 18.8909 11.3413C19.2954 11.1362 19.6608 10.9111 19.9872 10.6658H21.05ZM5.57469 14.6325C5.57469 12.7689 5.9526 11.837 6.70813 11.837C7.41593 11.837 7.76969 12.7417 7.76969 14.5511C7.76969 16.3605 7.40849 17.2652 6.68609 17.2652C5.94516 17.2652 5.57469 16.3876 5.57469 14.6325ZM13 7.79082C12.6824 7.79082 12.425 8.04826 12.425 8.36582V19.8658C12.425 20.1834 12.6824 20.4408 13 20.4408C13.3176 20.4408 13.575 20.1834 13.575 19.8658V8.36582C13.575 8.04826 13.3176 7.79082 13 7.79082Z" fill="currentColor"/>
</g>
<defs>
<clipPath id="clip0_11097_61035">
<rect width="26" height="26" fill="white"/>
</clipPath>
</defs>
</svg>
