<svg width="16" height="16" viewBox="0 0 16 16" fill="none" xmlns="http://www.w3.org/2000/svg">
<path d="M15.1593 6.16757C15.0564 5.79562 14.6961 5.52993 14.3357 5.4768L10.578 4.89229L8.93073 1.38528C8.7763 1.01333 8.41596 0.800781 8.00415 0.800781C7.59234 0.800781 7.23201 1.01333 7.07758 1.38528L5.43035 4.89229L1.67259 5.4768C1.31225 5.52993 0.95192 5.79562 0.848967 6.16757C0.746015 6.53953 0.797491 6.96462 1.10635 7.2303L3.83458 10.0465L3.21687 13.9786C3.16539 14.3506 3.31982 14.7757 3.62868 14.9882C3.78311 15.0945 4.04049 15.2008 4.24639 15.2008C4.40082 15.2008 4.60673 15.1476 4.76116 15.0945L8.05563 13.2879L11.3501 15.0945C11.5045 15.2008 11.659 15.2008 11.8649 15.2008C12.0708 15.2008 12.2767 15.1476 12.4826 14.9882C12.7914 14.7757 12.9973 14.3506 12.8944 13.9786L12.2767 10.0465L15.0049 7.2303C15.1593 6.96462 15.2623 6.53953 15.1593 6.16757Z" fill="#67707B"/>
</svg>
