<svg width="38" height="39" viewBox="0 0 38 39" fill="none" xmlns="http://www.w3.org/2000/svg">
<path d="M30.3345 32.2339C26.3101 32.2639 24.9997 30.2333 22.3343 27.5684C20.3342 25.5667 17.6663 25.5654 15.6673 27.5684C13.0006 30.2333 11.5999 32.2339 7.66618 32.2339C4.96496 32.2339 3 29.493 3 24.9V14.2333C3 9.81388 6.58146 6.23242 10.9997 6.23242H27.0002C31.4194 6.23242 35 9.81388 35 14.2333V24.9C35 29.567 32.9442 32.2352 30.3345 32.2339ZM14.334 16.233H11.6673V13.5663C11.6669 13.3896 11.5964 13.2202 11.4712 13.0954C11.346 12.9706 11.1764 12.9007 10.9997 12.9009C10.823 12.9008 10.6536 12.9708 10.5285 13.0956C10.4035 13.2203 10.3331 13.3897 10.3329 13.5663V16.233H7.66768C7.58009 16.233 7.49335 16.2502 7.41242 16.2837C7.33148 16.3171 7.25794 16.3663 7.196 16.4282C7.13406 16.4901 7.08493 16.5636 7.05143 16.6446C7.01793 16.7255 7.00071 16.8122 7.00075 16.8998C7.00075 17.2681 7.29889 17.5664 7.66768 17.5664H10.3329V20.2346C10.3329 20.4116 10.4032 20.5813 10.5283 20.7064C10.6534 20.8315 10.8231 20.9018 11.0001 20.9018C11.177 20.9018 11.3467 20.8315 11.4719 20.7064C11.597 20.5813 11.6673 20.4116 11.6673 20.2346V17.5664H14.334C14.5108 17.5663 14.6802 17.496 14.8053 17.371C14.9303 17.2461 15.0006 17.0766 15.0007 16.8998C15.0006 16.723 14.9303 16.5535 14.8053 16.4285C14.6803 16.3035 14.5108 16.2332 14.334 16.233ZM27.0002 12.9007C24.7914 12.9007 23.0013 14.69 23.0013 16.8996C23.0013 19.1096 24.7914 20.9009 27.0002 20.9009C29.2096 20.9009 31.0018 19.1094 31.0018 16.8996C31.0018 14.6902 29.2096 12.9007 27.0002 12.9007ZM27.0002 19.5682C25.5287 19.5682 24.3344 18.374 24.3344 16.8998C24.3344 15.4273 25.5287 14.2333 27.0002 14.2333C28.474 14.2333 29.6679 15.4273 29.6679 16.8998C29.6679 18.374 28.474 19.5682 27.0002 19.5682Z" fill="url(#paint0_linear_12090_23253)"/>
<defs>
<linearGradient id="paint0_linear_12090_23253" x1="19" y1="6.23242" x2="19" y2="32.2342" gradientUnits="userSpaceOnUse">
<stop stop-color="#26CBFF"/>
<stop offset="1" stop-color="#0565D4"/>
</linearGradient>
</defs>
</svg>
