<svg xmlns="http://www.w3.org/2000/svg" width="24" height="24" viewBox="0 0 24 24" fill="none">
  <path
    d="M15.2387 21.6204C15.9032 19.9346 16.0015 18.3944 15.2993 16.8554C14.6056 15.3346 13.4268 14.2807 11.9799 13.3117C11.5664 15.1236 10.2772 16.3654 9.40522 17.8559C8.68483 19.0869 8.8146 20.3118 9.44524 21.5294C9.518 21.6701 9.59684 21.8071 9.68537 21.9684C4.58809 20.6684 1.89209 15.85 4.52502 9.97049C4.83064 10.4689 5.10352 10.9152 5.43339 11.4525C5.64441 9.28285 6.64131 7.56192 7.86378 5.94651C8.93102 4.53484 9.53741 2.98007 9.29486 1.16455C12.2783 1.93466 15.628 4.26561 16.3301 8.93357C16.7025 8.51274 17.0299 8.05431 17.4459 7.69775C17.8437 7.35697 18.3312 7.12169 18.9182 6.75301C18.8563 8.48606 19.2384 9.9426 19.7793 11.37C19.9988 11.9497 20.1916 12.5476 20.3105 13.154C20.7192 15.2424 20.5081 17.2471 19.2711 19.036C18.3324 20.3943 16.9644 21.145 15.2387 21.6216V21.6204Z"
    fill="url(#paint0_linear_13122_121246)" />
  <defs>
    <linearGradient id="paint0_linear_13122_121246" x1="12" y1="21.9684" x2="12" y2="1.16455"
      gradientUnits="userSpaceOnUse">
      <stop stop-color="#D40505" />
      <stop offset="1" stop-color="#FF8E26" />
    </linearGradient>
  </defs>
</svg>