<svg xmlns="http://www.w3.org/2000/svg" width="14" height="14" viewBox="0 0 14 14" fill="none">
<rect x="1.27344" y="1.9729" width="1.27273" height="11.4545" rx="0.636364" fill="#67707B"/>
<rect x="13.3633" y="12.1545" width="1.27273" height="12.0909" rx="0.636364" transform="rotate(90 13.3633 12.1545)" fill="#67707B"/>
<rect width="1.27273" height="10.5892" rx="0.636364" transform="matrix(0.618459 0.785817 -0.86057 0.509333 10.1992 6.17993)" fill="#67707B"/>
<path d="M3.20846 2.32227L7.49417 5.13246L3.20846 6.66992L3.20846 2.32227Z" fill="#FF284B"/>
<path fill-rule="evenodd" clip-rule="evenodd" d="M5.27309 12.2785C5.452 11.9999 5.45463 11.6482 5.26516 11.3608C5.0757 11.0735 4.72653 10.8996 4.36154 10.896L4.04457 10.4152C4.69232 10.3138 5.38041 10.5802 5.73759 11.122C6.09477 11.6637 6.0142 12.3188 5.59006 12.7593L5.27309 12.2785Z" fill="#67707B"/>
</svg>