<svg width="142" height="120" viewBox="0 0 142 120" fill="none" xmlns="http://www.w3.org/2000/svg">
<g clip-path="url(#clip0_10324_48481)">
<g opacity="0.3">
<path d="M13.6164 37.8719C13.6164 37.8719 13.607 43.4026 10.3993 48.0054C8.62123 50.5566 6.26743 52.708 2 54.5401C2 54.5401 2.93978 52.2332 4.55012 46.7347C5.00023 45.1978 5.6456 43.6966 6.74961 42.535C9.84879 39.274 13.6164 37.8719 13.6164 37.8719Z" fill="#D9D9D9"/>
<path d="M13.6164 37.8719L14.1164 37.8728L14.1176 37.1519L13.442 37.4033L13.6164 37.8719ZM10.3993 48.0054L9.98904 47.7195L10.3993 48.0054ZM2 54.5401L1.53695 54.3515L1.07701 55.4805L2.19725 54.9996L2 54.5401ZM4.55012 46.7347L4.07028 46.5942L4.55012 46.7347ZM6.74961 42.535L7.11204 42.8794L6.74961 42.535ZM18.1103 32.7823C18.3633 32.6716 18.4787 32.3768 18.368 32.1238C18.2574 31.8708 17.9625 31.7555 17.7096 31.8661L18.1103 32.7823ZM13.6164 37.8719C13.1164 37.8711 13.1164 37.871 13.1164 37.8709C13.1164 37.8709 13.1164 37.8708 13.1164 37.8708C13.1164 37.8708 13.1164 37.8708 13.1164 37.871C13.1164 37.8713 13.1164 37.8719 13.1164 37.8728C13.1164 37.8747 13.1163 37.878 13.1163 37.8825C13.1162 37.8915 13.116 37.9058 13.1156 37.925C13.1148 37.9633 13.1132 38.0216 13.1101 38.0982C13.1039 38.2515 13.0914 38.4779 13.0667 38.765C13.017 39.3394 12.9181 40.1549 12.721 41.1117C12.326 43.0294 11.5414 45.4921 9.98904 47.7195L10.8095 48.2912C12.4649 45.9158 13.2888 43.3118 13.7005 41.3135C13.9067 40.3123 14.0106 39.4574 14.0629 38.851C14.0891 38.5477 14.1025 38.3061 14.1093 38.1389C14.1127 38.0553 14.1145 37.9903 14.1154 37.9454C14.1158 37.923 14.1161 37.9056 14.1162 37.8934C14.1163 37.8873 14.1163 37.8825 14.1164 37.8791C14.1164 37.8774 14.1164 37.876 14.1164 37.8749C14.1164 37.8744 14.1164 37.874 14.1164 37.8736C14.1164 37.8734 14.1164 37.8732 14.1164 37.8731C14.1164 37.8729 14.1164 37.8728 13.6164 37.8719ZM9.98904 47.7195C8.26613 50.1917 5.98718 52.2842 1.80275 54.0807L2.19725 54.9996C6.54767 53.1318 8.97634 50.9216 10.8095 48.2912L9.98904 47.7195ZM2 54.5401C2.46305 54.7287 2.46308 54.7287 2.4631 54.7286C2.46312 54.7286 2.46315 54.7285 2.46318 54.7284C2.46324 54.7283 2.46331 54.7281 2.46339 54.7279C2.46357 54.7275 2.4638 54.7269 2.46408 54.7262C2.46465 54.7248 2.46545 54.7228 2.46648 54.7203C2.46853 54.7152 2.47149 54.7078 2.47535 54.6981C2.48307 54.6788 2.49439 54.6502 2.50924 54.6122C2.53894 54.5362 2.58276 54.4224 2.64019 54.2692C2.75505 53.9628 2.92433 53.4985 3.14383 52.8625C3.58282 51.5905 4.22273 49.6315 5.02997 46.8752L4.07028 46.5942C3.26717 49.3364 2.63202 51.2802 2.19854 52.5362C1.9818 53.1643 1.81548 53.6203 1.70381 53.9183C1.64797 54.0672 1.6058 54.1767 1.57781 54.2483C1.56382 54.2841 1.55337 54.3105 1.54654 54.3276C1.54312 54.3361 1.54061 54.3424 1.53901 54.3464C1.53821 54.3484 1.53764 54.3498 1.53729 54.3506C1.53712 54.351 1.53701 54.3513 1.53695 54.3515C1.53692 54.3515 1.53691 54.3516 1.53691 54.3516L1.53692 54.3515C1.53693 54.3515 1.53695 54.3515 2 54.5401ZM7.11204 42.8794C8.61834 41.2945 10.2919 40.157 11.5929 39.4149C12.2424 39.0445 12.7963 38.7742 13.186 38.5972C13.3808 38.5088 13.5344 38.4437 13.6381 38.4012C13.6899 38.3799 13.7293 38.3643 13.7551 38.3543C13.768 38.3492 13.7775 38.3456 13.7835 38.3433C13.7865 38.3422 13.7886 38.3414 13.7898 38.3409C13.7904 38.3407 13.7908 38.3405 13.791 38.3405C13.7911 38.3404 13.7911 38.3404 13.791 38.3404C13.791 38.3404 13.791 38.3405 13.791 38.3405C13.7909 38.3405 13.7908 38.3405 13.6164 37.8719C13.442 37.4033 13.4419 37.4034 13.4417 37.4034C13.4417 37.4035 13.4415 37.4035 13.4414 37.4036C13.4411 37.4037 13.4408 37.4038 13.4404 37.4039C13.4396 37.4042 13.4387 37.4046 13.4374 37.405C13.435 37.406 13.4317 37.4072 13.4274 37.4088C13.419 37.4121 13.407 37.4167 13.3915 37.4227C13.3606 37.4348 13.316 37.4525 13.2588 37.4759C13.1444 37.5228 12.9794 37.5928 12.7725 37.6867C12.359 37.8745 11.7773 38.1586 11.0975 38.5463C9.73993 39.3205 7.98006 40.5145 6.38718 42.1905L7.11204 42.8794ZM5.02997 46.8752C5.47061 45.3707 6.08751 43.9574 7.11204 42.8794L6.38718 42.1905C5.2037 43.4358 4.52985 45.025 4.07028 46.5942L5.02997 46.8752ZM12.9605 39.8708C13.4349 38.8491 14.2722 37.2577 15.2344 35.8191C15.7155 35.0998 16.2214 34.4284 16.7224 33.8879C17.2301 33.3403 17.7022 32.9608 18.1103 32.7823L17.7096 31.8661C17.1153 32.1261 16.5316 32.6229 15.9891 33.208C15.44 33.8003 14.9015 34.5181 14.4032 35.2632C13.4065 36.7534 12.5447 38.3916 12.0534 39.4497L12.9605 39.8708Z" fill="#D9D9D9"/>
</g>
<g clip-path="url(#clip1_10324_48481)">
<path d="M116.562 13H25.8003C23.3779 13 21.4141 14.9638 21.4141 17.3863V76.432C21.4141 78.8545 23.3779 80.8183 25.8003 80.8183H116.562C118.985 80.8183 120.948 78.8545 120.948 76.432V17.3863C120.948 14.9638 118.985 13 116.562 13Z" fill="url(#paint0_linear_10324_48481)"/>
<rect x="26" y="18" width="90" height="58" rx="2" fill="#656E78"/>
<path d="M20.1032 84.5669C20.9366 83.4737 22.1648 82.8428 23.4604 82.8428H118.909C120.204 82.8428 121.433 83.4737 122.266 84.5669L140.422 108.361C141.528 109.812 140.594 112.028 138.873 112.028H3.4962C1.77544 112.028 0.840832 109.815 1.94752 108.361L20.1032 84.5669Z" fill="url(#paint1_linear_10324_48481)"/>
<path fill-rule="evenodd" clip-rule="evenodd" d="M0.332189 113.645L0.109502 114.36C-0.366238 115.882 0.767441 117.43 2.36336 117.43H139.97C141.468 117.43 142.447 115.861 141.789 114.515L141.428 113.776C141.067 114.151 140.561 114.394 139.974 114.394H1.90112C1.25668 114.394 0.696586 114.097 0.332189 113.648V113.645Z" fill="url(#paint2_linear_10324_48481)"/>
<path d="M23.1255 85.373H39.9688L37.4618 90.6602H19.2656L23.1255 85.373Z" fill="url(#paint3_linear_10324_48481)"/>
<path d="M18.4165 91.8174H36.9096L33.8662 98.2416H13.7266L18.4165 91.8174Z" fill="url(#paint4_linear_10324_48481)"/>
<path d="M12.6874 99.665H33.1915L29.4125 107.638H6.86719L12.6874 99.665Z" fill="url(#paint5_linear_10324_48481)"/>
<path d="M42.9197 85.373H59.7629L58.8486 90.6602H40.6523L42.9197 85.373Z" fill="url(#paint6_linear_10324_48481)"/>
<path d="M40.1517 91.8174H58.6448L57.5347 98.2416H37.3984L40.155 91.8174H40.1517Z" fill="url(#paint7_linear_10324_48481)"/>
<path d="M36.7846 99.666H105.487L108.908 107.639H33.3633L36.7846 99.666Z" fill="url(#paint8_linear_10324_48481)"/>
<path d="M62.7139 85.373H79.5571L80.2353 90.6602H62.0391L62.7172 85.373H62.7139Z" fill="url(#paint9_linear_10324_48481)"/>
<path d="M61.8902 91.8174H80.3833L81.2066 98.2416H61.0703L61.8936 91.8174H61.8902Z" fill="url(#paint10_linear_10324_48481)"/>
<path d="M82.5156 85.373H99.3589L101.626 90.6602H83.43L82.5156 85.373Z" fill="url(#paint11_linear_10324_48481)"/>
<path d="M83.625 91.8174H102.118L104.875 98.2416H84.7384L83.6284 91.8174H83.625Z" fill="url(#paint12_linear_10324_48481)"/>
<path d="M102.309 85.373H119.152L123.012 90.6602H104.816L102.309 85.373Z" fill="url(#paint13_linear_10324_48481)"/>
<path d="M105.367 91.8174H123.86L128.55 98.2416H108.414L105.371 91.8174H105.367Z" fill="url(#paint14_linear_10324_48481)"/>
<path d="M109.082 99.665H129.586L135.406 107.638H112.861L109.082 99.665Z" fill="url(#paint15_linear_10324_48481)"/>
<g clip-path="url(#clip2_10324_48481)">
<g filter="url(#filter0_f_10324_48481)">
<path d="M78 18H104L74 41H48L78 18Z" fill="url(#paint16_linear_10324_48481)"/>
</g>
<g filter="url(#filter1_f_10324_48481)">
<path d="M110 18H121L76 56H65L110 18Z" fill="url(#paint17_linear_10324_48481)"/>
</g>
<g filter="url(#filter2_f_10324_48481)">
<path d="M121.082 23H125L80.9184 61H77L121.082 23Z" fill="url(#paint18_linear_10324_48481)"/>
</g>
</g>
</g>
<g opacity="0.3">
<path d="M40.2007 18.7977C40.2007 18.7977 40.1944 22.5836 38.0053 25.7345C36.7919 27.4809 35.1856 28.9536 32.2734 30.2078C32.2734 30.2078 32.8311 28.8345 33.7976 25.5968C34.2556 24.0625 34.8849 22.5438 36.0561 21.4534C38.0439 19.6028 40.2007 18.7977 40.2007 18.7977Z" fill="#D9D9D9"/>
<path d="M40.2007 18.7977L40.7007 18.7985L40.702 18.0769L40.0259 18.3292L40.2007 18.7977ZM38.0053 25.7345L37.5947 25.4492L38.0053 25.7345ZM32.2734 30.2078L31.8102 30.0197L31.3514 31.1493L32.4712 30.667L32.2734 30.2078ZM33.7976 25.5968L33.3185 25.4538L33.7976 25.5968ZM36.0561 21.4534L36.3968 21.8194L36.0561 21.4534ZM43.3317 15.4579C43.5846 15.3469 43.6996 15.052 43.5886 14.7991C43.4777 14.5462 43.1827 14.4312 42.9299 14.5421L43.3317 15.4579ZM40.2007 18.7977C39.7007 18.7968 39.7007 18.7967 39.7007 18.7966C39.7007 18.7966 39.7007 18.7965 39.7007 18.7964C39.7007 18.7964 39.7007 18.7963 39.7007 18.7964C39.7007 18.7965 39.7007 18.7968 39.7007 18.7973C39.7007 18.7984 39.7007 18.8003 39.7007 18.8032C39.7006 18.8089 39.7005 18.8181 39.7002 18.8308C39.6997 18.856 39.6987 18.8949 39.6966 18.9462C39.6924 19.049 39.6841 19.2016 39.6674 19.3956C39.6339 19.7838 39.5672 20.3359 39.4341 20.9839C39.1671 22.2841 38.6378 23.9477 37.5947 25.4492L38.4159 26.0197C39.5618 24.3704 40.1302 22.5656 40.4137 21.1851C40.5559 20.4927 40.6275 19.9014 40.6637 19.4814C40.6818 19.2712 40.691 19.1034 40.6958 18.9868C40.6981 18.9285 40.6994 18.8829 40.7 18.8512C40.7003 18.8353 40.7005 18.8229 40.7006 18.8141C40.7007 18.8097 40.7007 18.8061 40.7007 18.8035C40.7007 18.8022 40.7007 18.8012 40.7007 18.8003C40.7007 18.7999 40.7007 18.7996 40.7007 18.7993C40.7007 18.7991 40.7007 18.7989 40.7007 18.7988C40.7007 18.7987 40.7007 18.7985 40.2007 18.7977ZM37.5947 25.4492C36.4362 27.1165 34.9047 28.5302 32.0757 29.7486L32.4712 30.667C35.4666 29.377 37.1476 27.8452 38.4159 26.0197L37.5947 25.4492ZM32.2734 30.2078C32.7367 30.3959 32.7367 30.3959 32.7367 30.3958C32.7367 30.3958 32.7368 30.3957 32.7368 30.3957C32.7368 30.3956 32.7369 30.3954 32.737 30.3953C32.7371 30.395 32.7372 30.3946 32.7374 30.3941C32.7378 30.3932 32.7383 30.3919 32.739 30.3903C32.7403 30.3871 32.7421 30.3825 32.7445 30.3766C32.7492 30.3647 32.7561 30.3473 32.765 30.3244C32.783 30.2785 32.8093 30.2101 32.8437 30.1185C32.9126 29.9352 33.0139 29.6585 33.1453 29.2807C33.4082 28.5252 33.7915 27.3654 34.2767 25.7398L33.3185 25.4538C32.8372 27.066 32.4585 28.2116 32.2009 28.9522C32.072 29.3224 31.9735 29.5914 31.9076 29.7668C31.8747 29.8544 31.8499 29.9187 31.8336 29.9605C31.8254 29.9815 31.8193 29.9968 31.8154 30.0066C31.8135 30.0115 31.8121 30.015 31.8112 30.0172C31.8107 30.0183 31.8104 30.019 31.8103 30.0194C31.8102 30.0196 31.8101 30.0198 31.8101 30.0198C31.8101 30.0198 31.8101 30.0198 31.8101 30.0198C31.8101 30.0198 31.8101 30.0197 31.8101 30.0197C31.8102 30.0197 31.8102 30.0197 32.2734 30.2078ZM36.3968 21.8194C37.3525 20.9296 38.3521 20.2886 39.1145 19.8698C39.495 19.6609 39.8144 19.5084 40.0369 19.4088C40.1481 19.359 40.235 19.3225 40.293 19.2989C40.3219 19.2871 40.3437 19.2784 40.3577 19.273C40.3646 19.2703 40.3697 19.2683 40.3727 19.2672C40.3742 19.2666 40.3752 19.2662 40.3757 19.2661C40.3759 19.266 40.376 19.2659 40.376 19.2659C40.376 19.2659 40.376 19.266 40.3759 19.266C40.3759 19.266 40.3758 19.266 40.3758 19.266C40.3757 19.2661 40.3756 19.2661 40.2007 18.7977C40.0259 18.3292 40.0258 18.3293 40.0256 18.3293C40.0256 18.3293 40.0255 18.3294 40.0254 18.3294C40.0252 18.3295 40.0249 18.3296 40.0246 18.3297C40.0241 18.3299 40.0234 18.3302 40.0226 18.3305C40.021 18.3311 40.0189 18.3319 40.0163 18.3329C40.011 18.3349 40.0037 18.3377 39.9944 18.3413C39.9758 18.3486 39.9493 18.3591 39.9154 18.3729C39.8477 18.4005 39.7505 18.4414 39.6284 18.496C39.3844 18.6052 39.0404 18.7697 38.6331 18.9933C37.8201 19.4398 36.7474 20.1267 35.7154 21.0875L36.3968 21.8194ZM34.2767 25.7398C34.7283 24.2267 35.3266 22.8157 36.3968 21.8194L35.7154 21.0875C34.4432 22.2719 33.7828 23.8983 33.3185 25.4538L34.2767 25.7398ZM39.8974 20.2319C40.2185 19.5381 40.7861 18.4562 41.4373 17.4795C41.7629 16.9912 42.103 16.5388 42.4374 16.1771C42.7783 15.8081 43.0829 15.567 43.3317 15.4579L42.9299 14.5421C42.4946 14.7331 42.0786 15.0919 41.703 15.4984C41.3207 15.912 40.9481 16.4106 40.6053 16.9248C39.9197 17.953 39.3278 19.0818 38.9899 19.8119L39.8974 20.2319Z" fill="#D9D9D9"/>
</g>
<g opacity="0.3">
<path d="M123.103 74.2023C123.103 74.2023 122.465 70.1485 124.359 66.5549C126.252 62.9613 128.76 60.5588 129.96 61.1887C131.16 61.8187 130.598 65.2426 128.704 68.8362C126.811 72.4298 123.103 74.2023 123.103 74.2023Z" fill="#D9D9D9"/>
<path d="M123.103 74.2023L122.609 74.2801L122.714 74.9428L123.319 74.6534L123.103 74.2023ZM132.03 58.0947C132.03 57.8186 131.806 57.5947 131.53 57.5947C131.254 57.5947 131.03 57.8186 131.03 58.0947L132.03 58.0947ZM123.103 74.2023C123.597 74.1246 123.597 74.1247 123.597 74.1248C123.597 74.1249 123.597 74.125 123.597 74.125C123.597 74.1251 123.597 74.1251 123.597 74.125C123.597 74.1249 123.597 74.1246 123.597 74.124C123.597 74.1228 123.597 74.1206 123.596 74.1175C123.595 74.1113 123.594 74.1013 123.592 74.0877C123.588 74.0604 123.583 74.0186 123.576 73.9632C123.563 73.8525 123.547 73.6879 123.532 73.4782C123.503 73.0585 123.483 72.4602 123.52 71.7526C123.595 70.3326 123.9 68.4989 124.801 66.7879L123.916 66.3218C122.924 68.2044 122.601 70.1945 122.522 71.6999C122.482 72.4549 122.503 73.0946 122.535 73.5473C122.55 73.7739 122.568 73.9541 122.583 74.0791C122.59 74.1416 122.597 74.1903 122.601 74.2242C122.604 74.2411 122.606 74.2543 122.607 74.2637C122.608 74.2684 122.608 74.2721 122.609 74.2748C122.609 74.2762 122.609 74.2773 122.609 74.2782C122.609 74.2786 122.609 74.279 122.609 74.2793C122.609 74.2795 122.609 74.2797 122.609 74.2797C122.609 74.2799 122.609 74.2801 123.103 74.2023ZM124.801 66.7879C125.73 65.0255 126.8 63.5738 127.765 62.649C128.25 62.1847 128.687 61.8734 129.048 61.7129C129.415 61.5496 129.621 61.5755 129.727 61.6315L130.192 60.746C129.699 60.487 129.141 60.577 128.641 60.7992C128.135 61.0244 127.602 61.4202 127.073 61.9269C126.011 62.9443 124.881 64.4907 123.916 66.3218L124.801 66.7879ZM129.727 61.6315C129.833 61.6872 129.971 61.8413 130.044 62.2354C130.116 62.6226 130.107 63.1585 129.999 63.8201C129.782 65.1379 129.191 66.8407 128.262 68.6031L129.147 69.0693C130.111 67.2381 130.747 65.4321 130.985 63.9821C131.104 63.2598 131.129 62.5971 131.028 62.0528C130.928 61.5154 130.686 61.0052 130.192 60.746L129.727 61.6315ZM128.262 68.6031C127.36 70.3142 126.019 71.6037 124.89 72.4701C124.327 72.9019 123.821 73.2246 123.458 73.4385C123.277 73.5454 123.132 73.6249 123.033 73.677C122.984 73.7031 122.946 73.7223 122.921 73.7347C122.909 73.7409 122.9 73.7453 122.894 73.7481C122.891 73.7495 122.889 73.7504 122.888 73.751C122.888 73.7512 122.887 73.7514 122.887 73.7514C122.887 73.7514 122.887 73.7514 122.887 73.7514C122.887 73.7514 122.888 73.7514 122.888 73.7513C122.888 73.7513 122.888 73.7512 123.103 74.2023C123.319 74.6534 123.319 74.6534 123.319 74.6533C123.319 74.6533 123.32 74.6532 123.32 74.6531C123.32 74.653 123.32 74.6528 123.321 74.6526C123.322 74.6522 123.323 74.6517 123.324 74.6511C123.326 74.6499 123.33 74.6483 123.334 74.6462C123.343 74.642 123.354 74.6361 123.37 74.6284C123.4 74.6131 123.444 74.5907 123.5 74.5613C123.611 74.5025 123.77 74.4154 123.966 74.3C124.358 74.0693 124.898 73.7242 125.498 73.2636C126.696 72.3454 128.155 70.9518 129.147 69.0693L128.262 68.6031ZM126.907 65.845C127.085 65.4138 127.45 64.974 127.96 64.4716C128.211 64.224 128.486 63.9726 128.777 63.7051C129.066 63.4398 129.369 63.1603 129.667 62.866C130.854 61.6929 132.03 60.2094 132.03 58.0947L131.03 58.0947C131.03 59.795 130.101 61.0317 128.964 62.1547C128.681 62.4344 128.39 62.7023 128.101 62.9686C127.813 63.2326 127.524 63.4967 127.258 63.7591C126.733 64.2766 126.243 64.8346 125.983 65.463L126.907 65.845Z" fill="#D9D9D9"/>
</g>
<g opacity="0.3">
<path d="M126.073 46.3875C126.073 46.3875 128.704 45.8816 129.731 44.232C130.758 42.5823 130.785 40.8727 129.791 40.4136C128.797 39.9544 127.159 40.9195 126.132 42.5691C125.106 44.2188 126.073 46.3875 126.073 46.3875Z" fill="#D9D9D9"/>
<path d="M126.073 46.3875L125.616 46.5912L125.778 46.9534L126.167 46.8786L126.073 46.3875ZM132.004 38.0024C132.005 37.7263 131.782 37.5014 131.506 37.5C131.23 37.4987 131.005 37.7214 131.004 37.9976L132.004 38.0024ZM126.073 46.3875C126.167 46.8786 126.167 46.8785 126.167 46.8785C126.168 46.8785 126.168 46.8785 126.168 46.8784C126.168 46.8784 126.168 46.8783 126.169 46.8783C126.169 46.8781 126.17 46.878 126.171 46.8778C126.173 46.8774 126.176 46.8769 126.179 46.8762C126.185 46.8749 126.194 46.8731 126.206 46.8707C126.228 46.866 126.26 46.8591 126.3 46.8498C126.381 46.8312 126.495 46.8032 126.634 46.7644C126.912 46.6869 127.294 46.5655 127.712 46.3889C128.53 46.0429 129.56 45.453 130.156 44.4962L129.307 43.9678C128.875 44.6606 128.077 45.1485 127.322 45.4679C126.953 45.624 126.613 45.7321 126.366 45.8011C126.242 45.8354 126.143 45.8598 126.076 45.8754C126.042 45.8831 126.016 45.8887 126 45.8922C125.991 45.8939 125.985 45.8951 125.982 45.8959C125.98 45.8962 125.979 45.8965 125.978 45.8966C125.978 45.8966 125.978 45.8966 125.978 45.8966C125.978 45.8966 125.978 45.8966 125.978 45.8966C125.978 45.8966 125.978 45.8966 125.978 45.8966C125.978 45.8966 125.978 45.8965 126.073 46.3875ZM130.156 44.4962C130.705 43.6139 131.006 42.6864 131.019 41.8841C131.031 41.0907 130.75 40.3059 130.001 39.9597L129.581 40.8674C129.826 40.9804 130.028 41.2799 130.019 41.8685C130.01 42.4482 129.784 43.2004 129.307 43.9678L130.156 44.4962ZM130.001 39.9597C129.285 39.6288 128.44 39.8454 127.72 40.2697C126.98 40.7058 126.258 41.4206 125.708 42.3049L126.557 42.8333C127.033 42.0679 127.644 41.4754 128.228 41.1313C128.832 40.7755 129.303 40.7391 129.581 40.8674L130.001 39.9597ZM125.708 42.3049C125.105 43.274 125.101 44.3683 125.223 45.1719C125.285 45.5794 125.381 45.9293 125.462 46.1778C125.503 46.3024 125.54 46.4027 125.568 46.4732C125.581 46.5084 125.593 46.5363 125.601 46.5562C125.605 46.5661 125.609 46.5741 125.611 46.5799C125.612 46.5829 125.614 46.5853 125.614 46.5871C125.615 46.5881 125.615 46.5889 125.615 46.5896C125.616 46.5899 125.616 46.5902 125.616 46.5905C125.616 46.5906 125.616 46.5908 125.616 46.5908C125.616 46.591 125.616 46.5912 126.073 46.3875C126.529 46.1839 126.53 46.1841 126.53 46.1842C126.53 46.1842 126.53 46.1844 126.53 46.1844C126.53 46.1846 126.53 46.1847 126.53 46.1847C126.53 46.1849 126.53 46.1849 126.53 46.1848C126.53 46.1846 126.529 46.1838 126.529 46.1826C126.528 46.1802 126.526 46.1757 126.523 46.1694C126.518 46.1567 126.51 46.1364 126.499 46.1091C126.478 46.0546 126.447 45.9725 126.413 45.8681C126.345 45.6584 126.264 45.363 126.212 45.022C126.107 44.3289 126.133 43.5139 126.557 42.8333L125.708 42.3049ZM129.557 42.03C129.96 41.6838 130.555 41.0832 131.055 40.3848C131.543 39.7028 132 38.8454 132.004 38.0024L131.004 37.9976C131.001 38.519 130.699 39.1628 130.241 39.803C129.795 40.4267 129.257 40.9693 128.906 41.2715L129.557 42.03Z" fill="#D9D9D9"/>
</g>
<g opacity="0.3">
<path d="M74.5904 15.8633C74.5904 15.8633 72.5109 11.5644 74.1475 8.49148C75.7842 5.41855 78.636 3.7368 80.5173 4.73519C82.3985 5.73358 82.5968 9.03403 80.9602 12.107C79.3235 15.1799 74.5904 15.8633 74.5904 15.8633Z" fill="#D9D9D9"/>
<path d="M74.5904 15.8633L74.1403 16.081L74.2997 16.4104L74.6619 16.3581L74.5904 15.8633ZM84.0097 0.455795C84.2614 0.342273 84.3734 0.0461784 84.2599 -0.20555C84.1464 -0.457279 83.8503 -0.569317 83.5986 -0.455795L84.0097 0.455795ZM74.5904 15.8633C75.0405 15.6455 75.0406 15.6456 75.0406 15.6457C75.0406 15.6457 75.0407 15.6458 75.0407 15.6458C75.0407 15.6459 75.0407 15.6459 75.0407 15.6458C75.0406 15.6456 75.0404 15.6452 75.04 15.6445C75.0394 15.6431 75.0383 15.6407 75.0367 15.6374C75.0335 15.6306 75.0284 15.6198 75.0217 15.6052C75.0083 15.5761 74.9882 15.5317 74.9629 15.4733C74.9122 15.3566 74.8406 15.1845 74.7592 14.9678C74.596 14.5334 74.3952 13.9239 74.244 13.2241C73.9373 11.8055 73.8539 10.1064 74.5888 8.72652L73.7062 8.25644C72.8045 9.94954 72.9425 11.9363 73.2665 13.4353C73.4306 14.1943 73.6474 14.8517 73.823 15.3193C73.911 15.5536 73.989 15.7414 74.0457 15.8717C74.074 15.937 74.097 15.9879 74.1133 16.0232C74.1214 16.0409 74.1278 16.0546 74.1324 16.0643C74.1347 16.0692 74.1365 16.073 74.1378 16.0758C74.1385 16.0772 74.139 16.0783 74.1395 16.0792C74.1397 16.0796 74.1398 16.08 74.14 16.0803C74.1401 16.0804 74.1401 16.0806 74.1402 16.0807C74.1403 16.0808 74.1403 16.081 74.5904 15.8633ZM74.5888 8.72652C75.3711 7.25782 76.4334 6.14312 77.4946 5.51728C78.5646 4.88632 79.5539 4.79 80.2829 5.17684L80.7516 4.29353C79.5993 3.68198 78.2221 3.92734 76.9867 4.6559C75.7426 5.38957 74.5606 6.65221 73.7062 8.25644L74.5888 8.72652ZM80.2829 5.17684C81.0115 5.56352 81.4845 6.43544 81.5588 7.67311C81.6326 8.90091 81.3011 10.4032 80.5189 11.8719L81.4015 12.342C82.2559 10.7378 82.6436 9.05339 82.557 7.61314C82.4711 6.18275 81.9043 4.90525 80.7516 4.29353L80.2829 5.17684ZM80.5189 11.8719C79.7839 13.2519 78.3258 14.1334 76.9759 14.6732C76.31 14.9395 75.6915 15.1142 75.2394 15.2221C75.0138 15.276 74.8308 15.313 74.7055 15.3363C74.6429 15.348 74.5947 15.3562 74.563 15.3614C74.5471 15.364 74.5354 15.3659 74.528 15.367C74.5243 15.3676 74.5216 15.368 74.5201 15.3682C74.5194 15.3683 74.5189 15.3684 74.5187 15.3684C74.5186 15.3684 74.5186 15.3684 74.5186 15.3684C74.5187 15.3684 74.5187 15.3684 74.5188 15.3684C74.5189 15.3684 74.519 15.3684 74.5904 15.8633C74.6619 16.3581 74.662 16.3581 74.6622 16.3581C74.6623 16.3581 74.6625 16.358 74.6627 16.358C74.663 16.358 74.6634 16.3579 74.6639 16.3578C74.6648 16.3577 74.6661 16.3575 74.6676 16.3573C74.6707 16.3568 74.6749 16.3562 74.6802 16.3554C74.6908 16.3537 74.7058 16.3514 74.725 16.3482C74.7634 16.3419 74.8185 16.3325 74.8885 16.3194C75.0284 16.2934 75.228 16.253 75.4717 16.1948C75.9582 16.0786 76.6253 15.8904 77.3472 15.6017C78.773 15.0316 80.4998 14.0349 81.4015 12.342L80.5189 11.8719ZM80.0102 6.53031C80.2113 5.72687 80.6623 4.44 81.3525 3.22876C82.0495 2.00548 82.9477 0.934727 84.0097 0.455795L83.5986 -0.455795C82.2484 0.153073 81.2178 1.44524 80.4836 2.7337C79.7426 4.0342 79.2603 5.40788 79.0401 6.2875L80.0102 6.53031Z" fill="#D9D9D9"/>
</g>
<path fill-rule="evenodd" clip-rule="evenodd" d="M80.1838 46.8571C79.8461 46.5194 79.4435 46.3506 78.976 46.3506H77.4176H74.2747H67.7812H64.5085H62.95C62.4825 46.3506 62.0842 46.5194 61.7552 46.8571C61.4262 47.1947 61.2617 47.5973 61.2617 48.0649V56.2986C61.2617 56.7315 61.3353 57.1385 61.4825 57.5194C61.6297 57.9004 61.8375 58.2337 62.1059 58.5194C62.3743 58.8051 62.6989 59.0346 63.0799 59.2077C63.4609 59.3809 63.8851 59.4675 64.3526 59.4675H77.4695C77.937 59.4675 78.3656 59.3809 78.7552 59.2077C79.1448 59.0346 79.4825 58.7965 79.7682 58.4934C80.0539 58.1904 80.279 57.8354 80.4435 57.4285C80.608 57.0216 80.6903 56.5844 80.6903 56.1168V48.0649C80.6903 47.5973 80.5215 47.1947 80.1838 46.8571ZM73.2778 51.4665C73.2778 52.3553 72.7427 53.1191 71.977 53.4533V55.3665C71.977 55.8452 71.589 56.2332 71.1103 56.2332C70.6317 56.2332 70.2437 55.8452 70.2437 55.3665V53.4525C69.4789 53.118 68.9445 52.3547 68.9445 51.4665C68.9445 50.2699 69.9145 49.2999 71.1112 49.2999C72.3078 49.2999 73.2778 50.2699 73.2778 51.4665Z" fill="url(#paint19_linear_10324_48481)"/>
<path d="M65.3281 41.9473V43.8516C65.3281 44.6403 65.9675 45.2797 66.7563 45.2797C67.545 45.2797 68.1845 44.6403 68.1845 43.8516V42.5821C68.1845 41.63 68.4338 40.8932 68.9326 40.3718C69.4313 39.8504 70.0887 39.5897 70.9048 39.5897C71.8116 39.5897 72.5294 39.8504 73.0584 40.3718C73.5873 40.8932 73.8518 41.63 73.8518 42.5821V43.9082C73.8518 44.6657 74.4658 45.2797 75.2233 45.2797C75.9808 45.2797 76.5948 44.6657 76.5948 43.9082V41.9473C76.5948 41.2219 76.4399 40.5456 76.1301 39.9184C75.8203 39.2913 75.4046 38.7396 74.8833 38.2636C74.3619 37.7875 73.7649 37.4135 73.0924 37.1414C72.4199 36.8694 71.7209 36.7334 70.9955 36.7334C70.1794 36.7334 69.4275 36.8694 68.7399 37.1414C68.0522 37.4135 67.4553 37.7875 66.949 38.2636C66.4427 38.7396 66.046 39.2913 65.7588 39.9184C65.4717 40.5456 65.3281 41.2219 65.3281 41.9473Z" fill="url(#paint20_linear_10324_48481)"/>
</g>
<defs>
<filter id="filter0_f_10324_48481" x="47" y="17" width="58" height="25" filterUnits="userSpaceOnUse" color-interpolation-filters="sRGB">
<feFlood flood-opacity="0" result="BackgroundImageFix"/>
<feBlend mode="normal" in="SourceGraphic" in2="BackgroundImageFix" result="shape"/>
<feGaussianBlur stdDeviation="0.5" result="effect1_foregroundBlur_10324_48481"/>
</filter>
<filter id="filter1_f_10324_48481" x="64" y="17" width="58" height="40" filterUnits="userSpaceOnUse" color-interpolation-filters="sRGB">
<feFlood flood-opacity="0" result="BackgroundImageFix"/>
<feBlend mode="normal" in="SourceGraphic" in2="BackgroundImageFix" result="shape"/>
<feGaussianBlur stdDeviation="0.5" result="effect1_foregroundBlur_10324_48481"/>
</filter>
<filter id="filter2_f_10324_48481" x="76" y="22" width="50" height="40" filterUnits="userSpaceOnUse" color-interpolation-filters="sRGB">
<feFlood flood-opacity="0" result="BackgroundImageFix"/>
<feBlend mode="normal" in="SourceGraphic" in2="BackgroundImageFix" result="shape"/>
<feGaussianBlur stdDeviation="0.5" result="effect1_foregroundBlur_10324_48481"/>
</filter>
<linearGradient id="paint0_linear_10324_48481" x1="71.7532" y1="21.4773" x2="71.7532" y2="73.7539" gradientUnits="userSpaceOnUse">
<stop stop-color="#303439"/>
<stop offset="1" stop-color="#3B4147"/>
</linearGradient>
<linearGradient id="paint1_linear_10324_48481" x1="71.9859" y1="86.491" x2="71.9859" y2="108.988" gradientUnits="userSpaceOnUse">
<stop stop-color="#303439"/>
<stop offset="1" stop-color="#3B4147"/>
</linearGradient>
<linearGradient id="paint2_linear_10324_48481" x1="71.8148" y1="114.118" x2="71.8148" y2="117.036" gradientUnits="userSpaceOnUse">
<stop stop-color="#303439"/>
<stop offset="1" stop-color="#3B4147"/>
</linearGradient>
<linearGradient id="paint3_linear_10324_48481" x1="29.7362" y1="86.0339" x2="29.7362" y2="90.1094" gradientUnits="userSpaceOnUse">
<stop stop-color="#222529"/>
<stop offset="1" stop-color="#2B3136"/>
</linearGradient>
<linearGradient id="paint4_linear_10324_48481" x1="25.4513" y1="92.6204" x2="25.4513" y2="97.5724" gradientUnits="userSpaceOnUse">
<stop stop-color="#222529"/>
<stop offset="1" stop-color="#2B3136"/>
</linearGradient>
<linearGradient id="paint5_linear_10324_48481" x1="20.1806" y1="100.662" x2="20.1806" y2="106.807" gradientUnits="userSpaceOnUse">
<stop stop-color="#222529"/>
<stop offset="1" stop-color="#2B3136"/>
</linearGradient>
<linearGradient id="paint6_linear_10324_48481" x1="50.3175" y1="86.0339" x2="50.3175" y2="90.1094" gradientUnits="userSpaceOnUse">
<stop stop-color="#222529"/>
<stop offset="1" stop-color="#2B3136"/>
</linearGradient>
<linearGradient id="paint7_linear_10324_48481" x1="48.1437" y1="92.6204" x2="48.1437" y2="97.5724" gradientUnits="userSpaceOnUse">
<stop stop-color="#222529"/>
<stop offset="1" stop-color="#2B3136"/>
</linearGradient>
<linearGradient id="paint8_linear_10324_48481" x1="71.5699" y1="100.663" x2="71.5699" y2="106.808" gradientUnits="userSpaceOnUse">
<stop stop-color="#222529"/>
<stop offset="1" stop-color="#2B3136"/>
</linearGradient>
<linearGradient id="paint9_linear_10324_48481" x1="71.2417" y1="86.0339" x2="71.2417" y2="90.1094" gradientUnits="userSpaceOnUse">
<stop stop-color="#222529"/>
<stop offset="1" stop-color="#2B3136"/>
</linearGradient>
<linearGradient id="paint10_linear_10324_48481" x1="71.2542" y1="92.6204" x2="71.2542" y2="97.5724" gradientUnits="userSpaceOnUse">
<stop stop-color="#222529"/>
<stop offset="1" stop-color="#2B3136"/>
</linearGradient>
<linearGradient id="paint11_linear_10324_48481" x1="92.1807" y1="86.0339" x2="92.1807" y2="90.1094" gradientUnits="userSpaceOnUse">
<stop stop-color="#222529"/>
<stop offset="1" stop-color="#2B3136"/>
</linearGradient>
<linearGradient id="paint12_linear_10324_48481" x1="94.372" y1="92.6204" x2="94.372" y2="97.5724" gradientUnits="userSpaceOnUse">
<stop stop-color="#222529"/>
<stop offset="1" stop-color="#2B3136"/>
</linearGradient>
<linearGradient id="paint13_linear_10324_48481" x1="112.779" y1="86.0339" x2="112.779" y2="90.1094" gradientUnits="userSpaceOnUse">
<stop stop-color="#222529"/>
<stop offset="1" stop-color="#2B3136"/>
</linearGradient>
<linearGradient id="paint14_linear_10324_48481" x1="117.092" y1="92.6204" x2="117.092" y2="97.5724" gradientUnits="userSpaceOnUse">
<stop stop-color="#222529"/>
<stop offset="1" stop-color="#2B3136"/>
</linearGradient>
<linearGradient id="paint15_linear_10324_48481" x1="122.395" y1="100.662" x2="122.395" y2="106.807" gradientUnits="userSpaceOnUse">
<stop stop-color="#222529"/>
<stop offset="1" stop-color="#2B3136"/>
</linearGradient>
<linearGradient id="paint16_linear_10324_48481" x1="98" y1="14.5" x2="98" y2="36" gradientUnits="userSpaceOnUse">
<stop stop-color="white" stop-opacity="0.05"/>
<stop offset="1" stop-color="white" stop-opacity="0"/>
</linearGradient>
<linearGradient id="paint17_linear_10324_48481" x1="118.5" y1="15" x2="118.5" y2="45" gradientUnits="userSpaceOnUse">
<stop stop-color="white" stop-opacity="0.05"/>
<stop offset="1" stop-color="white" stop-opacity="0"/>
</linearGradient>
<linearGradient id="paint18_linear_10324_48481" x1="125" y1="19.5" x2="124.505" y2="43.4898" gradientUnits="userSpaceOnUse">
<stop stop-color="white" stop-opacity="0.05"/>
<stop offset="1" stop-color="white" stop-opacity="0"/>
</linearGradient>
<linearGradient id="paint19_linear_10324_48481" x1="71.0877" y1="47.9902" x2="71.0877" y2="58.1011" gradientUnits="userSpaceOnUse">
<stop stop-color="#303439"/>
<stop offset="1" stop-color="#3B4147"/>
</linearGradient>
<linearGradient id="paint20_linear_10324_48481" x1="71.0262" y1="31.3304" x2="71.0262" y2="43.619" gradientUnits="userSpaceOnUse">
<stop stop-color="#303439"/>
<stop offset="1" stop-color="#3B4147"/>
</linearGradient>
<clipPath id="clip0_10324_48481">
<rect width="142" height="120" fill="white"/>
</clipPath>
<clipPath id="clip1_10324_48481">
<rect width="142" height="104.427" fill="white" transform="translate(0 13)"/>
</clipPath>
<clipPath id="clip2_10324_48481">
<rect x="45" y="18" width="71" height="47" rx="2" fill="white"/>
</clipPath>
</defs>
</svg>
