<svg width="14" height="14" viewBox="0 0 14 14" fill="none" xmlns="http://www.w3.org/2000/svg">
<path fill-rule="evenodd" clip-rule="evenodd" d="M6.22222 0C2.7858 0 0 2.7858 0 6.22222C0 9.65865 2.7858 12.4444 6.22222 12.4444C7.6601 12.4444 8.98407 11.9567 10.0377 11.1377L12.6722 13.7722C12.976 14.0759 13.4685 14.0759 13.7722 13.7722C14.0759 13.4685 14.0759 12.976 13.7722 12.6722L11.1377 10.0377C11.9567 8.98407 12.4444 7.6601 12.4444 6.22222C12.4444 2.7858 9.65865 0 6.22222 0ZM1.55556 6.22222C1.55556 3.64491 3.64491 1.55556 6.22222 1.55556C8.79954 1.55556 10.8889 3.64491 10.8889 6.22222C10.8889 8.79954 8.79954 10.8889 6.22222 10.8889C3.64491 10.8889 1.55556 8.79954 1.55556 6.22222Z" fill="#67707B"/>
</svg>
