<svg xmlns="http://www.w3.org/2000/svg" width="16" height="16" viewBox="0 0 16 16" fill="none">
<g clip-path="url(#clip0_9216_203681)">
<path d="M11.6524 1.67458L11.6524 1.67455L11.6498 1.67304C10.2808 0.860851 8.65019 0.496508 7.18409 0.76938L7.18403 0.769058L7.17545 0.77132C6.98819 0.820696 6.8121 0.922273 6.70693 1.07479C6.59839 1.23219 6.57505 1.43071 6.67275 1.64246C6.77502 1.95402 7.07125 2.16291 7.37461 2.16291H7.38301L7.39132 2.16174C8.62658 1.98803 9.86319 2.24791 11.021 2.94569L11.0217 2.94611C13.663 4.51312 14.6584 8.00177 13.4174 10.7942L13.4167 10.7939L13.4126 10.8067C13.3749 10.926 13.3179 11.0266 13.2697 11.0978C13.2617 11.1097 13.2539 11.1206 13.2466 11.1306L12.1562 10.4735L11.987 10.3715L11.9745 10.5687L11.7217 14.5687L11.7184 14.6209L11.7544 14.6588C11.7828 14.6888 11.8167 14.6958 11.8317 14.6978C11.8487 14.7002 11.8637 14.699 11.8735 14.6979C11.8933 14.6955 11.9137 14.6901 11.9315 14.6846C11.9682 14.6732 12.0152 14.6548 12.0687 14.6318C12.1767 14.5855 12.3243 14.5152 12.4967 14.4295C12.842 14.2579 13.2936 14.0211 13.7416 13.7821C14.1898 13.543 14.6352 13.3011 14.9686 13.1191C15.1353 13.028 15.274 12.9519 15.371 12.8986L15.4836 12.8366L15.5133 12.8202L15.5209 12.816L15.5228 12.815L15.5233 12.8147L15.5235 12.8146L15.4655 12.7096L15.5235 12.8146L15.7054 12.7141L15.5274 12.6068L14.4405 11.9517L14.6468 11.5165L14.647 11.5166L14.6497 11.51C16.1027 7.90419 14.8232 3.66307 11.6524 1.67458ZM5.161 13.4957L5.15998 13.4951C2.38934 11.8621 1.46223 8.1838 2.9572 5.23061L4.11314 5.88083L4.27942 5.97436L4.29172 5.78399L4.54456 1.87287L4.55823 1.66143L4.36987 1.75845L0.745832 3.62512L0.554671 3.72358L0.738839 3.83458L1.82205 4.48741C-0.0680689 8.16935 1.30195 12.7066 4.44534 14.6779L4.44583 14.6782C5.90438 15.5831 7.53574 15.8549 9.08098 15.5833L9.08105 15.5837L9.0908 15.5812C9.28342 15.5304 9.43883 15.4255 9.53168 15.2716C9.62464 15.1175 9.6463 14.9286 9.59837 14.7263L9.59869 14.7263L9.59603 14.7179C9.49619 14.402 9.19755 14.1896 8.89165 14.1896H8.87913L8.86688 14.1922C7.63579 14.4518 6.31803 14.193 5.161 13.4957Z" fill="#67707B" stroke="#67707B" stroke-width="0.24"/>
</g>
<defs>
<clipPath id="clip0_9216_203681">
<rect width="16" height="16" fill="white"/>
</clipPath>
</defs>
</svg>