<svg width="18" height="18" viewBox="0 0 18 18" fill="none" xmlns="http://www.w3.org/2000/svg">
<g clip-path="url(#clip0_245_24993)">
<path d="M8.85938 0H9.14062C9.62086 0.275977 9.66059 0.613828 9.26508 1.00547C8.98102 1.28707 8.73387 1.59609 8.56898 1.96664C8.44699 2.24086 8.4491 2.5084 8.56793 2.78156C8.75356 3.20801 9.04676 3.55219 9.36949 3.8802C9.61488 4.1298 9.85606 4.38891 10.0603 4.67227C10.6341 5.4675 10.7821 6.30949 10.2642 7.19895C10.2315 7.25484 10.202 7.31285 10.1591 7.39125C10.2312 7.37859 10.2712 7.37297 10.3106 7.36488C10.7529 7.27453 11.1048 7.0077 11.4799 6.78059C12.3989 6.22441 13.3411 6.20508 14.2773 6.73172C14.9512 7.1107 15.4452 7.68445 15.8625 8.32148C16.9861 10.0357 17.5869 11.9419 17.8952 13.9518C17.9385 14.2337 17.9655 14.5181 18 14.8015V15.7507C17.9768 15.9114 17.9596 16.0727 17.9297 16.2323C17.7785 17.043 17.5145 17.7704 16.5938 18.0007H16.1367C15.473 17.8657 14.9052 17.5363 14.3968 17.1063C14.0221 16.7892 13.6593 16.4552 13.3189 16.1023C12.5079 15.2613 11.5327 14.8293 10.3612 14.8366C9.45984 14.8423 8.55809 14.8433 7.65668 14.8366C6.47262 14.8275 5.49035 15.2645 4.67016 16.1156C3.87246 16.9432 3.04559 17.7398 1.86363 18.0007H1.4066C1.04027 17.9079 0.70875 17.7441 0.512578 17.4122C0.360703 17.1548 0.237305 16.8736 0.147305 16.5885C0.0657422 16.3304 0.0464063 16.0534 0 15.7852C0 15.4571 0 15.1288 0 14.8008C0.0140625 14.6795 0.0284766 14.5586 0.0421875 14.4373C0.233086 12.7199 0.694688 11.0784 1.44668 9.52242C1.87418 8.63754 2.39977 7.81945 3.13664 7.15078C4.23738 6.15234 5.66262 6.12949 6.72609 6.90645C6.91313 7.04285 7.12547 7.14937 7.3357 7.24852C7.78078 7.45805 8.26031 7.42043 8.73316 7.41445C8.76762 7.4141 8.81437 7.38844 8.83441 7.35961C9.03867 7.06957 9.25523 6.78586 9.43383 6.4807C9.57375 6.24129 9.5502 5.9741 9.44086 5.71816C9.27281 5.32336 9.0007 5.0059 8.7068 4.70004C8.45613 4.43918 8.20406 4.17551 7.98785 3.88652C7.66125 3.45023 7.4025 2.96367 7.42359 2.40469C7.46332 1.35211 8.0543 0.607148 8.85902 0L8.85938 0ZM5.30719 10.5834C5.30719 10.4034 5.3093 10.241 5.30684 10.0789C5.30156 9.76008 5.08676 9.53367 4.78828 9.52981C4.48277 9.52559 4.26059 9.75516 4.25566 10.0825C4.2532 10.2445 4.25531 10.4066 4.25531 10.5834C4.07742 10.5834 3.92027 10.5817 3.76348 10.5834C3.4316 10.5877 3.20273 10.8014 3.20168 11.1066C3.20027 11.4114 3.4302 11.6304 3.75855 11.635C3.92027 11.6371 4.08164 11.6353 4.25566 11.6353C4.25566 11.8171 4.25391 11.9742 4.25602 12.1314C4.26023 12.4604 4.47891 12.6904 4.78371 12.6893C5.08781 12.6882 5.30332 12.458 5.30719 12.1271C5.3093 11.9658 5.30719 11.8048 5.30719 11.6353C5.49211 11.6353 5.64996 11.6374 5.80781 11.635C6.13512 11.63 6.36434 11.4082 6.36117 11.1027C6.35801 10.8046 6.1316 10.5891 5.81273 10.5834C5.65031 10.5806 5.48789 10.5831 5.30719 10.5831V10.5834ZM8.99016 11.6357C9.33504 11.6357 9.68027 11.6381 10.0252 11.635C10.3525 11.6321 10.5817 11.4107 10.5799 11.1059C10.5782 10.8077 10.3525 10.5859 10.0357 10.5845C9.34594 10.581 8.65582 10.5813 7.9657 10.5845C7.64754 10.5859 7.42289 10.8056 7.42008 11.1041C7.41727 11.4093 7.64578 11.6318 7.97273 11.635C8.31199 11.6381 8.6509 11.6357 8.99016 11.6357ZM12.1785 10.5838C11.8898 10.5764 11.648 10.8035 11.6388 11.0904C11.6293 11.3868 11.8628 11.6318 12.1577 11.635C12.4457 11.6381 12.6837 11.4075 12.6889 11.1199C12.6942 10.832 12.465 10.5912 12.1781 10.5841L12.1785 10.5838ZM14.2798 10.5838C13.9915 10.5803 13.7535 10.8105 13.7479 11.0981C13.7419 11.3931 13.9806 11.6357 14.2752 11.6346C14.5631 11.6336 14.7969 11.3994 14.7983 11.1115C14.7994 10.8229 14.568 10.5873 14.2798 10.5838ZM13.2145 11.6385C12.9255 11.6402 12.6911 11.8782 12.6932 12.1679C12.6953 12.4566 12.9333 12.6914 13.2223 12.6893C13.5113 12.6872 13.7457 12.4492 13.7436 12.1602C13.7415 11.8712 13.5035 11.6364 13.2145 11.6381V11.6385ZM13.2223 9.52945C12.9322 9.52734 12.6953 9.76043 12.6928 10.0505C12.6904 10.3395 12.9255 10.5785 13.2142 10.5803C13.5032 10.582 13.7419 10.3465 13.7436 10.0586C13.7454 9.76851 13.512 9.53156 13.2223 9.5291V9.52945Z" fill="white"/>
</g>
<defs>
<clipPath id="clip0_245_24993">
<rect width="18" height="18" fill="white"/>
</clipPath>
</defs>
</svg>
