<svg xmlns="http://www.w3.org/2000/svg" width="18" height="23" viewBox="0 0 18 23" fill="none">
  <path d="M6.02677 9.03896H3.00579V5.51448C3.00579 4.74725 3.15764 4.03197 3.46134 3.36863C3.76503 2.70529 4.18461 2.12188 4.72008 1.61838C5.25554 1.11489 5.88691 0.719281 6.61418 0.431568C7.34145 0.143856 8.13666 -1.5625e-08 8.9998 0C9.76703 0 10.5063 0.143856 11.2176 0.431568C11.9289 0.719281 12.5602 1.11489 13.1117 1.61838C13.6631 2.12188 14.1027 2.70529 14.4304 3.36863C14.758 4.03197 14.9219 4.74725 14.9219 5.51448V9.03896H12.0208V6.18581C12.0208 5.17882 11.7411 4.3996 11.1816 3.84815C10.6222 3.2967 9.86293 3.02098 8.90389 3.02098C8.04076 3.02098 7.34545 3.2967 6.81798 3.84815C6.29051 4.3996 6.02677 5.17882 6.02677 6.18581V9.03896ZM16.3604 10.4775C16.792 10.4775 17.1636 10.6334 17.4753 10.9451C17.787 11.2567 17.9429 11.6284 17.9429 12.0599V19.4925C17.9429 19.9241 17.8669 20.3277 17.7151 20.7033C17.5632 21.0789 17.3554 21.4066 17.0917 21.6863C16.828 21.966 16.5163 22.1858 16.1566 22.3457C15.797 22.5055 15.4014 22.5854 14.9698 22.5854H2.86194C2.43037 22.5854 2.03876 22.5055 1.68711 22.3457C1.33546 22.1858 1.03576 21.974 0.78801 21.7103C0.540257 21.4466 0.348449 21.1389 0.212585 20.7872C0.0767209 20.4356 0.00878906 20.0599 0.00878906 19.6603V12.0599C0.00878906 11.6284 0.160637 11.2567 0.464333 10.9451C0.76803 10.6334 1.13566 10.4775 1.56723 10.4775H3.00579H6.02677H12.0208H14.9219H16.3604Z" fill="currentColor"/>
</svg>