<svg width="32" height="32" viewBox="0 0 32 32" fill="none" xmlns="http://www.w3.org/2000/svg">
<g id="ty_icon_bangq">
<g id="&#230;&#163;&#146;&#231;&#144;&#131;">
<path d="M27.554 8.17789C26.5179 8.78711 25.4982 9.39649 24.4621 10.0223C24.6759 10.714 24.5115 11.175 23.9852 11.3727C23.5576 11.5373 23.13 11.2739 22.834 10.6646C21.7978 10.9117 20.7453 11.1586 19.7092 11.4057C19.594 12.1303 19.3638 12.4267 18.8704 12.4761C18.4099 12.509 18.1797 12.2949 17.9165 11.6527C17.342 11.6011 16.7765 11.5452 16.2128 11.4894C15.6954 11.4382 15.1797 11.3871 14.6602 11.3398C14.4135 11.3068 14.2819 11.3891 14.1997 11.6527C14.0517 12.1631 13.6405 12.4102 13.2294 12.3113C12.7524 12.1962 12.5386 11.8832 12.5715 11.3068L12.5718 11.3042C12.5881 11.1074 12.6031 10.9276 12.3248 10.8292C11.7525 10.6421 11.1885 10.4301 10.621 10.2167L10.2563 10.0798C10.1456 10.0386 10.0348 9.99733 9.92367 9.95643C9.31516 10.4669 9.00267 10.5658 8.64086 10.3517C8.24615 10.1046 8.14748 9.75878 8.32837 9.11653C7.84308 8.73765 7.35367 8.36288 6.86426 7.98811L6.82818 7.96038C6.35108 7.59503 5.87406 7.22984 5.40094 6.86037C1.96368 10.6317 0.894693 16.9226 3.29584 21.8466C4.74309 21.0396 6.19037 20.2327 7.63764 19.4092C7.48962 18.7341 7.62119 18.3224 8.11458 18.1576C8.27905 18.0919 8.54219 18.0589 8.65731 18.1412C8.85837 18.2952 9.03393 18.4916 9.21455 18.6939L9.21583 18.6954C9.28594 18.774 9.35684 18.8534 9.43028 18.9316L12.0123 18.4542C12.0205 18.405 12.0286 18.352 12.0368 18.2948L12.0494 18.2031L12.0617 18.1083C12.111 17.6801 12.3742 17.4166 12.7853 17.3671C13.1636 17.3343 13.6241 17.5812 13.6569 17.9765C13.7034 18.3486 13.8957 18.3703 14.1515 18.3992L14.1997 18.4047C15.2358 18.487 16.2884 18.5693 17.3738 18.6682C17.5054 18.2401 17.8014 17.8448 18.3935 17.9601C19.1007 18.0919 19.1007 18.6682 19.0842 19.1623C19.5253 19.3546 19.9602 19.5408 20.3903 19.7248L20.4264 19.7402L20.4377 19.7448C20.9856 19.9794 21.5258 20.2106 22.061 20.4468C22.4228 19.7386 22.7846 19.541 23.2944 19.7551C23.8372 19.9856 23.8865 20.3314 23.5576 21.3361L23.8914 21.6378C24.9613 22.6047 26.0177 23.5596 27.0606 24.5145C31.4024 19.0305 30.3828 11.7514 27.554 8.17789Z" fill="currentColor"/>
<path d="M22.6695 23.197C22.1103 23.7569 21.8307 23.8557 21.4031 23.5757C20.8769 23.2298 20.9591 22.7358 21.2058 22.2089C20.5095 21.9003 19.8241 21.6029 19.123 21.2987L19.1217 21.2981L18.6402 21.089C18.5086 21.6982 18.3277 22.2089 17.6534 22.1759C17.456 22.1594 17.1436 22.0112 17.0778 21.8466C16.9672 21.5759 16.9209 21.2778 16.8703 20.9521C16.8531 20.8417 16.8354 20.7281 16.8146 20.6114C15.9815 20.5311 15.0547 20.4353 14.1254 20.3391L14.0517 20.3314C13.9201 21.2867 13.6734 21.6654 13.2294 21.6818C12.6866 21.6982 12.407 21.3526 12.2261 20.4302C11.4532 20.5785 10.6802 20.7267 9.89077 20.8749C10.0223 21.4842 10.0552 22.0112 9.41383 22.2417C9.23292 22.3076 8.95335 22.3076 8.80533 22.2253C8.63353 22.1107 8.49363 21.9481 8.34121 21.771C8.27475 21.6938 8.20592 21.6137 8.13103 21.5336C7.47318 21.649 5.26938 22.917 4.43063 23.7239C4.44849 23.7597 4.46203 23.7911 4.47438 23.8197C4.49617 23.8704 4.51426 23.9125 4.54575 23.9544C5.43384 25.2225 6.48641 26.3259 7.73632 27.2645C9.85787 28.8292 12.2261 29.7349 14.8411 29.949C17.3902 30.1631 19.8407 29.7019 22.1597 28.5821C23.4096 27.9728 24.5115 27.1822 25.564 26.2764C25.7481 26.1075 25.6604 26.0102 25.541 25.8775L25.5147 25.8483C24.6595 24.8438 23.7221 23.9544 22.6695 23.197Z" fill="currentColor"/>
<path d="M10.5322 6.51452C10.0881 6.43221 9.7921 6.66272 9.64408 7.00857C9.46316 7.43673 9.26581 7.32139 9.03557 7.12374C8.62366 6.81451 8.21173 6.4998 7.79677 6.1827C7.48277 5.94278 7.16701 5.70166 6.84822 5.46054C12.1603 0.684684 21.0084 0.668256 26.3863 6.5638C25.844 6.89391 25.3086 7.22402 24.7711 7.55413C24.4773 7.73467 24.1829 7.91504 23.8865 8.0954C23.5411 7.37085 23.1629 7.09088 22.6859 7.25551C21.9294 7.51904 22.061 8.14486 22.209 8.77068C21.5183 8.9312 20.8553 9.09172 20.1923 9.25223L19.5283 9.41292C19.3967 8.54017 19.0513 8.14486 18.5415 8.14486C18.0645 8.14486 17.8343 8.54 17.7356 9.51166C17.5773 9.51166 17.4171 9.51526 17.2563 9.51902C16.9328 9.52638 16.6069 9.53374 16.2884 9.51166C15.8485 9.4824 15.4218 9.42696 14.9731 9.3686L14.8082 9.34704C14.8575 8.77068 14.8246 8.19432 14.1339 8.06255C13.4596 7.93078 13.2458 8.44126 13.0649 8.98476C12.3577 8.72122 11.667 8.45769 11.0256 8.22717C11.0511 8.12501 11.0788 8.0273 11.1056 7.93283C11.1824 7.66159 11.2515 7.41739 11.2394 7.17319C11.2065 6.81091 10.9104 6.5804 10.5322 6.51452Z" fill="currentColor"/>
</g>
</g>
</svg>
