<svg width="32" height="32" viewBox="0 0 32 32" fill="none" xmlns="http://www.w3.org/2000/svg">
<g id="ty_icon_zq">
<g id="ty_icon_zq_2">
<path d="M16.6671 2.96495L16.6661 2.96562C16.5669 3.02775 16.4671 3.09035 16.3667 3.15356C15.9472 2.85643 15.5102 2.54182 15.1082 2.19226C15.0718 2.16795 15.0522 2.11829 15.0319 2.06678C15.0231 2.04423 15.014 2.02129 15.0034 2H16.7337C17.0483 2.08739 17.3804 2.17478 17.7649 2.26217C17.3939 2.50949 17.0335 2.73536 16.6671 2.96495Z" fill="currentColor"/>
<path d="M28.8112 12.7724C28.7587 12.3879 28.7063 12.0384 28.6364 11.6189C28.3997 12.1121 28.2965 12.3269 28.3584 12.4708C28.4062 12.5819 28.5523 12.6506 28.8112 12.7724Z" fill="currentColor"/>
<path d="M9.8212 17.95C9.47603 16.8351 9.1308 15.72 8.78126 14.6096C8.72882 14.4521 8.57152 14.2947 8.43169 14.2423C7.90328 14.042 7.37486 13.8491 6.84813 13.6567C6.22512 13.4292 5.60404 13.2025 4.98851 12.9656C4.72634 12.8606 4.53408 12.8956 4.32434 13.0705C3.93986 13.3416 3.55102 13.6082 3.16217 13.8749C2.77328 14.1416 2.38427 14.4084 1.99976 14.6795V17.2504C2.05219 17.6876 2.10462 18.1074 2.19201 18.5446C2.62897 20.7832 3.53783 22.8119 4.81373 24.6832C4.97103 24.9106 5.14581 24.9806 5.39051 24.9631C6.31684 24.9106 7.22571 24.8581 8.15205 24.7882C8.27439 24.7707 8.43169 24.6832 8.51908 24.5783C8.89486 24.1323 9.26627 23.682 9.63768 23.2317C10.0091 22.7813 10.3805 22.331 10.7563 21.885C10.8786 21.7101 10.9485 21.5527 10.8611 21.2904C10.5116 20.1799 10.1664 19.0648 9.8212 17.95Z" fill="currentColor"/>
<path d="M27.0809 13.4903C27.2382 13.4378 27.4829 13.5252 27.6227 13.6302C28.0522 13.9453 28.4764 14.2708 28.9068 14.6011C29.2646 14.8757 29.6268 15.1536 29.9998 15.4315V16.7607C29.9636 17.007 29.9334 17.2563 29.903 17.5073C29.86 17.8622 29.8165 18.2211 29.7551 18.5796C29.4405 20.4859 28.7413 22.2348 27.6227 23.8088C27.3081 24.2635 26.9586 24.7007 26.5915 25.138C26.5041 25.2254 26.3294 25.3129 26.207 25.3129C25.2981 25.3303 24.4068 25.3303 23.5154 25.3129C23.393 25.3129 23.2008 25.2079 23.1309 25.103C22.4143 24.1061 21.7151 23.0917 21.0335 22.0599C20.9286 21.92 20.9111 21.6576 20.9636 21.5002C21.5855 19.7302 22.2183 17.9711 22.8534 16.2056C23.0215 15.7383 23.1898 15.2705 23.3581 14.8019C23.4105 14.662 23.5678 14.4871 23.7076 14.4522C24.8261 14.1199 25.945 13.7875 27.0809 13.4903Z" fill="currentColor"/>
<path d="M19.8625 22.9519C19.7751 22.8295 19.5654 22.7246 19.3906 22.7246C19.128 22.7035 18.8655 22.7015 18.5991 22.6994C18.4223 22.698 18.2435 22.6966 18.0623 22.6896C16.0872 22.6371 14.0947 22.5846 12.1197 22.5497C11.9799 22.5497 11.7876 22.6546 11.6828 22.777C10.9312 23.7214 10.1796 24.6658 9.46304 25.6277C9.37565 25.7502 9.32322 25.995 9.35817 26.1349C9.63782 26.9569 9.95243 27.7789 10.2845 28.5834C10.3369 28.7058 10.4418 28.8807 10.5467 28.9157C10.7026 28.9625 10.8588 29.0096 11.0154 29.0569C11.9123 29.3277 12.8201 29.6018 13.7277 29.8251C14.0455 29.9107 14.3803 29.9365 14.7143 29.9621C14.8579 29.9732 15.0015 29.9842 15.1434 30H16.2271L16.272 29.9925C16.4645 29.9602 16.6441 29.93 16.8388 29.93C18.1322 29.9126 19.3906 29.6327 20.5791 29.143C20.684 29.0906 20.8238 29.0031 20.8588 28.8982C21.2083 27.9713 21.5404 27.0269 21.855 26.0825C21.89 25.9775 21.8725 25.8026 21.8201 25.7152C21.6823 25.5177 21.5453 25.3203 21.4085 25.123C20.903 24.3943 20.3988 23.6675 19.8625 22.9519Z" fill="currentColor"/>
<path d="M10.2145 13.945C10.413 14.6349 10.6099 15.3216 10.8062 16.0062C11.2667 17.6122 11.7239 19.2067 12.1896 20.8007C12.2245 20.9056 12.4168 21.0281 12.5391 21.0281C13.0389 21.0513 13.5464 21.0591 14.0514 21.0669C14.3058 21.0708 14.5595 21.0747 14.8113 21.0805L14.9114 21.0829C16.3469 21.1171 17.7984 21.1517 19.2332 21.2029C19.443 21.2029 19.5478 21.133 19.6177 20.9406C20.3868 18.737 21.1558 16.5334 21.9423 14.3123C20.5162 13.2323 19.0995 12.1335 17.6853 11.0366L17.6832 11.035C17.1743 10.6403 16.6657 10.2458 16.1571 9.85255L15.3252 10.4296C13.6178 11.6144 11.9291 12.7862 10.2145 13.945Z" fill="currentColor"/>
<path d="M5.74011 11.689C5.46046 11.584 5.30315 11.4091 5.21576 11.1293C4.95359 10.3248 4.67394 9.50282 4.37682 8.69832C4.27195 8.45348 4.32438 8.29608 4.48168 8.08621C5.68767 6.38977 7.20827 5.04311 8.99103 3.99377C10.197 3.27672 11.4729 2.80451 12.8187 2.43724C12.9236 2.41975 13.0634 2.45473 13.1508 2.52469C13.9723 3.11931 14.8112 3.73143 15.6327 4.34355C15.6942 4.39275 15.7383 4.4679 15.7835 4.54467C15.8025 4.57705 15.8217 4.60973 15.8424 4.64086C15.825 4.64961 15.8119 4.65398 15.7988 4.65835C15.7856 4.66272 15.7725 4.6671 15.7551 4.67584C15.7433 5.07672 15.7295 5.47561 15.7158 5.87386C15.6887 6.65705 15.6618 7.43774 15.6502 8.22612C15.6502 8.5759 15.5278 8.80326 15.2307 8.99564C14.0273 9.79474 12.8308 10.6007 11.6369 11.4049C10.9233 11.8856 10.2106 12.3656 9.4979 12.8432C9.35807 12.9307 9.13086 12.9657 8.99103 12.9132C8.34085 12.6823 7.69066 12.4326 7.04048 12.1828C6.60702 12.0163 6.17356 11.8499 5.74011 11.689Z" fill="currentColor"/>
<path d="M16.9085 4.74548C16.891 5.3576 16.891 5.95222 16.891 6.56434C16.891 6.71661 16.8899 6.86996 16.8889 7.02385C16.8856 7.48839 16.8823 7.95854 16.9085 8.41818C16.9085 8.57558 17.0134 8.80294 17.1357 8.89038C18.9884 10.2895 20.8411 11.6886 22.6938 13.0703C22.7812 13.1402 22.9559 13.1752 23.0608 13.1402C24.2842 12.7555 25.5078 12.3707 26.7137 11.9685C26.8535 11.9335 26.9934 11.7936 27.0458 11.6711C27.3779 10.8492 27.675 10.0097 27.9721 9.17021C28.0246 9.04779 28.0071 8.83792 27.9372 8.73298C27.8533 8.61056 27.7701 8.48743 27.6869 8.36431C27.3541 7.87182 27.0213 7.37933 26.6438 6.93161C24.8436 4.78046 22.5539 3.34636 19.8973 2.48939C19.7749 2.45441 19.5827 2.50688 19.4778 2.57684C18.6913 3.13649 17.9048 3.71363 17.1357 4.30825C16.9959 4.41319 16.9085 4.60557 16.9085 4.74548Z" fill="currentColor"/>
<path d="M22.991 26.7993C23.026 26.7119 23.1483 26.607 23.2357 26.607C23.4979 26.5983 23.76 26.5983 24.0331 26.5983C24.3062 26.5983 24.5903 26.5983 24.8961 26.5895C24.162 27.3411 23.428 27.8829 22.4841 28.2674C22.5644 28.0413 22.6355 27.8273 22.7038 27.6217C22.7992 27.3349 22.8892 27.0639 22.991 26.7993Z" fill="currentColor"/>
<path d="M3.71271 11.8289C3.78263 11.7764 3.83506 11.6365 3.81758 11.5666C3.67776 11.0944 3.52046 10.6222 3.36315 10.15H3.24081C2.94368 10.937 2.64655 11.7415 2.3669 12.5285C2.38438 12.5372 2.40186 12.5503 2.41934 12.5634C2.43681 12.5766 2.45429 12.5897 2.47177 12.5984L2.65501 12.487C3.00421 12.2748 3.37111 12.0518 3.71271 11.8289Z" fill="currentColor"/>
<path d="M6.87877 26.0786C7.18754 26.0747 7.49894 26.0707 7.80253 26.0824C7.88992 26.0824 8.01227 26.1523 8.02975 26.2222C8.1084 26.4582 8.18268 26.6985 8.25696 26.9388C8.33124 27.1792 8.40553 27.4195 8.48418 27.6554C8.4667 27.6729 8.44922 27.686 8.43174 27.6991C8.41427 27.7123 8.39679 27.7254 8.37931 27.7428C8.04723 27.4894 7.71077 27.236 7.37432 26.9825C7.03787 26.7291 6.70141 26.4757 6.36933 26.2222C6.37807 26.196 6.38681 26.1742 6.39555 26.1523C6.40429 26.1305 6.41302 26.1086 6.42176 26.0824C6.5726 26.0824 6.72536 26.0805 6.87877 26.0786Z" fill="currentColor"/>
</g>
</g>
</svg>
