<svg width="32" height="32" viewBox="0 0 32 32" fill="none" xmlns="http://www.w3.org/2000/svg">
<g id="ty_icon_bf">
<path id="Subtract" fill-rule="evenodd" clip-rule="evenodd" d="M8.5 1C7.67163 1 7 1.67154 7 2.5V5.5H4C2.34308 5.5 1 6.84317 1 8.5V26.5C1 28.1568 2.34308 29.5 4 29.5H28C29.6569 29.5 31 28.1568 31 26.5V8.5C31 6.84317 29.6569 5.5 28 5.5H25V2.5C25 1.67154 24.3284 1 23.5 1C22.6716 1 22 1.67154 22 2.5V5.5H10V2.5C10 1.67154 9.32837 1 8.5 1ZM4 18.2306C4 21.6244 5.23083 23.3213 7.69232 23.3213C8.91821 23.3213 9.85809 22.8634 10.512 21.9477C11.1706 21.032 11.5 19.7151 11.5 17.9969C11.5 14.5465 10.2981 12.8213 7.89429 12.8213C6.62976 12.8213 5.66351 13.2839 4.99518 14.209C4.33179 15.1294 4 16.4699 4 18.2306ZM26.5 13V23.5H24.2137V15.5498C24.1572 15.5993 24.0956 15.6477 24.0292 15.6952C23.9481 15.7533 23.8596 15.8098 23.7637 15.865C23.5943 15.9604 23.4128 16.0488 23.2193 16.1299C23.0258 16.2064 22.8251 16.2732 22.6169 16.3305C22.4089 16.3831 22.2032 16.4212 22 16.4451V14.5399C22.5951 14.368 23.1565 14.1483 23.6838 13.881C24.2114 13.6136 24.688 13.3199 25.1137 13H26.5ZM6.31482 18.1739C6.31482 15.7431 6.80774 14.5276 7.79321 14.5276C8.71643 14.5276 9.17786 15.7077 9.17786 18.0677C9.17786 20.4279 8.70673 21.6079 7.76447 21.6079C6.79803 21.6079 6.31482 20.4632 6.31482 18.1739ZM16 9.25C15.5858 9.25 15.25 9.58579 15.25 10V25C15.25 25.4142 15.5858 25.75 16 25.75C16.4142 25.75 16.75 25.4142 16.75 25V10C16.75 9.58579 16.4142 9.25 16 9.25Z" fill="currentColor"/>
</g>
</svg>
