<svg width="32" height="32" viewBox="0 0 32 32" fill="none" xmlns="http://www.w3.org/2000/svg">
<g id="ty_icon_gz">
<path id="Subtract" fill-rule="evenodd" clip-rule="evenodd" d="M8 2C4.68629 2 2 4.68629 2 8V24C2 27.3137 4.68629 30 8 30H24C27.3137 30 30 27.3137 30 24V8C30 4.68629 27.3137 2 24 2H8ZM10.7231 16C9.8904 16 9.21538 15.321 9.21538 14.4833V12.9667H7.70769C6.87502 12.9667 6.2 12.2876 6.2 11.45C6.2 10.6124 6.87502 9.93333 7.70769 9.93333H9.21538V8.41667C9.21538 7.57904 9.8904 6.9 10.7231 6.9C11.5558 6.9 12.2308 7.57904 12.2308 8.41667V9.93333H13.7385C14.5711 9.93333 15.2462 10.6124 15.2462 11.45C15.2462 12.2876 14.5711 12.9667 13.7385 12.9667H12.2308V14.4833C12.2308 15.321 11.5558 16 10.7231 16ZM16.7538 19.0333C16.7538 18.1957 17.4289 17.5167 18.2615 17.5167H24.2923C25.125 17.5167 25.8 18.1957 25.8 19.0333C25.8 19.871 25.125 20.55 24.2923 20.55H18.2615C17.4289 20.55 16.7538 19.871 16.7538 19.0333ZM16.7538 23.5833C16.7538 22.7457 17.4289 22.0667 18.2615 22.0667H24.2923C25.125 22.0667 25.8 22.7457 25.8 23.5833C25.8 24.421 25.125 25.1 24.2923 25.1H18.2615C17.4289 25.1 16.7538 24.421 16.7538 23.5833ZM8.77379 23.2539C8.185 22.6616 8.185 21.7013 8.77379 21.109L21.8327 7.97239C22.4215 7.38009 23.3761 7.38009 23.9649 7.97239C24.5537 8.56468 24.5537 9.52498 23.9649 10.1173L10.906 23.2539C10.3172 23.8462 9.36258 23.8462 8.77379 23.2539Z" fill="currentColor"/>
</g>
</svg>
