<svg xmlns="http://www.w3.org/2000/svg" width="24" height="24" viewBox="0 0 24 24" fill="none">
  <path fill-rule="evenodd" clip-rule="evenodd" d="M10.6667 0C4.77565 0 0 4.77565 0 10.6667C0 16.5577 4.77565 21.3333 10.6667 21.3333C13.1316 21.3333 15.4013 20.4972 17.2075 19.0931L21.7239 23.6095C22.2446 24.1302 23.0888 24.1302 23.6095 23.6095C24.1302 23.0888 24.1302 22.2446 23.6095 21.7239L19.0931 17.2075C20.4972 15.4013 21.3333 13.1316 21.3333 10.6667C21.3333 4.77565 16.5577 0 10.6667 0ZM2.66667 10.6667C2.66667 6.24841 6.24841 2.66667 10.6667 2.66667C15.0849 2.66667 18.6667 6.24841 18.6667 10.6667C18.6667 15.0849 15.0849 18.6667 10.6667 18.6667C6.24841 18.6667 2.66667 15.0849 2.66667 10.6667Z" fill="currentColor"/>
</svg>