<svg width="32" height="32" viewBox="0 0 32 32" fill="none" xmlns="http://www.w3.org/2000/svg">
<g id="ty_icon_bsqgq">
<g id="&#229;&#134;&#176;&#228;&#184;&#138;&#230;&#155;&#178;&#230;&#163;&#141;&#231;&#144;&#131;">
<path d="M27.2527 2.76998C27.4626 2.28002 27.9522 2 28.5119 2C29.6312 2 30.3307 3.18997 29.8411 4.1C29.3569 4.99457 28.7933 6.02808 28.3406 6.85181C27.943 7.57496 27.6308 8.13636 27.5326 8.3C27.4176 8.50106 27.3147 8.69033 27.2137 8.87747C27.0687 9.14646 26.928 9.4111 26.763 9.7C26.5531 10.12 26.2734 10.61 26.0635 11.03C25.9586 11.2399 25.8364 11.4672 25.7141 11.6946C25.5916 11.9222 25.469 12.1498 25.364 12.36C25.0842 12.85 24.8043 13.41 24.5246 13.97C24.2448 14.39 24.0349 14.74 23.825 15.16C23.6852 15.37 23.5453 15.65 23.4053 15.93C23.3354 16.07 23.2654 16.14 23.1955 16.21H23.1255C23.0097 16.1328 22.8939 16.0768 22.7783 16.0187C22.6842 15.9715 22.5901 15.9228 22.496 15.86C22.0762 15.65 21.5866 15.37 21.0969 15.09C21.0131 15.048 20.9543 15.0061 20.8906 14.9641C20.8481 14.9361 20.8032 14.908 20.7472 14.88C20.7069 14.8398 20.6898 14.8227 20.6825 14.8021C20.6772 14.7869 20.6772 14.7698 20.6772 14.74C20.817 14.39 21.0269 13.97 21.2368 13.62C21.3767 13.34 21.5866 12.99 21.7265 12.71C22.0062 12.15 22.356 11.59 22.6359 11.03C22.8108 10.7501 22.968 10.4526 23.1253 10.1552C23.2828 9.85757 23.4403 9.56003 23.6151 9.28002C23.755 9.06998 23.8951 8.78997 24.0349 8.58002C24.2448 8.23002 26.3434 4.45 27.2527 2.76998Z" fill="currentColor"/>
<path fill-rule="evenodd" clip-rule="evenodd" d="M2.76931 8.71998C2.83933 8.50995 2.90918 8.36998 2.9792 8.22993C3.18909 7.80995 3.39881 7.45995 3.60871 7.10995C4.02849 6.47993 4.44811 5.91998 5.00777 5.42993L6.05706 4.58997C6.5467 4.23997 7.0365 3.95995 7.59599 3.75C7.78249 3.65669 8.03098 3.56346 8.27964 3.47015C8.40414 3.42341 8.52864 3.37667 8.64529 3.32993C8.87977 3.2127 9.1631 3.14459 9.41347 3.08444L9.55471 3.05C9.83462 2.97993 10.1844 2.97993 10.4641 2.90995C10.5719 2.87406 10.6979 2.85654 10.8235 2.848C10.9427 2.83997 11.0615 2.83997 11.1637 2.83997H12.0731C12.084 2.83997 12.0953 2.84039 12.1071 2.84116L12.1358 2.84373C12.1921 2.84988 12.255 2.86244 12.3178 2.875C12.4053 2.89243 12.4927 2.90995 12.5627 2.90995C12.7026 2.90995 12.9125 2.97993 13.1224 2.97993C13.1915 2.97993 13.2778 2.97993 13.3642 2.98839C13.4527 2.99702 13.5413 3.01454 13.612 3.05L13.6858 3.07888C13.7252 3.09392 13.7638 3.10811 13.8018 3.12152C13.8639 3.14357 13.9245 3.16356 13.9847 3.18202L14.0531 3.20236L14.1003 3.21577C14.2581 3.25969 14.4159 3.29481 14.5913 3.32993C14.8012 3.32993 14.941 3.4 15.1509 3.53997C15.5007 3.67993 15.8505 3.81998 16.1304 3.95995C16.3823 4.06078 16.598 4.19792 16.8294 4.34524C16.9194 4.40249 17.0118 4.46119 17.1097 4.51998L17.9491 5.15L18.7885 5.98997C18.9984 6.2 19.1382 6.40995 19.3481 6.40995C19.4181 6.47993 19.4181 6.61998 19.4181 6.68997V10.12C19.4181 10.2224 19.3807 10.2873 19.3333 10.3695C19.3158 10.3997 19.2971 10.4323 19.2783 10.47C19.192 10.5735 19.11 10.6771 19.0313 10.7807C18.9669 10.8653 18.9046 10.9499 18.844 11.0345C18.6778 11.2663 18.5232 11.4981 18.3688 11.7299C18.229 11.9398 18.0717 12.1497 17.9144 12.3595L17.9098 12.3664C17.7539 12.5743 17.5979 12.7822 17.4594 12.99C17.3693 13.1404 17.2791 13.2907 17.1944 13.4411C17.082 13.6407 16.9795 13.8404 16.8998 14.04L16.8993 14.0418C16.8718 14.1241 16.8443 14.2065 16.8212 14.2889C16.8043 14.349 16.7896 14.4089 16.779 14.469C16.7671 14.536 16.7599 14.603 16.7599 14.67V15.02C16.8299 15.2299 16.8299 15.44 16.8998 15.65L17.1097 16.2799C17.1097 16.3597 17.1097 16.394 17.0967 16.4088C17.0946 16.4113 17.0921 16.4132 17.0892 16.4147C17.0866 16.416 17.0837 16.417 17.0806 16.4177C17.0707 16.42 17.0574 16.42 17.0396 16.42C16.984 16.4478 16.9172 16.4646 16.8482 16.4747C16.7438 16.49 16.6342 16.49 16.55 16.49C16.2703 16.5599 16.0604 16.5599 15.7806 16.5599C15.7736 16.5599 15.7666 16.5606 15.7596 16.5619L15.7509 16.5638L15.7355 16.5683C15.7156 16.575 15.6956 16.585 15.6756 16.595C15.6406 16.6125 15.6056 16.6299 15.5707 16.6299H14.5214C14.4504 16.6299 14.4154 16.6299 14.3981 16.6116C14.3816 16.5938 14.3816 16.5588 14.3816 16.49V9.13997C14.3816 9 14.3115 8.78997 14.1016 8.71998H2.76931ZM15.9903 5.98997H15.7106C15.5007 6.05995 15.2908 6.26998 15.2908 6.47993C15.2908 6.68997 15.4309 6.82993 15.5707 6.9H16.2002C16.4802 6.9 16.55 6.82993 16.62 6.61998C16.6899 6.40995 16.55 6.12993 16.3401 6.05995C16.2002 5.98997 16.1304 5.98997 15.9903 5.98997ZM13.9618 5.98997C13.7519 6.05995 13.612 6.12993 13.542 6.40995C13.542 6.61998 13.612 6.82993 13.8219 6.82993C13.9618 6.9 14.1016 6.9 14.1717 6.9H14.5214C14.6613 6.9 14.8712 6.75995 14.941 6.47993C14.941 6.33997 14.8712 6.12993 14.7313 6.05995C14.6979 6.0432 14.6644 6.03047 14.6309 6.02081C14.593 6.00988 14.5553 6.00278 14.5175 5.99825C14.4489 5.98997 14.3802 5.98997 14.3115 5.98997H13.9618Z" fill="currentColor"/>
<path d="M6.05706 20.48C5.98704 20.34 5.98704 20.27 5.91719 20.13C5.77715 19.78 5.63727 19.36 5.4974 19.01C5.42738 18.87 5.42738 18.66 5.35753 18.52C5.28751 18.31 5.28751 18.1 5.28751 17.89C5.28751 17.75 5.28751 17.75 5.14764 17.75H2.13963C2.06978 17.75 1.99976 17.75 1.99976 17.89V18.17C2.06978 18.38 2.20965 18.59 2.34952 18.8C2.37616 18.8355 2.40161 18.8722 2.4262 18.9097C2.4648 18.9683 2.50118 19.0289 2.5367 19.0904L2.5893 19.1831L2.62926 19.255C2.66137 19.3128 2.69348 19.3705 2.72627 19.4275C2.78314 19.5257 2.84257 19.6214 2.90918 19.71C2.97903 19.8499 3.04888 19.9724 3.11873 20.0948C3.18875 20.2173 3.25877 20.3399 3.32879 20.48H6.05706Z" fill="currentColor"/>
<path d="M19.6627 22.2299C19.6279 22.2125 19.5929 22.195 19.5578 22.16C19.4501 22.1061 19.3423 22.0419 19.2306 21.9752C19.0523 21.8687 18.8638 21.7561 18.6486 21.67C18.4389 21.5302 18.2117 21.3903 17.9846 21.2504L17.7298 21.093C17.6587 21.0488 17.5882 21.0045 17.519 20.9602C17.4512 20.9168 17.3844 20.8734 17.3194 20.83H17.1795V20.9C17.0743 21.0754 16.9691 21.2684 16.8641 21.4613C16.7976 21.5832 16.7312 21.7049 16.6648 21.8223L16.6192 21.9019C16.5961 21.942 16.5731 21.9814 16.55 22.02C16.3401 22.4401 15.9903 22.86 15.5706 23.1401C15.1509 23.42 14.5913 23.63 14.1016 23.63H11.863C11.8 23.63 11.7559 23.63 11.725 23.6339C11.6977 23.6372 11.6808 23.6435 11.6704 23.6556C11.6673 23.659 11.6649 23.6629 11.6629 23.6674C11.6598 23.674 11.6576 23.6819 11.6562 23.6912C11.6545 23.7021 11.6538 23.715 11.6535 23.7302L11.6533 23.77C11.6236 23.8888 11.5812 24.0077 11.537 24.1319C11.477 24.3003 11.4137 24.4785 11.3734 24.68C11.3387 24.8536 11.2868 25.0271 11.2349 25.2007L11.2057 25.2983C11.163 25.4422 11.1223 25.5861 11.0936 25.73L10.8837 26.36C10.8487 26.5349 10.7963 26.6923 10.7439 26.8496C10.6914 27.0072 10.639 27.1649 10.604 27.3401C10.464 27.76 10.3241 28.18 10.1842 28.67C10.1142 29.02 9.97432 29.3 9.90447 29.65C9.90447 29.7201 9.88688 29.7726 9.86929 29.8251C9.86143 29.8489 9.85358 29.8728 9.84726 29.8982C9.83975 29.9288 9.83445 29.9618 9.83445 30H14.4514C14.7312 29.93 15.0109 29.93 15.2208 29.7901C15.6406 29.58 16.0602 29.3 16.3401 28.88C16.48 28.67 16.6199 28.46 16.6899 28.25C16.7621 28.1416 16.8296 28.0286 16.8948 27.9133L16.9481 27.8185L17.0002 27.7231L17.0746 27.5849C17.1971 27.3574 17.3194 27.1299 17.4593 26.92C17.5568 26.7493 17.6457 26.5871 17.7322 26.4275L17.8452 26.2178C17.9673 25.991 18.0894 25.7642 18.2288 25.52C18.3335 25.3105 18.4382 25.1184 18.5429 24.9264C18.6481 24.7334 18.7533 24.5405 18.8583 24.33C18.9569 24.133 19.0708 23.9205 19.1855 23.7071L19.2255 23.633C19.2923 23.5085 19.359 23.3843 19.4228 23.2632C19.4699 23.1734 19.5153 23.0853 19.5578 23C19.6279 22.7901 19.7677 22.65 19.8378 22.4401C19.8678 22.4098 19.8851 22.3926 19.8835 22.3772C19.8823 22.3646 19.8687 22.3532 19.8391 22.3367L19.8268 22.3301L19.7975 22.315L19.7677 22.3C19.7556 22.2879 19.7435 22.2779 19.7314 22.2692L19.7206 22.2617L19.7083 22.2541L19.6986 22.2485C19.6866 22.2419 19.6747 22.2359 19.6627 22.2299Z" fill="currentColor"/>
<path d="M8.36537 23.7H5.91702C5.63727 23.7 5.35736 23.77 5.14764 23.84C5.11434 23.8512 5.07915 23.8623 5.04346 23.8735L5.04039 23.8745C4.8503 23.9346 4.63512 24.0028 4.51796 24.12L4.51642 24.121C4.43359 24.1832 4.35076 24.2455 4.26964 24.3096C4.18322 24.378 4.09869 24.4484 4.01859 24.5231C3.99143 24.5485 3.96479 24.5743 3.93866 24.6008C3.91748 24.6223 3.89665 24.6441 3.87615 24.6664C3.83141 24.7154 3.78871 24.7664 3.74858 24.82C3.46867 25.24 3.32879 25.66 3.18892 26.15C3.1189 26.36 3.04905 26.57 3.04905 26.71C3.04905 26.7767 3.03317 26.8593 3.0166 26.9426C2.99833 27.0342 2.97903 27.1267 2.97903 27.2C2.97903 27.41 2.97903 27.62 3.04905 27.76L3.25877 28.39C3.46867 28.88 3.81843 29.23 4.30807 29.51C4.58798 29.72 4.93775 29.86 5.28751 29.86C5.35736 29.86 5.4974 29.86 5.63727 29.93H6.61655L6.68657 29.86C6.71321 29.8067 6.73985 29.7433 6.76257 29.6774C6.79963 29.5703 6.82644 29.4567 6.82644 29.37L7.03633 28.53C7.10618 28.25 7.17621 27.97 7.24623 27.76L7.28943 27.5893C7.34733 27.3662 7.41462 27.1431 7.52597 26.92L7.52751 26.9128C7.58062 26.7004 7.63373 26.4883 7.68685 26.3071C7.70324 26.2515 7.71947 26.1989 7.73586 26.15L7.7374 26.1446C7.80674 25.9364 7.87625 25.7276 7.94576 25.45L7.94781 25.4421C8.01697 25.1646 8.08631 24.8866 8.15548 24.54L8.36537 23.7Z" fill="currentColor"/>
<path d="M29.0368 27.6197C29.1591 27.5498 29.2814 27.4799 29.4213 27.4099L29.425 27.4068L29.4305 27.4029C29.4346 27.4001 29.4402 27.3967 29.4476 27.3929C29.464 27.3845 29.4892 27.3741 29.5263 27.3647C29.5799 27.3512 29.6585 27.34 29.771 27.34V28.32C29.771 28.67 29.6312 28.95 29.3513 29.1599C29.0715 29.44 28.7217 29.5799 28.302 29.72C27.953 29.7898 27.6738 29.8596 27.3946 29.9294L27.3925 29.9299C27.1828 30 27.0428 30 26.833 30H26.2034C26.139 29.9871 26.077 29.9766 26.017 29.9676C25.924 29.9536 25.8353 29.9432 25.7499 29.9332C25.6702 29.9239 25.593 29.9148 25.5172 29.9034C25.4418 29.8921 25.3679 29.8785 25.2939 29.8599C25.2446 29.8501 25.1968 29.8403 25.1501 29.8302C25.0916 29.8176 25.035 29.8047 24.9799 29.7912L24.9097 29.7731L24.8649 29.7611C24.8021 29.7437 24.741 29.7249 24.681 29.7041C24.5804 29.6692 24.4826 29.6289 24.3847 29.5799C24.2773 29.5262 24.1699 29.4724 24.0664 29.4147C23.9002 29.3221 23.7444 29.2193 23.6151 29.09C23.4053 28.8799 23.2654 28.6 23.2654 28.32V27.34H23.3354C23.3661 27.363 23.3977 27.3853 23.43 27.4068C23.4719 27.4346 23.5151 27.461 23.5591 27.4865C23.6418 27.5342 23.728 27.5782 23.8168 27.6198C23.915 27.6658 24.0161 27.7088 24.1184 27.7507C24.1835 27.7775 24.2491 27.8037 24.3147 27.8299C24.5944 27.97 24.8743 28.04 25.2241 28.1099C25.6459 28.2155 26.1074 28.2017 26.5487 28.1885L26.5554 28.1882C26.6974 28.184 26.8373 28.1799 26.9729 28.1799C27.078 28.1799 27.2002 28.1624 27.3227 28.1449L27.3252 28.1446C27.3954 28.1346 27.4653 28.1246 27.5321 28.118C27.5811 28.113 27.6282 28.1099 27.6725 28.1099C28.0222 28.04 28.302 27.97 28.6517 27.8299C28.7918 27.7599 28.9144 27.6898 29.0368 27.6197Z" fill="currentColor"/>
<path d="M2.1398 13.2701H3.04905C3.18909 13.2701 3.32896 13.3401 3.39881 13.41C3.47874 13.4899 3.53595 13.5926 3.57011 13.7052C3.5959 13.7898 3.60871 13.8799 3.60871 13.9701C3.60871 14.0401 3.53886 14.11 3.46884 14.11H2.1398C2.11896 14.11 2.10445 14.11 2.0942 14.1118C2.08549 14.1134 2.08002 14.1162 2.07644 14.1213C2.06978 14.1308 2.06978 14.1481 2.06978 14.18V16.7701C2.29794 16.7701 2.52594 16.7701 2.74284 16.7588C2.8091 16.7554 2.87434 16.7509 2.93821 16.745C3.0499 16.7348 3.15733 16.7203 3.25894 16.7C3.29003 16.7 3.33477 16.6862 3.38122 16.6648C3.43929 16.638 3.49992 16.599 3.53886 16.56C3.54449 16.5543 3.54979 16.5486 3.55457 16.5429C3.5614 16.5348 3.56755 16.5268 3.57301 16.5188C3.57933 16.5094 3.58497 16.5 3.59026 16.4906L3.59931 16.4734L3.60854 16.4551C3.62613 16.4201 3.64372 16.385 3.67873 16.35C3.8186 16.0701 4.02849 15.93 4.37826 15.93H5.14764C5.16933 15.93 5.18436 15.93 5.1946 15.928C5.21766 15.9233 5.21766 15.9083 5.21766 15.86V11.8C5.21766 11.7776 5.21766 11.7552 5.21988 11.7328C5.22483 11.6852 5.24003 11.6376 5.28768 11.5901C5.35753 11.31 5.4974 11.03 5.56742 10.8201C5.63745 10.6451 5.68988 10.4876 5.74231 10.3301C5.77441 10.2336 5.80652 10.1372 5.84256 10.0369L5.87654 9.94464C5.88952 9.91046 5.90301 9.8756 5.91719 9.84005C5.91719 9.81117 5.92914 9.7822 5.94332 9.74819L5.94434 9.74563C5.96398 9.69803 5.98721 9.64061 5.98721 9.56003H2.48956L2.45985 9.56038L2.44892 9.56114L2.44328 9.562C2.42825 9.56482 2.42279 9.57183 2.42074 9.589L2.41971 9.60225L2.41954 9.63002C2.3941 9.70632 2.36865 9.79177 2.34662 9.87979C2.30802 10.0342 2.27967 10.1963 2.27967 10.33C2.27967 10.4 2.26225 10.4699 2.24483 10.5398L2.24432 10.5418L2.24022 10.5577C2.22434 10.6218 2.20965 10.6859 2.20965 10.75C2.20965 10.8542 2.1924 10.9411 2.17515 11.028L2.17464 11.03C2.16883 11.0593 2.16302 11.0886 2.1579 11.1185C2.15397 11.1415 2.15039 11.1649 2.14748 11.189L2.1439 11.2219C2.14134 11.25 2.1398 11.2793 2.1398 11.31C2.1398 11.3902 2.13416 11.4703 2.12596 11.5489C2.11879 11.6172 2.10974 11.6843 2.10103 11.7491L2.10001 11.7552L2.09847 11.7686C2.0889 11.842 2.07968 11.9122 2.07439 11.9776C2.07148 12.0132 2.06978 12.0475 2.06978 12.08V13.06C1.99976 13.2701 1.99976 13.2701 2.1398 13.2701Z" fill="currentColor"/>
<path d="M25.0842 27.13C24.6644 27.0599 24.2447 26.92 23.8949 26.7099C23.6852 26.64 23.4753 26.5 23.3354 26.22C23.1255 25.94 23.0555 25.59 23.2654 25.24C23.3354 25.1 23.4053 24.9599 23.5451 24.89C23.8949 24.6099 24.2447 24.47 24.6644 24.33C24.7695 24.295 24.8919 24.2775 25.0144 24.2599C25.1367 24.2424 25.2591 24.2249 25.364 24.19C25.4787 24.1517 25.5935 24.1343 25.7083 24.1265L25.7446 24.1243L25.779 24.1227L25.8543 24.1208C25.9007 24.12 25.9472 24.12 25.9935 24.12H26.9729C27.3227 24.19 27.6725 24.2599 27.9522 24.33C28.2321 24.4 28.5119 24.47 28.7217 24.6099C28.7673 24.6404 28.8162 24.6708 28.8662 24.7019C28.9441 24.7503 29.0247 24.8005 29.1 24.8551C29.1993 24.927 29.2891 25.0065 29.3513 25.1C29.4911 25.3099 29.5611 25.59 29.4911 25.87C29.4213 26.08 29.2814 26.29 29.0715 26.43C28.7217 26.7099 28.302 26.85 27.8823 26.99C27.8019 27.0222 27.7252 27.0506 27.6504 27.0754C27.5555 27.1069 27.4639 27.1324 27.372 27.152C27.3239 27.1622 27.2757 27.1708 27.227 27.1777L27.1859 27.1832C27.095 27.1944 27.0018 27.2 26.9029 27.2C26.693 27.27 26.4833 27.27 26.2734 27.27C25.9069 27.27 25.5937 27.2167 25.2408 27.1565L25.0842 27.13Z" fill="currentColor"/>
<path d="M22.6359 17.19C22.2161 16.9099 21.8663 16.7 21.4465 16.49C21.3545 16.4163 21.2577 16.3475 21.1586 16.281C21.0693 16.2211 20.9781 16.163 20.8867 16.1048C20.6944 15.9824 20.5021 15.8599 20.3274 15.72H20.1875C20.1575 15.75 20.1404 15.78 20.125 15.81C20.1045 15.85 20.0874 15.89 20.0475 15.93C19.9076 16.2099 19.7677 16.49 19.5578 16.77C19.2781 17.19 18.9982 17.68 18.7184 18.1L18.6986 18.1269L18.6672 18.1716C18.6532 18.192 18.6397 18.2127 18.6262 18.2336L18.5909 18.2898C18.5381 18.376 18.4884 18.4655 18.4387 18.5549L18.4068 18.6126L18.355 18.7042C18.3398 18.7307 18.3244 18.757 18.3087 18.7832L18.2836 18.8246L18.2614 18.8602C18.244 18.8878 18.2262 18.9148 18.208 18.9414L18.1832 18.9765L18.1588 19.0099L18.125 19.0763L18.0729 19.1754L18.0128 19.2862L17.9103 19.4715L17.9021 19.4865C17.8539 19.5731 17.8059 19.6596 17.7612 19.7429C17.7284 19.804 17.6973 19.8634 17.6691 19.92V20.0599C17.809 20.13 17.879 20.2 18.0189 20.27C18.1142 20.3336 18.2095 20.3935 18.3046 20.4516C18.4192 20.5213 18.5338 20.5881 18.6484 20.6549C18.819 20.7546 18.9896 20.8542 19.1603 20.9631L19.2187 21.0007L19.2781 21.04C19.3018 21.0519 19.3256 21.0644 19.3493 21.0772L19.4016 21.106L19.4728 21.147L19.5399 21.1873C19.5925 21.2192 19.6451 21.2521 19.6977 21.285L19.772 21.3316C19.8094 21.3548 19.8468 21.3777 19.8842 21.4001C19.9621 21.4468 20.0398 21.4911 20.1175 21.53H20.1875C20.1875 21.4961 20.2039 21.4622 20.2208 21.4282L20.2229 21.4241C20.2401 21.3894 20.2574 21.3547 20.2574 21.32C20.5373 20.7599 20.8871 20.2 21.1668 19.64L22.0062 18.17C22.1461 17.89 22.2861 17.6099 22.426 17.4L22.428 17.399C22.5447 17.3405 22.6125 17.3065 22.6465 17.2817C22.6933 17.2475 22.6762 17.2304 22.6359 17.19Z" fill="currentColor"/>
<path d="M9.97432 9.98002L9.76443 10.61C9.62456 10.8901 9.55454 11.17 9.41467 11.38C9.40254 11.4284 9.39041 11.4747 9.37863 11.5196C9.32261 11.7347 9.27479 11.9183 9.27479 12.15V13.2C9.27479 13.27 9.27479 13.27 9.20477 13.27H6.19693L6.172 13.2698C6.16414 13.2696 6.15765 13.2692 6.15219 13.2683L6.14484 13.2666C6.14109 13.2653 6.13801 13.2636 6.13562 13.2612C6.12691 13.2525 6.12691 13.2349 6.12691 13.2V12.01C6.12691 11.87 6.19693 11.8 6.19693 11.66C6.26678 11.38 6.40665 11.1 6.47668 10.82L6.68657 10.1901C6.68657 10.1049 6.71236 9.99412 6.74822 9.88884C6.77145 9.82074 6.79894 9.75494 6.82644 9.7C6.87528 9.65112 6.89014 9.63643 6.91832 9.63198C6.93062 9.63002 6.94531 9.63002 6.96631 9.63002H10.0443C10.0443 9.70581 10.0443 9.7611 10.0332 9.81809C10.0283 9.84347 10.0211 9.86927 10.0107 9.8973L10.0054 9.91123L9.99584 9.93396C9.98952 9.94849 9.98235 9.96378 9.97432 9.98002Z" fill="currentColor"/>
<path d="M10.1842 20.48C10.1142 20.4099 10.1142 20.34 10.1142 20.2C10.0918 20.1437 10.0676 20.0856 10.0421 20.0263L10.0134 19.9601L9.97484 19.8729C9.94051 19.796 9.90498 19.718 9.86946 19.64L9.80508 19.4979L9.75077 19.3766C9.70551 19.2745 9.66247 19.1747 9.62456 19.08C9.55454 18.8 9.41467 18.52 9.34481 18.24C9.30673 18.1256 9.28931 17.9905 9.28145 17.8573C9.27923 17.8197 9.2777 17.7823 9.27667 17.7455C9.27582 17.7113 9.27531 17.6776 9.27514 17.645L9.27479 17.54V17.19C9.27479 17.12 9.27479 17.12 9.20477 17.12H6.19693C6.12691 17.12 6.12691 17.12 6.12691 17.19V17.75C6.12691 17.9227 6.15355 18.122 6.19027 18.3152C6.21316 18.4351 6.23997 18.5527 6.26678 18.6599C6.3368 18.8701 6.42425 19.0801 6.51169 19.2901C6.59913 19.5001 6.68657 19.71 6.75642 19.92C6.83054 19.9942 6.88502 20.0683 6.93028 20.1529C6.97058 20.2279 7.00337 20.3113 7.03633 20.4099C7.03633 20.48 7.10618 20.48 7.17621 20.48H10.1842Z" fill="currentColor"/>
<path d="M13.4019 9.7C13.472 9.7 13.472 9.7 13.472 9.76998V12.08C13.472 12.15 13.472 12.22 13.4019 12.22C13.2269 12.2901 13.0518 12.3426 12.8768 12.3951C12.7021 12.4475 12.5274 12.5 12.3527 12.57L12.1407 12.6233C12.0321 12.6509 11.9264 12.6785 11.8278 12.7061C11.7397 12.7307 11.6572 12.7554 11.5833 12.78C11.5469 12.7891 11.5105 12.7993 11.4741 12.8105C11.425 12.8256 11.3758 12.8423 11.3266 12.8599C11.2721 12.8793 11.2176 12.8997 11.1631 12.9202C11.0233 12.9726 10.8836 13.025 10.7439 13.06C10.7304 13.0668 10.7169 13.0729 10.7034 13.0784C10.6824 13.087 10.6616 13.0945 10.6407 13.101L10.5987 13.1134L10.5342 13.1299C10.4641 13.1474 10.3941 13.165 10.3241 13.2V11.94C10.464 11.59 10.6038 11.17 10.7439 10.82C10.8137 10.54 10.9536 10.26 11.0236 9.98002C11.0236 9.91003 11.0936 9.83997 11.0936 9.76998L11.0938 9.74366L11.0948 9.72794C11.0957 9.72196 11.0969 9.71726 11.0988 9.71359C11.0998 9.71171 11.101 9.71008 11.1025 9.70872C11.1068 9.70453 11.1129 9.70231 11.1222 9.7012L11.1413 9.70009L11.1635 9.7H13.4019Z" fill="currentColor"/>
<path d="M13.472 15.9299C13.4019 16.07 13.472 16.07 13.472 16.07V15.9299Z" fill="currentColor"/>
<path d="M13.472 15.9299V12.99H13.4019L12.7724 13.2C12.6973 13.2251 12.6129 13.2592 12.5262 13.2958L12.3089 13.3884C12.2645 13.407 12.2208 13.425 12.1788 13.4413C12.1421 13.4556 12.1066 13.4687 12.0729 13.4799C11.7932 13.62 11.5133 13.69 11.2335 13.7599C11.0935 13.795 10.9536 13.8475 10.8137 13.9001C10.6739 13.9526 10.534 14.005 10.3941 14.04C10.3622 14.04 10.3448 14.0546 10.3354 14.0705C10.3302 14.079 10.3275 14.0881 10.326 14.0953C10.3241 14.1039 10.3241 14.1099 10.3241 14.1099V15.8599C10.3241 15.89 10.3241 15.9072 10.3297 15.9169C10.3326 15.9222 10.3371 15.9252 10.3441 15.9271C10.3545 15.9299 10.3702 15.9299 10.3941 15.9299H13.472Z" fill="currentColor"/>
<path d="M10.2542 18.1V17.5401C10.2542 17.4701 10.2542 17.33 10.3243 17.33C10.3243 17.3164 10.3243 17.3055 10.3248 17.2967C10.3263 17.2705 10.3323 17.263 10.3559 17.2609C10.3654 17.26 10.3779 17.26 10.3941 17.26C10.674 17.26 11.0238 17.33 11.3035 17.4701C11.4723 17.5968 11.6666 17.698 11.871 17.8045C11.9423 17.8416 12.0148 17.8794 12.0879 17.919C12.1527 17.9542 12.2177 17.9909 12.2828 18.03C12.3528 18.0651 12.4184 18.1044 12.4807 18.1472C12.5709 18.2089 12.6543 18.2776 12.734 18.3499C12.8196 18.4272 12.901 18.5086 12.9823 18.5901C13.122 18.7298 13.1919 18.9392 13.2617 19.1487L13.2622 19.15V19.36C13.2622 19.3912 13.2484 19.4363 13.2269 19.4828C13.1999 19.5408 13.1611 19.6013 13.1224 19.6401L12.7026 20.2701C12.6876 20.2851 12.6758 20.3001 12.6659 20.3152C12.6526 20.3352 12.6425 20.3552 12.6324 20.3752C12.615 20.4101 12.5976 20.4451 12.5627 20.48C12.5627 20.55 12.4927 20.55 12.4228 20.55H11.3035C11.2335 20.55 11.1637 20.48 11.1637 20.41C11.0942 20.2711 11.0248 20.0631 10.9553 19.8546L10.9538 19.85C10.8139 19.5701 10.674 19.2201 10.534 18.9401C10.3945 18.6607 10.3246 18.3814 10.2547 18.1021L10.2542 18.1Z" fill="currentColor"/>
<path d="M9.27479 14.1099H6.19693C6.12691 14.1099 6.12691 14.1099 6.12691 14.1799V15.9299C6.12691 15.9644 6.12691 15.9819 6.13528 15.9908C6.14382 16 6.16124 16 6.19693 16H9.27479V14.1099Z" fill="currentColor"/>
<path d="M9.27479 14.1099V14.04C9.30571 14.0708 9.30929 14.0881 9.30366 14.0977C9.29665 14.1099 9.27479 14.1099 9.27479 14.1099Z" fill="currentColor"/>
</g>
</g>
</svg>
