<svg width="32" height="32" viewBox="0 0 32 32" fill="none" xmlns="http://www.w3.org/2000/svg">
<g id="ty_icon_lq">
<g id="ty_icon_lq_2">
<path d="M23.9765 11.7437C24.3812 9.85888 25.2373 8.30118 27.1205 7.4756C24.1789 3.55019 19.4318 1.86788 16.0855 2.00806C18.2334 4.71847 18.8559 7.94291 19.2606 11.1985C19.8969 11.2727 20.5258 11.3444 21.1504 11.4157C22.0993 11.5239 23.0379 11.631 23.9765 11.7437Z" fill="currentColor"/>
<path d="M14.6095 11.4309C13.8102 11.4976 13.007 11.5645 12.1944 11.6347C11.2295 8.27002 8.72361 7.02386 5.3773 6.85251L5.45209 6.76599L5.50452 6.70516C5.65431 6.53139 5.79118 6.37262 5.93763 6.21386C7.9921 4.14212 10.4824 2.81807 13.3462 2.22614C13.5018 2.19499 13.7353 2.25729 13.8754 2.35076C15.0582 3.16076 15.7119 4.36019 16.2411 5.65308C16.9571 7.42886 17.3462 9.2981 17.533 11.1829C16.561 11.2682 15.5938 11.3489 14.6209 11.4299L14.6095 11.4309Z" fill="currentColor"/>
<path d="M14.3112 29.9221C16.8637 24.5636 17.8598 18.9091 17.6886 13.0054L17.6348 12.9899C17.5631 12.9691 17.5273 12.9587 17.5018 12.9587C16.6949 13.0208 15.8918 13.0868 15.0888 13.1528L15.0816 13.1534C14.2761 13.2196 13.4707 13.2858 12.6614 13.3481C12.4279 13.3637 12.3657 13.4883 12.3657 13.7064C12.3034 15.4354 11.7275 16.9931 10.8715 18.473C9.53298 20.7784 7.64969 22.5386 5.40846 23.9561C5.29052 24.0378 5.17257 24.1142 5.0485 24.1946L5.04634 24.196L5.04109 24.1994C4.99337 24.2303 4.94473 24.2618 4.8948 24.2945C4.85418 24.321 4.81276 24.3483 4.77031 24.3766C7.22947 27.5076 10.3734 29.3457 14.3112 29.9221Z" fill="currentColor"/>
<path d="M19.4162 13.021C19.5563 18.9403 18.6225 24.6103 16.1633 29.9999C21.5797 30.0155 26.7314 26.5574 28.7236 21.7909C26.2956 19.5478 24.3189 17.0399 23.9143 13.5974C22.4357 13.2547 20.9571 13.0366 19.4162 13.021Z" fill="currentColor"/>
<path d="M10.6847 13.6908C10.0777 18.0835 7.33841 20.7628 3.83646 22.9436C2.60687 20.7628 2.01546 18.4418 1.99988 15.9651C4.81702 15.0772 7.66524 14.236 10.6847 13.6908Z" fill="currentColor"/>
<path d="M6.30337 12.9431C7.68857 12.5888 9.0738 12.2344 10.4668 11.8839C10.1088 10.6689 9.3773 9.76541 8.2411 9.20464C6.94927 8.56598 5.57965 8.53483 4.17887 8.67502C4.10105 8.6906 3.99207 8.79963 3.9454 8.8931C3.19831 10.1548 2.65357 11.51 2.3267 12.9431C2.26594 13.1763 2.23152 13.4094 2.19774 13.6383L2.19762 13.639C2.17954 13.7616 2.16164 13.8829 2.13994 14.0024C3.53293 13.6519 4.91817 13.2975 6.30337 12.9431Z" fill="currentColor"/>
<path d="M25.7197 14.0958C27.245 14.5787 28.5991 15.2641 29.8598 16.0897C29.9376 16.1364 29.9999 16.2766 29.9999 16.3701C29.9843 17.6006 29.7664 18.8001 29.3929 20.0618C27.6497 18.3795 26.2645 16.5414 25.7197 14.0958Z" fill="currentColor"/>
<path d="M26.9182 9.62521C26.1711 10.3262 25.8131 11.2141 25.6886 12.1798C27.0871 12.7708 28.47 13.3617 29.8529 13.9682C29.8527 13.9745 29.8544 13.9766 29.8598 13.9712C29.8575 13.9702 29.8552 13.9692 29.8529 13.9682C29.8532 13.9562 29.8598 13.9292 29.8598 13.9089C29.6419 12.4758 29.1905 11.105 28.5524 9.79657C28.1322 8.93983 27.8987 8.87752 27.1205 9.45387C27.0583 9.5006 26.9804 9.56291 26.9182 9.62521Z" fill="currentColor"/>
</g>
</g>
</svg>
