<svg width="32" height="32" viewBox="0 0 32 32" fill="none" xmlns="http://www.w3.org/2000/svg">
<g id="ty_icon_pq">
<g id="&#230;&#142;&#146;&#231;&#144;&#131;">
<path d="M17.55 2.21526C17.1687 2.13247 16.804 2.06623 16.4227 2H15.0136C14.9639 2.03312 14.8976 2.06623 14.8478 2.06623C11.8141 2.33116 9.14506 3.44056 6.8739 5.46067C6.11132 6.13955 5.41505 6.90123 4.81825 7.82849C5.73003 8.68952 6.64181 9.55055 7.58675 10.4281C9.7916 6.27202 13.1072 3.57303 17.55 2.21526Z" fill="currentColor"/>
<path d="M15.345 17.0845C16.091 17.3826 16.2402 17.8131 16.2568 18.5251C16.29 20.5286 16.1408 22.5322 15.8092 24.5854C15.6153 24.5854 15.4232 24.5891 15.2317 24.5928C14.8504 24.6001 14.4713 24.6074 14.0851 24.5854C11.5653 24.4529 9.17808 23.7906 7.00639 22.466C5.08336 21.3069 3.50846 19.767 2.33143 17.8462C2.22527 17.6659 2.1667 17.4585 2.10782 17.25C2.07476 17.1329 2.04161 17.0155 1.99988 16.9024V15.1638C2.02473 15 2.04809 14.8376 2.07129 14.6764C2.1255 14.2997 2.1789 13.9286 2.24855 13.5576C2.53037 11.9349 3.12717 10.4447 4.0058 9.03723C4.02238 9.02068 4.05553 8.98756 4.10526 8.95444C4.37878 9.22763 4.64797 9.5037 4.91667 9.77925C5.55994 10.4389 6.20046 11.0958 6.89034 11.7031C7.62448 12.3631 8.44965 12.9451 9.2622 13.5182C9.36707 13.5921 9.47172 13.666 9.57595 13.7398C11.3995 15.0479 13.2728 16.2401 15.345 17.0845Z" fill="currentColor"/>
<path d="M23.4021 12.0012C23.6176 11.9018 23.6839 11.9515 23.8 12.1171C25.0102 13.8888 25.8059 15.8096 26.1043 17.9456C26.5685 20.9592 26.1706 23.8569 24.7615 26.589C24.5957 26.9201 24.2641 27.2347 23.9492 27.4666C22.1422 28.7747 20.1197 29.5529 17.9148 29.8344C17.716 29.8592 17.5213 29.8882 17.3266 29.9171C17.132 29.9461 16.9366 29.9751 16.7378 30H15.9918C16.0898 29.6497 16.1926 29.301 16.2952 28.953C16.5224 28.1823 16.7489 27.4143 16.9202 26.6386C17.1025 25.7942 17.1688 24.9166 17.2186 24.0556C17.3346 21.9527 17.4175 19.8498 17.4672 17.7469C17.4801 17.1802 17.4228 16.6136 17.3655 16.0469C17.3491 15.885 17.3328 15.7231 17.318 15.5612C17.2849 15.23 17.3346 15.0313 17.6662 14.8326C19.5063 13.7232 21.4293 12.8291 23.4021 12.0012Z" fill="currentColor"/>
<path d="M3.02785 21.1413C3.05778 21.2235 3.07758 21.2855 3.09335 21.3348C3.11251 21.3948 3.12571 21.4361 3.1439 21.4724C4.95088 25.5292 8.0012 28.2116 12.2451 29.4866C12.7478 29.6317 13.2579 29.7316 13.7706 29.832C14.0187 29.8806 14.2676 29.9294 14.5163 29.9834H14.6821C14.783 29.5696 14.8839 29.1542 14.9853 28.7365C15.2005 27.8505 15.4183 26.9539 15.6436 26.0425C10.7531 26.1915 6.57551 24.5854 3.02785 21.1413Z" fill="currentColor"/>
<path d="M28.8229 10.511C29.3368 11.6204 29.6849 12.7629 29.8507 13.9717C29.8654 14.0694 29.8815 14.1686 29.8978 14.2688C29.9367 14.5081 29.9765 14.7532 29.9999 14.9983V16.6541C29.9501 17.0681 29.9004 17.482 29.8341 17.896C29.5025 20.2307 28.6073 22.317 27.1153 24.1715C28.2426 19.6015 27.4966 15.3626 24.9602 11.3389C25.0748 11.3034 25.1885 11.2679 25.3014 11.2326C25.6622 11.1198 26.0158 11.0093 26.3693 10.9084C26.5707 10.8481 26.772 10.7893 26.9729 10.7306C27.4336 10.596 27.8919 10.4622 28.3421 10.3123C28.5908 10.2295 28.7068 10.2792 28.8229 10.511Z" fill="currentColor"/>
<path d="M8.74706 11.3057C9.3936 9.91477 10.2556 8.65634 11.3166 7.54694C13.4717 5.27847 16.0745 3.8379 19.0916 3.19213C19.2823 3.15073 19.4812 3.12176 19.6801 3.09278C19.8791 3.0638 20.078 3.03483 20.2687 2.99343C20.784 2.88425 21.211 3.08359 21.6468 3.287C21.6737 3.29954 21.7006 3.3121 21.7275 3.3246C24.3137 4.50023 26.3859 6.2554 27.8116 8.72257C27.8309 8.75151 27.8446 8.78607 27.8592 8.82297C27.8697 8.84942 27.8806 8.87707 27.8945 8.90472C23.0869 10.1631 18.7767 12.4482 14.6653 15.2134C13.2397 14.5345 9.49306 12.0673 8.74706 11.3057Z" fill="currentColor"/>
</g>
</g>
</svg>
