<svg width="32" height="32" viewBox="0 0 32 32" fill="none" xmlns="http://www.w3.org/2000/svg">
<g id="ty_icon_ymq">
<g id="&#231;&#190;&#189;&#230;&#175;&#155;&#231;&#144;&#131;">
<path d="M25.5105 13.7301C26.7552 14.0255 27.9998 14.3054 29.2445 14.5852C29.9913 14.7562 30.0691 15.3315 29.9602 15.8135C29.828 16.4898 29.6879 17.1622 29.5479 17.8346C29.4079 18.5071 29.2679 19.1795 29.1356 19.8559C29.0578 20.2601 28.8556 20.5244 28.4355 20.6643C23.7214 22.2346 19.0069 23.805 14.3084 25.3908C14.075 25.4685 13.8261 25.624 13.6394 25.795C13.3864 26.0187 13.1455 26.2606 12.9092 26.498C12.7677 26.6401 12.6279 26.7805 12.488 26.9145L5.08221 19.5138C5.08221 19.5138 5.08221 19.4983 5.09777 19.4983C6.38225 18.5922 6.83011 17.2021 7.28246 15.7981C7.29584 15.7566 7.30922 15.7151 7.32263 15.6735C8.02706 13.5024 8.75001 11.3312 9.4738 9.15745C10.0769 7.34635 10.6805 5.53349 11.2745 3.71742C11.4923 3.06442 11.9591 2.89339 12.5347 2.78456C13.9661 2.5358 15.3975 2.28703 16.8289 2.02273C17.5757 1.89835 18.0269 2.28704 18.1202 3.12661C18.1556 3.48565 18.1976 3.84245 18.2395 4.19872C18.3084 4.78354 18.3771 5.36691 18.4158 5.95628C18.4314 6.20504 18.338 6.50044 18.198 6.70256C15.3664 10.4962 12.5192 14.2898 9.62528 18.099C9.43895 18.3348 9.26254 18.5707 9.08021 18.8144C9.03417 18.876 8.98776 18.938 8.94071 19.0007C9.14296 19.1951 9.34133 19.3933 9.54164 19.5935C9.74196 19.7937 9.94423 19.9958 10.1543 20.1979C10.8233 19.3116 11.4924 18.4215 12.1614 17.5313C12.8304 16.6413 13.4994 15.7512 14.1684 14.8651C15.0319 13.7145 15.8954 12.5601 16.7589 11.4057C17.6224 10.2513 18.4858 9.09688 19.3493 7.94637C19.5381 7.69484 19.7778 7.73833 20.0107 7.7806C20.0658 7.79058 20.1204 7.8005 20.1739 7.80644C20.5542 7.84099 20.9346 7.88783 21.3149 7.93466C21.7903 7.99321 22.2657 8.05175 22.7411 8.0863C23.4568 8.14849 23.8457 8.53718 23.908 9.25237C23.9546 9.75612 24.0181 10.2599 24.0816 10.7636C24.1239 11.0994 24.1662 11.4353 24.2036 11.7711C24.2503 12.0509 24.2347 12.2686 23.9391 12.4863C21.4702 14.3595 19.0097 16.2495 16.5514 18.1378C15.6635 18.8198 14.7759 19.5016 13.8883 20.1824C13.2037 20.711 12.5192 21.2396 11.8035 21.7993C12.0078 21.9956 12.2081 22.1919 12.4104 22.3902C12.6088 22.5845 12.8091 22.7808 13.017 22.9809C13.546 22.5922 14.075 22.188 14.6196 21.7682C15.8097 20.8509 17.0038 19.9337 18.1978 19.0164C19.392 18.0991 20.5862 17.1817 21.7765 16.2643C22.0729 16.0378 22.3705 15.8125 22.6684 15.5871C23.4336 15.0079 24.2 14.4277 24.9504 13.8234C25.1682 13.6523 25.3082 13.6834 25.5105 13.7301Z" fill="currentColor"/>
<path d="M6.60699 29.9464C4.36657 29.651 2.88851 28.3139 2.2195 26.1684C1.61272 24.1938 2.29729 22.0482 3.85314 20.7889L11.2434 28.174C10.0143 29.5733 8.42733 30.1952 6.60699 29.9464Z" fill="currentColor"/>
</g>
</g>
</svg>
