<svg width="32" height="32" viewBox="0 0 32 32" fill="none" xmlns="http://www.w3.org/2000/svg">
<g id="ty_icon_snk">
<g id="Group 6074">
<path id="Subtract" fill-rule="evenodd" clip-rule="evenodd" d="M15.3331 29.333C23.0651 29.333 29.3331 23.065 29.3331 15.333C29.3331 7.60102 23.0651 1.33301 15.3331 1.33301C7.60114 1.33301 1.33313 7.60102 1.33313 15.333C1.33313 23.065 7.60114 29.333 15.3331 29.333ZM15.3333 23.9998C20.1198 23.9998 24 20.1196 24 15.3332C24 10.5467 20.1198 6.6665 15.3333 6.6665C10.5468 6.6665 6.66663 10.5467 6.66663 15.3332C6.66663 20.1196 10.5468 23.9998 15.3333 23.9998Z" fill="currentColor"/>
<path id="8" d="M15.3333 9.33301C16.4676 9.33301 17.378 9.65646 18.0646 10.3195C18.6616 10.9017 18.975 11.6295 18.975 12.5028C18.975 13.085 18.8556 13.5864 18.6168 13.9907C18.3482 14.4112 17.9601 14.7508 17.4377 14.9772V15.0096C17.9303 15.1551 18.3631 15.4786 18.7213 15.9799C19.1243 16.5298 19.3333 17.1605 19.3333 17.8721C19.3333 18.9071 18.975 19.7319 18.2885 20.3788C17.587 21.0096 16.6019 21.333 15.3333 21.333C14.0497 21.333 13.0646 21.0096 12.378 20.3788C11.6765 19.7319 11.3333 18.9071 11.3333 17.8721C11.3333 17.1605 11.5273 16.5298 11.9452 15.9799C12.3034 15.4786 12.7213 15.1551 13.2288 15.0096V14.9772C12.6915 14.7508 12.3034 14.4112 12.0497 13.9907C11.8109 13.5864 11.6915 13.085 11.6915 12.5028C11.6915 11.6295 11.99 10.9017 12.6019 10.3195C13.2736 9.65646 14.184 9.33301 15.3333 9.33301ZM15.3333 10.8371C14.7064 10.8371 14.1989 11.0149 13.8258 11.3869C13.4974 11.7104 13.3333 12.0985 13.3333 12.5675C13.3333 13.1012 13.4676 13.5217 13.7362 13.829C14.0646 14.2009 14.587 14.395 15.3333 14.395C16.0646 14.395 16.6019 14.2009 16.9303 13.829C17.1989 13.5217 17.3333 13.1012 17.3333 12.5675C17.3333 12.0985 17.1691 11.7104 16.8407 11.3869C16.4527 11.0149 15.9601 10.8371 15.3333 10.8371ZM15.3333 15.802C14.587 15.802 14.0198 15.9961 13.6318 16.3842C13.2437 16.7562 13.0646 17.2575 13.0646 17.8721C13.0646 18.4543 13.2586 18.9233 13.6616 19.2791C14.0497 19.6349 14.6019 19.8128 15.3333 19.8128C16.0497 19.8128 16.6168 19.6187 17.0347 19.2629C17.4079 18.9071 17.6019 18.4543 17.6019 17.8721C17.6019 17.2575 17.4079 16.7562 17.0497 16.4004C16.6467 15.9961 16.0795 15.802 15.3333 15.802Z" fill="currentColor"/>
</g>
</g>
</svg>
