<svg width="32" height="32" viewBox="0 0 32 32" fill="none" xmlns="http://www.w3.org/2000/svg">
<g id="ty_icon_wq">
<g id="&#231;&#189;&#145;&#231;&#144;&#131;">
<path d="M15.98 2.00331C16.473 9.71065 9.7886 16.3733 2.01974 15.5651C1.84228 8.80391 8.05342 1.82591 15.98 2.00331Z" fill="currentColor"/>
<path d="M1.99988 17.4181C6.43641 17.7138 10.2814 16.3931 13.4363 13.3575C16.6109 10.3022 18.0108 6.47806 17.8531 2.10203C24.3009 2.8905 29.5458 8.3704 29.9796 14.7768C25.6022 14.4219 21.7572 15.7032 18.5827 18.6994C15.4081 21.6956 13.9884 25.4606 14.0278 29.7972C9.03918 29.4029 2.80831 24.9284 1.99988 17.4181Z" fill="currentColor"/>
<path d="M15.7434 29.9939C15.2504 22.0501 22.4869 15.5057 29.9994 16.511C30.0586 23.1145 24.1038 30.2305 15.7434 29.9939Z" fill="currentColor"/>
</g>
</g>
</svg>
