<svg width="32" height="32" viewBox="0 0 32 32" fill="none" xmlns="http://www.w3.org/2000/svg">
<g id="ty_icon_dzjj">
<path id="&#231;&#148;&#181;&#229;&#173;&#144;&#231;&#171;&#158;&#230;&#138;&#128;" d="M31.9224 20.3684C32 21.7786 31.8448 23.1499 31.4955 24.5083C31.0168 26.3453 29.8266 27.3803 27.9895 27.6649C26.9545 27.8202 25.9066 27.7426 24.9234 27.3286C24.4836 27.1474 24.0954 26.837 23.7203 26.5394C22.5171 25.5303 21.4433 24.3789 20.4472 23.1628C20.2143 22.8782 19.9944 22.5548 19.7098 22.3219C19.1276 21.8562 18.4161 21.895 17.7175 21.8821C16.4367 21.8691 15.1559 21.8562 13.8881 21.8044C13.1507 21.7656 12.6203 22.0761 12.1933 22.6065C11.5206 23.4474 10.9255 24.3401 10.2269 25.1551C9.33424 26.203 8.28633 27.0569 6.95381 27.5356C5.53073 28.0401 4.19821 27.8719 2.93038 27.0957C1.49436 26.216 0.756951 24.8317 0.330028 23.2534C0.00660055 22.0373 -0.0580848 20.8083 0.0454118 19.5534C0.291216 16.4226 0.93807 13.3824 2.16709 10.4845C2.90451 8.75092 3.82304 7.10791 5.24612 5.8142C5.99647 5.12854 6.87619 4.70162 7.88528 4.58518C9.99403 4.33938 11.844 4.97329 13.4482 6.31875C15.0395 7.65127 17.2517 7.50896 18.7266 6.56455C19.1923 6.267 19.5804 5.87889 20.0203 5.54253C20.7447 4.98623 21.5856 4.72749 22.4783 4.62399C23.4874 4.50756 24.4836 4.5205 25.4668 4.85686C26.6829 5.27085 27.6143 6.06001 28.3517 7.08204C29.5808 8.7768 30.2923 10.7174 30.8227 12.7226C31.185 14.1069 31.4955 15.53 31.7154 16.9401C31.8965 18.0656 31.9094 19.2041 32 20.3425C31.9741 20.3684 31.9482 20.3684 31.9224 20.3684ZM8.11815 12.3474C7.27724 12.3474 6.48808 12.3474 5.68598 12.3474C5.15556 12.3474 4.78038 12.7226 4.75451 13.2401C4.74157 13.5247 4.75451 13.7964 4.75451 14.081C4.76745 14.495 4.9615 14.8055 5.34961 14.896C5.71185 14.9866 6.08703 14.9737 6.4622 14.9866C7.00556 14.9995 7.54892 14.9866 8.11815 14.9866C8.11815 15.8275 8.11815 16.6296 8.11815 17.4188C8.11815 17.9492 8.48039 18.3373 9.02375 18.3502C9.3213 18.3632 9.63179 18.3761 9.92934 18.3373C10.0975 18.3244 10.2786 18.2338 10.4209 18.1432C10.6797 17.9621 10.7832 17.6775 10.7703 17.3541C10.7703 16.5649 10.7703 15.7887 10.7703 14.9866C11.5982 14.9866 12.3874 14.9866 13.1636 14.9866C13.6682 14.9866 14.0563 14.689 14.1339 14.1845C14.1856 13.8611 14.1986 13.5118 14.1468 13.1883C14.0692 12.632 13.6811 12.3345 13.1119 12.3345C12.6332 12.3345 12.1675 12.3345 11.6888 12.3345C11.3912 12.3345 11.0937 12.3345 10.7703 12.3345C10.7703 11.5195 10.7832 10.7432 10.7703 9.96701C10.7573 9.35896 10.4727 9.0226 9.89053 8.93204C9.60591 8.89323 9.30836 8.89323 9.02375 8.93204C8.44158 9.00966 8.11815 9.41071 8.11815 9.99288C8.11815 10.782 8.11815 11.5453 8.11815 12.3474ZM22.8147 15.6205C22.8405 14.6502 22.1161 13.8223 21.0423 13.8093C20.0461 13.7964 19.2311 14.495 19.2182 15.5817C19.2052 16.5908 19.865 17.4188 21.0294 17.4188C22.129 17.4317 22.8276 16.5779 22.8147 15.6205ZM24.3542 13.3824C25.3762 13.3306 26.1136 12.645 26.1395 11.5971C26.1654 10.4845 25.208 9.81176 24.3671 9.81176C23.3839 9.81176 22.5559 10.575 22.5689 11.5971C22.5947 12.645 23.3063 13.3306 24.3542 13.3824Z" fill="currentColor"/>
</g>
</svg>
