<svg width="32" height="32" viewBox="0 0 32 32" fill="none" xmlns="http://www.w3.org/2000/svg">
<g id="ty_icon_mszq">
<g id="&#231;&#190;&#142;&#229;&#188;&#143;&#232;&#182;&#179;&#231;&#144;&#131;">
<path d="M29.9988 12.0134L29.9999 12.007V10.3318C29.9698 10.2007 29.9412 10.0694 29.9134 9.9381C29.8899 9.82745 29.8669 9.71675 29.844 9.6061C29.7338 9.07491 29.6238 8.5448 29.4595 8.02722C28.6357 5.39475 26.8199 3.69294 24.2865 2.74454C23.7058 2.52291 23.0928 2.39439 22.4803 2.26597C22.1864 2.20435 21.8926 2.14276 21.6025 2.07091C21.5741 2.06683 21.5437 2.05716 21.5132 2.04531C21.4892 2.03596 21.465 2.02526 21.4416 2.01489C21.4301 2.00978 21.4187 2.00475 21.4077 2H19.1932C19.1241 2.01256 19.0541 2.02464 18.9835 2.0368L18.9832 2.03683C18.7552 2.07613 18.5217 2.11637 18.2985 2.17727C17.6762 2.3438 17.054 2.52217 16.3737 2.71715L16.3678 2.71887L16.3662 2.71932L15.9069 2.8509C17.7444 4.60622 19.5642 6.34521 21.3783 8.07882L21.5066 8.20142C24.083 10.6635 26.6486 13.1152 29.2381 15.5878C29.2783 15.4795 29.3163 15.3874 29.3503 15.3051C29.4137 15.1517 29.463 15.0323 29.4861 14.9053C29.6629 13.9414 29.8308 12.9774 29.9988 12.0134Z" fill="currentColor"/>
<path d="M2.09038 19.4695L2.08805 19.4843C2.06173 19.6509 2.03539 19.8175 2.00874 19.9842C2.00874 20.4274 2.00874 20.8705 1.99988 21.3137C2.03826 21.5353 2.07271 21.758 2.10716 21.9806L2.10729 21.9815C2.17615 22.4263 2.24501 22.8711 2.34533 23.308C3.22228 27.1105 6.48201 29.4948 10.034 29.9202C10.1186 29.9263 10.2073 29.9488 10.2946 29.971C10.3192 29.9772 10.3436 29.9834 10.3679 29.9893C10.3837 29.993 10.3994 29.9967 10.4149 30H12.0979C12.1775 29.9867 12.2549 29.9713 12.3322 29.9558L12.3331 29.9556C12.4105 29.9401 12.4878 29.9246 12.5674 29.9114C13.5595 29.7252 14.5516 29.5391 15.6588 29.3352C11.3273 24.9035 7.0932 20.578 2.79709 16.1906C2.74941 16.3496 2.70058 16.4961 2.6543 16.635L2.65423 16.6351C2.57158 16.8831 2.49706 17.1067 2.45164 17.334C2.31592 18.0416 2.20323 18.755 2.09038 19.4695Z" fill="currentColor"/>
<path d="M15.3525 17.3188L15.3559 17.3157L15.6854 17.006C15.846 17.1444 16.0222 17.2984 16.2074 17.4603L16.2082 17.4609C16.3906 17.6204 16.5817 17.7874 16.7749 17.9544C17.0761 18.2203 17.4304 18.2912 17.8025 18.1494C18.396 17.919 18.6085 17.2187 18.1922 16.7313C17.9401 16.4402 17.6503 16.1821 17.3743 15.9365C17.2721 15.8455 17.1718 15.7562 17.0761 15.6676C17.2674 15.4556 17.4539 15.2484 17.6374 15.0445C18.0061 14.6348 18.3629 14.2383 18.7237 13.8417C18.885 13.9845 19.0354 14.1262 19.1814 14.2637L19.1819 14.2641C19.4527 14.5193 19.7085 14.7601 19.9904 14.9674C20.6104 15.4283 21.5317 15.0295 21.514 14.2849C21.5051 13.9747 21.2836 13.6379 21.0711 13.3808C20.8911 13.1573 20.672 12.9685 20.4472 12.7749L20.447 12.7747C20.3511 12.6921 20.2541 12.6086 20.1587 12.5211C20.4358 12.2698 20.7045 12.0269 20.9729 11.7843L20.989 11.7698C21.1489 11.6252 21.3089 11.4807 21.4705 11.3344C21.5872 11.2288 21.7048 11.1223 21.824 11.0143C24.065 13.1947 26.2972 15.3663 28.5294 17.5378C27.6968 19.4258 26.6427 21.1542 25.2963 22.7053C23.9942 24.2032 22.5769 25.586 20.8939 26.6496C20.0751 27.1697 19.2162 27.6268 18.3633 28.0807L18.3607 28.0821C18.1534 28.1924 17.9464 28.3026 17.7405 28.4134C17.6342 28.4755 17.3861 28.4312 17.2976 28.3425C15.1185 26.1532 12.9572 23.9551 10.7958 21.7569C10.7812 21.7423 10.7693 21.7223 10.7542 21.697C10.7418 21.6763 10.7272 21.6519 10.7073 21.6239C11.0638 21.2784 11.4238 20.9363 11.7917 20.5867C12.0088 20.3804 12.2287 20.1714 12.4523 19.9576C12.589 20.0721 12.7223 20.1866 12.8542 20.3L12.8555 20.3012L12.8557 20.3013C13.142 20.5473 13.4222 20.7881 13.719 21.0124C14.3479 21.4999 15.1717 21.2517 15.3045 20.4983C15.3488 20.2146 15.1894 19.8424 15.0034 19.5942C14.8119 19.3487 14.5759 19.1356 14.3365 18.9193L14.3358 18.9186C14.221 18.8149 14.1054 18.7105 13.9936 18.6015C14.4445 18.1717 14.8897 17.7535 15.3525 17.3188Z" fill="currentColor"/>
<path d="M10.8001 18.6003L10.911 18.4774C10.8279 18.3943 10.7372 18.3089 10.6432 18.2203C10.4163 18.0066 10.1698 17.7744 9.96319 17.5113C9.79488 17.3074 9.65316 16.9883 9.66201 16.7313C9.69745 16.0399 10.5567 15.6499 11.1236 16.0665C11.4401 16.298 11.7316 16.5671 12.0296 16.8423C12.1652 16.9675 12.3021 17.094 12.4434 17.2187C12.7644 16.9173 13.0827 16.6131 13.4151 16.2954C13.6789 16.0432 13.9515 15.7826 14.2416 15.5081C14.1316 15.4156 14.0303 15.3341 13.9345 15.2569C13.8375 15.1788 13.7461 15.1053 13.657 15.0295C13.4798 14.8699 13.3026 14.7104 13.1432 14.542C12.656 14.019 12.7092 13.3631 13.2495 13.044C13.719 12.7692 14.1796 12.8401 14.649 13.2833C14.8568 13.4734 15.0566 13.6714 15.2644 13.8774C15.3667 13.9788 15.471 14.0821 15.5791 14.1874C15.8563 13.9259 16.1229 13.6732 16.386 13.4239C16.7114 13.1155 17.0314 12.8121 17.3596 12.5033C17.2736 12.4255 17.1896 12.3501 17.1073 12.2762C16.8334 12.0304 16.5793 11.8023 16.3409 11.5638C15.774 10.9877 15.8714 10.2431 16.5535 9.92403C17.0407 9.69358 17.4482 9.90631 17.7847 10.2431C17.9756 10.4341 18.1486 10.6392 18.3241 10.8473C18.4257 10.9677 18.528 11.0891 18.6351 11.2092C19.0261 10.8343 19.3772 10.5026 19.7149 10.1836C19.9279 9.98235 20.1357 9.78611 20.3447 9.58722C19.9034 9.17131 19.464 8.75729 19.026 8.34454C17.3449 6.76055 15.6837 5.19523 14.0113 3.61318C13.8279 3.7122 13.6455 3.80835 13.4644 3.90384C13.0942 4.09893 12.7294 4.29124 12.3726 4.49953C10.2112 5.74043 8.39532 7.38019 6.76546 9.25926C5.49877 10.7129 4.44468 12.2995 3.60318 14.0279C3.53231 14.1608 3.53231 14.4267 3.62089 14.5154C5.4279 16.359 7.24378 18.1937 9.0774 20.0108C9.15711 20.0817 9.40514 20.0994 9.46714 20.0374C9.91782 19.5782 10.3458 19.1038 10.8001 18.6003Z" fill="currentColor"/>
</g>
</g>
</svg>
