<svg width="32" height="32" viewBox="0 0 32 32" fill="none" xmlns="http://www.w3.org/2000/svg">
<g id="ty_icon_jl">
<path id="&#232;&#174;&#176;&#229;&#189;&#149;" fill-rule="evenodd" clip-rule="evenodd" d="M12.2531 3.475H9.95901V3.47502C9.95901 4.30001 9.95901 4.975 10.0355 5.725C10.0355 6.775 10.8767 7.6 11.9472 7.6H20.0531C20.9708 7.6 21.812 7.075 21.9649 6.175C22.0159 5.625 21.9989 5.00833 21.9819 4.39167C21.9734 4.08333 21.9649 3.775 21.9649 3.475H19.7472C19.4414 3.475 19.2884 3.4 19.212 3.1C18.6767 1.825 17.4531 1 16.0002 1C14.5472 1 13.2472 1.825 12.7884 3.1C12.6355 3.4 12.559 3.475 12.2531 3.475ZM8.27647 6.4V3.475H6.67059C4.52941 3.475 3 4.9 3 7V27.475C3 28 3.15294 28.6 3.38235 29.05C4.07059 30.475 5.29412 31 6.9 31H25.1C25.4824 31 25.9412 31 26.3235 30.85C27.9294 30.475 29 29.2 29 27.55V6.85C29 5.425 28.2353 4.3 26.7824 3.7C26.0119 3.40939 25.2415 3.43408 24.4355 3.45991C24.2015 3.46741 23.9645 3.475 23.7235 3.475V5.65C23.7235 7.75 22.3471 9.25 20.4353 9.25C18.4498 9.29993 16.4305 9.28338 14.3998 9.26674C13.3802 9.25838 12.3577 9.25 11.3353 9.25C9.88235 9.25 8.35294 7.75 8.27647 6.4ZM9.72941 18.55H16C18.4471 18.55 20.8176 18.55 23.2647 18.475C24.1824 18.475 24.7176 19.15 24.5647 19.975C24.4118 20.575 23.8765 20.95 23.1118 20.95H12.7118H8.88824C8.04706 20.95 7.51177 20.575 7.43529 19.9C7.35882 19.15 7.81765 18.55 8.65882 18.55H9.72941ZM8.81176 23.5H16H23.1882C23.7235 23.5 24.1824 23.725 24.4118 24.175C24.6412 24.625 24.6412 25.15 24.2588 25.45C24.0294 25.675 23.5706 25.9 23.1882 25.9H8.81176C7.97059 25.9 7.43529 25.45 7.43529 24.7C7.43529 23.95 7.97059 23.5 8.81176 23.5Z" fill="currentColor"/>
</g>
</svg>
