<svg width="32" height="32" viewBox="0 0 32 32" fill="none" xmlns="http://www.w3.org/2000/svg">
<g id="ty_icon_sc">
<path id="ty_icon_sc_2" d="M30.9137 12.1808C30.6992 11.4059 29.9485 10.8524 29.1978 10.7417L21.3691 9.52399L17.9374 2.21771C17.6157 1.4428 16.865 1 16.007 1C15.1491 1 14.3984 1.4428 14.0767 2.21771L10.6449 9.52399L2.81626 10.7417C2.06557 10.8524 1.31487 11.4059 1.10039 12.1808C0.885903 12.9557 0.993146 13.8413 1.6366 14.3948L7.32042 20.262L6.03352 28.4539C5.92628 29.2288 6.248 30.1144 6.89146 30.5572C7.21318 30.7786 7.74939 31 8.17836 31C8.50009 31 8.92905 30.8893 9.25078 30.7786L16.1143 27.0148L22.9778 30.7786C23.2995 31 23.6212 31 24.0502 31C24.4791 31 24.9081 30.8893 25.3371 30.5572C25.9805 30.1144 26.4095 29.2288 26.195 28.4539L24.9081 20.262L30.5919 14.3948C30.9137 13.8413 31.1281 12.9557 30.9137 12.1808Z" fill="currentColor"/>
</g>
</svg>
