<svg width="16" height="16" viewBox="0 0 16 16" fill="none" xmlns="http://www.w3.org/2000/svg">
<path d="M15.1593 6.16366C15.0564 5.79171 14.6961 5.52603 14.3357 5.47289L10.578 4.88839L8.93073 1.38138C8.7763 1.00942 8.41596 0.796875 8.00415 0.796875C7.59234 0.796875 7.23201 1.00942 7.07758 1.38138L5.43035 4.88839L1.67259 5.47289C1.31225 5.52603 0.95192 5.79171 0.848967 6.16366C0.746015 6.53562 0.797491 6.96071 1.10635 7.2264L3.83458 10.0426L3.21687 13.9747C3.16539 14.3467 3.31982 14.7718 3.62868 14.9843C3.78311 15.0906 4.04049 15.1969 4.24639 15.1969C4.40082 15.1969 4.60673 15.1437 4.76116 15.0906L8.05563 13.284L11.3501 15.0906C11.5045 15.1969 11.659 15.1969 11.8649 15.1969C12.0708 15.1969 12.2767 15.1437 12.4826 14.9843C12.7914 14.7718 12.9973 14.3467 12.8944 13.9747L12.2767 10.0426L15.0049 7.2264C15.1593 6.96071 15.2623 6.53562 15.1593 6.16366Z" fill="#FF284B"/>
</svg>
