<svg width="20" height="20" viewBox="0 0 20 20" fill="none" xmlns="http://www.w3.org/2000/svg">
<g id="Game">
<path id="Vector" d="M17.4843 10.0008C16.9157 10.2919 16.1826 10.6389 15.2495 11.0517C14.1224 11.5503 13.0163 11.8649 11.9499 12.0397C12.6307 14.397 14.8378 15.5352 15.3317 15.7638C16.6722 14.4089 17.5 12.5458 17.5 10.4892C17.5 10.3251 17.4947 10.1623 17.4843 10.0008ZM6.63688 11.1328C7.04835 11.2307 7.48334 11.313 7.9404 11.3735C7.62566 7.77607 8.75161 4.72255 9.59624 3C7.46711 3.11295 5.57356 4.11374 4.27915 5.63905C5.41971 6.75837 6.97293 8.76053 6.63688 11.1328ZM5.71188 10.7613C5.87108 8.81119 4.7471 7.27357 3.76482 6.31989C3.15885 7.22432 2.74466 8.26798 2.57986 9.39269C3.20021 9.80511 4.26858 10.4173 5.70141 10.8732C5.70522 10.8361 5.70882 10.7989 5.71188 10.7613ZM11.7669 11.0378C11.7747 11.1331 11.7849 11.2268 11.7975 11.3189C15.4213 10.7536 17.0762 8.94795 17.286 8.70305C16.9547 7.34694 16.2547 6.13544 15.2982 5.18078C14.056 6.167 11.5585 8.48449 11.7669 11.0378ZM8.59132 10.5614C8.60351 10.8677 8.6241 11.163 8.65189 11.4476C9.14639 11.4854 9.66353 11.4966 10.2018 11.474C10.4588 11.4633 10.7079 11.4463 10.9495 11.4239C10.6534 8.36449 13.401 5.64725 14.6347 4.59218C13.4882 3.68986 12.072 3.11501 10.5271 3.00773C9.78477 4.20297 8.44566 6.89224 8.59132 10.5614ZM12.3198 14.4248C11.665 13.666 11.2729 12.9026 11.0787 12.153C10.2697 12.2314 9.48782 12.233 8.74202 12.178C9.32299 16.0531 11.2517 17.6692 11.2517 17.6692C11.2517 17.6692 11.2652 17.7505 11.283 17.8795C12.4289 17.6819 13.4858 17.2247 14.3908 16.5701C13.9063 16.1644 13.2374 15.4879 12.3198 14.4248ZM8.02415 12.107C7.4879 12.0404 6.97324 11.9463 6.48373 11.8331C6.26206 12.5797 5.8425 13.3564 5.15896 14.1483C4.79817 14.5664 4.47603 14.9244 4.1882 15.23C5.56351 16.914 7.65612 17.9892 9.99999 17.9892C10.021 17.9892 10.0419 17.9887 10.0629 17.9885C9.77217 17.4012 9.41966 16.6231 8.99315 15.6086C8.48927 14.4102 8.18307 13.2354 8.02415 12.107ZM2.50138 10.3442C2.50046 10.3924 2.5 10.4408 2.5 10.4892C2.5 11.9684 2.92829 13.3475 3.6675 14.5095C4.42932 13.8717 5.24242 12.9169 5.57474 11.5943C4.31336 11.2228 3.26295 10.7466 2.50138 10.3442Z" fill="#FF7D31"/>
</g>
</svg>
