<svg width="26" height="26" viewBox="0 0 26 26" fill="none" xmlns="http://www.w3.org/2000/svg">
<g clip-path="url(#clip0_11097_61032)">
<path fill-rule="evenodd" clip-rule="evenodd" d="M10.1155 3.41602H8.35986V3.41604C8.35986 4.04738 8.35986 4.56394 8.41838 5.13789C8.41838 5.94142 9.06211 6.57277 9.88141 6.57277H16.0846C16.7869 6.57277 17.4306 6.17101 17.5476 5.48226C17.5867 5.06136 17.5736 4.58944 17.5606 4.11752C17.5541 3.88156 17.5476 3.64561 17.5476 3.41602H15.8505C15.6165 3.41602 15.4994 3.35863 15.4409 3.12905C15.0312 2.15332 14.0949 1.52197 12.983 1.52197C11.8711 1.52197 10.8763 2.15332 10.5251 3.12905C10.4081 3.35863 10.3496 3.41602 10.1155 3.41602ZM7.08872 5.69625V3.45783H5.85978C4.2212 3.45783 3.05078 4.54834 3.05078 6.15542V21.8244C3.05078 22.2262 3.16782 22.6853 3.34339 23.0297C3.87007 24.1202 4.80641 24.522 6.03535 24.522H19.9633C20.2559 24.522 20.607 24.522 20.8997 24.4072C22.1286 24.1202 22.9479 23.1445 22.9479 21.8818V6.04063C22.9479 4.95011 22.3627 4.08918 21.2508 3.63002C20.6612 3.40762 20.0716 3.42651 19.4548 3.44628C19.2757 3.45202 19.0943 3.45783 18.9099 3.45783V5.1223C18.9099 6.72937 17.8566 7.87728 16.3935 7.87728C14.8741 7.91549 13.3288 7.90283 11.7747 7.89009C10.9945 7.8837 10.212 7.87728 9.42956 7.87728C8.31766 7.87728 7.14724 6.72937 7.08872 5.69625ZM8.20062 14.9943H12.9993C14.872 14.9943 16.6861 14.9943 18.5588 14.9369C19.2611 14.9369 19.6707 15.4535 19.5537 16.0848C19.4366 16.544 19.027 16.831 18.4418 16.831H10.4829H7.55689C6.91316 16.831 6.50351 16.544 6.44499 16.0274C6.38647 15.4535 6.7376 14.9943 7.38133 14.9943H8.20062ZM7.49837 18.7824H12.9993H18.5003C18.9099 18.7824 19.2611 18.9546 19.4366 19.299C19.6122 19.6434 19.6122 20.0451 19.3196 20.2747C19.144 20.4469 18.7929 20.6191 18.5003 20.6191H7.49837C6.85464 20.6191 6.44499 20.2747 6.44499 19.7008C6.44499 19.1268 6.85464 18.7824 7.49837 18.7824Z" fill="currentColor"/>
</g>
<defs>
<clipPath id="clip0_11097_61032">
<rect width="26" height="26" fill="white"/>
</clipPath>
</defs>
</svg>
