<svg xmlns="http://www.w3.org/2000/svg" width="23" height="16" viewBox="0 0 23 16" fill="none">
<path fill-rule="evenodd" clip-rule="evenodd" d="M0 2C0 0.895431 0.895431 0 2 0H21C22.1046 0 23 0.895431 23 2V7H22C21.4477 7 21 7.44772 21 8C21 8.55228 21.4477 9 22 9H23V14C23 15.1046 22.1046 16 21 16H2C0.89543 16 0 15.1046 0 14V9H1C1.55228 9 2 8.55228 2 8C2 7.44772 1.55228 7 1 7H0V2ZM6.09216 3.76H7.40002V12.5H5.63002V6.07594C5.26549 6.31037 4.8499 6.49389 4.38302 6.62829L4.00002 6.73855V4.94577L4.22726 4.88896C4.51488 4.81705 4.82852 4.68938 5.1689 4.50076C5.51104 4.29122 5.78721 4.07765 6.00361 3.85224L6.09216 3.76ZM16.6921 3.76H18V12.5H16.23V6.07594C15.8655 6.31037 15.4499 6.49389 14.983 6.62829L14.6 6.73855V4.94577L14.8272 4.88896C15.1149 4.81705 15.4285 4.68938 15.7689 4.50076C16.111 4.29122 16.3872 4.07765 16.6036 3.85224L16.6921 3.76ZM12.0387 6.626L12.0276 6.63577C11.8215 6.81613 11.5733 6.93 11.27 6.93C10.9738 6.93 10.7064 6.82068 10.5079 6.62213C10.2893 6.40358 10.19 6.14627 10.19 5.85C10.19 5.56436 10.2827 5.29459 10.5042 5.08126C10.7113 4.85149 10.9868 4.76 11.27 4.76C11.5663 4.76 11.8236 4.85932 12.0422 5.07787C12.2486 5.28436 12.36 5.55076 12.36 5.85C12.36 6.15466 12.2449 6.40606 12.0489 6.61518L12.0387 6.626ZM12.0387 10.286L12.0276 10.2958C11.8215 10.4761 11.5733 10.59 11.27 10.59C10.9738 10.59 10.7064 10.4807 10.5079 10.2821C10.2893 10.0636 10.19 9.80627 10.19 9.51C10.19 9.22436 10.2827 8.95459 10.5042 8.74126C10.7113 8.51149 10.9868 8.42 11.27 8.42C11.5663 8.42 11.8236 8.51932 12.0422 8.73787C12.2486 8.94436 12.36 9.21076 12.36 9.51C12.36 9.81466 12.2449 10.0661 12.0489 10.2752L12.0387 10.286ZM5.93001 5.4698C5.50001 5.8598 4.96001 6.1498 4.30001 6.3398C4.40292 6.31018 4.50292 6.27832 4.60002 6.24383C4.98867 6.10582 5.33119 5.92886 5.63002 5.71297C5.73542 5.63682 5.83538 5.55564 5.93001 5.4698ZM16.53 5.4698C16.1 5.8598 15.56 6.1498 14.9 6.3398C15.0029 6.31018 15.1029 6.27832 15.2 6.24383C15.5886 6.10582 15.9312 5.92886 16.23 5.71297C16.3354 5.63682 16.4354 5.55564 16.53 5.4698Z" fill="#FF284B"/>
</svg>