<svg xmlns="http://www.w3.org/2000/svg" width="20" height="20" viewBox="0 0 20 20" fill="none">
<ellipse cx="10" cy="19" rx="8" ry="1" fill="#67707B"/>
<path d="M10.4052 1.08586L10.4046 1.08627C10.3444 1.12399 10.2837 1.162 10.2228 1.20037C9.96808 1.01997 9.70279 0.828963 9.45872 0.616729C9.43659 0.601971 9.42471 0.57182 9.41239 0.540548C9.407 0.526853 9.40151 0.512925 9.39505 0.5H10.4456C10.6366 0.553059 10.8382 0.606117 11.0717 0.659176C10.8465 0.809334 10.6276 0.946471 10.4052 1.08586Z" fill="#67707B"/>
<path d="M17.7784 7.04041C17.7465 6.80695 17.7147 6.59472 17.6723 6.34004C17.5285 6.63948 17.4659 6.76993 17.5035 6.85728C17.5325 6.9247 17.6212 6.96645 17.7784 7.04041Z" fill="#67707B"/>
<path d="M6.24874 10.1839C6.03917 9.50702 5.82956 8.83002 5.61734 8.1558C5.5855 8.06023 5.49 7.96467 5.40511 7.93281C5.08428 7.81121 4.76346 7.69407 4.44365 7.5773C4.0654 7.43918 3.68831 7.3015 3.3146 7.15767C3.15543 7.09396 3.0387 7.1152 2.91136 7.22138C2.67792 7.38595 2.44184 7.54786 2.20575 7.70978C1.96964 7.87171 1.73346 8.03369 1.5 8.19827V9.75917C1.53184 10.0246 1.56367 10.2795 1.61673 10.5449C1.88202 11.9041 2.43383 13.1358 3.20848 14.272C3.30399 14.41 3.41011 14.4525 3.55867 14.4419C4.12109 14.41 4.6729 14.3782 5.23532 14.3357C5.3096 14.3251 5.40511 14.272 5.45816 14.2083C5.68632 13.9375 5.91181 13.6641 6.13731 13.3906C6.36281 13.1172 6.58831 12.8438 6.81646 12.573C6.89074 12.4668 6.93319 12.3713 6.88013 12.212C6.66791 11.5378 6.4583 10.8608 6.24874 10.1839Z" fill="#67707B"/>
<path d="M16.7278 7.47623C16.8234 7.44437 16.9719 7.49747 17.0568 7.56117C17.3175 7.75249 17.5751 7.95014 17.8364 8.15066C18.0537 8.3174 18.2736 8.48613 18.5 8.65486V9.46186C18.478 9.61138 18.4597 9.76273 18.4412 9.91514C18.4151 10.1306 18.3887 10.3485 18.3514 10.5662C18.1604 11.7236 17.736 12.7854 17.0568 13.7411C16.8658 14.0171 16.6536 14.2826 16.4307 14.5481C16.3777 14.6011 16.2715 14.6542 16.1973 14.6542C15.6455 14.6649 15.1043 14.6649 14.5631 14.6542C14.4888 14.6542 14.372 14.5905 14.3296 14.5268C13.8945 13.9216 13.4701 13.3057 13.0562 12.6792C12.9925 12.5943 12.9819 12.435 13.0138 12.3394C13.3913 11.2648 13.7755 10.1967 14.1611 9.12482C14.2632 8.84108 14.3654 8.55708 14.4676 8.2726C14.4994 8.18766 14.5949 8.08147 14.6798 8.06024C15.3589 7.85851 16.0382 7.65672 16.7278 7.47623Z" fill="#67707B"/>
<path d="M12.3452 13.2208C12.2922 13.1465 12.1648 13.0828 12.0587 13.0828C11.8993 13.07 11.7399 13.0687 11.5782 13.0675C11.4708 13.0666 11.3623 13.0658 11.2522 13.0615C10.0531 13.0297 8.84338 12.9978 7.64426 12.9766C7.55937 12.9766 7.44264 13.0403 7.37897 13.1146C6.92266 13.688 6.46636 14.2614 6.03128 14.8454C5.97822 14.9197 5.94639 15.0684 5.96761 15.1533C6.1374 15.6524 6.32841 16.1515 6.53003 16.6399C6.56187 16.7142 6.62554 16.8204 6.68921 16.8417C6.78384 16.8701 6.87872 16.8987 6.97379 16.9274C7.51831 17.0918 8.06947 17.2582 8.62054 17.3938C8.81346 17.4458 9.01677 17.4614 9.21956 17.477C9.30676 17.4837 9.39394 17.4904 9.48008 17.5H10.138L10.1653 17.4954C10.2822 17.4758 10.3912 17.4575 10.5094 17.4575C11.2947 17.4469 12.0587 17.277 12.7803 16.9797C12.844 16.9478 12.9289 16.8948 12.9501 16.831C13.1623 16.2683 13.364 15.6949 13.555 15.1215C13.5762 15.0578 13.5656 14.9516 13.5338 14.8985C13.4501 14.7786 13.3669 14.6587 13.2839 14.5389C12.977 14.0965 12.6709 13.6553 12.3452 13.2208Z" fill="#67707B"/>
<path d="M6.48754 7.75231C6.60805 8.17117 6.7276 8.58813 6.84678 9.00375C7.12637 9.97886 7.40395 10.9469 7.68666 11.9147C7.70789 11.9784 7.82462 12.0527 7.8989 12.0527C8.20234 12.0669 8.51047 12.0716 8.81705 12.0763C8.9715 12.0787 9.12555 12.081 9.27842 12.0846L9.33919 12.086C10.2108 12.1068 11.092 12.1278 11.9632 12.1589C12.0905 12.1589 12.1542 12.1165 12.1966 11.9997C12.6636 10.6617 13.1305 9.32383 13.608 7.9753C12.7421 7.31963 11.882 6.65249 11.0234 5.98652L11.0221 5.98552C10.7131 5.74587 10.4043 5.50637 10.0955 5.26762L9.59046 5.61799C8.55384 6.3373 7.52855 7.04874 6.48754 7.75231Z" fill="#67707B"/>
<path d="M3.77093 6.38258C3.60114 6.31887 3.50564 6.21268 3.45258 6.04279C3.2934 5.55435 3.12361 5.05528 2.94322 4.56684C2.87954 4.41818 2.91138 4.32262 3.00689 4.1952C3.73909 3.16522 4.66231 2.3476 5.7447 1.7105C6.47691 1.27515 7.25157 0.988454 8.06867 0.765468C8.13234 0.75485 8.21723 0.776087 8.27029 0.81856C8.76904 1.17958 9.2784 1.55123 9.77715 1.92287C9.81447 1.95274 9.84128 1.99837 9.86868 2.04498C9.88024 2.06464 9.8919 2.08448 9.90449 2.10338C9.89388 2.10869 9.88592 2.11134 9.87796 2.114C9.87 2.11665 9.86204 2.11931 9.85143 2.12462C9.84428 2.36801 9.83592 2.61019 9.82757 2.85199C9.81116 3.3275 9.7948 3.80149 9.78776 4.28014C9.78776 4.49251 9.71348 4.63055 9.53308 4.74735C8.80247 5.23252 8.07601 5.72184 7.35111 6.21012C6.91786 6.50195 6.48514 6.79342 6.05244 7.08339C5.96755 7.13648 5.8296 7.15772 5.7447 7.12586C5.34995 6.9857 4.95519 6.83407 4.56044 6.68244C4.29727 6.58135 4.0341 6.48027 3.77093 6.38258Z" fill="#67707B"/>
<path d="M10.5517 2.1669C10.5411 2.53854 10.5411 2.89956 10.5411 3.27121C10.5411 3.36365 10.5405 3.45676 10.5398 3.55019C10.5378 3.83224 10.5358 4.11769 10.5517 4.39675C10.5517 4.49232 10.6154 4.63036 10.6897 4.68345C11.8145 5.53292 12.9394 6.38238 14.0642 7.22123C14.1173 7.26371 14.2234 7.28494 14.2871 7.26371C15.0298 7.03012 15.7727 6.79648 16.5049 6.55228C16.5898 6.53104 16.6747 6.44609 16.7065 6.37177C16.9082 5.8727 17.0886 5.36302 17.269 4.85334C17.3008 4.77901 17.2902 4.65159 17.2477 4.58788C17.1968 4.51355 17.1463 4.4388 17.0958 4.36404C16.8937 4.06503 16.6917 3.76602 16.4625 3.49419C15.3695 2.18814 13.9793 1.31743 12.3663 0.797131C12.2921 0.775894 12.1753 0.807749 12.1117 0.850223C11.6341 1.19001 11.1566 1.54042 10.6897 1.90144C10.6048 1.96515 10.5517 2.08195 10.5517 2.1669Z" fill="#67707B"/>
<path d="M14.2447 15.5567C14.2659 15.5036 14.3402 15.44 14.3932 15.44C14.5524 15.4347 14.7116 15.4347 14.8774 15.4347C15.0432 15.4347 15.2157 15.4347 15.4014 15.4293C14.9557 15.8857 14.51 16.2146 13.9369 16.4481C13.9857 16.3108 14.0288 16.1809 14.0703 16.0561C14.1282 15.8819 14.1829 15.7174 14.2447 15.5567Z" fill="#67707B"/>
<path d="M2.54001 6.46755C2.58246 6.43569 2.61429 6.35075 2.60368 6.30827C2.51879 6.02158 2.42328 5.73488 2.32778 5.44819H2.25349C2.0731 5.92601 1.8927 6.41446 1.72291 6.89228C1.73352 6.89759 1.74413 6.90555 1.75474 6.91352C1.76536 6.92148 1.77597 6.92945 1.78658 6.93476L1.89783 6.8671C2.10984 6.73826 2.33261 6.6029 2.54001 6.46755Z" fill="#67707B"/>
<path d="M4.46226 15.1191C4.64973 15.1168 4.83879 15.1144 5.02311 15.1215C5.07617 15.1215 5.15045 15.1639 5.16107 15.2064C5.20882 15.3496 5.25392 15.4955 5.29902 15.6414C5.34412 15.7874 5.38922 15.9333 5.43697 16.0765C5.42636 16.0871 5.41575 16.0951 5.40514 16.1031C5.39452 16.111 5.38391 16.119 5.3733 16.1296C5.17168 15.9757 4.9674 15.8218 4.76313 15.668C4.55885 15.5141 4.35458 15.3602 4.15295 15.2064C4.15826 15.1904 4.16357 15.1772 4.16887 15.1639C4.17418 15.1506 4.17948 15.1374 4.18479 15.1215C4.27637 15.1215 4.36912 15.1203 4.46226 15.1191Z" fill="#67707B"/>
</svg>