<svg xmlns="http://www.w3.org/2000/svg" width="30" height="31" viewBox="0 0 30 31" fill="none">
  <mask id="mask0_13122_122359" style="mask-type:alpha" maskUnits="userSpaceOnUse" x="0" y="0" width="30" height="31">
    <rect y="0.5" width="30" height="30" fill="#D9D9D9" />
  </mask>
  <g mask="url(#mask0_13122_122359)">
    <path fill-rule="evenodd" clip-rule="evenodd"
      d="M6.70485 7.54515C6.07722 8.17278 6.07722 9.19037 6.70485 9.81799L12.387 15.5001L6.70496 21.1821C6.07733 21.8097 6.07733 22.8273 6.70496 23.455C7.33259 24.0826 8.35017 24.0826 8.9778 23.455L14.6598 17.7729L20.3419 23.4551C20.9695 24.0827 21.9871 24.0827 22.6148 23.4551C23.2424 22.8274 23.2424 21.8098 22.6148 21.1822L16.9326 15.5001L22.6149 9.8179C23.2425 9.19027 23.2425 8.17268 22.6149 7.54505C21.9872 6.91742 20.9696 6.91743 20.342 7.54505L14.6598 13.2273L8.97769 7.54515C8.35006 6.91752 7.33248 6.91752 6.70485 7.54515Z"
      fill="#67707B" />
  </g>
</svg>