<svg xmlns="http://www.w3.org/2000/svg" width="23" height="16" viewBox="0 0 23 16" fill="none">
<rect x="0.5" y="0.5" width="22" height="15" rx="1.5" stroke="#67707B"/>
<path d="M12.2776 0.00475216L20.9276 0.0168619C22.0728 0.0192577 23 0.876966 23 1.93353V14.0834C23 15.1424 22.0704 16.0001 20.924 16.0001L12.2776 16.0048V12.8655C14.6483 12.4222 16.432 10.4876 16.432 8.16962C16.432 5.85045 14.6483 3.91702 12.2776 3.47379V0.00475216ZM10.7379 0.00608063V3.47631C8.37319 3.92314 6.59308 5.85538 6.59308 8.17095C6.59308 10.4865 8.37319 12.4176 10.7379 12.8656V15.9881L2.07958 15.9965C0.934375 16.0001 0.00239583 15.1424 0 14.0834V1.92514C0.00119792 0.866185 0.930781 0.00847646 2.07599 0.00608063H10.7379ZM20.0491 5.70923H19.7656C19.6068 5.70923 19.4544 5.77233 19.3421 5.88466C19.2298 5.99699 19.1667 6.14934 19.1667 6.30819V9.90194C19.1667 10.0608 19.2298 10.2131 19.3421 10.3255C19.4544 10.4378 19.6068 10.5009 19.7656 10.5009H20.0491C20.208 10.5009 20.3603 10.4378 20.4727 10.3255C20.585 10.2131 20.6481 10.0608 20.6481 9.90194V6.30819C20.6481 6.14934 20.585 5.99699 20.4727 5.88466C20.3603 5.77233 20.208 5.70923 20.0491 5.70923ZM3.23437 5.70923H2.92389C2.76504 5.70923 2.61269 5.77233 2.50037 5.88466C2.38804 5.99699 2.32494 6.14934 2.32494 6.30819V9.90194C2.32494 10.0608 2.38804 10.2131 2.50037 10.3255C2.61269 10.4378 2.76504 10.5009 2.92389 10.5009H3.23437C3.39323 10.5009 3.54558 10.4378 3.6579 10.3255C3.77023 10.2131 3.83333 10.0608 3.83333 9.90194V6.30819C3.83333 6.14934 3.77023 5.99699 3.6579 5.88466C3.54558 5.77233 3.39323 5.70923 3.23437 5.70923Z" fill="#67707B"/>
<path d="M15 8.16534C15 6.38034 13.4331 4.93457 11.5 4.93457C9.56692 4.93457 8 6.38034 8 8.16534C8 9.94899 9.56692 11.3961 11.5 11.3961C13.4331 11.3961 15 9.94899 15 8.16534Z" fill="#67707B"/>
</svg>