<svg xmlns="http://www.w3.org/2000/svg" width="142" height="120" viewBox="0 0 142 120" fill="none">
  <path
    d="M16.997 51.9573C16.7169 49.0216 19.0253 46.4824 21.9744 46.4824H115.486C118.435 46.4824 120.744 49.0216 120.464 51.9573L115.008 109.14C114.42 115.298 109.248 120 103.062 120H34.3984C28.2125 120 23.0402 115.298 22.4526 109.14L16.997 51.9573Z"
    fill="url(#paint0_linear_13122_122367)" />
  <rect x="28.5029" y="12.1743" width="81.3645" height="66.5159" rx="5" fill="url(#paint1_linear_13122_122367)" />
  <path
    d="M10.9293 67.3458C10.1797 64.2034 12.5623 61.1858 15.7928 61.1858H61.7156H73.8407C75.6136 61.1858 77.3645 60.7929 78.9674 60.0355L88.9162 55.3344C90.5192 54.5769 92.2701 54.1841 94.043 54.1841H121.822C125.003 54.1841 127.375 57.1153 126.712 60.2264L114.815 116.042C114.323 118.35 112.284 120 109.925 120H27.436C25.1214 120 23.1094 118.411 22.5724 116.16L10.9293 67.3458Z"
    fill="url(#paint2_linear_13122_122367)" />
  <rect x="29.8018" y="103.196" width="27.3553" height="4.20101" rx="2.1005" fill="#656E78" />
  <rect x="41.1289" y="24.0771" width="56.1135" height="6" rx="3" fill="#656E78" />
  <rect x="41.1289" y="41.5811" width="56.1135" height="6" rx="3" fill="#656E78" />
  <g opacity="0.3">
    <path
      d="M13.6164 37.8715C13.6164 37.8715 13.607 43.4021 10.3993 48.0049C8.62123 50.5561 6.26743 52.7075 2 54.5396C2 54.5396 2.93978 52.2327 4.55012 46.7342C5.00023 45.1973 5.6456 43.6961 6.74961 42.5345C9.84879 39.2735 13.6164 37.8715 13.6164 37.8715Z"
      fill="#D9D9D9" />
    <path
      d="M13.6164 37.8715L14.1164 37.8723L14.1176 37.1514L13.442 37.4028L13.6164 37.8715ZM10.3993 48.0049L9.98904 47.719L10.3993 48.0049ZM2 54.5396L1.53695 54.351L1.07701 55.48L2.19725 54.9991L2 54.5396ZM4.55012 46.7342L4.07028 46.5937L4.55012 46.7342ZM6.74961 42.5345L7.11204 42.8789L6.74961 42.5345ZM18.1103 32.7818C18.3633 32.6711 18.4787 32.3763 18.368 32.1233C18.2574 31.8703 17.9625 31.755 17.7096 31.8656L18.1103 32.7818ZM13.6164 37.8715C13.1164 37.8706 13.1164 37.8705 13.1164 37.8704C13.1164 37.8704 13.1164 37.8703 13.1164 37.8703C13.1164 37.8703 13.1164 37.8703 13.1164 37.8705C13.1164 37.8708 13.1164 37.8714 13.1164 37.8724C13.1164 37.8743 13.1163 37.8775 13.1163 37.882C13.1162 37.8911 13.116 37.9053 13.1156 37.9245C13.1148 37.9629 13.1132 38.0211 13.1101 38.0978C13.1039 38.251 13.0914 38.4774 13.0667 38.7645C13.017 39.3389 12.9181 40.1545 12.721 41.1112C12.326 43.0289 11.5414 45.4916 9.98904 47.719L10.8095 48.2907C12.4649 45.9154 13.2888 43.3113 13.7005 41.313C13.9067 40.3118 14.0106 39.457 14.0629 38.8506C14.0891 38.5472 14.1025 38.3056 14.1093 38.1384C14.1127 38.0548 14.1145 37.9898 14.1154 37.9449C14.1158 37.9225 14.1161 37.9051 14.1162 37.8929C14.1163 37.8868 14.1163 37.882 14.1164 37.8786C14.1164 37.8769 14.1164 37.8755 14.1164 37.8744C14.1164 37.8739 14.1164 37.8735 14.1164 37.8731C14.1164 37.8729 14.1164 37.8727 14.1164 37.8726C14.1164 37.8725 14.1164 37.8723 13.6164 37.8715ZM9.98904 47.719C8.26613 50.1912 5.98718 52.2837 1.80275 54.0802L2.19725 54.9991C6.54767 53.1313 8.97634 50.9211 10.8095 48.2907L9.98904 47.719ZM2 54.5396C2.46305 54.7283 2.46308 54.7282 2.4631 54.7281C2.46312 54.7281 2.46315 54.728 2.46318 54.7279C2.46324 54.7278 2.46331 54.7276 2.46339 54.7274C2.46357 54.727 2.4638 54.7264 2.46408 54.7257C2.46465 54.7243 2.46545 54.7223 2.46648 54.7198C2.46853 54.7147 2.47149 54.7073 2.47535 54.6976C2.48307 54.6783 2.49439 54.6497 2.50924 54.6117C2.53894 54.5357 2.58276 54.422 2.64019 54.2687C2.75505 53.9623 2.92433 53.498 3.14383 52.862C3.58282 51.59 4.22273 49.6311 5.02997 46.8748L4.07028 46.5937C3.26717 49.3359 2.63202 51.2797 2.19854 52.5357C1.9818 53.1638 1.81548 53.6198 1.70381 53.9178C1.64797 54.0667 1.6058 54.1762 1.57781 54.2478C1.56382 54.2836 1.55337 54.31 1.54654 54.3271C1.54312 54.3357 1.54061 54.3419 1.53901 54.3459C1.53821 54.3479 1.53764 54.3493 1.53729 54.3501C1.53712 54.3506 1.53701 54.3508 1.53695 54.351C1.53692 54.3511 1.53691 54.3511 1.53691 54.3511L1.53692 54.3511C1.53693 54.351 1.53695 54.351 2 54.5396ZM7.11204 42.8789C8.61834 41.294 10.2919 40.1565 11.5929 39.4144C12.2424 39.044 12.7963 38.7737 13.186 38.5967C13.3808 38.5083 13.5344 38.4432 13.6381 38.4007C13.6899 38.3795 13.7293 38.3639 13.7551 38.3538C13.768 38.3487 13.7775 38.3451 13.7835 38.3428C13.7865 38.3417 13.7886 38.3409 13.7898 38.3404C13.7904 38.3402 13.7908 38.34 13.791 38.34C13.7911 38.3399 13.7911 38.3399 13.791 38.34C13.791 38.34 13.791 38.34 13.791 38.34C13.7909 38.34 13.7908 38.3401 13.6164 37.8715C13.442 37.4028 13.4419 37.4029 13.4417 37.4029C13.4417 37.403 13.4415 37.403 13.4414 37.4031C13.4411 37.4032 13.4408 37.4033 13.4404 37.4034C13.4396 37.4037 13.4387 37.4041 13.4374 37.4046C13.435 37.4055 13.4317 37.4067 13.4274 37.4083C13.419 37.4116 13.407 37.4162 13.3915 37.4222C13.3606 37.4343 13.316 37.452 13.2588 37.4754C13.1444 37.5223 12.9794 37.5923 12.7725 37.6862C12.359 37.874 11.7773 38.1581 11.0975 38.5458C9.73993 39.32 7.98006 40.514 6.38718 42.19L7.11204 42.8789ZM5.02997 46.8748C5.47061 45.3702 6.08751 43.9569 7.11204 42.8789L6.38718 42.19C5.2037 43.4353 4.52985 45.0245 4.07028 46.5937L5.02997 46.8748ZM12.9605 39.8704C13.4349 38.8486 14.2722 37.2573 15.2344 35.8186C15.7155 35.0994 16.2214 34.4279 16.7224 33.8874C17.2301 33.3398 17.7022 32.9603 18.1103 32.7818L17.7096 31.8656C17.1153 32.1256 16.5316 32.6224 15.9891 33.2076C15.44 33.7998 14.9015 34.5176 14.4032 35.2627C13.4065 36.7529 12.5447 38.3911 12.0534 39.4493L12.9605 39.8704Z"
      fill="#D9D9D9" />
  </g>
  <g opacity="0.3">
    <path
      d="M40.1988 25.348C40.1988 25.348 40.1924 29.1339 38.0033 32.2847C36.79 34.0312 35.1837 35.5039 32.2715 36.7581C32.2715 36.7581 32.8292 35.3848 33.7956 32.1471C34.2536 30.6128 34.8829 29.0941 36.0541 28.0037C38.0419 26.1531 40.1988 25.348 40.1988 25.348Z"
      fill="#D9D9D9" />
    <path
      d="M40.1988 25.348L40.6988 25.3488L40.7 24.6272L40.0239 24.8795L40.1988 25.348ZM38.0033 32.2847L37.5927 31.9995L38.0033 32.2847ZM32.2715 36.7581L31.8082 36.5699L31.3495 37.6995L32.4693 37.2173L32.2715 36.7581ZM33.7956 32.1471L33.3165 32.0041L33.7956 32.1471ZM36.0541 28.0037L36.3948 28.3697L36.0541 28.0037ZM43.3297 22.0082C43.5826 21.8972 43.6977 21.6022 43.5867 21.3494C43.4757 21.0965 43.1808 20.9815 42.9279 21.0924L43.3297 22.0082ZM40.1988 25.348C39.6988 25.3471 39.6988 25.347 39.6988 25.3469C39.6988 25.3469 39.6988 25.3468 39.6988 25.3467C39.6988 25.3467 39.6988 25.3466 39.6988 25.3467C39.6988 25.3468 39.6988 25.3471 39.6988 25.3476C39.6988 25.3487 39.6988 25.3506 39.6987 25.3535C39.6987 25.3592 39.6985 25.3684 39.6983 25.3811C39.6978 25.4063 39.6967 25.4452 39.6946 25.4965C39.6905 25.5993 39.6821 25.7519 39.6654 25.9459C39.632 26.3341 39.5652 26.8862 39.4322 27.5342C39.1652 28.8344 38.6359 30.498 37.5927 31.9995L38.414 32.57C39.5599 30.9207 40.1283 29.1159 40.4117 27.7354C40.5539 27.043 40.6256 26.4517 40.6617 26.0316C40.6798 25.8215 40.6891 25.6537 40.6938 25.5371C40.6962 25.4787 40.6974 25.4332 40.6981 25.4014C40.6984 25.3856 40.6986 25.3732 40.6987 25.3644C40.6987 25.3599 40.6987 25.3564 40.6988 25.3538C40.6988 25.3525 40.6988 25.3515 40.6988 25.3506C40.6988 25.3502 40.6988 25.3498 40.6988 25.3495C40.6988 25.3494 40.6988 25.3492 40.6988 25.3491C40.6988 25.349 40.6988 25.3488 40.1988 25.348ZM37.5927 31.9995C36.4343 33.6668 34.9028 35.0805 32.0737 36.2989L32.4693 37.2173C35.4646 35.9273 37.1457 34.3955 38.414 32.57L37.5927 31.9995ZM32.2715 36.7581C32.7347 36.9462 32.7348 36.9462 32.7348 36.9461C32.7348 36.9461 32.7348 36.946 32.7348 36.946C32.7349 36.9458 32.7349 36.9457 32.735 36.9456C32.7351 36.9453 32.7353 36.9449 32.7355 36.9444C32.7358 36.9435 32.7364 36.9422 32.737 36.9406C32.7383 36.9374 32.7401 36.9328 32.7425 36.9269C32.7472 36.915 32.7541 36.8976 32.7631 36.8747C32.781 36.8287 32.8073 36.7604 32.8418 36.6688C32.9107 36.4855 33.012 36.2088 33.1434 35.831C33.4062 35.0755 33.7895 33.9156 34.2747 32.2901L33.3165 32.0041C32.8353 33.6163 32.4565 34.7619 32.1989 35.5024C32.0701 35.8727 31.9716 36.1417 31.9057 36.317C31.8727 36.4047 31.8479 36.469 31.8316 36.5108C31.8234 36.5317 31.8174 36.5471 31.8135 36.5569C31.8115 36.5618 31.8101 36.5653 31.8092 36.5675C31.8088 36.5686 31.8085 36.5693 31.8083 36.5697C31.8082 36.5699 31.8082 36.5701 31.8082 36.5701C31.8082 36.5701 31.8082 36.5701 31.8082 36.5701C31.8082 36.5701 31.8082 36.57 31.8082 36.57C31.8082 36.57 31.8082 36.5699 32.2715 36.7581ZM36.3948 28.3697C37.3506 27.4799 38.3502 26.8388 39.1126 26.4201C39.493 26.2112 39.8124 26.0587 40.035 25.9591C40.1462 25.9093 40.233 25.8728 40.291 25.8492C40.32 25.8373 40.3417 25.8287 40.3557 25.8233C40.3627 25.8206 40.3677 25.8186 40.3707 25.8175C40.3722 25.8169 40.3732 25.8165 40.3737 25.8164C40.374 25.8163 40.3741 25.8162 40.3741 25.8162C40.3741 25.8162 40.374 25.8162 40.374 25.8163C40.3739 25.8163 40.3738 25.8163 40.3738 25.8163C40.3737 25.8164 40.3736 25.8164 40.1988 25.348C40.0239 24.8795 40.0238 24.8796 40.0237 24.8796C40.0236 24.8796 40.0235 24.8797 40.0234 24.8797C40.0232 24.8798 40.023 24.8799 40.0227 24.88C40.0222 24.8802 40.0215 24.8804 40.0207 24.8808C40.0191 24.8814 40.017 24.8822 40.0143 24.8832C40.0091 24.8852 40.0017 24.888 39.9924 24.8916C39.9738 24.8989 39.9473 24.9094 39.9134 24.9232C39.8457 24.9508 39.7485 24.9917 39.6265 25.0463C39.3824 25.1555 39.0384 25.32 38.6312 25.5436C37.8182 25.9901 36.7455 26.677 35.7134 27.6378L36.3948 28.3697ZM34.2747 32.2901C34.7264 30.777 35.3247 29.366 36.3948 28.3697L35.7134 27.6378C34.4412 28.8222 33.7808 30.4486 33.3165 32.0041L34.2747 32.2901ZM39.8955 26.7822C40.2166 26.0884 40.7841 25.0065 41.4354 24.0298C41.7609 23.5415 42.1011 23.0891 42.4354 22.7274C42.7764 22.3584 43.0809 22.1173 43.3297 22.0082L42.9279 21.0924C42.4927 21.2834 42.0767 21.6422 41.701 22.0486C41.3187 22.4623 40.9461 22.9609 40.6033 23.4751C39.9178 24.5033 39.3258 25.6321 38.9879 26.3622L39.8955 26.7822Z"
      fill="#D9D9D9" />
  </g>
  <g opacity="0.3">
    <path
      d="M126.309 74.2824C126.309 74.2824 125.671 70.2286 127.565 66.635C129.458 63.0414 131.966 60.6389 133.166 61.2688C134.366 61.8988 133.804 65.3227 131.91 68.9163C130.017 72.5099 126.309 74.2824 126.309 74.2824Z"
      fill="#D9D9D9" />
    <path
      d="M126.309 74.2824L125.816 74.3602L125.92 75.0229L126.525 74.7335L126.309 74.2824ZM135.236 58.1748C135.236 57.8987 135.012 57.6748 134.736 57.6748C134.46 57.6748 134.236 57.8987 134.236 58.1748L135.236 58.1748ZM126.309 74.2824C126.803 74.2047 126.803 74.2048 126.803 74.2049C126.803 74.2049 126.803 74.205 126.803 74.2051C126.803 74.2051 126.803 74.2052 126.803 74.2051C126.803 74.205 126.803 74.2046 126.803 74.204C126.803 74.2029 126.803 74.2007 126.802 74.1976C126.801 74.1914 126.8 74.1814 126.798 74.1678C126.794 74.1405 126.789 74.0986 126.782 74.0433C126.769 73.9325 126.753 73.768 126.738 73.5583C126.709 73.1386 126.689 72.5402 126.726 71.8326C126.801 70.4127 127.106 68.579 128.007 66.868L127.122 66.4019C126.131 68.2845 125.807 70.2746 125.728 71.78C125.688 72.535 125.709 73.1747 125.741 73.6274C125.756 73.854 125.775 74.0342 125.789 74.1591C125.796 74.2216 125.803 74.2704 125.807 74.3042C125.81 74.3212 125.812 74.3344 125.813 74.3438C125.814 74.3484 125.814 74.3522 125.815 74.3549C125.815 74.3563 125.815 74.3574 125.815 74.3583C125.815 74.3587 125.815 74.3591 125.815 74.3594C125.815 74.3596 125.815 74.3597 125.815 74.3598C125.816 74.36 125.816 74.3602 126.309 74.2824ZM128.007 66.868C128.936 65.1056 130.006 63.6539 130.971 62.7291C131.456 62.2648 131.893 61.9534 132.254 61.793C132.621 61.6297 132.827 61.6556 132.933 61.7115L133.398 60.8261C132.905 60.5671 132.347 60.6571 131.847 60.8793C131.341 61.1045 130.808 61.5002 130.279 62.007C129.217 63.0244 128.087 64.5707 127.122 66.4019L128.007 66.868ZM132.933 61.7115C133.04 61.7673 133.177 61.9213 133.25 62.3154C133.322 62.7026 133.313 63.2386 133.205 63.9002C132.988 65.218 132.397 66.9208 131.468 68.6832L132.353 69.1493C133.317 67.3182 133.953 65.5122 134.191 64.0622C134.31 63.3399 134.335 62.6771 134.234 62.1329C134.134 61.5955 133.892 61.0853 133.398 60.8261L132.933 61.7115ZM131.468 68.6832C130.567 70.3943 129.225 71.6838 128.096 72.5502C127.533 72.9819 127.027 73.3046 126.664 73.5186C126.483 73.6255 126.338 73.7049 126.239 73.7571C126.19 73.7832 126.152 73.8024 126.127 73.8148C126.115 73.8209 126.106 73.8254 126.1 73.8282C126.097 73.8296 126.095 73.8305 126.094 73.831C126.094 73.8313 126.094 73.8315 126.093 73.8315C126.093 73.8315 126.093 73.8315 126.093 73.8315C126.093 73.8315 126.094 73.8314 126.094 73.8314C126.094 73.8314 126.094 73.8313 126.309 74.2824C126.525 74.7335 126.525 74.7335 126.525 74.7334C126.526 74.7333 126.526 74.7333 126.526 74.7332C126.526 74.7331 126.526 74.7329 126.527 74.7327C126.528 74.7323 126.529 74.7318 126.53 74.7312C126.532 74.73 126.536 74.7284 126.54 74.7263C126.549 74.7221 126.561 74.7162 126.576 74.7085C126.606 74.6932 126.65 74.6708 126.706 74.6414C126.817 74.5826 126.976 74.4955 127.172 74.3801C127.564 74.1493 128.104 73.8043 128.704 73.3437C129.902 72.4255 131.361 71.0319 132.353 69.1493L131.468 68.6832ZM130.113 65.9251C130.291 65.4939 130.656 65.0541 131.166 64.5516C131.417 64.3041 131.692 64.0527 131.983 63.7852C132.272 63.5199 132.575 63.2403 132.873 62.946C134.06 61.7729 135.236 60.2895 135.236 58.1748L134.236 58.1748C134.236 59.8751 133.307 61.1117 132.17 62.2347C131.887 62.5145 131.596 62.7824 131.307 63.0487C131.019 63.3126 130.731 63.5768 130.464 63.8392C129.939 64.3567 129.449 64.9147 129.189 65.5431L130.113 65.9251Z"
      fill="#D9D9D9" />
  </g>
  <g opacity="0.3">
    <path
      d="M74.5914 15.8633C74.5914 15.8633 72.5119 11.5644 74.1485 8.49148C75.7852 5.41855 78.637 3.7368 80.5182 4.73519C82.3995 5.73358 82.5978 9.03403 80.9611 12.107C79.3245 15.1799 74.5914 15.8633 74.5914 15.8633Z"
      fill="#D9D9D9" />
    <path
      d="M74.5914 15.8633L74.1413 16.081L74.3007 16.4104L74.6629 16.3581L74.5914 15.8633ZM84.0106 0.455795C84.2624 0.342273 84.3744 0.0461784 84.2609 -0.20555C84.1474 -0.457279 83.8513 -0.569317 83.5995 -0.455795L84.0106 0.455795ZM74.5914 15.8633C75.0415 15.6455 75.0416 15.6456 75.0416 15.6457C75.0416 15.6457 75.0417 15.6458 75.0417 15.6458C75.0417 15.6459 75.0417 15.6459 75.0416 15.6458C75.0416 15.6456 75.0413 15.6452 75.041 15.6445C75.0404 15.6431 75.0392 15.6407 75.0376 15.6374C75.0344 15.6306 75.0294 15.6198 75.0227 15.6052C75.0093 15.5761 74.9892 15.5317 74.9639 15.4733C74.9132 15.3566 74.8415 15.1845 74.7601 14.9678C74.597 14.5334 74.3962 13.9239 74.2449 13.2241C73.9383 11.8055 73.8549 10.1064 74.5898 8.72652L73.7072 8.25644C72.8054 9.94954 72.9435 11.9363 73.2675 13.4353C73.4315 14.1943 73.6483 14.8517 73.824 15.3193C73.912 15.5536 73.99 15.7414 74.0466 15.8717C74.075 15.937 74.098 15.9879 74.1142 16.0232C74.1224 16.0409 74.1288 16.0546 74.1334 16.0643C74.1356 16.0692 74.1375 16.073 74.1388 16.0758C74.1395 16.0772 74.14 16.0783 74.1404 16.0792C74.1406 16.0796 74.1408 16.08 74.141 16.0803C74.141 16.0804 74.1411 16.0806 74.1412 16.0807C74.1412 16.0808 74.1413 16.081 74.5914 15.8633ZM74.5898 8.72652C75.372 7.25782 76.4344 6.14312 77.4956 5.51728C78.5656 4.88632 79.5549 4.79 80.2838 5.17684L80.7526 4.29353C79.6003 3.68198 78.2231 3.92734 76.9877 4.6559C75.7435 5.38957 74.5616 6.65221 73.7072 8.25644L74.5898 8.72652ZM80.2838 5.17684C81.0124 5.56352 81.4854 6.43544 81.5598 7.67311C81.6336 8.90091 81.3021 10.4032 80.5198 11.8719L81.4025 12.342C82.2569 10.7378 82.6445 9.05339 82.558 7.61314C82.4721 6.18275 81.9053 4.90525 80.7526 4.29353L80.2838 5.17684ZM80.5198 11.8719C79.7848 13.2519 78.3268 14.1334 76.9769 14.6732C76.311 14.9395 75.6924 15.1142 75.2404 15.2221C75.0148 15.276 74.8318 15.313 74.7065 15.3363C74.6439 15.348 74.5957 15.3562 74.564 15.3614C74.5481 15.364 74.5364 15.3659 74.5289 15.367C74.5252 15.3676 74.5226 15.368 74.5211 15.3682C74.5203 15.3683 74.5199 15.3684 74.5197 15.3684C74.5196 15.3684 74.5196 15.3684 74.5196 15.3684C74.5196 15.3684 74.5197 15.3684 74.5197 15.3684C74.5198 15.3684 74.52 15.3684 74.5914 15.8633C74.6629 16.3581 74.663 16.3581 74.6632 16.3581C74.6633 16.3581 74.6635 16.358 74.6636 16.358C74.664 16.358 74.6644 16.3579 74.6649 16.3578C74.6658 16.3577 74.6671 16.3575 74.6686 16.3573C74.6717 16.3568 74.6758 16.3562 74.6811 16.3554C74.6917 16.3537 74.7067 16.3514 74.7259 16.3482C74.7643 16.3419 74.8195 16.3325 74.8895 16.3194C75.0294 16.2934 75.229 16.253 75.4727 16.1948C75.9592 16.0786 76.6263 15.8904 77.3482 15.6017C78.774 15.0316 80.5008 14.0349 81.4025 12.342L80.5198 11.8719ZM80.0112 6.53031C80.2123 5.72687 80.6633 4.44 81.3535 3.22876C82.0505 2.00548 82.9486 0.934727 84.0106 0.455795L83.5995 -0.455795C82.2494 0.153073 81.2187 1.44524 80.4846 2.7337C79.7436 4.0342 79.2613 5.40788 79.0411 6.2875L80.0112 6.53031Z"
      fill="#D9D9D9" />
  </g>
  <g opacity="0.3">
    <path
      d="M119.278 46.4681C119.278 46.4681 121.91 45.9622 122.936 44.3125C123.963 42.6629 123.99 40.9533 122.996 40.4941C122.002 40.0349 120.364 41 119.338 42.6497C118.311 44.2994 119.278 46.4681 119.278 46.4681Z"
      fill="#D9D9D9" />
    <path
      d="M119.278 46.4681L118.821 46.6717L118.983 47.034L119.372 46.9591L119.278 46.4681ZM125.209 38.083C125.21 37.8069 124.987 37.5819 124.711 37.5806C124.435 37.5792 124.21 37.802 124.209 38.0781L125.209 38.083ZM119.278 46.4681C119.372 46.9591 119.372 46.9591 119.373 46.9591C119.373 46.9591 119.373 46.959 119.373 46.959C119.373 46.959 119.373 46.9589 119.374 46.9588C119.374 46.9587 119.375 46.9585 119.376 46.9583C119.378 46.958 119.381 46.9574 119.384 46.9568C119.39 46.9555 119.399 46.9537 119.411 46.9513C119.433 46.9466 119.465 46.9397 119.505 46.9304C119.586 46.9118 119.7 46.8838 119.839 46.8449C120.117 46.7675 120.499 46.646 120.917 46.4694C121.735 46.1234 122.765 45.5336 123.361 44.5767L122.512 44.0483C122.081 44.7412 121.282 45.2291 120.527 45.5485C120.158 45.7045 119.818 45.8127 119.571 45.8816C119.448 45.916 119.348 45.9404 119.281 45.9559C119.247 45.9637 119.221 45.9693 119.205 45.9727C119.196 45.9745 119.19 45.9757 119.187 45.9764C119.185 45.9768 119.184 45.977 119.183 45.9771C119.183 45.9772 119.183 45.9772 119.183 45.9772C119.183 45.9772 119.183 45.9772 119.183 45.9772C119.183 45.9772 119.183 45.9771 119.183 45.9771C119.183 45.9771 119.184 45.9771 119.278 46.4681ZM123.361 44.5767C123.91 43.6945 124.211 42.767 124.224 41.9647C124.236 41.1713 123.955 40.3865 123.206 40.0402L122.786 40.948C123.031 41.0609 123.233 41.3605 123.224 41.9491C123.215 42.5288 122.989 43.281 122.512 44.0483L123.361 44.5767ZM123.206 40.0402C122.49 39.7094 121.646 39.9259 120.925 40.3503C120.185 40.7864 119.463 41.5012 118.913 42.3855L119.762 42.9139C120.238 42.1485 120.849 41.5559 121.433 41.2119C122.037 40.8561 122.508 40.8197 122.786 40.948L123.206 40.0402ZM118.913 42.3855C118.31 43.3546 118.307 44.4488 118.428 45.2525C118.49 45.6599 118.586 46.0098 118.667 46.2583C118.708 46.383 118.745 46.4832 118.773 46.5537C118.786 46.589 118.798 46.6169 118.806 46.6368C118.81 46.6467 118.814 46.6546 118.816 46.6605C118.818 46.6634 118.819 46.6658 118.819 46.6677C118.82 46.6686 118.82 46.6695 118.821 46.6701C118.821 46.6705 118.821 46.6708 118.821 46.671C118.821 46.6712 118.821 46.6713 118.821 46.6714C118.821 46.6716 118.821 46.6717 119.278 46.4681C119.735 46.2645 119.735 46.2646 119.735 46.2648C119.735 46.2648 119.735 46.2649 119.735 46.265C119.735 46.2651 119.735 46.2652 119.735 46.2653C119.735 46.2655 119.735 46.2655 119.735 46.2654C119.735 46.2651 119.735 46.2644 119.734 46.2632C119.733 46.2607 119.731 46.2563 119.728 46.2499C119.723 46.2372 119.715 46.2169 119.704 46.1897C119.683 46.1351 119.652 46.0531 119.618 45.9486C119.55 45.7389 119.469 45.4435 119.417 45.1026C119.312 44.4094 119.338 43.5945 119.762 42.9139L118.913 42.3855ZM122.762 42.1106C123.165 41.7644 123.76 41.1638 124.26 40.4653C124.748 39.7834 125.205 38.926 125.209 38.083L124.209 38.0781C124.206 38.5995 123.904 39.2433 123.446 39.8835C123 40.5073 122.462 41.0499 122.111 41.3521L122.762 42.1106Z"
      fill="#D9D9D9" />
  </g>
  <defs>
    <linearGradient id="paint0_linear_13122_122367" x1="69.3309" y1="55.6721" x2="69.3309" y2="112.342"
      gradientUnits="userSpaceOnUse">
      <stop stop-color="#303439" />
      <stop offset="1" stop-color="#3B4147" />
    </linearGradient>
    <linearGradient id="paint1_linear_13122_122367" x1="69.6528" y1="20.4888" x2="69.6528" y2="71.7615"
      gradientUnits="userSpaceOnUse">
      <stop stop-color="#303439" />
      <stop offset="1" stop-color="#3B4147" />
    </linearGradient>
    <linearGradient id="paint2_linear_13122_122367" x1="69.4111" y1="62.4111" x2="69.4111" y2="113.144"
      gradientUnits="userSpaceOnUse">
      <stop stop-color="#303439" />
      <stop offset="1" stop-color="#3B4147" />
    </linearGradient>
  </defs>
</svg>