<svg width="22" height="22" viewBox="0 0 22 22" fill="none" xmlns="http://www.w3.org/2000/svg">
<ellipse cx="11" cy="11" rx="11" ry="11" fill="#FF0000"/>
<path fill-rule="evenodd" clip-rule="evenodd" d="M15.778 6.22872C16.2525 6.71141 16.2525 7.494 15.778 7.97669L8.11641 15.7708C7.47775 16.4205 6.39026 16.1594 6.10464 15.2877C5.95911 14.8435 6.07274 14.3539 6.39816 14.0228L14.0597 6.22872C14.5342 5.74603 15.3035 5.74603 15.778 6.22872Z" fill="white"/>
<path fill-rule="evenodd" clip-rule="evenodd" d="M6.22305 6.22872C5.74857 6.71141 5.74857 7.494 6.22305 7.97669L13.8846 15.7708C14.5233 16.4205 15.6108 16.1594 15.8964 15.2877C16.0419 14.8435 15.9283 14.3539 15.6029 14.0228L7.9413 6.22872C7.46682 5.74603 6.69753 5.74603 6.22305 6.22872Z" fill="white"/>
</svg>
