<svg xmlns="http://www.w3.org/2000/svg" width="20" height="20" viewBox="0 0 20 20" fill="none">
  <path
    d="M10.3575 3.01694L10.357 3.01729C10.3038 3.05058 10.2503 3.08411 10.1966 3.11798C9.97184 2.9588 9.73776 2.79026 9.5224 2.603C9.50287 2.58997 9.49239 2.56337 9.48152 2.53578C9.47677 2.52369 9.47192 2.5114 9.46622 2.5H10.3932C10.5617 2.54682 10.7396 2.59363 10.9456 2.64045C10.7469 2.77294 10.5538 2.89395 10.3575 3.01694Z"
    fill="#FF284B" />
  <path
    d="M16.8633 8.27095C16.8352 8.06496 16.8071 7.87769 16.7696 7.65298C16.6428 7.91719 16.5876 8.03229 16.6207 8.10936C16.6463 8.16886 16.7246 8.20569 16.8633 8.27095Z"
    fill="#FF284B" />
  <path
    d="M6.69006 11.0446C6.50515 10.4474 6.3202 9.85002 6.13295 9.25512C6.10486 9.17079 6.02059 9.08647 5.94568 9.05836C5.6626 8.95107 5.37952 8.84771 5.09734 8.74468C4.76359 8.62281 4.43087 8.50132 4.10112 8.37442C3.96067 8.3182 3.85767 8.33694 3.74531 8.43063C3.53934 8.57584 3.33103 8.7187 3.12272 8.86157C2.91439 9.00445 2.70599 9.14737 2.5 9.29259V10.6699C2.52809 10.9041 2.55618 11.1289 2.603 11.3632C2.83708 12.5624 3.32397 13.6492 4.00749 14.6517C4.09176 14.7735 4.18539 14.811 4.31647 14.8016C4.81273 14.7735 5.29962 14.7454 5.79587 14.708C5.86141 14.6986 5.94568 14.6517 5.9925 14.5955C6.19381 14.3566 6.39278 14.1154 6.59175 13.8741C6.79072 13.6328 6.98969 13.3916 7.191 13.1527C7.25654 13.059 7.29399 12.9747 7.24718 12.8341C7.05992 12.2392 6.87497 11.6419 6.69006 11.0446Z"
    fill="#FF284B" />
  <path
    d="M15.9363 8.6555C16.0206 8.62739 16.1517 8.67423 16.2266 8.73045C16.4566 8.89926 16.6839 9.07365 16.9145 9.25058C17.1062 9.39771 17.3002 9.54659 17.5 9.69547V10.4075C17.4806 10.5395 17.4644 10.673 17.4481 10.8075C17.4251 10.9976 17.4018 11.1899 17.3689 11.3819C17.2004 12.4031 16.8258 13.3401 16.2266 14.1833C16.0581 14.4269 15.8708 14.6611 15.6742 14.8953C15.6273 14.9422 15.5337 14.989 15.4682 14.989C14.9813 14.9984 14.5038 14.9984 14.0262 14.989C13.9607 14.989 13.8577 14.9328 13.8202 14.8766C13.4363 14.3426 13.0618 13.7992 12.6966 13.2464C12.6405 13.1714 12.6311 13.0309 12.6592 12.9466C12.9924 11.9983 13.3314 11.0559 13.6716 10.1101C13.7617 9.85978 13.8518 9.60919 13.942 9.35818C13.97 9.28323 14.0543 9.18954 14.1292 9.1708C14.7284 8.9928 15.3278 8.81475 15.9363 8.6555Z"
    fill="#FF284B" />
  <path
    d="M12.0693 13.7242C12.0225 13.6587 11.9102 13.6024 11.8165 13.6024C11.6759 13.5912 11.5352 13.5901 11.3925 13.5889C11.2978 13.5882 11.202 13.5874 11.1049 13.5837C10.0469 13.5556 8.97945 13.5275 7.9214 13.5087C7.8465 13.5087 7.7435 13.565 7.68732 13.6305C7.2847 14.1365 6.88208 14.6424 6.49819 15.1577C6.45137 15.2233 6.42328 15.3545 6.44201 15.4294C6.59182 15.8698 6.76036 16.3101 6.93826 16.7411C6.96635 16.8067 7.02253 16.9004 7.07871 16.9191C7.16222 16.9442 7.24593 16.9695 7.32981 16.9948C7.81027 17.1398 8.29659 17.2867 8.78283 17.4063C8.95305 17.4522 9.13244 17.466 9.31138 17.4797C9.38832 17.4856 9.46524 17.4916 9.54125 17.5H10.1218L10.1458 17.496C10.249 17.4787 10.3452 17.4625 10.4495 17.4625C11.1424 17.4532 11.8165 17.3032 12.4532 17.0409C12.5094 17.0128 12.5843 16.966 12.603 16.9097C12.7903 16.4132 12.9682 15.9072 13.1367 15.4013C13.1555 15.3451 13.1461 15.2514 13.118 15.2046C13.0442 15.0988 12.9708 14.993 12.8975 14.8873C12.6267 14.4969 12.3567 14.1076 12.0693 13.7242Z"
    fill="#FF284B" />
  <path
    d="M6.90077 8.8991C7.0071 9.26868 7.11259 9.63658 7.21774 10.0033C7.46445 10.8637 7.70937 11.7179 7.95882 12.5718C7.97755 12.628 8.08054 12.6936 8.14609 12.6936C8.41383 12.7061 8.68571 12.7102 8.95622 12.7144C9.0925 12.7165 9.22843 12.7186 9.36331 12.7217L9.41694 12.723C10.186 12.7413 10.9636 12.7598 11.7322 12.7873C11.8446 12.7873 11.9008 12.7498 11.9382 12.6468C12.3502 11.4662 12.7622 10.2857 13.1835 9.09585C12.4195 8.51732 11.6606 7.92867 10.903 7.34105L10.9018 7.34017C10.6292 7.12871 10.3567 6.91739 10.0843 6.70672L9.63864 7.01588C8.72398 7.65055 7.81931 8.2783 6.90077 8.8991Z"
    fill="#FF284B" />
  <path
    d="M4.50376 7.69051C4.35395 7.6343 4.26968 7.5406 4.22286 7.3907C4.08241 6.95972 3.9326 6.51937 3.77343 6.08839C3.71725 5.95722 3.74534 5.8729 3.8296 5.76047C4.47567 4.85166 5.29027 4.13024 6.24533 3.56809C6.89139 3.18396 7.57491 2.93099 8.29588 2.73424C8.35206 2.72487 8.42697 2.74361 8.47378 2.78108C8.91386 3.09963 9.36329 3.42755 9.80337 3.75547C9.83629 3.78183 9.85996 3.82209 9.88413 3.86321C9.89433 3.88056 9.90461 3.89807 9.91573 3.91475C9.90636 3.91943 9.89934 3.92177 9.89232 3.92412C9.8853 3.92646 9.87827 3.9288 9.86891 3.93349C9.8626 4.14824 9.85522 4.36194 9.84786 4.57528C9.83337 4.99485 9.81894 5.41308 9.81273 5.83542C9.81273 6.0228 9.74719 6.1446 9.58801 6.24766C8.94335 6.67575 8.30236 7.10751 7.66274 7.53834C7.28046 7.79584 6.89865 8.05302 6.51686 8.30887C6.44196 8.35572 6.32023 8.37446 6.24533 8.34635C5.89701 8.22268 5.5487 8.08889 5.20039 7.95509C4.96818 7.8659 4.73597 7.77671 4.50376 7.69051Z"
    fill="#FF284B" />
  <path
    d="M10.4868 3.97079C10.4775 4.29871 10.4775 4.61726 10.4775 4.94518C10.4775 5.02675 10.4769 5.1089 10.4763 5.19135C10.4745 5.44021 10.4728 5.69208 10.4868 5.93831C10.4868 6.02263 10.543 6.14443 10.6086 6.19128C11.6011 6.94081 12.5936 7.69034 13.5861 8.4305C13.6329 8.46798 13.7265 8.48672 13.7827 8.46798C14.4381 8.26187 15.0936 8.05572 15.7396 7.84025C15.8145 7.82151 15.8894 7.74655 15.9175 7.68097C16.0954 7.24062 16.2546 6.7909 16.4138 6.34118C16.4419 6.2756 16.4325 6.16317 16.3951 6.10696C16.3501 6.04137 16.3055 5.97541 16.261 5.90945C16.0827 5.64562 15.9044 5.38178 15.7022 5.14193C14.7378 3.98953 13.5112 3.22126 12.088 2.76217C12.0224 2.74344 11.9194 2.77154 11.8632 2.80902C11.4419 3.10883 11.0205 3.41801 10.6086 3.73656C10.5337 3.79278 10.4868 3.89584 10.4868 3.97079Z"
    fill="#FF284B" />
  <path
    d="M13.7453 15.7853C13.764 15.7385 13.8296 15.6823 13.8764 15.6823C14.0168 15.6776 14.1573 15.6776 14.3036 15.6776C14.4499 15.6776 14.602 15.6776 14.7659 15.673C14.3727 16.0756 13.9794 16.3658 13.4738 16.5718C13.5168 16.4507 13.5549 16.3361 13.5915 16.2259C13.6425 16.0722 13.6908 15.9271 13.7453 15.7853Z"
    fill="#FF284B" />
  <path
    d="M3.41766 7.76548C3.45511 7.73738 3.4832 7.66242 3.47384 7.62495C3.39893 7.37198 3.31466 7.11901 3.23039 6.86605H3.16485C3.00567 7.28766 2.8465 7.71864 2.69669 8.14025C2.70605 8.14493 2.71541 8.15196 2.72477 8.15899C2.73414 8.16601 2.7435 8.17304 2.75286 8.17773L2.85103 8.11803C3.0381 8.00435 3.23465 7.88491 3.41766 7.76548Z"
    fill="#FF284B" />
  <path
    d="M5.11376 15.3992C5.27917 15.3971 5.44599 15.395 5.60863 15.4013C5.65545 15.4013 5.72099 15.4387 5.73035 15.4762C5.77249 15.6026 5.81228 15.7313 5.85207 15.8601C5.89187 15.9888 5.93166 16.1176 5.9738 16.244C5.96443 16.2534 5.95507 16.2604 5.94571 16.2674C5.93634 16.2744 5.92698 16.2814 5.91762 16.2908C5.73972 16.155 5.55947 16.0193 5.37923 15.8835C5.19899 15.7477 5.01874 15.612 4.84084 15.4762C4.84552 15.4622 4.85021 15.4504 4.85489 15.4387C4.85957 15.427 4.86425 15.4153 4.86893 15.4013C4.94974 15.4013 5.03157 15.4003 5.11376 15.3992Z"
    fill="#FF284B" />
</svg>