<svg width="21" height="20" viewBox="0 0 21 20" fill="none" xmlns="http://www.w3.org/2000/svg">
<g clip-path="url(#clip0_10173_115994)">
<path fill-rule="evenodd" clip-rule="evenodd" d="M3.4094 17.1316C1.53404 15.2563 0.480469 12.7127 0.480469 10.0605C0.480469 7.40838 1.53404 4.86484 3.4094 2.98948C5.28476 1.11412 7.8283 0.0605469 10.4805 0.0605469C13.1326 0.0605469 15.6762 1.11412 17.5515 2.98948C19.4269 4.86484 20.4805 7.40838 20.4805 10.0605C20.4805 12.7127 19.4269 15.2563 17.5515 17.1316C15.6762 19.007 13.1326 20.0605 10.4805 20.0605C7.8283 20.0605 5.28476 19.007 3.4094 17.1316ZM8.07404 9.1739L8.94995 11.8696L6.56886 15.1469L3.29167 15.2683C3.29167 15.2683 1.63033 13.5431 1.59838 9.99678L4.42356 7.98771L8.07404 9.1739ZM10.5252 6.88585L8.10292 8.64573L4.31238 7.41403L3.41947 4.43767C3.41947 4.43767 5.04886 2.2332 7.73257 1.46643L10.5252 3.40918V6.88585ZM13.4584 8.64573L11.0365 6.88585V3.24304L13.4513 1.46643C13.4513 1.46643 15.9114 2.1693 17.8602 4.69327L17.0366 7.48304L13.4584 8.64573ZM16.8955 8.06643L19.4896 9.93288C19.4896 9.93288 19.6174 13.1279 17.8602 15.2046H15.0345L12.6115 11.8695L13.4875 9.17378L16.8955 8.06643ZM9.41282 12.1021H12.1488L14.4951 15.3317L13.4513 18.4632C13.4513 18.4632 10.2245 19.6134 7.92413 18.4632L6.89423 15.5685L9.41282 12.1021Z" fill="#FF284B"/>
</g>
<defs>
<clipPath id="clip0_10173_115994">
<rect width="20" height="20" fill="white" transform="translate(0.5)"/>
</clipPath>
</defs>
</svg>
