<svg width="23" height="16" viewBox="0 0 23 16" fill="none" xmlns="http://www.w3.org/2000/svg">
<path fill-rule="evenodd" clip-rule="evenodd" d="M2 0C0.895431 0 0 0.895431 0 2V14C0 15.1046 0.89543 16 2 16H21C22.1046 16 23 15.1046 23 14V2C23 0.895431 22.1046 0 21 0H2ZM4.24917 5.16759H2.89905V11.6932H7.58986V10.4815H4.24917V5.16759ZM9.3796 5.16759H8.02083V11.6932H9.3796V5.16759ZM11.0777 5.16759H9.60889L11.9303 11.6932H13.3949L15.7163 5.16759H14.2476L12.6626 9.87389L11.0777 5.16759ZM20.7519 5.16759H15.9486V11.6932H20.899V10.4815H17.3074V8.95832H20.5442V7.74667H17.3074V6.37924H20.7519V5.16759Z" fill="#FF284B"/>
</svg>
