<svg width="16" height="16" viewBox="0 0 16 16" fill="none" xmlns="http://www.w3.org/2000/svg">
<path d="M6.0198 6.02597H4.00581V3.67632C4.00581 3.16483 4.10705 2.68798 4.30951 2.24575C4.51198 1.80353 4.79169 1.41459 5.14867 1.07892C5.50565 0.743257 5.92656 0.47952 6.41141 0.287712C6.89626 0.0959041 7.42639 -1.04167e-08 8.00182 0C8.51331 0 9.00615 0.0959041 9.48034 0.287712C9.95453 0.47952 10.3754 0.743257 10.7431 1.07892C11.1107 1.41459 11.4037 1.80353 11.6222 2.24575C11.8406 2.68798 11.9499 3.16483 11.9499 3.67632V6.02597H10.0158V4.12388C10.0158 3.45255 9.82932 2.93307 9.45636 2.56543C9.0834 2.1978 8.57724 2.01399 7.93788 2.01399C7.36246 2.01399 6.89892 2.1978 6.54727 2.56543C6.19562 2.93307 6.0198 3.45255 6.0198 4.12388V6.02597ZM12.9089 6.98501C13.1966 6.98501 13.4444 7.08891 13.6522 7.2967C13.86 7.5045 13.9639 7.75225 13.9639 8.03996V12.995C13.9639 13.2827 13.9132 13.5518 13.812 13.8022C13.7108 14.0526 13.5722 14.2711 13.3964 14.4575C13.2206 14.644 13.0128 14.7905 12.773 14.8971C12.5333 15.0037 12.2696 15.0569 11.9818 15.0569H3.90991C3.6222 15.0569 3.36113 15.0037 3.12669 14.8971C2.89226 14.7905 2.69246 14.6494 2.52729 14.4735C2.36212 14.2977 2.23425 14.0926 2.14368 13.8581C2.0531 13.6237 2.00781 13.3733 2.00781 13.1069V8.03996C2.00781 7.75225 2.10904 7.5045 2.31151 7.2967C2.51397 7.08891 2.75906 6.98501 3.04677 6.98501H4.00581H6.0198H10.0158H11.9499H12.9089Z" fill="#67707B"/>
</svg>
