<svg xmlns="http://www.w3.org/2000/svg" width="16" height="16" viewBox="0 0 16 16" fill="none">
<path d="M0.5 1.25C0.5 0.835786 0.835787 0.5 1.25 0.5H5.75C6.16421 0.5 6.5 0.835786 6.5 1.25C6.5 1.66421 6.16421 2 5.75 2H1.25C0.835787 2 0.5 1.66421 0.5 1.25Z" fill="#67707B"/>
<path d="M1.25 0.5C1.66421 0.5 2 0.835786 2 1.25L2 5.75C2 6.16421 1.66421 6.5 1.25 6.5C0.835786 6.5 0.5 6.16421 0.5 5.75L0.5 1.25C0.5 0.835786 0.835787 0.5 1.25 0.5Z" fill="#67707B"/>
<path d="M0.5 14.75C0.5 15.1642 0.835787 15.5 1.25 15.5H5.75C6.16421 15.5 6.5 15.1642 6.5 14.75C6.5 14.3358 6.16421 14 5.75 14H1.25C0.835787 14 0.5 14.3358 0.5 14.75Z" fill="#67707B"/>
<path d="M1.25 15.5C1.66421 15.5 2 15.1642 2 14.75L2 10.25C2 9.83579 1.66421 9.5 1.25 9.5C0.835786 9.5 0.5 9.83579 0.5 10.25L0.5 14.75C0.5 15.1642 0.835787 15.5 1.25 15.5Z" fill="#67707B"/>
<path d="M15.5 1.25C15.5 0.835786 15.1642 0.5 14.75 0.5H10.25C9.83579 0.5 9.5 0.835786 9.5 1.25C9.5 1.66421 9.83579 2 10.25 2H14.75C15.1642 2 15.5 1.66421 15.5 1.25Z" fill="#67707B"/>
<path d="M14.75 0.5C14.3358 0.5 14 0.835786 14 1.25V5.75C14 6.16421 14.3358 6.5 14.75 6.5C15.1642 6.5 15.5 6.16421 15.5 5.75V1.25C15.5 0.835786 15.1642 0.5 14.75 0.5Z" fill="#67707B"/>
<path d="M15.5 14.75C15.5 15.1642 15.1642 15.5 14.75 15.5H10.25C9.83579 15.5 9.5 15.1642 9.5 14.75C9.5 14.3358 9.83579 14 10.25 14H14.75C15.1642 14 15.5 14.3358 15.5 14.75Z" fill="#67707B"/>
<path d="M14.75 15.5C14.3358 15.5 14 15.1642 14 14.75V10.25C14 9.83579 14.3358 9.5 14.75 9.5C15.1642 9.5 15.5 9.83579 15.5 10.25V14.75C15.5 15.1642 15.1642 15.5 14.75 15.5Z" fill="#67707B"/>
</svg>