<svg width="18" height="18" viewBox="0 0 18 18" fill="none" xmlns="http://www.w3.org/2000/svg">
<g clip-path="url(#clip0_9216_187989)">
<path d="M15.3436 7.03282H12.5C12.3259 7.03282 12.159 6.96367 12.0359 6.84058C11.9128 6.71749 11.8436 6.55054 11.8436 6.37646C11.8436 6.20239 11.9128 6.03544 12.0359 5.91235C12.159 5.78926 12.3259 5.72011 12.5 5.72011H13.6414C12.612 4.26494 10.9188 3.31417 9 3.31417C5.85906 3.31417 3.31271 5.86052 3.31271 9.00147C3.31271 12.1424 5.85906 14.6888 9 14.6888C12.1409 14.6888 14.6877 12.1424 14.6877 9.00147C14.6877 8.9153 14.7047 8.82998 14.7377 8.75037C14.7706 8.67076 14.819 8.59843 14.8799 8.5375C14.9408 8.47657 15.0131 8.42824 15.0928 8.39526C15.1724 8.36229 15.2577 8.34532 15.3439 8.34532C15.5179 8.34532 15.6848 8.41445 15.8078 8.5375C15.8687 8.59843 15.9171 8.67076 15.9501 8.75037C15.983 8.82998 16 8.9153 16 9.00147C16 12.8675 12.8656 16.0015 9 16.0015C5.13435 16.0015 2 12.8675 2 9.00147C2 5.13541 5.13435 2.00146 9 2.00146C11.3462 2.00146 13.4182 3.15852 14.6873 4.93035V3.75146C14.6873 3.57739 14.7564 3.41044 14.8795 3.28735C15.0026 3.16426 15.1696 3.09511 15.3436 3.09511C15.5177 3.09511 15.6847 3.16426 15.8078 3.28735C15.9309 3.41044 16 3.57739 16 3.75146V6.37646C16 6.73882 15.706 7.03282 15.3436 7.03282Z" fill="#FF284B"/>
</g>
<defs>
<clipPath id="clip0_9216_187989">
<rect width="18" height="18" fill="white"/>
</clipPath>
</defs>
</svg>
