<svg width="182" height="100" viewBox="0 0 182 100" fill="none" xmlns="http://www.w3.org/2000/svg">
<path d="M0 83.8967C0 83.8967 18.8129 52.9404 90.3786 52.1963C161.944 51.4521 182 88.0001 182 88.0001" fill="url(#paint0_linear_12098_65764)"/>
<path d="M65.1062 31.0094L57.6172 30.9669L61.4733 23.5786L68.9729 23.6211L65.1062 31.0094Z" fill="#191F27"/>
<path d="M79.7653 31.0836L72.2656 31.0411L76.1217 23.6528L83.6214 23.6847L79.7653 31.0836Z" fill="#191F27"/>
<path d="M94.4148 31.1583L86.9258 31.1158L90.7818 23.7275L98.2709 23.7594L94.4148 31.1583Z" fill="#191F27"/>
<path d="M109.064 31.233L101.575 31.1905L105.431 23.8022L112.931 23.8341L109.064 31.233Z" fill="#191F27"/>
<path d="M123.724 31.3068L116.225 31.2642L120.081 23.876L127.58 23.9079L123.724 31.3068Z" fill="#191F27"/>
<path d="M102.307 60.0839H83.0059L86.6282 39.8433H98.6851L102.307 60.0839Z" fill="#656E78"/>
<g style="mix-blend-mode:multiply">
<path d="M100.884 52.1641L98.6854 39.8433H86.6286L84.4297 52.1641H100.884Z" fill="#656E78"/>
</g>
<path d="M124.637 0H60.6768C58.6645 0 57.0332 1.6325 57.0332 3.64629V45.1481C57.0332 47.1619 58.6645 48.7944 60.6768 48.7944H124.637C126.649 48.7944 128.28 47.1619 128.28 45.1481V3.64629C128.28 1.6325 126.649 0 124.637 0Z" fill="url(#paint1_linear_12098_65764)"/>
<path d="M124.626 3.42285H60.6772C60.554 3.42285 60.4541 3.5228 60.4541 3.64609V45.1373C60.4541 45.2606 60.554 45.3605 60.6772 45.3605H124.626C124.749 45.3605 124.849 45.2606 124.849 45.1373V3.64609C124.849 3.5228 124.749 3.42285 124.626 3.42285Z" fill="#5C626C"/>
<path d="M57.0332 43.7661V47.0084C57.0332 47.9971 58.6691 48.7944 60.6768 48.7944H124.626C126.644 48.7944 128.27 47.9971 128.27 47.0084V43.7661H57.0332Z" fill="#656E78"/>
<path d="M124.637 3.42285H60.6879C60.5605 3.42285 60.4648 3.51853 60.4648 3.64609V38.5251L124.849 3.64609C124.849 3.51853 124.754 3.42285 124.626 3.42285H124.637Z" fill="#515760"/>
<path d="M115.862 60.084H69.4512V63.4751H115.862V60.084Z" fill="#656E78"/>
<path d="M134.463 41.2042C134.166 40.3857 133.019 40.3857 132.721 41.2042L125.816 60.2224H141.368L134.463 41.2042Z" fill="#656E78"/>
<path d="M126.857 57.3522L138.489 52.3026L137.416 49.3154L128.345 53.2487L126.857 57.3522Z" fill="url(#paint2_linear_12098_65764)"/>
<path d="M140.507 57.8627L139.424 54.8755L127.356 60.1164V60.2227H135.058L140.507 57.8627Z" fill="url(#paint3_linear_12098_65764)"/>
<path d="M129.63 49.73L136.482 46.7534L135.398 43.7769L131.117 45.6372L129.63 49.73Z" fill="url(#paint4_linear_12098_65764)"/>
<path d="M143.141 63.4858H124.041L125.061 59.5737H142.121L143.141 63.4858Z" fill="#656E78"/>
<path d="M32.3993 32.9762H33.9078C34.1521 31.7855 34.6195 30.6693 35.2462 29.6807L34.1733 28.5963C33.929 28.3412 33.929 27.9266 34.1733 27.6821L36.0111 25.8111C36.2554 25.556 36.6697 25.556 36.914 25.8111L37.9763 26.8955C38.9536 26.247 40.0477 25.7686 41.2162 25.5241V24.0039C41.2162 23.6425 41.5031 23.3555 41.8536 23.3555H44.4562C44.8067 23.3555 45.0936 23.6425 45.0936 24.0039V25.5241C46.2727 25.7686 47.3668 26.247 48.3335 26.8955L49.3958 25.8111C49.6401 25.556 50.0544 25.556 50.2987 25.8111L52.1365 27.6821C52.3808 27.9373 52.3808 28.3518 52.1365 28.5963L51.0636 29.6807C51.7009 30.6693 52.1577 31.7749 52.402 32.9762H53.9105C54.261 32.9762 54.5478 33.2632 54.5478 33.6246V36.2716C54.5478 36.6331 54.261 36.9201 53.9105 36.9201H52.3808C52.1365 38.1107 51.6691 39.2163 51.0317 40.1943L52.1152 41.2999C52.3595 41.555 52.3595 41.9696 52.1152 42.2141L50.2775 44.0851C50.0332 44.3403 49.6189 44.3403 49.3745 44.0851L48.2804 42.9795C47.3137 43.6174 46.2302 44.0851 45.0617 44.3402V45.9029C45.0617 46.2644 44.7749 46.5514 44.4243 46.5514H41.8217C41.4712 46.5514 41.1844 46.2644 41.1844 45.9029V44.3402C40.0159 44.0957 38.9324 43.628 37.9657 42.9795L36.8715 44.0851C36.6272 44.3403 36.2129 44.3403 35.9686 44.0851L34.1309 42.2141C33.8865 41.959 33.8865 41.5444 34.1309 41.2999L35.2144 40.1943C34.577 39.2163 34.1202 38.1107 33.8653 36.9201H32.3356C31.9851 36.9201 31.6982 36.6331 31.6982 36.2716V33.6246C31.6982 33.2632 31.9851 32.9762 32.3356 32.9762H32.3993ZM46.6764 38.4828C48.6097 36.5161 48.6097 33.327 46.6764 31.3603C44.743 29.3936 41.6093 29.3936 39.6653 31.3603C37.732 33.327 37.732 36.5161 39.6653 38.4828C41.5987 40.4495 44.7324 40.4495 46.6764 38.4828ZM45.561 32.4978C44.2437 31.1583 42.1086 31.1583 40.7913 32.4978H45.561Z" fill="#656E78"/>
<path d="M44.5417 12.5543H45.604C45.774 11.7145 46.1033 10.9384 46.5494 10.2368L45.7952 9.47142C45.6253 9.2907 45.6253 9.00367 45.7952 8.82295L47.0912 7.50476C47.2612 7.32404 47.548 7.32404 47.7286 7.50476L48.4722 8.25953C49.152 7.80242 49.9275 7.47287 50.7454 7.29215V6.22909C50.7454 5.97395 50.9473 5.77197 51.1916 5.77197H53.0187C53.263 5.77197 53.4649 5.97395 53.4649 6.22909V7.29215C54.2934 7.46224 55.0583 7.80242 55.7488 8.25953L56.4924 7.50476C56.6623 7.32404 56.9491 7.32404 57.1297 7.50476L58.4257 8.82295C58.5957 9.00367 58.5957 9.2907 58.4257 9.47142L57.6715 10.2368C58.1176 10.9278 58.447 11.7145 58.6169 12.5543H59.6792C59.9235 12.5543 60.1253 12.7563 60.1253 13.0114V14.8718C60.1253 15.1269 59.9235 15.3289 59.6792 15.3289H58.6063C58.4363 16.1687 58.107 16.9447 57.6609 17.6251L58.4257 18.4011C58.5957 18.5818 58.5957 18.8689 58.4257 19.0496L57.1297 20.3678C56.9598 20.5485 56.6729 20.5485 56.4924 20.3678L55.7275 19.5917C55.0477 20.0382 54.2828 20.3678 53.4649 20.5485V21.6434C53.4649 21.8986 53.263 22.1006 53.0187 22.1006H51.1916C50.9473 22.1006 50.7454 21.8986 50.7454 21.6434V20.5485C49.9275 20.3784 49.1626 20.0489 48.4828 19.5917L47.7179 20.3678C47.548 20.5485 47.2612 20.5485 47.0806 20.3678L45.7846 19.0496C45.6146 18.8689 45.6146 18.5818 45.7846 18.4011L46.5494 17.6251C46.1033 16.9341 45.774 16.1581 45.604 15.3289H44.5311C44.2868 15.3289 44.085 15.1269 44.085 14.8718V13.0114C44.085 12.7563 44.2868 12.5543 44.5311 12.5543H44.5417ZM54.5696 16.4238C55.9294 15.0418 55.9294 12.7988 54.5696 11.4168C53.2099 10.0348 51.011 10.0348 49.6513 11.4168C48.2916 12.7988 48.2916 15.0418 49.6513 16.4238C51.011 17.8058 53.2099 17.8058 54.5696 16.4238Z" fill="#656E78"/>
<path d="M52.1162 16.2433C52.7005 16.2433 53.2741 16.0201 53.7202 15.563L52.1162 16.2433Z" fill="#656E78"/>
<path d="M53.7194 12.2993C52.8271 11.3957 51.393 11.3957 50.5113 12.2993C50.0014 12.8202 49.7784 13.5324 49.8633 14.2022" fill="#656E78"/>
<path d="M105.315 35.7826H81.2645C79.7986 35.7826 78.885 34.1881 79.6286 32.9124L84.5895 24.4717L86.0342 22.0054L87.2027 20.0175L91.6536 12.4379C92.3866 11.1835 94.1925 11.1835 94.9254 12.4379L106.95 32.9124C107.694 34.1774 106.78 35.7826 105.315 35.7826Z" fill="url(#paint5_linear_12098_65764)"/>
<path d="M95.2224 30.9564C95.2224 32.0194 94.362 32.8805 93.2997 32.8805C92.2374 32.8805 91.377 32.0194 91.377 30.9564C91.377 29.8933 92.2374 29.0322 93.2997 29.0322C94.362 29.0322 95.2224 29.8933 95.2224 30.9564Z" fill="#70777E"/>
<path d="M95.2224 21.1868C95.2224 22.2499 94.362 27.4589 93.2997 27.4589C92.2374 27.4589 91.377 22.2499 91.377 21.1868C91.377 20.1238 92.2374 19.2627 93.2997 19.2627C94.362 19.2627 95.2224 20.1238 95.2224 21.1868Z" fill="#70777E"/>
<path d="M69.594 86.222C69.146 85.508 68.698 84.836 68.264 84.206C67.76 85.578 67.144 86.754 66.43 87.734L65.786 86.95C66.514 85.914 67.116 84.682 67.592 83.268C66.92 82.372 66.262 81.56 65.618 80.818L66.248 80.216C66.766 80.762 67.326 81.42 67.914 82.204C68.18 81.224 68.404 80.16 68.572 79.04L69.496 79.208C69.272 80.65 68.978 81.966 68.614 83.156C69.146 83.884 69.706 84.682 70.266 85.55L69.594 86.222ZM73.696 86.866C73.22 86.04 72.744 85.27 72.282 84.542C71.722 85.914 71.064 87.09 70.308 88.07L69.664 87.3C70.448 86.236 71.106 84.99 71.624 83.562C70.98 82.61 70.35 81.742 69.706 80.958L70.336 80.356C70.84 80.93 71.4 81.63 71.988 82.47C72.296 81.42 72.534 80.286 72.73 79.082L73.682 79.25C73.43 80.804 73.094 82.204 72.674 83.464C73.206 84.276 73.78 85.186 74.382 86.194L73.696 86.866ZM74.34 89.316H72.926L72.66 88.336L74.004 88.378C74.396 88.378 74.592 88.182 74.592 87.804V78.102H65.408V89.372H64.414V77.136H75.586V88.028C75.586 88.882 75.166 89.316 74.34 89.316ZM82.642 86.614V87.566C81.27 88.098 79.716 88.518 77.952 88.854L77.826 87.86C79.66 87.552 81.27 87.132 82.642 86.614ZM80.136 76.534L81.074 76.898C80.374 78.704 79.674 80.146 78.974 81.21C79.576 81.126 80.178 81.028 80.794 80.916C81.032 80.44 81.284 79.936 81.536 79.418L82.404 79.74C81.2 82.106 80.206 83.786 79.422 84.794C80.402 84.584 81.382 84.304 82.376 83.94V84.85C80.934 85.354 79.562 85.704 78.246 85.886L77.98 84.976C78.162 84.892 78.316 84.794 78.428 84.682C78.932 84.122 79.562 83.184 80.304 81.84C79.548 81.98 78.792 82.106 78.022 82.218L77.77 81.294C77.924 81.224 78.064 81.098 78.19 80.916C78.932 79.642 79.576 78.186 80.136 76.534ZM89.236 84.15V89.316H88.27V88.714H84.448V89.316H83.482V84.15H89.236ZM84.448 87.79H88.27V85.074H84.448V87.79ZM84.868 76.534L85.834 76.716C85.722 77.108 85.582 77.472 85.442 77.822H89.236V78.55C88.718 79.712 87.976 80.734 87.01 81.616C87.99 82.33 89.18 82.89 90.552 83.282L89.978 84.108C88.508 83.66 87.276 83.044 86.268 82.232C85.26 82.988 84.056 83.646 82.684 84.178L82.068 83.366C83.412 82.862 84.574 82.274 85.54 81.574C85.008 81.042 84.56 80.454 84.182 79.838C83.804 80.286 83.384 80.706 82.922 81.084L82.334 80.3C83.58 79.278 84.42 78.018 84.868 76.534ZM84.728 79.124C85.148 79.824 85.652 80.454 86.254 81C87.052 80.314 87.682 79.558 88.144 78.718H84.98C84.896 78.858 84.812 78.998 84.728 79.124ZM97.482 76.506H98.518V79.026H103.544V85.606H102.536V84.724H98.518V89.498H97.482V84.724H93.478V85.606H92.47V79.026H97.482V76.506ZM93.478 83.744H97.482V80.006H93.478V83.744ZM98.518 83.744H102.536V80.006H98.518V83.744ZM106.05 77.192H106.932V87.468H111.65V88.392H106.05V77.192ZM107.534 81.014H109.606V76.576H110.53V81.014H112.378V81.91H110.53V82.288C111.174 82.932 111.846 83.646 112.518 84.444L111.986 85.242C111.426 84.346 110.936 83.632 110.53 83.1V86.894H109.606V83.142C109.116 84.122 108.472 85.004 107.66 85.802L107.268 84.822C108.332 83.954 109.102 82.988 109.578 81.91H107.534V81.014ZM111.622 77.36L112.448 77.458C112.364 78.522 112.154 79.46 111.818 80.272L111.048 80.034C111.356 79.25 111.538 78.368 111.622 77.36ZM108.304 77.542C108.57 78.298 108.808 79.18 109.032 80.174L108.262 80.356C108.052 79.474 107.8 78.62 107.492 77.808L108.304 77.542ZM114.198 81.854V82.932C114.156 85.732 113.708 87.846 112.854 89.26L111.986 88.84C112.812 87.44 113.246 85.466 113.288 82.932V77.57C115.038 77.5 116.522 77.178 117.726 76.618L118.202 77.458C116.998 77.976 115.654 78.27 114.184 78.354L114.198 80.888H118.468V81.854H117.026V89.414H116.046V81.854H114.198Z" fill="#656E78"/>
<defs>
<linearGradient id="paint0_linear_12098_65764" x1="91.0053" y1="88.0001" x2="91.0053" y2="52.1856" gradientUnits="userSpaceOnUse">
<stop stop-color="#384147" stop-opacity="0"/>
<stop offset="0.39" stop-color="#384147" stop-opacity="0.02"/>
<stop offset="0.56" stop-color="#384147" stop-opacity="0.11"/>
<stop offset="0.7" stop-color="#384147" stop-opacity="0.25"/>
<stop offset="0.81" stop-color="#384147" stop-opacity="0.45"/>
<stop offset="0.91" stop-color="#384147" stop-opacity="0.7"/>
<stop offset="1" stop-color="#303439"/>
</linearGradient>
<linearGradient id="paint1_linear_12098_65764" x1="92.6567" y1="0" x2="92.6567" y2="48.7944" gradientUnits="userSpaceOnUse">
<stop offset="0.115" stop-color="#303439"/>
<stop offset="1" stop-color="#3B4147"/>
</linearGradient>
<linearGradient id="paint2_linear_12098_65764" x1="132.673" y1="49.3154" x2="132.673" y2="57.3522" gradientUnits="userSpaceOnUse">
<stop offset="0.115" stop-color="#303439"/>
<stop offset="1" stop-color="#3B4147"/>
</linearGradient>
<linearGradient id="paint3_linear_12098_65764" x1="133.932" y1="54.8755" x2="133.932" y2="60.2227" gradientUnits="userSpaceOnUse">
<stop offset="0.115" stop-color="#303439"/>
<stop offset="1" stop-color="#3B4147"/>
</linearGradient>
<linearGradient id="paint4_linear_12098_65764" x1="133.056" y1="43.7769" x2="133.056" y2="49.73" gradientUnits="userSpaceOnUse">
<stop offset="0.115" stop-color="#303439"/>
<stop offset="1" stop-color="#3B4147"/>
</linearGradient>
<linearGradient id="paint5_linear_12098_65764" x1="93.2895" y1="11.4971" x2="93.2895" y2="35.7826" gradientUnits="userSpaceOnUse">
<stop stop-color="#656E78"/>
<stop offset="1" stop-color="#303439"/>
</linearGradient>
</defs>
</svg>
