<svg width="20" height="20" viewBox="0 0 20 20" fill="none" xmlns="http://www.w3.org/2000/svg">
<path d="M18.9973 4.14256H19V17.3892C18.999 17.9487 18.7763 18.4851 18.3807 18.8807C17.9851 19.2763 17.4487 19.499 16.8892 19.5H4.097C2.62858 19.5 1.40171 18.3509 1.08415 16.8147C1.08233 16.792 1 16.1822 1 16.0728V4.99847C1.00144 3.80585 1.47585 2.66248 2.31916 1.81916C3.16248 0.975846 4.30585 0.501439 5.49847 0.5L15.3629 0.5C15.7772 0.5 16.1093 0.837473 16.1093 1.24915V13.3178C16.1093 13.7294 15.7745 14.0642 15.3629 14.0642H4.09429C3.22662 14.0642 2.49285 14.9689 2.49285 16.0357C2.49285 17.2869 3.53153 18.0035 4.42362 18.0062H16.8865C17.2258 18.0062 17.5008 17.7312 17.5008 17.391V4.14347C17.5008 3.16633 18.9964 3.12382 18.9964 4.14347L18.9973 4.14256ZM15.3656 15.2883C16.4178 15.2883 16.3301 16.7848 15.3656 16.7848H5.90382C4.92215 16.7848 4.87238 15.2883 5.90382 15.2883H15.3656Z" fill="#67707B"/>
</svg>
