<svg xmlns="http://www.w3.org/2000/svg" width="23" height="16" viewBox="0 0 23 16" fill="none">
<g clip-path="url(#clip0_9398_14621)">
<rect x="6.82812" y="12" width="2" height="4" rx="1" transform="rotate(45 6.82812 12)" fill="#FF284B"/>
<rect width="2" height="4" rx="1" transform="matrix(-0.707107 0.707107 0.707107 0.707107 16.4141 12)" fill="#FF284B"/>
<path fill-rule="evenodd" clip-rule="evenodd" d="M2 0C0.895431 0 0 0.89543 0 2V12C0 13.1046 0.89543 14 2 14H21C22.1046 14 23 13.1046 23 12V2C23 0.895431 22.1046 0 21 0H2ZM13.1609 3.16699H11.31L13.5813 10.722H15.8585L18.1393 3.16699H16.2786L14.728 8.66011L13.1609 3.16699ZM4.95679 3.17578V4.64678H6.96379V10.7218H8.67779V4.64678H10.6758V3.17578H4.95679Z" fill="#FF284B"/>
</g>
<defs>
<clipPath id="clip0_9398_14621">
<rect width="23" height="16" rx="2" fill="white"/>
</clipPath>
</defs>
</svg>