<svg xmlns="http://www.w3.org/2000/svg" width="18" height="18" viewBox="0 0 18 18" fill="none">
<path fill-rule="evenodd" clip-rule="evenodd" d="M12.5774 3.10714H9.78224C9.58755 3.10714 9.44153 3.07699 9.34418 3.01667C9.24684 2.95636 9.19121 2.88097 9.17731 2.7905C9.1634 2.70003 9.19121 2.54252 9.26075 2.43999C9.33028 2.33745 9.44153 2.24397 9.5945 2.15953C9.69185 2.09922 9.84829 2.01779 10.0638 1.91526C10.2794 1.81273 10.5158 1.69813 10.7731 1.57147C11.0303 1.44481 11.2911 1.31815 11.5553 1.1915C11.8195 1.06484 12.0559 0.947226 12.2645 0.838661C12.4453 0.754222 12.5983 0.730097 12.7235 0.766285C12.8486 0.802473 12.9494 0.874849 13.0259 0.983414C13.1024 1.09198 13.158 1.22165 13.1928 1.37244C13.2276 1.52322 13.2589 1.66496 13.2867 1.79765C13.3006 1.93034 13.3075 2.07207 13.3075 2.22286C13.3075 2.37364 13.2867 2.57035 13.2449 2.69098C13.2032 2.81161 13.1302 2.91112 13.0259 2.98953C12.9216 3.06794 12.7721 3.10714 12.5774 3.10714ZM5.33913 3.12524H8.15518C8.33597 3.12524 8.47503 3.09508 8.57238 3.03477C8.66972 2.97445 8.72535 2.89906 8.73925 2.80859C8.75316 2.71812 8.72535 2.56062 8.65582 2.45808C8.58628 2.35555 8.48198 2.26206 8.34292 2.17762C8.23167 2.11731 8.06827 2.03589 7.85272 1.93335C7.63717 1.83082 7.40423 1.71622 7.15392 1.58957C6.9036 1.46291 6.64633 1.33625 6.38211 1.20959C6.11789 1.08293 5.88148 0.96532 5.67288 0.856755C5.4921 0.760253 5.33913 0.730096 5.21397 0.766285C5.08881 0.802473 4.98799 0.874849 4.9115 0.983414C4.83502 1.09198 4.77592 1.22467 4.7342 1.38148C4.69248 1.5383 4.66466 1.68305 4.65076 1.81574C4.62295 1.94843 4.60904 2.09017 4.60904 2.24095C4.60904 2.39174 4.6299 2.58845 4.67162 2.70907C4.71334 2.8297 4.78635 2.92922 4.89064 3.00763C4.99494 3.08603 5.14444 3.12524 5.33913 3.12524ZM8.02941 4.24035H1.81384C1.36884 4.24035 1.08028 4.30368 0.948167 4.43034C0.816056 4.557 0.75 4.75905 0.75 5.03649V6.62877C0.75 6.93034 0.823009 7.1535 0.969027 7.29825C1.11504 7.443 1.4036 7.51538 1.8347 7.51538H8.02941V4.24035ZM16.1027 4.24035H9.97059V7.51538H16.1653C16.5964 7.51538 16.885 7.44602 17.031 7.3073C17.177 7.16858 17.25 6.95446 17.25 6.66496V5.10887C17.25 4.83142 17.17 4.61731 17.0101 4.46653C16.8502 4.31574 16.5477 4.24035 16.1027 4.24035ZM8.02941 8.41071H1.45923V15.3139C1.45923 15.9291 1.66087 16.4056 2.06416 16.7434C2.46745 17.0811 3.09324 17.25 3.94153 17.25H8.02941V8.41071ZM16.5199 8.41071H9.97059V17.25H14.0585C14.9068 17.25 15.5256 17.0721 15.915 16.7162C16.3044 16.3604 16.506 15.8748 16.5199 15.2597V8.41071Z" fill="#495159"/>
</svg>