<svg xmlns="http://www.w3.org/2000/svg" width="18" height="18" viewBox="0 0 18 18" fill="none">
<path fill-rule="evenodd" clip-rule="evenodd" d="M0.305306 15.0948C-0.0489199 15.3874 -0.102762 15.9167 0.185046 16.2769C0.472855 16.6371 0.993326 16.6919 1.34755 16.3992L17.6947 2.89254C18.0489 2.59986 18.1028 2.07059 17.815 1.71037C17.5271 1.35015 17.0067 1.2954 16.6525 1.58808L14.3113 3.52244C12.824 2.43993 10.969 1.71037 8.95826 1.71037C4.13906 1.71037 0.221987 5.90339 0.184998 9.11802C0.243691 10.4273 1.06248 12.0215 2.38936 13.3728L0.305306 15.0948ZM3.66742 12.3169L5.92207 10.454C5.59672 9.95621 5.40773 9.42126 5.38834 8.9518C5.33279 7.60481 6.89615 5.71873 8.95826 5.71873C9.67663 5.71873 10.3488 5.95805 10.9163 6.32752L13.0209 4.58863C11.905 3.86409 10.5615 3.38861 9.13876 3.38861C5.20098 3.38861 1.8335 6.63516 1.84412 9.07073C1.84881 10.0712 2.54244 11.2875 3.66742 12.3169ZM9.45727 7.53303C9.33069 7.50356 9.20069 7.48753 9.06936 7.48753C7.835 7.48753 6.94296 8.34723 6.94592 9.03999C6.94662 9.17243 7.00139 9.32473 7.10213 9.47895L9.45727 7.53303Z" fill="#67707B"/>
<path d="M8.95826 16.2769C7.42624 16.2769 5.99469 15.8452 4.75038 15.1634L6.23573 13.9361C7.13127 14.2996 8.11504 14.519 9.13876 14.519C12.8475 14.519 16.0253 11.2824 16.0214 9.07073C16.0202 8.28162 15.6909 7.41172 15.121 6.5948L16.3847 5.55062C17.2595 6.7106 17.7806 7.97837 17.8149 9.11802C17.7779 12.0182 13.7878 16.2769 8.95826 16.2769Z" fill="#67707B"/>
<path d="M8.41001 12.1397L12.6003 8.67752C12.6144 8.77075 12.6218 8.86241 12.6218 8.9518C12.6238 10.3045 10.9702 12.1849 8.95826 12.1849C8.77022 12.1849 8.58729 12.1692 8.41001 12.1397Z" fill="#67707B"/>
</svg>