<svg width="36" height="36" viewBox="0 0 36 36" fill="none" xmlns="http://www.w3.org/2000/svg">
<rect width="36" height="36" rx="18" fill="#D8E0E8"/>
<path d="M15.375 26.1736C15.595 27.4486 16.699 28.3738 18 28.3738C19.3014 28.3738 20.4057 27.4486 20.6257 26.1736L20.6392 26.0959H15.3615L15.375 26.1736Z" fill="#929AA5"/>
<path d="M26.9805 22.5294C26.7651 22.3153 26.5457 22.1343 26.3335 21.9591C25.4407 21.2223 24.6696 20.5861 24.6696 17.9443V15.8488C24.6696 12.7674 22.4912 10.0637 19.4771 9.38577C19.5979 9.15031 19.6592 8.90283 19.6592 8.64871C19.6592 7.73969 18.9148 7 17.9998 7C17.0851 7 16.3409 7.73969 16.3409 8.64871C16.3409 8.90299 16.402 9.15043 16.5229 9.38577C13.5087 10.0637 11.3304 12.7674 11.3304 15.8488V17.9443C11.3304 20.5861 10.5593 21.2223 9.66657 21.9591C9.45435 22.1342 9.23491 22.3153 9.01958 22.5294L9 22.5488V24.6278H27V22.5488L26.9805 22.5294Z" fill="#929AA5"/>
<circle cx="31" cy="5" r="5" fill="#FF8C00"/>
</svg>
