<svg width="142" height="121" viewBox="0 0 142 121" fill="none" xmlns="http://www.w3.org/2000/svg">
<path d="M16.997 52.9573C16.7169 50.0216 19.0253 47.4824 21.9744 47.4824H115.486C118.435 47.4824 120.744 50.0216 120.464 52.9573L115.008 110.14C114.42 116.298 109.248 121 103.062 121H34.3984C28.2125 121 23.0402 116.298 22.4526 110.14L16.997 52.9573Z" fill="url(#paint0_linear_10314_84368)"/>
<rect x="30.502" y="13.1743" width="81.3645" height="66.5159" rx="5" fill="url(#paint1_linear_10314_84368)"/>
<path d="M10.9302 68.3461C10.1807 65.2037 12.5633 62.186 15.7938 62.186H61.7166H73.8416C75.6146 62.186 77.3654 61.7932 78.9684 61.0357L88.9172 56.3346C90.5202 55.5772 92.2711 55.1843 94.044 55.1843H121.823C125.004 55.1843 127.376 58.1155 126.713 61.2266L114.816 117.042C114.324 119.35 112.285 121 109.926 121H27.437C25.1224 121 23.1104 119.412 22.5734 117.16L10.9302 68.3461Z" fill="url(#paint2_linear_10314_84368)"/>
<rect x="29.8008" y="104.196" width="27.3553" height="4.20101" rx="2.1005" fill="#A5AAAF"/>
<rect x="43.1289" y="25.0771" width="56.1135" height="7.70184" rx="3.85092" fill="#A5AAAF"/>
<rect x="43.1289" y="42.5813" width="56.1135" height="7.70184" rx="3.85092" fill="#A5AAAF"/>
<g opacity="0.3">
<path d="M13.6164 38.8715C13.6164 38.8715 13.607 44.4021 10.3993 49.0049C8.62123 51.5561 6.26743 53.7075 2 55.5396C2 55.5396 2.93978 53.2327 4.55012 47.7342C5.00023 46.1973 5.6456 44.6961 6.74961 43.5345C9.84879 40.2735 13.6164 38.8715 13.6164 38.8715Z" fill="#D9D9D9"/>
<path d="M13.6164 38.8715L14.1164 38.8723L14.1176 38.1514L13.442 38.4028L13.6164 38.8715ZM10.3993 49.0049L9.98904 48.719L10.3993 49.0049ZM2 55.5396L1.53695 55.351L1.07701 56.48L2.19725 55.9991L2 55.5396ZM4.55012 47.7342L4.07028 47.5937L4.55012 47.7342ZM6.74961 43.5345L7.11204 43.8789L6.74961 43.5345ZM18.1103 33.7818C18.3633 33.6711 18.4787 33.3763 18.368 33.1233C18.2574 32.8703 17.9625 32.755 17.7096 32.8656L18.1103 33.7818ZM13.6164 38.8715C13.1164 38.8706 13.1164 38.8705 13.1164 38.8704C13.1164 38.8704 13.1164 38.8703 13.1164 38.8703C13.1164 38.8703 13.1164 38.8703 13.1164 38.8705C13.1164 38.8708 13.1164 38.8714 13.1164 38.8724C13.1164 38.8743 13.1163 38.8775 13.1163 38.882C13.1162 38.8911 13.116 38.9053 13.1156 38.9245C13.1148 38.9629 13.1132 39.0211 13.1101 39.0978C13.1039 39.251 13.0914 39.4774 13.0667 39.7645C13.017 40.3389 12.9181 41.1545 12.721 42.1112C12.326 44.0289 11.5414 46.4916 9.98904 48.719L10.8095 49.2907C12.4649 46.9154 13.2888 44.3113 13.7005 42.313C13.9067 41.3118 14.0106 40.457 14.0629 39.8506C14.0891 39.5472 14.1025 39.3056 14.1093 39.1384C14.1127 39.0548 14.1145 38.9898 14.1154 38.9449C14.1158 38.9225 14.1161 38.9051 14.1162 38.8929C14.1163 38.8868 14.1163 38.882 14.1164 38.8786C14.1164 38.8769 14.1164 38.8755 14.1164 38.8744C14.1164 38.8739 14.1164 38.8735 14.1164 38.8731C14.1164 38.8729 14.1164 38.8727 14.1164 38.8726C14.1164 38.8725 14.1164 38.8723 13.6164 38.8715ZM9.98904 48.719C8.26613 51.1912 5.98718 53.2837 1.80275 55.0802L2.19725 55.9991C6.54767 54.1313 8.97634 51.9211 10.8095 49.2907L9.98904 48.719ZM2 55.5396C2.46305 55.7283 2.46308 55.7282 2.4631 55.7281C2.46312 55.7281 2.46315 55.728 2.46318 55.7279C2.46324 55.7278 2.46331 55.7276 2.46339 55.7274C2.46357 55.727 2.4638 55.7264 2.46408 55.7257C2.46465 55.7243 2.46545 55.7223 2.46648 55.7198C2.46853 55.7147 2.47149 55.7073 2.47535 55.6976C2.48307 55.6783 2.49439 55.6497 2.50924 55.6117C2.53894 55.5357 2.58276 55.422 2.64019 55.2687C2.75505 54.9623 2.92433 54.498 3.14383 53.862C3.58282 52.59 4.22273 50.6311 5.02997 47.8748L4.07028 47.5937C3.26717 50.3359 2.63202 52.2797 2.19854 53.5357C1.9818 54.1638 1.81548 54.6198 1.70381 54.9178C1.64797 55.0667 1.6058 55.1762 1.57781 55.2478C1.56382 55.2836 1.55337 55.31 1.54654 55.3271C1.54312 55.3357 1.54061 55.3419 1.53901 55.3459C1.53821 55.3479 1.53764 55.3493 1.53729 55.3501C1.53712 55.3506 1.53701 55.3508 1.53695 55.351C1.53692 55.3511 1.53691 55.3511 1.53691 55.3511L1.53692 55.3511C1.53693 55.351 1.53695 55.351 2 55.5396ZM7.11204 43.8789C8.61834 42.294 10.2919 41.1565 11.5929 40.4144C12.2424 40.044 12.7963 39.7737 13.186 39.5967C13.3808 39.5083 13.5344 39.4432 13.6381 39.4007C13.6899 39.3795 13.7293 39.3639 13.7551 39.3538C13.768 39.3487 13.7775 39.3451 13.7835 39.3428C13.7865 39.3417 13.7886 39.3409 13.7898 39.3404C13.7904 39.3402 13.7908 39.34 13.791 39.34C13.7911 39.3399 13.7911 39.3399 13.791 39.34C13.791 39.34 13.791 39.34 13.791 39.34C13.7909 39.34 13.7908 39.3401 13.6164 38.8715C13.442 38.4028 13.4419 38.4029 13.4417 38.4029C13.4417 38.403 13.4415 38.403 13.4414 38.4031C13.4411 38.4032 13.4408 38.4033 13.4404 38.4034C13.4396 38.4037 13.4387 38.4041 13.4374 38.4046C13.435 38.4055 13.4317 38.4067 13.4274 38.4083C13.419 38.4116 13.407 38.4162 13.3915 38.4222C13.3606 38.4343 13.316 38.452 13.2588 38.4754C13.1444 38.5223 12.9794 38.5923 12.7725 38.6862C12.359 38.874 11.7773 39.1581 11.0975 39.5458C9.73993 40.32 7.98006 41.514 6.38718 43.19L7.11204 43.8789ZM5.02997 47.8748C5.47061 46.3702 6.08751 44.9569 7.11204 43.8789L6.38718 43.19C5.2037 44.4353 4.52985 46.0245 4.07028 47.5937L5.02997 47.8748ZM12.9605 40.8704C13.4349 39.8486 14.2722 38.2573 15.2344 36.8186C15.7155 36.0994 16.2214 35.4279 16.7224 34.8874C17.2301 34.3398 17.7022 33.9603 18.1103 33.7818L17.7096 32.8656C17.1153 33.1256 16.5316 33.6224 15.9891 34.2076C15.44 34.7998 14.9015 35.5176 14.4032 36.2627C13.4065 37.7529 12.5447 39.3911 12.0534 40.4493L12.9605 40.8704Z" fill="#D9D9D9"/>
</g>
<g opacity="0.3">
<path d="M40.1988 26.3477C40.1988 26.3477 40.1924 30.1337 38.0033 33.2845C36.79 35.0309 35.1837 36.5037 32.2715 37.7578C32.2715 37.7578 32.8292 36.3846 33.7956 33.1469C34.2536 31.6125 34.8829 30.0938 36.0541 29.0035C38.0419 27.1529 40.1988 26.3477 40.1988 26.3477Z" fill="#D9D9D9"/>
<path d="M40.1988 26.3477L40.6988 26.3486L40.7 25.6269L40.0239 25.8793L40.1988 26.3477ZM38.0033 33.2845L37.5927 32.9992L38.0033 33.2845ZM32.2715 37.7578L31.8082 37.5697L31.3495 38.6993L32.4693 38.2171L32.2715 37.7578ZM33.7956 33.1469L33.3165 33.0039L33.7956 33.1469ZM36.0541 29.0035L36.3948 29.3694L36.0541 29.0035ZM43.3297 23.0079C43.5826 22.8969 43.6977 22.602 43.5867 22.3491C43.4757 22.0963 43.1808 21.9812 42.9279 22.0922L43.3297 23.0079ZM40.1988 26.3477C39.6988 26.3469 39.6988 26.3467 39.6988 26.3466C39.6988 26.3466 39.6988 26.3465 39.6988 26.3465C39.6988 26.3464 39.6988 26.3464 39.6988 26.3464C39.6988 26.3465 39.6988 26.3468 39.6988 26.3474C39.6988 26.3484 39.6988 26.3504 39.6987 26.3532C39.6987 26.3589 39.6985 26.3682 39.6983 26.3808C39.6978 26.4061 39.6967 26.4449 39.6946 26.4963C39.6905 26.599 39.6821 26.7516 39.6654 26.9456C39.632 27.3338 39.5652 27.886 39.4322 28.534C39.1652 29.8342 38.6359 31.4978 37.5927 32.9992L38.414 33.5698C39.5599 31.9204 40.1283 30.1156 40.4117 28.7351C40.5539 28.0428 40.6256 27.4515 40.6617 27.0314C40.6798 26.8212 40.6891 26.6534 40.6938 26.5368C40.6962 26.4785 40.6974 26.4329 40.6981 26.4012C40.6984 26.3853 40.6986 26.3729 40.6987 26.3641C40.6987 26.3597 40.6987 26.3562 40.6988 26.3536C40.6988 26.3523 40.6988 26.3512 40.6988 26.3504C40.6988 26.35 40.6988 26.3496 40.6988 26.3493C40.6988 26.3491 40.6988 26.349 40.6988 26.3489C40.6988 26.3487 40.6988 26.3486 40.1988 26.3477ZM37.5927 32.9992C36.4343 34.6666 34.9028 36.0803 32.0737 37.2986L32.4693 38.2171C35.4646 36.9271 37.1457 35.3953 38.414 33.5698L37.5927 32.9992ZM32.2715 37.7578C32.7347 37.946 32.7348 37.9459 32.7348 37.9459C32.7348 37.9458 32.7348 37.9458 32.7348 37.9457C32.7349 37.9456 32.7349 37.9455 32.735 37.9453C32.7351 37.945 32.7353 37.9446 32.7355 37.9442C32.7358 37.9432 32.7364 37.942 32.737 37.9404C32.7383 37.9371 32.7401 37.9326 32.7425 37.9266C32.7472 37.9147 32.7541 37.8974 32.7631 37.8744C32.781 37.8285 32.8073 37.7602 32.8418 37.6685C32.9107 37.4852 33.012 37.2085 33.1434 36.8308C33.4062 36.0753 33.7895 34.9154 34.2747 33.2899L33.3165 33.0039C32.8353 34.616 32.4565 35.7617 32.1989 36.5022C32.0701 36.8725 31.9716 37.1414 31.9057 37.3168C31.8727 37.4045 31.8479 37.4688 31.8316 37.5106C31.8234 37.5315 31.8174 37.5468 31.8135 37.5566C31.8115 37.5615 31.8101 37.5651 31.8092 37.5672C31.8088 37.5683 31.8085 37.5691 31.8083 37.5695C31.8082 37.5697 31.8082 37.5698 31.8082 37.5698C31.8082 37.5699 31.8082 37.5699 31.8082 37.5698C31.8082 37.5698 31.8082 37.5698 31.8082 37.5698C31.8082 37.5697 31.8082 37.5697 32.2715 37.7578ZM36.3948 29.3694C37.3506 28.4796 38.3502 27.8386 39.1126 27.4199C39.493 27.2109 39.8124 27.0584 40.035 26.9588C40.1462 26.909 40.233 26.8726 40.291 26.8489C40.32 26.8371 40.3417 26.8285 40.3557 26.8231C40.3627 26.8203 40.3677 26.8184 40.3707 26.8172C40.3722 26.8167 40.3732 26.8163 40.3737 26.8161C40.374 26.816 40.3741 26.816 40.3741 26.816C40.3741 26.816 40.374 26.816 40.374 26.816C40.3739 26.816 40.3738 26.8161 40.3738 26.8161C40.3737 26.8161 40.3736 26.8161 40.1988 26.3477C40.0239 25.8793 40.0238 25.8793 40.0237 25.8794C40.0236 25.8794 40.0235 25.8794 40.0234 25.8795C40.0232 25.8796 40.023 25.8796 40.0227 25.8798C40.0222 25.88 40.0215 25.8802 40.0207 25.8805C40.0191 25.8811 40.017 25.8819 40.0143 25.8829C40.0091 25.8849 40.0017 25.8877 39.9924 25.8914C39.9738 25.8986 39.9473 25.9091 39.9134 25.9229C39.8457 25.9506 39.7485 25.9914 39.6265 26.0461C39.3824 26.1553 39.0384 26.3197 38.6312 26.5434C37.8182 26.9899 36.7455 27.6767 35.7134 28.6375L36.3948 29.3694ZM34.2747 33.2899C34.7264 31.7768 35.3247 30.3657 36.3948 29.3694L35.7134 28.6375C34.4412 29.8219 33.7808 31.4483 33.3165 33.0039L34.2747 33.2899ZM39.8955 27.7819C40.2166 27.0882 40.7841 26.0062 41.4354 25.0296C41.7609 24.5412 42.1011 24.0889 42.4354 23.7271C42.7764 23.3582 43.0809 23.1171 43.3297 23.0079L42.9279 22.0922C42.4927 22.2832 42.0767 22.6419 41.701 23.0484C41.3187 23.462 40.9461 23.9607 40.6033 24.4748C39.9178 25.503 39.3258 26.6319 38.9879 27.3619L39.8955 27.7819Z" fill="#D9D9D9"/>
</g>
<g opacity="0.3">
<path d="M116.308 75.2824C116.308 75.2824 115.67 71.2286 117.564 67.635C119.457 64.0414 121.965 61.6389 123.165 62.2688C124.365 62.8988 123.803 66.3227 121.909 69.9163C120.016 73.5099 116.308 75.2824 116.308 75.2824Z" fill="#D9D9D9"/>
<path d="M116.308 75.2824L115.815 75.3602L115.919 76.0229L116.524 75.7335L116.308 75.2824ZM125.235 59.1748C125.235 58.8987 125.011 58.6748 124.735 58.6748C124.459 58.6748 124.235 58.8987 124.235 59.1748L125.235 59.1748ZM116.308 75.2824C116.802 75.2047 116.802 75.2048 116.802 75.2049C116.802 75.2049 116.802 75.205 116.802 75.2051C116.802 75.2051 116.802 75.2052 116.802 75.2051C116.802 75.205 116.802 75.2046 116.802 75.204C116.802 75.2029 116.802 75.2007 116.801 75.1976C116.8 75.1914 116.799 75.1814 116.797 75.1678C116.793 75.1405 116.788 75.0986 116.781 75.0433C116.768 74.9325 116.752 74.768 116.737 74.5583C116.708 74.1386 116.688 73.5402 116.725 72.8326C116.8 71.4127 117.105 69.579 118.006 67.868L117.121 67.4019C116.13 69.2845 115.806 71.2746 115.727 72.78C115.687 73.535 115.708 74.1747 115.74 74.6274C115.755 74.854 115.774 75.0342 115.788 75.1591C115.795 75.2216 115.802 75.2704 115.806 75.3042C115.809 75.3212 115.811 75.3344 115.812 75.3438C115.813 75.3484 115.813 75.3522 115.814 75.3549C115.814 75.3563 115.814 75.3574 115.814 75.3583C115.814 75.3587 115.814 75.3591 115.814 75.3594C115.814 75.3596 115.815 75.3597 115.815 75.3598C115.815 75.36 115.815 75.3602 116.308 75.2824ZM118.006 67.868C118.935 66.1056 120.005 64.6539 120.97 63.7291C121.455 63.2648 121.892 62.9534 122.253 62.793C122.62 62.6297 122.826 62.6556 122.932 62.7115L123.397 61.8261C122.904 61.5671 122.346 61.6571 121.846 61.8793C121.34 62.1045 120.807 62.5002 120.278 63.007C119.216 64.0244 118.086 65.5707 117.121 67.4019L118.006 67.868ZM122.932 62.7115C123.039 62.7673 123.176 62.9213 123.249 63.3154C123.321 63.7026 123.312 64.2386 123.204 64.9002C122.987 66.218 122.396 67.9208 121.467 69.6832L122.352 70.1493C123.316 68.3182 123.952 66.5122 124.19 65.0622C124.309 64.3399 124.334 63.6771 124.233 63.1329C124.133 62.5955 123.891 62.0853 123.397 61.8261L122.932 62.7115ZM121.467 69.6832C120.566 71.3943 119.224 72.6838 118.095 73.5502C117.532 73.9819 117.026 74.3046 116.663 74.5186C116.482 74.6255 116.337 74.7049 116.238 74.7571C116.189 74.7832 116.151 74.8024 116.126 74.8148C116.114 74.8209 116.105 74.8254 116.099 74.8282C116.096 74.8296 116.095 74.8305 116.093 74.831C116.093 74.8313 116.093 74.8315 116.092 74.8315C116.092 74.8315 116.092 74.8315 116.092 74.8315C116.093 74.8315 116.093 74.8314 116.093 74.8314C116.093 74.8314 116.093 74.8313 116.308 75.2824C116.524 75.7335 116.524 75.7335 116.524 75.7334C116.525 75.7333 116.525 75.7333 116.525 75.7332C116.525 75.7331 116.525 75.7329 116.526 75.7327C116.527 75.7323 116.528 75.7318 116.529 75.7312C116.531 75.73 116.535 75.7284 116.539 75.7263C116.548 75.7221 116.56 75.7162 116.575 75.7085C116.605 75.6932 116.649 75.6708 116.705 75.6414C116.816 75.5826 116.975 75.4955 117.171 75.3801C117.563 75.1493 118.103 74.8043 118.703 74.3437C119.901 73.4255 121.36 72.0319 122.352 70.1493L121.467 69.6832ZM120.112 66.9251C120.29 66.4939 120.655 66.0541 121.165 65.5516C121.416 65.3041 121.691 65.0527 121.982 64.7852C122.271 64.5199 122.575 64.2403 122.872 63.946C124.059 62.7729 125.235 61.2895 125.235 59.1748L124.235 59.1748C124.235 60.8751 123.306 62.1117 122.169 63.2347C121.886 63.5145 121.595 63.7824 121.306 64.0487C121.018 64.3126 120.73 64.5768 120.463 64.8392C119.938 65.3567 119.448 65.9147 119.188 66.5431L120.112 66.9251Z" fill="#D9D9D9"/>
</g>
<g opacity="0.3">
<path d="M74.5924 16.8633C74.5924 16.8633 72.5128 12.5644 74.1495 9.49148C75.7861 6.41855 78.638 4.7368 80.5192 5.73519C82.4005 6.73358 82.5988 10.034 80.9621 13.107C79.3255 16.1799 74.5924 16.8633 74.5924 16.8633Z" fill="#D9D9D9"/>
<path d="M74.5924 16.8633L74.1423 17.081L74.3016 17.4104L74.6638 17.3581L74.5924 16.8633ZM84.0116 1.4558C84.2633 1.34227 84.3754 1.04618 84.2619 0.79445C84.1483 0.542721 83.8522 0.430683 83.6005 0.544205L84.0116 1.4558ZM74.5924 16.8633C75.0425 16.6455 75.0425 16.6456 75.0426 16.6457C75.0426 16.6457 75.0426 16.6458 75.0426 16.6458C75.0427 16.6459 75.0427 16.6459 75.0426 16.6458C75.0425 16.6456 75.0423 16.6452 75.042 16.6445C75.0413 16.6431 75.0402 16.6407 75.0386 16.6374C75.0354 16.6306 75.0304 16.6198 75.0237 16.6052C75.0102 16.5761 74.9902 16.5317 74.9648 16.4733C74.9141 16.3566 74.8425 16.1845 74.7611 15.9678C74.598 15.5334 74.3972 14.9239 74.2459 14.2241C73.9393 12.8055 73.8559 11.1064 74.5908 9.72652L73.7082 9.25644C72.8064 10.9495 72.9445 12.9363 73.2685 14.4353C73.4325 15.1943 73.6493 15.8517 73.825 16.3193C73.9129 16.5536 73.991 16.7414 74.0476 16.8717C74.076 16.937 74.099 16.9879 74.1152 17.0232C74.1233 17.0409 74.1298 17.0546 74.1343 17.0643C74.1366 17.0692 74.1384 17.073 74.1398 17.0758C74.1404 17.0772 74.141 17.0783 74.1414 17.0792C74.1416 17.0796 74.1418 17.08 74.1419 17.0803C74.142 17.0804 74.1421 17.0806 74.1421 17.0807C74.1422 17.0808 74.1423 17.081 74.5924 16.8633ZM74.5908 9.72652C75.373 8.25782 76.4353 7.14312 77.4966 6.51728C78.5665 5.88632 79.5559 5.79 80.2848 6.17684L80.7536 5.29353C79.6013 4.68198 78.2241 4.92734 76.9886 5.6559C75.7445 6.38957 74.5626 7.65221 73.7082 9.25644L74.5908 9.72652ZM80.2848 6.17684C81.0134 6.56352 81.4864 7.43544 81.5608 8.67311C81.6345 9.90091 81.3031 11.4032 80.5208 12.8719L81.4034 13.342C82.2578 11.7378 82.6455 10.0534 82.559 8.61314C82.473 7.18275 81.9063 5.90525 80.7536 5.29353L80.2848 6.17684ZM80.5208 12.8719C79.7858 14.2519 78.3278 15.1334 76.9779 15.6732C76.3119 15.9395 75.6934 16.1142 75.2414 16.2221C75.0158 16.276 74.8328 16.313 74.7075 16.3363C74.6448 16.348 74.5967 16.3562 74.565 16.3614C74.5491 16.364 74.5373 16.3659 74.5299 16.367C74.5262 16.3676 74.5236 16.368 74.5221 16.3682C74.5213 16.3683 74.5209 16.3684 74.5207 16.3684C74.5206 16.3684 74.5205 16.3684 74.5206 16.3684C74.5206 16.3684 74.5207 16.3684 74.5207 16.3684C74.5208 16.3684 74.5209 16.3684 74.5924 16.8633C74.6638 17.3581 74.664 17.3581 74.6642 17.3581C74.6643 17.3581 74.6645 17.358 74.6646 17.358C74.665 17.358 74.6654 17.3579 74.6658 17.3578C74.6668 17.3577 74.668 17.3575 74.6696 17.3573C74.6726 17.3568 74.6768 17.3562 74.6821 17.3554C74.6927 17.3537 74.7077 17.3514 74.7269 17.3482C74.7653 17.3419 74.8205 17.3325 74.8905 17.3194C75.0304 17.2934 75.2299 17.253 75.4737 17.1948C75.9602 17.0786 76.6272 16.8904 77.3492 16.6017C78.775 16.0316 80.5018 15.0349 81.4034 13.342L80.5208 12.8719ZM80.0121 7.53031C80.2132 6.72687 80.6643 5.44 81.3544 4.22876C82.0514 3.00548 82.9496 1.93473 84.0116 1.4558L83.6005 0.544205C82.2504 1.15307 81.2197 2.44524 80.4856 3.7337C79.7446 5.0342 79.2622 6.40788 79.0421 7.2875L80.0121 7.53031Z" fill="#D9D9D9"/>
</g>
<g opacity="0.3">
<path d="M119.278 47.4679C119.278 47.4679 121.91 46.962 122.936 45.3123C123.963 43.6626 123.99 41.9531 122.996 41.4939C122.002 41.0347 120.364 41.9998 119.338 43.6495C118.311 45.2991 119.278 47.4679 119.278 47.4679Z" fill="#D9D9D9"/>
<path d="M119.278 47.4679L118.821 47.6715L118.983 48.0338L119.372 47.9589L119.278 47.4679ZM125.209 39.0828C125.21 38.8066 124.987 38.5817 124.711 38.5803C124.435 38.579 124.21 38.8017 124.209 39.0779L125.209 39.0828ZM119.278 47.4679C119.372 47.9589 119.372 47.9589 119.373 47.9588C119.373 47.9588 119.373 47.9588 119.373 47.9588C119.373 47.9587 119.373 47.9587 119.374 47.9586C119.374 47.9585 119.375 47.9583 119.376 47.9581C119.378 47.9577 119.381 47.9572 119.384 47.9566C119.39 47.9553 119.399 47.9534 119.411 47.9511C119.433 47.9463 119.465 47.9394 119.505 47.9301C119.586 47.9116 119.7 47.8835 119.839 47.8447C120.117 47.7672 120.499 47.6458 120.917 47.4692C121.735 47.1232 122.765 46.5333 123.361 45.5765L122.512 45.0481C122.081 45.741 121.282 46.2289 120.527 46.5482C120.158 46.7043 119.818 46.8124 119.571 46.8814C119.448 46.9158 119.348 46.9401 119.281 46.9557C119.247 46.9635 119.221 46.969 119.205 46.9725C119.196 46.9742 119.19 46.9755 119.187 46.9762C119.185 46.9765 119.184 46.9768 119.183 46.9769C119.183 46.9769 119.183 46.977 119.183 46.977C119.183 46.977 119.183 46.977 119.183 46.9769C119.183 46.9769 119.183 46.9769 119.183 46.9769C119.183 46.9769 119.184 46.9769 119.278 47.4679ZM123.361 45.5765C123.91 44.6942 124.211 43.7668 124.224 42.9645C124.236 42.1711 123.955 41.3863 123.206 41.04L122.786 41.9478C123.031 42.0607 123.233 42.3602 123.224 42.9488C123.215 43.5285 122.989 44.2807 122.512 45.0481L123.361 45.5765ZM123.206 41.04C122.49 40.7092 121.646 40.9257 120.925 41.3501C120.185 41.7862 119.463 42.501 118.913 43.3853L119.762 43.9136C120.238 43.1483 120.849 42.5557 121.433 42.2116C122.037 41.8558 122.508 41.8194 122.786 41.9478L123.206 41.04ZM118.913 43.3853C118.31 44.3544 118.307 45.4486 118.428 46.2522C118.49 46.6597 118.586 47.0096 118.667 47.2581C118.708 47.3827 118.745 47.483 118.773 47.5535C118.786 47.5887 118.798 47.6167 118.806 47.6365C118.81 47.6465 118.814 47.6544 118.816 47.6603C118.818 47.6632 118.819 47.6656 118.819 47.6675C118.82 47.6684 118.82 47.6692 118.821 47.6699C118.821 47.6702 118.821 47.6705 118.821 47.6708C118.821 47.6709 118.821 47.6711 118.821 47.6712C118.821 47.6713 118.821 47.6715 119.278 47.4679C119.735 47.2642 119.735 47.2644 119.735 47.2645C119.735 47.2646 119.735 47.2647 119.735 47.2647C119.735 47.2649 119.735 47.265 119.735 47.2651C119.735 47.2652 119.735 47.2652 119.735 47.2651C119.735 47.2649 119.735 47.2642 119.734 47.2629C119.733 47.2605 119.731 47.256 119.728 47.2497C119.723 47.237 119.715 47.2167 119.704 47.1894C119.683 47.1349 119.652 47.0528 119.618 46.9484C119.55 46.7387 119.469 46.4433 119.417 46.1024C119.312 45.4092 119.338 44.5942 119.762 43.9136L118.913 43.3853ZM122.762 43.1103C123.165 42.7641 123.76 42.1635 124.26 41.4651C124.748 40.7831 125.205 39.9257 125.209 39.0828L124.209 39.0779C124.206 39.5993 123.904 40.2431 123.446 40.8833C123 41.507 122.462 42.0496 122.111 42.3519L122.762 43.1103Z" fill="#D9D9D9"/>
</g>
<defs>
<linearGradient id="paint0_linear_10314_84368" x1="68.7303" y1="47.4824" x2="68.7303" y2="121" gradientUnits="userSpaceOnUse">
<stop stop-color="#E1E3E6"/>
<stop offset="1" stop-color="#ABAEB4"/>
</linearGradient>
<linearGradient id="paint1_linear_10314_84368" x1="71.1842" y1="13.1743" x2="71.1842" y2="79.6902" gradientUnits="userSpaceOnUse">
<stop stop-color="#E1E3E6"/>
<stop offset="1" stop-color="#ABAEB4"/>
</linearGradient>
<linearGradient id="paint2_linear_10314_84368" x1="68.7308" y1="55.1843" x2="68.7308" y2="121" gradientUnits="userSpaceOnUse">
<stop stop-color="#E1E3E6"/>
<stop offset="1" stop-color="#ABAEB4"/>
</linearGradient>
</defs>
</svg>
