<svg xmlns="http://www.w3.org/2000/svg" width="18" height="18" viewBox="0 0 18 18" fill="none">
<path d="M10 9.5C10 8.94771 9.55228 8.5 9 8.5C8.44772 8.5 8 8.94771 8 9.5V12.1667C8 12.719 8.44772 13.1667 9 13.1667C9.55228 13.1667 10 12.719 10 12.1667V9.5Z" fill="#67707B"/>
<path fill-rule="evenodd" clip-rule="evenodd" d="M5.25 3.25C5.25 1.33285 7.06277 0 9 0C10.9372 0 12.75 1.33285 12.75 3.25V5.08815C14.7037 6.32999 16 8.51361 16 11C16 14.866 12.866 18 9 18C5.13401 18 2 14.866 2 11C2 8.51361 3.29633 6.32999 5.25 5.08815V3.25ZM11.25 3.25V4.36945C10.5439 4.12991 9.7871 4 9 4C8.2129 4 7.45614 4.12991 6.75 4.36945V3.25C6.75 2.40573 7.62351 1.5 9 1.5C10.3765 1.5 11.25 2.40573 11.25 3.25ZM9 16.5C12.0376 16.5 14.5 14.0376 14.5 11C14.5 7.96243 12.0376 5.5 9 5.5C5.96243 5.5 3.5 7.96243 3.5 11C3.5 14.0376 5.96243 16.5 9 16.5Z" fill="#67707B"/>
</svg>