<svg width="18" height="18" viewBox="0 0 18 18" fill="none" xmlns="http://www.w3.org/2000/svg">
<path fill-rule="evenodd" clip-rule="evenodd" d="M17.2704 16.2109L17.273 16.2161C17.5055 16.4977 17.5288 16.9758 17.3221 17.2859L17.3143 17.2962L17.3066 17.304C17.1722 17.4409 16.9887 17.5081 16.7587 17.5081C16.5313 17.5081 16.3453 17.4384 16.2109 17.304L12.5906 13.6863C11.203 14.7742 9.58533 15.3478 7.90051 15.3478C6.90822 15.3478 5.94177 15.1514 5.02959 14.7612C4.14842 14.3866 3.35769 13.8491 2.67291 13.1669C1.99071 12.4847 1.45322 11.6914 1.07853 10.8102C0.690918 9.898 0.491943 8.93155 0.491943 7.93927C0.491943 6.94698 0.688334 5.97795 1.07853 5.0606C1.45322 4.17426 1.99071 3.37836 2.67291 2.691C3.35511 2.00363 4.14842 1.46097 5.02701 1.0837C5.94177 0.690918 6.90822 0.491943 7.90051 0.491943C8.89279 0.491943 9.85924 0.688334 10.774 1.07853C11.6552 1.45322 12.4459 1.99071 13.1307 2.67291C13.8155 3.35511 14.3504 4.14842 14.7251 5.02959C15.1127 5.94177 15.3117 6.90822 15.3117 7.90051C15.3117 9.65251 14.7225 11.3115 13.6527 12.5932L17.2704 16.2109ZM1.99841 7.93921C1.99841 11.1926 4.64451 13.8413 7.90046 13.8413C11.1538 13.8413 13.8025 11.1952 13.8025 7.93921C13.8025 4.68326 11.1538 2.03716 7.90046 2.03716C4.6471 2.03716 1.99841 4.68585 1.99841 7.93921Z" fill="currentColor"/>
</svg>
