<svg width="60" height="60" viewBox="0 0 60 60" fill="none" xmlns="http://www.w3.org/2000/svg">
<g clip-path="url(#clip0_13122_1545)">
<rect width="60" height="60" rx="26" fill="#FF284B"/>
<path fill-rule="evenodd" clip-rule="evenodd" d="M43.2747 30.7192V31.6335C43.9874 32.2742 44.6317 33.282 44.2465 34.7542C44.027 35.5821 43.4978 36.2408 42.8175 36.626C42.2848 37.0471 41.6261 37.3063 40.9098 37.3063C40.8895 37.3063 40.8702 37.3016 40.8513 37.297C40.8334 37.2926 40.8158 37.2883 40.7982 37.2883C39.6392 42.3708 35.4746 45.8191 30.0249 45.8191C24.5717 45.8191 20.4107 42.3708 19.248 37.3027C18.6613 37.3027 18.1322 37.1371 17.6714 36.842C16.7716 36.5108 16.0409 35.7765 15.7637 34.7686C15.3965 33.4116 15.8897 32.4614 16.516 31.8171V30.6976C16.4404 26.515 17.6714 23.0127 20.0939 20.5146C21.2529 19.3232 22.6459 18.4269 24.2621 17.8006C24.4997 15.5401 26.9401 13.762 29.8953 13.762C32.8505 13.762 35.2694 15.5437 35.5285 17.8042C37.1447 18.4269 38.5413 19.3268 39.6968 20.5182C42.1192 23.0127 43.3467 26.533 43.2747 30.7192ZM39.9307 36.3453C40.0243 35.7226 40.0783 35.0818 40.0783 34.4015C40.0783 34.4015 40.1143 34.3259 40.1179 34.3188L40.0639 34.2648C38.6901 32.4665 36.655 32.0302 34.5081 31.5699L34.5027 31.5687C34.4229 31.5514 34.343 31.5342 34.2629 31.517C33.2597 31.3007 32.238 31.0805 31.2379 30.6905C28.3367 29.571 26.4506 27.4077 25.6227 26.2883C24.7228 27.8648 22.5055 31.3024 20.0435 32.1986C20.0075 32.861 19.9715 33.5557 19.9715 33.8148L19.9895 34.4015C19.9895 40.5099 24.1145 44.7861 30.0429 44.7861H30.0789C34.6827 44.7861 38.2246 42.1837 39.5492 38.1198C39.3836 38.3214 39.218 38.505 39.0345 38.6885C37.915 39.826 36.594 40.7223 35.0894 41.3306C34.0275 41.7553 32.9045 42.0469 31.7311 42.1765C31.5835 42.7092 30.9248 43.1123 30.0969 43.1123C29.179 43.1123 28.4447 42.6012 28.4447 41.9929C28.4447 41.3702 29.1826 40.8734 30.0969 40.8734C30.7376 40.8734 31.2883 41.1146 31.5655 41.4818C35.2154 41.0786 38.1526 39.2069 39.9307 36.3453Z" fill="white"/>
</g>
<defs>
<clipPath id="clip0_13122_1545">
<rect width="60" height="60" fill="white"/>
</clipPath>
</defs>
</svg>
