<svg xmlns="http://www.w3.org/2000/svg" width="17" height="17" viewBox="0 0 17 17" fill="none">
<circle cx="8.75" cy="8.25" r="7.6875" fill="#FFF1DE" stroke="#FF284B" stroke-width="1.125"/>
<path d="M11.9069 6.14541C12.1977 5.85459 12.1977 5.38393 11.9069 5.09311C11.6161 4.8023 11.1454 4.8023 10.8546 5.09311L8.75 7.1977L6.64541 5.09311C6.35459 4.8023 5.88393 4.8023 5.59311 5.09311C5.3023 5.38393 5.3023 5.85459 5.59311 6.14541L7.6977 8.25L5.59311 10.3546C5.3023 10.6454 5.3023 11.1161 5.59311 11.4069C5.88393 11.6977 6.35459 11.6977 6.64541 11.4069L8.75 9.3023L10.8546 11.4069C10.9928 11.5451 11.1721 11.6175 11.3535 11.6242C11.5524 11.6319 11.7548 11.559 11.9069 11.4069C12.1977 11.1161 12.1977 10.6454 11.9069 10.3546L9.8023 8.25L11.9069 6.14541Z" fill="#FF284B"/>
</svg>