<svg width="164" height="20" viewBox="0 0 164 20" fill="none" xmlns="http://www.w3.org/2000/svg">
<path fill-rule="evenodd" clip-rule="evenodd" d="M18.4707 0.640345C19.5475 1.05449 20.4586 1.63428 21.204 2.37974C21.9495 3.20802 22.5293 4.0363 22.9434 5.11307C23.3576 6.10701 23.5232 7.26661 23.5232 8.59186V11.3252C23.5232 12.5676 23.3576 13.7272 22.9434 14.804C22.5293 15.8807 21.9495 16.7919 21.204 17.5373C20.4586 18.2828 19.5475 18.8626 18.4707 19.2767C17.4768 19.6909 16.3172 19.8565 14.9919 19.8565H8.53131C7.28889 19.8565 6.12929 19.6909 5.05253 19.2767C3.97576 18.8626 3.06465 18.2828 2.31919 17.5373C1.57374 16.7919 0.993939 15.8807 0.579798 14.804C0.165657 13.81 0 12.6504 0 11.3252V8.59186C0 7.34944 0.165657 6.18984 0.579798 5.11307C0.993939 4.0363 1.57374 3.12519 2.31919 2.37974C3.14747 1.63428 3.97576 1.05449 5.05253 0.640345C6.04646 0.226203 7.20606 0.0605469 8.53131 0.0605469H14.9919C16.3172 0.0605469 17.4768 0.226203 18.4707 0.640345ZM17.6424 14.307C18.305 13.5616 18.6364 12.6504 18.6364 11.408V8.59186C18.6364 7.34944 18.305 6.43832 17.6424 5.69287C16.9798 4.94742 16.0687 4.6161 14.9919 4.6161H8.53131C7.45455 4.6161 6.54343 5.03024 5.88081 5.7757C5.21818 6.52115 4.88687 7.43226 4.88687 8.67469V11.408C4.88687 12.6504 5.21818 13.5616 5.88081 14.307C6.54343 15.0525 7.45455 15.3838 8.53131 15.3838H14.9919C16.0687 15.3838 16.9798 15.0525 17.6424 14.307Z" fill="#3BC116"/>
<path d="M89.1236 0.557517C89.869 0.88883 90.5316 1.30297 91.1114 1.88277C91.6912 2.46257 92.1054 3.12519 92.4367 3.95348C92.768 4.78176 92.9337 5.69287 92.9337 6.68681C92.9337 7.68075 92.768 8.59186 92.4367 9.42014C92.1054 10.2484 91.6912 10.9939 91.1114 11.5737C90.5316 12.1535 89.869 12.5676 89.1236 12.8989C88.3781 13.2302 87.5498 13.3959 86.6387 13.3959H76.4508V19.9393H71.564V8.75752H85.1478C86.1417 8.75752 86.8872 8.59186 87.3842 8.17772C87.8811 7.76358 88.1296 7.26661 88.1296 6.60398C88.1296 6.02418 87.8811 5.52721 87.3842 5.11307C86.8872 4.69893 86.1417 4.53327 85.1478 4.53327H55.4124C54.5013 4.53327 53.9215 4.69893 53.5902 4.94742C53.2589 5.1959 53.0933 5.61004 53.0933 6.10701C53.0933 6.60398 53.2589 7.01812 53.5902 7.26661C53.9215 7.51509 54.5013 7.68075 55.4124 7.68075H62.2872C63.4468 7.68075 64.4407 7.84641 65.269 8.17772C66.1801 8.50903 66.8428 8.92317 67.4225 9.50297C68.0023 10.0828 68.4165 10.7454 68.665 11.4909C68.9135 12.3191 69.0791 13.0646 69.0791 13.9757C69.0791 14.804 68.9135 15.6323 68.665 16.3777C68.4165 17.1232 68.0023 17.7858 67.4225 18.2828C66.8428 18.8626 66.0973 19.2767 65.269 19.5252C64.4407 19.7737 63.364 19.9393 62.2044 19.9393H40.669L30.8953 13.2302V19.9393H26.0084V0.0605469H30.8953V7.10095L40.8347 0.0605469H48.7862L34.6225 10.2484L42.1599 15.4666H62.1215C63.0326 15.4666 63.6124 15.301 63.9438 15.0525C64.2751 14.7212 64.4407 14.3898 64.4407 13.8929C64.4407 13.3959 64.2751 12.9818 63.9438 12.7333C63.6124 12.4848 63.0326 12.3191 62.1215 12.3191H55.2468C54.0872 12.3191 53.0933 12.1535 52.265 11.8222C51.3539 11.4909 50.6912 11.0767 50.1114 10.4969C49.5316 9.91711 49.1175 9.25449 48.869 8.50903C48.6205 7.68075 48.4549 6.93529 48.4549 6.02418C48.4549 4.20196 49.0347 2.79388 50.1943 1.71711C51.3539 0.640345 53.0933 0.0605469 55.4124 0.0605469H86.6387C87.5498 0.0605469 88.3781 0.226203 89.1236 0.557517Z" fill="#3BC116"/>
<path fill-rule="evenodd" clip-rule="evenodd" d="M116.042 2.37974C115.297 1.63428 114.386 1.05449 113.309 0.640345C112.232 0.226203 111.073 0.0605469 109.83 0.0605469H103.37C102.044 0.0605469 100.885 0.226203 99.8909 0.640345C98.8141 1.05449 97.903 1.63428 97.1576 2.37974C96.4121 3.12519 95.8323 4.0363 95.4182 5.11307C95.004 6.18984 94.8384 7.34944 94.8384 8.59186V11.3252C94.8384 12.6504 95.004 13.81 95.4182 14.804C95.8323 15.8807 96.4121 16.7919 97.1576 17.5373C97.903 18.2828 98.8141 18.8626 99.8909 19.2767C100.968 19.6909 102.127 19.8565 103.37 19.8565H109.83C111.156 19.8565 112.315 19.6909 113.309 19.2767C114.386 18.8626 115.297 18.2828 116.042 17.5373C116.788 16.7919 117.368 15.8807 117.782 14.804C118.196 13.7272 118.362 12.5676 118.362 11.3252V8.59186C118.362 7.26661 118.196 6.10701 117.782 5.11307C117.368 4.0363 116.788 3.20802 116.042 2.37974ZM113.475 11.408C113.475 12.6504 113.143 13.5616 112.481 14.307C111.818 15.0525 110.907 15.3838 109.83 15.3838H103.37C102.293 15.3838 101.382 15.0525 100.719 14.307C100.057 13.5616 99.7253 12.6504 99.7253 11.408V8.67469C99.7253 7.43226 100.057 6.52115 100.719 5.7757C101.382 5.03024 102.293 4.69893 103.37 4.69893H109.83C110.907 4.69893 111.818 5.03024 112.481 5.7757C113.143 6.52115 113.475 7.43226 113.475 8.67469V11.408Z" fill="#3BC116"/>
<path d="M143.79 4.6161V0.0605469H164V4.6161H156.38V19.9393H135.838L131.283 13.3959H125.816V19.9393H120.929V8.84035H134.513C135.507 8.84035 136.253 8.67469 136.749 8.26055C137.246 7.84641 137.495 7.34944 137.495 6.68681C137.495 6.10701 137.246 5.61004 136.749 5.1959C136.253 4.78176 135.507 4.6161 134.513 4.6161H120.929V0.0605469H136.004C136.915 0.0605469 137.743 0.226203 138.489 0.557517C139.234 0.88883 139.897 1.30297 140.477 1.88277C140.974 2.46257 141.471 3.12519 141.802 3.95348C142.133 4.78176 142.299 5.69287 142.299 6.68681C142.299 7.59792 142.133 8.4262 141.885 9.17166C141.636 9.91711 141.305 10.5797 140.808 11.1595C140.311 11.7393 139.731 12.2363 139.152 12.5676C138.489 12.8989 137.826 13.1474 137.081 13.3131L138.489 15.301H151.41V4.6161H143.79Z" fill="#3BC116"/>
</svg>
