<svg width="30" height="30" viewBox="0 0 30 30" fill="none" xmlns="http://www.w3.org/2000/svg">
<mask id="mask0_11542_93345" style="mask-type:alpha" maskUnits="userSpaceOnUse" x="0" y="0" width="30" height="30">
<rect width="30" height="30" fill="#D9D9D9"/>
</mask>
<g mask="url(#mask0_11542_93345)">
<path fill-rule="evenodd" clip-rule="evenodd" d="M6.70454 7.04497C6.07691 7.6726 6.07691 8.69019 6.70454 9.31782L12.3868 15.0001L6.70513 20.6818C6.0775 21.3094 6.0775 22.327 6.70513 22.9546C7.33276 23.5823 8.35035 23.5823 8.97798 22.9546L14.6597 17.2729L20.3416 22.9549C20.9692 23.5825 21.9868 23.5825 22.6144 22.9549C23.2421 22.3272 23.2421 21.3097 22.6144 20.682L16.9325 15.0001L22.615 9.31758C23.2427 8.68996 23.2427 7.67237 22.615 7.04474C21.9874 6.41711 20.9698 6.41711 20.3422 7.04474L14.6597 12.7273L8.97738 7.04497C8.34975 6.41735 7.33217 6.41735 6.70454 7.04497Z" fill="#67707B"/>
</g>
</svg>
