<svg width="18" height="18" viewBox="0 0 18 18" fill="none" xmlns="http://www.w3.org/2000/svg">
<g id="cxhd_gl_icon">
<path id="&#229;&#189;&#162;&#231;&#138;&#182;" fill-rule="evenodd" clip-rule="evenodd" d="M15.1842 1.57777C16.4734 1.57777 17.5183 2.62263 17.5183 3.91183V6.88119C17.5183 7.23258 17.2344 7.51649 16.883 7.51649C16.0639 7.51649 15.3983 8.18203 15.3983 9.00117C15.3983 9.8203 16.0639 10.4858 16.883 10.4858C17.2344 10.4858 17.5183 10.7698 17.5183 11.1211V14.0905C17.5183 15.3797 16.4734 16.4246 15.1842 16.4246H2.88094C1.59174 16.4246 0.546875 15.3797 0.546875 14.0905V11.1235C0.546875 10.7721 0.830779 10.4882 1.18217 10.4882C2.0013 10.4882 2.66685 9.82263 2.66685 9.00349C2.66685 8.18436 2.0013 7.51881 1.18217 7.51881C0.830779 7.51881 0.546875 7.23491 0.546875 6.88352V3.90951C0.546875 2.6203 1.59174 1.57544 2.88094 1.57544C2.88094 1.57777 15.1842 1.57777 15.1842 1.57777ZM11.5773 10.0623H6.48559C6.1342 10.0623 5.8503 10.3463 5.8503 10.6976C5.8503 11.049 6.1342 11.3329 6.48559 11.3329H11.5773C11.9286 11.3329 12.2125 11.049 12.2125 10.6976C12.2125 10.3463 11.9286 10.0623 11.5773 10.0623ZM6.48559 6.66713H11.5773C11.9286 6.66713 12.2149 6.95336 12.2125 7.30243C12.2125 7.65382 11.9286 7.93772 11.5773 7.93772H6.48559C6.1342 7.93772 5.8503 7.65382 5.8503 7.30243C5.8503 6.95104 6.1342 6.66713 6.48559 6.66713Z" fill="#1D1F23"/>
</g>
</svg>
