<svg width="18" height="18" viewBox="0 0 18 18" fill="none" xmlns="http://www.w3.org/2000/svg">
<path d="M10.6419 0.464173C9.48622 0.159958 8.27127 0.161488 7.11633 0.468612L3.32228 1.47754C1.96964 1.83724 1.05516 3.0969 1.13211 4.49444L1.45923 10.4357C1.45923 10.4917 1.45923 11.5423 1.79525 12.1762C2.6019 13.6926 5.13635 15.5739 6.93904 16.7807C8.11043 17.5648 9.62053 17.5739 10.799 16.8004C12.6155 15.6082 15.1732 13.7374 16.0033 12.1768C16.3393 11.5423 16.3746 10.4877 16.3746 10.4351L16.7041 4.50171C16.7819 3.1009 15.8636 1.83865 14.5068 1.48152L10.6419 0.464173ZM6.20614 13.0488C5.11861 13.0488 4.23699 12.1672 4.23699 11.0796V5.31086C4.23699 4.22333 5.11861 3.34172 6.20614 3.34172H11.2984C12.3859 3.34172 13.2675 4.22333 13.2675 5.31086V7.72118C12.986 7.5569 12.6813 7.43624 12.3636 7.36331V6.15876C12.3636 5.07123 11.482 4.18961 10.3945 4.18961H7.05403C5.9665 4.18961 5.08488 5.07122 5.08488 6.15875V10.1757C5.08488 11.2633 5.9665 12.1449 7.05403 12.1449H8.74862C8.93781 12.4878 9.18706 12.794 9.4845 13.0488H6.20614ZM8.34595 10.733H6.75014C6.51708 10.733 6.32815 10.5441 6.32815 10.311C6.32815 10.078 6.51708 9.88906 6.75014 9.88906H8.4126C8.36611 10.1101 8.34265 10.3353 8.34259 10.5611C8.33867 10.6171 8.34259 10.677 8.34595 10.733ZM6.74818 8.42122C6.51404 8.42122 6.32423 8.23141 6.32423 7.99727C6.32423 7.76313 6.51404 7.57333 6.74818 7.57333H10.2618C9.83055 7.77211 9.44704 8.06127 9.13728 8.42122H6.74818ZM6.74818 6.10604C6.51404 6.10604 6.32423 5.91623 6.32423 5.68209C6.32423 5.44796 6.51404 5.25815 6.74818 5.25815H10.9238C11.1579 5.25815 11.3477 5.44796 11.3477 5.68209C11.3477 5.91623 11.1579 6.10604 10.9238 6.10604H6.74818ZM11.6524 13.4481C10.8946 13.4472 10.168 13.1457 9.63217 12.6099C9.09631 12.074 8.79487 11.3475 8.79398 10.5897C8.79487 9.83184 9.09631 9.10531 9.63217 8.56945C10.168 8.03358 10.8946 7.73214 11.6524 7.73126C12.4102 7.73214 13.1367 8.03358 13.6726 8.56945C14.2085 9.10531 14.5099 9.83184 14.5108 10.5897C14.5095 11.3474 14.2079 12.0736 13.6721 12.6094C13.1363 13.1452 12.4101 13.4467 11.6524 13.4481ZM11.6524 8.49458C11.098 8.49547 10.5665 8.71615 10.1745 9.10825C9.7825 9.50035 9.56196 10.0319 9.56122 10.5863C9.56211 11.1406 9.78272 11.672 10.1747 12.064C10.5667 12.456 11.0981 12.6766 11.6524 12.6775C12.2068 12.6767 12.7383 12.4562 13.1304 12.0642C13.5225 11.6722 13.7432 11.1407 13.7441 10.5863C13.7434 10.0318 13.5228 9.50016 13.1306 9.10805C12.7385 8.71594 12.2069 8.49532 11.6524 8.49458ZM12.6268 11.7142L12.213 11.5423L12.0416 11.9556L11.6664 11.0517L11.2951 11.9556L11.1237 11.5423L10.7104 11.7142L11.0576 10.8803L10.8768 10.5808C10.7032 10.2932 10.7034 9.93303 10.8772 9.64555C11.041 9.37469 11.3345 9.20918 11.651 9.20918H11.72C12.037 9.20918 12.3307 9.37545 12.4939 9.64722C12.666 9.93383 12.6655 10.2921 12.4928 10.5783L12.2936 10.9083L12.6268 11.7142Z" fill="currentColor"/>
</svg>
