<svg width="18" height="18" viewBox="0 0 18 18" fill="none" xmlns="http://www.w3.org/2000/svg">
<path d="M2.86083 17.4979C1.91154 17.1376 1.20484 16.5273 0.740729 15.667C0.414605 15.0622 0.253592 14.3748 0.16284 13.6523C0.0568642 12.8027 0.0129516 11.8735 0.00768209 10.9912C-0.00519893 8.84279 -0.0018812 7.31503 0.0176355 6.40789C0.0328585 5.68343 0.082431 4.98415 0.166353 4.31004C0.19875 4.0493 0.248713 3.7747 0.316241 3.48624C0.673397 1.96355 1.57702 0.949073 3.02711 0.44281C3.33274 0.336249 3.74942 0.246668 4.27715 0.174066C5.13491 0.05638 6.08049 0.016566 7.00324 0.0089545C9.03103 -0.00743953 10.568 -0.00353637 11.6141 0.0206643C12.3401 0.0370583 13.0161 0.0840938 13.6422 0.16177C14.2295 0.234372 14.8531 0.366696 15.3976 0.61202C16.4413 1.08198 17.1552 1.87358 17.5393 2.98681C17.667 3.35724 17.7626 3.78543 17.8262 4.2714C17.9492 5.21757 17.9872 6.19126 17.9931 7.19129C18.0064 9.23469 18.0005 10.7589 17.9755 11.7641C17.9595 12.4202 17.9094 13.0769 17.8251 13.7343C17.7669 14.1906 17.6742 14.6098 17.5469 14.9919C17.2612 15.8508 16.7278 16.5792 15.9784 17.0734C15.6966 17.2592 15.3593 17.4216 14.9666 17.5605C14.7012 17.6542 14.3076 17.7399 13.7857 17.8175C12.932 17.9452 11.9308 17.9862 10.994 17.9926C8.89363 18.0074 7.30322 18.0024 6.22277 17.9774C5.60409 17.9633 4.98561 17.9175 4.36732 17.8398C3.84154 17.7742 3.31927 17.6718 2.86083 17.4979ZM9.87454 10.3518C9.8722 10.0837 10.0584 9.77159 10.2176 9.56081C10.4573 9.24425 10.6972 8.92964 10.9372 8.61699C11.3728 8.04964 11.6398 7.52093 11.631 6.76973C11.6105 5.12447 10.0871 3.87911 8.45587 4.23334C8.07022 4.31687 7.74293 4.45778 7.47399 4.65607C7.15782 4.8891 6.91347 5.15355 6.74094 5.44943C6.49581 5.86904 6.37149 6.32456 6.36798 6.81599C6.36563 7.13606 6.49679 7.389 6.76143 7.57479C6.84731 7.6353 6.93845 7.67394 7.03486 7.69072C7.46111 7.76528 7.78489 7.6269 8.00621 7.2756C8.15551 7.03848 8.07296 6.73109 8.19474 6.46703C8.27905 6.28318 8.44709 6.08177 8.64382 6.00565C8.99746 5.86865 9.30934 5.91646 9.57945 6.1491C9.90264 6.42721 9.96471 6.91845 9.7229 7.27853C9.41902 7.72995 9.05835 8.13922 8.75448 8.5678C8.41313 9.04909 8.15258 9.61292 8.12155 10.2341C8.10516 10.5655 8.23904 10.8374 8.5232 11.0497C8.80015 11.2564 9.23049 11.2394 9.49806 11.0345C9.70416 10.8776 9.87688 10.6176 9.87454 10.3518ZM9.87688 12.9532C9.87688 12.7206 9.78448 12.4975 9.61999 12.333C9.45551 12.1685 9.23242 12.0761 8.9998 12.0761C8.76719 12.0761 8.5441 12.1685 8.37961 12.333C8.21513 12.4975 8.12272 12.7206 8.12272 12.9532C8.12272 13.1858 8.21513 13.4089 8.37961 13.5734C8.5441 13.7379 8.76719 13.8303 8.9998 13.8303C9.23242 13.8303 9.45551 13.7379 9.61999 13.5734C9.78448 13.4089 9.87688 13.1858 9.87688 12.9532Z" fill="currentColor"/>
</svg>
