<svg width="18" height="18" viewBox="0 0 18 18" fill="none" xmlns="http://www.w3.org/2000/svg">
<path fill-rule="evenodd" clip-rule="evenodd" d="M6.48643 2.84424H7.42288C8.72262 2.84424 9.78058 2.84424 10.6152 2.9448C11.4853 3.05089 12.234 3.27744 12.8305 3.81562C13.4282 4.35159 13.6798 5.0257 13.7976 5.81032C13.7941 5.78526 13.7904 5.76021 13.7866 5.73518C14.1114 5.49878 14.4516 5.27995 14.8053 5.07985C15.3784 4.76822 16.105 4.50741 16.85 4.83894C17.5839 5.16716 17.811 5.83795 17.9055 6.44023C18 7.04583 18 7.85807 18 8.83609V10.1125C18 11.0905 18 11.9038 17.9055 12.5083C17.811 13.1106 17.5839 13.7814 16.85 14.1096C16.105 14.4423 15.3784 14.1803 14.8053 13.8687C14.4997 13.7029 14.1609 13.4786 13.7854 13.2134C13.6638 13.966 13.4086 14.6146 12.8305 15.134C12.2352 15.6711 11.4866 15.8988 10.6152 16.0049C9.78181 16.1054 8.72385 16.1054 7.42534 16.1054H6.48398C5.18424 16.1054 4.12751 16.1054 3.29415 16.0049C2.42397 15.8988 1.6753 15.6711 1.07759 15.134C0.481113 14.597 0.228283 13.9229 0.111687 13.1382C0 12.3868 0 11.4353 0 10.265V8.68469C0 7.51439 0 6.56179 0.111687 5.81032C0.228283 5.02681 0.481113 4.3527 1.07759 3.81562C1.67408 3.27744 2.42275 3.05089 3.29415 2.9448C4.12873 2.84424 5.18669 2.84424 6.48643 2.84424ZM15.6521 6.34077C15.2299 6.57063 14.6887 6.96405 13.9044 7.54533H13.9032C13.9103 7.85626 13.9097 8.04462 13.9088 8.31866C13.9085 8.4235 13.9081 8.54089 13.9081 8.68248V10.2672C13.9081 10.6717 13.9081 11.0496 13.9032 11.4032C14.6874 11.9845 15.2287 12.3779 15.6509 12.6089C15.7825 12.6883 15.9276 12.7481 16.0805 12.7857C16.0914 12.7875 16.1025 12.7886 16.1136 12.789H16.1222L16.1259 12.7868L16.1271 12.7857C16.14 12.7724 16.1507 12.7575 16.159 12.7415C16.1983 12.6719 16.2474 12.5415 16.2842 12.3017C16.3603 11.8132 16.3627 11.1037 16.3627 10.0506V8.89797C16.3627 7.84481 16.3603 7.13534 16.2842 6.64688C16.2461 6.40708 16.1983 6.27668 16.159 6.20706C16.1507 6.19106 16.14 6.17618 16.1271 6.16285C16.1253 6.16142 16.1232 6.16029 16.121 6.15954H16.1136C16.1029 6.16035 16.0922 6.16183 16.0817 6.16396C16.008 6.17611 15.873 6.21921 15.6521 6.34077ZM9 9.47483C10.1046 9.47483 11 8.62666 11 7.58038C11 6.5341 10.1046 5.68592 9 5.68592C7.89543 5.68592 7 6.5341 7 7.58038C7 8.62666 7.89543 9.47483 9 9.47483Z" fill="currentColor"/>
</svg>
