<svg width="18" height="18" viewBox="0 0 18 18" fill="none" xmlns="http://www.w3.org/2000/svg">
<g clip-path="url(#clip0_1198_2645)">
<path d="M8.75356 0C8.90578 0 9.05836 0 9.21059 0C9.24363 0.0105469 9.27633 0.0277734 9.31043 0.0312891C9.93762 0.0977344 10.4548 0.381797 10.8932 0.825469C11.2061 1.14187 11.5186 1.45898 11.8403 1.7666C11.8993 1.8232 11.9995 1.86434 12.0814 1.86609C12.5617 1.87559 13.0423 1.86504 13.5225 1.87277C14.9713 1.89598 16.0935 3.03152 16.1026 4.47961C16.1054 4.94824 16.098 5.41687 16.1082 5.88551C16.1104 5.97269 16.1546 6.07852 16.2151 6.14144C16.5596 6.50074 16.9225 6.84246 17.2649 7.20351C18.2183 8.20863 18.2123 9.78504 17.2536 10.7824C16.9249 11.1245 16.5874 11.4578 16.2468 11.7882C16.1423 11.8895 16.0966 11.9921 16.0995 12.1409C16.1086 12.6267 16.11 13.1133 16.0995 13.5995C16.0692 14.952 14.9266 16.0815 13.5759 16.098C13.0897 16.104 12.6035 16.1033 12.1173 16.098C11.9981 16.0966 11.9095 16.1255 11.8237 16.2141C11.5144 16.534 11.2082 16.8588 10.8773 17.1555C10.6446 17.3644 10.3936 17.5718 10.1159 17.7089C9.08613 18.2169 7.93898 17.9905 7.08645 17.1439C6.77074 16.8303 6.45926 16.5122 6.13758 16.2049C6.07816 16.1483 5.97867 16.1068 5.89711 16.1051C5.39367 16.0956 4.88953 16.1061 4.38574 16.098C3.11063 16.078 1.98457 15.024 1.9016 13.751C1.86539 13.1966 1.88824 12.6387 1.87207 12.0829C1.86961 11.9957 1.82426 11.8905 1.76344 11.8273C1.44387 11.4929 1.11094 11.1712 0.786445 10.8415C0.411328 10.4611 0.1575 10.0146 0.0629297 9.48375C0.0425391 9.36949 0.0210938 9.25523 0 9.14098C0 9.04711 0 8.95359 0 8.85972C0.0101953 8.8207 0.0267188 8.78203 0.0298828 8.7423C0.0833203 8.08101 0.372305 7.53715 0.844102 7.07941C1.14223 6.79008 1.42805 6.48773 1.72863 6.20051C1.83938 6.09469 1.88367 5.985 1.88086 5.83312C1.87242 5.4 1.87523 4.96652 1.8784 4.5334C1.89 3.00621 3.0259 1.87664 4.55309 1.87172C4.99816 1.87031 5.44324 1.8777 5.88797 1.86645C5.98078 1.86398 6.09293 1.82004 6.16008 1.75676C6.44168 1.49238 6.71379 1.21781 6.98098 0.938672C7.33043 0.57375 7.72031 0.272461 8.2118 0.127266C8.38969 0.0748828 8.5732 0.0418359 8.75391 0.000351562L8.75356 0ZM12.7016 8.49269C12.8661 9.36035 13.044 10.2902 13.2173 11.2205C13.2353 11.3175 13.2813 11.3396 13.3727 11.3375C13.6185 11.3323 13.8649 11.3316 14.1107 11.34C14.2211 11.3439 14.259 11.3038 14.2854 11.1983C14.4773 10.4333 14.6774 9.67008 14.8746 8.90648C15.0135 8.36965 15.1523 7.83316 15.2944 7.28367H14.3416C14.155 8.27437 13.9697 9.25734 13.7876 10.2227C13.6114 9.25523 13.4318 8.26945 13.2504 7.27312C12.9371 7.27312 12.645 7.26855 12.3532 7.2784C12.3121 7.2798 12.2491 7.34344 12.2372 7.38949C12.1904 7.56422 12.1598 7.74351 12.124 7.92105C11.9654 8.70574 11.8072 9.49043 11.6462 10.2874C11.4641 9.27668 11.2845 8.27859 11.1059 7.28824H10.1137C10.1542 7.46402 10.1897 7.62328 10.2273 7.78148C10.4984 8.92476 10.7687 10.0684 11.044 11.2106C11.0556 11.2588 11.115 11.3302 11.154 11.3316C11.463 11.3414 11.7724 11.3372 12.0945 11.3372C12.3036 10.3574 12.51 9.39234 12.702 8.4934L12.7016 8.49269ZM6.36469 11.3365V7.28754H5.50863C5.52727 8.21461 5.54555 9.12691 5.56383 10.0371C5.55856 10.0308 5.54941 10.0234 5.54449 10.0139C5.08324 9.13992 4.62305 8.26558 4.15828 7.39336C4.13191 7.34414 4.07215 7.28051 4.02609 7.27945C3.69457 7.26961 3.36234 7.27418 3.0266 7.27418V11.3245H3.85172V8.40023C3.87352 8.44066 3.88617 8.46422 3.89848 8.48777C4.38188 9.40324 4.86422 10.3194 5.35184 11.2331C5.37645 11.2795 5.44359 11.3309 5.49246 11.3323C5.77863 11.3418 6.06551 11.3368 6.36434 11.3368L6.36469 11.3365ZM8.10035 9.63773C8.17172 9.63457 8.2343 9.62965 8.29723 9.6293C8.67797 9.62859 9.05871 9.62543 9.4391 9.63035C9.55266 9.63176 9.5973 9.59555 9.59098 9.47918C9.58324 9.33328 9.58148 9.18598 9.59133 9.04008C9.60047 8.90473 9.55933 8.8534 9.41555 8.85867C9.11707 8.86922 8.81824 8.86219 8.51977 8.86254C8.3816 8.86254 8.24309 8.86254 8.10316 8.86254V8.03566H9.66129V7.28332H7.17574V11.3266H9.74918V10.5725H8.10035V9.63738V9.63773Z" fill="currentColor"/>
</g>
<defs>
<clipPath id="clip0_1198_2645">
<rect width="18" height="18" fill="white"/>
</clipPath>
</defs>
</svg>
