<svg width="15" height="18" viewBox="0 0 15 18" fill="none" xmlns="http://www.w3.org/2000/svg">
<path d="M9.89917 17.2503C10.4596 15.8288 10.5425 14.5299 9.95031 13.232C9.36531 11.9495 8.37122 11.0608 7.1511 10.2436C6.80235 11.7716 5.71519 12.8189 4.97985 14.0758C4.37235 15.1139 4.48179 16.1468 5.0136 17.1736C5.07497 17.2923 5.14144 17.4078 5.2161 17.5439C0.917581 16.4475 -1.35594 12.3842 0.864399 7.42602C1.12213 7.84636 1.35224 8.22273 1.63042 8.6758C1.80838 6.84614 2.64906 5.39489 3.67997 4.03261C4.57997 2.84216 5.09133 1.53102 4.88679 0C7.40269 0.649432 10.2275 2.61511 10.8196 6.55159C11.1336 6.19671 11.4097 5.81011 11.7605 5.50943C12.096 5.22205 12.5071 5.02364 13.0021 4.71273C12.95 6.17421 13.2721 7.4025 13.7283 8.60625C13.9134 9.09511 14.076 9.59932 14.1762 10.1107C14.5209 11.8718 14.3429 13.5624 13.2997 15.0709C12.5081 16.2164 11.3545 16.8494 9.89917 17.2514V17.2503Z" fill="currentColor"/>
</svg>
