<svg width="16" height="18" viewBox="0 0 16 18" fill="none" xmlns="http://www.w3.org/2000/svg">
<path d="M5.75869 15.1844C5.47209 15.8567 5.07715 16.3858 4.5842 16.8432C4.34746 17.0628 4.0901 17.268 4.24601 17.6411C4.39676 18.0022 4.71718 18.0005 5.04391 17.9999C7.02146 17.9954 8.99901 17.9999 10.9766 17.9965C11.4913 17.9959 11.7853 17.5563 11.5417 17.1568C11.4844 17.0628 11.3893 16.9871 11.3016 16.916C10.737 16.4575 10.2962 15.906 10.017 15.2698C10.6063 15.2062 11.1967 15.193 11.7647 15.0726C13.9114 14.6186 15.6109 12.6302 15.7771 10.4354C15.905 8.74444 15.3759 7.30341 14.1785 6.09911C12.272 4.18231 10.3741 2.25692 8.47166 0.336121C8.02571 -0.114416 7.80216 -0.111551 7.35277 0.341852C5.42337 2.2896 3.4762 4.22072 1.56858 6.18967C0.0771005 7.72929 -0.369425 9.58189 0.309248 11.6082C0.991359 13.6465 2.47653 14.8353 4.60541 15.1775C4.96652 15.2354 5.34541 15.1855 5.75869 15.1855V15.1844Z" fill="currentColor"/>
</svg>
