<svg width="18" height="18" viewBox="0 0 18 18" fill="none" xmlns="http://www.w3.org/2000/svg">
<path fill-rule="evenodd" clip-rule="evenodd" d="M8.95748 16.875C4.03701 16.875 0.132283 12.5859 0 9.68737C0.0377953 6.45984 4.03701 2.25 8.95748 2.25C13.8883 2.25 17.9015 6.47551 18 9.68737C17.9622 12.5992 13.8883 16.875 8.95748 16.875ZM9.14173 3.93498C5.12126 3.93498 1.68307 7.19455 1.69394 9.63989C1.70457 11.8504 5.12126 15.11 9.14173 15.11C12.9283 15.11 16.1728 11.8604 16.1688 9.63989C16.165 7.17889 12.9283 3.93498 9.14173 3.93498ZM8.95748 12.7665C6.85205 12.7665 5.36929 10.8729 5.3126 9.52048C5.25591 8.16808 6.85205 6.27444 8.95748 6.27444C11.0117 6.27444 12.6957 8.15906 12.6978 9.52048C12.6999 10.8786 11.0117 12.7665 8.95748 12.7665ZM9.07087 8.05034C7.81063 8.05034 6.89976 8.91348 6.90283 9.60903C6.90567 10.1465 7.81063 11.0096 9.07087 11.0096C10.0505 11.0096 10.9594 10.1491 10.9583 9.60903C10.9573 8.90945 10.0505 8.05034 9.07087 8.05034Z" fill="#67707B"/>
</svg>
