<svg width="18" height="18" viewBox="0 0 18 18" fill="none" xmlns="http://www.w3.org/2000/svg">
<g clip-path="url(#clip0_233_23490)">
<path d="M0.350098 3.85873C0.350098 3.77618 0.350098 3.69362 0.350098 3.61089C0.355235 3.59424 0.362676 3.57776 0.365333 3.56076C0.459403 2.96782 0.791747 2.57134 1.36378 2.39596C3.89392 1.62002 6.42671 0.852579 8.95685 0.07646C9.32551 -0.0365653 9.67539 -0.0234558 10.0361 0.110297C12.2273 0.923441 14.4189 1.73641 16.6155 2.53503C17.2086 2.75062 17.657 3.29821 17.6056 4.01977C17.5567 4.70784 17.5209 5.39697 17.4787 6.08558C17.4105 7.20095 17.3411 8.31614 17.2734 9.43152C17.2112 10.4557 17.1462 11.4796 17.0917 12.5043C17.0608 13.0825 16.8089 13.5093 16.2978 13.7917C15.4237 14.2746 14.5555 14.7682 13.685 15.2571C12.1696 16.1082 10.6551 16.9608 9.13719 17.8074C9.00574 17.8808 8.85339 17.9182 8.7083 17.964C8.63921 17.9858 8.56409 17.9887 8.49164 18H8.38552C8.29872 17.9846 8.21138 17.9724 8.12546 17.9529C7.8746 17.8964 7.66946 17.7578 7.47104 17.5996C5.5893 16.1 3.70525 14.6036 1.82226 13.1055C1.49807 12.8476 1.32835 12.5084 1.28619 12.097C1.22436 11.4931 1.15385 10.8899 1.08671 10.2865C1.01851 9.67422 0.949769 9.06215 0.881742 8.4499C0.808222 7.78787 0.735765 7.12566 0.662423 6.46363C0.58784 5.78991 0.514321 5.11583 0.436727 4.44246C0.414405 4.24688 0.379328 4.05307 0.350098 3.85873ZM9.9553 14.1373C9.97106 14.2271 9.98169 14.3547 10.0173 14.475C10.0906 14.7232 10.2428 14.9019 10.5109 14.9489C10.6926 14.9806 10.8623 14.9301 11.0196 14.8411C11.4041 14.6236 11.6461 14.2859 11.8041 13.8834C11.9348 13.5502 11.9898 13.2074 11.8891 12.8549C11.7699 12.437 11.408 12.2552 11.0062 12.4191C10.8855 12.4683 10.7665 12.5376 10.6678 12.6223C10.2168 13.0097 9.99622 13.5116 9.9553 14.1371V14.1373ZM15.7416 11.4277C15.7384 11.2397 15.7107 11.0606 15.6223 10.8954C15.4877 10.6438 15.2414 10.5171 14.9649 10.5852C14.8198 10.6208 14.6726 10.6838 14.5504 10.7689C14.1829 11.0245 13.9652 11.3914 13.8384 11.8141C13.7514 12.1041 13.7276 12.3982 13.8194 12.6926C13.9287 13.0437 14.2145 13.2212 14.5582 13.1466C14.6487 13.127 14.7412 13.0933 14.8198 13.0451C15.4223 12.6745 15.6822 12.1071 15.7417 11.4277H15.7416ZM15.8282 6.92317C15.8264 6.75009 15.8018 6.58516 15.7297 6.42961C15.5945 6.13766 15.3293 6.00798 15.0168 6.08328C14.6995 6.15981 14.4662 6.36035 14.2779 6.6135C13.9606 7.04009 13.7902 7.51292 13.8731 8.05289C13.9223 8.37354 14.1174 8.59623 14.3877 8.64689C14.573 8.68162 14.7486 8.63697 14.9052 8.54113C15.5091 8.17123 15.7692 7.60309 15.8282 6.92299V6.92317ZM9.91278 9.41504C9.92447 9.52559 9.92908 9.61399 9.94378 9.70079C10.0157 10.1244 10.3227 10.3589 10.7091 10.2801C10.8026 10.261 10.8956 10.2229 10.9798 10.177C11.5818 9.84854 11.9921 8.97853 11.8709 8.29807C11.7947 7.87113 11.4964 7.6426 11.105 7.72002C11.0142 7.73791 10.921 7.7705 10.8421 7.81834C10.2368 8.18664 9.9785 8.75514 9.91296 9.41486L9.91278 9.41504ZM5.01195 7.75314C5.03533 8.33421 5.20558 8.78755 5.51383 9.18952C5.64811 9.36455 5.80631 9.51389 6.01642 9.59645C6.27418 9.69778 6.49846 9.60495 6.5982 9.34754C6.63487 9.25294 6.66251 9.14913 6.6664 9.04833C6.69032 8.41145 6.46462 7.86635 6.03502 7.40291C5.92607 7.28528 5.79551 7.19298 5.6405 7.14213C5.40116 7.06348 5.18875 7.15152 5.09982 7.38679C5.04773 7.52479 5.02984 7.67573 5.01212 7.75332L5.01195 7.75314ZM7.03808 14.5389C7.00123 13.8937 6.79998 13.3761 6.38437 12.9564C6.2779 12.8488 6.13742 12.7627 5.99693 12.7041C5.77354 12.6109 5.55936 12.7055 5.46706 12.9305C5.41675 13.0529 5.38185 13.1913 5.38043 13.3227C5.37352 13.921 5.58788 14.4413 5.99038 14.878C6.0949 14.9914 6.23485 15.0842 6.37569 15.1496C6.62229 15.2644 6.85401 15.1644 6.94968 14.9108C7.0007 14.7754 7.01788 14.6275 7.03825 14.5386L7.03808 14.5389ZM6.87651 11.7654C6.84941 11.2403 6.5858 10.6139 6.21802 10.2478C6.09986 10.1302 5.96947 10.0303 5.80667 9.98229C5.57955 9.91533 5.37901 9.99788 5.29203 10.2177C5.24119 10.3463 5.20664 10.4906 5.20522 10.6282C5.19955 11.1505 5.38061 11.6139 5.69276 12.0276C5.82917 12.2083 5.99038 12.3629 6.20739 12.4455C6.45825 12.5408 6.68093 12.4511 6.77482 12.1999C6.82638 12.0617 6.84374 11.9108 6.87651 11.7655V11.7654ZM8.95224 4.06441C8.48225 4.06282 8.17028 4.10108 7.86716 4.19657C7.67212 4.25786 7.48398 4.33581 7.33694 4.48498C7.1837 4.64052 7.18954 4.81785 7.36475 4.94664C7.46254 5.01839 7.57627 5.07951 7.69213 5.1137C8.3012 5.29405 8.90849 5.26198 9.50957 5.06906C9.6761 5.01556 9.83235 4.93903 9.95937 4.81449C10.1172 4.65965 10.1119 4.48143 9.93758 4.3452C9.86672 4.28993 9.78417 4.24546 9.70072 4.21109C9.41249 4.09258 9.10761 4.06547 8.95224 4.06441ZM3.54652 7.16995C3.51516 6.56726 3.33676 6.08381 2.96952 5.68113C2.87687 5.57944 2.75552 5.49388 2.63151 5.43276C2.40723 5.32239 2.20598 5.40672 2.09933 5.63401C2.02493 5.79274 2.00827 5.96263 2.01961 6.13465C2.04813 6.57169 2.19606 6.96728 2.44939 7.32266C2.57535 7.49928 2.72398 7.65465 2.92966 7.74092C3.16085 7.83782 3.36617 7.76306 3.45812 7.53064C3.5102 7.39919 3.52667 7.25374 3.54634 7.16995H3.54652ZM3.81845 9.83313C3.78957 9.24515 3.64059 8.77799 3.33446 8.3661C3.2388 8.23749 3.12559 8.12517 2.97732 8.05661C2.78475 7.96768 2.60369 8.02224 2.52079 8.21694C2.46675 8.34396 2.43008 8.4871 2.42477 8.62457C2.40563 9.1284 2.55639 9.58812 2.82904 10.0087C2.93072 10.1656 3.05314 10.3052 3.22179 10.3951C3.4365 10.5095 3.63332 10.4523 3.72208 10.2275C3.78036 10.0797 3.79896 9.91657 3.81845 9.83295V9.83313ZM8.79617 3.70532C9.1744 3.70478 9.53048 3.64863 9.82084 3.54109C9.97089 3.48564 10.1156 3.41903 10.2274 3.29945C10.3512 3.16694 10.3479 3.02149 10.2065 2.90865C10.1296 2.84735 10.04 2.79261 9.94697 2.76249C9.29486 2.55062 8.64505 2.58339 8.00623 2.81599C7.87478 2.86383 7.74936 2.94975 7.6443 3.04382C7.51445 3.16003 7.52968 3.31681 7.66786 3.42488C7.74546 3.48564 7.83563 3.53595 7.92757 3.57156C8.20642 3.67945 8.49979 3.70567 8.79634 3.70549L8.79617 3.70532ZM12.545 2.58091C12.4688 2.58888 12.3187 2.59862 12.1708 2.62183C11.9986 2.64876 11.8317 2.69801 11.6843 2.79686C11.4622 2.94585 11.4485 3.1471 11.6549 3.31858C11.7265 3.37811 11.8083 3.43072 11.8937 3.46704C12.4006 3.68264 12.9246 3.71718 13.46 3.59743C13.6194 3.56182 13.7714 3.50513 13.8945 3.39246C14.0288 3.26969 14.0442 3.11787 13.917 2.98907C13.8341 2.9051 13.7312 2.83318 13.6245 2.78198C13.3081 2.62998 12.9668 2.58693 12.545 2.58109V2.58091ZM5.36378 3.55349C5.68372 3.53914 5.953 3.49556 6.20757 3.38325C6.35461 3.31841 6.49261 3.2394 6.58509 3.10175C6.67083 2.97402 6.66995 2.8346 6.55728 2.73185C6.46817 2.65053 6.36116 2.57382 6.24832 2.53609C5.69541 2.35185 5.1496 2.38994 4.62486 2.64185C4.51981 2.69216 4.42468 2.77844 4.34761 2.8679C4.24185 2.99085 4.2523 3.13576 4.36746 3.25038C4.43477 3.31734 4.51839 3.37421 4.60467 3.4146C4.85835 3.53383 5.13188 3.55385 5.36378 3.55349ZM4.07922 12.2308C4.04716 11.6998 3.89569 11.2734 3.56671 10.9249C3.47884 10.8319 3.35962 10.7591 3.24163 10.7065C3.09814 10.6426 2.95234 10.6968 2.87705 10.8348C2.8262 10.9278 2.78563 11.0367 2.77802 11.1412C2.74028 11.6676 2.9146 12.1273 3.25917 12.5202C3.33641 12.6083 3.44164 12.6809 3.54758 12.733C3.73908 12.8274 3.91606 12.7596 3.99667 12.5608C4.04539 12.4407 4.06098 12.3071 4.07922 12.2306V12.2308ZM9.20097 2.32988C9.48867 2.3251 9.77371 2.29498 10.0373 2.17434C10.1576 2.11924 10.2738 2.04094 10.3693 1.94953C10.4822 1.84164 10.4705 1.69371 10.3516 1.59185C10.2772 1.52807 10.1884 1.46997 10.0961 1.44038C9.56414 1.27049 9.03816 1.29954 8.52973 1.53002C8.42946 1.57555 8.33875 1.65811 8.26523 1.74243C8.18038 1.83951 8.1887 1.95537 8.28153 2.04554C8.35151 2.1134 8.43814 2.17097 8.52725 2.21101C8.74019 2.30667 8.97031 2.32474 9.20115 2.3297L9.20097 2.32988Z" fill="white"/>
</g>
<defs>
<clipPath id="clip0_233_23490">
<rect width="18" height="18" fill="white"/>
</clipPath>
</defs>
</svg>
