<svg width="18" height="18" viewBox="0 0 18 18" fill="none" xmlns="http://www.w3.org/2000/svg">
<path fill-rule="evenodd" clip-rule="evenodd" d="M11.6912 5.39528C11.6782 5.53701 11.6649 5.68236 11.6524 5.83281V5.83166C11.5519 6.37515 11.8331 6.4254 12.2912 6.20708C12.7151 6.00493 13.1541 5.83224 13.5936 5.66647C13.7033 5.62489 13.8558 5.62258 13.965 5.66416C14.2538 5.77493 14.5393 5.89439 14.8249 6.01386C15.0441 6.10556 15.2633 6.19727 15.484 6.28505C15.7652 6.39652 15.9391 6.26599 15.9183 5.96566C15.9044 5.76676 15.8879 5.56794 15.8713 5.36912C15.8432 5.03157 15.8152 4.694 15.7999 4.35597C15.7936 4.22082 15.845 4.05505 15.9287 3.94936C16.1327 3.69138 16.347 3.44125 16.5613 3.19114C16.691 3.03976 16.8207 2.8884 16.9481 2.7353C17.1653 2.47424 17.1121 2.29924 16.7864 2.21376C16.5874 2.16147 16.3874 2.11262 16.1875 2.06377C15.875 1.98741 15.5624 1.91105 15.2535 1.82159C15.1143 1.78116 14.9642 1.67488 14.8839 1.55475C14.7006 1.28105 14.5299 0.998711 14.3591 0.716343C14.2615 0.554788 14.1638 0.393224 14.0637 0.233267C13.8691 -0.0774663 13.6744 -0.0774662 13.4827 0.231534C13.3898 0.381108 13.2986 0.531813 13.2075 0.682498C13.0302 0.975771 12.8529 1.26897 12.6625 1.55359C12.5823 1.67373 12.4321 1.78231 12.2929 1.82274C11.9764 1.91414 11.6555 1.99071 11.3346 2.06728C11.1608 2.10878 10.9869 2.15027 10.8137 2.19412C10.4418 2.28884 10.3811 2.4754 10.6254 2.76591C10.734 2.89517 10.844 3.02332 10.954 3.15147C11.1822 3.41729 11.4103 3.68308 11.6258 3.9586C11.7147 4.07238 11.7696 4.24854 11.7644 4.39293C11.7529 4.72016 11.723 5.04681 11.6912 5.39528ZM9.86943 9.10895L10.305 9.1087H10.3051C10.6055 9.10844 10.9135 9.10817 11.2215 9.10895C11.3765 9.1094 11.5315 9.10961 11.6865 9.10983L11.6883 9.10983C12.1294 9.11044 12.5704 9.11106 13.0114 9.11703C14.11 9.13321 14.8596 10.0446 14.6327 11.1195C14.2272 13.0359 13.8038 14.9488 13.3793 16.8617C13.2482 17.452 12.5875 17.9949 12.003 17.996C9.69057 17.9999 7.37858 17.9993 5.0663 17.9987H5.06618L3.80436 17.9983C3.7674 17.9983 3.73019 17.9935 3.69101 17.9883L3.69097 17.9883C3.67138 17.9858 3.6513 17.9831 3.63051 17.981V9.62472C3.68707 9.61151 3.74175 9.59918 3.79509 9.58716L3.79516 9.58714C3.89813 9.56392 3.99614 9.54182 4.09315 9.51671C5.65086 9.11068 6.73438 7.73433 6.77192 6.12695C6.77712 5.90747 6.79387 5.68222 6.84758 5.47025C7.03067 4.7454 7.57474 4.28219 8.24357 4.2562C8.9638 4.22847 9.63263 4.6888 9.87232 5.40383C10.1114 6.11771 10.1403 6.85873 10.075 7.60091C10.0453 7.94079 9.99377 8.27903 9.94084 8.62648L9.94083 8.62651C9.91668 8.78506 9.89223 8.94553 9.86943 9.10895ZM3.07022 13.8387L3.07009 14.9645C3.06996 15.7151 3.06984 16.4658 3.07022 17.2163C3.07022 17.754 2.83573 17.9966 2.30436 17.9984C1.77531 18.0001 1.24568 18.0012 0.716621 17.9978C0.26034 17.9949 0.00274346 17.7408 0.00216589 17.2793C-0.000721963 14.9696 -0.000721963 12.6593 0.00216589 10.3496C0.00274346 9.90139 0.272469 9.6386 0.725862 9.6334C1.26474 9.62762 1.80361 9.62762 2.34248 9.6334C2.81262 9.63802 3.06445 9.89619 3.0656 10.3744C3.0677 11.2145 3.06736 12.0543 3.06701 12.8942V12.8942L3.06676 13.8393H3.06907L3.07022 13.8387Z" fill="white"/>
</svg>
