<svg width="18" height="18" viewBox="0 0 18 18" fill="none" xmlns="http://www.w3.org/2000/svg">
<g id="yhhd_mr_icon">
<g id="yhhd_mr_icon_2">
<path d="M5.82812 6.46094C5.82812 6.11144 6.11144 5.82812 6.46094 5.82812C6.81043 5.82812 7.09375 6.11144 7.09375 6.46094C7.09375 6.81043 6.81043 7.09375 6.46094 7.09375C6.11144 7.09375 5.82812 6.81043 5.82812 6.46094Z" fill="#1D1F23"/>
<path d="M11.5234 10.8906C11.1739 10.8906 10.8906 11.1739 10.8906 11.5234C10.8906 11.8729 11.1739 12.1562 11.5234 12.1562C11.8729 12.1562 12.1562 11.8729 12.1562 11.5234C12.1562 11.1739 11.8729 10.8906 11.5234 10.8906Z" fill="#1D1F23"/>
<path fill-rule="evenodd" clip-rule="evenodd" d="M17.102 10.624C17.5521 10.14 18 9.65827 18 9C18 8.34173 17.5521 7.86002 17.102 7.37597C16.7777 7.02728 16.4524 6.67738 16.2925 6.2594C16.1399 5.86036 16.1793 5.38178 16.2183 4.90865C16.2672 4.31505 16.3155 3.73005 15.9828 3.32147C15.4987 2.72695 14.9403 2.60908 14.3216 2.4785C13.9238 2.39455 13.5011 2.30534 13.0574 2.08083C12.6601 1.87983 12.2459 1.58886 11.8174 1.28789C10.9311 0.665317 9.98401 0 9 0C8.01599 0 7.06887 0.665317 6.18259 1.28789C5.75415 1.58886 5.33993 1.87983 4.94263 2.08083C4.49885 2.30534 4.07619 2.39455 3.67842 2.4785C3.05973 2.60908 2.50127 2.72695 2.0172 3.32147C1.68454 3.73005 1.73275 4.31506 1.78168 4.90865C1.82067 5.38178 1.86011 5.86036 1.70749 6.2594C1.54763 6.67738 1.22227 7.02728 0.898033 7.37597C0.44793 7.86002 0 8.34173 0 9C0 9.65827 0.44793 10.14 0.898033 10.624C1.22227 10.9727 1.54763 11.3226 1.70749 11.7406C1.87336 12.1743 1.86747 12.6785 1.86167 13.1762C1.8539 13.8418 1.84627 14.4957 2.25 14.9531C2.7681 15.5401 3.53536 15.6494 4.32612 15.762C4.84089 15.8353 5.36561 15.91 5.83803 16.1189C6.27605 16.3126 6.65889 16.6456 7.04116 16.9781C7.62921 17.4896 8.21591 18 9 18C9.78409 18 10.3708 17.4896 10.9588 16.9781C11.3411 16.6456 11.724 16.3126 12.162 16.1189C12.6344 15.91 13.1591 15.8353 13.6739 15.762C14.4646 15.6494 15.2319 15.5401 15.75 14.9531C16.1537 14.4957 16.1461 13.8418 16.1383 13.1762C16.1325 12.6785 16.1266 12.1743 16.2925 11.7406C16.4524 11.3226 16.7777 10.9727 17.102 10.624ZM6.46094 4.5625C5.41246 4.5625 4.5625 5.41246 4.5625 6.46094C4.5625 7.50942 5.41246 8.35938 6.46094 8.35938C7.50942 8.35938 8.35938 7.50942 8.35938 6.46094C8.35938 5.41246 7.50942 4.5625 6.46094 4.5625ZM13.0256 4.95878C13.2727 5.20591 13.2727 5.60659 13.0256 5.85372L5.85372 13.0256C5.60659 13.2727 5.20591 13.2727 4.95878 13.0256C4.71166 12.7785 4.71166 12.3778 4.95878 12.1307L12.1307 4.95878C12.3778 4.71166 12.7785 4.71166 13.0256 4.95878ZM9.625 11.5234C9.625 10.475 10.475 9.625 11.5234 9.625C12.5719 9.625 13.4219 10.475 13.4219 11.5234C13.4219 12.5719 12.5719 13.4219 11.5234 13.4219C10.475 13.4219 9.625 12.5719 9.625 11.5234Z" fill="#1D1F23"/>
</g>
</g>
</svg>
