<svg xmlns="http://www.w3.org/2000/svg" width="18" height="18" viewBox="0 0 18 18" fill="none">
<mask id="mask0_16039_1106" style="mask-type:alpha" maskUnits="userSpaceOnUse" x="0" y="0" width="18" height="18">
<rect width="18" height="18" fill="#D9D9D9"/>
</mask>
<g mask="url(#mask0_16039_1106)">
<path fill-rule="evenodd" clip-rule="evenodd" d="M5.2987 0.608968C5.65168 0.961803 5.98709 1.29863 6.30495 1.61945C6.30561 1.62014 6.30623 1.62087 6.30681 1.62164L6.3074 1.62246L6.30855 1.62443C6.30904 1.62534 6.30946 1.62629 6.3098 1.62727C6.31086 1.6302 6.31123 1.63331 6.31096 1.6364C6.31066 1.63949 6.30971 1.64248 6.30816 1.64517C6.30659 1.64785 6.30449 1.65017 6.30194 1.65197C5.96102 1.89275 5.65151 2.18756 5.37347 2.53639C5.13292 2.83754 4.94455 3.15886 4.80837 3.50036C4.59424 4.03561 4.48784 4.60889 4.48919 5.22018C4.48919 5.23952 4.49872 5.24919 4.51779 5.24919H13.4888C13.5045 5.24919 13.5122 5.24136 13.5118 5.22568C13.5065 4.94255 13.4926 4.72528 13.4702 4.57387C13.418 4.2257 13.3186 3.86736 13.1721 3.49885C12.872 2.74599 12.333 2.15221 11.6665 1.65547C11.6494 1.6428 11.6484 1.62879 11.6635 1.61345C11.987 1.29196 12.3157 0.958968 12.6496 0.61447C12.8489 0.409371 12.7164 0.130739 12.4916 0.0271888C12.3169 -0.0538499 12.1533 0.060704 12.0319 0.181262C11.6862 0.52476 11.3382 0.874095 10.988 1.22927C10.9745 1.24261 10.9595 1.24494 10.9428 1.23627C10.0882 0.793389 9.17784 0.655991 8.21158 0.824071C7.7895 0.897606 7.40807 1.04218 7.01963 1.23627C7.00255 1.24461 6.98733 1.2421 6.97395 1.22876C6.63134 0.887935 6.25913 0.516924 5.85728 0.115731C5.63446 -0.107376 5.34487 0.0266881 5.22291 0.271805C5.16922 0.380358 5.21338 0.523927 5.2987 0.608968ZM7.47722 3.00222C7.47987 3.00484 7.48134 3.00841 7.48134 3.01212V3.75948C7.48134 3.7632 7.47987 3.76676 7.47722 3.76938C7.4746 3.77201 7.47102 3.77349 7.4673 3.77349H6.75563C6.75492 3.77349 6.75421 3.77343 6.7535 3.77332L6.75169 3.77292C6.74943 3.77227 6.74738 3.77106 6.74571 3.76938C6.74306 3.76676 6.74159 3.7632 6.74159 3.75948V3.01212C6.74159 3.00841 6.74306 3.00484 6.74571 3.00222C6.74833 2.99959 6.75191 2.99811 6.75563 2.99811H7.4673C7.47102 2.99811 7.4746 2.99959 7.47722 3.00222ZM11.2521 3.00217C11.2551 3.00517 11.2568 3.00923 11.2568 3.01348L11.2581 3.75683C11.2581 3.75894 11.2577 3.76102 11.2569 3.76296C11.2561 3.76491 11.2549 3.76667 11.2534 3.76816C11.2527 3.76885 11.252 3.76947 11.2512 3.77002L11.2501 3.77074L11.2482 3.77164C11.2463 3.77245 11.2442 3.77287 11.2421 3.77287L10.5344 3.7741C10.5302 3.77411 10.5261 3.77243 10.523 3.76943C10.5201 3.76644 10.5183 3.76237 10.5183 3.75813L10.517 3.01477C10.517 3.01267 10.5175 3.01058 10.5182 3.00864C10.519 3.00669 10.5203 3.00493 10.5217 3.00344C10.5232 3.00195 10.525 3.00077 10.5269 2.99996C10.5289 2.99915 10.5309 2.99873 10.533 2.99873L11.2407 2.9975C11.245 2.99749 11.249 2.99917 11.2521 3.00217Z" fill="#67707B"/>
<path d="M2.58606 6.03607H2.65331C3.25313 6.03607 3.73937 6.52073 3.73937 7.11859V12.4161C3.73937 13.014 3.25313 13.4987 2.65331 13.4987H2.58606C1.98624 13.4987 1.5 13.014 1.5 12.4161V7.11859C1.5 6.52073 1.98624 6.03607 2.58606 6.03607Z" fill="#67707B"/>
<path d="M5.98175 14.2355C5.70839 14.2448 5.4379 14.2452 5.17022 14.2365C4.75819 14.223 4.48465 13.8743 4.48465 13.4781C4.48164 10.9249 4.48181 8.44873 4.48517 6.04958C4.48517 6.0329 4.49353 6.02457 4.51026 6.02457H13.5018C13.5071 6.02457 13.511 6.02612 13.5132 6.02923C13.515 6.0316 13.5159 6.03488 13.5159 6.03907C13.5169 8.51426 13.5167 10.9986 13.5154 13.4922C13.5154 13.8823 13.2328 14.217 12.8324 14.2345C12.573 14.2455 12.303 14.2455 12.0223 14.2345C12.0052 14.2338 11.9967 14.2418 11.9967 14.2585C11.9991 15.1059 11.9992 15.9705 11.9972 16.8523C11.9966 17.1641 11.898 17.4259 11.7016 17.6376C11.3378 18.0298 10.733 18.1154 10.2803 17.8367C10.0408 17.689 9.88132 17.4929 9.80202 17.2485C9.75516 17.104 9.73308 16.8751 9.73578 16.5616C9.74213 15.8023 9.74296 15.0369 9.73828 14.2655C9.73794 14.2492 9.72958 14.241 9.71319 14.241H8.28586C8.2688 14.241 8.26025 14.2495 8.26025 14.2665C8.2601 14.7118 8.25991 15.135 8.25969 15.5362C8.25942 15.9876 8.2591 16.4111 8.25876 16.8067C8.25809 17.3197 8.05048 17.6792 7.63592 17.8853C7.42481 17.9906 7.18777 18.0222 6.92477 17.9798C6.3943 17.8938 6.01388 17.436 6.00584 16.8938C5.99581 16.2405 5.99613 15.3625 6.00684 14.26C6.00718 14.243 5.9988 14.2348 5.98175 14.2355Z" fill="#67707B"/>
<path d="M15.3462 6.03607H15.4135C16.0136 6.03607 16.5 6.52096 16.5 7.11909V12.4156C16.5 13.0138 16.0136 13.4987 15.4135 13.4987H15.3462C14.7461 13.4987 14.2597 13.0138 14.2597 12.4156V7.11909C14.2597 6.52096 14.7461 6.03607 15.3462 6.03607Z" fill="#67707B"/>
</g>
</svg>