<svg xmlns="http://www.w3.org/2000/svg" width="24" height="24" viewBox="0 0 24 24" fill="none">
<mask id="mask0_13671_3279" style="mask-type:alpha" maskUnits="userSpaceOnUse" x="0" y="0" width="24" height="24">
<rect width="24" height="24" fill="#D9D9D9"/>
</mask>
<g mask="url(#mask0_13671_3279)">
<path fill-rule="evenodd" clip-rule="evenodd" d="M5.36374 5.63626C4.86164 6.13836 4.86164 6.95243 5.36374 7.45453L9.90932 12.0001L5.36385 16.5456C4.86175 17.0477 4.86175 17.8617 5.36385 18.3638C5.86595 18.866 6.68002 18.866 7.18212 18.3638L11.7276 13.8184L16.2734 18.3642C16.7755 18.8663 17.5896 18.8663 18.0917 18.3642C18.5938 17.8621 18.5938 17.048 18.0917 16.5459L13.5459 12.0001L18.0918 7.4542C18.5939 6.9521 18.5939 6.13803 18.0918 5.63593C17.5897 5.13383 16.7756 5.13383 16.2735 5.63593L11.7276 10.1818L7.18201 5.63626C6.67991 5.13416 5.86584 5.13416 5.36374 5.63626Z" fill="#67707B"/>
</g>
</svg>