<svg width="24" height="20" viewBox="0 0 24 20" fill="none" xmlns="http://www.w3.org/2000/svg">
<rect width="24" height="3" rx="1.5" fill="#929AA5"/>
<rect y="17" width="24" height="3" rx="1.5" fill="#929AA5"/>
<path d="M0 10.0017C0 9.17328 0.671573 8.50171 1.5 8.50171H12.5C13.3284 8.50171 14 9.17328 14 10.0017C14 10.8301 13.3284 11.5017 12.5 11.5017H1.5C0.671573 11.5017 0 10.8301 0 10.0017Z" fill="#929AA5"/>
<path d="M17 6.61191C17 5.71816 18.0024 5.19089 18.7388 5.69722L23.4298 8.92227C24.187 9.4428 24.187 10.5607 23.4298 11.0813L18.7388 14.3063C18.0024 14.8126 17 14.2854 17 13.3916V6.61191Z" fill="#FF284B"/>
</svg>
