<svg width="24" height="20" viewBox="0 0 24 20" fill="none" xmlns="http://www.w3.org/2000/svg">
<rect width="24" height="3" rx="1.5" fill="#67707B"/>
<rect y="17" width="24" height="3" rx="1.5" fill="#67707B"/>
<path d="M10 10.0017C10 9.17328 10.6716 8.50171 11.5 8.50171H22.5C23.3284 8.50171 24 9.17328 24 10.0017C24 10.8301 23.3284 11.5017 22.5 11.5017H11.5C10.6716 11.5017 10 10.8301 10 10.0017Z" fill="#67707B"/>
<path d="M7.00012 6.61191C7.00012 5.71816 5.99776 5.19089 5.26128 5.69722L0.570296 8.92227C-0.186834 9.4428 -0.186833 10.5607 0.570296 11.0813L5.26128 14.3063C5.99776 14.8126 7.00012 14.2854 7.00012 13.3916V6.61191Z" fill="#FF284B"/>
</svg>
