<svg xmlns="http://www.w3.org/2000/svg" width="20" height="20" viewBox="0 0 20 20" fill="none">
  <path fill-rule="evenodd" clip-rule="evenodd" d="M5.02926 1V8.09613C5.02926 10.9282 7.25814 13.2322 9.99787 13.2322C12.7376 13.2322 14.9665 10.9282 14.9665 8.09613V1H5.02926ZM12.7133 6.52283L11.8613 7.38134C11.7531 7.49031 11.7038 7.64734 11.7293 7.80121L11.9305 9.01343C11.9948 9.40093 11.6013 9.69646 11.2647 9.51349L10.2115 8.94113C10.0778 8.86846 9.91809 8.86846 9.78438 8.94113L8.73119 9.51349C8.39453 9.69642 8.00104 9.40093 8.06536 9.01343L8.26652 7.80121C8.29204 7.64734 8.24269 7.49031 8.13457 7.38134L7.28253 6.52283C7.01017 6.24837 7.16046 5.77022 7.53687 5.71372L8.71435 5.53685C8.86384 5.5144 8.99301 5.41735 9.05986 5.27733L9.58642 4.17436C9.75475 3.82178 10.2411 3.82178 10.4095 4.17436L10.936 5.27733C11.0028 5.41735 11.1321 5.51436 11.2815 5.53685L12.459 5.71372C12.8354 5.77029 12.9857 6.24844 12.7133 6.52283Z" fill="url(#paint0_linear_15521_2070)"/>
  <path d="M3.39428 7.65486L4.17778 8.16429C4.18429 8.7676 4.27673 9.34995 4.44365 9.89858L2.71356 8.77378C1.82943 8.19899 1.22336 7.25872 1.05075 6.1939C0.716833 4.13436 2.06612 2.17792 4.05852 1.83283L4.07012 1.83079C4.10604 1.82454 4.14169 1.82229 4.17694 1.82229V3.15503C2.93109 3.42346 2.09972 4.66718 2.31181 5.97543C2.42422 6.66856 2.81879 7.2807 3.39428 7.65486Z" fill="url(#paint1_linear_15521_2070)"/>
  <path d="M15.9299 1.83076L15.9419 1.83286C17.9339 2.17799 19.2831 4.13436 18.9493 6.19394C18.7766 7.25872 18.1705 8.19906 17.2864 8.77382L15.5564 9.89862C15.7232 9.34999 15.8158 8.76764 15.8222 8.16433L16.6057 7.65493C17.1813 7.2807 17.5758 6.6686 17.6882 5.97543C17.9003 4.66704 17.0687 3.42313 15.823 3.15503V1.82229C15.8583 1.82229 15.8939 1.82454 15.9299 1.83076Z" fill="url(#paint2_linear_15521_2070)"/>
  <path d="M11.5321 15.961C11.6221 15.961 11.711 15.966 11.7986 15.9753C13.0858 16.1131 14.0897 17.2378 14.0897 18.6049V19H5.89657V18.6049C5.89657 17.2378 6.90045 16.1131 8.18774 15.9753C8.27533 15.966 8.36425 15.961 8.45427 15.961H9.04023V14.1126H10.9461V15.961H11.5321Z" fill="url(#paint3_linear_15521_2070)"/>
  <defs>
    <linearGradient id="paint0_linear_15521_2070" x1="10" y1="19" x2="10" y2="1" gradientUnits="userSpaceOnUse">
      <stop stop-color="#D44405"/>
      <stop offset="1" stop-color="#FF8E26"/>
    </linearGradient>
    <linearGradient id="paint1_linear_15521_2070" x1="10" y1="19" x2="10" y2="1" gradientUnits="userSpaceOnUse">
      <stop stop-color="#D44405"/>
      <stop offset="1" stop-color="#FF8E26"/>
    </linearGradient>
    <linearGradient id="paint2_linear_15521_2070" x1="10" y1="19" x2="10" y2="1" gradientUnits="userSpaceOnUse">
      <stop stop-color="#D44405"/>
      <stop offset="1" stop-color="#FF8E26"/>
    </linearGradient>
    <linearGradient id="paint3_linear_15521_2070" x1="10" y1="19" x2="10" y2="1" gradientUnits="userSpaceOnUse">
      <stop stop-color="#D44405"/>
      <stop offset="1" stop-color="#FF8E26"/>
    </linearGradient>
  </defs>
</svg>