<svg xmlns="http://www.w3.org/2000/svg" width="18" height="18" viewBox="0 0 18 18" fill="none">
<path d="M14.3333 3.66341C14.687 3.66341 15.0261 3.80389 15.2761 4.05394C15.5262 4.30398 15.6667 4.64312 15.6667 4.99674V12.9967C15.6667 13.3504 15.5262 13.6895 15.2761 13.9396C15.0261 14.1896 14.687 14.3301 14.3333 14.3301H3.66667C3.49157 14.3301 3.31819 14.2956 3.15642 14.2286C2.99465 14.1616 2.84767 14.0634 2.72386 13.9396C2.47381 13.6895 2.33333 13.3504 2.33333 12.9967V4.99674C2.33333 4.64312 2.47381 4.30398 2.72386 4.05394C2.97391 3.80389 3.31304 3.66341 3.66667 3.66341H14.3333ZM14.3333 2.33008H3.66667C2.95942 2.33008 2.28115 2.61103 1.78105 3.11113C1.28095 3.61122 1 4.2895 1 4.99674V12.9967C1 13.704 1.28095 14.3823 1.78105 14.8824C2.28115 15.3825 2.95942 15.6634 3.66667 15.6634H14.3333C15.0406 15.6634 15.7189 15.3825 16.219 14.8824C16.719 14.3823 17 13.704 17 12.9967V4.99674C17 4.2895 16.719 3.61122 16.219 3.11113C15.7189 2.61103 15.0406 2.33008 14.3333 2.33008Z" fill="#67707B"/>
<path d="M14.3332 3.66341C14.4849 3.66408 14.6353 3.69115 14.7777 3.74341L9.96877 8.18786H9.94655C9.69655 8.43755 9.35766 8.57779 9.00432 8.57779C8.65099 8.57779 8.3121 8.43755 8.0621 8.18786H8.03988L3.2221 3.74341C3.36448 3.69115 3.51488 3.66408 3.66655 3.66341H14.3332ZM14.3332 2.33008H3.66655C3.17503 2.33074 2.69325 2.46723 2.27443 2.72449C1.85561 2.98174 1.51603 3.34974 1.29321 3.78786L7.11544 9.16563C7.61544 9.66501 8.29321 9.94551 8.99988 9.94551C9.70655 9.94551 10.3843 9.66501 10.8843 9.16563L16.7065 3.78786C16.4837 3.34974 16.1442 2.98174 15.7253 2.72449C15.3065 2.46723 14.8247 2.33074 14.3332 2.33008Z" fill="#67707B"/>
</svg>