<svg xmlns="http://www.w3.org/2000/svg" width="20" height="20" viewBox="0 0 20 20" fill="none">
<path d="M4.03136 18.261C3.10844 17.9108 2.42137 17.3175 1.97015 16.4812C1.65309 15.8932 1.49655 15.225 1.40832 14.5226C1.30528 13.6968 1.26259 12.7935 1.25747 11.9357C1.24495 9.84721 1.24817 8.36204 1.26715 7.4802C1.28195 6.77593 1.33014 6.09615 1.41173 5.44083C1.44323 5.18736 1.4918 4.92041 1.55746 4.64C1.90469 3.15976 2.78321 2.17356 4.19302 1.68141C4.49016 1.57782 4.89527 1.49074 5.40834 1.42016C6.24228 1.30576 7.16159 1.26705 8.05871 1.25965C10.0302 1.24372 11.5244 1.24751 12.5414 1.27104C13.2473 1.28697 13.9046 1.3327 14.5133 1.40821C15.0842 1.47879 15.6905 1.60742 16.2199 1.84591C17.2346 2.30277 17.9287 3.07229 18.3021 4.15449C18.4262 4.51459 18.5192 4.93085 18.5811 5.40327C18.7006 6.32306 18.7376 7.2696 18.7433 8.24176C18.7562 10.2282 18.7505 11.7099 18.7262 12.687C18.7106 13.3249 18.6619 13.9633 18.5799 14.6023C18.5234 15.0459 18.4332 15.4534 18.3095 15.8249C18.0317 16.6599 17.5132 17.3679 16.7845 17.8483C16.5105 18.029 16.1827 18.1868 15.8009 18.3219C15.5428 18.413 15.1601 18.4962 14.6527 18.5718C13.8228 18.6958 12.8494 18.7357 11.9386 18.7419C9.89659 18.7564 8.35035 18.7514 7.29992 18.7271C6.69842 18.7135 6.09712 18.6689 5.49601 18.5934C4.98483 18.5296 4.47707 18.43 4.03136 18.261ZM10.8502 11.3142C10.848 11.0535 11.029 10.7501 11.1838 10.5452C11.4168 10.2375 11.65 9.93164 11.8834 9.6277C12.3069 9.07617 12.5665 8.5622 12.558 7.83195C12.538 6.23256 11.0569 5.02192 9.47099 5.36627C9.09605 5.44747 8.77785 5.58446 8.51638 5.77722C8.20899 6.00375 7.97143 6.26083 7.80369 6.54845C7.56537 6.95636 7.4445 7.39918 7.44109 7.87691C7.43881 8.18806 7.56632 8.43395 7.82362 8.61457C7.9071 8.67338 7.99571 8.71095 8.08945 8.72726C8.50385 8.79974 8.81864 8.66522 9.03381 8.32372C9.17897 8.0932 9.09871 7.79438 9.21711 7.53768C9.29908 7.35896 9.46245 7.16316 9.65371 7.08917C9.99753 6.95598 10.3007 7.00247 10.5634 7.22862C10.8776 7.49898 10.9379 7.97652 10.7028 8.32656C10.4074 8.7654 10.0567 9.16325 9.7613 9.57989C9.42943 10.0478 9.17612 10.5959 9.14595 11.1998C9.13001 11.5219 9.26018 11.7862 9.53645 11.9926C9.8057 12.1936 10.2241 12.177 10.4842 11.9778C10.6846 11.8253 10.8525 11.5726 10.8502 11.3142ZM10.8525 13.843C10.8525 13.6169 10.7627 13.4 10.6028 13.2401C10.4429 13.0802 10.226 12.9904 9.99981 12.9904C9.77365 12.9904 9.55676 13.0802 9.39685 13.2401C9.23693 13.4 9.14709 13.6169 9.14709 13.843C9.14709 14.0692 9.23693 14.286 9.39685 14.4459C9.55676 14.6058 9.77365 14.6957 9.99981 14.6957C10.226 14.6957 10.4429 14.6058 10.6028 14.4459C10.7627 14.286 10.8525 14.0692 10.8525 13.843Z" fill="url(#paint0_linear_14104_15343)"/>
<defs>
<linearGradient id="paint0_linear_14104_15343" x1="10" y1="1.25" x2="10" y2="18.75" gradientUnits="userSpaceOnUse">
<stop stop-color="#1CDF7D"/>
<stop offset="1" stop-color="#00C8F0"/>
</linearGradient>
</defs>
</svg>