<svg width="32" height="32" viewBox="0 0 32 32" fill="none" xmlns="http://www.w3.org/2000/svg">
<rect x="2.2" y="2.2" width="27.6" height="27.6" rx="2.8" stroke="#7D8086" stroke-width="2.4"/>
<path fill-rule="evenodd" clip-rule="evenodd" d="M7.70005 24V8.00005C7.70005 7.33731 7.16279 6.80005 6.50005 6.80005C5.83731 6.80005 5.30005 7.33731 5.30005 8.00005V24C5.30005 24.6628 5.83731 25.2001 6.50005 25.2001C7.16279 25.2001 7.70005 24.6628 7.70005 24ZM17.2 8.00005C17.2 7.33731 16.6628 6.80005 16 6.80005H11C10.3373 6.80005 9.80005 7.33731 9.80005 8.00005C9.80005 8.66279 10.3373 9.20005 11 9.20005H14.8V14.8H11C10.3373 14.8 9.80005 15.3373 9.80005 16V24C9.80005 24.6628 10.3373 25.2001 11 25.2001H16C16.6628 25.2001 17.2 24.6628 17.2 24C17.2 23.3373 16.6628 22.8 16 22.8H12.2V17.2H16C16.6628 17.2 17.2 16.6628 17.2 16V8.00005ZM20.5 6.80005C19.8373 6.80005 19.3 7.33731 19.3 8.00005C19.3 8.66279 19.8373 9.20005 20.5 9.20005H24.3V14.8H20.5C19.8373 14.8 19.3 15.3373 19.3 16C19.3 16.6628 19.8373 17.2 20.5 17.2H24.3V22.8H20.5C19.8373 22.8 19.3 23.3373 19.3 24C19.3 24.6628 19.8373 25.2 20.5 25.2H25.4979H25.5C26.1628 25.2 26.7 24.6628 26.7 24V16V8.00005C26.7 7.33731 26.1628 6.80005 25.5 6.80005H20.5Z" fill="#7D8086"/>
</svg>
