<svg xmlns="http://www.w3.org/2000/svg" width="18" height="18" viewBox="0 0 18 18" fill="none">
<rect x="1.2375" y="1.2375" width="15.525" height="15.525" rx="1.575" stroke="#929AA5" stroke-width="1.35"/>
<rect x="3.0375" y="3.88125" width="1.2375" height="10.2375" rx="0.61875" fill="#929AA5" stroke="#929AA5" stroke-width="0.1125"/>
<path d="M9.61875 4.5C9.61875 4.15827 9.34173 3.88125 9 3.88125H6.1875C5.84577 3.88125 5.56875 4.15827 5.56875 4.5C5.56875 4.84173 5.84577 5.11875 6.1875 5.11875H8.38125V8.38125H6.1875C5.84577 8.38125 5.56875 8.65827 5.56875 9V13.5C5.56875 13.8417 5.84577 14.1187 6.1875 14.1187H9C9.34173 14.1187 9.61875 13.8417 9.61875 13.5C9.61875 13.1583 9.34173 12.8813 9 12.8813H6.80625V9.61875H9C9.34173 9.61875 9.61875 9.34173 9.61875 9V4.5Z" fill="#929AA5" stroke="#929AA5" stroke-width="0.1125"/>
<path d="M13.725 9.61875H11.5312C11.3878 9.61875 11.2556 9.56979 11.1507 9.48766L13.725 9.61875ZM13.725 9.61875V12.8813H11.5312C11.1896 12.8813 10.9125 13.158 10.9125 13.5C10.9125 13.7115 11.0184 13.8977 11.1796 14.0093L11.1797 14.0094C11.2795 14.0782 11.4007 14.1187 11.5312 14.1187H14.3438C14.6854 14.1187 14.9625 13.842 14.9625 13.5V4.5C14.9625 4.158 14.6854 3.88125 14.3438 3.88125H11.5312C11.3388 3.88125 11.1667 3.96891 11.0533 4.10662C11.0533 4.10662 11.0533 4.10661 11.0533 4.10661L13.725 9.61875ZM11.0532 4.10664C10.999 4.17249 10.958 4.24988 10.9346 4.33515C10.9202 4.38775 10.9125 4.44329 10.9125 4.5C10.9125 4.842 11.1896 5.11875 11.5312 5.11875H13.725V8.38125H11.5312C11.1896 8.38125 10.9125 8.658 10.9125 9C10.9125 9.19818 11.0058 9.37465 11.1506 9.48759L11.0532 4.10664Z" fill="#929AA5" stroke="#929AA5" stroke-width="0.1125"/>
</svg>
