<svg width="18" height="18" viewBox="0 0 18 18" fill="none" xmlns="http://www.w3.org/2000/svg">
<mask id="mask0_16039_1101" style="mask-type:alpha" maskUnits="userSpaceOnUse" x="0" y="0" width="18" height="18">
<rect width="18" height="18" fill="#D9D9D9"/>
</mask>
<g mask="url(#mask0_16039_1101)">
<path d="M11.1712 3.38741C11.8033 2.88707 12.2201 2.2519 12.488 1.51654C12.6481 1.07701 12.7114 0.581615 12.678 0.0303512C12.6768 0.00932338 12.6654 -0.000778107 12.6438 4.66971e-05C12.3989 0.0103539 12.1624 0.0517923 11.9344 0.124358C10.47 0.588211 9.51698 1.53385 9.07531 2.96129C8.96889 3.30598 8.93722 3.69294 8.9803 4.12215C8.98284 4.1473 8.99697 4.15947 9.02274 4.15864C9.82462 4.14298 10.5408 3.8859 11.1712 3.38741Z" fill="#67707B"/>
<path d="M14.4455 11.2967C14.4219 11.2492 14.3984 11.2017 14.3743 11.1547C14.2999 11.0112 14.2398 10.852 14.1937 10.6772C14.0595 10.1622 14.0132 9.6549 14.055 9.15517C14.1576 7.92194 14.9462 6.82663 15.9926 6.14755C16.0124 6.13477 16.0152 6.1191 16.0008 6.10054C15.7386 5.76657 15.5152 5.52537 15.3307 5.37693C14.4237 4.64796 13.3828 4.30492 12.2081 4.3478C11.4201 4.37625 10.643 4.68486 9.88542 4.98668C9.70004 5.06048 9.50517 5.11759 9.3008 5.15799C9.18087 5.1815 9.05082 5.18067 8.91062 5.15552C8.76115 5.12872 8.61991 5.09182 8.48689 5.04481C8.14824 4.92524 7.80009 4.79681 7.44245 4.65951C6.61987 4.3445 5.77494 4.31894 4.90762 4.58282C4.14628 4.81454 3.4943 5.21572 2.95172 5.78636C2.78576 5.96077 2.62169 6.14569 2.48617 6.34422C2.17031 6.80849 1.93449 7.28986 1.77868 7.78835C1.54115 8.54721 1.46198 9.41369 1.51644 10.2251C1.59877 11.4435 1.87999 12.6219 2.36011 13.7603C2.52142 14.1421 2.68948 14.488 2.86428 14.7981C3.23421 15.4545 3.66595 16.0825 4.15958 16.682C4.36775 16.9347 4.58248 17.1582 4.80373 17.3524C5.14702 17.6542 5.67211 17.99 6.14273 17.9993C6.64607 18.0096 7.13568 17.9053 7.61156 17.6864C7.72896 17.6328 7.85542 17.5798 7.99094 17.5274C8.63531 17.2792 9.27167 17.205 9.89999 17.3048C10.2256 17.3567 10.5406 17.4507 10.845 17.5868C11.322 17.8002 11.7818 17.9671 12.2784 17.977C12.813 17.9878 13.2832 17.8397 13.6889 17.533C14.0348 17.272 14.3392 16.9696 14.6023 16.6257C14.9557 16.1635 15.268 15.7219 15.5391 15.3009C15.9064 14.7307 16.182 14.0609 16.4347 13.4307C16.4613 13.3647 16.4826 13.2952 16.4987 13.2222C16.5005 13.2141 16.5005 13.207 16.4984 13.2008C16.4954 13.1916 16.4881 13.1845 16.4765 13.1796C15.7511 12.8608 15.1635 12.391 14.7138 11.7701C14.6065 11.6218 14.5257 11.4588 14.4455 11.2967Z" fill="#67707B"/>
</g>
</svg>
