<svg xmlns="http://www.w3.org/2000/svg" width="20" height="20" viewBox="0 0 20 20" fill="none">
<g clip-path="url(#clip0_14104_15362)">
<path d="M9.89174 14.7079C9.56742 14.3836 9.56742 13.8593 9.89174 13.5323C10.2161 13.2053 10.7404 13.208 11.0674 13.5323L13.5376 16.0025L14.189 15.3512L11.7187 12.8809C11.3944 12.5566 11.3944 12.0323 11.7187 11.7053C12.0431 11.3783 12.5674 11.381 12.8944 11.7053L15.3646 14.1755L16.9538 12.5864L11.8809 7.51887L11.3647 8.03507C11.0807 8.31983 10.7433 8.54568 10.3718 8.69966C10.0003 8.85364 9.60201 8.93272 9.19986 8.93236C8.41609 8.93236 7.63232 8.63236 7.03503 8.03507C6.59179 7.59184 6.59179 6.87023 7.03503 6.4297L10.089 3.37839L8.89446 2.18382C7.9215 1.21086 6.34315 1.21086 5.37019 2.18382L0.729726 6.82158C0.497719 7.05253 0.313777 7.32717 0.188528 7.62962C0.0632785 7.93208 -0.000795809 8.25635 7.46001e-06 8.58371C7.46001e-06 9.24857 0.259463 9.87558 0.729726 10.3458L8.19987 17.816C8.43083 18.048 8.70546 18.2319 9.00792 18.3572C9.31037 18.4824 9.63465 18.5465 9.96201 18.5457C10.6269 18.5457 11.2539 18.2863 11.7241 17.816L12.362 17.1782L9.89174 14.7079Z" fill="url(#paint0_linear_14104_15362)"/>
<path d="M19.2703 6.74568L14.7596 2.23224C14.5542 2.02954 14.3191 1.87819 14.0731 1.75928L8.6543 7.15649C8.91145 7.26479 9.19502 7.2941 9.46889 7.24067C9.74276 7.18725 9.99452 7.05351 10.1921 6.85649L11.2948 5.75381C11.6191 5.42949 12.1434 5.42949 12.4705 5.75381L18.1271 11.4105L19.273 10.2645C20.2433 9.29699 20.2433 7.71594 19.2703 6.74568Z" fill="url(#paint1_linear_14104_15362)"/>
</g>
<defs>
<linearGradient id="paint0_linear_14104_15362" x1="8.47689" y1="1.4541" x2="8.47689" y2="18.5457" gradientUnits="userSpaceOnUse">
<stop stop-color="#DFAE1C"/>
<stop offset="1" stop-color="#F08C00"/>
</linearGradient>
<linearGradient id="paint1_linear_14104_15362" x1="14.3273" y1="1.75928" x2="14.3273" y2="11.4105" gradientUnits="userSpaceOnUse">
<stop stop-color="#DFAE1C"/>
<stop offset="1" stop-color="#F08C00"/>
</linearGradient>
<clipPath id="clip0_14104_15362">
<rect width="20" height="20" fill="white"/>
</clipPath>
</defs>
</svg>