<svg xmlns="http://www.w3.org/2000/svg" width="18" height="18" viewBox="0 0 18 18" fill="none">
<path d="M8.88491 17.5C8.84009 17.5 8.7954 17.495 8.75172 17.485C8.67985 17.4683 6.96907 17.0641 5.24617 15.8101C4.22402 15.0662 3.40782 14.1759 2.8205 13.1643C2.08493 11.8974 1.7121 10.4453 1.7121 8.84685V3.58246C1.71211 3.46212 1.74875 3.34462 1.81715 3.24561C1.88556 3.14659 1.98248 3.07074 2.09504 3.02815L8.67581 0.53824C8.81101 0.487253 8.96016 0.487253 9.09536 0.53824L15.6761 3.02815C15.7887 3.07068 15.8857 3.14651 15.9542 3.24553C16.0226 3.34456 16.0593 3.46208 16.0593 3.58246V8.84685C16.0593 10.4453 15.6865 11.8978 14.9509 13.1643C14.3636 14.175 13.5474 15.0662 12.5252 15.8101C10.801 17.0632 9.09019 17.4674 9.0181 17.485C8.97441 17.495 8.92973 17.5 8.88491 17.5ZM2.89776 3.99146V8.84685C2.89776 11.346 3.9116 13.3584 5.91121 14.8277C7.18087 15.7605 8.47344 16.1773 8.88491 16.2941C9.29637 16.1773 10.5892 15.7605 11.8588 14.8277C13.8578 13.3584 14.8723 11.3464 14.8723 8.84685V3.99146L8.88491 1.7266L2.89776 3.99146Z" fill="#67707B" stroke="#67707B" stroke-width="0.3" stroke-linecap="round" stroke-linejoin="round"/>
<path d="M8.4404 11.3413H8.43142C8.35207 11.3401 8.27377 11.323 8.20115 11.291C8.12854 11.259 8.06311 11.2127 8.00872 11.1549L5.73995 8.7504C5.6321 8.63595 5.57414 8.48333 5.57881 8.32614C5.58349 8.16894 5.65042 8.02005 5.76488 7.9122C5.87934 7.80435 6.03195 7.74639 6.18914 7.75107C6.34634 7.75574 6.49524 7.82267 6.60308 7.93713L8.45321 9.89803L11.6933 6.56747C11.748 6.51089 11.8134 6.46578 11.8857 6.43475C11.9581 6.40372 12.0358 6.3874 12.1145 6.38674C12.1932 6.38608 12.2713 6.40109 12.3441 6.43091C12.417 6.46072 12.4831 6.50474 12.5388 6.56039C12.5944 6.61604 12.6384 6.68221 12.6683 6.75505C12.6981 6.82788 12.7131 6.90593 12.7124 6.98463C12.7118 7.06333 12.6954 7.14111 12.6644 7.21343C12.6334 7.28576 12.5883 7.35119 12.5317 7.4059L8.85951 11.1675C8.8045 11.2226 8.73918 11.2663 8.66726 11.2961C8.59535 11.3259 8.51826 11.3413 8.4404 11.3413Z" fill="#67707B"/>




</svg>