<svg width="18" height="18" viewBox="0 0 18 18" fill="none" xmlns="http://www.w3.org/2000/svg">
<path d="M17.3864 3.27273H13.5V1.84091C13.5 0.818182 12.6818 0 11.6591 0H6.34091C5.31818 0 4.5 0.818182 4.5 1.84091V3.27273H0.613636C0.286364 3.27273 0 3.55909 0 3.88636C0 4.21364 0.286364 4.5 0.613636 4.5H17.3864C17.7136 4.5 18 4.21364 18 3.88636C18 3.55909 17.7136 3.27273 17.3864 3.27273ZM5.72727 3.27273V1.84091C5.72727 1.51364 6.01364 1.22727 6.34091 1.22727H11.6591C11.9864 1.22727 12.2727 1.51364 12.2727 1.84091V3.27273H5.72727ZM15.3 5.72727C14.9727 5.72727 14.6864 6.01364 14.6864 6.34091V15.6273C14.6864 16.2409 14.1955 16.7727 13.5409 16.7727H4.41818C3.80455 16.7727 3.27273 16.2818 3.27273 15.6273V6.34091C3.27273 6.01364 2.98636 5.72727 2.65909 5.72727C2.33182 5.72727 2.04545 6.01364 2.04545 6.34091V15.6273C2.04545 16.9364 3.10909 18 4.41818 18H13.5818C14.8909 18 15.9545 16.9364 15.9545 15.6273V6.34091C15.9136 6.01364 15.6273 5.72727 15.3 5.72727Z" fill="#FDFDFD"/>
<path d="M7.28182 14.9318V6.34091C7.28182 6.01364 6.99545 5.72727 6.66818 5.72727C6.34091 5.72727 6.05455 6.01364 6.05455 6.34091V14.9318C6.05455 15.2591 6.34091 15.5455 6.66818 15.5455C6.99545 15.5455 7.28182 15.2591 7.28182 14.9318ZM11.9455 14.9318V6.34091C11.9455 6.01364 11.6591 5.72727 11.3318 5.72727C11.0045 5.72727 10.7182 6.01364 10.7182 6.34091V14.9318C10.7182 15.2591 11.0045 15.5455 11.3318 15.5455C11.6591 15.5455 11.9455 15.2591 11.9455 14.9318Z" fill="#FDFDFD"/>
</svg>
