<svg width="14" height="14" viewBox="0 0 14 14" fill="none" xmlns="http://www.w3.org/2000/svg">
<g clip-path="url(#clip0_4070_25797)">
<ellipse opacity="0.5" cx="7" cy="12.6002" rx="7" ry="1.4" fill="#67707B"/>
<path fill-rule="evenodd" clip-rule="evenodd" d="M2.54522 10.7548C1.36375 9.57329 0.699997 7.97086 0.699997 6.3C0.699997 4.62914 1.36375 3.02671 2.54522 1.84523C3.7267 0.663748 5.32913 0 7 0C8.67086 0 10.2733 0.663748 11.4548 1.84523C12.6362 3.02671 13.3 4.62914 13.3 6.3C13.3 7.97086 12.6362 9.57329 11.4548 10.7548C10.2733 11.9363 8.67086 12.6 7 12.6C5.32913 12.6 3.7267 11.9363 2.54522 10.7548ZM5.48394 5.74142L6.03577 7.43972L4.53568 9.50443L2.47106 9.58091C2.47106 9.58091 1.42441 8.49401 1.40428 6.25983L3.18414 4.99411L5.48394 5.74142ZM7.02815 4.29994L5.50214 5.40866L3.1141 4.6327L2.55157 2.75759C2.55157 2.75759 3.57808 1.36877 5.26882 0.885705L7.02815 2.10964V4.29994ZM8.87612 5.40866L7.35027 4.29994V2.00497L8.87161 0.885705C8.87161 0.885705 10.4215 1.32852 11.6492 2.91861L11.1304 4.67617L8.87612 5.40866ZM11.0415 5.04371L12.6758 6.21957C12.6758 6.21957 12.7563 8.23243 11.6492 9.54074H9.86907L8.34258 7.43964L8.8944 5.74134L11.0415 5.04371ZM6.32738 7.58617H8.05104L9.52923 9.62085L8.87161 11.5937C8.87161 11.5937 6.83871 12.3183 5.3895 11.5937L4.74067 9.77003L6.32738 7.58617Z" fill="#67707B"/>
</g>
<defs>
<clipPath id="clip0_4070_25797">
<rect width="14" height="14" fill="white"/>
</clipPath>
</defs>
</svg>
