<svg width="18" height="18" viewBox="0 0 18 18" fill="none" xmlns="http://www.w3.org/2000/svg">
<g id="dc_gl_icon">
<path id="Vector" d="M1 3.64436C1 3.56639 1 3.48842 1 3.41029C1.00485 3.39456 1.01188 3.379 1.01439 3.36294C1.10323 2.80294 1.41711 2.42849 1.95737 2.26285C4.34694 1.53002 6.73902 0.805213 9.1286 0.0722122C9.47678 -0.0345339 9.80722 -0.0221527 10.1479 0.104169C12.2174 0.872139 14.2872 1.63994 16.3617 2.39419C16.9219 2.59781 17.3454 3.11498 17.2969 3.79645C17.2507 4.44629 17.2169 5.09714 17.1771 5.74749C17.1126 6.8009 17.0471 7.85414 16.9831 8.90754C16.9244 9.87478 16.863 10.8419 16.8115 11.8096C16.7824 12.3557 16.5444 12.7588 16.0617 13.0255C15.2362 13.4816 14.4162 13.9477 13.594 14.4095C12.1628 15.2133 10.7325 16.0185 9.29892 16.8181C9.17478 16.8874 9.03089 16.9227 8.89386 16.966C8.8286 16.9866 8.75766 16.9893 8.68923 17H8.58901C8.50703 16.9854 8.42454 16.9739 8.3434 16.9555C8.10648 16.9021 7.91273 16.7713 7.72534 16.6219C5.94813 15.2056 4.16875 13.7923 2.39038 12.3775C2.08419 12.1339 1.92391 11.8134 1.88409 11.4249C1.82569 10.8546 1.7591 10.2849 1.69569 9.715C1.63127 9.13676 1.56636 8.55869 1.50211 7.98046C1.43267 7.35521 1.36424 6.72979 1.29497 6.10454C1.22453 5.46824 1.1551 4.83161 1.08182 4.19566C1.06073 4.01094 1.02761 3.8279 1 3.64436ZM10.0716 13.3519C10.0865 13.4367 10.0965 13.5572 10.1301 13.6708C10.1994 13.9052 10.3431 14.074 10.5963 14.1184C10.7679 14.1483 10.9282 14.1006 11.0768 14.0166C11.4399 13.8112 11.6684 13.4923 11.8177 13.1121C11.9411 12.7974 11.993 12.4737 11.898 12.1407C11.7854 11.746 11.4435 11.5744 11.0641 11.7291C10.9501 11.7756 10.8377 11.8411 10.7445 11.921C10.3185 12.2869 10.1102 12.7609 10.0716 13.3517V13.3519ZM15.5364 10.7928C15.5334 10.6153 15.5073 10.4462 15.4238 10.2901C15.2966 10.0525 15.064 9.93284 14.8029 9.99709C14.6658 10.0307 14.5268 10.0903 14.4114 10.1706C14.0644 10.412 13.8587 10.7585 13.7389 11.1577C13.6568 11.4316 13.6344 11.7094 13.721 11.9875C13.8243 12.3191 14.0941 12.4867 14.4187 12.4163C14.5042 12.3977 14.5916 12.3659 14.6658 12.3204C15.2349 11.9704 15.4803 11.4345 15.5365 10.7928H15.5364ZM15.6182 6.53855C15.6165 6.37508 15.5933 6.21931 15.5252 6.07241C15.3975 5.79668 15.147 5.67421 14.8519 5.74532C14.5522 5.81759 14.3319 6.00699 14.154 6.24608C13.8544 6.64898 13.6934 7.09554 13.7717 7.60551C13.8182 7.90835 14.0024 8.11866 14.2578 8.16651C14.4328 8.1993 14.5986 8.15714 14.7465 8.06662C15.3169 7.71727 15.5625 7.1807 15.6182 6.53838V6.53855ZM10.0314 8.89198C10.0425 8.99638 10.0468 9.07987 10.0607 9.16186C10.1286 9.5619 10.4186 9.78343 10.7835 9.70897C10.8718 9.6909 10.9597 9.65493 11.0392 9.6116C11.6077 9.3014 11.9952 8.47972 11.8807 7.83707C11.8088 7.43384 11.527 7.21801 11.1574 7.29113C11.0716 7.30802 10.9836 7.33881 10.9091 7.38398C10.3374 7.73183 10.0935 8.26874 10.0316 8.89181L10.0314 8.89198ZM5.40286 7.32241C5.42494 7.8712 5.58573 8.29936 5.87686 8.67899C6.00368 8.8443 6.15309 8.98534 6.35153 9.06331C6.59497 9.15901 6.80679 9.07134 6.90098 8.82823C6.93562 8.73889 6.96172 8.64084 6.9654 8.54564C6.98799 7.94415 6.77483 7.42933 6.36909 6.99163C6.2662 6.88054 6.14289 6.79337 5.99649 6.74535C5.77045 6.67106 5.56984 6.75422 5.48585 6.97641C5.43666 7.10675 5.41976 7.2493 5.40303 7.32258L5.40286 7.32241ZM7.31642 13.7312C7.28162 13.1218 7.09155 12.6329 6.69904 12.2366C6.59848 12.135 6.4658 12.0537 6.33312 11.9983C6.12214 11.9103 5.91986 11.9997 5.83269 12.2122C5.78517 12.3278 5.75221 12.4584 5.75087 12.5826C5.74435 13.1476 5.94679 13.639 6.32693 14.0514C6.42565 14.1585 6.55782 14.2462 6.69084 14.3079C6.92374 14.4163 7.14259 14.322 7.23293 14.0824C7.28112 13.9546 7.29735 13.8148 7.31659 13.7309L7.31642 13.7312ZM7.16383 11.1117C7.13824 10.6158 6.88927 10.0242 6.54193 9.67852C6.43033 9.56743 6.30719 9.47306 6.15343 9.42772C5.93893 9.36448 5.74953 9.44244 5.66738 9.65008C5.61936 9.77155 5.58674 9.90774 5.5854 10.0377C5.58004 10.531 5.75104 10.9687 6.04584 11.3594C6.17468 11.53 6.32693 11.6761 6.53189 11.754C6.76881 11.8441 6.97912 11.7594 7.0678 11.5222C7.11648 11.3916 7.13288 11.2491 7.16383 11.1119V11.1117ZM9.12425 3.83861C8.68037 3.8371 8.38573 3.87324 8.09945 3.96342C7.91524 4.02132 7.73755 4.09493 7.59868 4.23581C7.45396 4.38271 7.45948 4.55019 7.62495 4.67183C7.71731 4.73959 7.82472 4.79732 7.93415 4.82961C8.50937 4.99993 9.08292 4.96965 9.65062 4.78744C9.80789 4.73692 9.95546 4.66464 10.0754 4.54701C10.2245 4.40078 10.2195 4.23246 10.0548 4.1038C9.98792 4.0516 9.90995 4.0096 9.83115 3.97714C9.55893 3.86521 9.27098 3.83961 9.12425 3.83861ZM4.01884 6.77162C3.98923 6.20242 3.82074 5.74582 3.4739 5.36551C3.38639 5.26948 3.27178 5.18866 3.15466 5.13094C2.94285 5.0267 2.75278 5.10634 2.65205 5.32101C2.58178 5.47092 2.56606 5.63137 2.57676 5.79384C2.6037 6.2066 2.74341 6.58021 2.98267 6.91584C3.10163 7.08265 3.242 7.22939 3.43625 7.31087C3.6546 7.40239 3.84851 7.33178 3.93535 7.11227C3.98454 6.98812 4.0001 6.85076 4.01867 6.77162H4.01884ZM4.27567 9.28684C4.24839 8.73153 4.10768 8.29032 3.81857 7.90132C3.72822 7.77985 3.6213 7.67377 3.48126 7.60902C3.29939 7.52503 3.1284 7.57656 3.05009 7.76044C2.99906 7.8804 2.96443 8.01559 2.95941 8.14543C2.94134 8.62127 3.08372 9.05545 3.34122 9.45265C3.43726 9.60089 3.55287 9.73273 3.71215 9.81756C3.91494 9.92564 4.10082 9.8716 4.18465 9.65928C4.23969 9.51974 4.25726 9.36565 4.27567 9.28667V9.28684ZM8.97684 3.49946C9.33406 3.49896 9.67036 3.44592 9.94459 3.34436C10.0863 3.292 10.223 3.22909 10.3286 3.11615C10.4455 2.991 10.4423 2.85363 10.3088 2.74705C10.2362 2.68916 10.1516 2.63746 10.0637 2.60902C9.44783 2.40891 8.83413 2.43987 8.23079 2.65955C8.10665 2.70472 7.98819 2.78587 7.88897 2.87472C7.76633 2.98447 7.78072 3.13255 7.91122 3.23461C7.98451 3.292 8.06967 3.33951 8.15651 3.37314C8.41986 3.47504 8.69693 3.4998 8.97701 3.49963L8.97684 3.49946ZM12.5174 2.43752C12.4454 2.44505 12.3037 2.45426 12.164 2.47617C12.0014 2.50161 11.8438 2.54812 11.7046 2.64148C11.4947 2.78219 11.4819 2.97226 11.6768 3.13422C11.7444 3.19044 11.8217 3.24013 11.9023 3.27443C12.381 3.47805 12.8759 3.51067 13.3815 3.39757C13.5321 3.36394 13.6757 3.3104 13.792 3.20399C13.9188 3.08804 13.9333 2.94465 13.8132 2.82301C13.7349 2.74371 13.6377 2.67578 13.537 2.62743C13.2382 2.48387 12.9157 2.44321 12.5174 2.43769V2.43752ZM5.73514 3.35608C6.03731 3.34252 6.29163 3.30136 6.53206 3.19529C6.67093 3.13405 6.80127 3.05943 6.8886 2.92943C6.96958 2.80879 6.96875 2.67712 6.86234 2.58008C6.77818 2.50328 6.67712 2.43083 6.57054 2.39519C6.04835 2.22119 5.53286 2.25716 5.03728 2.49508C4.93806 2.5426 4.84821 2.62408 4.77543 2.70857C4.67555 2.82469 4.68542 2.96155 4.79417 3.0698C4.85775 3.13305 4.93672 3.18675 5.0182 3.2249C5.2578 3.3375 5.51613 3.35641 5.73514 3.35608ZM4.52195 11.5513C4.49167 11.0498 4.34862 10.6471 4.03791 10.318C3.95493 10.2302 3.84232 10.1614 3.73089 10.1117C3.59537 10.0513 3.45767 10.1025 3.38656 10.2328C3.33854 10.3207 3.30023 10.4236 3.29303 10.5223C3.2574 11.0194 3.42203 11.4536 3.74746 11.8247C3.82041 11.9078 3.91979 11.9764 4.01984 12.0256C4.20071 12.1148 4.36786 12.0507 4.44398 11.863C4.49 11.7495 4.50472 11.6234 4.52195 11.5511V11.5513ZM9.35916 2.20044C9.63087 2.19592 9.90008 2.16748 10.149 2.05354C10.2626 2.00151 10.3724 1.92755 10.4626 1.84122C10.5692 1.73933 10.5581 1.59962 10.4459 1.50341C10.3756 1.44318 10.2918 1.3883 10.2046 1.36036C9.70215 1.19991 9.20539 1.22735 8.7252 1.44502C8.63051 1.48802 8.54484 1.56599 8.47541 1.64563C8.39526 1.73732 8.40313 1.84674 8.4908 1.9319C8.55689 1.99598 8.6387 2.05036 8.72286 2.08817C8.92397 2.17852 9.14131 2.19559 9.35932 2.20027L9.35916 2.20044Z" fill="#9FA5AC"/>
</g>
</svg>
