<svg width="14" height="14" viewBox="0 0 14 14" fill="none" xmlns="http://www.w3.org/2000/svg">
<g id="dl_zddl_xz_icon">
<path id="Vector" d="M5.9435 12.3156C4.29401 10.6137 2.64809 8.91555 1 7.21509C1.42584 6.8684 1.84767 6.52493 2.27098 6.18024C3.22483 6.93874 4.1765 7.6956 5.13105 8.45471C7.26469 5.9341 9.70092 3.7628 12.5021 2C12.5377 2.08193 12.5729 2.16098 12.6065 2.24073C12.6583 2.3635 12.7094 2.4866 12.7598 2.60998C12.7889 2.68119 12.7751 2.73735 12.7205 2.79142C12.4217 3.08779 12.1189 3.38032 11.8256 3.682C11.3631 4.15755 10.9236 4.65408 10.4979 5.1628C9.76369 6.04032 9.07171 6.94989 8.42776 7.89559C7.75478 8.88394 7.13036 9.90173 6.57803 10.9627C6.36254 11.3767 6.16509 11.7992 5.9897 12.2319C5.98212 12.2506 5.97349 12.2691 5.96425 12.287C5.95971 12.2958 5.95265 12.3033 5.94359 12.3157L5.9435 12.3156Z" fill="currentColor"/>
</g>
</svg>
