<svg width="18" height="18" viewBox="0 0 18 18" fill="none" xmlns="http://www.w3.org/2000/svg">
<path fill-rule="evenodd" clip-rule="evenodd" d="M0 9C0 4.03905 4.03905 0 9 0C13.9609 0 18 4.03905 18 9C18 13.9609 13.9609 18 9 18C4.03905 18 0 13.9609 0 9ZM1.31749 9.00003C1.31749 13.2138 4.78613 16.6825 8.99992 16.6825C13.2137 16.6825 16.6824 13.2138 16.6824 9.00003C16.6824 4.78624 13.2137 1.31759 8.99992 1.31759C4.78613 1.31759 1.31749 4.78624 1.31749 9.00003Z" fill="#798D9F"/>
<path d="M5.1099 12.7465C4.75843 12.395 4.75843 11.8252 5.1099 11.4737L11.4739 5.10976C11.8253 4.75829 12.3952 4.75829 12.7467 5.10976C13.0981 5.46123 13.0981 6.03108 12.7467 6.38255L6.38269 12.7465C6.03122 13.098 5.46137 13.098 5.1099 12.7465Z" fill="#798D9F"/>
<path d="M12.7465 12.7465C13.098 12.395 13.098 11.8252 12.7465 11.4737L6.38255 5.10976C6.03108 4.75829 5.46123 4.75829 5.10976 5.10976C4.75829 5.46123 4.75829 6.03108 5.10976 6.38255L11.4737 12.7465C11.8252 13.098 12.395 13.098 12.7465 12.7465Z" fill="#798D9F"/>
</svg>
