<svg width="20" height="21" viewBox="0 0 20 21" fill="none" xmlns="http://www.w3.org/2000/svg">
<rect x="2" width="2" height="20" rx="1" fill="#67707B"/>
<rect x="19.0908" y="18.3638" width="1.81818" height="17.2727" rx="0.909091" transform="rotate(90 19.0908 18.3638)" fill="#67707B"/>
<rect width="1.81818" height="15.1274" rx="0.909091" transform="matrix(0.618459 0.785817 -0.86057 0.509333 14.5693 9.82861)" fill="#67707B"/>
<path d="M4.58491 0.317628L10.7074 4.33219L4.58491 6.52856L4.58491 0.317628Z" fill="#FF0000"/>
<path fill-rule="evenodd" clip-rule="evenodd" d="M7.53235 18.5401C7.78765 18.1421 7.79129 17.6399 7.52073 17.2295C7.25017 16.8192 6.75163 16.5708 6.23043 16.5654L5.77755 15.8786C6.70277 15.734 7.68547 16.1145 8.19563 16.8883C8.7058 17.6621 8.59083 18.5976 7.98522 19.227L7.53235 18.5401Z" fill="#67707B"/>
<circle cx="6" cy="6" r="5.57143" transform="matrix(1 0 0 -1 8 20)" fill="white" stroke="#3BC116" stroke-width="0.857143"/>
<path d="M17.5994 14.0001C17.5994 15.9883 15.9876 17.6001 13.9994 17.6001C12.0112 17.6001 10.3994 15.9883 10.3994 14.0001H17.5994Z" fill="#3BC116"/>
</svg>
