<svg width="18" height="18" viewBox="0 0 18 18" fill="none" xmlns="http://www.w3.org/2000/svg">
<path fill-rule="evenodd" clip-rule="evenodd" d="M2 1C0.895431 1 0 1.89543 0 3V15C0 16.1046 0.89543 17 2 17H16C17.1046 17 18 16.1046 18 15V3C18 1.89543 17.1046 1 16 1H2ZM13.5 6.27273C13.5 7.52794 12.4926 8.54545 11.25 8.54545C10.0074 8.54545 9 7.52794 9 6.27273C9 5.01751 10.0074 4 11.25 4C12.4926 4 13.5 5.01751 13.5 6.27273ZM6.75 13.0909C6.75 11.0826 8.36178 9.45455 10.35 9.45455H12.15C14.1382 9.45455 15.75 11.0826 15.75 13.0909C15.75 13.593 15.3471 14 14.85 14H7.65C7.15294 14 6.75 13.593 6.75 13.0909ZM2 10C2 9.44772 2.44772 9 3 9H6C6.55228 9 7 9.44772 7 10C7 10.5523 6.55228 11 6 11H3C2.44772 11 2 10.5523 2 10ZM3 5C2.44772 5 2 5.44772 2 6C2 6.55228 2.44772 7 3 7H6C6.55228 7 7 6.55228 7 6C7 5.44772 6.55228 5 6 5H3Z" fill="currentColor"/>
</svg>
