<svg width="44" height="44" viewBox="0 0 44 44" fill="none" xmlns="http://www.w3.org/2000/svg">
<g id="&#232;&#175;&#173;&#232;&#168;&#128;">
<path id="Union" fill-rule="evenodd" clip-rule="evenodd" d="M13 22C13 17.0294 17.0294 13 22 13C26.9706 13 31 17.0294 31 22C31 26.9706 26.9706 31 22 31C17.0294 31 13 26.9706 13 22ZM27.9124 26.881C28.8755 25.7157 29.5008 24.2609 29.6381 22.6667H25.9898C25.9596 23.6496 25.8632 24.5916 25.7098 25.4646C26.5142 25.829 27.2554 26.3081 27.9124 26.881ZM26.9752 27.8333C26.5017 27.4291 25.9786 27.0815 25.4162 26.8011C25.2879 27.2805 25.1405 27.7289 24.976 28.1402C24.8117 28.551 24.6269 28.9334 24.4215 29.2764C25.3682 28.9615 26.2329 28.467 26.9752 27.8333ZM24.4359 25.0003C23.6611 24.783 22.844 24.6667 22 24.6667C21.156 24.6667 20.3389 24.783 19.5641 25.0003C19.4473 24.2739 19.3711 23.4899 19.3442 22.6667H24.6558C24.6289 23.4899 24.5527 24.2739 24.4359 25.0003ZM19.8335 26.3102C20.5205 26.1083 21.2475 26 22 26C22.7525 26 23.4795 26.1083 24.1665 26.3102C24.0423 26.797 23.8982 27.2445 23.738 27.645C23.455 28.3525 23.1347 28.8803 22.8131 29.2204C22.4929 29.559 22.2179 29.6667 22 29.6667C21.7821 29.6667 21.5071 29.559 21.1869 29.2204C20.8653 28.8803 20.545 28.3525 20.262 27.645C20.1018 27.2445 19.9577 26.797 19.8335 26.3102ZM18.2902 25.4646C18.1368 24.5916 18.0404 23.6496 18.0102 22.6667H14.3619C14.4992 24.2609 15.1245 25.7157 16.0876 26.881C16.7446 26.3081 17.4858 25.829 18.2902 25.4646ZM17.0248 27.8333C17.4983 27.4291 18.0214 27.0816 18.5838 26.8012C18.7121 27.2805 18.8595 27.7289 19.024 28.1402C19.1883 28.551 19.3731 28.9334 19.5785 29.2764C18.6318 28.9615 17.7671 28.467 17.0248 27.8333ZM25.9898 21.3333H29.6381C29.5008 19.7391 28.8755 18.2843 27.9124 17.119C27.2554 17.6919 26.5142 18.171 25.7098 18.5354C25.8632 19.4084 25.9596 20.3504 25.9898 21.3333ZM26.9752 16.1667C26.5017 16.5709 25.9786 16.9185 25.4162 17.1989C25.2879 16.7195 25.1405 16.2711 24.976 15.8598C24.8117 15.449 24.6269 15.0666 24.4215 14.7236C25.3682 15.0385 26.2329 15.533 26.9752 16.1667ZM22 18C22.7525 18 23.4795 17.8917 24.1665 17.6898C24.0423 17.203 23.8982 16.7555 23.738 16.355C23.455 15.6475 23.1347 15.1197 22.8131 14.7796C22.4929 14.441 22.2179 14.3333 22 14.3333C21.7821 14.3333 21.5071 14.441 21.1869 14.7796C20.8653 15.1197 20.545 15.6475 20.262 16.355C20.1018 16.7555 19.9577 17.203 19.8335 17.6898C20.5205 17.8917 21.2475 18 22 18ZM22 19.3333C21.156 19.3333 20.3389 19.217 19.5641 18.9997C19.4473 19.7261 19.3711 20.5101 19.3442 21.3333H24.6558C24.6289 20.5101 24.5527 19.7261 24.4359 18.9997C23.6611 19.217 22.844 19.3333 22 19.3333ZM19.024 15.8598C18.8595 16.2711 18.7121 16.7195 18.5838 17.1988C18.0214 16.9184 17.4983 16.5709 17.0248 16.1667C17.7671 15.533 18.6318 15.0385 19.5785 14.7236C19.3731 15.0666 19.1883 15.449 19.024 15.8598ZM18.2902 18.5354C17.4858 18.171 16.7446 17.6919 16.0876 17.119C15.1245 18.2843 14.4992 19.7391 14.3619 21.3333H18.0102C18.0404 20.3504 18.1368 19.4084 18.2902 18.5354Z" fill="#9FA5AC"/>
</g>
</svg>
