<svg width="18" height="16" viewBox="0 0 18 16" fill="none" xmlns="http://www.w3.org/2000/svg">
<g id="Group 5787">
<path id="Vector" d="M3.27273 8L4.90909 4.8V4H2.45455V4.8H4.09091L2.45455 8M6.54545 8L8.18182 4.8V4H5.72727V4.8H7.36364L5.72727 8M9.81818 8L11.4545 4.8V4H9V4.8H10.6364L9 8M16.3636 0C15.4636 0 14.7273 0.72 14.7273 1.6C14.7273 2.16 15.0545 2.72 15.5455 2.96V12H13.0909V10.4C13.5818 10.4 13.9091 10.08 13.9091 9.6V2.4C13.9091 1.92 13.5818 1.6 13.0909 1.6H9.98182C9.32727 0.64 8.18182 1.875e-08 6.95455 0C5.72727 -1.875e-08 4.58182 0.64 3.92727 1.6H0.818182C0.327273 1.6 -1.91761e-08 1.92 0 2.4V9.6C0 10.08 0.327273 10.4 0.818182 10.4V16H13.0909V13.6H15.5455C16.4455 13.6 17.1818 12.88 17.1818 12V2.96C17.6727 2.72 18 2.16 18 1.6C18 0.72 17.2636 1.875e-08 16.3636 0ZM9.81818 13.6H4.09091V12H9.81818V13.6ZM12.2727 8.8H1.63636V3.2H12.2727V8.8Z" fill="currentColor"/>
</g>
</svg>
