<svg xmlns="http://www.w3.org/2000/svg" width="20" height="20" viewBox="0 0 20 20" fill="none">
  <path d="M18.9482 7.70849C18.8195 7.24354 18.3691 6.91144 17.9187 6.84502L13.2215 6.11439L11.1624 1.73063C10.9694 1.26568 10.519 1 10.0042 1C9.48945 1 9.03904 1.26568 8.846 1.73063L6.78696 6.11439L2.08976 6.84502C1.63934 6.91144 1.18892 7.24354 1.06023 7.70849C0.931542 8.17343 0.995887 8.7048 1.38196 9.0369L4.79225 12.5572L4.02011 17.4723C3.95577 17.9373 4.1488 18.4686 4.53487 18.7343C4.72791 18.8672 5.04964 19 5.30702 19C5.50005 19 5.75743 18.9336 5.95047 18.8672L10.0686 16.6089L14.1867 18.8672C14.3797 19 14.5727 19 14.8301 19C15.0875 19 15.3449 18.9336 15.6022 18.7343C15.9883 18.4686 16.2457 17.9373 16.117 17.4723L15.3449 12.5572L18.7552 9.0369C18.9482 8.7048 19.0769 8.17343 18.9482 7.70849Z" stroke="currentColor" stroke-width="2"/>
</svg>