<svg width="18" height="18" viewBox="0 0 18 18" fill="none" xmlns="http://www.w3.org/2000/svg">
<circle cx="9" cy="9" r="9" fill="#3BC116"/>
<path d="M6.09763 4.86964C4.70894 5.81881 3.94316 7.3559 3.9565 8.92841C3.95692 8.94808 3.94634 8.95792 3.92475 8.95792H2.01982C1.99738 8.95792 1.994 8.9654 2.00966 8.98035L4.58258 11.4589C4.58564 11.4618 4.58928 11.464 4.59328 11.4655C4.59729 11.467 4.60157 11.4678 4.60589 11.4677C4.61021 11.4677 4.61448 11.4668 4.61843 11.4652C4.62239 11.4636 4.62596 11.4613 4.62893 11.4583L7.18535 8.97858C7.19974 8.96481 7.19657 8.95792 7.17582 8.95792H5.28994C5.28517 8.95792 5.28044 8.95703 5.27604 8.9553C5.27164 8.95356 5.26766 8.95102 5.26434 8.94783C5.26102 8.94463 5.25843 8.94085 5.25672 8.9367C5.25501 8.93255 5.25422 8.92812 5.25439 8.92369C5.29883 7.39132 6.12938 6.10687 7.62412 5.48766C7.85482 5.39243 8.09188 5.32475 8.33529 5.28461C8.65363 5.23188 8.89068 5.20866 9.04646 5.21495C9.66112 5.23975 10.2747 5.37492 10.8873 5.62048C10.8939 5.62327 10.9014 5.62408 10.9087 5.62282C10.9159 5.62155 10.9226 5.61827 10.9279 5.61339L11.8461 4.73919C11.8651 4.72069 11.8624 4.70574 11.8378 4.69433C11.2816 4.435 10.7537 4.24709 10.2542 4.13061C9.57434 3.97202 8.83756 3.95785 8.04384 4.08811C7.33944 4.2038 6.6907 4.46431 6.09763 4.86964Z" fill="white"/>
<path d="M10.8287 8.95819L12.8308 8.9576C12.8532 8.9576 12.864 8.96803 12.8632 8.98888C12.8257 10.1199 12.3596 11.1487 11.4427 11.863C10.602 12.5178 9.65357 12.782 8.5974 12.6557C8.19948 12.6077 7.74632 12.4863 7.23792 12.2915C7.21802 12.2836 7.20024 12.287 7.18458 12.3015L6.24227 13.1781C6.24033 13.1799 6.23888 13.1821 6.23807 13.1845C6.23725 13.1869 6.23709 13.1895 6.23758 13.1921C6.23808 13.1946 6.23923 13.197 6.24093 13.1991C6.24262 13.2012 6.24483 13.2029 6.24735 13.2041C6.30286 13.229 6.35858 13.2542 6.41451 13.2796C7.08614 13.5834 7.78953 13.9016 8.54216 13.9779C9.18644 14.0429 9.84407 13.9661 10.515 13.7477C11.4476 13.4439 12.2265 12.9168 12.8517 12.1664C13.6463 11.2125 14.0459 10.1515 14.0506 8.98357C14.051 8.95681 14.0654 8.94343 14.0938 8.94343H15.9853C15.9882 8.94334 15.991 8.94247 15.9934 8.94095C15.9958 8.93942 15.9977 8.93729 15.9988 8.93482C15.9999 8.93234 16.0003 8.92961 15.9998 8.92696C15.9993 8.9243 15.9981 8.92183 15.9961 8.91982L13.4239 6.44242C13.4086 6.42786 13.3934 6.42805 13.3781 6.44301L10.8179 8.93458C10.8014 8.95032 10.805 8.95819 10.8287 8.95819Z" fill="white"/>
</svg>
